%TF.GenerationSoftware,KiCad,Pcbnew,(5.1.8)-1*%
%TF.CreationDate,2021-03-10T03:26:46+01:00*%
%TF.ProjectId,C64 SpeedDOS Adapter,43363420-5370-4656-9564-444f53204164,rev?*%
%TF.SameCoordinates,Original*%
%TF.FileFunction,Soldermask,Bot*%
%TF.FilePolarity,Negative*%
%FSLAX46Y46*%
G04 Gerber Fmt 4.6, Leading zero omitted, Abs format (unit mm)*
G04 Created by KiCad (PCBNEW (5.1.8)-1) date 2021-03-10 03:26:46*
%MOMM*%
%LPD*%
G01*
G04 APERTURE LIST*
%ADD10R,2.200000X6.000000*%
%ADD11C,1.700000*%
%ADD12C,5.100000*%
G04 APERTURE END LIST*
D10*
%TO.C,J1*%
X129795000Y-105410000D03*
X133755000Y-105410000D03*
X137715000Y-105410000D03*
X141675000Y-105410000D03*
X145635000Y-105410000D03*
X149595000Y-105410000D03*
X153555000Y-105410000D03*
X157515000Y-105410000D03*
X161475000Y-105410000D03*
X165435000Y-105410000D03*
X169395000Y-105410000D03*
X173355000Y-105410000D03*
%TD*%
D11*
%TO.C,J2*%
X163068000Y-92710000D03*
X160528000Y-92710000D03*
X157988000Y-92710000D03*
X155448000Y-92710000D03*
X152908000Y-92710000D03*
X150368000Y-92710000D03*
X147828000Y-92710000D03*
X145288000Y-92710000D03*
X142748000Y-92710000D03*
X140208000Y-90170000D03*
X145288000Y-90170000D03*
X150368000Y-90170000D03*
X155448000Y-90170000D03*
X160528000Y-90170000D03*
X140208000Y-92710000D03*
X142748000Y-90170000D03*
X147828000Y-90170000D03*
X152908000Y-90170000D03*
X157988000Y-90170000D03*
G36*
G01*
X162468000Y-89320000D02*
X163668000Y-89320000D01*
G75*
G02*
X163918000Y-89570000I0J-250000D01*
G01*
X163918000Y-90770000D01*
G75*
G02*
X163668000Y-91020000I-250000J0D01*
G01*
X162468000Y-91020000D01*
G75*
G02*
X162218000Y-90770000I0J250000D01*
G01*
X162218000Y-89570000D01*
G75*
G02*
X162468000Y-89320000I250000J0D01*
G01*
G37*
%TD*%
D12*
%TO.C,M1*%
X120904000Y-98298000D03*
%TD*%
%TO.C,M2*%
X182372000Y-98298000D03*
%TD*%
%TO.C,M3*%
X182372000Y-83820000D03*
%TD*%
%TO.C,M4*%
X120904000Y-83820000D03*
%TD*%
M02*
