%TF.GenerationSoftware,KiCad,Pcbnew,(5.1.8)-1*%
%TF.CreationDate,2021-03-10T03:26:46+01:00*%
%TF.ProjectId,C64 SpeedDOS Adapter,43363420-5370-4656-9564-444f53204164,rev?*%
%TF.SameCoordinates,Original*%
%TF.FileFunction,Legend,Bot*%
%TF.FilePolarity,Positive*%
%FSLAX46Y46*%
G04 Gerber Fmt 4.6, Leading zero omitted, Abs format (unit mm)*
G04 Created by KiCad (PCBNEW (5.1.8)-1) date 2021-03-10 03:26:46*
%MOMM*%
%LPD*%
G01*
G04 APERTURE LIST*
%ADD10C,0.150000*%
G04 APERTURE END LIST*
D10*
X162780857Y-101290380D02*
X163257047Y-101290380D01*
X163257047Y-100290380D01*
X162447523Y-101290380D02*
X162447523Y-100623714D01*
X162447523Y-100290380D02*
X162495142Y-100338000D01*
X162447523Y-100385619D01*
X162399904Y-100338000D01*
X162447523Y-100290380D01*
X162447523Y-100385619D01*
X161542761Y-101242761D02*
X161638000Y-101290380D01*
X161828476Y-101290380D01*
X161923714Y-101242761D01*
X161971333Y-101195142D01*
X162018952Y-101099904D01*
X162018952Y-100814190D01*
X161971333Y-100718952D01*
X161923714Y-100671333D01*
X161828476Y-100623714D01*
X161638000Y-100623714D01*
X161542761Y-100671333D01*
X160733238Y-101242761D02*
X160828476Y-101290380D01*
X161018952Y-101290380D01*
X161114190Y-101242761D01*
X161161809Y-101147523D01*
X161161809Y-100766571D01*
X161114190Y-100671333D01*
X161018952Y-100623714D01*
X160828476Y-100623714D01*
X160733238Y-100671333D01*
X160685619Y-100766571D01*
X160685619Y-100861809D01*
X161161809Y-100957047D01*
X160257047Y-100623714D02*
X160257047Y-101290380D01*
X160257047Y-100718952D02*
X160209428Y-100671333D01*
X160114190Y-100623714D01*
X159971333Y-100623714D01*
X159876095Y-100671333D01*
X159828476Y-100766571D01*
X159828476Y-101290380D01*
X159399904Y-101242761D02*
X159304666Y-101290380D01*
X159114190Y-101290380D01*
X159018952Y-101242761D01*
X158971333Y-101147523D01*
X158971333Y-101099904D01*
X159018952Y-101004666D01*
X159114190Y-100957047D01*
X159257047Y-100957047D01*
X159352285Y-100909428D01*
X159399904Y-100814190D01*
X159399904Y-100766571D01*
X159352285Y-100671333D01*
X159257047Y-100623714D01*
X159114190Y-100623714D01*
X159018952Y-100671333D01*
X158161809Y-101242761D02*
X158257047Y-101290380D01*
X158447523Y-101290380D01*
X158542761Y-101242761D01*
X158590380Y-101147523D01*
X158590380Y-100766571D01*
X158542761Y-100671333D01*
X158447523Y-100623714D01*
X158257047Y-100623714D01*
X158161809Y-100671333D01*
X158114190Y-100766571D01*
X158114190Y-100861809D01*
X158590380Y-100957047D01*
X157257047Y-101290380D02*
X157257047Y-100290380D01*
X157257047Y-101242761D02*
X157352285Y-101290380D01*
X157542761Y-101290380D01*
X157638000Y-101242761D01*
X157685619Y-101195142D01*
X157733238Y-101099904D01*
X157733238Y-100814190D01*
X157685619Y-100718952D01*
X157638000Y-100671333D01*
X157542761Y-100623714D01*
X157352285Y-100623714D01*
X157257047Y-100671333D01*
X155590380Y-100623714D02*
X155590380Y-101290380D01*
X156018952Y-100623714D02*
X156018952Y-101147523D01*
X155971333Y-101242761D01*
X155876095Y-101290380D01*
X155733238Y-101290380D01*
X155638000Y-101242761D01*
X155590380Y-101195142D01*
X155114190Y-100623714D02*
X155114190Y-101290380D01*
X155114190Y-100718952D02*
X155066571Y-100671333D01*
X154971333Y-100623714D01*
X154828476Y-100623714D01*
X154733238Y-100671333D01*
X154685619Y-100766571D01*
X154685619Y-101290380D01*
X153780857Y-101290380D02*
X153780857Y-100290380D01*
X153780857Y-101242761D02*
X153876095Y-101290380D01*
X154066571Y-101290380D01*
X154161809Y-101242761D01*
X154209428Y-101195142D01*
X154257047Y-101099904D01*
X154257047Y-100814190D01*
X154209428Y-100718952D01*
X154161809Y-100671333D01*
X154066571Y-100623714D01*
X153876095Y-100623714D01*
X153780857Y-100671333D01*
X152923714Y-101242761D02*
X153018952Y-101290380D01*
X153209428Y-101290380D01*
X153304666Y-101242761D01*
X153352285Y-101147523D01*
X153352285Y-100766571D01*
X153304666Y-100671333D01*
X153209428Y-100623714D01*
X153018952Y-100623714D01*
X152923714Y-100671333D01*
X152876095Y-100766571D01*
X152876095Y-100861809D01*
X153352285Y-100957047D01*
X152447523Y-101290380D02*
X152447523Y-100623714D01*
X152447523Y-100814190D02*
X152399904Y-100718952D01*
X152352285Y-100671333D01*
X152257047Y-100623714D01*
X152161809Y-100623714D01*
X150495142Y-101195142D02*
X150542761Y-101242761D01*
X150685619Y-101290380D01*
X150780857Y-101290380D01*
X150923714Y-101242761D01*
X151018952Y-101147523D01*
X151066571Y-101052285D01*
X151114190Y-100861809D01*
X151114190Y-100718952D01*
X151066571Y-100528476D01*
X151018952Y-100433238D01*
X150923714Y-100338000D01*
X150780857Y-100290380D01*
X150685619Y-100290380D01*
X150542761Y-100338000D01*
X150495142Y-100385619D01*
X150066571Y-100766571D02*
X149733238Y-100766571D01*
X149590380Y-101290380D02*
X150066571Y-101290380D01*
X150066571Y-100290380D01*
X149590380Y-100290380D01*
X148590380Y-101290380D02*
X148923714Y-100814190D01*
X149161809Y-101290380D02*
X149161809Y-100290380D01*
X148780857Y-100290380D01*
X148685619Y-100338000D01*
X148638000Y-100385619D01*
X148590380Y-100480857D01*
X148590380Y-100623714D01*
X148638000Y-100718952D01*
X148685619Y-100766571D01*
X148780857Y-100814190D01*
X149161809Y-100814190D01*
X148161809Y-101290380D02*
X148161809Y-100290380D01*
X147590380Y-101290380D01*
X147590380Y-100290380D01*
X146161809Y-100290380D02*
X145971333Y-100290380D01*
X145876095Y-100338000D01*
X145780857Y-100433238D01*
X145733238Y-100623714D01*
X145733238Y-100957047D01*
X145780857Y-101147523D01*
X145876095Y-101242761D01*
X145971333Y-101290380D01*
X146161809Y-101290380D01*
X146257047Y-101242761D01*
X146352285Y-101147523D01*
X146399904Y-100957047D01*
X146399904Y-100623714D01*
X146352285Y-100433238D01*
X146257047Y-100338000D01*
X146161809Y-100290380D01*
X145304666Y-101290380D02*
X145304666Y-100290380D01*
X145304666Y-100766571D02*
X144733238Y-100766571D01*
X144733238Y-101290380D02*
X144733238Y-100290380D01*
X143780857Y-101290380D02*
X144257047Y-101290380D01*
X144257047Y-100290380D01*
X142780857Y-100623714D02*
X142542761Y-101290380D01*
X142304666Y-100623714D01*
X141399904Y-101290380D02*
X141971333Y-101290380D01*
X141685619Y-101290380D02*
X141685619Y-100290380D01*
X141780857Y-100433238D01*
X141876095Y-100528476D01*
X141971333Y-100576095D01*
X140971333Y-101195142D02*
X140923714Y-101242761D01*
X140971333Y-101290380D01*
X141018952Y-101242761D01*
X140971333Y-101195142D01*
X140971333Y-101290380D01*
X140542761Y-100385619D02*
X140495142Y-100338000D01*
X140399904Y-100290380D01*
X140161809Y-100290380D01*
X140066571Y-100338000D01*
X140018952Y-100385619D01*
X139971333Y-100480857D01*
X139971333Y-100576095D01*
X140018952Y-100718952D01*
X140590380Y-101290380D01*
X139971333Y-101290380D01*
X160114190Y-82305380D02*
X160114190Y-81305380D01*
X159876095Y-81305380D01*
X159733238Y-81353000D01*
X159638000Y-81448238D01*
X159590380Y-81543476D01*
X159542761Y-81733952D01*
X159542761Y-81876809D01*
X159590380Y-82067285D01*
X159638000Y-82162523D01*
X159733238Y-82257761D01*
X159876095Y-82305380D01*
X160114190Y-82305380D01*
X158733238Y-82257761D02*
X158828476Y-82305380D01*
X159018952Y-82305380D01*
X159114190Y-82257761D01*
X159161809Y-82162523D01*
X159161809Y-81781571D01*
X159114190Y-81686333D01*
X159018952Y-81638714D01*
X158828476Y-81638714D01*
X158733238Y-81686333D01*
X158685619Y-81781571D01*
X158685619Y-81876809D01*
X159161809Y-81972047D01*
X158304666Y-82257761D02*
X158209428Y-82305380D01*
X158018952Y-82305380D01*
X157923714Y-82257761D01*
X157876095Y-82162523D01*
X157876095Y-82114904D01*
X157923714Y-82019666D01*
X158018952Y-81972047D01*
X158161809Y-81972047D01*
X158257047Y-81924428D01*
X158304666Y-81829190D01*
X158304666Y-81781571D01*
X158257047Y-81686333D01*
X158161809Y-81638714D01*
X158018952Y-81638714D01*
X157923714Y-81686333D01*
X157447523Y-82305380D02*
X157447523Y-81638714D01*
X157447523Y-81305380D02*
X157495142Y-81353000D01*
X157447523Y-81400619D01*
X157399904Y-81353000D01*
X157447523Y-81305380D01*
X157447523Y-81400619D01*
X156542761Y-81638714D02*
X156542761Y-82448238D01*
X156590380Y-82543476D01*
X156638000Y-82591095D01*
X156733238Y-82638714D01*
X156876095Y-82638714D01*
X156971333Y-82591095D01*
X156542761Y-82257761D02*
X156638000Y-82305380D01*
X156828476Y-82305380D01*
X156923714Y-82257761D01*
X156971333Y-82210142D01*
X157018952Y-82114904D01*
X157018952Y-81829190D01*
X156971333Y-81733952D01*
X156923714Y-81686333D01*
X156828476Y-81638714D01*
X156638000Y-81638714D01*
X156542761Y-81686333D01*
X156066571Y-81638714D02*
X156066571Y-82305380D01*
X156066571Y-81733952D02*
X156018952Y-81686333D01*
X155923714Y-81638714D01*
X155780857Y-81638714D01*
X155685619Y-81686333D01*
X155638000Y-81781571D01*
X155638000Y-82305380D01*
X154780857Y-82257761D02*
X154876095Y-82305380D01*
X155066571Y-82305380D01*
X155161809Y-82257761D01*
X155209428Y-82162523D01*
X155209428Y-81781571D01*
X155161809Y-81686333D01*
X155066571Y-81638714D01*
X154876095Y-81638714D01*
X154780857Y-81686333D01*
X154733238Y-81781571D01*
X154733238Y-81876809D01*
X155209428Y-81972047D01*
X153876095Y-82305380D02*
X153876095Y-81305380D01*
X153876095Y-82257761D02*
X153971333Y-82305380D01*
X154161809Y-82305380D01*
X154257047Y-82257761D01*
X154304666Y-82210142D01*
X154352285Y-82114904D01*
X154352285Y-81829190D01*
X154304666Y-81733952D01*
X154257047Y-81686333D01*
X154161809Y-81638714D01*
X153971333Y-81638714D01*
X153876095Y-81686333D01*
X152780857Y-81638714D02*
X152399904Y-81638714D01*
X152638000Y-82305380D02*
X152638000Y-81448238D01*
X152590380Y-81353000D01*
X152495142Y-81305380D01*
X152399904Y-81305380D01*
X151923714Y-82305380D02*
X152018952Y-82257761D01*
X152066571Y-82210142D01*
X152114190Y-82114904D01*
X152114190Y-81829190D01*
X152066571Y-81733952D01*
X152018952Y-81686333D01*
X151923714Y-81638714D01*
X151780857Y-81638714D01*
X151685619Y-81686333D01*
X151638000Y-81733952D01*
X151590380Y-81829190D01*
X151590380Y-82114904D01*
X151638000Y-82210142D01*
X151685619Y-82257761D01*
X151780857Y-82305380D01*
X151923714Y-82305380D01*
X151161809Y-82305380D02*
X151161809Y-81638714D01*
X151161809Y-81829190D02*
X151114190Y-81733952D01*
X151066571Y-81686333D01*
X150971333Y-81638714D01*
X150876095Y-81638714D01*
X149352285Y-81638714D02*
X149352285Y-82305380D01*
X149780857Y-81638714D02*
X149780857Y-82162523D01*
X149733238Y-82257761D01*
X149638000Y-82305380D01*
X149495142Y-82305380D01*
X149399904Y-82257761D01*
X149352285Y-82210142D01*
X148923714Y-82257761D02*
X148828476Y-82305380D01*
X148638000Y-82305380D01*
X148542761Y-82257761D01*
X148495142Y-82162523D01*
X148495142Y-82114904D01*
X148542761Y-82019666D01*
X148638000Y-81972047D01*
X148780857Y-81972047D01*
X148876095Y-81924428D01*
X148923714Y-81829190D01*
X148923714Y-81781571D01*
X148876095Y-81686333D01*
X148780857Y-81638714D01*
X148638000Y-81638714D01*
X148542761Y-81686333D01*
X147685619Y-82257761D02*
X147780857Y-82305380D01*
X147971333Y-82305380D01*
X148066571Y-82257761D01*
X148114190Y-82162523D01*
X148114190Y-81781571D01*
X148066571Y-81686333D01*
X147971333Y-81638714D01*
X147780857Y-81638714D01*
X147685619Y-81686333D01*
X147638000Y-81781571D01*
X147638000Y-81876809D01*
X148114190Y-81972047D01*
X146542761Y-81638714D02*
X146352285Y-82305380D01*
X146161809Y-81829190D01*
X145971333Y-82305380D01*
X145780857Y-81638714D01*
X145399904Y-82305380D02*
X145399904Y-81638714D01*
X145399904Y-81305380D02*
X145447523Y-81353000D01*
X145399904Y-81400619D01*
X145352285Y-81353000D01*
X145399904Y-81305380D01*
X145399904Y-81400619D01*
X145066571Y-81638714D02*
X144685619Y-81638714D01*
X144923714Y-81305380D02*
X144923714Y-82162523D01*
X144876095Y-82257761D01*
X144780857Y-82305380D01*
X144685619Y-82305380D01*
X144352285Y-82305380D02*
X144352285Y-81305380D01*
X143923714Y-82305380D02*
X143923714Y-81781571D01*
X143971333Y-81686333D01*
X144066571Y-81638714D01*
X144209428Y-81638714D01*
X144304666Y-81686333D01*
X144352285Y-81733952D01*
X160566571Y-83860142D02*
X160614190Y-83907761D01*
X160757047Y-83955380D01*
X160852285Y-83955380D01*
X160995142Y-83907761D01*
X161090380Y-83812523D01*
X161138000Y-83717285D01*
X161185619Y-83526809D01*
X161185619Y-83383952D01*
X161138000Y-83193476D01*
X161090380Y-83098238D01*
X160995142Y-83003000D01*
X160852285Y-82955380D01*
X160757047Y-82955380D01*
X160614190Y-83003000D01*
X160566571Y-83050619D01*
X159709428Y-82955380D02*
X159899904Y-82955380D01*
X159995142Y-83003000D01*
X160042761Y-83050619D01*
X160138000Y-83193476D01*
X160185619Y-83383952D01*
X160185619Y-83764904D01*
X160138000Y-83860142D01*
X160090380Y-83907761D01*
X159995142Y-83955380D01*
X159804666Y-83955380D01*
X159709428Y-83907761D01*
X159661809Y-83860142D01*
X159614190Y-83764904D01*
X159614190Y-83526809D01*
X159661809Y-83431571D01*
X159709428Y-83383952D01*
X159804666Y-83336333D01*
X159995142Y-83336333D01*
X160090380Y-83383952D01*
X160138000Y-83431571D01*
X160185619Y-83526809D01*
X158757047Y-83288714D02*
X158757047Y-83955380D01*
X158995142Y-82907761D02*
X159233238Y-83622047D01*
X158614190Y-83622047D01*
X156947523Y-83955380D02*
X157518952Y-83955380D01*
X157233238Y-83955380D02*
X157233238Y-82955380D01*
X157328476Y-83098238D01*
X157423714Y-83193476D01*
X157518952Y-83241095D01*
X156042761Y-82955380D02*
X156518952Y-82955380D01*
X156566571Y-83431571D01*
X156518952Y-83383952D01*
X156423714Y-83336333D01*
X156185619Y-83336333D01*
X156090380Y-83383952D01*
X156042761Y-83431571D01*
X155995142Y-83526809D01*
X155995142Y-83764904D01*
X156042761Y-83860142D01*
X156090380Y-83907761D01*
X156185619Y-83955380D01*
X156423714Y-83955380D01*
X156518952Y-83907761D01*
X156566571Y-83860142D01*
X155138000Y-83288714D02*
X155138000Y-83955380D01*
X155376095Y-82907761D02*
X155614190Y-83622047D01*
X154995142Y-83622047D01*
X154090380Y-83955380D02*
X154661809Y-83955380D01*
X154376095Y-83955380D02*
X154376095Y-82955380D01*
X154471333Y-83098238D01*
X154566571Y-83193476D01*
X154661809Y-83241095D01*
X153661809Y-83574428D02*
X152899904Y-83574428D01*
X152423714Y-83955380D02*
X152423714Y-82955380D01*
X151947523Y-83955380D02*
X151947523Y-82955380D01*
X150852285Y-82955380D02*
X150518952Y-83955380D01*
X150185619Y-82955380D01*
X149852285Y-83955380D02*
X149852285Y-82955380D01*
X149423714Y-83669666D02*
X148947523Y-83669666D01*
X149518952Y-83955380D02*
X149185619Y-82955380D01*
X148852285Y-83955380D01*
X147804666Y-83669666D02*
X147328476Y-83669666D01*
X147899904Y-83955380D02*
X147566571Y-82955380D01*
X147233238Y-83955380D01*
X146471333Y-83955380D02*
X146471333Y-82955380D01*
X146471333Y-83907761D02*
X146566571Y-83955380D01*
X146757047Y-83955380D01*
X146852285Y-83907761D01*
X146899904Y-83860142D01*
X146947523Y-83764904D01*
X146947523Y-83479190D01*
X146899904Y-83383952D01*
X146852285Y-83336333D01*
X146757047Y-83288714D01*
X146566571Y-83288714D01*
X146471333Y-83336333D01*
X145566571Y-83955380D02*
X145566571Y-83431571D01*
X145614190Y-83336333D01*
X145709428Y-83288714D01*
X145899904Y-83288714D01*
X145995142Y-83336333D01*
X145566571Y-83907761D02*
X145661809Y-83955380D01*
X145899904Y-83955380D01*
X145995142Y-83907761D01*
X146042761Y-83812523D01*
X146042761Y-83717285D01*
X145995142Y-83622047D01*
X145899904Y-83574428D01*
X145661809Y-83574428D01*
X145566571Y-83526809D01*
X145090380Y-83288714D02*
X145090380Y-84288714D01*
X145090380Y-83336333D02*
X144995142Y-83288714D01*
X144804666Y-83288714D01*
X144709428Y-83336333D01*
X144661809Y-83383952D01*
X144614190Y-83479190D01*
X144614190Y-83764904D01*
X144661809Y-83860142D01*
X144709428Y-83907761D01*
X144804666Y-83955380D01*
X144995142Y-83955380D01*
X145090380Y-83907761D01*
X144328476Y-83288714D02*
X143947523Y-83288714D01*
X144185619Y-82955380D02*
X144185619Y-83812523D01*
X144138000Y-83907761D01*
X144042761Y-83955380D01*
X143947523Y-83955380D01*
X143233238Y-83907761D02*
X143328476Y-83955380D01*
X143518952Y-83955380D01*
X143614190Y-83907761D01*
X143661809Y-83812523D01*
X143661809Y-83431571D01*
X143614190Y-83336333D01*
X143518952Y-83288714D01*
X143328476Y-83288714D01*
X143233238Y-83336333D01*
X143185619Y-83431571D01*
X143185619Y-83526809D01*
X143661809Y-83622047D01*
X142757047Y-83955380D02*
X142757047Y-83288714D01*
X142757047Y-83479190D02*
X142709428Y-83383952D01*
X142661809Y-83336333D01*
X142566571Y-83288714D01*
X142471333Y-83288714D01*
X142138000Y-83860142D02*
X142090380Y-83907761D01*
X142138000Y-83955380D01*
X142185619Y-83907761D01*
X142138000Y-83860142D01*
X142138000Y-83955380D01*
X163709428Y-87636333D02*
X163757047Y-87588714D01*
X163852285Y-87445857D01*
X163899904Y-87350619D01*
X163947523Y-87207761D01*
X163995142Y-86969666D01*
X163995142Y-86779190D01*
X163947523Y-86541095D01*
X163899904Y-86398238D01*
X163852285Y-86303000D01*
X163757047Y-86160142D01*
X163709428Y-86112523D01*
X163328476Y-87255380D02*
X163328476Y-86588714D01*
X163328476Y-86779190D02*
X163280857Y-86683952D01*
X163233238Y-86636333D01*
X163138000Y-86588714D01*
X163042761Y-86588714D01*
X162328476Y-87207761D02*
X162423714Y-87255380D01*
X162614190Y-87255380D01*
X162709428Y-87207761D01*
X162757047Y-87112523D01*
X162757047Y-86731571D01*
X162709428Y-86636333D01*
X162614190Y-86588714D01*
X162423714Y-86588714D01*
X162328476Y-86636333D01*
X162280857Y-86731571D01*
X162280857Y-86826809D01*
X162757047Y-86922047D01*
X161423714Y-87255380D02*
X161423714Y-86731571D01*
X161471333Y-86636333D01*
X161566571Y-86588714D01*
X161757047Y-86588714D01*
X161852285Y-86636333D01*
X161423714Y-87207761D02*
X161518952Y-87255380D01*
X161757047Y-87255380D01*
X161852285Y-87207761D01*
X161899904Y-87112523D01*
X161899904Y-87017285D01*
X161852285Y-86922047D01*
X161757047Y-86874428D01*
X161518952Y-86874428D01*
X161423714Y-86826809D01*
X160518952Y-87255380D02*
X160518952Y-86255380D01*
X160518952Y-87207761D02*
X160614190Y-87255380D01*
X160804666Y-87255380D01*
X160899904Y-87207761D01*
X160947523Y-87160142D01*
X160995142Y-87064904D01*
X160995142Y-86779190D01*
X160947523Y-86683952D01*
X160899904Y-86636333D01*
X160804666Y-86588714D01*
X160614190Y-86588714D01*
X160518952Y-86636333D01*
X158852285Y-87255380D02*
X158852285Y-86255380D01*
X158852285Y-87207761D02*
X158947523Y-87255380D01*
X159138000Y-87255380D01*
X159233238Y-87207761D01*
X159280857Y-87160142D01*
X159328476Y-87064904D01*
X159328476Y-86779190D01*
X159280857Y-86683952D01*
X159233238Y-86636333D01*
X159138000Y-86588714D01*
X158947523Y-86588714D01*
X158852285Y-86636333D01*
X158233238Y-87255380D02*
X158328476Y-87207761D01*
X158376095Y-87160142D01*
X158423714Y-87064904D01*
X158423714Y-86779190D01*
X158376095Y-86683952D01*
X158328476Y-86636333D01*
X158233238Y-86588714D01*
X158090380Y-86588714D01*
X157995142Y-86636333D01*
X157947523Y-86683952D01*
X157899904Y-86779190D01*
X157899904Y-87064904D01*
X157947523Y-87160142D01*
X157995142Y-87207761D01*
X158090380Y-87255380D01*
X158233238Y-87255380D01*
X157042761Y-87207761D02*
X157138000Y-87255380D01*
X157328476Y-87255380D01*
X157423714Y-87207761D01*
X157471333Y-87160142D01*
X157518952Y-87064904D01*
X157518952Y-86779190D01*
X157471333Y-86683952D01*
X157423714Y-86636333D01*
X157328476Y-86588714D01*
X157138000Y-86588714D01*
X157042761Y-86636333D01*
X156185619Y-86588714D02*
X156185619Y-87255380D01*
X156614190Y-86588714D02*
X156614190Y-87112523D01*
X156566571Y-87207761D01*
X156471333Y-87255380D01*
X156328476Y-87255380D01*
X156233238Y-87207761D01*
X156185619Y-87160142D01*
X155709428Y-87255380D02*
X155709428Y-86588714D01*
X155709428Y-86683952D02*
X155661809Y-86636333D01*
X155566571Y-86588714D01*
X155423714Y-86588714D01*
X155328476Y-86636333D01*
X155280857Y-86731571D01*
X155280857Y-87255380D01*
X155280857Y-86731571D02*
X155233238Y-86636333D01*
X155138000Y-86588714D01*
X154995142Y-86588714D01*
X154899904Y-86636333D01*
X154852285Y-86731571D01*
X154852285Y-87255380D01*
X153995142Y-87207761D02*
X154090380Y-87255380D01*
X154280857Y-87255380D01*
X154376095Y-87207761D01*
X154423714Y-87112523D01*
X154423714Y-86731571D01*
X154376095Y-86636333D01*
X154280857Y-86588714D01*
X154090380Y-86588714D01*
X153995142Y-86636333D01*
X153947523Y-86731571D01*
X153947523Y-86826809D01*
X154423714Y-86922047D01*
X153518952Y-86588714D02*
X153518952Y-87255380D01*
X153518952Y-86683952D02*
X153471333Y-86636333D01*
X153376095Y-86588714D01*
X153233238Y-86588714D01*
X153138000Y-86636333D01*
X153090380Y-86731571D01*
X153090380Y-87255380D01*
X152757047Y-86588714D02*
X152376095Y-86588714D01*
X152614190Y-86255380D02*
X152614190Y-87112523D01*
X152566571Y-87207761D01*
X152471333Y-87255380D01*
X152376095Y-87255380D01*
X151614190Y-87255380D02*
X151614190Y-86731571D01*
X151661809Y-86636333D01*
X151757047Y-86588714D01*
X151947523Y-86588714D01*
X152042761Y-86636333D01*
X151614190Y-87207761D02*
X151709428Y-87255380D01*
X151947523Y-87255380D01*
X152042761Y-87207761D01*
X152090380Y-87112523D01*
X152090380Y-87017285D01*
X152042761Y-86922047D01*
X151947523Y-86874428D01*
X151709428Y-86874428D01*
X151614190Y-86826809D01*
X151280857Y-86588714D02*
X150899904Y-86588714D01*
X151138000Y-86255380D02*
X151138000Y-87112523D01*
X151090380Y-87207761D01*
X150995142Y-87255380D01*
X150899904Y-87255380D01*
X150566571Y-87255380D02*
X150566571Y-86588714D01*
X150566571Y-86255380D02*
X150614190Y-86303000D01*
X150566571Y-86350619D01*
X150518952Y-86303000D01*
X150566571Y-86255380D01*
X150566571Y-86350619D01*
X149947523Y-87255380D02*
X150042761Y-87207761D01*
X150090380Y-87160142D01*
X150138000Y-87064904D01*
X150138000Y-86779190D01*
X150090380Y-86683952D01*
X150042761Y-86636333D01*
X149947523Y-86588714D01*
X149804666Y-86588714D01*
X149709428Y-86636333D01*
X149661809Y-86683952D01*
X149614190Y-86779190D01*
X149614190Y-87064904D01*
X149661809Y-87160142D01*
X149709428Y-87207761D01*
X149804666Y-87255380D01*
X149947523Y-87255380D01*
X149185619Y-86588714D02*
X149185619Y-87255380D01*
X149185619Y-86683952D02*
X149138000Y-86636333D01*
X149042761Y-86588714D01*
X148899904Y-86588714D01*
X148804666Y-86636333D01*
X148757047Y-86731571D01*
X148757047Y-87255380D01*
X147518952Y-87255380D02*
X147518952Y-86255380D01*
X147518952Y-86636333D02*
X147423714Y-86588714D01*
X147233238Y-86588714D01*
X147138000Y-86636333D01*
X147090380Y-86683952D01*
X147042761Y-86779190D01*
X147042761Y-87064904D01*
X147090380Y-87160142D01*
X147138000Y-87207761D01*
X147233238Y-87255380D01*
X147423714Y-87255380D01*
X147518952Y-87207761D01*
X146233238Y-87207761D02*
X146328476Y-87255380D01*
X146518952Y-87255380D01*
X146614190Y-87207761D01*
X146661809Y-87112523D01*
X146661809Y-86731571D01*
X146614190Y-86636333D01*
X146518952Y-86588714D01*
X146328476Y-86588714D01*
X146233238Y-86636333D01*
X146185619Y-86731571D01*
X146185619Y-86826809D01*
X146661809Y-86922047D01*
X145899904Y-86588714D02*
X145518952Y-86588714D01*
X145757047Y-87255380D02*
X145757047Y-86398238D01*
X145709428Y-86303000D01*
X145614190Y-86255380D01*
X145518952Y-86255380D01*
X145042761Y-87255380D02*
X145138000Y-87207761D01*
X145185619Y-87160142D01*
X145233238Y-87064904D01*
X145233238Y-86779190D01*
X145185619Y-86683952D01*
X145138000Y-86636333D01*
X145042761Y-86588714D01*
X144899904Y-86588714D01*
X144804666Y-86636333D01*
X144757047Y-86683952D01*
X144709428Y-86779190D01*
X144709428Y-87064904D01*
X144757047Y-87160142D01*
X144804666Y-87207761D01*
X144899904Y-87255380D01*
X145042761Y-87255380D01*
X144280857Y-87255380D02*
X144280857Y-86588714D01*
X144280857Y-86779190D02*
X144233238Y-86683952D01*
X144185619Y-86636333D01*
X144090380Y-86588714D01*
X143995142Y-86588714D01*
X143280857Y-87207761D02*
X143376095Y-87255380D01*
X143566571Y-87255380D01*
X143661809Y-87207761D01*
X143709428Y-87112523D01*
X143709428Y-86731571D01*
X143661809Y-86636333D01*
X143566571Y-86588714D01*
X143376095Y-86588714D01*
X143280857Y-86636333D01*
X143233238Y-86731571D01*
X143233238Y-86826809D01*
X143709428Y-86922047D01*
X141614190Y-86588714D02*
X141614190Y-87255380D01*
X142042761Y-86588714D02*
X142042761Y-87112523D01*
X141995142Y-87207761D01*
X141899904Y-87255380D01*
X141757047Y-87255380D01*
X141661809Y-87207761D01*
X141614190Y-87160142D01*
X141185619Y-87207761D02*
X141090380Y-87255380D01*
X140899904Y-87255380D01*
X140804666Y-87207761D01*
X140757047Y-87112523D01*
X140757047Y-87064904D01*
X140804666Y-86969666D01*
X140899904Y-86922047D01*
X141042761Y-86922047D01*
X141138000Y-86874428D01*
X141185619Y-86779190D01*
X141185619Y-86731571D01*
X141138000Y-86636333D01*
X141042761Y-86588714D01*
X140899904Y-86588714D01*
X140804666Y-86636333D01*
X139947523Y-87207761D02*
X140042761Y-87255380D01*
X140233238Y-87255380D01*
X140328476Y-87207761D01*
X140376095Y-87112523D01*
X140376095Y-86731571D01*
X140328476Y-86636333D01*
X140233238Y-86588714D01*
X140042761Y-86588714D01*
X139947523Y-86636333D01*
X139899904Y-86731571D01*
X139899904Y-86826809D01*
X140376095Y-86922047D01*
X139566571Y-87636333D02*
X139518952Y-87588714D01*
X139423714Y-87445857D01*
X139376095Y-87350619D01*
X139328476Y-87207761D01*
X139280857Y-86969666D01*
X139280857Y-86779190D01*
X139328476Y-86541095D01*
X139376095Y-86398238D01*
X139423714Y-86303000D01*
X139518952Y-86160142D01*
X139566571Y-86112523D01*
%TO.C,J1*%
X130080714Y-101902380D02*
X130080714Y-100902380D01*
X129509285Y-101902380D01*
X129509285Y-100902380D01*
X173593095Y-101616666D02*
X173116904Y-101616666D01*
X173688333Y-101902380D02*
X173355000Y-100902380D01*
X173021666Y-101902380D01*
%TD*%
M02*
