M48
INCH,TZ
T1C0.0157
T2C0.0394
T3C0.1200
%
G90
G05
T1
X51400Y-39800
X55700Y-37700
X56700Y-37700
X57700Y-37700
X58700Y-37700
X60700Y-37700
X61700Y-37700
X62700Y-37700
X63700Y-37700
X64900Y-37700
X67900Y-39800
T2
X55200Y-35500
X55200Y-36500
X56200Y-35500
X56200Y-36500
X57200Y-35500
X57200Y-36500
X58200Y-35500
X58200Y-36500
X59200Y-35500
X59200Y-36500
X60200Y-35500
X60200Y-36500
X61200Y-35500
X61200Y-36500
X62200Y-35500
X62200Y-36500
X63200Y-35500
X63200Y-36500
X64200Y-35500
X64200Y-36500
T3
X71800Y-38700
X47600Y-38700
X47600Y-33000
X71800Y-33000
T0
M30
