%TF.GenerationSoftware,KiCad,Pcbnew,(5.1.8)-1*%
%TF.CreationDate,2021-04-29T21:30:50+02:00*%
%TF.ProjectId,C64 SpeedDOS Adapter,43363420-5370-4656-9564-444f53204164,rev?*%
%TF.SameCoordinates,Original*%
%TF.FileFunction,Legend,Bot*%
%TF.FilePolarity,Positive*%
%FSLAX46Y46*%
G04 Gerber Fmt 4.6, Leading zero omitted, Abs format (unit mm)*
G04 Created by KiCad (PCBNEW (5.1.8)-1) date 2021-04-29 21:30:50*
%MOMM*%
%LPD*%
G01*
G04 APERTURE LIST*
%ADD10C,0.150000*%
G04 APERTURE END LIST*
D10*
X163709428Y-99258333D02*
X163757047Y-99210714D01*
X163852285Y-99067857D01*
X163899904Y-98972619D01*
X163947523Y-98829761D01*
X163995142Y-98591666D01*
X163995142Y-98401190D01*
X163947523Y-98163095D01*
X163899904Y-98020238D01*
X163852285Y-97925000D01*
X163757047Y-97782142D01*
X163709428Y-97734523D01*
X163328476Y-98877380D02*
X163328476Y-98210714D01*
X163328476Y-98401190D02*
X163280857Y-98305952D01*
X163233238Y-98258333D01*
X163138000Y-98210714D01*
X163042761Y-98210714D01*
X162328476Y-98829761D02*
X162423714Y-98877380D01*
X162614190Y-98877380D01*
X162709428Y-98829761D01*
X162757047Y-98734523D01*
X162757047Y-98353571D01*
X162709428Y-98258333D01*
X162614190Y-98210714D01*
X162423714Y-98210714D01*
X162328476Y-98258333D01*
X162280857Y-98353571D01*
X162280857Y-98448809D01*
X162757047Y-98544047D01*
X161423714Y-98877380D02*
X161423714Y-98353571D01*
X161471333Y-98258333D01*
X161566571Y-98210714D01*
X161757047Y-98210714D01*
X161852285Y-98258333D01*
X161423714Y-98829761D02*
X161518952Y-98877380D01*
X161757047Y-98877380D01*
X161852285Y-98829761D01*
X161899904Y-98734523D01*
X161899904Y-98639285D01*
X161852285Y-98544047D01*
X161757047Y-98496428D01*
X161518952Y-98496428D01*
X161423714Y-98448809D01*
X160518952Y-98877380D02*
X160518952Y-97877380D01*
X160518952Y-98829761D02*
X160614190Y-98877380D01*
X160804666Y-98877380D01*
X160899904Y-98829761D01*
X160947523Y-98782142D01*
X160995142Y-98686904D01*
X160995142Y-98401190D01*
X160947523Y-98305952D01*
X160899904Y-98258333D01*
X160804666Y-98210714D01*
X160614190Y-98210714D01*
X160518952Y-98258333D01*
X158852285Y-98877380D02*
X158852285Y-97877380D01*
X158852285Y-98829761D02*
X158947523Y-98877380D01*
X159138000Y-98877380D01*
X159233238Y-98829761D01*
X159280857Y-98782142D01*
X159328476Y-98686904D01*
X159328476Y-98401190D01*
X159280857Y-98305952D01*
X159233238Y-98258333D01*
X159138000Y-98210714D01*
X158947523Y-98210714D01*
X158852285Y-98258333D01*
X158233238Y-98877380D02*
X158328476Y-98829761D01*
X158376095Y-98782142D01*
X158423714Y-98686904D01*
X158423714Y-98401190D01*
X158376095Y-98305952D01*
X158328476Y-98258333D01*
X158233238Y-98210714D01*
X158090380Y-98210714D01*
X157995142Y-98258333D01*
X157947523Y-98305952D01*
X157899904Y-98401190D01*
X157899904Y-98686904D01*
X157947523Y-98782142D01*
X157995142Y-98829761D01*
X158090380Y-98877380D01*
X158233238Y-98877380D01*
X157042761Y-98829761D02*
X157138000Y-98877380D01*
X157328476Y-98877380D01*
X157423714Y-98829761D01*
X157471333Y-98782142D01*
X157518952Y-98686904D01*
X157518952Y-98401190D01*
X157471333Y-98305952D01*
X157423714Y-98258333D01*
X157328476Y-98210714D01*
X157138000Y-98210714D01*
X157042761Y-98258333D01*
X156185619Y-98210714D02*
X156185619Y-98877380D01*
X156614190Y-98210714D02*
X156614190Y-98734523D01*
X156566571Y-98829761D01*
X156471333Y-98877380D01*
X156328476Y-98877380D01*
X156233238Y-98829761D01*
X156185619Y-98782142D01*
X155709428Y-98877380D02*
X155709428Y-98210714D01*
X155709428Y-98305952D02*
X155661809Y-98258333D01*
X155566571Y-98210714D01*
X155423714Y-98210714D01*
X155328476Y-98258333D01*
X155280857Y-98353571D01*
X155280857Y-98877380D01*
X155280857Y-98353571D02*
X155233238Y-98258333D01*
X155138000Y-98210714D01*
X154995142Y-98210714D01*
X154899904Y-98258333D01*
X154852285Y-98353571D01*
X154852285Y-98877380D01*
X153995142Y-98829761D02*
X154090380Y-98877380D01*
X154280857Y-98877380D01*
X154376095Y-98829761D01*
X154423714Y-98734523D01*
X154423714Y-98353571D01*
X154376095Y-98258333D01*
X154280857Y-98210714D01*
X154090380Y-98210714D01*
X153995142Y-98258333D01*
X153947523Y-98353571D01*
X153947523Y-98448809D01*
X154423714Y-98544047D01*
X153518952Y-98210714D02*
X153518952Y-98877380D01*
X153518952Y-98305952D02*
X153471333Y-98258333D01*
X153376095Y-98210714D01*
X153233238Y-98210714D01*
X153138000Y-98258333D01*
X153090380Y-98353571D01*
X153090380Y-98877380D01*
X152757047Y-98210714D02*
X152376095Y-98210714D01*
X152614190Y-97877380D02*
X152614190Y-98734523D01*
X152566571Y-98829761D01*
X152471333Y-98877380D01*
X152376095Y-98877380D01*
X151614190Y-98877380D02*
X151614190Y-98353571D01*
X151661809Y-98258333D01*
X151757047Y-98210714D01*
X151947523Y-98210714D01*
X152042761Y-98258333D01*
X151614190Y-98829761D02*
X151709428Y-98877380D01*
X151947523Y-98877380D01*
X152042761Y-98829761D01*
X152090380Y-98734523D01*
X152090380Y-98639285D01*
X152042761Y-98544047D01*
X151947523Y-98496428D01*
X151709428Y-98496428D01*
X151614190Y-98448809D01*
X151280857Y-98210714D02*
X150899904Y-98210714D01*
X151138000Y-97877380D02*
X151138000Y-98734523D01*
X151090380Y-98829761D01*
X150995142Y-98877380D01*
X150899904Y-98877380D01*
X150566571Y-98877380D02*
X150566571Y-98210714D01*
X150566571Y-97877380D02*
X150614190Y-97925000D01*
X150566571Y-97972619D01*
X150518952Y-97925000D01*
X150566571Y-97877380D01*
X150566571Y-97972619D01*
X149947523Y-98877380D02*
X150042761Y-98829761D01*
X150090380Y-98782142D01*
X150138000Y-98686904D01*
X150138000Y-98401190D01*
X150090380Y-98305952D01*
X150042761Y-98258333D01*
X149947523Y-98210714D01*
X149804666Y-98210714D01*
X149709428Y-98258333D01*
X149661809Y-98305952D01*
X149614190Y-98401190D01*
X149614190Y-98686904D01*
X149661809Y-98782142D01*
X149709428Y-98829761D01*
X149804666Y-98877380D01*
X149947523Y-98877380D01*
X149185619Y-98210714D02*
X149185619Y-98877380D01*
X149185619Y-98305952D02*
X149138000Y-98258333D01*
X149042761Y-98210714D01*
X148899904Y-98210714D01*
X148804666Y-98258333D01*
X148757047Y-98353571D01*
X148757047Y-98877380D01*
X147518952Y-98877380D02*
X147518952Y-97877380D01*
X147518952Y-98258333D02*
X147423714Y-98210714D01*
X147233238Y-98210714D01*
X147138000Y-98258333D01*
X147090380Y-98305952D01*
X147042761Y-98401190D01*
X147042761Y-98686904D01*
X147090380Y-98782142D01*
X147138000Y-98829761D01*
X147233238Y-98877380D01*
X147423714Y-98877380D01*
X147518952Y-98829761D01*
X146233238Y-98829761D02*
X146328476Y-98877380D01*
X146518952Y-98877380D01*
X146614190Y-98829761D01*
X146661809Y-98734523D01*
X146661809Y-98353571D01*
X146614190Y-98258333D01*
X146518952Y-98210714D01*
X146328476Y-98210714D01*
X146233238Y-98258333D01*
X146185619Y-98353571D01*
X146185619Y-98448809D01*
X146661809Y-98544047D01*
X145899904Y-98210714D02*
X145518952Y-98210714D01*
X145757047Y-98877380D02*
X145757047Y-98020238D01*
X145709428Y-97925000D01*
X145614190Y-97877380D01*
X145518952Y-97877380D01*
X145042761Y-98877380D02*
X145138000Y-98829761D01*
X145185619Y-98782142D01*
X145233238Y-98686904D01*
X145233238Y-98401190D01*
X145185619Y-98305952D01*
X145138000Y-98258333D01*
X145042761Y-98210714D01*
X144899904Y-98210714D01*
X144804666Y-98258333D01*
X144757047Y-98305952D01*
X144709428Y-98401190D01*
X144709428Y-98686904D01*
X144757047Y-98782142D01*
X144804666Y-98829761D01*
X144899904Y-98877380D01*
X145042761Y-98877380D01*
X144280857Y-98877380D02*
X144280857Y-98210714D01*
X144280857Y-98401190D02*
X144233238Y-98305952D01*
X144185619Y-98258333D01*
X144090380Y-98210714D01*
X143995142Y-98210714D01*
X143280857Y-98829761D02*
X143376095Y-98877380D01*
X143566571Y-98877380D01*
X143661809Y-98829761D01*
X143709428Y-98734523D01*
X143709428Y-98353571D01*
X143661809Y-98258333D01*
X143566571Y-98210714D01*
X143376095Y-98210714D01*
X143280857Y-98258333D01*
X143233238Y-98353571D01*
X143233238Y-98448809D01*
X143709428Y-98544047D01*
X141614190Y-98210714D02*
X141614190Y-98877380D01*
X142042761Y-98210714D02*
X142042761Y-98734523D01*
X141995142Y-98829761D01*
X141899904Y-98877380D01*
X141757047Y-98877380D01*
X141661809Y-98829761D01*
X141614190Y-98782142D01*
X141185619Y-98829761D02*
X141090380Y-98877380D01*
X140899904Y-98877380D01*
X140804666Y-98829761D01*
X140757047Y-98734523D01*
X140757047Y-98686904D01*
X140804666Y-98591666D01*
X140899904Y-98544047D01*
X141042761Y-98544047D01*
X141138000Y-98496428D01*
X141185619Y-98401190D01*
X141185619Y-98353571D01*
X141138000Y-98258333D01*
X141042761Y-98210714D01*
X140899904Y-98210714D01*
X140804666Y-98258333D01*
X139947523Y-98829761D02*
X140042761Y-98877380D01*
X140233238Y-98877380D01*
X140328476Y-98829761D01*
X140376095Y-98734523D01*
X140376095Y-98353571D01*
X140328476Y-98258333D01*
X140233238Y-98210714D01*
X140042761Y-98210714D01*
X139947523Y-98258333D01*
X139899904Y-98353571D01*
X139899904Y-98448809D01*
X140376095Y-98544047D01*
X139566571Y-99258333D02*
X139518952Y-99210714D01*
X139423714Y-99067857D01*
X139376095Y-98972619D01*
X139328476Y-98829761D01*
X139280857Y-98591666D01*
X139280857Y-98401190D01*
X139328476Y-98163095D01*
X139376095Y-98020238D01*
X139423714Y-97925000D01*
X139518952Y-97782142D01*
X139566571Y-97734523D01*
X162272857Y-86812380D02*
X162749047Y-86812380D01*
X162749047Y-85812380D01*
X161939523Y-86812380D02*
X161939523Y-86145714D01*
X161939523Y-85812380D02*
X161987142Y-85860000D01*
X161939523Y-85907619D01*
X161891904Y-85860000D01*
X161939523Y-85812380D01*
X161939523Y-85907619D01*
X161034761Y-86764761D02*
X161130000Y-86812380D01*
X161320476Y-86812380D01*
X161415714Y-86764761D01*
X161463333Y-86717142D01*
X161510952Y-86621904D01*
X161510952Y-86336190D01*
X161463333Y-86240952D01*
X161415714Y-86193333D01*
X161320476Y-86145714D01*
X161130000Y-86145714D01*
X161034761Y-86193333D01*
X160225238Y-86764761D02*
X160320476Y-86812380D01*
X160510952Y-86812380D01*
X160606190Y-86764761D01*
X160653809Y-86669523D01*
X160653809Y-86288571D01*
X160606190Y-86193333D01*
X160510952Y-86145714D01*
X160320476Y-86145714D01*
X160225238Y-86193333D01*
X160177619Y-86288571D01*
X160177619Y-86383809D01*
X160653809Y-86479047D01*
X159749047Y-86145714D02*
X159749047Y-86812380D01*
X159749047Y-86240952D02*
X159701428Y-86193333D01*
X159606190Y-86145714D01*
X159463333Y-86145714D01*
X159368095Y-86193333D01*
X159320476Y-86288571D01*
X159320476Y-86812380D01*
X158891904Y-86764761D02*
X158796666Y-86812380D01*
X158606190Y-86812380D01*
X158510952Y-86764761D01*
X158463333Y-86669523D01*
X158463333Y-86621904D01*
X158510952Y-86526666D01*
X158606190Y-86479047D01*
X158749047Y-86479047D01*
X158844285Y-86431428D01*
X158891904Y-86336190D01*
X158891904Y-86288571D01*
X158844285Y-86193333D01*
X158749047Y-86145714D01*
X158606190Y-86145714D01*
X158510952Y-86193333D01*
X157653809Y-86764761D02*
X157749047Y-86812380D01*
X157939523Y-86812380D01*
X158034761Y-86764761D01*
X158082380Y-86669523D01*
X158082380Y-86288571D01*
X158034761Y-86193333D01*
X157939523Y-86145714D01*
X157749047Y-86145714D01*
X157653809Y-86193333D01*
X157606190Y-86288571D01*
X157606190Y-86383809D01*
X158082380Y-86479047D01*
X156749047Y-86812380D02*
X156749047Y-85812380D01*
X156749047Y-86764761D02*
X156844285Y-86812380D01*
X157034761Y-86812380D01*
X157130000Y-86764761D01*
X157177619Y-86717142D01*
X157225238Y-86621904D01*
X157225238Y-86336190D01*
X157177619Y-86240952D01*
X157130000Y-86193333D01*
X157034761Y-86145714D01*
X156844285Y-86145714D01*
X156749047Y-86193333D01*
X155082380Y-86145714D02*
X155082380Y-86812380D01*
X155510952Y-86145714D02*
X155510952Y-86669523D01*
X155463333Y-86764761D01*
X155368095Y-86812380D01*
X155225238Y-86812380D01*
X155130000Y-86764761D01*
X155082380Y-86717142D01*
X154606190Y-86145714D02*
X154606190Y-86812380D01*
X154606190Y-86240952D02*
X154558571Y-86193333D01*
X154463333Y-86145714D01*
X154320476Y-86145714D01*
X154225238Y-86193333D01*
X154177619Y-86288571D01*
X154177619Y-86812380D01*
X153272857Y-86812380D02*
X153272857Y-85812380D01*
X153272857Y-86764761D02*
X153368095Y-86812380D01*
X153558571Y-86812380D01*
X153653809Y-86764761D01*
X153701428Y-86717142D01*
X153749047Y-86621904D01*
X153749047Y-86336190D01*
X153701428Y-86240952D01*
X153653809Y-86193333D01*
X153558571Y-86145714D01*
X153368095Y-86145714D01*
X153272857Y-86193333D01*
X152415714Y-86764761D02*
X152510952Y-86812380D01*
X152701428Y-86812380D01*
X152796666Y-86764761D01*
X152844285Y-86669523D01*
X152844285Y-86288571D01*
X152796666Y-86193333D01*
X152701428Y-86145714D01*
X152510952Y-86145714D01*
X152415714Y-86193333D01*
X152368095Y-86288571D01*
X152368095Y-86383809D01*
X152844285Y-86479047D01*
X151939523Y-86812380D02*
X151939523Y-86145714D01*
X151939523Y-86336190D02*
X151891904Y-86240952D01*
X151844285Y-86193333D01*
X151749047Y-86145714D01*
X151653809Y-86145714D01*
X149987142Y-86717142D02*
X150034761Y-86764761D01*
X150177619Y-86812380D01*
X150272857Y-86812380D01*
X150415714Y-86764761D01*
X150510952Y-86669523D01*
X150558571Y-86574285D01*
X150606190Y-86383809D01*
X150606190Y-86240952D01*
X150558571Y-86050476D01*
X150510952Y-85955238D01*
X150415714Y-85860000D01*
X150272857Y-85812380D01*
X150177619Y-85812380D01*
X150034761Y-85860000D01*
X149987142Y-85907619D01*
X149558571Y-86288571D02*
X149225238Y-86288571D01*
X149082380Y-86812380D02*
X149558571Y-86812380D01*
X149558571Y-85812380D01*
X149082380Y-85812380D01*
X148082380Y-86812380D02*
X148415714Y-86336190D01*
X148653809Y-86812380D02*
X148653809Y-85812380D01*
X148272857Y-85812380D01*
X148177619Y-85860000D01*
X148130000Y-85907619D01*
X148082380Y-86002857D01*
X148082380Y-86145714D01*
X148130000Y-86240952D01*
X148177619Y-86288571D01*
X148272857Y-86336190D01*
X148653809Y-86336190D01*
X147653809Y-86812380D02*
X147653809Y-85812380D01*
X147082380Y-86812380D01*
X147082380Y-85812380D01*
X145653809Y-85812380D02*
X145463333Y-85812380D01*
X145368095Y-85860000D01*
X145272857Y-85955238D01*
X145225238Y-86145714D01*
X145225238Y-86479047D01*
X145272857Y-86669523D01*
X145368095Y-86764761D01*
X145463333Y-86812380D01*
X145653809Y-86812380D01*
X145749047Y-86764761D01*
X145844285Y-86669523D01*
X145891904Y-86479047D01*
X145891904Y-86145714D01*
X145844285Y-85955238D01*
X145749047Y-85860000D01*
X145653809Y-85812380D01*
X144796666Y-86812380D02*
X144796666Y-85812380D01*
X144796666Y-86288571D02*
X144225238Y-86288571D01*
X144225238Y-86812380D02*
X144225238Y-85812380D01*
X143272857Y-86812380D02*
X143749047Y-86812380D01*
X143749047Y-85812380D01*
X142272857Y-86145714D02*
X142034761Y-86812380D01*
X141796666Y-86145714D01*
X140891904Y-86812380D02*
X141463333Y-86812380D01*
X141177619Y-86812380D02*
X141177619Y-85812380D01*
X141272857Y-85955238D01*
X141368095Y-86050476D01*
X141463333Y-86098095D01*
X140463333Y-86717142D02*
X140415714Y-86764761D01*
X140463333Y-86812380D01*
X140510952Y-86764761D01*
X140463333Y-86717142D01*
X140463333Y-86812380D01*
X140034761Y-85907619D02*
X139987142Y-85860000D01*
X139891904Y-85812380D01*
X139653809Y-85812380D01*
X139558571Y-85860000D01*
X139510952Y-85907619D01*
X139463333Y-86002857D01*
X139463333Y-86098095D01*
X139510952Y-86240952D01*
X140082380Y-86812380D01*
X139463333Y-86812380D01*
X160114190Y-81542380D02*
X160114190Y-80542380D01*
X159876095Y-80542380D01*
X159733238Y-80590000D01*
X159638000Y-80685238D01*
X159590380Y-80780476D01*
X159542761Y-80970952D01*
X159542761Y-81113809D01*
X159590380Y-81304285D01*
X159638000Y-81399523D01*
X159733238Y-81494761D01*
X159876095Y-81542380D01*
X160114190Y-81542380D01*
X158733238Y-81494761D02*
X158828476Y-81542380D01*
X159018952Y-81542380D01*
X159114190Y-81494761D01*
X159161809Y-81399523D01*
X159161809Y-81018571D01*
X159114190Y-80923333D01*
X159018952Y-80875714D01*
X158828476Y-80875714D01*
X158733238Y-80923333D01*
X158685619Y-81018571D01*
X158685619Y-81113809D01*
X159161809Y-81209047D01*
X158304666Y-81494761D02*
X158209428Y-81542380D01*
X158018952Y-81542380D01*
X157923714Y-81494761D01*
X157876095Y-81399523D01*
X157876095Y-81351904D01*
X157923714Y-81256666D01*
X158018952Y-81209047D01*
X158161809Y-81209047D01*
X158257047Y-81161428D01*
X158304666Y-81066190D01*
X158304666Y-81018571D01*
X158257047Y-80923333D01*
X158161809Y-80875714D01*
X158018952Y-80875714D01*
X157923714Y-80923333D01*
X157447523Y-81542380D02*
X157447523Y-80875714D01*
X157447523Y-80542380D02*
X157495142Y-80590000D01*
X157447523Y-80637619D01*
X157399904Y-80590000D01*
X157447523Y-80542380D01*
X157447523Y-80637619D01*
X156542761Y-80875714D02*
X156542761Y-81685238D01*
X156590380Y-81780476D01*
X156638000Y-81828095D01*
X156733238Y-81875714D01*
X156876095Y-81875714D01*
X156971333Y-81828095D01*
X156542761Y-81494761D02*
X156638000Y-81542380D01*
X156828476Y-81542380D01*
X156923714Y-81494761D01*
X156971333Y-81447142D01*
X157018952Y-81351904D01*
X157018952Y-81066190D01*
X156971333Y-80970952D01*
X156923714Y-80923333D01*
X156828476Y-80875714D01*
X156638000Y-80875714D01*
X156542761Y-80923333D01*
X156066571Y-80875714D02*
X156066571Y-81542380D01*
X156066571Y-80970952D02*
X156018952Y-80923333D01*
X155923714Y-80875714D01*
X155780857Y-80875714D01*
X155685619Y-80923333D01*
X155638000Y-81018571D01*
X155638000Y-81542380D01*
X154780857Y-81494761D02*
X154876095Y-81542380D01*
X155066571Y-81542380D01*
X155161809Y-81494761D01*
X155209428Y-81399523D01*
X155209428Y-81018571D01*
X155161809Y-80923333D01*
X155066571Y-80875714D01*
X154876095Y-80875714D01*
X154780857Y-80923333D01*
X154733238Y-81018571D01*
X154733238Y-81113809D01*
X155209428Y-81209047D01*
X153876095Y-81542380D02*
X153876095Y-80542380D01*
X153876095Y-81494761D02*
X153971333Y-81542380D01*
X154161809Y-81542380D01*
X154257047Y-81494761D01*
X154304666Y-81447142D01*
X154352285Y-81351904D01*
X154352285Y-81066190D01*
X154304666Y-80970952D01*
X154257047Y-80923333D01*
X154161809Y-80875714D01*
X153971333Y-80875714D01*
X153876095Y-80923333D01*
X152780857Y-80875714D02*
X152399904Y-80875714D01*
X152638000Y-81542380D02*
X152638000Y-80685238D01*
X152590380Y-80590000D01*
X152495142Y-80542380D01*
X152399904Y-80542380D01*
X151923714Y-81542380D02*
X152018952Y-81494761D01*
X152066571Y-81447142D01*
X152114190Y-81351904D01*
X152114190Y-81066190D01*
X152066571Y-80970952D01*
X152018952Y-80923333D01*
X151923714Y-80875714D01*
X151780857Y-80875714D01*
X151685619Y-80923333D01*
X151638000Y-80970952D01*
X151590380Y-81066190D01*
X151590380Y-81351904D01*
X151638000Y-81447142D01*
X151685619Y-81494761D01*
X151780857Y-81542380D01*
X151923714Y-81542380D01*
X151161809Y-81542380D02*
X151161809Y-80875714D01*
X151161809Y-81066190D02*
X151114190Y-80970952D01*
X151066571Y-80923333D01*
X150971333Y-80875714D01*
X150876095Y-80875714D01*
X149352285Y-80875714D02*
X149352285Y-81542380D01*
X149780857Y-80875714D02*
X149780857Y-81399523D01*
X149733238Y-81494761D01*
X149638000Y-81542380D01*
X149495142Y-81542380D01*
X149399904Y-81494761D01*
X149352285Y-81447142D01*
X148923714Y-81494761D02*
X148828476Y-81542380D01*
X148638000Y-81542380D01*
X148542761Y-81494761D01*
X148495142Y-81399523D01*
X148495142Y-81351904D01*
X148542761Y-81256666D01*
X148638000Y-81209047D01*
X148780857Y-81209047D01*
X148876095Y-81161428D01*
X148923714Y-81066190D01*
X148923714Y-81018571D01*
X148876095Y-80923333D01*
X148780857Y-80875714D01*
X148638000Y-80875714D01*
X148542761Y-80923333D01*
X147685619Y-81494761D02*
X147780857Y-81542380D01*
X147971333Y-81542380D01*
X148066571Y-81494761D01*
X148114190Y-81399523D01*
X148114190Y-81018571D01*
X148066571Y-80923333D01*
X147971333Y-80875714D01*
X147780857Y-80875714D01*
X147685619Y-80923333D01*
X147638000Y-81018571D01*
X147638000Y-81113809D01*
X148114190Y-81209047D01*
X146542761Y-80875714D02*
X146352285Y-81542380D01*
X146161809Y-81066190D01*
X145971333Y-81542380D01*
X145780857Y-80875714D01*
X145399904Y-81542380D02*
X145399904Y-80875714D01*
X145399904Y-80542380D02*
X145447523Y-80590000D01*
X145399904Y-80637619D01*
X145352285Y-80590000D01*
X145399904Y-80542380D01*
X145399904Y-80637619D01*
X145066571Y-80875714D02*
X144685619Y-80875714D01*
X144923714Y-80542380D02*
X144923714Y-81399523D01*
X144876095Y-81494761D01*
X144780857Y-81542380D01*
X144685619Y-81542380D01*
X144352285Y-81542380D02*
X144352285Y-80542380D01*
X143923714Y-81542380D02*
X143923714Y-81018571D01*
X143971333Y-80923333D01*
X144066571Y-80875714D01*
X144209428Y-80875714D01*
X144304666Y-80923333D01*
X144352285Y-80970952D01*
X160566571Y-83097142D02*
X160614190Y-83144761D01*
X160757047Y-83192380D01*
X160852285Y-83192380D01*
X160995142Y-83144761D01*
X161090380Y-83049523D01*
X161138000Y-82954285D01*
X161185619Y-82763809D01*
X161185619Y-82620952D01*
X161138000Y-82430476D01*
X161090380Y-82335238D01*
X160995142Y-82240000D01*
X160852285Y-82192380D01*
X160757047Y-82192380D01*
X160614190Y-82240000D01*
X160566571Y-82287619D01*
X159709428Y-82192380D02*
X159899904Y-82192380D01*
X159995142Y-82240000D01*
X160042761Y-82287619D01*
X160138000Y-82430476D01*
X160185619Y-82620952D01*
X160185619Y-83001904D01*
X160138000Y-83097142D01*
X160090380Y-83144761D01*
X159995142Y-83192380D01*
X159804666Y-83192380D01*
X159709428Y-83144761D01*
X159661809Y-83097142D01*
X159614190Y-83001904D01*
X159614190Y-82763809D01*
X159661809Y-82668571D01*
X159709428Y-82620952D01*
X159804666Y-82573333D01*
X159995142Y-82573333D01*
X160090380Y-82620952D01*
X160138000Y-82668571D01*
X160185619Y-82763809D01*
X158757047Y-82525714D02*
X158757047Y-83192380D01*
X158995142Y-82144761D02*
X159233238Y-82859047D01*
X158614190Y-82859047D01*
X156947523Y-83192380D02*
X157518952Y-83192380D01*
X157233238Y-83192380D02*
X157233238Y-82192380D01*
X157328476Y-82335238D01*
X157423714Y-82430476D01*
X157518952Y-82478095D01*
X156042761Y-82192380D02*
X156518952Y-82192380D01*
X156566571Y-82668571D01*
X156518952Y-82620952D01*
X156423714Y-82573333D01*
X156185619Y-82573333D01*
X156090380Y-82620952D01*
X156042761Y-82668571D01*
X155995142Y-82763809D01*
X155995142Y-83001904D01*
X156042761Y-83097142D01*
X156090380Y-83144761D01*
X156185619Y-83192380D01*
X156423714Y-83192380D01*
X156518952Y-83144761D01*
X156566571Y-83097142D01*
X155138000Y-82525714D02*
X155138000Y-83192380D01*
X155376095Y-82144761D02*
X155614190Y-82859047D01*
X154995142Y-82859047D01*
X154090380Y-83192380D02*
X154661809Y-83192380D01*
X154376095Y-83192380D02*
X154376095Y-82192380D01*
X154471333Y-82335238D01*
X154566571Y-82430476D01*
X154661809Y-82478095D01*
X153661809Y-82811428D02*
X152899904Y-82811428D01*
X152423714Y-83192380D02*
X152423714Y-82192380D01*
X151947523Y-83192380D02*
X151947523Y-82192380D01*
X150852285Y-82192380D02*
X150518952Y-83192380D01*
X150185619Y-82192380D01*
X149852285Y-83192380D02*
X149852285Y-82192380D01*
X149423714Y-82906666D02*
X148947523Y-82906666D01*
X149518952Y-83192380D02*
X149185619Y-82192380D01*
X148852285Y-83192380D01*
X147804666Y-82906666D02*
X147328476Y-82906666D01*
X147899904Y-83192380D02*
X147566571Y-82192380D01*
X147233238Y-83192380D01*
X146471333Y-83192380D02*
X146471333Y-82192380D01*
X146471333Y-83144761D02*
X146566571Y-83192380D01*
X146757047Y-83192380D01*
X146852285Y-83144761D01*
X146899904Y-83097142D01*
X146947523Y-83001904D01*
X146947523Y-82716190D01*
X146899904Y-82620952D01*
X146852285Y-82573333D01*
X146757047Y-82525714D01*
X146566571Y-82525714D01*
X146471333Y-82573333D01*
X145566571Y-83192380D02*
X145566571Y-82668571D01*
X145614190Y-82573333D01*
X145709428Y-82525714D01*
X145899904Y-82525714D01*
X145995142Y-82573333D01*
X145566571Y-83144761D02*
X145661809Y-83192380D01*
X145899904Y-83192380D01*
X145995142Y-83144761D01*
X146042761Y-83049523D01*
X146042761Y-82954285D01*
X145995142Y-82859047D01*
X145899904Y-82811428D01*
X145661809Y-82811428D01*
X145566571Y-82763809D01*
X145090380Y-82525714D02*
X145090380Y-83525714D01*
X145090380Y-82573333D02*
X144995142Y-82525714D01*
X144804666Y-82525714D01*
X144709428Y-82573333D01*
X144661809Y-82620952D01*
X144614190Y-82716190D01*
X144614190Y-83001904D01*
X144661809Y-83097142D01*
X144709428Y-83144761D01*
X144804666Y-83192380D01*
X144995142Y-83192380D01*
X145090380Y-83144761D01*
X144328476Y-82525714D02*
X143947523Y-82525714D01*
X144185619Y-82192380D02*
X144185619Y-83049523D01*
X144138000Y-83144761D01*
X144042761Y-83192380D01*
X143947523Y-83192380D01*
X143233238Y-83144761D02*
X143328476Y-83192380D01*
X143518952Y-83192380D01*
X143614190Y-83144761D01*
X143661809Y-83049523D01*
X143661809Y-82668571D01*
X143614190Y-82573333D01*
X143518952Y-82525714D01*
X143328476Y-82525714D01*
X143233238Y-82573333D01*
X143185619Y-82668571D01*
X143185619Y-82763809D01*
X143661809Y-82859047D01*
X142757047Y-83192380D02*
X142757047Y-82525714D01*
X142757047Y-82716190D02*
X142709428Y-82620952D01*
X142661809Y-82573333D01*
X142566571Y-82525714D01*
X142471333Y-82525714D01*
X142138000Y-83097142D02*
X142090380Y-83144761D01*
X142138000Y-83192380D01*
X142185619Y-83144761D01*
X142138000Y-83097142D01*
X142138000Y-83192380D01*
%TO.C,JP1*%
X138430000Y-93472000D02*
X135382000Y-93472000D01*
X135636000Y-89408000D02*
X135382000Y-89408000D01*
X135382000Y-89027000D02*
X138430000Y-89027000D01*
X135382000Y-92964000D02*
X135382000Y-89408000D01*
X138430000Y-89027000D02*
X138430000Y-93472000D01*
X135636000Y-92964000D02*
X135382000Y-92964000D01*
%TO.C,JP2*%
X164846000Y-89027000D02*
X164846000Y-93472000D01*
X164846000Y-89027000D02*
X167894000Y-89027000D01*
X167894000Y-93472000D02*
X164846000Y-93472000D01*
X167640000Y-89408000D02*
X167894000Y-89408000D01*
X167894000Y-89408000D02*
X167894000Y-92964000D01*
X167640000Y-92964000D02*
X167894000Y-92964000D01*
%TO.C,JP3*%
X130175000Y-92964000D02*
X129921000Y-92964000D01*
X132969000Y-89027000D02*
X132969000Y-93472000D01*
X129921000Y-92964000D02*
X129921000Y-89408000D01*
X129921000Y-89027000D02*
X132969000Y-89027000D01*
X130175000Y-89408000D02*
X129921000Y-89408000D01*
X132969000Y-93472000D02*
X129921000Y-93472000D01*
%TO.C,J1*%
X130080714Y-101902380D02*
X130080714Y-100902380D01*
X129509285Y-101902380D01*
X129509285Y-100902380D01*
X173593095Y-101616666D02*
X173116904Y-101616666D01*
X173688333Y-101902380D02*
X173355000Y-100902380D01*
X173021666Y-101902380D01*
%TO.C,JP1*%
X134008857Y-91844738D02*
X133961238Y-91892357D01*
X133913619Y-92035214D01*
X133913619Y-92130452D01*
X133961238Y-92273309D01*
X134056476Y-92368547D01*
X134151714Y-92416166D01*
X134342190Y-92463785D01*
X134485047Y-92463785D01*
X134675523Y-92416166D01*
X134770761Y-92368547D01*
X134866000Y-92273309D01*
X134913619Y-92130452D01*
X134913619Y-92035214D01*
X134866000Y-91892357D01*
X134818380Y-91844738D01*
X134199333Y-91463785D02*
X134199333Y-90987595D01*
X133913619Y-91559023D02*
X134913619Y-91225690D01*
X133913619Y-90892357D01*
X134818380Y-90606642D02*
X134866000Y-90559023D01*
X134913619Y-90463785D01*
X134913619Y-90225690D01*
X134866000Y-90130452D01*
X134818380Y-90082833D01*
X134723142Y-90035214D01*
X134627904Y-90035214D01*
X134485047Y-90082833D01*
X133913619Y-90654261D01*
X133913619Y-90035214D01*
%TO.C,JP2*%
X168489357Y-91916166D02*
X168441738Y-91963785D01*
X168394119Y-92106642D01*
X168394119Y-92201880D01*
X168441738Y-92344738D01*
X168536976Y-92439976D01*
X168632214Y-92487595D01*
X168822690Y-92535214D01*
X168965547Y-92535214D01*
X169156023Y-92487595D01*
X169251261Y-92439976D01*
X169346500Y-92344738D01*
X169394119Y-92201880D01*
X169394119Y-92106642D01*
X169346500Y-91963785D01*
X169298880Y-91916166D01*
X168917928Y-91154261D02*
X168870309Y-91011404D01*
X168822690Y-90963785D01*
X168727452Y-90916166D01*
X168584595Y-90916166D01*
X168489357Y-90963785D01*
X168441738Y-91011404D01*
X168394119Y-91106642D01*
X168394119Y-91487595D01*
X169394119Y-91487595D01*
X169394119Y-91154261D01*
X169346500Y-91059023D01*
X169298880Y-91011404D01*
X169203642Y-90963785D01*
X169108404Y-90963785D01*
X169013166Y-91011404D01*
X168965547Y-91059023D01*
X168917928Y-91154261D01*
X168917928Y-91487595D01*
X168394119Y-89963785D02*
X168394119Y-90535214D01*
X168394119Y-90249500D02*
X169394119Y-90249500D01*
X169251261Y-90344738D01*
X169156023Y-90439976D01*
X169108404Y-90535214D01*
%TO.C,JP3*%
X129405000Y-92011404D02*
X129452619Y-92106642D01*
X129452619Y-92249500D01*
X129405000Y-92392357D01*
X129309761Y-92487595D01*
X129214523Y-92535214D01*
X129024047Y-92582833D01*
X128881190Y-92582833D01*
X128690714Y-92535214D01*
X128595476Y-92487595D01*
X128500238Y-92392357D01*
X128452619Y-92249500D01*
X128452619Y-92154261D01*
X128500238Y-92011404D01*
X128547857Y-91963785D01*
X128881190Y-91963785D01*
X128881190Y-92154261D01*
X128452619Y-91535214D02*
X129452619Y-91535214D01*
X128452619Y-90963785D01*
X129452619Y-90963785D01*
X128452619Y-90487595D02*
X129452619Y-90487595D01*
X129452619Y-90249500D01*
X129405000Y-90106642D01*
X129309761Y-90011404D01*
X129214523Y-89963785D01*
X129024047Y-89916166D01*
X128881190Y-89916166D01*
X128690714Y-89963785D01*
X128595476Y-90011404D01*
X128500238Y-90106642D01*
X128452619Y-90249500D01*
X128452619Y-90487595D01*
%TD*%
M02*
