M48
INCH,TZ
T1C0.0157
T2C0.0394
T3C0.1200
%
G90
G05
T1
X51400Y-39800
X54250Y-39750
X56000Y-39250
X56500Y-37535
X57500Y-37821
X57750Y-38965
X58500Y-38106
X59500Y-38392
X60000Y-38715
X65500Y-37000
X67900Y-39800
T2
X55200Y-35500
X55200Y-36500
X56200Y-35500
X56200Y-36500
X57200Y-35500
X57200Y-36500
X58200Y-35500
X58200Y-36500
X59200Y-35500
X59200Y-36500
X60200Y-35500
X60200Y-36500
X61200Y-35500
X61200Y-36500
X62200Y-35500
X62200Y-36500
X63200Y-35500
X63200Y-36500
X64200Y-35500
X64200Y-36500
T3
X47600Y-33000
X71800Y-33000
X47600Y-38700
X71800Y-38700
T0
M30
