%TF.GenerationSoftware,KiCad,Pcbnew,(5.1.8)-1*%
%TF.CreationDate,2021-04-29T21:30:49+02:00*%
%TF.ProjectId,C64 SpeedDOS Adapter,43363420-5370-4656-9564-444f53204164,rev?*%
%TF.SameCoordinates,Original*%
%TF.FileFunction,Copper,L1,Top*%
%TF.FilePolarity,Positive*%
%FSLAX46Y46*%
G04 Gerber Fmt 4.6, Leading zero omitted, Abs format (unit mm)*
G04 Created by KiCad (PCBNEW (5.1.8)-1) date 2021-04-29 21:30:49*
%MOMM*%
%LPD*%
G01*
G04 APERTURE LIST*
%TA.AperFunction,SMDPad,CuDef*%
%ADD10R,2.200000X6.000000*%
%TD*%
%TA.AperFunction,ComponentPad*%
%ADD11C,1.700000*%
%TD*%
%TA.AperFunction,ComponentPad*%
%ADD12C,3.500000*%
%TD*%
%TA.AperFunction,ViaPad*%
%ADD13C,0.800000*%
%TD*%
%TA.AperFunction,Conductor*%
%ADD14C,0.381000*%
%TD*%
%TA.AperFunction,Conductor*%
%ADD15C,0.250000*%
%TD*%
G04 APERTURE END LIST*
D10*
%TO.P,J1,12*%
%TO.N,GND*%
X129795000Y-105410000D03*
%TO.P,J1,11*%
%TO.N,N/C*%
X133755000Y-105410000D03*
%TO.P,J1,10*%
X137715000Y-105410000D03*
%TO.P,J1,9*%
X141675000Y-105410000D03*
%TO.P,J1,8*%
%TO.N,/VIA_CB1*%
X145635000Y-105410000D03*
%TO.P,J1,7*%
%TO.N,N/C*%
X149595000Y-105410000D03*
%TO.P,J1,6*%
X153555000Y-105410000D03*
%TO.P,J1,5*%
X157515000Y-105410000D03*
%TO.P,J1,4*%
X161475000Y-105410000D03*
%TO.P,J1,3*%
X165435000Y-105410000D03*
%TO.P,J1,2*%
X169395000Y-105410000D03*
%TO.P,J1,1*%
%TO.N,GND*%
X173355000Y-105410000D03*
%TD*%
D11*
%TO.P,J2,11*%
%TO.N,Net-(J2-Pad11)*%
X140208000Y-90170000D03*
X142748000Y-90170000D03*
X145288000Y-90170000D03*
X147828000Y-90170000D03*
X150368000Y-90170000D03*
X152908000Y-90170000D03*
X155448000Y-90170000D03*
X157988000Y-90170000D03*
X160528000Y-90170000D03*
%TO.P,J2,10*%
%TO.N,Net-(J2-Pad10)*%
X163068000Y-92710000D03*
%TO.P,J2,8*%
%TO.N,/VIA_PA6*%
X157988000Y-92710000D03*
%TO.P,J2,6*%
%TO.N,/VIA_PA4*%
X152908000Y-92710000D03*
%TO.P,J2,4*%
%TO.N,/VIA_PA2*%
X147828000Y-92710000D03*
%TO.P,J2,2*%
%TO.N,/VIA_PA0*%
X142748000Y-92710000D03*
%TO.P,J2,11*%
%TO.N,Net-(J2-Pad11)*%
X163068000Y-90170000D03*
%TO.P,J2,9*%
%TO.N,/VIA_PA7*%
X160528000Y-92710000D03*
%TO.P,J2,7*%
%TO.N,/VIA_PA5*%
X155448000Y-92710000D03*
%TO.P,J2,5*%
%TO.N,/VIA_PA3*%
X150368000Y-92710000D03*
%TO.P,J2,3*%
%TO.N,/VIA_PA1*%
X145288000Y-92710000D03*
%TO.P,J2,1*%
%TO.N,Net-(J2-Pad1)*%
%TA.AperFunction,ComponentPad*%
G36*
G01*
X140808000Y-93560000D02*
X139608000Y-93560000D01*
G75*
G02*
X139358000Y-93310000I0J250000D01*
G01*
X139358000Y-92110000D01*
G75*
G02*
X139608000Y-91860000I250000J0D01*
G01*
X140808000Y-91860000D01*
G75*
G02*
X141058000Y-92110000I0J-250000D01*
G01*
X141058000Y-93310000D01*
G75*
G02*
X140808000Y-93560000I-250000J0D01*
G01*
G37*
%TD.AperFunction*%
%TD*%
D12*
%TO.P,M1,1*%
%TO.N,N/C*%
X120904000Y-98298000D03*
%TD*%
%TO.P,M2,1*%
%TO.N,N/C*%
X182372000Y-98298000D03*
%TD*%
%TO.P,M3,1*%
%TO.N,N/C*%
X182372000Y-83820000D03*
%TD*%
%TO.P,M4,1*%
%TO.N,N/C*%
X120904000Y-83820000D03*
%TD*%
D13*
%TO.N,GND*%
X130556000Y-101092000D03*
X172466000Y-101092000D03*
%TO.N,/VIA_PA0*%
X143510000Y-95340000D03*
%TO.N,/VIA_PA1*%
X146050000Y-96065000D03*
%TO.N,/VIA_PA2*%
X148590000Y-96790000D03*
%TO.N,/VIA_PA3*%
X151130000Y-97515000D03*
%TO.N,/VIA_CB1*%
X166370000Y-93980000D03*
%TO.N,/VIA_PA4*%
X152400000Y-98334990D03*
%TO.N,/VIA_PA5*%
X146685004Y-98969990D03*
%TO.N,/VIA_PA6*%
X142240000Y-99695000D03*
%TO.N,/VIA_PA7*%
X137795000Y-100965000D03*
%TD*%
D14*
%TO.N,GND*%
X129795000Y-101853000D02*
X130556000Y-101092000D01*
X129795000Y-105410000D02*
X129795000Y-101853000D01*
X173355000Y-101981000D02*
X172466000Y-101092000D01*
X173355000Y-105410000D02*
X173355000Y-101981000D01*
D15*
%TO.N,/VIA_PA0*%
X142748000Y-94578000D02*
X142748000Y-92710000D01*
X143510000Y-95340000D02*
X142748000Y-94578000D01*
%TO.N,/VIA_PA1*%
X145415000Y-92837000D02*
X145288000Y-92710000D01*
X145415000Y-95430000D02*
X145415000Y-92837000D01*
X146050000Y-96065000D02*
X145415000Y-95430000D01*
%TO.N,/VIA_PA2*%
X148590000Y-96790000D02*
X147955000Y-96155000D01*
X147955000Y-92837000D02*
X147828000Y-92710000D01*
X147955000Y-96155000D02*
X147955000Y-92837000D01*
%TO.N,/VIA_PA3*%
X151130000Y-97515000D02*
X150495000Y-96880000D01*
X150495000Y-92837000D02*
X150368000Y-92710000D01*
X150495000Y-96880000D02*
X150495000Y-92837000D01*
%TO.N,/VIA_CB1*%
X146494500Y-100965000D02*
X162433000Y-100965000D01*
X145635000Y-101824500D02*
X146494500Y-100965000D01*
X145635000Y-105410000D02*
X145635000Y-101824500D01*
X162433000Y-100965000D02*
X165735000Y-100965000D01*
X166370000Y-100330000D02*
X166370000Y-93980000D01*
X165735000Y-100965000D02*
X166370000Y-100330000D01*
%TO.N,/VIA_PA4*%
X152908000Y-92710000D02*
X152908000Y-97826990D01*
X152908000Y-97826990D02*
X152400000Y-98334990D01*
%TO.N,/VIA_PA5*%
X155448000Y-92710000D02*
X155448000Y-98425000D01*
X155448000Y-98425000D02*
X154813000Y-99060000D01*
X154813000Y-99060000D02*
X146775014Y-99060000D01*
X146775014Y-99060000D02*
X146685004Y-98969990D01*
%TO.N,/VIA_PA6*%
X156845000Y-99695000D02*
X142240000Y-99695000D01*
X157988000Y-98552000D02*
X156845000Y-99695000D01*
X157988000Y-92710000D02*
X157988000Y-98552000D01*
%TO.N,/VIA_PA7*%
X160528000Y-92710000D02*
X160528000Y-99822000D01*
X160528000Y-99822000D02*
X160020000Y-100330000D01*
X138339999Y-100420001D02*
X137795000Y-100965000D01*
X159929999Y-100420001D02*
X138339999Y-100420001D01*
X160020000Y-100330000D02*
X159929999Y-100420001D01*
%TD*%
M02*
