%TF.GenerationSoftware,KiCad,Pcbnew,(5.1.8)-1*%
%TF.CreationDate,2021-04-29T21:30:50+02:00*%
%TF.ProjectId,C64 SpeedDOS Adapter,43363420-5370-4656-9564-444f53204164,rev?*%
%TF.SameCoordinates,Original*%
%TF.FileFunction,Copper,L2,Bot*%
%TF.FilePolarity,Positive*%
%FSLAX46Y46*%
G04 Gerber Fmt 4.6, Leading zero omitted, Abs format (unit mm)*
G04 Created by KiCad (PCBNEW (5.1.8)-1) date 2021-04-29 21:30:50*
%MOMM*%
%LPD*%
G01*
G04 APERTURE LIST*
%TA.AperFunction,SMDPad,CuDef*%
%ADD10R,2.200000X6.000000*%
%TD*%
%TA.AperFunction,ComponentPad*%
%ADD11C,1.700000*%
%TD*%
%TA.AperFunction,ComponentPad*%
%ADD12C,3.500000*%
%TD*%
%TA.AperFunction,SMDPad,CuDef*%
%ADD13R,2.000000X1.500000*%
%TD*%
%TA.AperFunction,ViaPad*%
%ADD14C,0.800000*%
%TD*%
%TA.AperFunction,Conductor*%
%ADD15C,0.250000*%
%TD*%
%TA.AperFunction,Conductor*%
%ADD16C,0.381000*%
%TD*%
%TA.AperFunction,Conductor*%
%ADD17C,0.254000*%
%TD*%
%TA.AperFunction,Conductor*%
%ADD18C,0.100000*%
%TD*%
G04 APERTURE END LIST*
D10*
%TO.P,J1,N*%
%TO.N,GND*%
X129795000Y-105410000D03*
%TO.P,J1,M*%
%TO.N,N/C*%
X133755000Y-105410000D03*
%TO.P,J1,L*%
%TO.N,/VIA_PA7*%
X137715000Y-105410000D03*
%TO.P,J1,K*%
%TO.N,/VIA_PA6*%
X141675000Y-105410000D03*
%TO.P,J1,J*%
%TO.N,/VIA_PA5*%
X145635000Y-105410000D03*
%TO.P,J1,H*%
%TO.N,/VIA_PA4*%
X149595000Y-105410000D03*
%TO.P,J1,F*%
%TO.N,/VIA_PA3*%
X153555000Y-105410000D03*
%TO.P,J1,E*%
%TO.N,/VIA_PA2*%
X157515000Y-105410000D03*
%TO.P,J1,D*%
%TO.N,/VIA_PA1*%
X161475000Y-105410000D03*
%TO.P,J1,C*%
%TO.N,/VIA_PA0*%
X165435000Y-105410000D03*
%TO.P,J1,B*%
%TO.N,/VIA_CA2*%
X169395000Y-105410000D03*
%TO.P,J1,A*%
%TO.N,GND*%
X173355000Y-105410000D03*
%TD*%
D11*
%TO.P,J2,11*%
%TO.N,Net-(J2-Pad11)*%
X140208000Y-90170000D03*
X142748000Y-90170000D03*
X145288000Y-90170000D03*
X147828000Y-90170000D03*
X150368000Y-90170000D03*
X152908000Y-90170000D03*
X155448000Y-90170000D03*
X157988000Y-90170000D03*
X160528000Y-90170000D03*
%TO.P,J2,10*%
%TO.N,Net-(J2-Pad10)*%
X163068000Y-92710000D03*
%TO.P,J2,8*%
%TO.N,/VIA_PA6*%
X157988000Y-92710000D03*
%TO.P,J2,6*%
%TO.N,/VIA_PA4*%
X152908000Y-92710000D03*
%TO.P,J2,4*%
%TO.N,/VIA_PA2*%
X147828000Y-92710000D03*
%TO.P,J2,2*%
%TO.N,/VIA_PA0*%
X142748000Y-92710000D03*
%TO.P,J2,11*%
%TO.N,Net-(J2-Pad11)*%
X163068000Y-90170000D03*
%TO.P,J2,9*%
%TO.N,/VIA_PA7*%
X160528000Y-92710000D03*
%TO.P,J2,7*%
%TO.N,/VIA_PA5*%
X155448000Y-92710000D03*
%TO.P,J2,5*%
%TO.N,/VIA_PA3*%
X150368000Y-92710000D03*
%TO.P,J2,3*%
%TO.N,/VIA_PA1*%
X145288000Y-92710000D03*
%TO.P,J2,1*%
%TO.N,Net-(J2-Pad1)*%
%TA.AperFunction,ComponentPad*%
G36*
G01*
X140808000Y-93560000D02*
X139608000Y-93560000D01*
G75*
G02*
X139358000Y-93310000I0J250000D01*
G01*
X139358000Y-92110000D01*
G75*
G02*
X139608000Y-91860000I250000J0D01*
G01*
X140808000Y-91860000D01*
G75*
G02*
X141058000Y-92110000I0J-250000D01*
G01*
X141058000Y-93310000D01*
G75*
G02*
X140808000Y-93560000I-250000J0D01*
G01*
G37*
%TD.AperFunction*%
%TD*%
D12*
%TO.P,M1,1*%
%TO.N,N/C*%
X120904000Y-98298000D03*
%TD*%
%TO.P,M2,1*%
%TO.N,N/C*%
X182372000Y-98298000D03*
%TD*%
%TO.P,M3,1*%
%TO.N,N/C*%
X182372000Y-83820000D03*
%TD*%
%TO.P,M4,1*%
%TO.N,N/C*%
X120904000Y-83820000D03*
%TD*%
D13*
%TO.P,JP1,1*%
%TO.N,/VIA_CA2*%
X136906000Y-92202000D03*
%TO.P,JP1,2*%
%TO.N,Net-(J2-Pad1)*%
X136906000Y-90297000D03*
%TD*%
%TO.P,JP2,1*%
%TO.N,/VIA_CB1*%
X166370000Y-92202000D03*
%TO.P,JP2,2*%
%TO.N,Net-(J2-Pad10)*%
X166370000Y-90297000D03*
%TD*%
%TO.P,JP3,1*%
%TO.N,Net-(J2-Pad11)*%
X131445000Y-92202000D03*
%TO.P,JP3,2*%
%TO.N,GND*%
X131445000Y-90297000D03*
%TD*%
D14*
%TO.N,GND*%
X130556000Y-101092000D03*
X172466000Y-101092000D03*
%TO.N,/VIA_PA0*%
X143510000Y-95340000D03*
%TO.N,/VIA_PA1*%
X146050000Y-96065000D03*
%TO.N,/VIA_PA2*%
X148590000Y-96790000D03*
%TO.N,/VIA_PA3*%
X151130000Y-97515000D03*
%TO.N,/VIA_CB1*%
X166370000Y-93980000D03*
%TO.N,/VIA_PA4*%
X152400000Y-98334990D03*
%TO.N,/VIA_PA5*%
X146685004Y-98969990D03*
%TO.N,/VIA_PA6*%
X142240000Y-99695000D03*
%TO.N,/VIA_PA7*%
X137795000Y-100965000D03*
%TD*%
D15*
%TO.N,/VIA_CA2*%
X169395000Y-98910000D02*
X169395000Y-105410000D01*
X165100000Y-94615000D02*
X169395000Y-98910000D01*
X137795000Y-94615000D02*
X165100000Y-94615000D01*
X136906000Y-93726000D02*
X137795000Y-94615000D01*
X136906000Y-92202000D02*
X136906000Y-93726000D01*
%TO.N,/VIA_PA0*%
X164555000Y-95340000D02*
X143510000Y-95340000D01*
X165435000Y-96220000D02*
X164555000Y-95340000D01*
X165435000Y-105410000D02*
X165435000Y-96220000D01*
%TO.N,/VIA_PA1*%
X161475000Y-105410000D02*
X161475000Y-96705000D01*
X160835000Y-96065000D02*
X146050000Y-96065000D01*
X161475000Y-96705000D02*
X160835000Y-96065000D01*
%TO.N,/VIA_PA2*%
X157515000Y-105410000D02*
X157515000Y-97190000D01*
X157115000Y-96790000D02*
X148590000Y-96790000D01*
X157515000Y-97190000D02*
X157115000Y-96790000D01*
%TO.N,/VIA_PA3*%
X153555000Y-105410000D02*
X153555000Y-97760010D01*
X153309990Y-97515000D02*
X151130000Y-97515000D01*
X153555000Y-97760010D02*
X153309990Y-97515000D01*
%TO.N,/VIA_CB1*%
X166370000Y-93980000D02*
X166370000Y-92202000D01*
%TO.N,/VIA_PA4*%
X150331010Y-98334990D02*
X152400000Y-98334990D01*
X149595000Y-99071000D02*
X150331010Y-98334990D01*
X149595000Y-105410000D02*
X149595000Y-99071000D01*
%TO.N,/VIA_PA5*%
X145635000Y-105410000D02*
X145635000Y-100019994D01*
X145635000Y-100019994D02*
X146685004Y-98969990D01*
%TO.N,/VIA_PA6*%
X141675000Y-100260000D02*
X142240000Y-99695000D01*
X141675000Y-105410000D02*
X141675000Y-100260000D01*
%TO.N,/VIA_PA7*%
X137795000Y-105330000D02*
X137715000Y-105410000D01*
X137795000Y-100965000D02*
X137795000Y-105330000D01*
%TO.N,Net-(J2-Pad10)*%
X163830000Y-92710000D02*
X163068000Y-92710000D01*
X164465000Y-92075000D02*
X163830000Y-92710000D01*
X164465000Y-90805000D02*
X164465000Y-92075000D01*
X164973000Y-90297000D02*
X164465000Y-90805000D01*
X166370000Y-90297000D02*
X164973000Y-90297000D01*
%TO.N,Net-(J2-Pad1)*%
X140208000Y-92710000D02*
X139065000Y-92710000D01*
X139065000Y-92710000D02*
X138430000Y-92075000D01*
X138430000Y-92075000D02*
X138430000Y-90805000D01*
X137922000Y-90297000D02*
X136906000Y-90297000D01*
X138430000Y-90805000D02*
X137922000Y-90297000D01*
D16*
%TO.N,Net-(J2-Pad11)*%
X140208000Y-90170000D02*
X142748000Y-90170000D01*
X142748000Y-90170000D02*
X145288000Y-90170000D01*
X145288000Y-90170000D02*
X147828000Y-90170000D01*
X147828000Y-90170000D02*
X150368000Y-90170000D01*
X150368000Y-90170000D02*
X152908000Y-90170000D01*
X152908000Y-90170000D02*
X155448000Y-90170000D01*
X155448000Y-90170000D02*
X157988000Y-90170000D01*
X157988000Y-90170000D02*
X160528000Y-90170000D01*
X160528000Y-90170000D02*
X163068000Y-90170000D01*
X131445000Y-92202000D02*
X133223000Y-92202000D01*
X133223000Y-92202000D02*
X133985000Y-91440000D01*
X133985000Y-91440000D02*
X133985000Y-88900000D01*
X133985000Y-88900000D02*
X134620000Y-88265000D01*
X134620000Y-88265000D02*
X139700000Y-88265000D01*
X140208000Y-88773000D02*
X140208000Y-90170000D01*
X139700000Y-88265000D02*
X140208000Y-88773000D01*
%TD*%
D17*
%TO.N,GND*%
X182983222Y-80733096D02*
X183571164Y-80910606D01*
X184113436Y-81198937D01*
X184589364Y-81587094D01*
X184980845Y-82060314D01*
X185272951Y-82600552D01*
X185454563Y-83187244D01*
X185522001Y-83828888D01*
X185522000Y-87536069D01*
X185203233Y-88633272D01*
X185199359Y-88649408D01*
X185194788Y-88665327D01*
X185190327Y-88685575D01*
X184853252Y-90339105D01*
X184850071Y-90359604D01*
X184846251Y-90379972D01*
X184843716Y-90400550D01*
X184663748Y-92078463D01*
X184662510Y-92099171D01*
X184660624Y-92119807D01*
X184660036Y-92140533D01*
X184638772Y-93827936D01*
X184639488Y-93848670D01*
X184639553Y-93869391D01*
X184640919Y-93890079D01*
X184778548Y-95571994D01*
X184781211Y-95592562D01*
X184783226Y-95613191D01*
X184786528Y-95633629D01*
X184786532Y-95633660D01*
X184786537Y-95633680D01*
X185081833Y-97295159D01*
X185086418Y-97315375D01*
X185090367Y-97335733D01*
X185095585Y-97355799D01*
X185545323Y-98979921D01*
X185956889Y-100507511D01*
X186212488Y-102038404D01*
X186317477Y-103586929D01*
X186270857Y-105138312D01*
X186073069Y-106677738D01*
X185723783Y-108200204D01*
X185691841Y-108306000D01*
X184429000Y-108306000D01*
X184429000Y-107121560D01*
X185082901Y-107121560D01*
X185115320Y-107124753D01*
X185147739Y-107121560D01*
X185244703Y-107112010D01*
X185369113Y-107074270D01*
X185483770Y-107012985D01*
X185584268Y-106930508D01*
X185666745Y-106830010D01*
X185728030Y-106715353D01*
X185765770Y-106590943D01*
X185778513Y-106461560D01*
X185775320Y-106429141D01*
X185775320Y-103493979D01*
X185778513Y-103461560D01*
X185765770Y-103332177D01*
X185728030Y-103207767D01*
X185666745Y-103093110D01*
X185584268Y-102992612D01*
X185483770Y-102910135D01*
X185369113Y-102848850D01*
X185244703Y-102811110D01*
X185147739Y-102801560D01*
X185115320Y-102798367D01*
X185082901Y-102801560D01*
X179447739Y-102801560D01*
X179415320Y-102798367D01*
X179382901Y-102801560D01*
X179285937Y-102811110D01*
X179161527Y-102848850D01*
X179046870Y-102910135D01*
X178946372Y-102992612D01*
X178863895Y-103093110D01*
X178802610Y-103207767D01*
X178764870Y-103332177D01*
X178752127Y-103461560D01*
X178755320Y-103493980D01*
X178755321Y-106429131D01*
X178752127Y-106461560D01*
X178764870Y-106590943D01*
X178802610Y-106715353D01*
X178863895Y-106830010D01*
X178946372Y-106930508D01*
X179046870Y-107012985D01*
X179161527Y-107074270D01*
X179285937Y-107112010D01*
X179382901Y-107121560D01*
X179415320Y-107124753D01*
X179447739Y-107121560D01*
X180101640Y-107121560D01*
X180101641Y-108306000D01*
X175092954Y-108306000D01*
X175090000Y-105695750D01*
X174931250Y-105537000D01*
X173482000Y-105537000D01*
X173482000Y-105557000D01*
X173228000Y-105557000D01*
X173228000Y-105537000D01*
X171778750Y-105537000D01*
X171620000Y-105695750D01*
X171617046Y-108306000D01*
X171133072Y-108306000D01*
X171133072Y-102410000D01*
X171616928Y-102410000D01*
X171620000Y-105124250D01*
X171778750Y-105283000D01*
X173228000Y-105283000D01*
X173228000Y-101933750D01*
X173482000Y-101933750D01*
X173482000Y-105283000D01*
X174931250Y-105283000D01*
X175090000Y-105124250D01*
X175093072Y-102410000D01*
X175080812Y-102285518D01*
X175044502Y-102165820D01*
X174985537Y-102055506D01*
X174906185Y-101958815D01*
X174809494Y-101879463D01*
X174699180Y-101820498D01*
X174579482Y-101784188D01*
X174455000Y-101771928D01*
X173640750Y-101775000D01*
X173482000Y-101933750D01*
X173228000Y-101933750D01*
X173069250Y-101775000D01*
X172255000Y-101771928D01*
X172130518Y-101784188D01*
X172010820Y-101820498D01*
X171900506Y-101879463D01*
X171803815Y-101958815D01*
X171724463Y-102055506D01*
X171665498Y-102165820D01*
X171629188Y-102285518D01*
X171616928Y-102410000D01*
X171133072Y-102410000D01*
X171120812Y-102285518D01*
X171084502Y-102165820D01*
X171025537Y-102055506D01*
X170946185Y-101958815D01*
X170849494Y-101879463D01*
X170739180Y-101820498D01*
X170619482Y-101784188D01*
X170495000Y-101771928D01*
X170155000Y-101771928D01*
X170155000Y-98947322D01*
X170158676Y-98909999D01*
X170155000Y-98872676D01*
X170155000Y-98872667D01*
X170144003Y-98761014D01*
X170100546Y-98617753D01*
X170029974Y-98485724D01*
X169935001Y-98369999D01*
X169906004Y-98346202D01*
X169622900Y-98063098D01*
X179987000Y-98063098D01*
X179987000Y-98532902D01*
X180078654Y-98993679D01*
X180258440Y-99427721D01*
X180519450Y-99818349D01*
X180851651Y-100150550D01*
X181242279Y-100411560D01*
X181676321Y-100591346D01*
X182137098Y-100683000D01*
X182606902Y-100683000D01*
X183067679Y-100591346D01*
X183501721Y-100411560D01*
X183892349Y-100150550D01*
X184224550Y-99818349D01*
X184485560Y-99427721D01*
X184665346Y-98993679D01*
X184757000Y-98532902D01*
X184757000Y-98063098D01*
X184665346Y-97602321D01*
X184485560Y-97168279D01*
X184224550Y-96777651D01*
X183892349Y-96445450D01*
X183501721Y-96184440D01*
X183067679Y-96004654D01*
X182606902Y-95913000D01*
X182137098Y-95913000D01*
X181676321Y-96004654D01*
X181242279Y-96184440D01*
X180851651Y-96445450D01*
X180519450Y-96777651D01*
X180258440Y-97168279D01*
X180078654Y-97602321D01*
X179987000Y-98063098D01*
X169622900Y-98063098D01*
X166557735Y-94997934D01*
X166671898Y-94975226D01*
X166860256Y-94897205D01*
X167029774Y-94783937D01*
X167173937Y-94639774D01*
X167287205Y-94470256D01*
X167365226Y-94281898D01*
X167405000Y-94081939D01*
X167405000Y-93878061D01*
X167365226Y-93678102D01*
X167328763Y-93590072D01*
X167370000Y-93590072D01*
X167494482Y-93577812D01*
X167614180Y-93541502D01*
X167724494Y-93482537D01*
X167821185Y-93403185D01*
X167900537Y-93306494D01*
X167959502Y-93196180D01*
X167995812Y-93076482D01*
X168008072Y-92952000D01*
X168008072Y-91452000D01*
X167995812Y-91327518D01*
X167972145Y-91249500D01*
X167995812Y-91171482D01*
X168008072Y-91047000D01*
X168008072Y-89547000D01*
X167995812Y-89422518D01*
X167959502Y-89302820D01*
X167900537Y-89192506D01*
X167821185Y-89095815D01*
X167724494Y-89016463D01*
X167614180Y-88957498D01*
X167494482Y-88921188D01*
X167370000Y-88908928D01*
X165370000Y-88908928D01*
X165245518Y-88921188D01*
X165125820Y-88957498D01*
X165015506Y-89016463D01*
X164918815Y-89095815D01*
X164839463Y-89192506D01*
X164780498Y-89302820D01*
X164744188Y-89422518D01*
X164731928Y-89547000D01*
X164731928Y-89575931D01*
X164680753Y-89591454D01*
X164548724Y-89662026D01*
X164486197Y-89713340D01*
X164383990Y-89466589D01*
X164221475Y-89223368D01*
X164014632Y-89016525D01*
X163771411Y-88854010D01*
X163501158Y-88742068D01*
X163214260Y-88685000D01*
X162921740Y-88685000D01*
X162634842Y-88742068D01*
X162364589Y-88854010D01*
X162121368Y-89016525D01*
X161914525Y-89223368D01*
X161833587Y-89344500D01*
X161762413Y-89344500D01*
X161681475Y-89223368D01*
X161474632Y-89016525D01*
X161231411Y-88854010D01*
X160961158Y-88742068D01*
X160674260Y-88685000D01*
X160381740Y-88685000D01*
X160094842Y-88742068D01*
X159824589Y-88854010D01*
X159581368Y-89016525D01*
X159374525Y-89223368D01*
X159293587Y-89344500D01*
X159222413Y-89344500D01*
X159141475Y-89223368D01*
X158934632Y-89016525D01*
X158691411Y-88854010D01*
X158421158Y-88742068D01*
X158134260Y-88685000D01*
X157841740Y-88685000D01*
X157554842Y-88742068D01*
X157284589Y-88854010D01*
X157041368Y-89016525D01*
X156834525Y-89223368D01*
X156753587Y-89344500D01*
X156682413Y-89344500D01*
X156601475Y-89223368D01*
X156394632Y-89016525D01*
X156151411Y-88854010D01*
X155881158Y-88742068D01*
X155594260Y-88685000D01*
X155301740Y-88685000D01*
X155014842Y-88742068D01*
X154744589Y-88854010D01*
X154501368Y-89016525D01*
X154294525Y-89223368D01*
X154213587Y-89344500D01*
X154142413Y-89344500D01*
X154061475Y-89223368D01*
X153854632Y-89016525D01*
X153611411Y-88854010D01*
X153341158Y-88742068D01*
X153054260Y-88685000D01*
X152761740Y-88685000D01*
X152474842Y-88742068D01*
X152204589Y-88854010D01*
X151961368Y-89016525D01*
X151754525Y-89223368D01*
X151673587Y-89344500D01*
X151602413Y-89344500D01*
X151521475Y-89223368D01*
X151314632Y-89016525D01*
X151071411Y-88854010D01*
X150801158Y-88742068D01*
X150514260Y-88685000D01*
X150221740Y-88685000D01*
X149934842Y-88742068D01*
X149664589Y-88854010D01*
X149421368Y-89016525D01*
X149214525Y-89223368D01*
X149133587Y-89344500D01*
X149062413Y-89344500D01*
X148981475Y-89223368D01*
X148774632Y-89016525D01*
X148531411Y-88854010D01*
X148261158Y-88742068D01*
X147974260Y-88685000D01*
X147681740Y-88685000D01*
X147394842Y-88742068D01*
X147124589Y-88854010D01*
X146881368Y-89016525D01*
X146674525Y-89223368D01*
X146593587Y-89344500D01*
X146522413Y-89344500D01*
X146441475Y-89223368D01*
X146234632Y-89016525D01*
X145991411Y-88854010D01*
X145721158Y-88742068D01*
X145434260Y-88685000D01*
X145141740Y-88685000D01*
X144854842Y-88742068D01*
X144584589Y-88854010D01*
X144341368Y-89016525D01*
X144134525Y-89223368D01*
X144053587Y-89344500D01*
X143982413Y-89344500D01*
X143901475Y-89223368D01*
X143694632Y-89016525D01*
X143451411Y-88854010D01*
X143181158Y-88742068D01*
X142894260Y-88685000D01*
X142601740Y-88685000D01*
X142314842Y-88742068D01*
X142044589Y-88854010D01*
X141801368Y-89016525D01*
X141594525Y-89223368D01*
X141513587Y-89344500D01*
X141442413Y-89344500D01*
X141361475Y-89223368D01*
X141154632Y-89016525D01*
X141033500Y-88935587D01*
X141033500Y-88813539D01*
X141037493Y-88772999D01*
X141033500Y-88732459D01*
X141033500Y-88732447D01*
X141021556Y-88611174D01*
X140974353Y-88455566D01*
X140897699Y-88312158D01*
X140897698Y-88312156D01*
X140871563Y-88280311D01*
X140794541Y-88186459D01*
X140763035Y-88160603D01*
X140312398Y-87709966D01*
X140286541Y-87678459D01*
X140160842Y-87575301D01*
X140017434Y-87498647D01*
X139861826Y-87451444D01*
X139740553Y-87439500D01*
X139740550Y-87439500D01*
X139700000Y-87435506D01*
X139659450Y-87439500D01*
X134660550Y-87439500D01*
X134620000Y-87435506D01*
X134579449Y-87439500D01*
X134579447Y-87439500D01*
X134458174Y-87451444D01*
X134302566Y-87498647D01*
X134159157Y-87575301D01*
X134064958Y-87652608D01*
X134064957Y-87652609D01*
X134033459Y-87678459D01*
X134007610Y-87709956D01*
X133429961Y-88287607D01*
X133398460Y-88313459D01*
X133372609Y-88344959D01*
X133295301Y-88439158D01*
X133218647Y-88582567D01*
X133171445Y-88738174D01*
X133155506Y-88900000D01*
X133159501Y-88940560D01*
X133159500Y-91098067D01*
X133064162Y-91193405D01*
X133070812Y-91171482D01*
X133083072Y-91047000D01*
X133080000Y-90582750D01*
X132921250Y-90424000D01*
X131572000Y-90424000D01*
X131572000Y-90444000D01*
X131318000Y-90444000D01*
X131318000Y-90424000D01*
X129968750Y-90424000D01*
X129810000Y-90582750D01*
X129806928Y-91047000D01*
X129819188Y-91171482D01*
X129842855Y-91249500D01*
X129819188Y-91327518D01*
X129806928Y-91452000D01*
X129806928Y-92952000D01*
X129819188Y-93076482D01*
X129855498Y-93196180D01*
X129914463Y-93306494D01*
X129993815Y-93403185D01*
X130090506Y-93482537D01*
X130200820Y-93541502D01*
X130320518Y-93577812D01*
X130445000Y-93590072D01*
X132445000Y-93590072D01*
X132569482Y-93577812D01*
X132689180Y-93541502D01*
X132799494Y-93482537D01*
X132896185Y-93403185D01*
X132975537Y-93306494D01*
X133034502Y-93196180D01*
X133070812Y-93076482D01*
X133075636Y-93027500D01*
X133182450Y-93027500D01*
X133223000Y-93031494D01*
X133263550Y-93027500D01*
X133263553Y-93027500D01*
X133384826Y-93015556D01*
X133540434Y-92968353D01*
X133683842Y-92891699D01*
X133809541Y-92788541D01*
X133835397Y-92757035D01*
X134540046Y-92052388D01*
X134571541Y-92026541D01*
X134597389Y-91995045D01*
X134597392Y-91995042D01*
X134674699Y-91900843D01*
X134751353Y-91757434D01*
X134767821Y-91703146D01*
X134798556Y-91601826D01*
X134810500Y-91480553D01*
X134810500Y-91480551D01*
X134814494Y-91440000D01*
X134810500Y-91399450D01*
X134810500Y-89241933D01*
X134961933Y-89090500D01*
X135461291Y-89090500D01*
X135454815Y-89095815D01*
X135375463Y-89192506D01*
X135316498Y-89302820D01*
X135280188Y-89422518D01*
X135267928Y-89547000D01*
X135267928Y-91047000D01*
X135280188Y-91171482D01*
X135303855Y-91249500D01*
X135280188Y-91327518D01*
X135267928Y-91452000D01*
X135267928Y-92952000D01*
X135280188Y-93076482D01*
X135316498Y-93196180D01*
X135375463Y-93306494D01*
X135454815Y-93403185D01*
X135551506Y-93482537D01*
X135661820Y-93541502D01*
X135781518Y-93577812D01*
X135906000Y-93590072D01*
X136146001Y-93590072D01*
X136146001Y-93688668D01*
X136142324Y-93726000D01*
X136146001Y-93763333D01*
X136156998Y-93874986D01*
X136167416Y-93909330D01*
X136200454Y-94018246D01*
X136271026Y-94150276D01*
X136339184Y-94233326D01*
X136366000Y-94266001D01*
X136394998Y-94289799D01*
X137231200Y-95126002D01*
X137254999Y-95155001D01*
X137370724Y-95249974D01*
X137502753Y-95320546D01*
X137646014Y-95364003D01*
X137757667Y-95375000D01*
X137757677Y-95375000D01*
X137795000Y-95378676D01*
X137832323Y-95375000D01*
X142475000Y-95375000D01*
X142475000Y-95441939D01*
X142514774Y-95641898D01*
X142592795Y-95830256D01*
X142706063Y-95999774D01*
X142850226Y-96143937D01*
X143019744Y-96257205D01*
X143208102Y-96335226D01*
X143408061Y-96375000D01*
X143611939Y-96375000D01*
X143811898Y-96335226D01*
X144000256Y-96257205D01*
X144169774Y-96143937D01*
X144213711Y-96100000D01*
X145015000Y-96100000D01*
X145015000Y-96166939D01*
X145054774Y-96366898D01*
X145132795Y-96555256D01*
X145246063Y-96724774D01*
X145390226Y-96868937D01*
X145559744Y-96982205D01*
X145748102Y-97060226D01*
X145948061Y-97100000D01*
X146151939Y-97100000D01*
X146351898Y-97060226D01*
X146540256Y-96982205D01*
X146709774Y-96868937D01*
X146753711Y-96825000D01*
X147555000Y-96825000D01*
X147555000Y-96891939D01*
X147594774Y-97091898D01*
X147672795Y-97280256D01*
X147786063Y-97449774D01*
X147930226Y-97593937D01*
X148099744Y-97707205D01*
X148288102Y-97785226D01*
X148488061Y-97825000D01*
X148691939Y-97825000D01*
X148891898Y-97785226D01*
X149080256Y-97707205D01*
X149249774Y-97593937D01*
X149293711Y-97550000D01*
X150095000Y-97550000D01*
X150095000Y-97612385D01*
X150038763Y-97629444D01*
X149906734Y-97700016D01*
X149791009Y-97794989D01*
X149767211Y-97823988D01*
X149083998Y-98507201D01*
X149055000Y-98530999D01*
X149031202Y-98559997D01*
X149031201Y-98559998D01*
X148960026Y-98646724D01*
X148889454Y-98778754D01*
X148870437Y-98841448D01*
X148853597Y-98896965D01*
X148845998Y-98922015D01*
X148831324Y-99071000D01*
X148835001Y-99108332D01*
X148835001Y-101771928D01*
X148495000Y-101771928D01*
X148370518Y-101784188D01*
X148250820Y-101820498D01*
X148140506Y-101879463D01*
X148043815Y-101958815D01*
X147964463Y-102055506D01*
X147905498Y-102165820D01*
X147869188Y-102285518D01*
X147856928Y-102410000D01*
X147856928Y-108306000D01*
X147373072Y-108306000D01*
X147373072Y-102410000D01*
X147360812Y-102285518D01*
X147324502Y-102165820D01*
X147265537Y-102055506D01*
X147186185Y-101958815D01*
X147089494Y-101879463D01*
X146979180Y-101820498D01*
X146859482Y-101784188D01*
X146735000Y-101771928D01*
X146395000Y-101771928D01*
X146395000Y-100334795D01*
X146724806Y-100004990D01*
X146786943Y-100004990D01*
X146986902Y-99965216D01*
X147175260Y-99887195D01*
X147344778Y-99773927D01*
X147488941Y-99629764D01*
X147602209Y-99460246D01*
X147680230Y-99271888D01*
X147720004Y-99071929D01*
X147720004Y-98868051D01*
X147680230Y-98668092D01*
X147602209Y-98479734D01*
X147488941Y-98310216D01*
X147344778Y-98166053D01*
X147175260Y-98052785D01*
X146986902Y-97974764D01*
X146786943Y-97934990D01*
X146583065Y-97934990D01*
X146383106Y-97974764D01*
X146194748Y-98052785D01*
X146025230Y-98166053D01*
X145881067Y-98310216D01*
X145767799Y-98479734D01*
X145689778Y-98668092D01*
X145650004Y-98868051D01*
X145650004Y-98930188D01*
X145123998Y-99456195D01*
X145095000Y-99479993D01*
X145071202Y-99508991D01*
X145071201Y-99508992D01*
X145000026Y-99595718D01*
X144929454Y-99727748D01*
X144901972Y-99818349D01*
X144885998Y-99871008D01*
X144876719Y-99965216D01*
X144871324Y-100019994D01*
X144875001Y-100057326D01*
X144875001Y-101771928D01*
X144535000Y-101771928D01*
X144410518Y-101784188D01*
X144290820Y-101820498D01*
X144180506Y-101879463D01*
X144083815Y-101958815D01*
X144004463Y-102055506D01*
X143945498Y-102165820D01*
X143909188Y-102285518D01*
X143896928Y-102410000D01*
X143896928Y-108306000D01*
X143413072Y-108306000D01*
X143413072Y-102410000D01*
X143400812Y-102285518D01*
X143364502Y-102165820D01*
X143305537Y-102055506D01*
X143226185Y-101958815D01*
X143129494Y-101879463D01*
X143019180Y-101820498D01*
X142899482Y-101784188D01*
X142775000Y-101771928D01*
X142435000Y-101771928D01*
X142435000Y-100711489D01*
X142541898Y-100690226D01*
X142730256Y-100612205D01*
X142899774Y-100498937D01*
X143043937Y-100354774D01*
X143157205Y-100185256D01*
X143235226Y-99996898D01*
X143275000Y-99796939D01*
X143275000Y-99593061D01*
X143235226Y-99393102D01*
X143157205Y-99204744D01*
X143043937Y-99035226D01*
X142899774Y-98891063D01*
X142730256Y-98777795D01*
X142541898Y-98699774D01*
X142341939Y-98660000D01*
X142138061Y-98660000D01*
X141938102Y-98699774D01*
X141749744Y-98777795D01*
X141580226Y-98891063D01*
X141436063Y-99035226D01*
X141322795Y-99204744D01*
X141244774Y-99393102D01*
X141205000Y-99593061D01*
X141205000Y-99655199D01*
X141163998Y-99696201D01*
X141135000Y-99719999D01*
X141111202Y-99748997D01*
X141111201Y-99748998D01*
X141040026Y-99835724D01*
X140969454Y-99967754D01*
X140925998Y-100111015D01*
X140911324Y-100260000D01*
X140915001Y-100297332D01*
X140915001Y-101771928D01*
X140575000Y-101771928D01*
X140450518Y-101784188D01*
X140330820Y-101820498D01*
X140220506Y-101879463D01*
X140123815Y-101958815D01*
X140044463Y-102055506D01*
X139985498Y-102165820D01*
X139949188Y-102285518D01*
X139936928Y-102410000D01*
X139936928Y-108306000D01*
X139453072Y-108306000D01*
X139453072Y-102410000D01*
X139440812Y-102285518D01*
X139404502Y-102165820D01*
X139345537Y-102055506D01*
X139266185Y-101958815D01*
X139169494Y-101879463D01*
X139059180Y-101820498D01*
X138939482Y-101784188D01*
X138815000Y-101771928D01*
X138555000Y-101771928D01*
X138555000Y-101668711D01*
X138598937Y-101624774D01*
X138712205Y-101455256D01*
X138790226Y-101266898D01*
X138830000Y-101066939D01*
X138830000Y-100863061D01*
X138790226Y-100663102D01*
X138712205Y-100474744D01*
X138598937Y-100305226D01*
X138454774Y-100161063D01*
X138285256Y-100047795D01*
X138096898Y-99969774D01*
X137896939Y-99930000D01*
X137693061Y-99930000D01*
X137493102Y-99969774D01*
X137304744Y-100047795D01*
X137135226Y-100161063D01*
X136991063Y-100305226D01*
X136877795Y-100474744D01*
X136799774Y-100663102D01*
X136760000Y-100863061D01*
X136760000Y-101066939D01*
X136799774Y-101266898D01*
X136877795Y-101455256D01*
X136991063Y-101624774D01*
X137035000Y-101668711D01*
X137035000Y-101771928D01*
X136615000Y-101771928D01*
X136490518Y-101784188D01*
X136370820Y-101820498D01*
X136260506Y-101879463D01*
X136163815Y-101958815D01*
X136084463Y-102055506D01*
X136025498Y-102165820D01*
X135989188Y-102285518D01*
X135976928Y-102410000D01*
X135976928Y-108306000D01*
X135493072Y-108306000D01*
X135493072Y-102410000D01*
X135480812Y-102285518D01*
X135444502Y-102165820D01*
X135385537Y-102055506D01*
X135306185Y-101958815D01*
X135209494Y-101879463D01*
X135099180Y-101820498D01*
X134979482Y-101784188D01*
X134855000Y-101771928D01*
X132655000Y-101771928D01*
X132530518Y-101784188D01*
X132410820Y-101820498D01*
X132300506Y-101879463D01*
X132203815Y-101958815D01*
X132124463Y-102055506D01*
X132065498Y-102165820D01*
X132029188Y-102285518D01*
X132016928Y-102410000D01*
X132016928Y-108306000D01*
X131532954Y-108306000D01*
X131530000Y-105695750D01*
X131371250Y-105537000D01*
X129922000Y-105537000D01*
X129922000Y-105557000D01*
X129668000Y-105557000D01*
X129668000Y-105537000D01*
X128218750Y-105537000D01*
X128060000Y-105695750D01*
X128057046Y-108306000D01*
X123047360Y-108306000D01*
X123047360Y-107121560D01*
X123701261Y-107121560D01*
X123733680Y-107124753D01*
X123766099Y-107121560D01*
X123863063Y-107112010D01*
X123987473Y-107074270D01*
X124102130Y-107012985D01*
X124202628Y-106930508D01*
X124285105Y-106830010D01*
X124346390Y-106715353D01*
X124384130Y-106590943D01*
X124396873Y-106461560D01*
X124393680Y-106429141D01*
X124393680Y-103493979D01*
X124396873Y-103461560D01*
X124384130Y-103332177D01*
X124346390Y-103207767D01*
X124285105Y-103093110D01*
X124202628Y-102992612D01*
X124102130Y-102910135D01*
X123987473Y-102848850D01*
X123863063Y-102811110D01*
X123766099Y-102801560D01*
X123733680Y-102798367D01*
X123701261Y-102801560D01*
X118066099Y-102801560D01*
X118033680Y-102798367D01*
X118001261Y-102801560D01*
X117904297Y-102811110D01*
X117779887Y-102848850D01*
X117665230Y-102910135D01*
X117564732Y-102992612D01*
X117482255Y-103093110D01*
X117420970Y-103207767D01*
X117383230Y-103332177D01*
X117370487Y-103461560D01*
X117373680Y-103493980D01*
X117373681Y-106429131D01*
X117370487Y-106461560D01*
X117383230Y-106590943D01*
X117420970Y-106715353D01*
X117482255Y-106830010D01*
X117564732Y-106930508D01*
X117665230Y-107012985D01*
X117779887Y-107074270D01*
X117904297Y-107112010D01*
X118001261Y-107121560D01*
X118033680Y-107124753D01*
X118066099Y-107121560D01*
X118720000Y-107121560D01*
X118720001Y-108306000D01*
X117599716Y-108306000D01*
X117319111Y-107264492D01*
X117063512Y-105733596D01*
X116958523Y-104185072D01*
X117005143Y-102633689D01*
X117033882Y-102410000D01*
X128056928Y-102410000D01*
X128060000Y-105124250D01*
X128218750Y-105283000D01*
X129668000Y-105283000D01*
X129668000Y-101933750D01*
X129922000Y-101933750D01*
X129922000Y-105283000D01*
X131371250Y-105283000D01*
X131530000Y-105124250D01*
X131533072Y-102410000D01*
X131520812Y-102285518D01*
X131484502Y-102165820D01*
X131425537Y-102055506D01*
X131346185Y-101958815D01*
X131249494Y-101879463D01*
X131139180Y-101820498D01*
X131019482Y-101784188D01*
X130895000Y-101771928D01*
X130080750Y-101775000D01*
X129922000Y-101933750D01*
X129668000Y-101933750D01*
X129509250Y-101775000D01*
X128695000Y-101771928D01*
X128570518Y-101784188D01*
X128450820Y-101820498D01*
X128340506Y-101879463D01*
X128243815Y-101958815D01*
X128164463Y-102055506D01*
X128105498Y-102165820D01*
X128069188Y-102285518D01*
X128056928Y-102410000D01*
X117033882Y-102410000D01*
X117202931Y-101094262D01*
X117552218Y-99571793D01*
X117725831Y-98996762D01*
X117726155Y-98995461D01*
X117727794Y-98990135D01*
X117997123Y-98063098D01*
X118519000Y-98063098D01*
X118519000Y-98532902D01*
X118610654Y-98993679D01*
X118790440Y-99427721D01*
X119051450Y-99818349D01*
X119383651Y-100150550D01*
X119774279Y-100411560D01*
X120208321Y-100591346D01*
X120669098Y-100683000D01*
X121138902Y-100683000D01*
X121599679Y-100591346D01*
X122033721Y-100411560D01*
X122424349Y-100150550D01*
X122756550Y-99818349D01*
X123017560Y-99427721D01*
X123197346Y-98993679D01*
X123289000Y-98532902D01*
X123289000Y-98063098D01*
X123197346Y-97602321D01*
X123017560Y-97168279D01*
X122756550Y-96777651D01*
X122424349Y-96445450D01*
X122033721Y-96184440D01*
X121599679Y-96004654D01*
X121138902Y-95913000D01*
X120669098Y-95913000D01*
X120208321Y-96004654D01*
X119774279Y-96184440D01*
X119383651Y-96445450D01*
X119051450Y-96777651D01*
X118790440Y-97168279D01*
X118610654Y-97602321D01*
X118519000Y-98063098D01*
X117997123Y-98063098D01*
X118072767Y-97802731D01*
X118076641Y-97786595D01*
X118081212Y-97770676D01*
X118085673Y-97750428D01*
X118422748Y-96096898D01*
X118425929Y-96076399D01*
X118429749Y-96056031D01*
X118432284Y-96035453D01*
X118612252Y-94357540D01*
X118613490Y-94336832D01*
X118615376Y-94316196D01*
X118615964Y-94295470D01*
X118637228Y-92608067D01*
X118636512Y-92587333D01*
X118636447Y-92566613D01*
X118635081Y-92545924D01*
X118497452Y-90864009D01*
X118494789Y-90843443D01*
X118492774Y-90822812D01*
X118489471Y-90802370D01*
X118489468Y-90802344D01*
X118489464Y-90802327D01*
X118266354Y-89547000D01*
X129806928Y-89547000D01*
X129810000Y-90011250D01*
X129968750Y-90170000D01*
X131318000Y-90170000D01*
X131318000Y-89070750D01*
X131572000Y-89070750D01*
X131572000Y-90170000D01*
X132921250Y-90170000D01*
X133080000Y-90011250D01*
X133083072Y-89547000D01*
X133070812Y-89422518D01*
X133034502Y-89302820D01*
X132975537Y-89192506D01*
X132896185Y-89095815D01*
X132799494Y-89016463D01*
X132689180Y-88957498D01*
X132569482Y-88921188D01*
X132445000Y-88908928D01*
X131730750Y-88912000D01*
X131572000Y-89070750D01*
X131318000Y-89070750D01*
X131159250Y-88912000D01*
X130445000Y-88908928D01*
X130320518Y-88921188D01*
X130200820Y-88957498D01*
X130090506Y-89016463D01*
X129993815Y-89095815D01*
X129914463Y-89192506D01*
X129855498Y-89302820D01*
X129819188Y-89422518D01*
X129806928Y-89547000D01*
X118266354Y-89547000D01*
X118194167Y-89140844D01*
X118189582Y-89120628D01*
X118185633Y-89100270D01*
X118180415Y-89080203D01*
X117754000Y-87540308D01*
X117754000Y-83852279D01*
X117780197Y-83585098D01*
X118519000Y-83585098D01*
X118519000Y-84054902D01*
X118610654Y-84515679D01*
X118790440Y-84949721D01*
X119051450Y-85340349D01*
X119383651Y-85672550D01*
X119774279Y-85933560D01*
X120208321Y-86113346D01*
X120669098Y-86205000D01*
X121138902Y-86205000D01*
X121599679Y-86113346D01*
X122033721Y-85933560D01*
X122424349Y-85672550D01*
X122756550Y-85340349D01*
X123017560Y-84949721D01*
X123197346Y-84515679D01*
X123289000Y-84054902D01*
X123289000Y-83585098D01*
X179987000Y-83585098D01*
X179987000Y-84054902D01*
X180078654Y-84515679D01*
X180258440Y-84949721D01*
X180519450Y-85340349D01*
X180851651Y-85672550D01*
X181242279Y-85933560D01*
X181676321Y-86113346D01*
X182137098Y-86205000D01*
X182606902Y-86205000D01*
X183067679Y-86113346D01*
X183501721Y-85933560D01*
X183892349Y-85672550D01*
X184224550Y-85340349D01*
X184485560Y-84949721D01*
X184665346Y-84515679D01*
X184757000Y-84054902D01*
X184757000Y-83585098D01*
X184665346Y-83124321D01*
X184485560Y-82690279D01*
X184224550Y-82299651D01*
X183892349Y-81967450D01*
X183501721Y-81706440D01*
X183067679Y-81526654D01*
X182606902Y-81435000D01*
X182137098Y-81435000D01*
X181676321Y-81526654D01*
X181242279Y-81706440D01*
X180851651Y-81967450D01*
X180519450Y-82299651D01*
X180258440Y-82690279D01*
X180078654Y-83124321D01*
X179987000Y-83585098D01*
X123289000Y-83585098D01*
X123197346Y-83124321D01*
X123017560Y-82690279D01*
X122756550Y-82299651D01*
X122424349Y-81967450D01*
X122033721Y-81706440D01*
X121599679Y-81526654D01*
X121138902Y-81435000D01*
X120669098Y-81435000D01*
X120208321Y-81526654D01*
X119774279Y-81706440D01*
X119383651Y-81967450D01*
X119051450Y-82299651D01*
X118790440Y-82690279D01*
X118610654Y-83124321D01*
X118519000Y-83585098D01*
X117780197Y-83585098D01*
X117817096Y-83208778D01*
X117994606Y-82620836D01*
X118282937Y-82078564D01*
X118671094Y-81602636D01*
X119144314Y-81211155D01*
X119684552Y-80919049D01*
X120271244Y-80737437D01*
X120912879Y-80670000D01*
X182339721Y-80670000D01*
X182983222Y-80733096D01*
%TA.AperFunction,Conductor*%
D18*
G36*
X182983222Y-80733096D02*
G01*
X183571164Y-80910606D01*
X184113436Y-81198937D01*
X184589364Y-81587094D01*
X184980845Y-82060314D01*
X185272951Y-82600552D01*
X185454563Y-83187244D01*
X185522001Y-83828888D01*
X185522000Y-87536069D01*
X185203233Y-88633272D01*
X185199359Y-88649408D01*
X185194788Y-88665327D01*
X185190327Y-88685575D01*
X184853252Y-90339105D01*
X184850071Y-90359604D01*
X184846251Y-90379972D01*
X184843716Y-90400550D01*
X184663748Y-92078463D01*
X184662510Y-92099171D01*
X184660624Y-92119807D01*
X184660036Y-92140533D01*
X184638772Y-93827936D01*
X184639488Y-93848670D01*
X184639553Y-93869391D01*
X184640919Y-93890079D01*
X184778548Y-95571994D01*
X184781211Y-95592562D01*
X184783226Y-95613191D01*
X184786528Y-95633629D01*
X184786532Y-95633660D01*
X184786537Y-95633680D01*
X185081833Y-97295159D01*
X185086418Y-97315375D01*
X185090367Y-97335733D01*
X185095585Y-97355799D01*
X185545323Y-98979921D01*
X185956889Y-100507511D01*
X186212488Y-102038404D01*
X186317477Y-103586929D01*
X186270857Y-105138312D01*
X186073069Y-106677738D01*
X185723783Y-108200204D01*
X185691841Y-108306000D01*
X184429000Y-108306000D01*
X184429000Y-107121560D01*
X185082901Y-107121560D01*
X185115320Y-107124753D01*
X185147739Y-107121560D01*
X185244703Y-107112010D01*
X185369113Y-107074270D01*
X185483770Y-107012985D01*
X185584268Y-106930508D01*
X185666745Y-106830010D01*
X185728030Y-106715353D01*
X185765770Y-106590943D01*
X185778513Y-106461560D01*
X185775320Y-106429141D01*
X185775320Y-103493979D01*
X185778513Y-103461560D01*
X185765770Y-103332177D01*
X185728030Y-103207767D01*
X185666745Y-103093110D01*
X185584268Y-102992612D01*
X185483770Y-102910135D01*
X185369113Y-102848850D01*
X185244703Y-102811110D01*
X185147739Y-102801560D01*
X185115320Y-102798367D01*
X185082901Y-102801560D01*
X179447739Y-102801560D01*
X179415320Y-102798367D01*
X179382901Y-102801560D01*
X179285937Y-102811110D01*
X179161527Y-102848850D01*
X179046870Y-102910135D01*
X178946372Y-102992612D01*
X178863895Y-103093110D01*
X178802610Y-103207767D01*
X178764870Y-103332177D01*
X178752127Y-103461560D01*
X178755320Y-103493980D01*
X178755321Y-106429131D01*
X178752127Y-106461560D01*
X178764870Y-106590943D01*
X178802610Y-106715353D01*
X178863895Y-106830010D01*
X178946372Y-106930508D01*
X179046870Y-107012985D01*
X179161527Y-107074270D01*
X179285937Y-107112010D01*
X179382901Y-107121560D01*
X179415320Y-107124753D01*
X179447739Y-107121560D01*
X180101640Y-107121560D01*
X180101641Y-108306000D01*
X175092954Y-108306000D01*
X175090000Y-105695750D01*
X174931250Y-105537000D01*
X173482000Y-105537000D01*
X173482000Y-105557000D01*
X173228000Y-105557000D01*
X173228000Y-105537000D01*
X171778750Y-105537000D01*
X171620000Y-105695750D01*
X171617046Y-108306000D01*
X171133072Y-108306000D01*
X171133072Y-102410000D01*
X171616928Y-102410000D01*
X171620000Y-105124250D01*
X171778750Y-105283000D01*
X173228000Y-105283000D01*
X173228000Y-101933750D01*
X173482000Y-101933750D01*
X173482000Y-105283000D01*
X174931250Y-105283000D01*
X175090000Y-105124250D01*
X175093072Y-102410000D01*
X175080812Y-102285518D01*
X175044502Y-102165820D01*
X174985537Y-102055506D01*
X174906185Y-101958815D01*
X174809494Y-101879463D01*
X174699180Y-101820498D01*
X174579482Y-101784188D01*
X174455000Y-101771928D01*
X173640750Y-101775000D01*
X173482000Y-101933750D01*
X173228000Y-101933750D01*
X173069250Y-101775000D01*
X172255000Y-101771928D01*
X172130518Y-101784188D01*
X172010820Y-101820498D01*
X171900506Y-101879463D01*
X171803815Y-101958815D01*
X171724463Y-102055506D01*
X171665498Y-102165820D01*
X171629188Y-102285518D01*
X171616928Y-102410000D01*
X171133072Y-102410000D01*
X171120812Y-102285518D01*
X171084502Y-102165820D01*
X171025537Y-102055506D01*
X170946185Y-101958815D01*
X170849494Y-101879463D01*
X170739180Y-101820498D01*
X170619482Y-101784188D01*
X170495000Y-101771928D01*
X170155000Y-101771928D01*
X170155000Y-98947322D01*
X170158676Y-98909999D01*
X170155000Y-98872676D01*
X170155000Y-98872667D01*
X170144003Y-98761014D01*
X170100546Y-98617753D01*
X170029974Y-98485724D01*
X169935001Y-98369999D01*
X169906004Y-98346202D01*
X169622900Y-98063098D01*
X179987000Y-98063098D01*
X179987000Y-98532902D01*
X180078654Y-98993679D01*
X180258440Y-99427721D01*
X180519450Y-99818349D01*
X180851651Y-100150550D01*
X181242279Y-100411560D01*
X181676321Y-100591346D01*
X182137098Y-100683000D01*
X182606902Y-100683000D01*
X183067679Y-100591346D01*
X183501721Y-100411560D01*
X183892349Y-100150550D01*
X184224550Y-99818349D01*
X184485560Y-99427721D01*
X184665346Y-98993679D01*
X184757000Y-98532902D01*
X184757000Y-98063098D01*
X184665346Y-97602321D01*
X184485560Y-97168279D01*
X184224550Y-96777651D01*
X183892349Y-96445450D01*
X183501721Y-96184440D01*
X183067679Y-96004654D01*
X182606902Y-95913000D01*
X182137098Y-95913000D01*
X181676321Y-96004654D01*
X181242279Y-96184440D01*
X180851651Y-96445450D01*
X180519450Y-96777651D01*
X180258440Y-97168279D01*
X180078654Y-97602321D01*
X179987000Y-98063098D01*
X169622900Y-98063098D01*
X166557735Y-94997934D01*
X166671898Y-94975226D01*
X166860256Y-94897205D01*
X167029774Y-94783937D01*
X167173937Y-94639774D01*
X167287205Y-94470256D01*
X167365226Y-94281898D01*
X167405000Y-94081939D01*
X167405000Y-93878061D01*
X167365226Y-93678102D01*
X167328763Y-93590072D01*
X167370000Y-93590072D01*
X167494482Y-93577812D01*
X167614180Y-93541502D01*
X167724494Y-93482537D01*
X167821185Y-93403185D01*
X167900537Y-93306494D01*
X167959502Y-93196180D01*
X167995812Y-93076482D01*
X168008072Y-92952000D01*
X168008072Y-91452000D01*
X167995812Y-91327518D01*
X167972145Y-91249500D01*
X167995812Y-91171482D01*
X168008072Y-91047000D01*
X168008072Y-89547000D01*
X167995812Y-89422518D01*
X167959502Y-89302820D01*
X167900537Y-89192506D01*
X167821185Y-89095815D01*
X167724494Y-89016463D01*
X167614180Y-88957498D01*
X167494482Y-88921188D01*
X167370000Y-88908928D01*
X165370000Y-88908928D01*
X165245518Y-88921188D01*
X165125820Y-88957498D01*
X165015506Y-89016463D01*
X164918815Y-89095815D01*
X164839463Y-89192506D01*
X164780498Y-89302820D01*
X164744188Y-89422518D01*
X164731928Y-89547000D01*
X164731928Y-89575931D01*
X164680753Y-89591454D01*
X164548724Y-89662026D01*
X164486197Y-89713340D01*
X164383990Y-89466589D01*
X164221475Y-89223368D01*
X164014632Y-89016525D01*
X163771411Y-88854010D01*
X163501158Y-88742068D01*
X163214260Y-88685000D01*
X162921740Y-88685000D01*
X162634842Y-88742068D01*
X162364589Y-88854010D01*
X162121368Y-89016525D01*
X161914525Y-89223368D01*
X161833587Y-89344500D01*
X161762413Y-89344500D01*
X161681475Y-89223368D01*
X161474632Y-89016525D01*
X161231411Y-88854010D01*
X160961158Y-88742068D01*
X160674260Y-88685000D01*
X160381740Y-88685000D01*
X160094842Y-88742068D01*
X159824589Y-88854010D01*
X159581368Y-89016525D01*
X159374525Y-89223368D01*
X159293587Y-89344500D01*
X159222413Y-89344500D01*
X159141475Y-89223368D01*
X158934632Y-89016525D01*
X158691411Y-88854010D01*
X158421158Y-88742068D01*
X158134260Y-88685000D01*
X157841740Y-88685000D01*
X157554842Y-88742068D01*
X157284589Y-88854010D01*
X157041368Y-89016525D01*
X156834525Y-89223368D01*
X156753587Y-89344500D01*
X156682413Y-89344500D01*
X156601475Y-89223368D01*
X156394632Y-89016525D01*
X156151411Y-88854010D01*
X155881158Y-88742068D01*
X155594260Y-88685000D01*
X155301740Y-88685000D01*
X155014842Y-88742068D01*
X154744589Y-88854010D01*
X154501368Y-89016525D01*
X154294525Y-89223368D01*
X154213587Y-89344500D01*
X154142413Y-89344500D01*
X154061475Y-89223368D01*
X153854632Y-89016525D01*
X153611411Y-88854010D01*
X153341158Y-88742068D01*
X153054260Y-88685000D01*
X152761740Y-88685000D01*
X152474842Y-88742068D01*
X152204589Y-88854010D01*
X151961368Y-89016525D01*
X151754525Y-89223368D01*
X151673587Y-89344500D01*
X151602413Y-89344500D01*
X151521475Y-89223368D01*
X151314632Y-89016525D01*
X151071411Y-88854010D01*
X150801158Y-88742068D01*
X150514260Y-88685000D01*
X150221740Y-88685000D01*
X149934842Y-88742068D01*
X149664589Y-88854010D01*
X149421368Y-89016525D01*
X149214525Y-89223368D01*
X149133587Y-89344500D01*
X149062413Y-89344500D01*
X148981475Y-89223368D01*
X148774632Y-89016525D01*
X148531411Y-88854010D01*
X148261158Y-88742068D01*
X147974260Y-88685000D01*
X147681740Y-88685000D01*
X147394842Y-88742068D01*
X147124589Y-88854010D01*
X146881368Y-89016525D01*
X146674525Y-89223368D01*
X146593587Y-89344500D01*
X146522413Y-89344500D01*
X146441475Y-89223368D01*
X146234632Y-89016525D01*
X145991411Y-88854010D01*
X145721158Y-88742068D01*
X145434260Y-88685000D01*
X145141740Y-88685000D01*
X144854842Y-88742068D01*
X144584589Y-88854010D01*
X144341368Y-89016525D01*
X144134525Y-89223368D01*
X144053587Y-89344500D01*
X143982413Y-89344500D01*
X143901475Y-89223368D01*
X143694632Y-89016525D01*
X143451411Y-88854010D01*
X143181158Y-88742068D01*
X142894260Y-88685000D01*
X142601740Y-88685000D01*
X142314842Y-88742068D01*
X142044589Y-88854010D01*
X141801368Y-89016525D01*
X141594525Y-89223368D01*
X141513587Y-89344500D01*
X141442413Y-89344500D01*
X141361475Y-89223368D01*
X141154632Y-89016525D01*
X141033500Y-88935587D01*
X141033500Y-88813539D01*
X141037493Y-88772999D01*
X141033500Y-88732459D01*
X141033500Y-88732447D01*
X141021556Y-88611174D01*
X140974353Y-88455566D01*
X140897699Y-88312158D01*
X140897698Y-88312156D01*
X140871563Y-88280311D01*
X140794541Y-88186459D01*
X140763035Y-88160603D01*
X140312398Y-87709966D01*
X140286541Y-87678459D01*
X140160842Y-87575301D01*
X140017434Y-87498647D01*
X139861826Y-87451444D01*
X139740553Y-87439500D01*
X139740550Y-87439500D01*
X139700000Y-87435506D01*
X139659450Y-87439500D01*
X134660550Y-87439500D01*
X134620000Y-87435506D01*
X134579449Y-87439500D01*
X134579447Y-87439500D01*
X134458174Y-87451444D01*
X134302566Y-87498647D01*
X134159157Y-87575301D01*
X134064958Y-87652608D01*
X134064957Y-87652609D01*
X134033459Y-87678459D01*
X134007610Y-87709956D01*
X133429961Y-88287607D01*
X133398460Y-88313459D01*
X133372609Y-88344959D01*
X133295301Y-88439158D01*
X133218647Y-88582567D01*
X133171445Y-88738174D01*
X133155506Y-88900000D01*
X133159501Y-88940560D01*
X133159500Y-91098067D01*
X133064162Y-91193405D01*
X133070812Y-91171482D01*
X133083072Y-91047000D01*
X133080000Y-90582750D01*
X132921250Y-90424000D01*
X131572000Y-90424000D01*
X131572000Y-90444000D01*
X131318000Y-90444000D01*
X131318000Y-90424000D01*
X129968750Y-90424000D01*
X129810000Y-90582750D01*
X129806928Y-91047000D01*
X129819188Y-91171482D01*
X129842855Y-91249500D01*
X129819188Y-91327518D01*
X129806928Y-91452000D01*
X129806928Y-92952000D01*
X129819188Y-93076482D01*
X129855498Y-93196180D01*
X129914463Y-93306494D01*
X129993815Y-93403185D01*
X130090506Y-93482537D01*
X130200820Y-93541502D01*
X130320518Y-93577812D01*
X130445000Y-93590072D01*
X132445000Y-93590072D01*
X132569482Y-93577812D01*
X132689180Y-93541502D01*
X132799494Y-93482537D01*
X132896185Y-93403185D01*
X132975537Y-93306494D01*
X133034502Y-93196180D01*
X133070812Y-93076482D01*
X133075636Y-93027500D01*
X133182450Y-93027500D01*
X133223000Y-93031494D01*
X133263550Y-93027500D01*
X133263553Y-93027500D01*
X133384826Y-93015556D01*
X133540434Y-92968353D01*
X133683842Y-92891699D01*
X133809541Y-92788541D01*
X133835397Y-92757035D01*
X134540046Y-92052388D01*
X134571541Y-92026541D01*
X134597389Y-91995045D01*
X134597392Y-91995042D01*
X134674699Y-91900843D01*
X134751353Y-91757434D01*
X134767821Y-91703146D01*
X134798556Y-91601826D01*
X134810500Y-91480553D01*
X134810500Y-91480551D01*
X134814494Y-91440000D01*
X134810500Y-91399450D01*
X134810500Y-89241933D01*
X134961933Y-89090500D01*
X135461291Y-89090500D01*
X135454815Y-89095815D01*
X135375463Y-89192506D01*
X135316498Y-89302820D01*
X135280188Y-89422518D01*
X135267928Y-89547000D01*
X135267928Y-91047000D01*
X135280188Y-91171482D01*
X135303855Y-91249500D01*
X135280188Y-91327518D01*
X135267928Y-91452000D01*
X135267928Y-92952000D01*
X135280188Y-93076482D01*
X135316498Y-93196180D01*
X135375463Y-93306494D01*
X135454815Y-93403185D01*
X135551506Y-93482537D01*
X135661820Y-93541502D01*
X135781518Y-93577812D01*
X135906000Y-93590072D01*
X136146001Y-93590072D01*
X136146001Y-93688668D01*
X136142324Y-93726000D01*
X136146001Y-93763333D01*
X136156998Y-93874986D01*
X136167416Y-93909330D01*
X136200454Y-94018246D01*
X136271026Y-94150276D01*
X136339184Y-94233326D01*
X136366000Y-94266001D01*
X136394998Y-94289799D01*
X137231200Y-95126002D01*
X137254999Y-95155001D01*
X137370724Y-95249974D01*
X137502753Y-95320546D01*
X137646014Y-95364003D01*
X137757667Y-95375000D01*
X137757677Y-95375000D01*
X137795000Y-95378676D01*
X137832323Y-95375000D01*
X142475000Y-95375000D01*
X142475000Y-95441939D01*
X142514774Y-95641898D01*
X142592795Y-95830256D01*
X142706063Y-95999774D01*
X142850226Y-96143937D01*
X143019744Y-96257205D01*
X143208102Y-96335226D01*
X143408061Y-96375000D01*
X143611939Y-96375000D01*
X143811898Y-96335226D01*
X144000256Y-96257205D01*
X144169774Y-96143937D01*
X144213711Y-96100000D01*
X145015000Y-96100000D01*
X145015000Y-96166939D01*
X145054774Y-96366898D01*
X145132795Y-96555256D01*
X145246063Y-96724774D01*
X145390226Y-96868937D01*
X145559744Y-96982205D01*
X145748102Y-97060226D01*
X145948061Y-97100000D01*
X146151939Y-97100000D01*
X146351898Y-97060226D01*
X146540256Y-96982205D01*
X146709774Y-96868937D01*
X146753711Y-96825000D01*
X147555000Y-96825000D01*
X147555000Y-96891939D01*
X147594774Y-97091898D01*
X147672795Y-97280256D01*
X147786063Y-97449774D01*
X147930226Y-97593937D01*
X148099744Y-97707205D01*
X148288102Y-97785226D01*
X148488061Y-97825000D01*
X148691939Y-97825000D01*
X148891898Y-97785226D01*
X149080256Y-97707205D01*
X149249774Y-97593937D01*
X149293711Y-97550000D01*
X150095000Y-97550000D01*
X150095000Y-97612385D01*
X150038763Y-97629444D01*
X149906734Y-97700016D01*
X149791009Y-97794989D01*
X149767211Y-97823988D01*
X149083998Y-98507201D01*
X149055000Y-98530999D01*
X149031202Y-98559997D01*
X149031201Y-98559998D01*
X148960026Y-98646724D01*
X148889454Y-98778754D01*
X148870437Y-98841448D01*
X148853597Y-98896965D01*
X148845998Y-98922015D01*
X148831324Y-99071000D01*
X148835001Y-99108332D01*
X148835001Y-101771928D01*
X148495000Y-101771928D01*
X148370518Y-101784188D01*
X148250820Y-101820498D01*
X148140506Y-101879463D01*
X148043815Y-101958815D01*
X147964463Y-102055506D01*
X147905498Y-102165820D01*
X147869188Y-102285518D01*
X147856928Y-102410000D01*
X147856928Y-108306000D01*
X147373072Y-108306000D01*
X147373072Y-102410000D01*
X147360812Y-102285518D01*
X147324502Y-102165820D01*
X147265537Y-102055506D01*
X147186185Y-101958815D01*
X147089494Y-101879463D01*
X146979180Y-101820498D01*
X146859482Y-101784188D01*
X146735000Y-101771928D01*
X146395000Y-101771928D01*
X146395000Y-100334795D01*
X146724806Y-100004990D01*
X146786943Y-100004990D01*
X146986902Y-99965216D01*
X147175260Y-99887195D01*
X147344778Y-99773927D01*
X147488941Y-99629764D01*
X147602209Y-99460246D01*
X147680230Y-99271888D01*
X147720004Y-99071929D01*
X147720004Y-98868051D01*
X147680230Y-98668092D01*
X147602209Y-98479734D01*
X147488941Y-98310216D01*
X147344778Y-98166053D01*
X147175260Y-98052785D01*
X146986902Y-97974764D01*
X146786943Y-97934990D01*
X146583065Y-97934990D01*
X146383106Y-97974764D01*
X146194748Y-98052785D01*
X146025230Y-98166053D01*
X145881067Y-98310216D01*
X145767799Y-98479734D01*
X145689778Y-98668092D01*
X145650004Y-98868051D01*
X145650004Y-98930188D01*
X145123998Y-99456195D01*
X145095000Y-99479993D01*
X145071202Y-99508991D01*
X145071201Y-99508992D01*
X145000026Y-99595718D01*
X144929454Y-99727748D01*
X144901972Y-99818349D01*
X144885998Y-99871008D01*
X144876719Y-99965216D01*
X144871324Y-100019994D01*
X144875001Y-100057326D01*
X144875001Y-101771928D01*
X144535000Y-101771928D01*
X144410518Y-101784188D01*
X144290820Y-101820498D01*
X144180506Y-101879463D01*
X144083815Y-101958815D01*
X144004463Y-102055506D01*
X143945498Y-102165820D01*
X143909188Y-102285518D01*
X143896928Y-102410000D01*
X143896928Y-108306000D01*
X143413072Y-108306000D01*
X143413072Y-102410000D01*
X143400812Y-102285518D01*
X143364502Y-102165820D01*
X143305537Y-102055506D01*
X143226185Y-101958815D01*
X143129494Y-101879463D01*
X143019180Y-101820498D01*
X142899482Y-101784188D01*
X142775000Y-101771928D01*
X142435000Y-101771928D01*
X142435000Y-100711489D01*
X142541898Y-100690226D01*
X142730256Y-100612205D01*
X142899774Y-100498937D01*
X143043937Y-100354774D01*
X143157205Y-100185256D01*
X143235226Y-99996898D01*
X143275000Y-99796939D01*
X143275000Y-99593061D01*
X143235226Y-99393102D01*
X143157205Y-99204744D01*
X143043937Y-99035226D01*
X142899774Y-98891063D01*
X142730256Y-98777795D01*
X142541898Y-98699774D01*
X142341939Y-98660000D01*
X142138061Y-98660000D01*
X141938102Y-98699774D01*
X141749744Y-98777795D01*
X141580226Y-98891063D01*
X141436063Y-99035226D01*
X141322795Y-99204744D01*
X141244774Y-99393102D01*
X141205000Y-99593061D01*
X141205000Y-99655199D01*
X141163998Y-99696201D01*
X141135000Y-99719999D01*
X141111202Y-99748997D01*
X141111201Y-99748998D01*
X141040026Y-99835724D01*
X140969454Y-99967754D01*
X140925998Y-100111015D01*
X140911324Y-100260000D01*
X140915001Y-100297332D01*
X140915001Y-101771928D01*
X140575000Y-101771928D01*
X140450518Y-101784188D01*
X140330820Y-101820498D01*
X140220506Y-101879463D01*
X140123815Y-101958815D01*
X140044463Y-102055506D01*
X139985498Y-102165820D01*
X139949188Y-102285518D01*
X139936928Y-102410000D01*
X139936928Y-108306000D01*
X139453072Y-108306000D01*
X139453072Y-102410000D01*
X139440812Y-102285518D01*
X139404502Y-102165820D01*
X139345537Y-102055506D01*
X139266185Y-101958815D01*
X139169494Y-101879463D01*
X139059180Y-101820498D01*
X138939482Y-101784188D01*
X138815000Y-101771928D01*
X138555000Y-101771928D01*
X138555000Y-101668711D01*
X138598937Y-101624774D01*
X138712205Y-101455256D01*
X138790226Y-101266898D01*
X138830000Y-101066939D01*
X138830000Y-100863061D01*
X138790226Y-100663102D01*
X138712205Y-100474744D01*
X138598937Y-100305226D01*
X138454774Y-100161063D01*
X138285256Y-100047795D01*
X138096898Y-99969774D01*
X137896939Y-99930000D01*
X137693061Y-99930000D01*
X137493102Y-99969774D01*
X137304744Y-100047795D01*
X137135226Y-100161063D01*
X136991063Y-100305226D01*
X136877795Y-100474744D01*
X136799774Y-100663102D01*
X136760000Y-100863061D01*
X136760000Y-101066939D01*
X136799774Y-101266898D01*
X136877795Y-101455256D01*
X136991063Y-101624774D01*
X137035000Y-101668711D01*
X137035000Y-101771928D01*
X136615000Y-101771928D01*
X136490518Y-101784188D01*
X136370820Y-101820498D01*
X136260506Y-101879463D01*
X136163815Y-101958815D01*
X136084463Y-102055506D01*
X136025498Y-102165820D01*
X135989188Y-102285518D01*
X135976928Y-102410000D01*
X135976928Y-108306000D01*
X135493072Y-108306000D01*
X135493072Y-102410000D01*
X135480812Y-102285518D01*
X135444502Y-102165820D01*
X135385537Y-102055506D01*
X135306185Y-101958815D01*
X135209494Y-101879463D01*
X135099180Y-101820498D01*
X134979482Y-101784188D01*
X134855000Y-101771928D01*
X132655000Y-101771928D01*
X132530518Y-101784188D01*
X132410820Y-101820498D01*
X132300506Y-101879463D01*
X132203815Y-101958815D01*
X132124463Y-102055506D01*
X132065498Y-102165820D01*
X132029188Y-102285518D01*
X132016928Y-102410000D01*
X132016928Y-108306000D01*
X131532954Y-108306000D01*
X131530000Y-105695750D01*
X131371250Y-105537000D01*
X129922000Y-105537000D01*
X129922000Y-105557000D01*
X129668000Y-105557000D01*
X129668000Y-105537000D01*
X128218750Y-105537000D01*
X128060000Y-105695750D01*
X128057046Y-108306000D01*
X123047360Y-108306000D01*
X123047360Y-107121560D01*
X123701261Y-107121560D01*
X123733680Y-107124753D01*
X123766099Y-107121560D01*
X123863063Y-107112010D01*
X123987473Y-107074270D01*
X124102130Y-107012985D01*
X124202628Y-106930508D01*
X124285105Y-106830010D01*
X124346390Y-106715353D01*
X124384130Y-106590943D01*
X124396873Y-106461560D01*
X124393680Y-106429141D01*
X124393680Y-103493979D01*
X124396873Y-103461560D01*
X124384130Y-103332177D01*
X124346390Y-103207767D01*
X124285105Y-103093110D01*
X124202628Y-102992612D01*
X124102130Y-102910135D01*
X123987473Y-102848850D01*
X123863063Y-102811110D01*
X123766099Y-102801560D01*
X123733680Y-102798367D01*
X123701261Y-102801560D01*
X118066099Y-102801560D01*
X118033680Y-102798367D01*
X118001261Y-102801560D01*
X117904297Y-102811110D01*
X117779887Y-102848850D01*
X117665230Y-102910135D01*
X117564732Y-102992612D01*
X117482255Y-103093110D01*
X117420970Y-103207767D01*
X117383230Y-103332177D01*
X117370487Y-103461560D01*
X117373680Y-103493980D01*
X117373681Y-106429131D01*
X117370487Y-106461560D01*
X117383230Y-106590943D01*
X117420970Y-106715353D01*
X117482255Y-106830010D01*
X117564732Y-106930508D01*
X117665230Y-107012985D01*
X117779887Y-107074270D01*
X117904297Y-107112010D01*
X118001261Y-107121560D01*
X118033680Y-107124753D01*
X118066099Y-107121560D01*
X118720000Y-107121560D01*
X118720001Y-108306000D01*
X117599716Y-108306000D01*
X117319111Y-107264492D01*
X117063512Y-105733596D01*
X116958523Y-104185072D01*
X117005143Y-102633689D01*
X117033882Y-102410000D01*
X128056928Y-102410000D01*
X128060000Y-105124250D01*
X128218750Y-105283000D01*
X129668000Y-105283000D01*
X129668000Y-101933750D01*
X129922000Y-101933750D01*
X129922000Y-105283000D01*
X131371250Y-105283000D01*
X131530000Y-105124250D01*
X131533072Y-102410000D01*
X131520812Y-102285518D01*
X131484502Y-102165820D01*
X131425537Y-102055506D01*
X131346185Y-101958815D01*
X131249494Y-101879463D01*
X131139180Y-101820498D01*
X131019482Y-101784188D01*
X130895000Y-101771928D01*
X130080750Y-101775000D01*
X129922000Y-101933750D01*
X129668000Y-101933750D01*
X129509250Y-101775000D01*
X128695000Y-101771928D01*
X128570518Y-101784188D01*
X128450820Y-101820498D01*
X128340506Y-101879463D01*
X128243815Y-101958815D01*
X128164463Y-102055506D01*
X128105498Y-102165820D01*
X128069188Y-102285518D01*
X128056928Y-102410000D01*
X117033882Y-102410000D01*
X117202931Y-101094262D01*
X117552218Y-99571793D01*
X117725831Y-98996762D01*
X117726155Y-98995461D01*
X117727794Y-98990135D01*
X117997123Y-98063098D01*
X118519000Y-98063098D01*
X118519000Y-98532902D01*
X118610654Y-98993679D01*
X118790440Y-99427721D01*
X119051450Y-99818349D01*
X119383651Y-100150550D01*
X119774279Y-100411560D01*
X120208321Y-100591346D01*
X120669098Y-100683000D01*
X121138902Y-100683000D01*
X121599679Y-100591346D01*
X122033721Y-100411560D01*
X122424349Y-100150550D01*
X122756550Y-99818349D01*
X123017560Y-99427721D01*
X123197346Y-98993679D01*
X123289000Y-98532902D01*
X123289000Y-98063098D01*
X123197346Y-97602321D01*
X123017560Y-97168279D01*
X122756550Y-96777651D01*
X122424349Y-96445450D01*
X122033721Y-96184440D01*
X121599679Y-96004654D01*
X121138902Y-95913000D01*
X120669098Y-95913000D01*
X120208321Y-96004654D01*
X119774279Y-96184440D01*
X119383651Y-96445450D01*
X119051450Y-96777651D01*
X118790440Y-97168279D01*
X118610654Y-97602321D01*
X118519000Y-98063098D01*
X117997123Y-98063098D01*
X118072767Y-97802731D01*
X118076641Y-97786595D01*
X118081212Y-97770676D01*
X118085673Y-97750428D01*
X118422748Y-96096898D01*
X118425929Y-96076399D01*
X118429749Y-96056031D01*
X118432284Y-96035453D01*
X118612252Y-94357540D01*
X118613490Y-94336832D01*
X118615376Y-94316196D01*
X118615964Y-94295470D01*
X118637228Y-92608067D01*
X118636512Y-92587333D01*
X118636447Y-92566613D01*
X118635081Y-92545924D01*
X118497452Y-90864009D01*
X118494789Y-90843443D01*
X118492774Y-90822812D01*
X118489471Y-90802370D01*
X118489468Y-90802344D01*
X118489464Y-90802327D01*
X118266354Y-89547000D01*
X129806928Y-89547000D01*
X129810000Y-90011250D01*
X129968750Y-90170000D01*
X131318000Y-90170000D01*
X131318000Y-89070750D01*
X131572000Y-89070750D01*
X131572000Y-90170000D01*
X132921250Y-90170000D01*
X133080000Y-90011250D01*
X133083072Y-89547000D01*
X133070812Y-89422518D01*
X133034502Y-89302820D01*
X132975537Y-89192506D01*
X132896185Y-89095815D01*
X132799494Y-89016463D01*
X132689180Y-88957498D01*
X132569482Y-88921188D01*
X132445000Y-88908928D01*
X131730750Y-88912000D01*
X131572000Y-89070750D01*
X131318000Y-89070750D01*
X131159250Y-88912000D01*
X130445000Y-88908928D01*
X130320518Y-88921188D01*
X130200820Y-88957498D01*
X130090506Y-89016463D01*
X129993815Y-89095815D01*
X129914463Y-89192506D01*
X129855498Y-89302820D01*
X129819188Y-89422518D01*
X129806928Y-89547000D01*
X118266354Y-89547000D01*
X118194167Y-89140844D01*
X118189582Y-89120628D01*
X118185633Y-89100270D01*
X118180415Y-89080203D01*
X117754000Y-87540308D01*
X117754000Y-83852279D01*
X117780197Y-83585098D01*
X118519000Y-83585098D01*
X118519000Y-84054902D01*
X118610654Y-84515679D01*
X118790440Y-84949721D01*
X119051450Y-85340349D01*
X119383651Y-85672550D01*
X119774279Y-85933560D01*
X120208321Y-86113346D01*
X120669098Y-86205000D01*
X121138902Y-86205000D01*
X121599679Y-86113346D01*
X122033721Y-85933560D01*
X122424349Y-85672550D01*
X122756550Y-85340349D01*
X123017560Y-84949721D01*
X123197346Y-84515679D01*
X123289000Y-84054902D01*
X123289000Y-83585098D01*
X179987000Y-83585098D01*
X179987000Y-84054902D01*
X180078654Y-84515679D01*
X180258440Y-84949721D01*
X180519450Y-85340349D01*
X180851651Y-85672550D01*
X181242279Y-85933560D01*
X181676321Y-86113346D01*
X182137098Y-86205000D01*
X182606902Y-86205000D01*
X183067679Y-86113346D01*
X183501721Y-85933560D01*
X183892349Y-85672550D01*
X184224550Y-85340349D01*
X184485560Y-84949721D01*
X184665346Y-84515679D01*
X184757000Y-84054902D01*
X184757000Y-83585098D01*
X184665346Y-83124321D01*
X184485560Y-82690279D01*
X184224550Y-82299651D01*
X183892349Y-81967450D01*
X183501721Y-81706440D01*
X183067679Y-81526654D01*
X182606902Y-81435000D01*
X182137098Y-81435000D01*
X181676321Y-81526654D01*
X181242279Y-81706440D01*
X180851651Y-81967450D01*
X180519450Y-82299651D01*
X180258440Y-82690279D01*
X180078654Y-83124321D01*
X179987000Y-83585098D01*
X123289000Y-83585098D01*
X123197346Y-83124321D01*
X123017560Y-82690279D01*
X122756550Y-82299651D01*
X122424349Y-81967450D01*
X122033721Y-81706440D01*
X121599679Y-81526654D01*
X121138902Y-81435000D01*
X120669098Y-81435000D01*
X120208321Y-81526654D01*
X119774279Y-81706440D01*
X119383651Y-81967450D01*
X119051450Y-82299651D01*
X118790440Y-82690279D01*
X118610654Y-83124321D01*
X118519000Y-83585098D01*
X117780197Y-83585098D01*
X117817096Y-83208778D01*
X117994606Y-82620836D01*
X118282937Y-82078564D01*
X118671094Y-81602636D01*
X119144314Y-81211155D01*
X119684552Y-80919049D01*
X120271244Y-80737437D01*
X120912879Y-80670000D01*
X182339721Y-80670000D01*
X182983222Y-80733096D01*
G37*
%TD.AperFunction*%
%TD*%
M02*
