%TF.GenerationSoftware,KiCad,Pcbnew,(5.1.8)-1*%
%TF.CreationDate,2021-04-29T21:30:50+02:00*%
%TF.ProjectId,C64 SpeedDOS Adapter,43363420-5370-4656-9564-444f53204164,rev?*%
%TF.SameCoordinates,Original*%
%TF.FileFunction,Legend,Top*%
%TF.FilePolarity,Positive*%
%FSLAX46Y46*%
G04 Gerber Fmt 4.6, Leading zero omitted, Abs format (unit mm)*
G04 Created by KiCad (PCBNEW (5.1.8)-1) date 2021-04-29 21:30:50*
%MOMM*%
%LPD*%
G01*
G04 APERTURE LIST*
%ADD10C,0.150000*%
%ADD11C,0.120000*%
G04 APERTURE END LIST*
D10*
X133114190Y-100528380D02*
X133114190Y-99528380D01*
X133352285Y-99528380D01*
X133495142Y-99576000D01*
X133590380Y-99671238D01*
X133638000Y-99766476D01*
X133685619Y-99956952D01*
X133685619Y-100099809D01*
X133638000Y-100290285D01*
X133590380Y-100385523D01*
X133495142Y-100480761D01*
X133352285Y-100528380D01*
X133114190Y-100528380D01*
X134257047Y-100528380D02*
X134161809Y-100480761D01*
X134114190Y-100433142D01*
X134066571Y-100337904D01*
X134066571Y-100052190D01*
X134114190Y-99956952D01*
X134161809Y-99909333D01*
X134257047Y-99861714D01*
X134399904Y-99861714D01*
X134495142Y-99909333D01*
X134542761Y-99956952D01*
X134590380Y-100052190D01*
X134590380Y-100337904D01*
X134542761Y-100433142D01*
X134495142Y-100480761D01*
X134399904Y-100528380D01*
X134257047Y-100528380D01*
X135780857Y-99861714D02*
X135780857Y-100528380D01*
X135780857Y-99956952D02*
X135828476Y-99909333D01*
X135923714Y-99861714D01*
X136066571Y-99861714D01*
X136161809Y-99909333D01*
X136209428Y-100004571D01*
X136209428Y-100528380D01*
X136828476Y-100528380D02*
X136733238Y-100480761D01*
X136685619Y-100433142D01*
X136638000Y-100337904D01*
X136638000Y-100052190D01*
X136685619Y-99956952D01*
X136733238Y-99909333D01*
X136828476Y-99861714D01*
X136971333Y-99861714D01*
X137066571Y-99909333D01*
X137114190Y-99956952D01*
X137161809Y-100052190D01*
X137161809Y-100337904D01*
X137114190Y-100433142D01*
X137066571Y-100480761D01*
X136971333Y-100528380D01*
X136828476Y-100528380D01*
X137447523Y-99861714D02*
X137828476Y-99861714D01*
X137590380Y-99528380D02*
X137590380Y-100385523D01*
X137638000Y-100480761D01*
X137733238Y-100528380D01*
X137828476Y-100528380D01*
X138923714Y-99861714D02*
X138923714Y-100861714D01*
X138923714Y-99909333D02*
X139018952Y-99861714D01*
X139209428Y-99861714D01*
X139304666Y-99909333D01*
X139352285Y-99956952D01*
X139399904Y-100052190D01*
X139399904Y-100337904D01*
X139352285Y-100433142D01*
X139304666Y-100480761D01*
X139209428Y-100528380D01*
X139018952Y-100528380D01*
X138923714Y-100480761D01*
X139971333Y-100528380D02*
X139876095Y-100480761D01*
X139828476Y-100385523D01*
X139828476Y-99528380D01*
X140780857Y-99861714D02*
X140780857Y-100528380D01*
X140352285Y-99861714D02*
X140352285Y-100385523D01*
X140399904Y-100480761D01*
X140495142Y-100528380D01*
X140638000Y-100528380D01*
X140733238Y-100480761D01*
X140780857Y-100433142D01*
X141685619Y-99861714D02*
X141685619Y-100671238D01*
X141638000Y-100766476D01*
X141590380Y-100814095D01*
X141495142Y-100861714D01*
X141352285Y-100861714D01*
X141257047Y-100814095D01*
X141685619Y-100480761D02*
X141590380Y-100528380D01*
X141399904Y-100528380D01*
X141304666Y-100480761D01*
X141257047Y-100433142D01*
X141209428Y-100337904D01*
X141209428Y-100052190D01*
X141257047Y-99956952D01*
X141304666Y-99909333D01*
X141399904Y-99861714D01*
X141590380Y-99861714D01*
X141685619Y-99909333D01*
X143066571Y-100528380D02*
X142971333Y-100480761D01*
X142923714Y-100433142D01*
X142876095Y-100337904D01*
X142876095Y-100052190D01*
X142923714Y-99956952D01*
X142971333Y-99909333D01*
X143066571Y-99861714D01*
X143209428Y-99861714D01*
X143304666Y-99909333D01*
X143352285Y-99956952D01*
X143399904Y-100052190D01*
X143399904Y-100337904D01*
X143352285Y-100433142D01*
X143304666Y-100480761D01*
X143209428Y-100528380D01*
X143066571Y-100528380D01*
X143828476Y-100528380D02*
X143828476Y-99861714D01*
X143828476Y-100052190D02*
X143876095Y-99956952D01*
X143923714Y-99909333D01*
X144018952Y-99861714D01*
X144114190Y-99861714D01*
X145638000Y-99861714D02*
X145638000Y-100528380D01*
X145209428Y-99861714D02*
X145209428Y-100385523D01*
X145257047Y-100480761D01*
X145352285Y-100528380D01*
X145495142Y-100528380D01*
X145590380Y-100480761D01*
X145638000Y-100433142D01*
X146114190Y-99861714D02*
X146114190Y-100528380D01*
X146114190Y-99956952D02*
X146161809Y-99909333D01*
X146257047Y-99861714D01*
X146399904Y-99861714D01*
X146495142Y-99909333D01*
X146542761Y-100004571D01*
X146542761Y-100528380D01*
X147018952Y-99861714D02*
X147018952Y-100861714D01*
X147018952Y-99909333D02*
X147114190Y-99861714D01*
X147304666Y-99861714D01*
X147399904Y-99909333D01*
X147447523Y-99956952D01*
X147495142Y-100052190D01*
X147495142Y-100337904D01*
X147447523Y-100433142D01*
X147399904Y-100480761D01*
X147304666Y-100528380D01*
X147114190Y-100528380D01*
X147018952Y-100480761D01*
X148066571Y-100528380D02*
X147971333Y-100480761D01*
X147923714Y-100385523D01*
X147923714Y-99528380D01*
X148876095Y-99861714D02*
X148876095Y-100528380D01*
X148447523Y-99861714D02*
X148447523Y-100385523D01*
X148495142Y-100480761D01*
X148590380Y-100528380D01*
X148733238Y-100528380D01*
X148828476Y-100480761D01*
X148876095Y-100433142D01*
X149780857Y-99861714D02*
X149780857Y-100671238D01*
X149733238Y-100766476D01*
X149685619Y-100814095D01*
X149590380Y-100861714D01*
X149447523Y-100861714D01*
X149352285Y-100814095D01*
X149780857Y-100480761D02*
X149685619Y-100528380D01*
X149495142Y-100528380D01*
X149399904Y-100480761D01*
X149352285Y-100433142D01*
X149304666Y-100337904D01*
X149304666Y-100052190D01*
X149352285Y-99956952D01*
X149399904Y-99909333D01*
X149495142Y-99861714D01*
X149685619Y-99861714D01*
X149780857Y-99909333D01*
X151399904Y-100480761D02*
X151304666Y-100528380D01*
X151114190Y-100528380D01*
X151018952Y-100480761D01*
X150971333Y-100385523D01*
X150971333Y-100004571D01*
X151018952Y-99909333D01*
X151114190Y-99861714D01*
X151304666Y-99861714D01*
X151399904Y-99909333D01*
X151447523Y-100004571D01*
X151447523Y-100099809D01*
X150971333Y-100195047D01*
X152304666Y-99861714D02*
X152304666Y-100861714D01*
X152304666Y-100480761D02*
X152209428Y-100528380D01*
X152018952Y-100528380D01*
X151923714Y-100480761D01*
X151876095Y-100433142D01*
X151828476Y-100337904D01*
X151828476Y-100052190D01*
X151876095Y-99956952D01*
X151923714Y-99909333D01*
X152018952Y-99861714D01*
X152209428Y-99861714D01*
X152304666Y-99909333D01*
X153209428Y-99861714D02*
X153209428Y-100528380D01*
X152780857Y-99861714D02*
X152780857Y-100385523D01*
X152828476Y-100480761D01*
X152923714Y-100528380D01*
X153066571Y-100528380D01*
X153161809Y-100480761D01*
X153209428Y-100433142D01*
X153685619Y-100528380D02*
X153685619Y-99861714D01*
X153685619Y-99528380D02*
X153638000Y-99576000D01*
X153685619Y-99623619D01*
X153733238Y-99576000D01*
X153685619Y-99528380D01*
X153685619Y-99623619D01*
X154161809Y-99861714D02*
X154161809Y-100861714D01*
X154161809Y-99909333D02*
X154257047Y-99861714D01*
X154447523Y-99861714D01*
X154542761Y-99909333D01*
X154590380Y-99956952D01*
X154638000Y-100052190D01*
X154638000Y-100337904D01*
X154590380Y-100433142D01*
X154542761Y-100480761D01*
X154447523Y-100528380D01*
X154257047Y-100528380D01*
X154161809Y-100480761D01*
X155066571Y-100528380D02*
X155066571Y-99861714D01*
X155066571Y-99956952D02*
X155114190Y-99909333D01*
X155209428Y-99861714D01*
X155352285Y-99861714D01*
X155447523Y-99909333D01*
X155495142Y-100004571D01*
X155495142Y-100528380D01*
X155495142Y-100004571D02*
X155542761Y-99909333D01*
X155638000Y-99861714D01*
X155780857Y-99861714D01*
X155876095Y-99909333D01*
X155923714Y-100004571D01*
X155923714Y-100528380D01*
X156780857Y-100480761D02*
X156685619Y-100528380D01*
X156495142Y-100528380D01*
X156399904Y-100480761D01*
X156352285Y-100385523D01*
X156352285Y-100004571D01*
X156399904Y-99909333D01*
X156495142Y-99861714D01*
X156685619Y-99861714D01*
X156780857Y-99909333D01*
X156828476Y-100004571D01*
X156828476Y-100099809D01*
X156352285Y-100195047D01*
X157257047Y-99861714D02*
X157257047Y-100528380D01*
X157257047Y-99956952D02*
X157304666Y-99909333D01*
X157399904Y-99861714D01*
X157542761Y-99861714D01*
X157638000Y-99909333D01*
X157685619Y-100004571D01*
X157685619Y-100528380D01*
X158018952Y-99861714D02*
X158399904Y-99861714D01*
X158161809Y-99528380D02*
X158161809Y-100385523D01*
X158209428Y-100480761D01*
X158304666Y-100528380D01*
X158399904Y-100528380D01*
X159399904Y-99861714D02*
X159590380Y-100528380D01*
X159780857Y-100052190D01*
X159971333Y-100528380D01*
X160161809Y-99861714D01*
X160542761Y-100528380D02*
X160542761Y-99528380D01*
X160971333Y-100528380D02*
X160971333Y-100004571D01*
X160923714Y-99909333D01*
X160828476Y-99861714D01*
X160685619Y-99861714D01*
X160590380Y-99909333D01*
X160542761Y-99956952D01*
X161447523Y-100528380D02*
X161447523Y-99861714D01*
X161447523Y-99528380D02*
X161399904Y-99576000D01*
X161447523Y-99623619D01*
X161495142Y-99576000D01*
X161447523Y-99528380D01*
X161447523Y-99623619D01*
X162066571Y-100528380D02*
X161971333Y-100480761D01*
X161923714Y-100385523D01*
X161923714Y-99528380D01*
X162828476Y-100480761D02*
X162733238Y-100528380D01*
X162542761Y-100528380D01*
X162447523Y-100480761D01*
X162399904Y-100385523D01*
X162399904Y-100004571D01*
X162447523Y-99909333D01*
X162542761Y-99861714D01*
X162733238Y-99861714D01*
X162828476Y-99909333D01*
X162876095Y-100004571D01*
X162876095Y-100099809D01*
X162399904Y-100195047D01*
X164066571Y-99861714D02*
X164066571Y-100861714D01*
X164066571Y-99909333D02*
X164161809Y-99861714D01*
X164352285Y-99861714D01*
X164447523Y-99909333D01*
X164495142Y-99956952D01*
X164542761Y-100052190D01*
X164542761Y-100337904D01*
X164495142Y-100433142D01*
X164447523Y-100480761D01*
X164352285Y-100528380D01*
X164161809Y-100528380D01*
X164066571Y-100480761D01*
X165114190Y-100528380D02*
X165018952Y-100480761D01*
X164971333Y-100433142D01*
X164923714Y-100337904D01*
X164923714Y-100052190D01*
X164971333Y-99956952D01*
X165018952Y-99909333D01*
X165114190Y-99861714D01*
X165257047Y-99861714D01*
X165352285Y-99909333D01*
X165399904Y-99956952D01*
X165447523Y-100052190D01*
X165447523Y-100337904D01*
X165399904Y-100433142D01*
X165352285Y-100480761D01*
X165257047Y-100528380D01*
X165114190Y-100528380D01*
X165780857Y-99861714D02*
X165971333Y-100528380D01*
X166161809Y-100052190D01*
X166352285Y-100528380D01*
X166542761Y-99861714D01*
X167304666Y-100480761D02*
X167209428Y-100528380D01*
X167018952Y-100528380D01*
X166923714Y-100480761D01*
X166876095Y-100385523D01*
X166876095Y-100004571D01*
X166923714Y-99909333D01*
X167018952Y-99861714D01*
X167209428Y-99861714D01*
X167304666Y-99909333D01*
X167352285Y-100004571D01*
X167352285Y-100099809D01*
X166876095Y-100195047D01*
X167780857Y-100528380D02*
X167780857Y-99861714D01*
X167780857Y-100052190D02*
X167828476Y-99956952D01*
X167876095Y-99909333D01*
X167971333Y-99861714D01*
X168066571Y-99861714D01*
X168780857Y-100480761D02*
X168685619Y-100528380D01*
X168495142Y-100528380D01*
X168399904Y-100480761D01*
X168352285Y-100385523D01*
X168352285Y-100004571D01*
X168399904Y-99909333D01*
X168495142Y-99861714D01*
X168685619Y-99861714D01*
X168780857Y-99909333D01*
X168828476Y-100004571D01*
X168828476Y-100099809D01*
X168352285Y-100195047D01*
X169685619Y-100528380D02*
X169685619Y-99528380D01*
X169685619Y-100480761D02*
X169590380Y-100528380D01*
X169399904Y-100528380D01*
X169304666Y-100480761D01*
X169257047Y-100433142D01*
X169209428Y-100337904D01*
X169209428Y-100052190D01*
X169257047Y-99956952D01*
X169304666Y-99909333D01*
X169399904Y-99861714D01*
X169590380Y-99861714D01*
X169685619Y-99909333D01*
X170161809Y-100433142D02*
X170209428Y-100480761D01*
X170161809Y-100528380D01*
X170114190Y-100480761D01*
X170161809Y-100433142D01*
X170161809Y-100528380D01*
X170161809Y-100147428D02*
X170114190Y-99576000D01*
X170161809Y-99528380D01*
X170209428Y-99576000D01*
X170161809Y-100147428D01*
X170161809Y-99528380D01*
X143685619Y-83098142D02*
X143638000Y-83145761D01*
X143495142Y-83193380D01*
X143399904Y-83193380D01*
X143257047Y-83145761D01*
X143161809Y-83050523D01*
X143114190Y-82955285D01*
X143066571Y-82764809D01*
X143066571Y-82621952D01*
X143114190Y-82431476D01*
X143161809Y-82336238D01*
X143257047Y-82241000D01*
X143399904Y-82193380D01*
X143495142Y-82193380D01*
X143638000Y-82241000D01*
X143685619Y-82288619D01*
X144542761Y-82193380D02*
X144352285Y-82193380D01*
X144257047Y-82241000D01*
X144209428Y-82288619D01*
X144114190Y-82431476D01*
X144066571Y-82621952D01*
X144066571Y-83002904D01*
X144114190Y-83098142D01*
X144161809Y-83145761D01*
X144257047Y-83193380D01*
X144447523Y-83193380D01*
X144542761Y-83145761D01*
X144590380Y-83098142D01*
X144638000Y-83002904D01*
X144638000Y-82764809D01*
X144590380Y-82669571D01*
X144542761Y-82621952D01*
X144447523Y-82574333D01*
X144257047Y-82574333D01*
X144161809Y-82621952D01*
X144114190Y-82669571D01*
X144066571Y-82764809D01*
X145495142Y-82526714D02*
X145495142Y-83193380D01*
X145257047Y-82145761D02*
X145018952Y-82860047D01*
X145638000Y-82860047D01*
X146733238Y-83145761D02*
X146876095Y-83193380D01*
X147114190Y-83193380D01*
X147209428Y-83145761D01*
X147257047Y-83098142D01*
X147304666Y-83002904D01*
X147304666Y-82907666D01*
X147257047Y-82812428D01*
X147209428Y-82764809D01*
X147114190Y-82717190D01*
X146923714Y-82669571D01*
X146828476Y-82621952D01*
X146780857Y-82574333D01*
X146733238Y-82479095D01*
X146733238Y-82383857D01*
X146780857Y-82288619D01*
X146828476Y-82241000D01*
X146923714Y-82193380D01*
X147161809Y-82193380D01*
X147304666Y-82241000D01*
X147733238Y-82526714D02*
X147733238Y-83526714D01*
X147733238Y-82574333D02*
X147828476Y-82526714D01*
X148018952Y-82526714D01*
X148114190Y-82574333D01*
X148161809Y-82621952D01*
X148209428Y-82717190D01*
X148209428Y-83002904D01*
X148161809Y-83098142D01*
X148114190Y-83145761D01*
X148018952Y-83193380D01*
X147828476Y-83193380D01*
X147733238Y-83145761D01*
X149018952Y-83145761D02*
X148923714Y-83193380D01*
X148733238Y-83193380D01*
X148638000Y-83145761D01*
X148590380Y-83050523D01*
X148590380Y-82669571D01*
X148638000Y-82574333D01*
X148733238Y-82526714D01*
X148923714Y-82526714D01*
X149018952Y-82574333D01*
X149066571Y-82669571D01*
X149066571Y-82764809D01*
X148590380Y-82860047D01*
X149876095Y-83145761D02*
X149780857Y-83193380D01*
X149590380Y-83193380D01*
X149495142Y-83145761D01*
X149447523Y-83050523D01*
X149447523Y-82669571D01*
X149495142Y-82574333D01*
X149590380Y-82526714D01*
X149780857Y-82526714D01*
X149876095Y-82574333D01*
X149923714Y-82669571D01*
X149923714Y-82764809D01*
X149447523Y-82860047D01*
X150780857Y-83193380D02*
X150780857Y-82193380D01*
X150780857Y-83145761D02*
X150685619Y-83193380D01*
X150495142Y-83193380D01*
X150399904Y-83145761D01*
X150352285Y-83098142D01*
X150304666Y-83002904D01*
X150304666Y-82717190D01*
X150352285Y-82621952D01*
X150399904Y-82574333D01*
X150495142Y-82526714D01*
X150685619Y-82526714D01*
X150780857Y-82574333D01*
X151257047Y-83193380D02*
X151257047Y-82193380D01*
X151495142Y-82193380D01*
X151638000Y-82241000D01*
X151733238Y-82336238D01*
X151780857Y-82431476D01*
X151828476Y-82621952D01*
X151828476Y-82764809D01*
X151780857Y-82955285D01*
X151733238Y-83050523D01*
X151638000Y-83145761D01*
X151495142Y-83193380D01*
X151257047Y-83193380D01*
X152447523Y-82193380D02*
X152638000Y-82193380D01*
X152733238Y-82241000D01*
X152828476Y-82336238D01*
X152876095Y-82526714D01*
X152876095Y-82860047D01*
X152828476Y-83050523D01*
X152733238Y-83145761D01*
X152638000Y-83193380D01*
X152447523Y-83193380D01*
X152352285Y-83145761D01*
X152257047Y-83050523D01*
X152209428Y-82860047D01*
X152209428Y-82526714D01*
X152257047Y-82336238D01*
X152352285Y-82241000D01*
X152447523Y-82193380D01*
X153257047Y-83145761D02*
X153399904Y-83193380D01*
X153638000Y-83193380D01*
X153733238Y-83145761D01*
X153780857Y-83098142D01*
X153828476Y-83002904D01*
X153828476Y-82907666D01*
X153780857Y-82812428D01*
X153733238Y-82764809D01*
X153638000Y-82717190D01*
X153447523Y-82669571D01*
X153352285Y-82621952D01*
X153304666Y-82574333D01*
X153257047Y-82479095D01*
X153257047Y-82383857D01*
X153304666Y-82288619D01*
X153352285Y-82241000D01*
X153447523Y-82193380D01*
X153685619Y-82193380D01*
X153828476Y-82241000D01*
X154971333Y-82907666D02*
X155447523Y-82907666D01*
X154876095Y-83193380D02*
X155209428Y-82193380D01*
X155542761Y-83193380D01*
X156304666Y-83193380D02*
X156304666Y-82193380D01*
X156304666Y-83145761D02*
X156209428Y-83193380D01*
X156018952Y-83193380D01*
X155923714Y-83145761D01*
X155876095Y-83098142D01*
X155828476Y-83002904D01*
X155828476Y-82717190D01*
X155876095Y-82621952D01*
X155923714Y-82574333D01*
X156018952Y-82526714D01*
X156209428Y-82526714D01*
X156304666Y-82574333D01*
X157209428Y-83193380D02*
X157209428Y-82669571D01*
X157161809Y-82574333D01*
X157066571Y-82526714D01*
X156876095Y-82526714D01*
X156780857Y-82574333D01*
X157209428Y-83145761D02*
X157114190Y-83193380D01*
X156876095Y-83193380D01*
X156780857Y-83145761D01*
X156733238Y-83050523D01*
X156733238Y-82955285D01*
X156780857Y-82860047D01*
X156876095Y-82812428D01*
X157114190Y-82812428D01*
X157209428Y-82764809D01*
X157685619Y-82526714D02*
X157685619Y-83526714D01*
X157685619Y-82574333D02*
X157780857Y-82526714D01*
X157971333Y-82526714D01*
X158066571Y-82574333D01*
X158114190Y-82621952D01*
X158161809Y-82717190D01*
X158161809Y-83002904D01*
X158114190Y-83098142D01*
X158066571Y-83145761D01*
X157971333Y-83193380D01*
X157780857Y-83193380D01*
X157685619Y-83145761D01*
X158447523Y-82526714D02*
X158828476Y-82526714D01*
X158590380Y-82193380D02*
X158590380Y-83050523D01*
X158637999Y-83145761D01*
X158733238Y-83193380D01*
X158828476Y-83193380D01*
X159542761Y-83145761D02*
X159447523Y-83193380D01*
X159257047Y-83193380D01*
X159161809Y-83145761D01*
X159114190Y-83050523D01*
X159114190Y-82669571D01*
X159161809Y-82574333D01*
X159257047Y-82526714D01*
X159447523Y-82526714D01*
X159542761Y-82574333D01*
X159590380Y-82669571D01*
X159590380Y-82764809D01*
X159114190Y-82860047D01*
X160018952Y-83193380D02*
X160018952Y-82526714D01*
X160018952Y-82717190D02*
X160066571Y-82621952D01*
X160114190Y-82574333D01*
X160209428Y-82526714D01*
X160304666Y-82526714D01*
X146233238Y-84176714D02*
X146233238Y-84986238D01*
X146185619Y-85081476D01*
X146138000Y-85129095D01*
X146042761Y-85176714D01*
X145899904Y-85176714D01*
X145804666Y-85129095D01*
X146233238Y-84795761D02*
X146138000Y-84843380D01*
X145947523Y-84843380D01*
X145852285Y-84795761D01*
X145804666Y-84748142D01*
X145757047Y-84652904D01*
X145757047Y-84367190D01*
X145804666Y-84271952D01*
X145852285Y-84224333D01*
X145947523Y-84176714D01*
X146138000Y-84176714D01*
X146233238Y-84224333D01*
X146709428Y-84843380D02*
X146709428Y-84176714D01*
X146709428Y-83843380D02*
X146661809Y-83891000D01*
X146709428Y-83938619D01*
X146757047Y-83891000D01*
X146709428Y-83843380D01*
X146709428Y-83938619D01*
X147042761Y-84176714D02*
X147423714Y-84176714D01*
X147185619Y-83843380D02*
X147185619Y-84700523D01*
X147233238Y-84795761D01*
X147328476Y-84843380D01*
X147423714Y-84843380D01*
X147757047Y-84843380D02*
X147757047Y-83843380D01*
X148185619Y-84843380D02*
X148185619Y-84319571D01*
X148138000Y-84224333D01*
X148042761Y-84176714D01*
X147899904Y-84176714D01*
X147804666Y-84224333D01*
X147757047Y-84271952D01*
X149090380Y-84176714D02*
X149090380Y-84843380D01*
X148661809Y-84176714D02*
X148661809Y-84700523D01*
X148709428Y-84795761D01*
X148804666Y-84843380D01*
X148947523Y-84843380D01*
X149042761Y-84795761D01*
X149090380Y-84748142D01*
X149566571Y-84843380D02*
X149566571Y-83843380D01*
X149566571Y-84224333D02*
X149661809Y-84176714D01*
X149852285Y-84176714D01*
X149947523Y-84224333D01*
X149995142Y-84271952D01*
X150042761Y-84367190D01*
X150042761Y-84652904D01*
X149995142Y-84748142D01*
X149947523Y-84795761D01*
X149852285Y-84843380D01*
X149661809Y-84843380D01*
X149566571Y-84795761D01*
X150471333Y-84748142D02*
X150518952Y-84795761D01*
X150471333Y-84843380D01*
X150423714Y-84795761D01*
X150471333Y-84748142D01*
X150471333Y-84843380D01*
X151376095Y-84795761D02*
X151280857Y-84843380D01*
X151090380Y-84843380D01*
X150995142Y-84795761D01*
X150947523Y-84748142D01*
X150899904Y-84652904D01*
X150899904Y-84367190D01*
X150947523Y-84271952D01*
X150995142Y-84224333D01*
X151090380Y-84176714D01*
X151280857Y-84176714D01*
X151376095Y-84224333D01*
X151947523Y-84843380D02*
X151852285Y-84795761D01*
X151804666Y-84748142D01*
X151757047Y-84652904D01*
X151757047Y-84367190D01*
X151804666Y-84271952D01*
X151852285Y-84224333D01*
X151947523Y-84176714D01*
X152090380Y-84176714D01*
X152185619Y-84224333D01*
X152233238Y-84271952D01*
X152280857Y-84367190D01*
X152280857Y-84652904D01*
X152233238Y-84748142D01*
X152185619Y-84795761D01*
X152090380Y-84843380D01*
X151947523Y-84843380D01*
X152709428Y-84843380D02*
X152709428Y-84176714D01*
X152709428Y-84271952D02*
X152757047Y-84224333D01*
X152852285Y-84176714D01*
X152995142Y-84176714D01*
X153090380Y-84224333D01*
X153138000Y-84319571D01*
X153138000Y-84843380D01*
X153138000Y-84319571D02*
X153185619Y-84224333D01*
X153280857Y-84176714D01*
X153423714Y-84176714D01*
X153518952Y-84224333D01*
X153566571Y-84319571D01*
X153566571Y-84843380D01*
X154757047Y-83795761D02*
X153899904Y-85081476D01*
X154947523Y-84176714D02*
X155328476Y-84176714D01*
X155090380Y-83843380D02*
X155090380Y-84700523D01*
X155138000Y-84795761D01*
X155233238Y-84843380D01*
X155328476Y-84843380D01*
X156042761Y-84795761D02*
X155947523Y-84843380D01*
X155757047Y-84843380D01*
X155661809Y-84795761D01*
X155614190Y-84700523D01*
X155614190Y-84319571D01*
X155661809Y-84224333D01*
X155757047Y-84176714D01*
X155947523Y-84176714D01*
X156042761Y-84224333D01*
X156090380Y-84319571D01*
X156090380Y-84414809D01*
X155614190Y-84510047D01*
X156518952Y-84843380D02*
X156518952Y-83843380D01*
X156518952Y-84224333D02*
X156614190Y-84176714D01*
X156804666Y-84176714D01*
X156899904Y-84224333D01*
X156947523Y-84271952D01*
X156995142Y-84367190D01*
X156995142Y-84652904D01*
X156947523Y-84748142D01*
X156899904Y-84795761D01*
X156804666Y-84843380D01*
X156614190Y-84843380D01*
X156518952Y-84795761D01*
X157566571Y-84843380D02*
X157471333Y-84795761D01*
X157423714Y-84700523D01*
X157423714Y-83843380D01*
D11*
%TO.C,J2*%
X134998000Y-96000000D02*
X134998000Y-86880000D01*
X134998000Y-86880000D02*
X168278000Y-86880000D01*
X168278000Y-86880000D02*
X168278000Y-96000000D01*
X168278000Y-96000000D02*
X134998000Y-96000000D01*
X149588000Y-96000000D02*
X149588000Y-94690000D01*
X149588000Y-94690000D02*
X136298000Y-94690000D01*
X136298000Y-94690000D02*
X136298000Y-88190000D01*
X136298000Y-88190000D02*
X166978000Y-88190000D01*
X166978000Y-88190000D02*
X166978000Y-94690000D01*
X166978000Y-94690000D02*
X153688000Y-94690000D01*
X153688000Y-94690000D02*
X153688000Y-94690000D01*
X153688000Y-94690000D02*
X153688000Y-96000000D01*
X140208000Y-96390000D02*
X139708000Y-97390000D01*
X139708000Y-97390000D02*
X140708000Y-97390000D01*
X140708000Y-97390000D02*
X140208000Y-96390000D01*
X141478000Y-93980000D02*
X141478000Y-88900000D01*
X141478000Y-88900000D02*
X161798000Y-88900000D01*
X161798000Y-88900000D02*
X161798000Y-93980000D01*
X161798000Y-93980000D02*
X152908000Y-93980000D01*
X152908000Y-93980000D02*
X152908000Y-94615000D01*
X152908000Y-94615000D02*
X150368000Y-94615000D01*
X150368000Y-94615000D02*
X150368000Y-93980000D01*
X150368000Y-93980000D02*
X141478000Y-93980000D01*
%TO.C,J1*%
D10*
X151241666Y-109812380D02*
X151241666Y-110526666D01*
X151194047Y-110669523D01*
X151098809Y-110764761D01*
X150955952Y-110812380D01*
X150860714Y-110812380D01*
X152241666Y-110812380D02*
X151670238Y-110812380D01*
X151955952Y-110812380D02*
X151955952Y-109812380D01*
X151860714Y-109955238D01*
X151765476Y-110050476D01*
X151670238Y-110098095D01*
X129604523Y-101902380D02*
X129033095Y-101902380D01*
X129318809Y-101902380D02*
X129318809Y-100902380D01*
X129223571Y-101045238D01*
X129128333Y-101140476D01*
X129033095Y-101188095D01*
X129985476Y-100997619D02*
X130033095Y-100950000D01*
X130128333Y-100902380D01*
X130366428Y-100902380D01*
X130461666Y-100950000D01*
X130509285Y-100997619D01*
X130556904Y-101092857D01*
X130556904Y-101188095D01*
X130509285Y-101330952D01*
X129937857Y-101902380D01*
X130556904Y-101902380D01*
X173640714Y-101902380D02*
X173069285Y-101902380D01*
X173355000Y-101902380D02*
X173355000Y-100902380D01*
X173259761Y-101045238D01*
X173164523Y-101140476D01*
X173069285Y-101188095D01*
%TO.C,J2*%
X165528666Y-93178380D02*
X165528666Y-93892666D01*
X165481047Y-94035523D01*
X165385809Y-94130761D01*
X165242952Y-94178380D01*
X165147714Y-94178380D01*
X165957238Y-93273619D02*
X166004857Y-93226000D01*
X166100095Y-93178380D01*
X166338190Y-93178380D01*
X166433428Y-93226000D01*
X166481047Y-93273619D01*
X166528666Y-93368857D01*
X166528666Y-93464095D01*
X166481047Y-93606952D01*
X165909619Y-94178380D01*
X166528666Y-94178380D01*
%TD*%
M02*
