%TF.GenerationSoftware,KiCad,Pcbnew,(5.1.8)-1*%
%TF.CreationDate,2021-03-10T03:30:20+01:00*%
%TF.ProjectId,C64 1541-II VIA Adapter,43363420-3135-4343-912d-494920564941,rev?*%
%TF.SameCoordinates,Original*%
%TF.FileFunction,Copper,L2,Bot*%
%TF.FilePolarity,Positive*%
%FSLAX46Y46*%
G04 Gerber Fmt 4.6, Leading zero omitted, Abs format (unit mm)*
G04 Created by KiCad (PCBNEW (5.1.8)-1) date 2021-03-10 03:30:20*
%MOMM*%
%LPD*%
G01*
G04 APERTURE LIST*
%TA.AperFunction,ComponentPad*%
%ADD10C,1.700000*%
%TD*%
%TA.AperFunction,ComponentPad*%
%ADD11O,1.600000X1.600000*%
%TD*%
%TA.AperFunction,ComponentPad*%
%ADD12R,1.600000X1.600000*%
%TD*%
%TA.AperFunction,Conductor*%
%ADD13C,0.381000*%
%TD*%
%TA.AperFunction,Conductor*%
%ADD14C,0.250000*%
%TD*%
%TA.AperFunction,Conductor*%
%ADD15C,0.254000*%
%TD*%
%TA.AperFunction,Conductor*%
%ADD16C,0.100000*%
%TD*%
G04 APERTURE END LIST*
D10*
%TO.P,J2,11*%
%TO.N,GND*%
X100330000Y-54610000D03*
X102870000Y-54610000D03*
X105410000Y-54610000D03*
X107950000Y-54610000D03*
X110490000Y-54610000D03*
X113030000Y-54610000D03*
X115570000Y-54610000D03*
X118110000Y-54610000D03*
X120650000Y-54610000D03*
%TO.P,J2,10*%
%TO.N,/CB1*%
X123190000Y-57150000D03*
%TO.P,J2,8*%
%TO.N,/PA6*%
X118110000Y-57150000D03*
%TO.P,J2,6*%
%TO.N,/PA4*%
X113030000Y-57150000D03*
%TO.P,J2,4*%
%TO.N,/PA2*%
X107950000Y-57150000D03*
%TO.P,J2,2*%
%TO.N,/PA0*%
X102870000Y-57150000D03*
%TO.P,J2,11*%
%TO.N,GND*%
X123190000Y-54610000D03*
%TO.P,J2,9*%
%TO.N,/PA7*%
X120650000Y-57150000D03*
%TO.P,J2,7*%
%TO.N,/PA5*%
X115570000Y-57150000D03*
%TO.P,J2,5*%
%TO.N,/PA3*%
X110490000Y-57150000D03*
%TO.P,J2,3*%
%TO.N,/PA1*%
X105410000Y-57150000D03*
%TO.P,J2,1*%
%TO.N,/CA2*%
%TA.AperFunction,ComponentPad*%
G36*
G01*
X100930000Y-58000000D02*
X99730000Y-58000000D01*
G75*
G02*
X99480000Y-57750000I0J250000D01*
G01*
X99480000Y-56550000D01*
G75*
G02*
X99730000Y-56300000I250000J0D01*
G01*
X100930000Y-56300000D01*
G75*
G02*
X101180000Y-56550000I0J-250000D01*
G01*
X101180000Y-57750000D01*
G75*
G02*
X100930000Y-58000000I-250000J0D01*
G01*
G37*
%TD.AperFunction*%
%TD*%
D11*
%TO.P,A1,40*%
%TO.N,/CA1*%
X117475000Y-62230000D03*
%TO.P,A1,20*%
%TO.N,VCC*%
X102235000Y-110490000D03*
%TO.P,A1,39*%
%TO.N,N/C*%
X117475000Y-64770000D03*
%TO.P,A1,19*%
%TO.N,/CB2*%
X102235000Y-107950000D03*
%TO.P,A1,38*%
%TO.N,/RS0*%
X117475000Y-67310000D03*
%TO.P,A1,18*%
%TO.N,N/C*%
X102235000Y-105410000D03*
%TO.P,A1,37*%
%TO.N,/RS1*%
X117475000Y-69850000D03*
%TO.P,A1,17*%
%TO.N,/PB7*%
X102235000Y-102870000D03*
%TO.P,A1,36*%
%TO.N,/RS2*%
X117475000Y-72390000D03*
%TO.P,A1,16*%
%TO.N,/PB6*%
X102235000Y-100330000D03*
%TO.P,A1,35*%
%TO.N,/RS3*%
X117475000Y-74930000D03*
%TO.P,A1,15*%
%TO.N,/PB5*%
X102235000Y-97790000D03*
%TO.P,A1,34*%
%TO.N,/~RESET*%
X117475000Y-77470000D03*
%TO.P,A1,14*%
%TO.N,/PB4*%
X102235000Y-95250000D03*
%TO.P,A1,33*%
%TO.N,/D0*%
X117475000Y-80010000D03*
%TO.P,A1,13*%
%TO.N,/PB3*%
X102235000Y-92710000D03*
%TO.P,A1,32*%
%TO.N,/D1*%
X117475000Y-82550000D03*
%TO.P,A1,12*%
%TO.N,/PB2*%
X102235000Y-90170000D03*
%TO.P,A1,31*%
%TO.N,/D2*%
X117475000Y-85090000D03*
%TO.P,A1,11*%
%TO.N,/PB1*%
X102235000Y-87630000D03*
%TO.P,A1,30*%
%TO.N,/D3*%
X117475000Y-87630000D03*
%TO.P,A1,10*%
%TO.N,/PB0*%
X102235000Y-85090000D03*
%TO.P,A1,29*%
%TO.N,/D4*%
X117475000Y-90170000D03*
%TO.P,A1,9*%
%TO.N,N/C*%
X102235000Y-82550000D03*
%TO.P,A1,28*%
%TO.N,/D5*%
X117475000Y-92710000D03*
%TO.P,A1,8*%
%TO.N,N/C*%
X102235000Y-80010000D03*
%TO.P,A1,27*%
%TO.N,/D6*%
X117475000Y-95250000D03*
%TO.P,A1,7*%
%TO.N,N/C*%
X102235000Y-77470000D03*
%TO.P,A1,26*%
%TO.N,/D7*%
X117475000Y-97790000D03*
%TO.P,A1,6*%
%TO.N,N/C*%
X102235000Y-74930000D03*
%TO.P,A1,25*%
%TO.N,/PHI2*%
X117475000Y-100330000D03*
%TO.P,A1,5*%
%TO.N,N/C*%
X102235000Y-72390000D03*
%TO.P,A1,24*%
%TO.N,/CS1*%
X117475000Y-102870000D03*
%TO.P,A1,4*%
%TO.N,N/C*%
X102235000Y-69850000D03*
%TO.P,A1,23*%
%TO.N,/~CS2*%
X117475000Y-105410000D03*
%TO.P,A1,3*%
%TO.N,N/C*%
X102235000Y-67310000D03*
%TO.P,A1,22*%
%TO.N,/R_~W*%
X117475000Y-107950000D03*
%TO.P,A1,2*%
%TO.N,N/C*%
X102235000Y-64770000D03*
%TO.P,A1,21*%
%TO.N,/~IRQ*%
X117475000Y-110490000D03*
D12*
%TO.P,A1,1*%
%TO.N,GND*%
X102235000Y-62230000D03*
%TD*%
%TO.P,U1,1*%
%TO.N,GND*%
X105410000Y-62230000D03*
D11*
%TO.P,U1,21*%
%TO.N,/~IRQ*%
X120650000Y-110490000D03*
%TO.P,U1,2*%
%TO.N,/PA0*%
X105410000Y-64770000D03*
%TO.P,U1,22*%
%TO.N,/R_~W*%
X120650000Y-107950000D03*
%TO.P,U1,3*%
%TO.N,/PA1*%
X105410000Y-67310000D03*
%TO.P,U1,23*%
%TO.N,/~CS2*%
X120650000Y-105410000D03*
%TO.P,U1,4*%
%TO.N,/PA2*%
X105410000Y-69850000D03*
%TO.P,U1,24*%
%TO.N,/CS1*%
X120650000Y-102870000D03*
%TO.P,U1,5*%
%TO.N,/PA3*%
X105410000Y-72390000D03*
%TO.P,U1,25*%
%TO.N,/PHI2*%
X120650000Y-100330000D03*
%TO.P,U1,6*%
%TO.N,/PA4*%
X105410000Y-74930000D03*
%TO.P,U1,26*%
%TO.N,/D7*%
X120650000Y-97790000D03*
%TO.P,U1,7*%
%TO.N,/PA5*%
X105410000Y-77470000D03*
%TO.P,U1,27*%
%TO.N,/D6*%
X120650000Y-95250000D03*
%TO.P,U1,8*%
%TO.N,/PA6*%
X105410000Y-80010000D03*
%TO.P,U1,28*%
%TO.N,/D5*%
X120650000Y-92710000D03*
%TO.P,U1,9*%
%TO.N,/PA7*%
X105410000Y-82550000D03*
%TO.P,U1,29*%
%TO.N,/D4*%
X120650000Y-90170000D03*
%TO.P,U1,10*%
%TO.N,/PB0*%
X105410000Y-85090000D03*
%TO.P,U1,30*%
%TO.N,/D3*%
X120650000Y-87630000D03*
%TO.P,U1,11*%
%TO.N,/PB1*%
X105410000Y-87630000D03*
%TO.P,U1,31*%
%TO.N,/D2*%
X120650000Y-85090000D03*
%TO.P,U1,12*%
%TO.N,/PB2*%
X105410000Y-90170000D03*
%TO.P,U1,32*%
%TO.N,/D1*%
X120650000Y-82550000D03*
%TO.P,U1,13*%
%TO.N,/PB3*%
X105410000Y-92710000D03*
%TO.P,U1,33*%
%TO.N,/D0*%
X120650000Y-80010000D03*
%TO.P,U1,14*%
%TO.N,/PB4*%
X105410000Y-95250000D03*
%TO.P,U1,34*%
%TO.N,/~RESET*%
X120650000Y-77470000D03*
%TO.P,U1,15*%
%TO.N,/PB5*%
X105410000Y-97790000D03*
%TO.P,U1,35*%
%TO.N,/RS3*%
X120650000Y-74930000D03*
%TO.P,U1,16*%
%TO.N,/PB6*%
X105410000Y-100330000D03*
%TO.P,U1,36*%
%TO.N,/RS2*%
X120650000Y-72390000D03*
%TO.P,U1,17*%
%TO.N,/PB7*%
X105410000Y-102870000D03*
%TO.P,U1,37*%
%TO.N,/RS1*%
X120650000Y-69850000D03*
%TO.P,U1,18*%
%TO.N,/CB1*%
X105410000Y-105410000D03*
%TO.P,U1,38*%
%TO.N,/RS0*%
X120650000Y-67310000D03*
%TO.P,U1,19*%
%TO.N,/CB2*%
X105410000Y-107950000D03*
%TO.P,U1,39*%
%TO.N,/CA2*%
X120650000Y-64770000D03*
%TO.P,U1,20*%
%TO.N,VCC*%
X105410000Y-110490000D03*
%TO.P,U1,40*%
%TO.N,/CA1*%
X120650000Y-62230000D03*
%TD*%
D13*
%TO.N,GND*%
X101600000Y-54610000D02*
X100330000Y-54610000D01*
X101600000Y-54610000D02*
X102870000Y-54610000D01*
X105410000Y-54610000D02*
X102870000Y-54610000D01*
X105410000Y-54610000D02*
X107950000Y-54610000D01*
X107950000Y-54610000D02*
X110490000Y-54610000D01*
X110490000Y-54610000D02*
X113030000Y-54610000D01*
X113030000Y-54610000D02*
X115570000Y-54610000D01*
X115570000Y-54610000D02*
X118110000Y-54610000D01*
X118110000Y-54610000D02*
X120650000Y-54610000D01*
X120650000Y-54610000D02*
X123190000Y-54610000D01*
X102235000Y-60325000D02*
X101600000Y-59690000D01*
X102235000Y-62230000D02*
X102235000Y-60325000D01*
X101600000Y-59690000D02*
X101600000Y-54610000D01*
D14*
%TO.N,/CA1*%
X117475000Y-62230000D02*
X120650000Y-62230000D01*
%TD*%
D15*
%TO.N,GND*%
X122036525Y-58096632D02*
X122243368Y-58303475D01*
X122486589Y-58465990D01*
X122756842Y-58577932D01*
X123043740Y-58635000D01*
X123336260Y-58635000D01*
X123497858Y-58602856D01*
X122035656Y-60552460D01*
X122003575Y-60591551D01*
X121981404Y-60633031D01*
X121957011Y-60673237D01*
X121950823Y-60690245D01*
X121942290Y-60706208D01*
X121928634Y-60751224D01*
X121912557Y-60795409D01*
X121909806Y-60813291D01*
X121904550Y-60830618D01*
X121899940Y-60877429D01*
X121892790Y-60923905D01*
X121895000Y-60974414D01*
X121895000Y-61510343D01*
X121764637Y-61315241D01*
X121564759Y-61115363D01*
X121329727Y-60958320D01*
X121068574Y-60850147D01*
X120791335Y-60795000D01*
X120508665Y-60795000D01*
X120231426Y-60850147D01*
X119970273Y-60958320D01*
X119735241Y-61115363D01*
X119535363Y-61315241D01*
X119431957Y-61470000D01*
X118693043Y-61470000D01*
X118589637Y-61315241D01*
X118389759Y-61115363D01*
X118154727Y-60958320D01*
X117893574Y-60850147D01*
X117616335Y-60795000D01*
X117333665Y-60795000D01*
X117056426Y-60850147D01*
X116795273Y-60958320D01*
X116560241Y-61115363D01*
X116360363Y-61315241D01*
X116203320Y-61550273D01*
X116095147Y-61811426D01*
X116040000Y-62088665D01*
X116040000Y-62371335D01*
X116095147Y-62648574D01*
X116203320Y-62909727D01*
X116360363Y-63144759D01*
X116560241Y-63344637D01*
X116792759Y-63500000D01*
X116560241Y-63655363D01*
X116360363Y-63855241D01*
X116203320Y-64090273D01*
X116095147Y-64351426D01*
X116040000Y-64628665D01*
X116040000Y-64911335D01*
X116095147Y-65188574D01*
X116203320Y-65449727D01*
X116360363Y-65684759D01*
X116560241Y-65884637D01*
X116792759Y-66040000D01*
X116560241Y-66195363D01*
X116360363Y-66395241D01*
X116203320Y-66630273D01*
X116095147Y-66891426D01*
X116040000Y-67168665D01*
X116040000Y-67451335D01*
X116095147Y-67728574D01*
X116203320Y-67989727D01*
X116360363Y-68224759D01*
X116560241Y-68424637D01*
X116792759Y-68580000D01*
X116560241Y-68735363D01*
X116360363Y-68935241D01*
X116203320Y-69170273D01*
X116095147Y-69431426D01*
X116040000Y-69708665D01*
X116040000Y-69991335D01*
X116095147Y-70268574D01*
X116203320Y-70529727D01*
X116360363Y-70764759D01*
X116560241Y-70964637D01*
X116792759Y-71120000D01*
X116560241Y-71275363D01*
X116360363Y-71475241D01*
X116203320Y-71710273D01*
X116095147Y-71971426D01*
X116040000Y-72248665D01*
X116040000Y-72531335D01*
X116095147Y-72808574D01*
X116203320Y-73069727D01*
X116360363Y-73304759D01*
X116560241Y-73504637D01*
X116792759Y-73660000D01*
X116560241Y-73815363D01*
X116360363Y-74015241D01*
X116203320Y-74250273D01*
X116095147Y-74511426D01*
X116040000Y-74788665D01*
X116040000Y-75071335D01*
X116095147Y-75348574D01*
X116203320Y-75609727D01*
X116360363Y-75844759D01*
X116560241Y-76044637D01*
X116792759Y-76200000D01*
X116560241Y-76355363D01*
X116360363Y-76555241D01*
X116203320Y-76790273D01*
X116095147Y-77051426D01*
X116040000Y-77328665D01*
X116040000Y-77611335D01*
X116095147Y-77888574D01*
X116203320Y-78149727D01*
X116360363Y-78384759D01*
X116560241Y-78584637D01*
X116792759Y-78740000D01*
X116560241Y-78895363D01*
X116360363Y-79095241D01*
X116203320Y-79330273D01*
X116095147Y-79591426D01*
X116040000Y-79868665D01*
X116040000Y-80151335D01*
X116095147Y-80428574D01*
X116203320Y-80689727D01*
X116360363Y-80924759D01*
X116560241Y-81124637D01*
X116792759Y-81280000D01*
X116560241Y-81435363D01*
X116360363Y-81635241D01*
X116203320Y-81870273D01*
X116095147Y-82131426D01*
X116040000Y-82408665D01*
X116040000Y-82691335D01*
X116095147Y-82968574D01*
X116203320Y-83229727D01*
X116360363Y-83464759D01*
X116560241Y-83664637D01*
X116792759Y-83820000D01*
X116560241Y-83975363D01*
X116360363Y-84175241D01*
X116203320Y-84410273D01*
X116095147Y-84671426D01*
X116040000Y-84948665D01*
X116040000Y-85231335D01*
X116095147Y-85508574D01*
X116203320Y-85769727D01*
X116360363Y-86004759D01*
X116560241Y-86204637D01*
X116792759Y-86360000D01*
X116560241Y-86515363D01*
X116360363Y-86715241D01*
X116203320Y-86950273D01*
X116095147Y-87211426D01*
X116040000Y-87488665D01*
X116040000Y-87771335D01*
X116095147Y-88048574D01*
X116203320Y-88309727D01*
X116360363Y-88544759D01*
X116560241Y-88744637D01*
X116792759Y-88900000D01*
X116560241Y-89055363D01*
X116360363Y-89255241D01*
X116203320Y-89490273D01*
X116095147Y-89751426D01*
X116040000Y-90028665D01*
X116040000Y-90311335D01*
X116095147Y-90588574D01*
X116203320Y-90849727D01*
X116360363Y-91084759D01*
X116560241Y-91284637D01*
X116792759Y-91440000D01*
X116560241Y-91595363D01*
X116360363Y-91795241D01*
X116203320Y-92030273D01*
X116095147Y-92291426D01*
X116040000Y-92568665D01*
X116040000Y-92851335D01*
X116095147Y-93128574D01*
X116203320Y-93389727D01*
X116360363Y-93624759D01*
X116560241Y-93824637D01*
X116792759Y-93980000D01*
X116560241Y-94135363D01*
X116360363Y-94335241D01*
X116203320Y-94570273D01*
X116095147Y-94831426D01*
X116040000Y-95108665D01*
X116040000Y-95391335D01*
X116095147Y-95668574D01*
X116203320Y-95929727D01*
X116360363Y-96164759D01*
X116560241Y-96364637D01*
X116792759Y-96520000D01*
X116560241Y-96675363D01*
X116360363Y-96875241D01*
X116203320Y-97110273D01*
X116095147Y-97371426D01*
X116040000Y-97648665D01*
X116040000Y-97931335D01*
X116095147Y-98208574D01*
X116203320Y-98469727D01*
X116360363Y-98704759D01*
X116560241Y-98904637D01*
X116792759Y-99060000D01*
X116560241Y-99215363D01*
X116360363Y-99415241D01*
X116203320Y-99650273D01*
X116095147Y-99911426D01*
X116040000Y-100188665D01*
X116040000Y-100471335D01*
X116095147Y-100748574D01*
X116203320Y-101009727D01*
X116360363Y-101244759D01*
X116560241Y-101444637D01*
X116792759Y-101600000D01*
X116560241Y-101755363D01*
X116360363Y-101955241D01*
X116203320Y-102190273D01*
X116095147Y-102451426D01*
X116040000Y-102728665D01*
X116040000Y-103011335D01*
X116095147Y-103288574D01*
X116203320Y-103549727D01*
X116360363Y-103784759D01*
X116560241Y-103984637D01*
X116792759Y-104140000D01*
X116560241Y-104295363D01*
X116360363Y-104495241D01*
X116203320Y-104730273D01*
X116095147Y-104991426D01*
X116040000Y-105268665D01*
X116040000Y-105551335D01*
X116095147Y-105828574D01*
X116203320Y-106089727D01*
X116360363Y-106324759D01*
X116560241Y-106524637D01*
X116792759Y-106680000D01*
X116560241Y-106835363D01*
X116360363Y-107035241D01*
X116203320Y-107270273D01*
X116095147Y-107531426D01*
X116040000Y-107808665D01*
X116040000Y-108091335D01*
X116095147Y-108368574D01*
X116203320Y-108629727D01*
X116360363Y-108864759D01*
X116560241Y-109064637D01*
X116792759Y-109220000D01*
X116560241Y-109375363D01*
X116360363Y-109575241D01*
X116203320Y-109810273D01*
X116095147Y-110071426D01*
X116040000Y-110348665D01*
X116040000Y-110631335D01*
X116095147Y-110908574D01*
X116174438Y-111100000D01*
X106710562Y-111100000D01*
X106789853Y-110908574D01*
X106845000Y-110631335D01*
X106845000Y-110348665D01*
X106789853Y-110071426D01*
X106681680Y-109810273D01*
X106524637Y-109575241D01*
X106324759Y-109375363D01*
X106092241Y-109220000D01*
X106324759Y-109064637D01*
X106524637Y-108864759D01*
X106681680Y-108629727D01*
X106789853Y-108368574D01*
X106845000Y-108091335D01*
X106845000Y-107808665D01*
X106789853Y-107531426D01*
X106681680Y-107270273D01*
X106524637Y-107035241D01*
X106324759Y-106835363D01*
X106092241Y-106680000D01*
X106324759Y-106524637D01*
X106524637Y-106324759D01*
X106681680Y-106089727D01*
X106789853Y-105828574D01*
X106845000Y-105551335D01*
X106845000Y-105268665D01*
X106789853Y-104991426D01*
X106681680Y-104730273D01*
X106524637Y-104495241D01*
X106324759Y-104295363D01*
X106092241Y-104140000D01*
X106324759Y-103984637D01*
X106524637Y-103784759D01*
X106681680Y-103549727D01*
X106789853Y-103288574D01*
X106845000Y-103011335D01*
X106845000Y-102728665D01*
X106789853Y-102451426D01*
X106681680Y-102190273D01*
X106524637Y-101955241D01*
X106324759Y-101755363D01*
X106092241Y-101600000D01*
X106324759Y-101444637D01*
X106524637Y-101244759D01*
X106681680Y-101009727D01*
X106789853Y-100748574D01*
X106845000Y-100471335D01*
X106845000Y-100188665D01*
X106789853Y-99911426D01*
X106681680Y-99650273D01*
X106524637Y-99415241D01*
X106324759Y-99215363D01*
X106092241Y-99060000D01*
X106324759Y-98904637D01*
X106524637Y-98704759D01*
X106681680Y-98469727D01*
X106789853Y-98208574D01*
X106845000Y-97931335D01*
X106845000Y-97648665D01*
X106789853Y-97371426D01*
X106681680Y-97110273D01*
X106524637Y-96875241D01*
X106324759Y-96675363D01*
X106092241Y-96520000D01*
X106324759Y-96364637D01*
X106524637Y-96164759D01*
X106681680Y-95929727D01*
X106789853Y-95668574D01*
X106845000Y-95391335D01*
X106845000Y-95108665D01*
X106789853Y-94831426D01*
X106681680Y-94570273D01*
X106524637Y-94335241D01*
X106324759Y-94135363D01*
X106092241Y-93980000D01*
X106324759Y-93824637D01*
X106524637Y-93624759D01*
X106681680Y-93389727D01*
X106789853Y-93128574D01*
X106845000Y-92851335D01*
X106845000Y-92568665D01*
X106789853Y-92291426D01*
X106681680Y-92030273D01*
X106524637Y-91795241D01*
X106324759Y-91595363D01*
X106092241Y-91440000D01*
X106324759Y-91284637D01*
X106524637Y-91084759D01*
X106681680Y-90849727D01*
X106789853Y-90588574D01*
X106845000Y-90311335D01*
X106845000Y-90028665D01*
X106789853Y-89751426D01*
X106681680Y-89490273D01*
X106524637Y-89255241D01*
X106324759Y-89055363D01*
X106092241Y-88900000D01*
X106324759Y-88744637D01*
X106524637Y-88544759D01*
X106681680Y-88309727D01*
X106789853Y-88048574D01*
X106845000Y-87771335D01*
X106845000Y-87488665D01*
X106789853Y-87211426D01*
X106681680Y-86950273D01*
X106524637Y-86715241D01*
X106324759Y-86515363D01*
X106092241Y-86360000D01*
X106324759Y-86204637D01*
X106524637Y-86004759D01*
X106681680Y-85769727D01*
X106789853Y-85508574D01*
X106845000Y-85231335D01*
X106845000Y-84948665D01*
X106789853Y-84671426D01*
X106681680Y-84410273D01*
X106524637Y-84175241D01*
X106324759Y-83975363D01*
X106092241Y-83820000D01*
X106324759Y-83664637D01*
X106524637Y-83464759D01*
X106681680Y-83229727D01*
X106789853Y-82968574D01*
X106845000Y-82691335D01*
X106845000Y-82408665D01*
X106789853Y-82131426D01*
X106681680Y-81870273D01*
X106524637Y-81635241D01*
X106324759Y-81435363D01*
X106092241Y-81280000D01*
X106324759Y-81124637D01*
X106524637Y-80924759D01*
X106681680Y-80689727D01*
X106789853Y-80428574D01*
X106845000Y-80151335D01*
X106845000Y-79868665D01*
X106789853Y-79591426D01*
X106681680Y-79330273D01*
X106524637Y-79095241D01*
X106324759Y-78895363D01*
X106092241Y-78740000D01*
X106324759Y-78584637D01*
X106524637Y-78384759D01*
X106681680Y-78149727D01*
X106789853Y-77888574D01*
X106845000Y-77611335D01*
X106845000Y-77328665D01*
X106789853Y-77051426D01*
X106681680Y-76790273D01*
X106524637Y-76555241D01*
X106324759Y-76355363D01*
X106092241Y-76200000D01*
X106324759Y-76044637D01*
X106524637Y-75844759D01*
X106681680Y-75609727D01*
X106789853Y-75348574D01*
X106845000Y-75071335D01*
X106845000Y-74788665D01*
X106789853Y-74511426D01*
X106681680Y-74250273D01*
X106524637Y-74015241D01*
X106324759Y-73815363D01*
X106092241Y-73660000D01*
X106324759Y-73504637D01*
X106524637Y-73304759D01*
X106681680Y-73069727D01*
X106789853Y-72808574D01*
X106845000Y-72531335D01*
X106845000Y-72248665D01*
X106789853Y-71971426D01*
X106681680Y-71710273D01*
X106524637Y-71475241D01*
X106324759Y-71275363D01*
X106092241Y-71120000D01*
X106324759Y-70964637D01*
X106524637Y-70764759D01*
X106681680Y-70529727D01*
X106789853Y-70268574D01*
X106845000Y-69991335D01*
X106845000Y-69708665D01*
X106789853Y-69431426D01*
X106681680Y-69170273D01*
X106524637Y-68935241D01*
X106324759Y-68735363D01*
X106092241Y-68580000D01*
X106324759Y-68424637D01*
X106524637Y-68224759D01*
X106681680Y-67989727D01*
X106789853Y-67728574D01*
X106845000Y-67451335D01*
X106845000Y-67168665D01*
X106789853Y-66891426D01*
X106681680Y-66630273D01*
X106524637Y-66395241D01*
X106324759Y-66195363D01*
X106092241Y-66040000D01*
X106324759Y-65884637D01*
X106524637Y-65684759D01*
X106681680Y-65449727D01*
X106789853Y-65188574D01*
X106845000Y-64911335D01*
X106845000Y-64628665D01*
X106789853Y-64351426D01*
X106681680Y-64090273D01*
X106524637Y-63855241D01*
X106326039Y-63656643D01*
X106334482Y-63655812D01*
X106454180Y-63619502D01*
X106564494Y-63560537D01*
X106661185Y-63481185D01*
X106740537Y-63384494D01*
X106799502Y-63274180D01*
X106835812Y-63154482D01*
X106848072Y-63030000D01*
X106845000Y-62515750D01*
X106686250Y-62357000D01*
X105537000Y-62357000D01*
X105537000Y-62377000D01*
X105283000Y-62377000D01*
X105283000Y-62357000D01*
X104133750Y-62357000D01*
X103975000Y-62515750D01*
X103971928Y-63030000D01*
X103984188Y-63154482D01*
X104020498Y-63274180D01*
X104079463Y-63384494D01*
X104158815Y-63481185D01*
X104255506Y-63560537D01*
X104365820Y-63619502D01*
X104485518Y-63655812D01*
X104493961Y-63656643D01*
X104295363Y-63855241D01*
X104138320Y-64090273D01*
X104030147Y-64351426D01*
X103975000Y-64628665D01*
X103975000Y-64911335D01*
X104030147Y-65188574D01*
X104138320Y-65449727D01*
X104295363Y-65684759D01*
X104495241Y-65884637D01*
X104727759Y-66040000D01*
X104495241Y-66195363D01*
X104295363Y-66395241D01*
X104138320Y-66630273D01*
X104030147Y-66891426D01*
X103975000Y-67168665D01*
X103975000Y-67451335D01*
X104030147Y-67728574D01*
X104138320Y-67989727D01*
X104295363Y-68224759D01*
X104495241Y-68424637D01*
X104727759Y-68580000D01*
X104495241Y-68735363D01*
X104295363Y-68935241D01*
X104138320Y-69170273D01*
X104030147Y-69431426D01*
X103975000Y-69708665D01*
X103975000Y-69991335D01*
X104030147Y-70268574D01*
X104138320Y-70529727D01*
X104295363Y-70764759D01*
X104495241Y-70964637D01*
X104727759Y-71120000D01*
X104495241Y-71275363D01*
X104295363Y-71475241D01*
X104138320Y-71710273D01*
X104030147Y-71971426D01*
X103975000Y-72248665D01*
X103975000Y-72531335D01*
X104030147Y-72808574D01*
X104138320Y-73069727D01*
X104295363Y-73304759D01*
X104495241Y-73504637D01*
X104727759Y-73660000D01*
X104495241Y-73815363D01*
X104295363Y-74015241D01*
X104138320Y-74250273D01*
X104030147Y-74511426D01*
X103975000Y-74788665D01*
X103975000Y-75071335D01*
X104030147Y-75348574D01*
X104138320Y-75609727D01*
X104295363Y-75844759D01*
X104495241Y-76044637D01*
X104727759Y-76200000D01*
X104495241Y-76355363D01*
X104295363Y-76555241D01*
X104138320Y-76790273D01*
X104030147Y-77051426D01*
X103975000Y-77328665D01*
X103975000Y-77611335D01*
X104030147Y-77888574D01*
X104138320Y-78149727D01*
X104295363Y-78384759D01*
X104495241Y-78584637D01*
X104727759Y-78740000D01*
X104495241Y-78895363D01*
X104295363Y-79095241D01*
X104138320Y-79330273D01*
X104030147Y-79591426D01*
X103975000Y-79868665D01*
X103975000Y-80151335D01*
X104030147Y-80428574D01*
X104138320Y-80689727D01*
X104295363Y-80924759D01*
X104495241Y-81124637D01*
X104727759Y-81280000D01*
X104495241Y-81435363D01*
X104295363Y-81635241D01*
X104138320Y-81870273D01*
X104030147Y-82131426D01*
X103975000Y-82408665D01*
X103975000Y-82691335D01*
X104030147Y-82968574D01*
X104138320Y-83229727D01*
X104295363Y-83464759D01*
X104495241Y-83664637D01*
X104727759Y-83820000D01*
X104495241Y-83975363D01*
X104295363Y-84175241D01*
X104138320Y-84410273D01*
X104030147Y-84671426D01*
X103975000Y-84948665D01*
X103975000Y-85231335D01*
X104030147Y-85508574D01*
X104138320Y-85769727D01*
X104295363Y-86004759D01*
X104495241Y-86204637D01*
X104727759Y-86360000D01*
X104495241Y-86515363D01*
X104295363Y-86715241D01*
X104138320Y-86950273D01*
X104030147Y-87211426D01*
X103975000Y-87488665D01*
X103975000Y-87771335D01*
X104030147Y-88048574D01*
X104138320Y-88309727D01*
X104295363Y-88544759D01*
X104495241Y-88744637D01*
X104727759Y-88900000D01*
X104495241Y-89055363D01*
X104295363Y-89255241D01*
X104138320Y-89490273D01*
X104030147Y-89751426D01*
X103975000Y-90028665D01*
X103975000Y-90311335D01*
X104030147Y-90588574D01*
X104138320Y-90849727D01*
X104295363Y-91084759D01*
X104495241Y-91284637D01*
X104727759Y-91440000D01*
X104495241Y-91595363D01*
X104295363Y-91795241D01*
X104138320Y-92030273D01*
X104030147Y-92291426D01*
X103975000Y-92568665D01*
X103975000Y-92851335D01*
X104030147Y-93128574D01*
X104138320Y-93389727D01*
X104295363Y-93624759D01*
X104495241Y-93824637D01*
X104727759Y-93980000D01*
X104495241Y-94135363D01*
X104295363Y-94335241D01*
X104138320Y-94570273D01*
X104030147Y-94831426D01*
X103975000Y-95108665D01*
X103975000Y-95391335D01*
X104030147Y-95668574D01*
X104138320Y-95929727D01*
X104295363Y-96164759D01*
X104495241Y-96364637D01*
X104727759Y-96520000D01*
X104495241Y-96675363D01*
X104295363Y-96875241D01*
X104138320Y-97110273D01*
X104030147Y-97371426D01*
X103975000Y-97648665D01*
X103975000Y-97931335D01*
X104030147Y-98208574D01*
X104138320Y-98469727D01*
X104295363Y-98704759D01*
X104495241Y-98904637D01*
X104727759Y-99060000D01*
X104495241Y-99215363D01*
X104295363Y-99415241D01*
X104138320Y-99650273D01*
X104030147Y-99911426D01*
X103975000Y-100188665D01*
X103975000Y-100471335D01*
X104030147Y-100748574D01*
X104138320Y-101009727D01*
X104295363Y-101244759D01*
X104495241Y-101444637D01*
X104727759Y-101600000D01*
X104495241Y-101755363D01*
X104295363Y-101955241D01*
X104138320Y-102190273D01*
X104030147Y-102451426D01*
X103975000Y-102728665D01*
X103975000Y-103011335D01*
X104030147Y-103288574D01*
X104138320Y-103549727D01*
X104295363Y-103784759D01*
X104495241Y-103984637D01*
X104727759Y-104140000D01*
X104495241Y-104295363D01*
X104295363Y-104495241D01*
X104138320Y-104730273D01*
X104030147Y-104991426D01*
X103975000Y-105268665D01*
X103975000Y-105551335D01*
X104030147Y-105828574D01*
X104138320Y-106089727D01*
X104295363Y-106324759D01*
X104495241Y-106524637D01*
X104727759Y-106680000D01*
X104495241Y-106835363D01*
X104295363Y-107035241D01*
X104138320Y-107270273D01*
X104030147Y-107531426D01*
X103975000Y-107808665D01*
X103975000Y-108091335D01*
X104030147Y-108368574D01*
X104138320Y-108629727D01*
X104295363Y-108864759D01*
X104495241Y-109064637D01*
X104727759Y-109220000D01*
X104495241Y-109375363D01*
X104295363Y-109575241D01*
X104138320Y-109810273D01*
X104030147Y-110071426D01*
X103975000Y-110348665D01*
X103975000Y-110631335D01*
X104030147Y-110908574D01*
X104109438Y-111100000D01*
X103535562Y-111100000D01*
X103614853Y-110908574D01*
X103670000Y-110631335D01*
X103670000Y-110348665D01*
X103614853Y-110071426D01*
X103506680Y-109810273D01*
X103349637Y-109575241D01*
X103149759Y-109375363D01*
X102917241Y-109220000D01*
X103149759Y-109064637D01*
X103349637Y-108864759D01*
X103506680Y-108629727D01*
X103614853Y-108368574D01*
X103670000Y-108091335D01*
X103670000Y-107808665D01*
X103614853Y-107531426D01*
X103506680Y-107270273D01*
X103349637Y-107035241D01*
X103149759Y-106835363D01*
X102917241Y-106680000D01*
X103149759Y-106524637D01*
X103349637Y-106324759D01*
X103506680Y-106089727D01*
X103614853Y-105828574D01*
X103670000Y-105551335D01*
X103670000Y-105268665D01*
X103614853Y-104991426D01*
X103506680Y-104730273D01*
X103349637Y-104495241D01*
X103149759Y-104295363D01*
X102917241Y-104140000D01*
X103149759Y-103984637D01*
X103349637Y-103784759D01*
X103506680Y-103549727D01*
X103614853Y-103288574D01*
X103670000Y-103011335D01*
X103670000Y-102728665D01*
X103614853Y-102451426D01*
X103506680Y-102190273D01*
X103349637Y-101955241D01*
X103149759Y-101755363D01*
X102917241Y-101600000D01*
X103149759Y-101444637D01*
X103349637Y-101244759D01*
X103506680Y-101009727D01*
X103614853Y-100748574D01*
X103670000Y-100471335D01*
X103670000Y-100188665D01*
X103614853Y-99911426D01*
X103506680Y-99650273D01*
X103349637Y-99415241D01*
X103149759Y-99215363D01*
X102917241Y-99060000D01*
X103149759Y-98904637D01*
X103349637Y-98704759D01*
X103506680Y-98469727D01*
X103614853Y-98208574D01*
X103670000Y-97931335D01*
X103670000Y-97648665D01*
X103614853Y-97371426D01*
X103506680Y-97110273D01*
X103349637Y-96875241D01*
X103149759Y-96675363D01*
X102917241Y-96520000D01*
X103149759Y-96364637D01*
X103349637Y-96164759D01*
X103506680Y-95929727D01*
X103614853Y-95668574D01*
X103670000Y-95391335D01*
X103670000Y-95108665D01*
X103614853Y-94831426D01*
X103506680Y-94570273D01*
X103349637Y-94335241D01*
X103149759Y-94135363D01*
X102917241Y-93980000D01*
X103149759Y-93824637D01*
X103349637Y-93624759D01*
X103506680Y-93389727D01*
X103614853Y-93128574D01*
X103670000Y-92851335D01*
X103670000Y-92568665D01*
X103614853Y-92291426D01*
X103506680Y-92030273D01*
X103349637Y-91795241D01*
X103149759Y-91595363D01*
X102917241Y-91440000D01*
X103149759Y-91284637D01*
X103349637Y-91084759D01*
X103506680Y-90849727D01*
X103614853Y-90588574D01*
X103670000Y-90311335D01*
X103670000Y-90028665D01*
X103614853Y-89751426D01*
X103506680Y-89490273D01*
X103349637Y-89255241D01*
X103149759Y-89055363D01*
X102917241Y-88900000D01*
X103149759Y-88744637D01*
X103349637Y-88544759D01*
X103506680Y-88309727D01*
X103614853Y-88048574D01*
X103670000Y-87771335D01*
X103670000Y-87488665D01*
X103614853Y-87211426D01*
X103506680Y-86950273D01*
X103349637Y-86715241D01*
X103149759Y-86515363D01*
X102917241Y-86360000D01*
X103149759Y-86204637D01*
X103349637Y-86004759D01*
X103506680Y-85769727D01*
X103614853Y-85508574D01*
X103670000Y-85231335D01*
X103670000Y-84948665D01*
X103614853Y-84671426D01*
X103506680Y-84410273D01*
X103349637Y-84175241D01*
X103149759Y-83975363D01*
X102917241Y-83820000D01*
X103149759Y-83664637D01*
X103349637Y-83464759D01*
X103506680Y-83229727D01*
X103614853Y-82968574D01*
X103670000Y-82691335D01*
X103670000Y-82408665D01*
X103614853Y-82131426D01*
X103506680Y-81870273D01*
X103349637Y-81635241D01*
X103149759Y-81435363D01*
X102917241Y-81280000D01*
X103149759Y-81124637D01*
X103349637Y-80924759D01*
X103506680Y-80689727D01*
X103614853Y-80428574D01*
X103670000Y-80151335D01*
X103670000Y-79868665D01*
X103614853Y-79591426D01*
X103506680Y-79330273D01*
X103349637Y-79095241D01*
X103149759Y-78895363D01*
X102917241Y-78740000D01*
X103149759Y-78584637D01*
X103349637Y-78384759D01*
X103506680Y-78149727D01*
X103614853Y-77888574D01*
X103670000Y-77611335D01*
X103670000Y-77328665D01*
X103614853Y-77051426D01*
X103506680Y-76790273D01*
X103349637Y-76555241D01*
X103149759Y-76355363D01*
X102917241Y-76200000D01*
X103149759Y-76044637D01*
X103349637Y-75844759D01*
X103506680Y-75609727D01*
X103614853Y-75348574D01*
X103670000Y-75071335D01*
X103670000Y-74788665D01*
X103614853Y-74511426D01*
X103506680Y-74250273D01*
X103349637Y-74015241D01*
X103149759Y-73815363D01*
X102917241Y-73660000D01*
X103149759Y-73504637D01*
X103349637Y-73304759D01*
X103506680Y-73069727D01*
X103614853Y-72808574D01*
X103670000Y-72531335D01*
X103670000Y-72248665D01*
X103614853Y-71971426D01*
X103506680Y-71710273D01*
X103349637Y-71475241D01*
X103149759Y-71275363D01*
X102917241Y-71120000D01*
X103149759Y-70964637D01*
X103349637Y-70764759D01*
X103506680Y-70529727D01*
X103614853Y-70268574D01*
X103670000Y-69991335D01*
X103670000Y-69708665D01*
X103614853Y-69431426D01*
X103506680Y-69170273D01*
X103349637Y-68935241D01*
X103149759Y-68735363D01*
X102917241Y-68580000D01*
X103149759Y-68424637D01*
X103349637Y-68224759D01*
X103506680Y-67989727D01*
X103614853Y-67728574D01*
X103670000Y-67451335D01*
X103670000Y-67168665D01*
X103614853Y-66891426D01*
X103506680Y-66630273D01*
X103349637Y-66395241D01*
X103149759Y-66195363D01*
X102917241Y-66040000D01*
X103149759Y-65884637D01*
X103349637Y-65684759D01*
X103506680Y-65449727D01*
X103614853Y-65188574D01*
X103670000Y-64911335D01*
X103670000Y-64628665D01*
X103614853Y-64351426D01*
X103506680Y-64090273D01*
X103349637Y-63855241D01*
X103151039Y-63656643D01*
X103159482Y-63655812D01*
X103279180Y-63619502D01*
X103389494Y-63560537D01*
X103486185Y-63481185D01*
X103565537Y-63384494D01*
X103624502Y-63274180D01*
X103660812Y-63154482D01*
X103673072Y-63030000D01*
X103670000Y-62515750D01*
X103511250Y-62357000D01*
X102362000Y-62357000D01*
X102362000Y-62377000D01*
X102108000Y-62377000D01*
X102108000Y-62357000D01*
X102088000Y-62357000D01*
X102088000Y-62103000D01*
X102108000Y-62103000D01*
X102108000Y-60953750D01*
X102362000Y-60953750D01*
X102362000Y-62103000D01*
X103511250Y-62103000D01*
X103670000Y-61944250D01*
X103673072Y-61430000D01*
X103971928Y-61430000D01*
X103975000Y-61944250D01*
X104133750Y-62103000D01*
X105283000Y-62103000D01*
X105283000Y-60953750D01*
X105537000Y-60953750D01*
X105537000Y-62103000D01*
X106686250Y-62103000D01*
X106845000Y-61944250D01*
X106848072Y-61430000D01*
X106835812Y-61305518D01*
X106799502Y-61185820D01*
X106740537Y-61075506D01*
X106661185Y-60978815D01*
X106564494Y-60899463D01*
X106454180Y-60840498D01*
X106334482Y-60804188D01*
X106210000Y-60791928D01*
X105695750Y-60795000D01*
X105537000Y-60953750D01*
X105283000Y-60953750D01*
X105124250Y-60795000D01*
X104610000Y-60791928D01*
X104485518Y-60804188D01*
X104365820Y-60840498D01*
X104255506Y-60899463D01*
X104158815Y-60978815D01*
X104079463Y-61075506D01*
X104020498Y-61185820D01*
X103984188Y-61305518D01*
X103971928Y-61430000D01*
X103673072Y-61430000D01*
X103660812Y-61305518D01*
X103624502Y-61185820D01*
X103565537Y-61075506D01*
X103486185Y-60978815D01*
X103389494Y-60899463D01*
X103279180Y-60840498D01*
X103159482Y-60804188D01*
X103035000Y-60791928D01*
X102520750Y-60795000D01*
X102362000Y-60953750D01*
X102108000Y-60953750D01*
X101949250Y-60795000D01*
X101435000Y-60791928D01*
X101310518Y-60804188D01*
X101190820Y-60840498D01*
X101080506Y-60899463D01*
X100990000Y-60973739D01*
X100990000Y-60968951D01*
X100991524Y-60912986D01*
X100984526Y-60872006D01*
X100980450Y-60830617D01*
X100973607Y-60808059D01*
X100969641Y-60784833D01*
X100954781Y-60746000D01*
X100942710Y-60706207D01*
X100916315Y-60656826D01*
X99906938Y-58638072D01*
X100930000Y-58638072D01*
X101103254Y-58621008D01*
X101269850Y-58570472D01*
X101423386Y-58488405D01*
X101557962Y-58377962D01*
X101668405Y-58243386D01*
X101736285Y-58116392D01*
X101923368Y-58303475D01*
X102166589Y-58465990D01*
X102436842Y-58577932D01*
X102723740Y-58635000D01*
X103016260Y-58635000D01*
X103303158Y-58577932D01*
X103573411Y-58465990D01*
X103816632Y-58303475D01*
X104023475Y-58096632D01*
X104140000Y-57922240D01*
X104256525Y-58096632D01*
X104463368Y-58303475D01*
X104706589Y-58465990D01*
X104976842Y-58577932D01*
X105263740Y-58635000D01*
X105556260Y-58635000D01*
X105843158Y-58577932D01*
X106113411Y-58465990D01*
X106356632Y-58303475D01*
X106563475Y-58096632D01*
X106680000Y-57922240D01*
X106796525Y-58096632D01*
X107003368Y-58303475D01*
X107246589Y-58465990D01*
X107516842Y-58577932D01*
X107803740Y-58635000D01*
X108096260Y-58635000D01*
X108383158Y-58577932D01*
X108653411Y-58465990D01*
X108896632Y-58303475D01*
X109103475Y-58096632D01*
X109220000Y-57922240D01*
X109336525Y-58096632D01*
X109543368Y-58303475D01*
X109786589Y-58465990D01*
X110056842Y-58577932D01*
X110343740Y-58635000D01*
X110636260Y-58635000D01*
X110923158Y-58577932D01*
X111193411Y-58465990D01*
X111436632Y-58303475D01*
X111643475Y-58096632D01*
X111760000Y-57922240D01*
X111876525Y-58096632D01*
X112083368Y-58303475D01*
X112326589Y-58465990D01*
X112596842Y-58577932D01*
X112883740Y-58635000D01*
X113176260Y-58635000D01*
X113463158Y-58577932D01*
X113733411Y-58465990D01*
X113976632Y-58303475D01*
X114183475Y-58096632D01*
X114300000Y-57922240D01*
X114416525Y-58096632D01*
X114623368Y-58303475D01*
X114866589Y-58465990D01*
X115136842Y-58577932D01*
X115423740Y-58635000D01*
X115716260Y-58635000D01*
X116003158Y-58577932D01*
X116273411Y-58465990D01*
X116516632Y-58303475D01*
X116723475Y-58096632D01*
X116840000Y-57922240D01*
X116956525Y-58096632D01*
X117163368Y-58303475D01*
X117406589Y-58465990D01*
X117676842Y-58577932D01*
X117963740Y-58635000D01*
X118256260Y-58635000D01*
X118543158Y-58577932D01*
X118813411Y-58465990D01*
X119056632Y-58303475D01*
X119263475Y-58096632D01*
X119380000Y-57922240D01*
X119496525Y-58096632D01*
X119703368Y-58303475D01*
X119946589Y-58465990D01*
X120216842Y-58577932D01*
X120503740Y-58635000D01*
X120796260Y-58635000D01*
X121083158Y-58577932D01*
X121353411Y-58465990D01*
X121596632Y-58303475D01*
X121803475Y-58096632D01*
X121920000Y-57922240D01*
X122036525Y-58096632D01*
%TA.AperFunction,Conductor*%
D16*
G36*
X122036525Y-58096632D02*
G01*
X122243368Y-58303475D01*
X122486589Y-58465990D01*
X122756842Y-58577932D01*
X123043740Y-58635000D01*
X123336260Y-58635000D01*
X123497858Y-58602856D01*
X122035656Y-60552460D01*
X122003575Y-60591551D01*
X121981404Y-60633031D01*
X121957011Y-60673237D01*
X121950823Y-60690245D01*
X121942290Y-60706208D01*
X121928634Y-60751224D01*
X121912557Y-60795409D01*
X121909806Y-60813291D01*
X121904550Y-60830618D01*
X121899940Y-60877429D01*
X121892790Y-60923905D01*
X121895000Y-60974414D01*
X121895000Y-61510343D01*
X121764637Y-61315241D01*
X121564759Y-61115363D01*
X121329727Y-60958320D01*
X121068574Y-60850147D01*
X120791335Y-60795000D01*
X120508665Y-60795000D01*
X120231426Y-60850147D01*
X119970273Y-60958320D01*
X119735241Y-61115363D01*
X119535363Y-61315241D01*
X119431957Y-61470000D01*
X118693043Y-61470000D01*
X118589637Y-61315241D01*
X118389759Y-61115363D01*
X118154727Y-60958320D01*
X117893574Y-60850147D01*
X117616335Y-60795000D01*
X117333665Y-60795000D01*
X117056426Y-60850147D01*
X116795273Y-60958320D01*
X116560241Y-61115363D01*
X116360363Y-61315241D01*
X116203320Y-61550273D01*
X116095147Y-61811426D01*
X116040000Y-62088665D01*
X116040000Y-62371335D01*
X116095147Y-62648574D01*
X116203320Y-62909727D01*
X116360363Y-63144759D01*
X116560241Y-63344637D01*
X116792759Y-63500000D01*
X116560241Y-63655363D01*
X116360363Y-63855241D01*
X116203320Y-64090273D01*
X116095147Y-64351426D01*
X116040000Y-64628665D01*
X116040000Y-64911335D01*
X116095147Y-65188574D01*
X116203320Y-65449727D01*
X116360363Y-65684759D01*
X116560241Y-65884637D01*
X116792759Y-66040000D01*
X116560241Y-66195363D01*
X116360363Y-66395241D01*
X116203320Y-66630273D01*
X116095147Y-66891426D01*
X116040000Y-67168665D01*
X116040000Y-67451335D01*
X116095147Y-67728574D01*
X116203320Y-67989727D01*
X116360363Y-68224759D01*
X116560241Y-68424637D01*
X116792759Y-68580000D01*
X116560241Y-68735363D01*
X116360363Y-68935241D01*
X116203320Y-69170273D01*
X116095147Y-69431426D01*
X116040000Y-69708665D01*
X116040000Y-69991335D01*
X116095147Y-70268574D01*
X116203320Y-70529727D01*
X116360363Y-70764759D01*
X116560241Y-70964637D01*
X116792759Y-71120000D01*
X116560241Y-71275363D01*
X116360363Y-71475241D01*
X116203320Y-71710273D01*
X116095147Y-71971426D01*
X116040000Y-72248665D01*
X116040000Y-72531335D01*
X116095147Y-72808574D01*
X116203320Y-73069727D01*
X116360363Y-73304759D01*
X116560241Y-73504637D01*
X116792759Y-73660000D01*
X116560241Y-73815363D01*
X116360363Y-74015241D01*
X116203320Y-74250273D01*
X116095147Y-74511426D01*
X116040000Y-74788665D01*
X116040000Y-75071335D01*
X116095147Y-75348574D01*
X116203320Y-75609727D01*
X116360363Y-75844759D01*
X116560241Y-76044637D01*
X116792759Y-76200000D01*
X116560241Y-76355363D01*
X116360363Y-76555241D01*
X116203320Y-76790273D01*
X116095147Y-77051426D01*
X116040000Y-77328665D01*
X116040000Y-77611335D01*
X116095147Y-77888574D01*
X116203320Y-78149727D01*
X116360363Y-78384759D01*
X116560241Y-78584637D01*
X116792759Y-78740000D01*
X116560241Y-78895363D01*
X116360363Y-79095241D01*
X116203320Y-79330273D01*
X116095147Y-79591426D01*
X116040000Y-79868665D01*
X116040000Y-80151335D01*
X116095147Y-80428574D01*
X116203320Y-80689727D01*
X116360363Y-80924759D01*
X116560241Y-81124637D01*
X116792759Y-81280000D01*
X116560241Y-81435363D01*
X116360363Y-81635241D01*
X116203320Y-81870273D01*
X116095147Y-82131426D01*
X116040000Y-82408665D01*
X116040000Y-82691335D01*
X116095147Y-82968574D01*
X116203320Y-83229727D01*
X116360363Y-83464759D01*
X116560241Y-83664637D01*
X116792759Y-83820000D01*
X116560241Y-83975363D01*
X116360363Y-84175241D01*
X116203320Y-84410273D01*
X116095147Y-84671426D01*
X116040000Y-84948665D01*
X116040000Y-85231335D01*
X116095147Y-85508574D01*
X116203320Y-85769727D01*
X116360363Y-86004759D01*
X116560241Y-86204637D01*
X116792759Y-86360000D01*
X116560241Y-86515363D01*
X116360363Y-86715241D01*
X116203320Y-86950273D01*
X116095147Y-87211426D01*
X116040000Y-87488665D01*
X116040000Y-87771335D01*
X116095147Y-88048574D01*
X116203320Y-88309727D01*
X116360363Y-88544759D01*
X116560241Y-88744637D01*
X116792759Y-88900000D01*
X116560241Y-89055363D01*
X116360363Y-89255241D01*
X116203320Y-89490273D01*
X116095147Y-89751426D01*
X116040000Y-90028665D01*
X116040000Y-90311335D01*
X116095147Y-90588574D01*
X116203320Y-90849727D01*
X116360363Y-91084759D01*
X116560241Y-91284637D01*
X116792759Y-91440000D01*
X116560241Y-91595363D01*
X116360363Y-91795241D01*
X116203320Y-92030273D01*
X116095147Y-92291426D01*
X116040000Y-92568665D01*
X116040000Y-92851335D01*
X116095147Y-93128574D01*
X116203320Y-93389727D01*
X116360363Y-93624759D01*
X116560241Y-93824637D01*
X116792759Y-93980000D01*
X116560241Y-94135363D01*
X116360363Y-94335241D01*
X116203320Y-94570273D01*
X116095147Y-94831426D01*
X116040000Y-95108665D01*
X116040000Y-95391335D01*
X116095147Y-95668574D01*
X116203320Y-95929727D01*
X116360363Y-96164759D01*
X116560241Y-96364637D01*
X116792759Y-96520000D01*
X116560241Y-96675363D01*
X116360363Y-96875241D01*
X116203320Y-97110273D01*
X116095147Y-97371426D01*
X116040000Y-97648665D01*
X116040000Y-97931335D01*
X116095147Y-98208574D01*
X116203320Y-98469727D01*
X116360363Y-98704759D01*
X116560241Y-98904637D01*
X116792759Y-99060000D01*
X116560241Y-99215363D01*
X116360363Y-99415241D01*
X116203320Y-99650273D01*
X116095147Y-99911426D01*
X116040000Y-100188665D01*
X116040000Y-100471335D01*
X116095147Y-100748574D01*
X116203320Y-101009727D01*
X116360363Y-101244759D01*
X116560241Y-101444637D01*
X116792759Y-101600000D01*
X116560241Y-101755363D01*
X116360363Y-101955241D01*
X116203320Y-102190273D01*
X116095147Y-102451426D01*
X116040000Y-102728665D01*
X116040000Y-103011335D01*
X116095147Y-103288574D01*
X116203320Y-103549727D01*
X116360363Y-103784759D01*
X116560241Y-103984637D01*
X116792759Y-104140000D01*
X116560241Y-104295363D01*
X116360363Y-104495241D01*
X116203320Y-104730273D01*
X116095147Y-104991426D01*
X116040000Y-105268665D01*
X116040000Y-105551335D01*
X116095147Y-105828574D01*
X116203320Y-106089727D01*
X116360363Y-106324759D01*
X116560241Y-106524637D01*
X116792759Y-106680000D01*
X116560241Y-106835363D01*
X116360363Y-107035241D01*
X116203320Y-107270273D01*
X116095147Y-107531426D01*
X116040000Y-107808665D01*
X116040000Y-108091335D01*
X116095147Y-108368574D01*
X116203320Y-108629727D01*
X116360363Y-108864759D01*
X116560241Y-109064637D01*
X116792759Y-109220000D01*
X116560241Y-109375363D01*
X116360363Y-109575241D01*
X116203320Y-109810273D01*
X116095147Y-110071426D01*
X116040000Y-110348665D01*
X116040000Y-110631335D01*
X116095147Y-110908574D01*
X116174438Y-111100000D01*
X106710562Y-111100000D01*
X106789853Y-110908574D01*
X106845000Y-110631335D01*
X106845000Y-110348665D01*
X106789853Y-110071426D01*
X106681680Y-109810273D01*
X106524637Y-109575241D01*
X106324759Y-109375363D01*
X106092241Y-109220000D01*
X106324759Y-109064637D01*
X106524637Y-108864759D01*
X106681680Y-108629727D01*
X106789853Y-108368574D01*
X106845000Y-108091335D01*
X106845000Y-107808665D01*
X106789853Y-107531426D01*
X106681680Y-107270273D01*
X106524637Y-107035241D01*
X106324759Y-106835363D01*
X106092241Y-106680000D01*
X106324759Y-106524637D01*
X106524637Y-106324759D01*
X106681680Y-106089727D01*
X106789853Y-105828574D01*
X106845000Y-105551335D01*
X106845000Y-105268665D01*
X106789853Y-104991426D01*
X106681680Y-104730273D01*
X106524637Y-104495241D01*
X106324759Y-104295363D01*
X106092241Y-104140000D01*
X106324759Y-103984637D01*
X106524637Y-103784759D01*
X106681680Y-103549727D01*
X106789853Y-103288574D01*
X106845000Y-103011335D01*
X106845000Y-102728665D01*
X106789853Y-102451426D01*
X106681680Y-102190273D01*
X106524637Y-101955241D01*
X106324759Y-101755363D01*
X106092241Y-101600000D01*
X106324759Y-101444637D01*
X106524637Y-101244759D01*
X106681680Y-101009727D01*
X106789853Y-100748574D01*
X106845000Y-100471335D01*
X106845000Y-100188665D01*
X106789853Y-99911426D01*
X106681680Y-99650273D01*
X106524637Y-99415241D01*
X106324759Y-99215363D01*
X106092241Y-99060000D01*
X106324759Y-98904637D01*
X106524637Y-98704759D01*
X106681680Y-98469727D01*
X106789853Y-98208574D01*
X106845000Y-97931335D01*
X106845000Y-97648665D01*
X106789853Y-97371426D01*
X106681680Y-97110273D01*
X106524637Y-96875241D01*
X106324759Y-96675363D01*
X106092241Y-96520000D01*
X106324759Y-96364637D01*
X106524637Y-96164759D01*
X106681680Y-95929727D01*
X106789853Y-95668574D01*
X106845000Y-95391335D01*
X106845000Y-95108665D01*
X106789853Y-94831426D01*
X106681680Y-94570273D01*
X106524637Y-94335241D01*
X106324759Y-94135363D01*
X106092241Y-93980000D01*
X106324759Y-93824637D01*
X106524637Y-93624759D01*
X106681680Y-93389727D01*
X106789853Y-93128574D01*
X106845000Y-92851335D01*
X106845000Y-92568665D01*
X106789853Y-92291426D01*
X106681680Y-92030273D01*
X106524637Y-91795241D01*
X106324759Y-91595363D01*
X106092241Y-91440000D01*
X106324759Y-91284637D01*
X106524637Y-91084759D01*
X106681680Y-90849727D01*
X106789853Y-90588574D01*
X106845000Y-90311335D01*
X106845000Y-90028665D01*
X106789853Y-89751426D01*
X106681680Y-89490273D01*
X106524637Y-89255241D01*
X106324759Y-89055363D01*
X106092241Y-88900000D01*
X106324759Y-88744637D01*
X106524637Y-88544759D01*
X106681680Y-88309727D01*
X106789853Y-88048574D01*
X106845000Y-87771335D01*
X106845000Y-87488665D01*
X106789853Y-87211426D01*
X106681680Y-86950273D01*
X106524637Y-86715241D01*
X106324759Y-86515363D01*
X106092241Y-86360000D01*
X106324759Y-86204637D01*
X106524637Y-86004759D01*
X106681680Y-85769727D01*
X106789853Y-85508574D01*
X106845000Y-85231335D01*
X106845000Y-84948665D01*
X106789853Y-84671426D01*
X106681680Y-84410273D01*
X106524637Y-84175241D01*
X106324759Y-83975363D01*
X106092241Y-83820000D01*
X106324759Y-83664637D01*
X106524637Y-83464759D01*
X106681680Y-83229727D01*
X106789853Y-82968574D01*
X106845000Y-82691335D01*
X106845000Y-82408665D01*
X106789853Y-82131426D01*
X106681680Y-81870273D01*
X106524637Y-81635241D01*
X106324759Y-81435363D01*
X106092241Y-81280000D01*
X106324759Y-81124637D01*
X106524637Y-80924759D01*
X106681680Y-80689727D01*
X106789853Y-80428574D01*
X106845000Y-80151335D01*
X106845000Y-79868665D01*
X106789853Y-79591426D01*
X106681680Y-79330273D01*
X106524637Y-79095241D01*
X106324759Y-78895363D01*
X106092241Y-78740000D01*
X106324759Y-78584637D01*
X106524637Y-78384759D01*
X106681680Y-78149727D01*
X106789853Y-77888574D01*
X106845000Y-77611335D01*
X106845000Y-77328665D01*
X106789853Y-77051426D01*
X106681680Y-76790273D01*
X106524637Y-76555241D01*
X106324759Y-76355363D01*
X106092241Y-76200000D01*
X106324759Y-76044637D01*
X106524637Y-75844759D01*
X106681680Y-75609727D01*
X106789853Y-75348574D01*
X106845000Y-75071335D01*
X106845000Y-74788665D01*
X106789853Y-74511426D01*
X106681680Y-74250273D01*
X106524637Y-74015241D01*
X106324759Y-73815363D01*
X106092241Y-73660000D01*
X106324759Y-73504637D01*
X106524637Y-73304759D01*
X106681680Y-73069727D01*
X106789853Y-72808574D01*
X106845000Y-72531335D01*
X106845000Y-72248665D01*
X106789853Y-71971426D01*
X106681680Y-71710273D01*
X106524637Y-71475241D01*
X106324759Y-71275363D01*
X106092241Y-71120000D01*
X106324759Y-70964637D01*
X106524637Y-70764759D01*
X106681680Y-70529727D01*
X106789853Y-70268574D01*
X106845000Y-69991335D01*
X106845000Y-69708665D01*
X106789853Y-69431426D01*
X106681680Y-69170273D01*
X106524637Y-68935241D01*
X106324759Y-68735363D01*
X106092241Y-68580000D01*
X106324759Y-68424637D01*
X106524637Y-68224759D01*
X106681680Y-67989727D01*
X106789853Y-67728574D01*
X106845000Y-67451335D01*
X106845000Y-67168665D01*
X106789853Y-66891426D01*
X106681680Y-66630273D01*
X106524637Y-66395241D01*
X106324759Y-66195363D01*
X106092241Y-66040000D01*
X106324759Y-65884637D01*
X106524637Y-65684759D01*
X106681680Y-65449727D01*
X106789853Y-65188574D01*
X106845000Y-64911335D01*
X106845000Y-64628665D01*
X106789853Y-64351426D01*
X106681680Y-64090273D01*
X106524637Y-63855241D01*
X106326039Y-63656643D01*
X106334482Y-63655812D01*
X106454180Y-63619502D01*
X106564494Y-63560537D01*
X106661185Y-63481185D01*
X106740537Y-63384494D01*
X106799502Y-63274180D01*
X106835812Y-63154482D01*
X106848072Y-63030000D01*
X106845000Y-62515750D01*
X106686250Y-62357000D01*
X105537000Y-62357000D01*
X105537000Y-62377000D01*
X105283000Y-62377000D01*
X105283000Y-62357000D01*
X104133750Y-62357000D01*
X103975000Y-62515750D01*
X103971928Y-63030000D01*
X103984188Y-63154482D01*
X104020498Y-63274180D01*
X104079463Y-63384494D01*
X104158815Y-63481185D01*
X104255506Y-63560537D01*
X104365820Y-63619502D01*
X104485518Y-63655812D01*
X104493961Y-63656643D01*
X104295363Y-63855241D01*
X104138320Y-64090273D01*
X104030147Y-64351426D01*
X103975000Y-64628665D01*
X103975000Y-64911335D01*
X104030147Y-65188574D01*
X104138320Y-65449727D01*
X104295363Y-65684759D01*
X104495241Y-65884637D01*
X104727759Y-66040000D01*
X104495241Y-66195363D01*
X104295363Y-66395241D01*
X104138320Y-66630273D01*
X104030147Y-66891426D01*
X103975000Y-67168665D01*
X103975000Y-67451335D01*
X104030147Y-67728574D01*
X104138320Y-67989727D01*
X104295363Y-68224759D01*
X104495241Y-68424637D01*
X104727759Y-68580000D01*
X104495241Y-68735363D01*
X104295363Y-68935241D01*
X104138320Y-69170273D01*
X104030147Y-69431426D01*
X103975000Y-69708665D01*
X103975000Y-69991335D01*
X104030147Y-70268574D01*
X104138320Y-70529727D01*
X104295363Y-70764759D01*
X104495241Y-70964637D01*
X104727759Y-71120000D01*
X104495241Y-71275363D01*
X104295363Y-71475241D01*
X104138320Y-71710273D01*
X104030147Y-71971426D01*
X103975000Y-72248665D01*
X103975000Y-72531335D01*
X104030147Y-72808574D01*
X104138320Y-73069727D01*
X104295363Y-73304759D01*
X104495241Y-73504637D01*
X104727759Y-73660000D01*
X104495241Y-73815363D01*
X104295363Y-74015241D01*
X104138320Y-74250273D01*
X104030147Y-74511426D01*
X103975000Y-74788665D01*
X103975000Y-75071335D01*
X104030147Y-75348574D01*
X104138320Y-75609727D01*
X104295363Y-75844759D01*
X104495241Y-76044637D01*
X104727759Y-76200000D01*
X104495241Y-76355363D01*
X104295363Y-76555241D01*
X104138320Y-76790273D01*
X104030147Y-77051426D01*
X103975000Y-77328665D01*
X103975000Y-77611335D01*
X104030147Y-77888574D01*
X104138320Y-78149727D01*
X104295363Y-78384759D01*
X104495241Y-78584637D01*
X104727759Y-78740000D01*
X104495241Y-78895363D01*
X104295363Y-79095241D01*
X104138320Y-79330273D01*
X104030147Y-79591426D01*
X103975000Y-79868665D01*
X103975000Y-80151335D01*
X104030147Y-80428574D01*
X104138320Y-80689727D01*
X104295363Y-80924759D01*
X104495241Y-81124637D01*
X104727759Y-81280000D01*
X104495241Y-81435363D01*
X104295363Y-81635241D01*
X104138320Y-81870273D01*
X104030147Y-82131426D01*
X103975000Y-82408665D01*
X103975000Y-82691335D01*
X104030147Y-82968574D01*
X104138320Y-83229727D01*
X104295363Y-83464759D01*
X104495241Y-83664637D01*
X104727759Y-83820000D01*
X104495241Y-83975363D01*
X104295363Y-84175241D01*
X104138320Y-84410273D01*
X104030147Y-84671426D01*
X103975000Y-84948665D01*
X103975000Y-85231335D01*
X104030147Y-85508574D01*
X104138320Y-85769727D01*
X104295363Y-86004759D01*
X104495241Y-86204637D01*
X104727759Y-86360000D01*
X104495241Y-86515363D01*
X104295363Y-86715241D01*
X104138320Y-86950273D01*
X104030147Y-87211426D01*
X103975000Y-87488665D01*
X103975000Y-87771335D01*
X104030147Y-88048574D01*
X104138320Y-88309727D01*
X104295363Y-88544759D01*
X104495241Y-88744637D01*
X104727759Y-88900000D01*
X104495241Y-89055363D01*
X104295363Y-89255241D01*
X104138320Y-89490273D01*
X104030147Y-89751426D01*
X103975000Y-90028665D01*
X103975000Y-90311335D01*
X104030147Y-90588574D01*
X104138320Y-90849727D01*
X104295363Y-91084759D01*
X104495241Y-91284637D01*
X104727759Y-91440000D01*
X104495241Y-91595363D01*
X104295363Y-91795241D01*
X104138320Y-92030273D01*
X104030147Y-92291426D01*
X103975000Y-92568665D01*
X103975000Y-92851335D01*
X104030147Y-93128574D01*
X104138320Y-93389727D01*
X104295363Y-93624759D01*
X104495241Y-93824637D01*
X104727759Y-93980000D01*
X104495241Y-94135363D01*
X104295363Y-94335241D01*
X104138320Y-94570273D01*
X104030147Y-94831426D01*
X103975000Y-95108665D01*
X103975000Y-95391335D01*
X104030147Y-95668574D01*
X104138320Y-95929727D01*
X104295363Y-96164759D01*
X104495241Y-96364637D01*
X104727759Y-96520000D01*
X104495241Y-96675363D01*
X104295363Y-96875241D01*
X104138320Y-97110273D01*
X104030147Y-97371426D01*
X103975000Y-97648665D01*
X103975000Y-97931335D01*
X104030147Y-98208574D01*
X104138320Y-98469727D01*
X104295363Y-98704759D01*
X104495241Y-98904637D01*
X104727759Y-99060000D01*
X104495241Y-99215363D01*
X104295363Y-99415241D01*
X104138320Y-99650273D01*
X104030147Y-99911426D01*
X103975000Y-100188665D01*
X103975000Y-100471335D01*
X104030147Y-100748574D01*
X104138320Y-101009727D01*
X104295363Y-101244759D01*
X104495241Y-101444637D01*
X104727759Y-101600000D01*
X104495241Y-101755363D01*
X104295363Y-101955241D01*
X104138320Y-102190273D01*
X104030147Y-102451426D01*
X103975000Y-102728665D01*
X103975000Y-103011335D01*
X104030147Y-103288574D01*
X104138320Y-103549727D01*
X104295363Y-103784759D01*
X104495241Y-103984637D01*
X104727759Y-104140000D01*
X104495241Y-104295363D01*
X104295363Y-104495241D01*
X104138320Y-104730273D01*
X104030147Y-104991426D01*
X103975000Y-105268665D01*
X103975000Y-105551335D01*
X104030147Y-105828574D01*
X104138320Y-106089727D01*
X104295363Y-106324759D01*
X104495241Y-106524637D01*
X104727759Y-106680000D01*
X104495241Y-106835363D01*
X104295363Y-107035241D01*
X104138320Y-107270273D01*
X104030147Y-107531426D01*
X103975000Y-107808665D01*
X103975000Y-108091335D01*
X104030147Y-108368574D01*
X104138320Y-108629727D01*
X104295363Y-108864759D01*
X104495241Y-109064637D01*
X104727759Y-109220000D01*
X104495241Y-109375363D01*
X104295363Y-109575241D01*
X104138320Y-109810273D01*
X104030147Y-110071426D01*
X103975000Y-110348665D01*
X103975000Y-110631335D01*
X104030147Y-110908574D01*
X104109438Y-111100000D01*
X103535562Y-111100000D01*
X103614853Y-110908574D01*
X103670000Y-110631335D01*
X103670000Y-110348665D01*
X103614853Y-110071426D01*
X103506680Y-109810273D01*
X103349637Y-109575241D01*
X103149759Y-109375363D01*
X102917241Y-109220000D01*
X103149759Y-109064637D01*
X103349637Y-108864759D01*
X103506680Y-108629727D01*
X103614853Y-108368574D01*
X103670000Y-108091335D01*
X103670000Y-107808665D01*
X103614853Y-107531426D01*
X103506680Y-107270273D01*
X103349637Y-107035241D01*
X103149759Y-106835363D01*
X102917241Y-106680000D01*
X103149759Y-106524637D01*
X103349637Y-106324759D01*
X103506680Y-106089727D01*
X103614853Y-105828574D01*
X103670000Y-105551335D01*
X103670000Y-105268665D01*
X103614853Y-104991426D01*
X103506680Y-104730273D01*
X103349637Y-104495241D01*
X103149759Y-104295363D01*
X102917241Y-104140000D01*
X103149759Y-103984637D01*
X103349637Y-103784759D01*
X103506680Y-103549727D01*
X103614853Y-103288574D01*
X103670000Y-103011335D01*
X103670000Y-102728665D01*
X103614853Y-102451426D01*
X103506680Y-102190273D01*
X103349637Y-101955241D01*
X103149759Y-101755363D01*
X102917241Y-101600000D01*
X103149759Y-101444637D01*
X103349637Y-101244759D01*
X103506680Y-101009727D01*
X103614853Y-100748574D01*
X103670000Y-100471335D01*
X103670000Y-100188665D01*
X103614853Y-99911426D01*
X103506680Y-99650273D01*
X103349637Y-99415241D01*
X103149759Y-99215363D01*
X102917241Y-99060000D01*
X103149759Y-98904637D01*
X103349637Y-98704759D01*
X103506680Y-98469727D01*
X103614853Y-98208574D01*
X103670000Y-97931335D01*
X103670000Y-97648665D01*
X103614853Y-97371426D01*
X103506680Y-97110273D01*
X103349637Y-96875241D01*
X103149759Y-96675363D01*
X102917241Y-96520000D01*
X103149759Y-96364637D01*
X103349637Y-96164759D01*
X103506680Y-95929727D01*
X103614853Y-95668574D01*
X103670000Y-95391335D01*
X103670000Y-95108665D01*
X103614853Y-94831426D01*
X103506680Y-94570273D01*
X103349637Y-94335241D01*
X103149759Y-94135363D01*
X102917241Y-93980000D01*
X103149759Y-93824637D01*
X103349637Y-93624759D01*
X103506680Y-93389727D01*
X103614853Y-93128574D01*
X103670000Y-92851335D01*
X103670000Y-92568665D01*
X103614853Y-92291426D01*
X103506680Y-92030273D01*
X103349637Y-91795241D01*
X103149759Y-91595363D01*
X102917241Y-91440000D01*
X103149759Y-91284637D01*
X103349637Y-91084759D01*
X103506680Y-90849727D01*
X103614853Y-90588574D01*
X103670000Y-90311335D01*
X103670000Y-90028665D01*
X103614853Y-89751426D01*
X103506680Y-89490273D01*
X103349637Y-89255241D01*
X103149759Y-89055363D01*
X102917241Y-88900000D01*
X103149759Y-88744637D01*
X103349637Y-88544759D01*
X103506680Y-88309727D01*
X103614853Y-88048574D01*
X103670000Y-87771335D01*
X103670000Y-87488665D01*
X103614853Y-87211426D01*
X103506680Y-86950273D01*
X103349637Y-86715241D01*
X103149759Y-86515363D01*
X102917241Y-86360000D01*
X103149759Y-86204637D01*
X103349637Y-86004759D01*
X103506680Y-85769727D01*
X103614853Y-85508574D01*
X103670000Y-85231335D01*
X103670000Y-84948665D01*
X103614853Y-84671426D01*
X103506680Y-84410273D01*
X103349637Y-84175241D01*
X103149759Y-83975363D01*
X102917241Y-83820000D01*
X103149759Y-83664637D01*
X103349637Y-83464759D01*
X103506680Y-83229727D01*
X103614853Y-82968574D01*
X103670000Y-82691335D01*
X103670000Y-82408665D01*
X103614853Y-82131426D01*
X103506680Y-81870273D01*
X103349637Y-81635241D01*
X103149759Y-81435363D01*
X102917241Y-81280000D01*
X103149759Y-81124637D01*
X103349637Y-80924759D01*
X103506680Y-80689727D01*
X103614853Y-80428574D01*
X103670000Y-80151335D01*
X103670000Y-79868665D01*
X103614853Y-79591426D01*
X103506680Y-79330273D01*
X103349637Y-79095241D01*
X103149759Y-78895363D01*
X102917241Y-78740000D01*
X103149759Y-78584637D01*
X103349637Y-78384759D01*
X103506680Y-78149727D01*
X103614853Y-77888574D01*
X103670000Y-77611335D01*
X103670000Y-77328665D01*
X103614853Y-77051426D01*
X103506680Y-76790273D01*
X103349637Y-76555241D01*
X103149759Y-76355363D01*
X102917241Y-76200000D01*
X103149759Y-76044637D01*
X103349637Y-75844759D01*
X103506680Y-75609727D01*
X103614853Y-75348574D01*
X103670000Y-75071335D01*
X103670000Y-74788665D01*
X103614853Y-74511426D01*
X103506680Y-74250273D01*
X103349637Y-74015241D01*
X103149759Y-73815363D01*
X102917241Y-73660000D01*
X103149759Y-73504637D01*
X103349637Y-73304759D01*
X103506680Y-73069727D01*
X103614853Y-72808574D01*
X103670000Y-72531335D01*
X103670000Y-72248665D01*
X103614853Y-71971426D01*
X103506680Y-71710273D01*
X103349637Y-71475241D01*
X103149759Y-71275363D01*
X102917241Y-71120000D01*
X103149759Y-70964637D01*
X103349637Y-70764759D01*
X103506680Y-70529727D01*
X103614853Y-70268574D01*
X103670000Y-69991335D01*
X103670000Y-69708665D01*
X103614853Y-69431426D01*
X103506680Y-69170273D01*
X103349637Y-68935241D01*
X103149759Y-68735363D01*
X102917241Y-68580000D01*
X103149759Y-68424637D01*
X103349637Y-68224759D01*
X103506680Y-67989727D01*
X103614853Y-67728574D01*
X103670000Y-67451335D01*
X103670000Y-67168665D01*
X103614853Y-66891426D01*
X103506680Y-66630273D01*
X103349637Y-66395241D01*
X103149759Y-66195363D01*
X102917241Y-66040000D01*
X103149759Y-65884637D01*
X103349637Y-65684759D01*
X103506680Y-65449727D01*
X103614853Y-65188574D01*
X103670000Y-64911335D01*
X103670000Y-64628665D01*
X103614853Y-64351426D01*
X103506680Y-64090273D01*
X103349637Y-63855241D01*
X103151039Y-63656643D01*
X103159482Y-63655812D01*
X103279180Y-63619502D01*
X103389494Y-63560537D01*
X103486185Y-63481185D01*
X103565537Y-63384494D01*
X103624502Y-63274180D01*
X103660812Y-63154482D01*
X103673072Y-63030000D01*
X103670000Y-62515750D01*
X103511250Y-62357000D01*
X102362000Y-62357000D01*
X102362000Y-62377000D01*
X102108000Y-62377000D01*
X102108000Y-62357000D01*
X102088000Y-62357000D01*
X102088000Y-62103000D01*
X102108000Y-62103000D01*
X102108000Y-60953750D01*
X102362000Y-60953750D01*
X102362000Y-62103000D01*
X103511250Y-62103000D01*
X103670000Y-61944250D01*
X103673072Y-61430000D01*
X103971928Y-61430000D01*
X103975000Y-61944250D01*
X104133750Y-62103000D01*
X105283000Y-62103000D01*
X105283000Y-60953750D01*
X105537000Y-60953750D01*
X105537000Y-62103000D01*
X106686250Y-62103000D01*
X106845000Y-61944250D01*
X106848072Y-61430000D01*
X106835812Y-61305518D01*
X106799502Y-61185820D01*
X106740537Y-61075506D01*
X106661185Y-60978815D01*
X106564494Y-60899463D01*
X106454180Y-60840498D01*
X106334482Y-60804188D01*
X106210000Y-60791928D01*
X105695750Y-60795000D01*
X105537000Y-60953750D01*
X105283000Y-60953750D01*
X105124250Y-60795000D01*
X104610000Y-60791928D01*
X104485518Y-60804188D01*
X104365820Y-60840498D01*
X104255506Y-60899463D01*
X104158815Y-60978815D01*
X104079463Y-61075506D01*
X104020498Y-61185820D01*
X103984188Y-61305518D01*
X103971928Y-61430000D01*
X103673072Y-61430000D01*
X103660812Y-61305518D01*
X103624502Y-61185820D01*
X103565537Y-61075506D01*
X103486185Y-60978815D01*
X103389494Y-60899463D01*
X103279180Y-60840498D01*
X103159482Y-60804188D01*
X103035000Y-60791928D01*
X102520750Y-60795000D01*
X102362000Y-60953750D01*
X102108000Y-60953750D01*
X101949250Y-60795000D01*
X101435000Y-60791928D01*
X101310518Y-60804188D01*
X101190820Y-60840498D01*
X101080506Y-60899463D01*
X100990000Y-60973739D01*
X100990000Y-60968951D01*
X100991524Y-60912986D01*
X100984526Y-60872006D01*
X100980450Y-60830617D01*
X100973607Y-60808059D01*
X100969641Y-60784833D01*
X100954781Y-60746000D01*
X100942710Y-60706207D01*
X100916315Y-60656826D01*
X99906938Y-58638072D01*
X100930000Y-58638072D01*
X101103254Y-58621008D01*
X101269850Y-58570472D01*
X101423386Y-58488405D01*
X101557962Y-58377962D01*
X101668405Y-58243386D01*
X101736285Y-58116392D01*
X101923368Y-58303475D01*
X102166589Y-58465990D01*
X102436842Y-58577932D01*
X102723740Y-58635000D01*
X103016260Y-58635000D01*
X103303158Y-58577932D01*
X103573411Y-58465990D01*
X103816632Y-58303475D01*
X104023475Y-58096632D01*
X104140000Y-57922240D01*
X104256525Y-58096632D01*
X104463368Y-58303475D01*
X104706589Y-58465990D01*
X104976842Y-58577932D01*
X105263740Y-58635000D01*
X105556260Y-58635000D01*
X105843158Y-58577932D01*
X106113411Y-58465990D01*
X106356632Y-58303475D01*
X106563475Y-58096632D01*
X106680000Y-57922240D01*
X106796525Y-58096632D01*
X107003368Y-58303475D01*
X107246589Y-58465990D01*
X107516842Y-58577932D01*
X107803740Y-58635000D01*
X108096260Y-58635000D01*
X108383158Y-58577932D01*
X108653411Y-58465990D01*
X108896632Y-58303475D01*
X109103475Y-58096632D01*
X109220000Y-57922240D01*
X109336525Y-58096632D01*
X109543368Y-58303475D01*
X109786589Y-58465990D01*
X110056842Y-58577932D01*
X110343740Y-58635000D01*
X110636260Y-58635000D01*
X110923158Y-58577932D01*
X111193411Y-58465990D01*
X111436632Y-58303475D01*
X111643475Y-58096632D01*
X111760000Y-57922240D01*
X111876525Y-58096632D01*
X112083368Y-58303475D01*
X112326589Y-58465990D01*
X112596842Y-58577932D01*
X112883740Y-58635000D01*
X113176260Y-58635000D01*
X113463158Y-58577932D01*
X113733411Y-58465990D01*
X113976632Y-58303475D01*
X114183475Y-58096632D01*
X114300000Y-57922240D01*
X114416525Y-58096632D01*
X114623368Y-58303475D01*
X114866589Y-58465990D01*
X115136842Y-58577932D01*
X115423740Y-58635000D01*
X115716260Y-58635000D01*
X116003158Y-58577932D01*
X116273411Y-58465990D01*
X116516632Y-58303475D01*
X116723475Y-58096632D01*
X116840000Y-57922240D01*
X116956525Y-58096632D01*
X117163368Y-58303475D01*
X117406589Y-58465990D01*
X117676842Y-58577932D01*
X117963740Y-58635000D01*
X118256260Y-58635000D01*
X118543158Y-58577932D01*
X118813411Y-58465990D01*
X119056632Y-58303475D01*
X119263475Y-58096632D01*
X119380000Y-57922240D01*
X119496525Y-58096632D01*
X119703368Y-58303475D01*
X119946589Y-58465990D01*
X120216842Y-58577932D01*
X120503740Y-58635000D01*
X120796260Y-58635000D01*
X121083158Y-58577932D01*
X121353411Y-58465990D01*
X121596632Y-58303475D01*
X121803475Y-58096632D01*
X121920000Y-57922240D01*
X122036525Y-58096632D01*
G37*
%TD.AperFunction*%
D15*
X123383748Y-54595858D02*
X123369605Y-54610000D01*
X123383748Y-54624143D01*
X123204143Y-54803748D01*
X123190000Y-54789605D01*
X122341208Y-55638397D01*
X122416729Y-55880689D01*
X122243368Y-55996525D01*
X122036525Y-56203368D01*
X121920000Y-56377760D01*
X121803475Y-56203368D01*
X121596632Y-55996525D01*
X121423271Y-55880689D01*
X121498792Y-55638397D01*
X120650000Y-54789605D01*
X119801208Y-55638397D01*
X119876729Y-55880689D01*
X119703368Y-55996525D01*
X119496525Y-56203368D01*
X119380000Y-56377760D01*
X119263475Y-56203368D01*
X119056632Y-55996525D01*
X118883271Y-55880689D01*
X118958792Y-55638397D01*
X118110000Y-54789605D01*
X117261208Y-55638397D01*
X117336729Y-55880689D01*
X117163368Y-55996525D01*
X116956525Y-56203368D01*
X116840000Y-56377760D01*
X116723475Y-56203368D01*
X116516632Y-55996525D01*
X116343271Y-55880689D01*
X116418792Y-55638397D01*
X115570000Y-54789605D01*
X114721208Y-55638397D01*
X114796729Y-55880689D01*
X114623368Y-55996525D01*
X114416525Y-56203368D01*
X114300000Y-56377760D01*
X114183475Y-56203368D01*
X113976632Y-55996525D01*
X113803271Y-55880689D01*
X113878792Y-55638397D01*
X113030000Y-54789605D01*
X112181208Y-55638397D01*
X112256729Y-55880689D01*
X112083368Y-55996525D01*
X111876525Y-56203368D01*
X111760000Y-56377760D01*
X111643475Y-56203368D01*
X111436632Y-55996525D01*
X111263271Y-55880689D01*
X111338792Y-55638397D01*
X110490000Y-54789605D01*
X109641208Y-55638397D01*
X109716729Y-55880689D01*
X109543368Y-55996525D01*
X109336525Y-56203368D01*
X109220000Y-56377760D01*
X109103475Y-56203368D01*
X108896632Y-55996525D01*
X108723271Y-55880689D01*
X108798792Y-55638397D01*
X107950000Y-54789605D01*
X107101208Y-55638397D01*
X107176729Y-55880689D01*
X107003368Y-55996525D01*
X106796525Y-56203368D01*
X106680000Y-56377760D01*
X106563475Y-56203368D01*
X106356632Y-55996525D01*
X106183271Y-55880689D01*
X106258792Y-55638397D01*
X105410000Y-54789605D01*
X104561208Y-55638397D01*
X104636729Y-55880689D01*
X104463368Y-55996525D01*
X104256525Y-56203368D01*
X104140000Y-56377760D01*
X104023475Y-56203368D01*
X103816632Y-55996525D01*
X103643271Y-55880689D01*
X103718792Y-55638397D01*
X102870000Y-54789605D01*
X102021208Y-55638397D01*
X102096729Y-55880689D01*
X101923368Y-55996525D01*
X101736285Y-56183608D01*
X101668405Y-56056614D01*
X101557962Y-55922038D01*
X101423386Y-55811595D01*
X101269850Y-55729528D01*
X101160707Y-55696420D01*
X101178792Y-55638397D01*
X100330000Y-54789605D01*
X100315858Y-54803748D01*
X100136253Y-54624143D01*
X100150395Y-54610000D01*
X100136253Y-54595858D01*
X100315858Y-54416253D01*
X100330000Y-54430395D01*
X100344143Y-54416253D01*
X100523748Y-54595858D01*
X100509605Y-54610000D01*
X101358397Y-55458792D01*
X101600000Y-55383486D01*
X101841603Y-55458792D01*
X102690395Y-54610000D01*
X102676253Y-54595858D01*
X102855858Y-54416253D01*
X102870000Y-54430395D01*
X102884143Y-54416253D01*
X103063748Y-54595858D01*
X103049605Y-54610000D01*
X103898397Y-55458792D01*
X104140000Y-55383486D01*
X104381603Y-55458792D01*
X105230395Y-54610000D01*
X105216253Y-54595858D01*
X105395858Y-54416253D01*
X105410000Y-54430395D01*
X105424143Y-54416253D01*
X105603748Y-54595858D01*
X105589605Y-54610000D01*
X106438397Y-55458792D01*
X106680000Y-55383486D01*
X106921603Y-55458792D01*
X107770395Y-54610000D01*
X107756253Y-54595858D01*
X107935858Y-54416253D01*
X107950000Y-54430395D01*
X107964143Y-54416253D01*
X108143748Y-54595858D01*
X108129605Y-54610000D01*
X108978397Y-55458792D01*
X109220000Y-55383486D01*
X109461603Y-55458792D01*
X110310395Y-54610000D01*
X110296253Y-54595858D01*
X110475858Y-54416253D01*
X110490000Y-54430395D01*
X110504143Y-54416253D01*
X110683748Y-54595858D01*
X110669605Y-54610000D01*
X111518397Y-55458792D01*
X111760000Y-55383486D01*
X112001603Y-55458792D01*
X112850395Y-54610000D01*
X112836253Y-54595858D01*
X113015858Y-54416253D01*
X113030000Y-54430395D01*
X113044143Y-54416253D01*
X113223748Y-54595858D01*
X113209605Y-54610000D01*
X114058397Y-55458792D01*
X114300000Y-55383486D01*
X114541603Y-55458792D01*
X115390395Y-54610000D01*
X115376253Y-54595858D01*
X115555858Y-54416253D01*
X115570000Y-54430395D01*
X115584143Y-54416253D01*
X115763748Y-54595858D01*
X115749605Y-54610000D01*
X116598397Y-55458792D01*
X116840000Y-55383486D01*
X117081603Y-55458792D01*
X117930395Y-54610000D01*
X117916253Y-54595858D01*
X118095858Y-54416253D01*
X118110000Y-54430395D01*
X118124143Y-54416253D01*
X118303748Y-54595858D01*
X118289605Y-54610000D01*
X119138397Y-55458792D01*
X119380000Y-55383486D01*
X119621603Y-55458792D01*
X120470395Y-54610000D01*
X120456253Y-54595858D01*
X120635858Y-54416253D01*
X120650000Y-54430395D01*
X120664143Y-54416253D01*
X120843748Y-54595858D01*
X120829605Y-54610000D01*
X121678397Y-55458792D01*
X121920000Y-55383486D01*
X122161603Y-55458792D01*
X123010395Y-54610000D01*
X122996253Y-54595858D01*
X123175858Y-54416253D01*
X123190000Y-54430395D01*
X123204143Y-54416253D01*
X123383748Y-54595858D01*
%TA.AperFunction,Conductor*%
D16*
G36*
X123383748Y-54595858D02*
G01*
X123369605Y-54610000D01*
X123383748Y-54624143D01*
X123204143Y-54803748D01*
X123190000Y-54789605D01*
X122341208Y-55638397D01*
X122416729Y-55880689D01*
X122243368Y-55996525D01*
X122036525Y-56203368D01*
X121920000Y-56377760D01*
X121803475Y-56203368D01*
X121596632Y-55996525D01*
X121423271Y-55880689D01*
X121498792Y-55638397D01*
X120650000Y-54789605D01*
X119801208Y-55638397D01*
X119876729Y-55880689D01*
X119703368Y-55996525D01*
X119496525Y-56203368D01*
X119380000Y-56377760D01*
X119263475Y-56203368D01*
X119056632Y-55996525D01*
X118883271Y-55880689D01*
X118958792Y-55638397D01*
X118110000Y-54789605D01*
X117261208Y-55638397D01*
X117336729Y-55880689D01*
X117163368Y-55996525D01*
X116956525Y-56203368D01*
X116840000Y-56377760D01*
X116723475Y-56203368D01*
X116516632Y-55996525D01*
X116343271Y-55880689D01*
X116418792Y-55638397D01*
X115570000Y-54789605D01*
X114721208Y-55638397D01*
X114796729Y-55880689D01*
X114623368Y-55996525D01*
X114416525Y-56203368D01*
X114300000Y-56377760D01*
X114183475Y-56203368D01*
X113976632Y-55996525D01*
X113803271Y-55880689D01*
X113878792Y-55638397D01*
X113030000Y-54789605D01*
X112181208Y-55638397D01*
X112256729Y-55880689D01*
X112083368Y-55996525D01*
X111876525Y-56203368D01*
X111760000Y-56377760D01*
X111643475Y-56203368D01*
X111436632Y-55996525D01*
X111263271Y-55880689D01*
X111338792Y-55638397D01*
X110490000Y-54789605D01*
X109641208Y-55638397D01*
X109716729Y-55880689D01*
X109543368Y-55996525D01*
X109336525Y-56203368D01*
X109220000Y-56377760D01*
X109103475Y-56203368D01*
X108896632Y-55996525D01*
X108723271Y-55880689D01*
X108798792Y-55638397D01*
X107950000Y-54789605D01*
X107101208Y-55638397D01*
X107176729Y-55880689D01*
X107003368Y-55996525D01*
X106796525Y-56203368D01*
X106680000Y-56377760D01*
X106563475Y-56203368D01*
X106356632Y-55996525D01*
X106183271Y-55880689D01*
X106258792Y-55638397D01*
X105410000Y-54789605D01*
X104561208Y-55638397D01*
X104636729Y-55880689D01*
X104463368Y-55996525D01*
X104256525Y-56203368D01*
X104140000Y-56377760D01*
X104023475Y-56203368D01*
X103816632Y-55996525D01*
X103643271Y-55880689D01*
X103718792Y-55638397D01*
X102870000Y-54789605D01*
X102021208Y-55638397D01*
X102096729Y-55880689D01*
X101923368Y-55996525D01*
X101736285Y-56183608D01*
X101668405Y-56056614D01*
X101557962Y-55922038D01*
X101423386Y-55811595D01*
X101269850Y-55729528D01*
X101160707Y-55696420D01*
X101178792Y-55638397D01*
X100330000Y-54789605D01*
X100315858Y-54803748D01*
X100136253Y-54624143D01*
X100150395Y-54610000D01*
X100136253Y-54595858D01*
X100315858Y-54416253D01*
X100330000Y-54430395D01*
X100344143Y-54416253D01*
X100523748Y-54595858D01*
X100509605Y-54610000D01*
X101358397Y-55458792D01*
X101600000Y-55383486D01*
X101841603Y-55458792D01*
X102690395Y-54610000D01*
X102676253Y-54595858D01*
X102855858Y-54416253D01*
X102870000Y-54430395D01*
X102884143Y-54416253D01*
X103063748Y-54595858D01*
X103049605Y-54610000D01*
X103898397Y-55458792D01*
X104140000Y-55383486D01*
X104381603Y-55458792D01*
X105230395Y-54610000D01*
X105216253Y-54595858D01*
X105395858Y-54416253D01*
X105410000Y-54430395D01*
X105424143Y-54416253D01*
X105603748Y-54595858D01*
X105589605Y-54610000D01*
X106438397Y-55458792D01*
X106680000Y-55383486D01*
X106921603Y-55458792D01*
X107770395Y-54610000D01*
X107756253Y-54595858D01*
X107935858Y-54416253D01*
X107950000Y-54430395D01*
X107964143Y-54416253D01*
X108143748Y-54595858D01*
X108129605Y-54610000D01*
X108978397Y-55458792D01*
X109220000Y-55383486D01*
X109461603Y-55458792D01*
X110310395Y-54610000D01*
X110296253Y-54595858D01*
X110475858Y-54416253D01*
X110490000Y-54430395D01*
X110504143Y-54416253D01*
X110683748Y-54595858D01*
X110669605Y-54610000D01*
X111518397Y-55458792D01*
X111760000Y-55383486D01*
X112001603Y-55458792D01*
X112850395Y-54610000D01*
X112836253Y-54595858D01*
X113015858Y-54416253D01*
X113030000Y-54430395D01*
X113044143Y-54416253D01*
X113223748Y-54595858D01*
X113209605Y-54610000D01*
X114058397Y-55458792D01*
X114300000Y-55383486D01*
X114541603Y-55458792D01*
X115390395Y-54610000D01*
X115376253Y-54595858D01*
X115555858Y-54416253D01*
X115570000Y-54430395D01*
X115584143Y-54416253D01*
X115763748Y-54595858D01*
X115749605Y-54610000D01*
X116598397Y-55458792D01*
X116840000Y-55383486D01*
X117081603Y-55458792D01*
X117930395Y-54610000D01*
X117916253Y-54595858D01*
X118095858Y-54416253D01*
X118110000Y-54430395D01*
X118124143Y-54416253D01*
X118303748Y-54595858D01*
X118289605Y-54610000D01*
X119138397Y-55458792D01*
X119380000Y-55383486D01*
X119621603Y-55458792D01*
X120470395Y-54610000D01*
X120456253Y-54595858D01*
X120635858Y-54416253D01*
X120650000Y-54430395D01*
X120664143Y-54416253D01*
X120843748Y-54595858D01*
X120829605Y-54610000D01*
X121678397Y-55458792D01*
X121920000Y-55383486D01*
X122161603Y-55458792D01*
X123010395Y-54610000D01*
X122996253Y-54595858D01*
X123175858Y-54416253D01*
X123190000Y-54430395D01*
X123204143Y-54416253D01*
X123383748Y-54595858D01*
G37*
%TD.AperFunction*%
%TD*%
M02*
