%TF.GenerationSoftware,KiCad,Pcbnew,(5.1.8)-1*%
%TF.CreationDate,2021-04-29T22:43:58+02:00*%
%TF.ProjectId,C64 1541-II VIA Adapter,43363420-3135-4343-912d-494920564941,rev?*%
%TF.SameCoordinates,Original*%
%TF.FileFunction,Copper,L1,Top*%
%TF.FilePolarity,Positive*%
%FSLAX46Y46*%
G04 Gerber Fmt 4.6, Leading zero omitted, Abs format (unit mm)*
G04 Created by KiCad (PCBNEW (5.1.8)-1) date 2021-04-29 22:43:58*
%MOMM*%
%LPD*%
G01*
G04 APERTURE LIST*
%TA.AperFunction,ComponentPad*%
%ADD10C,1.700000*%
%TD*%
%TA.AperFunction,ComponentPad*%
%ADD11O,1.600000X1.600000*%
%TD*%
%TA.AperFunction,ComponentPad*%
%ADD12R,1.600000X1.600000*%
%TD*%
%TA.AperFunction,SMDPad,CuDef*%
%ADD13R,2.000000X1.500000*%
%TD*%
%TA.AperFunction,ViaPad*%
%ADD14C,0.800000*%
%TD*%
%TA.AperFunction,Conductor*%
%ADD15C,0.381000*%
%TD*%
%TA.AperFunction,Conductor*%
%ADD16C,0.250000*%
%TD*%
G04 APERTURE END LIST*
D10*
%TO.P,J2,11*%
%TO.N,Net-(J2-Pad11)*%
X102235000Y-53975000D03*
X104775000Y-53975000D03*
X107315000Y-53975000D03*
X109855000Y-53975000D03*
X112395000Y-53975000D03*
X114935000Y-53975000D03*
X117475000Y-53975000D03*
X120015000Y-53975000D03*
X122555000Y-53975000D03*
%TO.P,J2,10*%
%TO.N,/CB1*%
X125095000Y-56515000D03*
%TO.P,J2,8*%
%TO.N,/PA6*%
X120015000Y-56515000D03*
%TO.P,J2,6*%
%TO.N,/PA4*%
X114935000Y-56515000D03*
%TO.P,J2,4*%
%TO.N,/PA2*%
X109855000Y-56515000D03*
%TO.P,J2,2*%
%TO.N,/PA0*%
X104775000Y-56515000D03*
%TO.P,J2,11*%
%TO.N,Net-(J2-Pad11)*%
X125095000Y-53975000D03*
%TO.P,J2,9*%
%TO.N,/PA7*%
X122555000Y-56515000D03*
%TO.P,J2,7*%
%TO.N,/PA5*%
X117475000Y-56515000D03*
%TO.P,J2,5*%
%TO.N,/PA3*%
X112395000Y-56515000D03*
%TO.P,J2,3*%
%TO.N,/PA1*%
X107315000Y-56515000D03*
%TO.P,J2,1*%
%TO.N,/CA2*%
%TA.AperFunction,ComponentPad*%
G36*
G01*
X102835000Y-57365000D02*
X101635000Y-57365000D01*
G75*
G02*
X101385000Y-57115000I0J250000D01*
G01*
X101385000Y-55915000D01*
G75*
G02*
X101635000Y-55665000I250000J0D01*
G01*
X102835000Y-55665000D01*
G75*
G02*
X103085000Y-55915000I0J-250000D01*
G01*
X103085000Y-57115000D01*
G75*
G02*
X102835000Y-57365000I-250000J0D01*
G01*
G37*
%TD.AperFunction*%
%TD*%
D11*
%TO.P,A1,40*%
%TO.N,/CA1*%
X117475000Y-62230000D03*
%TO.P,A1,20*%
%TO.N,VCC*%
X102235000Y-110490000D03*
%TO.P,A1,39*%
%TO.N,/CA2*%
X117475000Y-64770000D03*
%TO.P,A1,19*%
%TO.N,/CB2*%
X102235000Y-107950000D03*
%TO.P,A1,38*%
%TO.N,/RS0*%
X117475000Y-67310000D03*
%TO.P,A1,18*%
%TO.N,/CB1*%
X102235000Y-105410000D03*
%TO.P,A1,37*%
%TO.N,/RS1*%
X117475000Y-69850000D03*
%TO.P,A1,17*%
%TO.N,/PB7*%
X102235000Y-102870000D03*
%TO.P,A1,36*%
%TO.N,/RS2*%
X117475000Y-72390000D03*
%TO.P,A1,16*%
%TO.N,/PB6*%
X102235000Y-100330000D03*
%TO.P,A1,35*%
%TO.N,/RS3*%
X117475000Y-74930000D03*
%TO.P,A1,15*%
%TO.N,/PB5*%
X102235000Y-97790000D03*
%TO.P,A1,34*%
%TO.N,/~RESET*%
X117475000Y-77470000D03*
%TO.P,A1,14*%
%TO.N,/PB4*%
X102235000Y-95250000D03*
%TO.P,A1,33*%
%TO.N,/D0*%
X117475000Y-80010000D03*
%TO.P,A1,13*%
%TO.N,/PB3*%
X102235000Y-92710000D03*
%TO.P,A1,32*%
%TO.N,/D1*%
X117475000Y-82550000D03*
%TO.P,A1,12*%
%TO.N,/PB2*%
X102235000Y-90170000D03*
%TO.P,A1,31*%
%TO.N,/D2*%
X117475000Y-85090000D03*
%TO.P,A1,11*%
%TO.N,/PB1*%
X102235000Y-87630000D03*
%TO.P,A1,30*%
%TO.N,/D3*%
X117475000Y-87630000D03*
%TO.P,A1,10*%
%TO.N,/PB0*%
X102235000Y-85090000D03*
%TO.P,A1,29*%
%TO.N,/D4*%
X117475000Y-90170000D03*
%TO.P,A1,9*%
%TO.N,/PA7*%
X102235000Y-82550000D03*
%TO.P,A1,28*%
%TO.N,/D5*%
X117475000Y-92710000D03*
%TO.P,A1,8*%
%TO.N,/PA6*%
X102235000Y-80010000D03*
%TO.P,A1,27*%
%TO.N,/D6*%
X117475000Y-95250000D03*
%TO.P,A1,7*%
%TO.N,/PA5*%
X102235000Y-77470000D03*
%TO.P,A1,26*%
%TO.N,/D7*%
X117475000Y-97790000D03*
%TO.P,A1,6*%
%TO.N,/PA4*%
X102235000Y-74930000D03*
%TO.P,A1,25*%
%TO.N,/PHI2*%
X117475000Y-100330000D03*
%TO.P,A1,5*%
%TO.N,/PA3*%
X102235000Y-72390000D03*
%TO.P,A1,24*%
%TO.N,/CS1*%
X117475000Y-102870000D03*
%TO.P,A1,4*%
%TO.N,/PA2*%
X102235000Y-69850000D03*
%TO.P,A1,23*%
%TO.N,/~CS2*%
X117475000Y-105410000D03*
%TO.P,A1,3*%
%TO.N,/PA1*%
X102235000Y-67310000D03*
%TO.P,A1,22*%
%TO.N,/R_~W*%
X117475000Y-107950000D03*
%TO.P,A1,2*%
%TO.N,/PA0*%
X102235000Y-64770000D03*
%TO.P,A1,21*%
%TO.N,/~IRQ*%
X117475000Y-110490000D03*
D12*
%TO.P,A1,1*%
%TO.N,GND*%
X102235000Y-62230000D03*
%TD*%
%TO.P,U1,1*%
%TO.N,GND*%
X105410000Y-62230000D03*
D11*
%TO.P,U1,21*%
%TO.N,/~IRQ*%
X120650000Y-110490000D03*
%TO.P,U1,2*%
%TO.N,/PA0*%
X105410000Y-64770000D03*
%TO.P,U1,22*%
%TO.N,/R_~W*%
X120650000Y-107950000D03*
%TO.P,U1,3*%
%TO.N,/PA1*%
X105410000Y-67310000D03*
%TO.P,U1,23*%
%TO.N,/~CS2*%
X120650000Y-105410000D03*
%TO.P,U1,4*%
%TO.N,/PA2*%
X105410000Y-69850000D03*
%TO.P,U1,24*%
%TO.N,/CS1*%
X120650000Y-102870000D03*
%TO.P,U1,5*%
%TO.N,/PA3*%
X105410000Y-72390000D03*
%TO.P,U1,25*%
%TO.N,/PHI2*%
X120650000Y-100330000D03*
%TO.P,U1,6*%
%TO.N,/PA4*%
X105410000Y-74930000D03*
%TO.P,U1,26*%
%TO.N,/D7*%
X120650000Y-97790000D03*
%TO.P,U1,7*%
%TO.N,/PA5*%
X105410000Y-77470000D03*
%TO.P,U1,27*%
%TO.N,/D6*%
X120650000Y-95250000D03*
%TO.P,U1,8*%
%TO.N,/PA6*%
X105410000Y-80010000D03*
%TO.P,U1,28*%
%TO.N,/D5*%
X120650000Y-92710000D03*
%TO.P,U1,9*%
%TO.N,/PA7*%
X105410000Y-82550000D03*
%TO.P,U1,29*%
%TO.N,/D4*%
X120650000Y-90170000D03*
%TO.P,U1,10*%
%TO.N,/PB0*%
X105410000Y-85090000D03*
%TO.P,U1,30*%
%TO.N,/D3*%
X120650000Y-87630000D03*
%TO.P,U1,11*%
%TO.N,/PB1*%
X105410000Y-87630000D03*
%TO.P,U1,31*%
%TO.N,/D2*%
X120650000Y-85090000D03*
%TO.P,U1,12*%
%TO.N,/PB2*%
X105410000Y-90170000D03*
%TO.P,U1,32*%
%TO.N,/D1*%
X120650000Y-82550000D03*
%TO.P,U1,13*%
%TO.N,/PB3*%
X105410000Y-92710000D03*
%TO.P,U1,33*%
%TO.N,/D0*%
X120650000Y-80010000D03*
%TO.P,U1,14*%
%TO.N,/PB4*%
X105410000Y-95250000D03*
%TO.P,U1,34*%
%TO.N,/~RESET*%
X120650000Y-77470000D03*
%TO.P,U1,15*%
%TO.N,/PB5*%
X105410000Y-97790000D03*
%TO.P,U1,35*%
%TO.N,/RS3*%
X120650000Y-74930000D03*
%TO.P,U1,16*%
%TO.N,/PB6*%
X105410000Y-100330000D03*
%TO.P,U1,36*%
%TO.N,/RS2*%
X120650000Y-72390000D03*
%TO.P,U1,17*%
%TO.N,/PB7*%
X105410000Y-102870000D03*
%TO.P,U1,37*%
%TO.N,/RS1*%
X120650000Y-69850000D03*
%TO.P,U1,18*%
%TO.N,/CB1*%
X105410000Y-105410000D03*
%TO.P,U1,38*%
%TO.N,/RS0*%
X120650000Y-67310000D03*
%TO.P,U1,19*%
%TO.N,/CB2*%
X105410000Y-107950000D03*
%TO.P,U1,39*%
%TO.N,/CA2*%
X120650000Y-64770000D03*
%TO.P,U1,20*%
%TO.N,VCC*%
X105410000Y-110490000D03*
%TO.P,U1,40*%
%TO.N,/CA1*%
X120650000Y-62230000D03*
%TD*%
D13*
%TO.P,JP1,2*%
%TO.N,GND*%
X113665000Y-67945000D03*
%TO.P,JP1,1*%
%TO.N,Net-(J2-Pad11)*%
X113665000Y-66040000D03*
%TD*%
D14*
%TO.N,GND*%
X113665000Y-69850000D03*
%TO.N,Net-(J2-Pad11)*%
X113665000Y-64135000D03*
%TD*%
D15*
%TO.N,GND*%
X113665000Y-67945000D02*
X113665000Y-69850000D01*
D16*
%TO.N,/~IRQ*%
X117475000Y-110490000D02*
X120650000Y-110490000D01*
%TO.N,/R_~W*%
X120650000Y-107950000D02*
X117475000Y-107950000D01*
%TO.N,/~CS2*%
X117475000Y-105410000D02*
X120650000Y-105410000D01*
%TO.N,/CS1*%
X117475000Y-102870000D02*
X120650000Y-102870000D01*
%TO.N,/PHI2*%
X120650000Y-100330000D02*
X117475000Y-100330000D01*
%TO.N,/D7*%
X117475000Y-97790000D02*
X120650000Y-97790000D01*
%TO.N,/D6*%
X120650000Y-95250000D02*
X117475000Y-95250000D01*
%TO.N,/D5*%
X117475000Y-92710000D02*
X120650000Y-92710000D01*
%TO.N,/D4*%
X120650000Y-90170000D02*
X117475000Y-90170000D01*
%TO.N,/PB0*%
X102235000Y-85090000D02*
X105410000Y-85090000D01*
%TO.N,/D3*%
X117475000Y-87630000D02*
X120650000Y-87630000D01*
%TO.N,/PB1*%
X105410000Y-87630000D02*
X102235000Y-87630000D01*
%TO.N,/D2*%
X120650000Y-85090000D02*
X117475000Y-85090000D01*
%TO.N,/PB2*%
X102235000Y-90170000D02*
X105410000Y-90170000D01*
%TO.N,/D1*%
X117475000Y-82550000D02*
X120650000Y-82550000D01*
%TO.N,/PB3*%
X105410000Y-92710000D02*
X102235000Y-92710000D01*
%TO.N,/D0*%
X120650000Y-80010000D02*
X117475000Y-80010000D01*
%TO.N,/PB4*%
X102235000Y-95250000D02*
X105410000Y-95250000D01*
%TO.N,/~RESET*%
X117475000Y-77470000D02*
X120650000Y-77470000D01*
%TO.N,/PB5*%
X105410000Y-97790000D02*
X102235000Y-97790000D01*
%TO.N,/RS3*%
X120650000Y-74930000D02*
X117475000Y-74930000D01*
%TO.N,/PB6*%
X102235000Y-100330000D02*
X105410000Y-100330000D01*
%TO.N,/RS2*%
X117475000Y-72390000D02*
X120650000Y-72390000D01*
%TO.N,/PB7*%
X105410000Y-102870000D02*
X102235000Y-102870000D01*
%TO.N,/RS1*%
X120650000Y-69850000D02*
X117475000Y-69850000D01*
%TO.N,/RS0*%
X117475000Y-67310000D02*
X120650000Y-67310000D01*
%TO.N,/CB2*%
X102235000Y-107950000D02*
X105410000Y-107950000D01*
D15*
%TO.N,VCC*%
X105410000Y-110490000D02*
X102235000Y-110490000D01*
D16*
%TO.N,/CA2*%
X119380000Y-64770000D02*
X120650000Y-64770000D01*
X117475000Y-64770000D02*
X119380000Y-64770000D01*
X103505000Y-55245000D02*
X102235000Y-56515000D01*
X123190000Y-55245000D02*
X103505000Y-55245000D01*
X123825000Y-57783590D02*
X123825000Y-55880000D01*
X123825000Y-55880000D02*
X123190000Y-55245000D01*
X122553590Y-59055000D02*
X123825000Y-57783590D01*
X121285000Y-59055000D02*
X122553590Y-59055000D01*
X119380000Y-60960000D02*
X121285000Y-59055000D01*
X119380000Y-64770000D02*
X119380000Y-60960000D01*
%TO.N,/PA1*%
X107315000Y-67310000D02*
X105410000Y-67310000D01*
X107950000Y-66675000D02*
X107315000Y-67310000D01*
X107950000Y-59055000D02*
X107950000Y-66675000D01*
X107315000Y-58420000D02*
X107950000Y-59055000D01*
X107315000Y-56515000D02*
X107315000Y-58420000D01*
X102235000Y-67310000D02*
X105410000Y-67310000D01*
%TO.N,/PA3*%
X112395000Y-56515000D02*
X112395000Y-57150000D01*
X112395000Y-57785000D02*
X112395000Y-56515000D01*
X109220000Y-60960000D02*
X112395000Y-57785000D01*
X109220000Y-71755000D02*
X109220000Y-60960000D01*
X108585000Y-72390000D02*
X109220000Y-71755000D01*
X105410000Y-72390000D02*
X108585000Y-72390000D01*
X102235000Y-72390000D02*
X105410000Y-72390000D01*
%TO.N,/PA5*%
X110490000Y-76835000D02*
X110490000Y-62230000D01*
X109855000Y-77470000D02*
X110490000Y-76835000D01*
X105410000Y-77470000D02*
X109855000Y-77470000D01*
X117475000Y-57150000D02*
X117475000Y-58420000D01*
X117475000Y-58420000D02*
X116840000Y-59055000D01*
X116840000Y-59055000D02*
X113665000Y-59055000D01*
X110490000Y-62230000D02*
X113665000Y-59055000D01*
X102235000Y-77470000D02*
X105410000Y-77470000D01*
%TO.N,/PA7*%
X111125000Y-82550000D02*
X105410000Y-82550000D01*
X111760000Y-81915000D02*
X111125000Y-82550000D01*
X111760000Y-63500000D02*
X111760000Y-81915000D01*
X114935000Y-60325000D02*
X111760000Y-63500000D01*
X121920000Y-58420000D02*
X120650000Y-58420000D01*
X120650000Y-58420000D02*
X118745000Y-60325000D01*
X122555000Y-57785000D02*
X121920000Y-58420000D01*
X118745000Y-60325000D02*
X114935000Y-60325000D01*
X122555000Y-56515000D02*
X122555000Y-57150000D01*
X122555000Y-57785000D02*
X122555000Y-56515000D01*
X102235000Y-82550000D02*
X105410000Y-82550000D01*
%TO.N,/PA0*%
X107315000Y-60960000D02*
X107315000Y-64135000D01*
X106680000Y-64770000D02*
X105410000Y-64770000D01*
X107315000Y-64135000D02*
X106680000Y-64770000D01*
X104775000Y-57150000D02*
X107315000Y-59690000D01*
X107315000Y-59690000D02*
X107315000Y-60960000D01*
X105410000Y-64770000D02*
X102235000Y-64770000D01*
%TO.N,/PA2*%
X107950000Y-69850000D02*
X105410000Y-69850000D01*
X108585000Y-69215000D02*
X107950000Y-69850000D01*
X108585000Y-60960000D02*
X108585000Y-60325000D01*
X108585000Y-60960000D02*
X108585000Y-69215000D01*
X109855000Y-59055000D02*
X109855000Y-57150000D01*
X108585000Y-60325000D02*
X109855000Y-59055000D01*
X105410000Y-69850000D02*
X102235000Y-69850000D01*
%TO.N,/PA4*%
X109855000Y-61595000D02*
X113030000Y-58420000D01*
X109855000Y-74295000D02*
X109855000Y-61595000D01*
X109220000Y-74930000D02*
X109855000Y-74295000D01*
X105410000Y-74930000D02*
X109220000Y-74930000D01*
X114935000Y-56515000D02*
X114935000Y-57150000D01*
X114300000Y-58420000D02*
X113030000Y-58420000D01*
X114935000Y-57785000D02*
X114300000Y-58420000D01*
X114935000Y-56515000D02*
X114935000Y-57785000D01*
X105410000Y-74930000D02*
X102235000Y-74930000D01*
%TO.N,/PA6*%
X110490000Y-80010000D02*
X105410000Y-80010000D01*
X111125000Y-79375000D02*
X110490000Y-80010000D01*
X111125000Y-62865000D02*
X111125000Y-79375000D01*
X114300000Y-59690000D02*
X111125000Y-62865000D01*
X118110000Y-59690000D02*
X114300000Y-59690000D01*
X120015000Y-57785000D02*
X118110000Y-59690000D01*
X120015000Y-56515000D02*
X120015000Y-57150000D01*
X120015000Y-57785000D02*
X120015000Y-56515000D01*
X105410000Y-80010000D02*
X102235000Y-80010000D01*
%TO.N,/CB1*%
X102235000Y-105410000D02*
X105410000Y-105410000D01*
X112395000Y-98425000D02*
X105410000Y-105410000D01*
X112395000Y-72390000D02*
X112395000Y-98425000D01*
X121285000Y-71120000D02*
X113665000Y-71120000D01*
X121920000Y-70485000D02*
X121285000Y-71120000D01*
X121920000Y-60325000D02*
X121920000Y-70485000D01*
X113665000Y-71120000D02*
X112395000Y-72390000D01*
X125095000Y-57150000D02*
X121920000Y-60325000D01*
D15*
%TO.N,Net-(J2-Pad11)*%
X113665000Y-64135000D02*
X113665000Y-66040000D01*
%TD*%
M02*
