%TF.GenerationSoftware,KiCad,Pcbnew,(5.1.8)-1*%
%TF.CreationDate,2021-04-29T22:43:58+02:00*%
%TF.ProjectId,C64 1541-II VIA Adapter,43363420-3135-4343-912d-494920564941,rev?*%
%TF.SameCoordinates,Original*%
%TF.FileFunction,Legend,Top*%
%TF.FilePolarity,Positive*%
%FSLAX46Y46*%
G04 Gerber Fmt 4.6, Leading zero omitted, Abs format (unit mm)*
G04 Created by KiCad (PCBNEW (5.1.8)-1) date 2021-04-29 22:43:58*
%MOMM*%
%LPD*%
G01*
G04 APERTURE LIST*
%ADD10C,0.150000*%
%ADD11C,0.120000*%
G04 APERTURE END LIST*
D10*
X111927142Y-95050476D02*
X111974761Y-95098095D01*
X112022380Y-95240952D01*
X112022380Y-95336190D01*
X111974761Y-95479047D01*
X111879523Y-95574285D01*
X111784285Y-95621904D01*
X111593809Y-95669523D01*
X111450952Y-95669523D01*
X111260476Y-95621904D01*
X111165238Y-95574285D01*
X111070000Y-95479047D01*
X111022380Y-95336190D01*
X111022380Y-95240952D01*
X111070000Y-95098095D01*
X111117619Y-95050476D01*
X111022380Y-94193333D02*
X111022380Y-94383809D01*
X111070000Y-94479047D01*
X111117619Y-94526666D01*
X111260476Y-94621904D01*
X111450952Y-94669523D01*
X111831904Y-94669523D01*
X111927142Y-94621904D01*
X111974761Y-94574285D01*
X112022380Y-94479047D01*
X112022380Y-94288571D01*
X111974761Y-94193333D01*
X111927142Y-94145714D01*
X111831904Y-94098095D01*
X111593809Y-94098095D01*
X111498571Y-94145714D01*
X111450952Y-94193333D01*
X111403333Y-94288571D01*
X111403333Y-94479047D01*
X111450952Y-94574285D01*
X111498571Y-94621904D01*
X111593809Y-94669523D01*
X111355714Y-93240952D02*
X112022380Y-93240952D01*
X110974761Y-93479047D02*
X111689047Y-93717142D01*
X111689047Y-93098095D01*
X112022380Y-91431428D02*
X112022380Y-92002857D01*
X112022380Y-91717142D02*
X111022380Y-91717142D01*
X111165238Y-91812380D01*
X111260476Y-91907619D01*
X111308095Y-92002857D01*
X111022380Y-90526666D02*
X111022380Y-91002857D01*
X111498571Y-91050476D01*
X111450952Y-91002857D01*
X111403333Y-90907619D01*
X111403333Y-90669523D01*
X111450952Y-90574285D01*
X111498571Y-90526666D01*
X111593809Y-90479047D01*
X111831904Y-90479047D01*
X111927142Y-90526666D01*
X111974761Y-90574285D01*
X112022380Y-90669523D01*
X112022380Y-90907619D01*
X111974761Y-91002857D01*
X111927142Y-91050476D01*
X111355714Y-89621904D02*
X112022380Y-89621904D01*
X110974761Y-89860000D02*
X111689047Y-90098095D01*
X111689047Y-89479047D01*
X112022380Y-88574285D02*
X112022380Y-89145714D01*
X112022380Y-88860000D02*
X111022380Y-88860000D01*
X111165238Y-88955238D01*
X111260476Y-89050476D01*
X111308095Y-89145714D01*
X111641428Y-88145714D02*
X111641428Y-87383809D01*
X112022380Y-86907619D02*
X111022380Y-86907619D01*
X112022380Y-86431428D02*
X111022380Y-86431428D01*
X111022380Y-85336190D02*
X112022380Y-85002857D01*
X111022380Y-84669523D01*
X112022380Y-84336190D02*
X111022380Y-84336190D01*
X111736666Y-83907619D02*
X111736666Y-83431428D01*
X112022380Y-84002857D02*
X111022380Y-83669523D01*
X112022380Y-83336190D01*
X111736666Y-82288571D02*
X111736666Y-81812380D01*
X112022380Y-82383809D02*
X111022380Y-82050476D01*
X112022380Y-81717142D01*
X112022380Y-80955238D02*
X111022380Y-80955238D01*
X111974761Y-80955238D02*
X112022380Y-81050476D01*
X112022380Y-81240952D01*
X111974761Y-81336190D01*
X111927142Y-81383809D01*
X111831904Y-81431428D01*
X111546190Y-81431428D01*
X111450952Y-81383809D01*
X111403333Y-81336190D01*
X111355714Y-81240952D01*
X111355714Y-81050476D01*
X111403333Y-80955238D01*
X112022380Y-80050476D02*
X111498571Y-80050476D01*
X111403333Y-80098095D01*
X111355714Y-80193333D01*
X111355714Y-80383809D01*
X111403333Y-80479047D01*
X111974761Y-80050476D02*
X112022380Y-80145714D01*
X112022380Y-80383809D01*
X111974761Y-80479047D01*
X111879523Y-80526666D01*
X111784285Y-80526666D01*
X111689047Y-80479047D01*
X111641428Y-80383809D01*
X111641428Y-80145714D01*
X111593809Y-80050476D01*
X111355714Y-79574285D02*
X112355714Y-79574285D01*
X111403333Y-79574285D02*
X111355714Y-79479047D01*
X111355714Y-79288571D01*
X111403333Y-79193333D01*
X111450952Y-79145714D01*
X111546190Y-79098095D01*
X111831904Y-79098095D01*
X111927142Y-79145714D01*
X111974761Y-79193333D01*
X112022380Y-79288571D01*
X112022380Y-79479047D01*
X111974761Y-79574285D01*
X111355714Y-78812380D02*
X111355714Y-78431428D01*
X111022380Y-78669523D02*
X111879523Y-78669523D01*
X111974761Y-78621904D01*
X112022380Y-78526666D01*
X112022380Y-78431428D01*
X111974761Y-77717142D02*
X112022380Y-77812380D01*
X112022380Y-78002857D01*
X111974761Y-78098095D01*
X111879523Y-78145714D01*
X111498571Y-78145714D01*
X111403333Y-78098095D01*
X111355714Y-78002857D01*
X111355714Y-77812380D01*
X111403333Y-77717142D01*
X111498571Y-77669523D01*
X111593809Y-77669523D01*
X111689047Y-78145714D01*
X112022380Y-77240952D02*
X111355714Y-77240952D01*
X111546190Y-77240952D02*
X111450952Y-77193333D01*
X111403333Y-77145714D01*
X111355714Y-77050476D01*
X111355714Y-76955238D01*
X113005714Y-91764761D02*
X113815238Y-91764761D01*
X113910476Y-91812380D01*
X113958095Y-91860000D01*
X114005714Y-91955238D01*
X114005714Y-92098095D01*
X113958095Y-92193333D01*
X113624761Y-91764761D02*
X113672380Y-91860000D01*
X113672380Y-92050476D01*
X113624761Y-92145714D01*
X113577142Y-92193333D01*
X113481904Y-92240952D01*
X113196190Y-92240952D01*
X113100952Y-92193333D01*
X113053333Y-92145714D01*
X113005714Y-92050476D01*
X113005714Y-91860000D01*
X113053333Y-91764761D01*
X113672380Y-91288571D02*
X113005714Y-91288571D01*
X112672380Y-91288571D02*
X112720000Y-91336190D01*
X112767619Y-91288571D01*
X112720000Y-91240952D01*
X112672380Y-91288571D01*
X112767619Y-91288571D01*
X113005714Y-90955238D02*
X113005714Y-90574285D01*
X112672380Y-90812380D02*
X113529523Y-90812380D01*
X113624761Y-90764761D01*
X113672380Y-90669523D01*
X113672380Y-90574285D01*
X113672380Y-90240952D02*
X112672380Y-90240952D01*
X113672380Y-89812380D02*
X113148571Y-89812380D01*
X113053333Y-89860000D01*
X113005714Y-89955238D01*
X113005714Y-90098095D01*
X113053333Y-90193333D01*
X113100952Y-90240952D01*
X113005714Y-88907619D02*
X113672380Y-88907619D01*
X113005714Y-89336190D02*
X113529523Y-89336190D01*
X113624761Y-89288571D01*
X113672380Y-89193333D01*
X113672380Y-89050476D01*
X113624761Y-88955238D01*
X113577142Y-88907619D01*
X113672380Y-88431428D02*
X112672380Y-88431428D01*
X113053333Y-88431428D02*
X113005714Y-88336190D01*
X113005714Y-88145714D01*
X113053333Y-88050476D01*
X113100952Y-88002857D01*
X113196190Y-87955238D01*
X113481904Y-87955238D01*
X113577142Y-88002857D01*
X113624761Y-88050476D01*
X113672380Y-88145714D01*
X113672380Y-88336190D01*
X113624761Y-88431428D01*
X113577142Y-87526666D02*
X113624761Y-87479047D01*
X113672380Y-87526666D01*
X113624761Y-87574285D01*
X113577142Y-87526666D01*
X113672380Y-87526666D01*
X113624761Y-86621904D02*
X113672380Y-86717142D01*
X113672380Y-86907619D01*
X113624761Y-87002857D01*
X113577142Y-87050476D01*
X113481904Y-87098095D01*
X113196190Y-87098095D01*
X113100952Y-87050476D01*
X113053333Y-87002857D01*
X113005714Y-86907619D01*
X113005714Y-86717142D01*
X113053333Y-86621904D01*
X113672380Y-86050476D02*
X113624761Y-86145714D01*
X113577142Y-86193333D01*
X113481904Y-86240952D01*
X113196190Y-86240952D01*
X113100952Y-86193333D01*
X113053333Y-86145714D01*
X113005714Y-86050476D01*
X113005714Y-85907619D01*
X113053333Y-85812380D01*
X113100952Y-85764761D01*
X113196190Y-85717142D01*
X113481904Y-85717142D01*
X113577142Y-85764761D01*
X113624761Y-85812380D01*
X113672380Y-85907619D01*
X113672380Y-86050476D01*
X113672380Y-85288571D02*
X113005714Y-85288571D01*
X113100952Y-85288571D02*
X113053333Y-85240952D01*
X113005714Y-85145714D01*
X113005714Y-85002857D01*
X113053333Y-84907619D01*
X113148571Y-84860000D01*
X113672380Y-84860000D01*
X113148571Y-84860000D02*
X113053333Y-84812380D01*
X113005714Y-84717142D01*
X113005714Y-84574285D01*
X113053333Y-84479047D01*
X113148571Y-84431428D01*
X113672380Y-84431428D01*
X112624761Y-83240952D02*
X113910476Y-84098095D01*
X113005714Y-83050476D02*
X113005714Y-82669523D01*
X112672380Y-82907619D02*
X113529523Y-82907619D01*
X113624761Y-82860000D01*
X113672380Y-82764761D01*
X113672380Y-82669523D01*
X113624761Y-81955238D02*
X113672380Y-82050476D01*
X113672380Y-82240952D01*
X113624761Y-82336190D01*
X113529523Y-82383809D01*
X113148571Y-82383809D01*
X113053333Y-82336190D01*
X113005714Y-82240952D01*
X113005714Y-82050476D01*
X113053333Y-81955238D01*
X113148571Y-81907619D01*
X113243809Y-81907619D01*
X113339047Y-82383809D01*
X113672380Y-81479047D02*
X112672380Y-81479047D01*
X113053333Y-81479047D02*
X113005714Y-81383809D01*
X113005714Y-81193333D01*
X113053333Y-81098095D01*
X113100952Y-81050476D01*
X113196190Y-81002857D01*
X113481904Y-81002857D01*
X113577142Y-81050476D01*
X113624761Y-81098095D01*
X113672380Y-81193333D01*
X113672380Y-81383809D01*
X113624761Y-81479047D01*
X113672380Y-80431428D02*
X113624761Y-80526666D01*
X113529523Y-80574285D01*
X112672380Y-80574285D01*
D11*
%TO.C,J2*%
X97025000Y-59805000D02*
X97025000Y-50685000D01*
X97025000Y-50685000D02*
X130305000Y-50685000D01*
X130305000Y-50685000D02*
X130305000Y-59805000D01*
X130305000Y-59805000D02*
X97025000Y-59805000D01*
X111615000Y-59805000D02*
X111615000Y-58495000D01*
X111615000Y-58495000D02*
X98325000Y-58495000D01*
X98325000Y-58495000D02*
X98325000Y-51995000D01*
X98325000Y-51995000D02*
X129005000Y-51995000D01*
X129005000Y-51995000D02*
X129005000Y-58495000D01*
X129005000Y-58495000D02*
X115715000Y-58495000D01*
X115715000Y-58495000D02*
X115715000Y-58495000D01*
X115715000Y-58495000D02*
X115715000Y-59805000D01*
X102235000Y-60195000D02*
X101735000Y-61195000D01*
X101735000Y-61195000D02*
X102735000Y-61195000D01*
X102735000Y-61195000D02*
X102235000Y-60195000D01*
X103505000Y-57785000D02*
X103505000Y-52705000D01*
X103505000Y-52705000D02*
X123825000Y-52705000D01*
X123825000Y-52705000D02*
X123825000Y-57785000D01*
X123825000Y-57785000D02*
X114935000Y-57785000D01*
X114935000Y-57785000D02*
X114935000Y-58420000D01*
X114935000Y-58420000D02*
X112395000Y-58420000D01*
X112395000Y-58420000D02*
X112395000Y-57785000D01*
X112395000Y-57785000D02*
X103505000Y-57785000D01*
%TO.C,A1*%
X118390810Y-62230000D02*
G75*
G03*
X118390810Y-62230000I-915810J0D01*
G01*
X118390810Y-110490000D02*
G75*
G03*
X118390810Y-110490000I-915810J0D01*
G01*
X103150810Y-110490000D02*
G75*
G03*
X103150810Y-110490000I-915810J0D01*
G01*
X118390810Y-107950000D02*
G75*
G03*
X118390810Y-107950000I-915810J0D01*
G01*
X103150810Y-107950000D02*
G75*
G03*
X103150810Y-107950000I-915810J0D01*
G01*
X118390810Y-105410000D02*
G75*
G03*
X118390810Y-105410000I-915810J0D01*
G01*
X103150810Y-105410000D02*
G75*
G03*
X103150810Y-105410000I-915810J0D01*
G01*
X118390810Y-102870000D02*
G75*
G03*
X118390810Y-102870000I-915810J0D01*
G01*
X103150810Y-102870000D02*
G75*
G03*
X103150810Y-102870000I-915810J0D01*
G01*
X118390810Y-100330000D02*
G75*
G03*
X118390810Y-100330000I-915810J0D01*
G01*
X103150810Y-100330000D02*
G75*
G03*
X103150810Y-100330000I-915810J0D01*
G01*
X118390810Y-97790000D02*
G75*
G03*
X118390810Y-97790000I-915810J0D01*
G01*
X103150810Y-97790000D02*
G75*
G03*
X103150810Y-97790000I-915810J0D01*
G01*
X118390810Y-95250000D02*
G75*
G03*
X118390810Y-95250000I-915810J0D01*
G01*
X103150810Y-95250000D02*
G75*
G03*
X103150810Y-95250000I-915810J0D01*
G01*
X118390810Y-92710000D02*
G75*
G03*
X118390810Y-92710000I-915810J0D01*
G01*
X103150810Y-92710000D02*
G75*
G03*
X103150810Y-92710000I-915810J0D01*
G01*
X118390810Y-90170000D02*
G75*
G03*
X118390810Y-90170000I-915810J0D01*
G01*
X103150810Y-90170000D02*
G75*
G03*
X103150810Y-90170000I-915810J0D01*
G01*
X118390810Y-87630000D02*
G75*
G03*
X118390810Y-87630000I-915810J0D01*
G01*
X103150810Y-87630000D02*
G75*
G03*
X103150810Y-87630000I-915810J0D01*
G01*
X118390810Y-85090000D02*
G75*
G03*
X118390810Y-85090000I-915810J0D01*
G01*
X103150810Y-85090000D02*
G75*
G03*
X103150810Y-85090000I-915810J0D01*
G01*
X118390810Y-82550000D02*
G75*
G03*
X118390810Y-82550000I-915810J0D01*
G01*
X103150810Y-82550000D02*
G75*
G03*
X103150810Y-82550000I-915810J0D01*
G01*
X118390810Y-80010000D02*
G75*
G03*
X118390810Y-80010000I-915810J0D01*
G01*
X103150810Y-80010000D02*
G75*
G03*
X103150810Y-80010000I-915810J0D01*
G01*
X118390810Y-77470000D02*
G75*
G03*
X118390810Y-77470000I-915810J0D01*
G01*
X103150810Y-77470000D02*
G75*
G03*
X103150810Y-77470000I-915810J0D01*
G01*
X118390810Y-74930000D02*
G75*
G03*
X118390810Y-74930000I-915810J0D01*
G01*
X103150810Y-74930000D02*
G75*
G03*
X103150810Y-74930000I-915810J0D01*
G01*
X118390810Y-72390000D02*
G75*
G03*
X118390810Y-72390000I-915810J0D01*
G01*
X103150810Y-72390000D02*
G75*
G03*
X103150810Y-72390000I-915810J0D01*
G01*
X118390810Y-69850000D02*
G75*
G03*
X118390810Y-69850000I-915810J0D01*
G01*
X103150810Y-69850000D02*
G75*
G03*
X103150810Y-69850000I-915810J0D01*
G01*
X118390810Y-67310000D02*
G75*
G03*
X118390810Y-67310000I-915810J0D01*
G01*
X103150810Y-67310000D02*
G75*
G03*
X103150810Y-67310000I-915810J0D01*
G01*
X118390810Y-64770000D02*
G75*
G03*
X118390810Y-64770000I-915810J0D01*
G01*
X103150810Y-64770000D02*
G75*
G03*
X103150810Y-64770000I-915810J0D01*
G01*
X103251000Y-63246000D02*
X101219000Y-63246000D01*
X101219000Y-63246000D02*
X101219000Y-61214000D01*
X101219000Y-61214000D02*
X102235000Y-61214000D01*
X102235000Y-61214000D02*
X103251000Y-61214000D01*
X103251000Y-61214000D02*
X103251000Y-63246000D01*
%TO.C,U1*%
X121980000Y-60840000D02*
X104080000Y-60840000D01*
X121980000Y-111880000D02*
X121980000Y-60840000D01*
X104080000Y-111880000D02*
X121980000Y-111880000D01*
X104080000Y-60840000D02*
X104080000Y-111880000D01*
X119490000Y-60900000D02*
X114030000Y-60900000D01*
X119490000Y-111820000D02*
X119490000Y-60900000D01*
X106570000Y-111820000D02*
X119490000Y-111820000D01*
X106570000Y-60900000D02*
X106570000Y-111820000D01*
X112030000Y-60900000D02*
X106570000Y-60900000D01*
X114030000Y-60900000D02*
G75*
G02*
X112030000Y-60900000I-1000000J0D01*
G01*
D10*
%TO.C,JP1*%
X112141000Y-69215000D02*
X112141000Y-64770000D01*
X112141000Y-69215000D02*
X115189000Y-69215000D01*
X115189000Y-64770000D02*
X112141000Y-64770000D01*
X114935000Y-68834000D02*
X115189000Y-68834000D01*
X115189000Y-68834000D02*
X115189000Y-65278000D01*
X114935000Y-65278000D02*
X115189000Y-65278000D01*
%TO.C,J2*%
X95587380Y-55578333D02*
X96301666Y-55578333D01*
X96444523Y-55625952D01*
X96539761Y-55721190D01*
X96587380Y-55864047D01*
X96587380Y-55959285D01*
X95682619Y-55149761D02*
X95635000Y-55102142D01*
X95587380Y-55006904D01*
X95587380Y-54768809D01*
X95635000Y-54673571D01*
X95682619Y-54625952D01*
X95777857Y-54578333D01*
X95873095Y-54578333D01*
X96015952Y-54625952D01*
X96587380Y-55197380D01*
X96587380Y-54578333D01*
%TO.C,JP1*%
X110752000Y-67817904D02*
X110704380Y-67913142D01*
X110704380Y-68056000D01*
X110752000Y-68198857D01*
X110847238Y-68294095D01*
X110942476Y-68341714D01*
X111132952Y-68389333D01*
X111275809Y-68389333D01*
X111466285Y-68341714D01*
X111561523Y-68294095D01*
X111656761Y-68198857D01*
X111704380Y-68056000D01*
X111704380Y-67960761D01*
X111656761Y-67817904D01*
X111609142Y-67770285D01*
X111275809Y-67770285D01*
X111275809Y-67960761D01*
X111704380Y-67341714D02*
X110704380Y-67341714D01*
X111704380Y-66770285D01*
X110704380Y-66770285D01*
X111704380Y-66294095D02*
X110704380Y-66294095D01*
X110704380Y-66056000D01*
X110752000Y-65913142D01*
X110847238Y-65817904D01*
X110942476Y-65770285D01*
X111132952Y-65722666D01*
X111275809Y-65722666D01*
X111466285Y-65770285D01*
X111561523Y-65817904D01*
X111656761Y-65913142D01*
X111704380Y-66056000D01*
X111704380Y-66294095D01*
%TD*%
M02*
