M48
INCH,TZ
T1C0.0315
T2C0.0394
%
G90
G05
T1
X40250Y-24500
X40250Y-25500
X40250Y-26500
X40250Y-27500
X40250Y-28500
X40250Y-29500
X40250Y-30500
X40250Y-31500
X40250Y-32500
X40250Y-33500
X40250Y-34500
X40250Y-35500
X40250Y-36500
X40250Y-37500
X40250Y-38500
X40250Y-39500
X40250Y-40500
X40250Y-41500
X40250Y-42500
X40250Y-43500
X46250Y-24500
X46250Y-25500
X46250Y-26500
X46250Y-27500
X46250Y-28500
X46250Y-29500
X46250Y-30500
X46250Y-31500
X46250Y-32500
X46250Y-33500
X46250Y-34500
X46250Y-35500
X46250Y-36500
X46250Y-37500
X46250Y-38500
X46250Y-39500
X46250Y-40500
X46250Y-41500
X46250Y-42500
X46250Y-43500
X41500Y-24500
X41500Y-25500
X41500Y-26500
X41500Y-27500
X41500Y-28500
X41500Y-29500
X41500Y-30500
X41500Y-31500
X41500Y-32500
X41500Y-33500
X41500Y-34500
X41500Y-35500
X41500Y-36500
X41500Y-37500
X41500Y-38500
X41500Y-39500
X41500Y-40500
X41500Y-41500
X41500Y-42500
X41500Y-43500
X47500Y-24500
X47500Y-25500
X47500Y-26500
X47500Y-27500
X47500Y-28500
X47500Y-29500
X47500Y-30500
X47500Y-31500
X47500Y-32500
X47500Y-33500
X47500Y-34500
X47500Y-35500
X47500Y-36500
X47500Y-37500
X47500Y-38500
X47500Y-39500
X47500Y-40500
X47500Y-41500
X47500Y-42500
X47500Y-43500
T2
X39500Y-21500
X39500Y-22500
X40500Y-21500
X40500Y-22500
X41500Y-21500
X41500Y-22500
X42500Y-21500
X42500Y-22500
X43500Y-21500
X43500Y-22500
X44500Y-21500
X44500Y-22500
X45500Y-21500
X45500Y-22500
X46500Y-21500
X46500Y-22500
X47500Y-21500
X47500Y-22500
X48500Y-21500
X48500Y-22500
T0
M30
