M48
INCH,TZ
T1C0.0157
T2C0.0315
T3C0.0394
%
G90
G05
T1
X44750Y-25250
X44750Y-27500
T2
X41500Y-24500
X41500Y-25500
X41500Y-26500
X41500Y-27500
X41500Y-28500
X41500Y-29500
X41500Y-30500
X41500Y-31500
X41500Y-32500
X41500Y-33500
X41500Y-34500
X41500Y-35500
X41500Y-36500
X41500Y-37500
X41500Y-38500
X41500Y-39500
X41500Y-40500
X41500Y-41500
X41500Y-42500
X41500Y-43500
X47500Y-24500
X47500Y-25500
X47500Y-26500
X47500Y-27500
X47500Y-28500
X47500Y-29500
X47500Y-30500
X47500Y-31500
X47500Y-32500
X47500Y-33500
X47500Y-34500
X47500Y-35500
X47500Y-36500
X47500Y-37500
X47500Y-38500
X47500Y-39500
X47500Y-40500
X47500Y-41500
X47500Y-42500
X47500Y-43500
X40250Y-24500
X40250Y-25500
X40250Y-26500
X40250Y-27500
X40250Y-28500
X40250Y-29500
X40250Y-30500
X40250Y-31500
X40250Y-32500
X40250Y-33500
X40250Y-34500
X40250Y-35500
X40250Y-36500
X40250Y-37500
X40250Y-38500
X40250Y-39500
X40250Y-40500
X40250Y-41500
X40250Y-42500
X40250Y-43500
X46250Y-24500
X46250Y-25500
X46250Y-26500
X46250Y-27500
X46250Y-28500
X46250Y-29500
X46250Y-30500
X46250Y-31500
X46250Y-32500
X46250Y-33500
X46250Y-34500
X46250Y-35500
X46250Y-36500
X46250Y-37500
X46250Y-38500
X46250Y-39500
X46250Y-40500
X46250Y-41500
X46250Y-42500
X46250Y-43500
T3
X40250Y-21250
X40250Y-22250
X41250Y-21250
X41250Y-22250
X42250Y-21250
X42250Y-22250
X43250Y-21250
X43250Y-22250
X44250Y-21250
X44250Y-22250
X45250Y-21250
X45250Y-22250
X46250Y-21250
X46250Y-22250
X47250Y-21250
X47250Y-22250
X48250Y-21250
X48250Y-22250
X49250Y-21250
X49250Y-22250
T0
M30
