G04 #@! TF.GenerationSoftware,KiCad,Pcbnew,(5.1.8)-1*
G04 #@! TF.CreationDate,2022-01-25T01:20:23+01:00*
G04 #@! TF.ProjectId,C64 XUM1541-II FA2,43363420-5855-44d3-9135-34312d494920,rev?*
G04 #@! TF.SameCoordinates,Original*
G04 #@! TF.FileFunction,Legend,Top*
G04 #@! TF.FilePolarity,Positive*
%FSLAX46Y46*%
G04 Gerber Fmt 4.6, Leading zero omitted, Abs format (unit mm)*
G04 Created by KiCad (PCBNEW (5.1.8)-1) date 2022-01-25 01:20:23*
%MOMM*%
%LPD*%
G01*
G04 APERTURE LIST*
%ADD10C,0.150000*%
%ADD11C,0.010000*%
%ADD12C,0.100000*%
G04 APERTURE END LIST*
D10*
X122563095Y-101687380D02*
X122563095Y-102496904D01*
X122610714Y-102592142D01*
X122658333Y-102639761D01*
X122753571Y-102687380D01*
X122944047Y-102687380D01*
X123039285Y-102639761D01*
X123086904Y-102592142D01*
X123134523Y-102496904D01*
X123134523Y-101687380D01*
X123563095Y-102639761D02*
X123705952Y-102687380D01*
X123944047Y-102687380D01*
X124039285Y-102639761D01*
X124086904Y-102592142D01*
X124134523Y-102496904D01*
X124134523Y-102401666D01*
X124086904Y-102306428D01*
X124039285Y-102258809D01*
X123944047Y-102211190D01*
X123753571Y-102163571D01*
X123658333Y-102115952D01*
X123610714Y-102068333D01*
X123563095Y-101973095D01*
X123563095Y-101877857D01*
X123610714Y-101782619D01*
X123658333Y-101735000D01*
X123753571Y-101687380D01*
X123991666Y-101687380D01*
X124134523Y-101735000D01*
X124896428Y-102163571D02*
X125039285Y-102211190D01*
X125086904Y-102258809D01*
X125134523Y-102354047D01*
X125134523Y-102496904D01*
X125086904Y-102592142D01*
X125039285Y-102639761D01*
X124944047Y-102687380D01*
X124563095Y-102687380D01*
X124563095Y-101687380D01*
X124896428Y-101687380D01*
X124991666Y-101735000D01*
X125039285Y-101782619D01*
X125086904Y-101877857D01*
X125086904Y-101973095D01*
X125039285Y-102068333D01*
X124991666Y-102115952D01*
X124896428Y-102163571D01*
X124563095Y-102163571D01*
X157797619Y-70302380D02*
X157797619Y-69302380D01*
X158273809Y-69778571D02*
X158607142Y-69778571D01*
X158750000Y-70302380D02*
X158273809Y-70302380D01*
X158273809Y-69302380D01*
X158750000Y-69302380D01*
X159750000Y-70207142D02*
X159702380Y-70254761D01*
X159559523Y-70302380D01*
X159464285Y-70302380D01*
X159321428Y-70254761D01*
X159226190Y-70159523D01*
X159178571Y-70064285D01*
X159130952Y-69873809D01*
X159130952Y-69730952D01*
X159178571Y-69540476D01*
X159226190Y-69445238D01*
X159321428Y-69350000D01*
X159464285Y-69302380D01*
X159559523Y-69302380D01*
X159702380Y-69350000D01*
X159750000Y-69397619D01*
X120539285Y-69032380D02*
X120539285Y-68032380D01*
X120920238Y-68032380D01*
X121015476Y-68080000D01*
X121063095Y-68127619D01*
X121110714Y-68222857D01*
X121110714Y-68365714D01*
X121063095Y-68460952D01*
X121015476Y-68508571D01*
X120920238Y-68556190D01*
X120539285Y-68556190D01*
X121491666Y-68746666D02*
X121967857Y-68746666D01*
X121396428Y-69032380D02*
X121729761Y-68032380D01*
X122063095Y-69032380D01*
X122967857Y-69032380D02*
X122634523Y-68556190D01*
X122396428Y-69032380D02*
X122396428Y-68032380D01*
X122777380Y-68032380D01*
X122872619Y-68080000D01*
X122920238Y-68127619D01*
X122967857Y-68222857D01*
X122967857Y-68365714D01*
X122920238Y-68460952D01*
X122872619Y-68508571D01*
X122777380Y-68556190D01*
X122396428Y-68556190D01*
X123348809Y-68746666D02*
X123825000Y-68746666D01*
X123253571Y-69032380D02*
X123586904Y-68032380D01*
X123920238Y-69032380D01*
X124729761Y-69032380D02*
X124253571Y-69032380D01*
X124253571Y-68032380D01*
X125539285Y-69032380D02*
X125063095Y-69032380D01*
X125063095Y-68032380D01*
X125872619Y-68508571D02*
X126205952Y-68508571D01*
X126348809Y-69032380D02*
X125872619Y-69032380D01*
X125872619Y-68032380D01*
X126348809Y-68032380D01*
X127253571Y-69032380D02*
X126777380Y-69032380D01*
X126777380Y-68032380D01*
X104775000Y-90447000D02*
X104775000Y-90650000D01*
X104775000Y-90447000D02*
X111800000Y-90447000D01*
X111868000Y-90447000D02*
X111487000Y-90828000D01*
X111868000Y-90447000D02*
X111487000Y-90066000D01*
X113411000Y-88446000D02*
X113792000Y-88065000D01*
X113411000Y-88446000D02*
X113030000Y-88065000D01*
X113411000Y-83820000D02*
X113411000Y-88400000D01*
X106934000Y-83820000D02*
X113411000Y-83820000D01*
X102894047Y-96337380D02*
X102894047Y-95337380D01*
X103132142Y-95337380D01*
X103275000Y-95385000D01*
X103370238Y-95480238D01*
X103417857Y-95575476D01*
X103465476Y-95765952D01*
X103465476Y-95908809D01*
X103417857Y-96099285D01*
X103370238Y-96194523D01*
X103275000Y-96289761D01*
X103132142Y-96337380D01*
X102894047Y-96337380D01*
X104465476Y-96337380D02*
X104132142Y-95861190D01*
X103894047Y-96337380D02*
X103894047Y-95337380D01*
X104275000Y-95337380D01*
X104370238Y-95385000D01*
X104417857Y-95432619D01*
X104465476Y-95527857D01*
X104465476Y-95670714D01*
X104417857Y-95765952D01*
X104370238Y-95813571D01*
X104275000Y-95861190D01*
X103894047Y-95861190D01*
X104894047Y-96337380D02*
X104894047Y-95337380D01*
X105227380Y-95337380D02*
X105560714Y-96337380D01*
X105894047Y-95337380D01*
X106227380Y-95813571D02*
X106560714Y-95813571D01*
X106703571Y-96337380D02*
X106227380Y-96337380D01*
X106227380Y-95337380D01*
X106703571Y-95337380D01*
X102465476Y-87447380D02*
X102465476Y-86447380D01*
X102846428Y-86447380D01*
X102941666Y-86495000D01*
X102989285Y-86542619D01*
X103036904Y-86637857D01*
X103036904Y-86780714D01*
X102989285Y-86875952D01*
X102941666Y-86923571D01*
X102846428Y-86971190D01*
X102465476Y-86971190D01*
X103655952Y-86447380D02*
X103846428Y-86447380D01*
X103941666Y-86495000D01*
X104036904Y-86590238D01*
X104084523Y-86780714D01*
X104084523Y-87114047D01*
X104036904Y-87304523D01*
X103941666Y-87399761D01*
X103846428Y-87447380D01*
X103655952Y-87447380D01*
X103560714Y-87399761D01*
X103465476Y-87304523D01*
X103417857Y-87114047D01*
X103417857Y-86780714D01*
X103465476Y-86590238D01*
X103560714Y-86495000D01*
X103655952Y-86447380D01*
X104417857Y-86447380D02*
X104655952Y-87447380D01*
X104846428Y-86733095D01*
X105036904Y-87447380D01*
X105275000Y-86447380D01*
X105655952Y-86923571D02*
X105989285Y-86923571D01*
X106132142Y-87447380D02*
X105655952Y-87447380D01*
X105655952Y-86447380D01*
X106132142Y-86447380D01*
X107132142Y-87447380D02*
X106798809Y-86971190D01*
X106560714Y-87447380D02*
X106560714Y-86447380D01*
X106941666Y-86447380D01*
X107036904Y-86495000D01*
X107084523Y-86542619D01*
X107132142Y-86637857D01*
X107132142Y-86780714D01*
X107084523Y-86875952D01*
X107036904Y-86923571D01*
X106941666Y-86971190D01*
X106560714Y-86971190D01*
X103322619Y-77287380D02*
X102989285Y-76811190D01*
X102751190Y-77287380D02*
X102751190Y-76287380D01*
X103132142Y-76287380D01*
X103227380Y-76335000D01*
X103275000Y-76382619D01*
X103322619Y-76477857D01*
X103322619Y-76620714D01*
X103275000Y-76715952D01*
X103227380Y-76763571D01*
X103132142Y-76811190D01*
X102751190Y-76811190D01*
X103751190Y-76763571D02*
X104084523Y-76763571D01*
X104227380Y-77287380D02*
X103751190Y-77287380D01*
X103751190Y-76287380D01*
X104227380Y-76287380D01*
X104608333Y-77239761D02*
X104751190Y-77287380D01*
X104989285Y-77287380D01*
X105084523Y-77239761D01*
X105132142Y-77192142D01*
X105179761Y-77096904D01*
X105179761Y-77001666D01*
X105132142Y-76906428D01*
X105084523Y-76858809D01*
X104989285Y-76811190D01*
X104798809Y-76763571D01*
X104703571Y-76715952D01*
X104655952Y-76668333D01*
X104608333Y-76573095D01*
X104608333Y-76477857D01*
X104655952Y-76382619D01*
X104703571Y-76335000D01*
X104798809Y-76287380D01*
X105036904Y-76287380D01*
X105179761Y-76335000D01*
X105608333Y-76763571D02*
X105941666Y-76763571D01*
X106084523Y-77287380D02*
X105608333Y-77287380D01*
X105608333Y-76287380D01*
X106084523Y-76287380D01*
X106370238Y-76287380D02*
X106941666Y-76287380D01*
X106655952Y-77287380D02*
X106655952Y-76287380D01*
D11*
G36*
X131593036Y-94260504D02*
G01*
X132452021Y-94260563D01*
X133322205Y-94260670D01*
X134202149Y-94260824D01*
X135090415Y-94261024D01*
X135985564Y-94261269D01*
X136886160Y-94261558D01*
X137790763Y-94261890D01*
X138697936Y-94262266D01*
X139606241Y-94262683D01*
X140514239Y-94263140D01*
X141420491Y-94263639D01*
X142323561Y-94264176D01*
X143222010Y-94264752D01*
X144114400Y-94265365D01*
X144999293Y-94266016D01*
X145875250Y-94266702D01*
X146740833Y-94267423D01*
X147594605Y-94268179D01*
X148435127Y-94268969D01*
X149260961Y-94269791D01*
X150070669Y-94270644D01*
X150862812Y-94271529D01*
X151635954Y-94272444D01*
X152388655Y-94273389D01*
X153119477Y-94274362D01*
X153826982Y-94275363D01*
X154509733Y-94276390D01*
X155166291Y-94277444D01*
X155795218Y-94278523D01*
X156395075Y-94279626D01*
X156964425Y-94280753D01*
X157501830Y-94281903D01*
X158005851Y-94283074D01*
X158475050Y-94284267D01*
X158907990Y-94285480D01*
X159303231Y-94286712D01*
X159659337Y-94287963D01*
X159974868Y-94289232D01*
X160248387Y-94290518D01*
X160478455Y-94291820D01*
X160663634Y-94293137D01*
X160802487Y-94294469D01*
X160893575Y-94295814D01*
X160935460Y-94297172D01*
X160937372Y-94297371D01*
X161069543Y-94316570D01*
X160751543Y-95028481D01*
X160577876Y-95416431D01*
X160409028Y-95791971D01*
X160246375Y-96152118D01*
X160091291Y-96493887D01*
X159945153Y-96814294D01*
X159809336Y-97110354D01*
X159685216Y-97379084D01*
X159574168Y-97617498D01*
X159477568Y-97822612D01*
X159396791Y-97991443D01*
X159333213Y-98121005D01*
X159288209Y-98208315D01*
X159274933Y-98232085D01*
X159255272Y-98255346D01*
X159221797Y-98271811D01*
X159164799Y-98283657D01*
X159074571Y-98293059D01*
X158970065Y-98300403D01*
X158899731Y-98303250D01*
X158780045Y-98306057D01*
X158612505Y-98308822D01*
X158398607Y-98311544D01*
X158139852Y-98314221D01*
X157837736Y-98316851D01*
X157493758Y-98319432D01*
X157109416Y-98321963D01*
X156686208Y-98324442D01*
X156225632Y-98326867D01*
X155729187Y-98329237D01*
X155198370Y-98331549D01*
X154634680Y-98333803D01*
X154039614Y-98335995D01*
X153414671Y-98338126D01*
X152761349Y-98340192D01*
X152081146Y-98342192D01*
X151375560Y-98344125D01*
X150646089Y-98345988D01*
X149894232Y-98347780D01*
X149121486Y-98349499D01*
X148329350Y-98351144D01*
X147519321Y-98352712D01*
X146692899Y-98354203D01*
X145851580Y-98355613D01*
X144996863Y-98356942D01*
X144130247Y-98358188D01*
X143253228Y-98359349D01*
X142367307Y-98360424D01*
X141473979Y-98361410D01*
X140574745Y-98362305D01*
X139671101Y-98363109D01*
X138764546Y-98363820D01*
X137856577Y-98364434D01*
X136948694Y-98364952D01*
X136042395Y-98365372D01*
X135139176Y-98365690D01*
X134240537Y-98365906D01*
X133347976Y-98366019D01*
X132462990Y-98366025D01*
X131587078Y-98365925D01*
X130721738Y-98365715D01*
X129868468Y-98365394D01*
X129028766Y-98364960D01*
X128204130Y-98364412D01*
X127396059Y-98363748D01*
X126606050Y-98362966D01*
X125835602Y-98362065D01*
X125086212Y-98361042D01*
X124359379Y-98359897D01*
X123656602Y-98358626D01*
X122979377Y-98357229D01*
X122329204Y-98355704D01*
X121707579Y-98354049D01*
X121116003Y-98352262D01*
X120555971Y-98350342D01*
X120028984Y-98348287D01*
X119536538Y-98346094D01*
X119514310Y-98345988D01*
X119096226Y-98343857D01*
X118691338Y-98341544D01*
X118302641Y-98339080D01*
X117933134Y-98336493D01*
X117585812Y-98333813D01*
X117263673Y-98331069D01*
X116969713Y-98328290D01*
X116706928Y-98325506D01*
X116478316Y-98322745D01*
X116286874Y-98320037D01*
X116135597Y-98317411D01*
X116027484Y-98314897D01*
X115965529Y-98312523D01*
X115952062Y-98311253D01*
X115932874Y-98305193D01*
X115913614Y-98293505D01*
X115892125Y-98272312D01*
X115866247Y-98237741D01*
X115833825Y-98185914D01*
X115792699Y-98112957D01*
X115740712Y-98014993D01*
X115675707Y-97888148D01*
X115595526Y-97728545D01*
X115498011Y-97532309D01*
X115381005Y-97295564D01*
X115337555Y-97207497D01*
X115225587Y-96979980D01*
X115117203Y-96758758D01*
X115015185Y-96549579D01*
X114922315Y-96358189D01*
X114841375Y-96190336D01*
X114775148Y-96051768D01*
X114726415Y-95948231D01*
X114701215Y-95892946D01*
X114657720Y-95795977D01*
X114597892Y-95665080D01*
X114527266Y-95512236D01*
X114451376Y-95349426D01*
X114378177Y-95193747D01*
X114258453Y-94938541D01*
X114161485Y-94727831D01*
X114086927Y-94560812D01*
X114034430Y-94436683D01*
X114003646Y-94354638D01*
X113994229Y-94313874D01*
X113995623Y-94309464D01*
X114021965Y-94307997D01*
X114096570Y-94306308D01*
X114216848Y-94304417D01*
X114380212Y-94302346D01*
X114584074Y-94300117D01*
X114825845Y-94297750D01*
X115102938Y-94295267D01*
X115412763Y-94292689D01*
X115752734Y-94290038D01*
X116120261Y-94287334D01*
X116512758Y-94284599D01*
X116927634Y-94281855D01*
X117362303Y-94279123D01*
X117814177Y-94276423D01*
X118280666Y-94273777D01*
X118439311Y-94272909D01*
X118688086Y-94271712D01*
X118979699Y-94270581D01*
X119312711Y-94269515D01*
X119685683Y-94268514D01*
X120097178Y-94267575D01*
X120545758Y-94266699D01*
X121029985Y-94265884D01*
X121548420Y-94265131D01*
X122099625Y-94264437D01*
X122682162Y-94263803D01*
X123294593Y-94263227D01*
X123935480Y-94262708D01*
X124603385Y-94262246D01*
X125296870Y-94261840D01*
X126014496Y-94261489D01*
X126754825Y-94261192D01*
X127516419Y-94260949D01*
X128297841Y-94260758D01*
X129097652Y-94260619D01*
X129914413Y-94260531D01*
X130746687Y-94260493D01*
X131593036Y-94260504D01*
G37*
X131593036Y-94260504D02*
X132452021Y-94260563D01*
X133322205Y-94260670D01*
X134202149Y-94260824D01*
X135090415Y-94261024D01*
X135985564Y-94261269D01*
X136886160Y-94261558D01*
X137790763Y-94261890D01*
X138697936Y-94262266D01*
X139606241Y-94262683D01*
X140514239Y-94263140D01*
X141420491Y-94263639D01*
X142323561Y-94264176D01*
X143222010Y-94264752D01*
X144114400Y-94265365D01*
X144999293Y-94266016D01*
X145875250Y-94266702D01*
X146740833Y-94267423D01*
X147594605Y-94268179D01*
X148435127Y-94268969D01*
X149260961Y-94269791D01*
X150070669Y-94270644D01*
X150862812Y-94271529D01*
X151635954Y-94272444D01*
X152388655Y-94273389D01*
X153119477Y-94274362D01*
X153826982Y-94275363D01*
X154509733Y-94276390D01*
X155166291Y-94277444D01*
X155795218Y-94278523D01*
X156395075Y-94279626D01*
X156964425Y-94280753D01*
X157501830Y-94281903D01*
X158005851Y-94283074D01*
X158475050Y-94284267D01*
X158907990Y-94285480D01*
X159303231Y-94286712D01*
X159659337Y-94287963D01*
X159974868Y-94289232D01*
X160248387Y-94290518D01*
X160478455Y-94291820D01*
X160663634Y-94293137D01*
X160802487Y-94294469D01*
X160893575Y-94295814D01*
X160935460Y-94297172D01*
X160937372Y-94297371D01*
X161069543Y-94316570D01*
X160751543Y-95028481D01*
X160577876Y-95416431D01*
X160409028Y-95791971D01*
X160246375Y-96152118D01*
X160091291Y-96493887D01*
X159945153Y-96814294D01*
X159809336Y-97110354D01*
X159685216Y-97379084D01*
X159574168Y-97617498D01*
X159477568Y-97822612D01*
X159396791Y-97991443D01*
X159333213Y-98121005D01*
X159288209Y-98208315D01*
X159274933Y-98232085D01*
X159255272Y-98255346D01*
X159221797Y-98271811D01*
X159164799Y-98283657D01*
X159074571Y-98293059D01*
X158970065Y-98300403D01*
X158899731Y-98303250D01*
X158780045Y-98306057D01*
X158612505Y-98308822D01*
X158398607Y-98311544D01*
X158139852Y-98314221D01*
X157837736Y-98316851D01*
X157493758Y-98319432D01*
X157109416Y-98321963D01*
X156686208Y-98324442D01*
X156225632Y-98326867D01*
X155729187Y-98329237D01*
X155198370Y-98331549D01*
X154634680Y-98333803D01*
X154039614Y-98335995D01*
X153414671Y-98338126D01*
X152761349Y-98340192D01*
X152081146Y-98342192D01*
X151375560Y-98344125D01*
X150646089Y-98345988D01*
X149894232Y-98347780D01*
X149121486Y-98349499D01*
X148329350Y-98351144D01*
X147519321Y-98352712D01*
X146692899Y-98354203D01*
X145851580Y-98355613D01*
X144996863Y-98356942D01*
X144130247Y-98358188D01*
X143253228Y-98359349D01*
X142367307Y-98360424D01*
X141473979Y-98361410D01*
X140574745Y-98362305D01*
X139671101Y-98363109D01*
X138764546Y-98363820D01*
X137856577Y-98364434D01*
X136948694Y-98364952D01*
X136042395Y-98365372D01*
X135139176Y-98365690D01*
X134240537Y-98365906D01*
X133347976Y-98366019D01*
X132462990Y-98366025D01*
X131587078Y-98365925D01*
X130721738Y-98365715D01*
X129868468Y-98365394D01*
X129028766Y-98364960D01*
X128204130Y-98364412D01*
X127396059Y-98363748D01*
X126606050Y-98362966D01*
X125835602Y-98362065D01*
X125086212Y-98361042D01*
X124359379Y-98359897D01*
X123656602Y-98358626D01*
X122979377Y-98357229D01*
X122329204Y-98355704D01*
X121707579Y-98354049D01*
X121116003Y-98352262D01*
X120555971Y-98350342D01*
X120028984Y-98348287D01*
X119536538Y-98346094D01*
X119514310Y-98345988D01*
X119096226Y-98343857D01*
X118691338Y-98341544D01*
X118302641Y-98339080D01*
X117933134Y-98336493D01*
X117585812Y-98333813D01*
X117263673Y-98331069D01*
X116969713Y-98328290D01*
X116706928Y-98325506D01*
X116478316Y-98322745D01*
X116286874Y-98320037D01*
X116135597Y-98317411D01*
X116027484Y-98314897D01*
X115965529Y-98312523D01*
X115952062Y-98311253D01*
X115932874Y-98305193D01*
X115913614Y-98293505D01*
X115892125Y-98272312D01*
X115866247Y-98237741D01*
X115833825Y-98185914D01*
X115792699Y-98112957D01*
X115740712Y-98014993D01*
X115675707Y-97888148D01*
X115595526Y-97728545D01*
X115498011Y-97532309D01*
X115381005Y-97295564D01*
X115337555Y-97207497D01*
X115225587Y-96979980D01*
X115117203Y-96758758D01*
X115015185Y-96549579D01*
X114922315Y-96358189D01*
X114841375Y-96190336D01*
X114775148Y-96051768D01*
X114726415Y-95948231D01*
X114701215Y-95892946D01*
X114657720Y-95795977D01*
X114597892Y-95665080D01*
X114527266Y-95512236D01*
X114451376Y-95349426D01*
X114378177Y-95193747D01*
X114258453Y-94938541D01*
X114161485Y-94727831D01*
X114086927Y-94560812D01*
X114034430Y-94436683D01*
X114003646Y-94354638D01*
X113994229Y-94313874D01*
X113995623Y-94309464D01*
X114021965Y-94307997D01*
X114096570Y-94306308D01*
X114216848Y-94304417D01*
X114380212Y-94302346D01*
X114584074Y-94300117D01*
X114825845Y-94297750D01*
X115102938Y-94295267D01*
X115412763Y-94292689D01*
X115752734Y-94290038D01*
X116120261Y-94287334D01*
X116512758Y-94284599D01*
X116927634Y-94281855D01*
X117362303Y-94279123D01*
X117814177Y-94276423D01*
X118280666Y-94273777D01*
X118439311Y-94272909D01*
X118688086Y-94271712D01*
X118979699Y-94270581D01*
X119312711Y-94269515D01*
X119685683Y-94268514D01*
X120097178Y-94267575D01*
X120545758Y-94266699D01*
X121029985Y-94265884D01*
X121548420Y-94265131D01*
X122099625Y-94264437D01*
X122682162Y-94263803D01*
X123294593Y-94263227D01*
X123935480Y-94262708D01*
X124603385Y-94262246D01*
X125296870Y-94261840D01*
X126014496Y-94261489D01*
X126754825Y-94261192D01*
X127516419Y-94260949D01*
X128297841Y-94260758D01*
X129097652Y-94260619D01*
X129914413Y-94260531D01*
X130746687Y-94260493D01*
X131593036Y-94260504D01*
G36*
X159775471Y-97850704D02*
G01*
X159762758Y-97863416D01*
X159750046Y-97850704D01*
X159762758Y-97837991D01*
X159775471Y-97850704D01*
G37*
X159775471Y-97850704D02*
X159762758Y-97863416D01*
X159750046Y-97850704D01*
X159762758Y-97837991D01*
X159775471Y-97850704D01*
G36*
X128302947Y-77566077D02*
G01*
X129380209Y-77566130D01*
X130502411Y-77566228D01*
X131670359Y-77566369D01*
X132884857Y-77566555D01*
X134146713Y-77566782D01*
X135456732Y-77567052D01*
X136815721Y-77567363D01*
X138224485Y-77567714D01*
X138706439Y-77567841D01*
X163720991Y-77574467D01*
X163832019Y-77639533D01*
X163934489Y-77714174D01*
X164045736Y-77818495D01*
X164152288Y-77937640D01*
X164240674Y-78056754D01*
X164290842Y-78145515D01*
X164322910Y-78235768D01*
X164352593Y-78352300D01*
X164373720Y-78470681D01*
X164374482Y-78476530D01*
X164384117Y-78552780D01*
X164393054Y-78626000D01*
X164401320Y-78698237D01*
X164408941Y-78771541D01*
X164415944Y-78847961D01*
X164422353Y-78929545D01*
X164428196Y-79018341D01*
X164433498Y-79116400D01*
X164438286Y-79225770D01*
X164442585Y-79348500D01*
X164446423Y-79486638D01*
X164449824Y-79642234D01*
X164452816Y-79817336D01*
X164455424Y-80013993D01*
X164457675Y-80234254D01*
X164459594Y-80480169D01*
X164461208Y-80753785D01*
X164462543Y-81057152D01*
X164463625Y-81392318D01*
X164464481Y-81761333D01*
X164465135Y-82166245D01*
X164465616Y-82609103D01*
X164465948Y-83091956D01*
X164466158Y-83616853D01*
X164466272Y-84185843D01*
X164466316Y-84800974D01*
X164466316Y-85464296D01*
X164466312Y-85671925D01*
X164466325Y-86376011D01*
X164466357Y-87031078D01*
X164466346Y-87638962D01*
X164466230Y-88201493D01*
X164465946Y-88720506D01*
X164465433Y-89197833D01*
X164464627Y-89635308D01*
X164463467Y-90034763D01*
X164461890Y-90398032D01*
X164459834Y-90726948D01*
X164457236Y-91023343D01*
X164454035Y-91289051D01*
X164450167Y-91525904D01*
X164445572Y-91735737D01*
X164440185Y-91920381D01*
X164433946Y-92081670D01*
X164426792Y-92221437D01*
X164418660Y-92341515D01*
X164409488Y-92443737D01*
X164399214Y-92529936D01*
X164387775Y-92601945D01*
X164375110Y-92661597D01*
X164361156Y-92710725D01*
X164345850Y-92751163D01*
X164329130Y-92784743D01*
X164310935Y-92813298D01*
X164291201Y-92838661D01*
X164269867Y-92862666D01*
X164246870Y-92887146D01*
X164222148Y-92913932D01*
X164220083Y-92916242D01*
X164086332Y-93050613D01*
X163937664Y-93174046D01*
X163791701Y-93272335D01*
X163749379Y-93295673D01*
X163742713Y-93297940D01*
X163731029Y-93300127D01*
X163713407Y-93302235D01*
X163688927Y-93304266D01*
X163656669Y-93306223D01*
X163615712Y-93308107D01*
X163565137Y-93309921D01*
X163504023Y-93311665D01*
X163431449Y-93313342D01*
X163346496Y-93314954D01*
X163248244Y-93316502D01*
X163135771Y-93317989D01*
X163008158Y-93319417D01*
X162864485Y-93320786D01*
X162703832Y-93322100D01*
X162525277Y-93323360D01*
X162327901Y-93324567D01*
X162110784Y-93325724D01*
X161873006Y-93326833D01*
X161613646Y-93327896D01*
X161331783Y-93328913D01*
X161026499Y-93329888D01*
X160696872Y-93330822D01*
X160341982Y-93331717D01*
X159960910Y-93332575D01*
X159552734Y-93333398D01*
X159116534Y-93334187D01*
X158651392Y-93334945D01*
X158156385Y-93335673D01*
X157630594Y-93336373D01*
X157073099Y-93337048D01*
X156482979Y-93337698D01*
X155859314Y-93338326D01*
X155201184Y-93338934D01*
X154507670Y-93339524D01*
X153777849Y-93340097D01*
X153010803Y-93340655D01*
X152205611Y-93341200D01*
X151361352Y-93341735D01*
X150477107Y-93342261D01*
X149551956Y-93342779D01*
X148584977Y-93343292D01*
X147575252Y-93343802D01*
X146521859Y-93344310D01*
X145423878Y-93344819D01*
X144280390Y-93345330D01*
X143090473Y-93345845D01*
X141853208Y-93346366D01*
X140567675Y-93346894D01*
X139232953Y-93347433D01*
X138120550Y-93347875D01*
X136978460Y-93348308D01*
X135847688Y-93348698D01*
X134729341Y-93349047D01*
X133624525Y-93349354D01*
X132534345Y-93349620D01*
X131459909Y-93349846D01*
X130402322Y-93350031D01*
X129362690Y-93350176D01*
X128342120Y-93350282D01*
X127341717Y-93350349D01*
X126362588Y-93350377D01*
X125405840Y-93350366D01*
X124472577Y-93350318D01*
X123563907Y-93350231D01*
X122680935Y-93350108D01*
X121824768Y-93349948D01*
X120996512Y-93349751D01*
X120197272Y-93349518D01*
X119428156Y-93349249D01*
X118690269Y-93348945D01*
X117984717Y-93348606D01*
X117312607Y-93348233D01*
X116675044Y-93347825D01*
X116073136Y-93347383D01*
X115507987Y-93346908D01*
X114980704Y-93346399D01*
X114492394Y-93345858D01*
X114044162Y-93345285D01*
X113637115Y-93344679D01*
X113272359Y-93344043D01*
X112950999Y-93343374D01*
X112674143Y-93342675D01*
X112442895Y-93341946D01*
X112258363Y-93341186D01*
X112121653Y-93340397D01*
X112033870Y-93339578D01*
X112001097Y-93338955D01*
X111779746Y-93330511D01*
X111602441Y-93320492D01*
X111462376Y-93307361D01*
X111352747Y-93289581D01*
X111266747Y-93265614D01*
X111197572Y-93233925D01*
X111138416Y-93192976D01*
X111082474Y-93141230D01*
X111070413Y-93128760D01*
X110999471Y-93053258D01*
X110940828Y-92985463D01*
X110893249Y-92919674D01*
X110855500Y-92850190D01*
X110826346Y-92771310D01*
X110804552Y-92677332D01*
X110788884Y-92562556D01*
X110778106Y-92421279D01*
X110770984Y-92247801D01*
X110766284Y-92036421D01*
X110762769Y-91781437D01*
X110761860Y-91704107D01*
X110751313Y-90795148D01*
X111136632Y-90795148D01*
X111136727Y-90865068D01*
X111160472Y-90972243D01*
X111224459Y-91065568D01*
X111318273Y-91135600D01*
X111431496Y-91172894D01*
X111480284Y-91176530D01*
X111490564Y-91175697D01*
X116396848Y-91175697D01*
X116419933Y-91325366D01*
X116478268Y-91458954D01*
X116569529Y-91566850D01*
X116647838Y-91619927D01*
X116682607Y-91637550D01*
X116715727Y-91651528D01*
X116753305Y-91662293D01*
X116801451Y-91670278D01*
X116866273Y-91675915D01*
X116953879Y-91679637D01*
X117070378Y-91681875D01*
X117221878Y-91683063D01*
X117414487Y-91683632D01*
X117551041Y-91683854D01*
X118333718Y-91685038D01*
X118458423Y-91621845D01*
X118543386Y-91568988D01*
X118618534Y-91505994D01*
X118645541Y-91475649D01*
X118668533Y-91442406D01*
X118717296Y-91369815D01*
X118789729Y-91261061D01*
X118883730Y-91119327D01*
X118997196Y-90947795D01*
X119128025Y-90749650D01*
X119274116Y-90528075D01*
X119433366Y-90286253D01*
X119603674Y-90027369D01*
X119782937Y-89754604D01*
X119959474Y-89485739D01*
X120143781Y-89204927D01*
X120319989Y-88936481D01*
X120486116Y-88683414D01*
X120640185Y-88448741D01*
X120780215Y-88235477D01*
X120904227Y-88046635D01*
X121010241Y-87885230D01*
X121096278Y-87754276D01*
X121160358Y-87656788D01*
X121200502Y-87595781D01*
X121214731Y-87574268D01*
X121214732Y-87574266D01*
X121228907Y-87594340D01*
X121268987Y-87653932D01*
X121332988Y-87750037D01*
X121418927Y-87879653D01*
X121524822Y-88039774D01*
X121648689Y-88227398D01*
X121788544Y-88439520D01*
X121942406Y-88673136D01*
X122108290Y-88925243D01*
X122284213Y-89192837D01*
X122463987Y-89466509D01*
X122649613Y-89749096D01*
X122828417Y-90021098D01*
X122998275Y-90279292D01*
X123157061Y-90520457D01*
X123302649Y-90741372D01*
X123432914Y-90938815D01*
X123545730Y-91109564D01*
X123638973Y-91250396D01*
X123710516Y-91358092D01*
X123758235Y-91429428D01*
X123779187Y-91460065D01*
X123845546Y-91530346D01*
X123933539Y-91596840D01*
X123975389Y-91620925D01*
X124101909Y-91685038D01*
X125656241Y-91685038D01*
X125782238Y-91621190D01*
X125896811Y-91536329D01*
X125979283Y-91419514D01*
X126027373Y-91279985D01*
X126038800Y-91126978D01*
X126011282Y-90969731D01*
X125969034Y-90864844D01*
X125946384Y-90827054D01*
X125897078Y-90749895D01*
X125822947Y-90636119D01*
X125725826Y-90488476D01*
X125607546Y-90309719D01*
X125469941Y-90102599D01*
X125314843Y-89869868D01*
X125144085Y-89614277D01*
X124959500Y-89338578D01*
X124762921Y-89045522D01*
X124556181Y-88737861D01*
X124341113Y-88418346D01*
X124192601Y-88198017D01*
X122483067Y-85663206D01*
X124198362Y-83061460D01*
X124416510Y-82730354D01*
X124627608Y-82409522D01*
X124829877Y-82101688D01*
X125021539Y-81809576D01*
X125200816Y-81535911D01*
X125365930Y-81283416D01*
X125515103Y-81054816D01*
X125646557Y-80852834D01*
X125758513Y-80680196D01*
X125849194Y-80539626D01*
X125916821Y-80433847D01*
X125959617Y-80365584D01*
X125974794Y-80339787D01*
X126027508Y-80182780D01*
X126035898Y-80014848D01*
X126013404Y-79911376D01*
X127408905Y-79911376D01*
X127409345Y-84012071D01*
X127409464Y-84569367D01*
X127409721Y-85078225D01*
X127410156Y-85541060D01*
X127410810Y-85960284D01*
X127411722Y-86338310D01*
X127412931Y-86677553D01*
X127414478Y-86980424D01*
X127416402Y-87249338D01*
X127418743Y-87486709D01*
X127421541Y-87694948D01*
X127424836Y-87876470D01*
X127428667Y-88033688D01*
X127433074Y-88169015D01*
X127438098Y-88284865D01*
X127443777Y-88383651D01*
X127450152Y-88467786D01*
X127457262Y-88539684D01*
X127465147Y-88601758D01*
X127473847Y-88656421D01*
X127483402Y-88706087D01*
X127487008Y-88722976D01*
X127557009Y-88979915D01*
X127657270Y-89258030D01*
X127781563Y-89543081D01*
X127923660Y-89820824D01*
X128077333Y-90077018D01*
X128082649Y-90085122D01*
X128164304Y-90195429D01*
X128275882Y-90326896D01*
X128407933Y-90470059D01*
X128551007Y-90615453D01*
X128695653Y-90753613D01*
X128832424Y-90875072D01*
X128951867Y-90970366D01*
X128999675Y-91003647D01*
X129132264Y-91084369D01*
X129292653Y-91173374D01*
X129467527Y-91264038D01*
X129643570Y-91349737D01*
X129807466Y-91423846D01*
X129945899Y-91479742D01*
X129983131Y-91492863D01*
X130160212Y-91546099D01*
X130362572Y-91597079D01*
X130564802Y-91639463D01*
X130587083Y-91643532D01*
X130629823Y-91646508D01*
X130715464Y-91648703D01*
X130836060Y-91650051D01*
X130983666Y-91650486D01*
X131150337Y-91649943D01*
X131260857Y-91649076D01*
X131463496Y-91646586D01*
X131623908Y-91643054D01*
X131750713Y-91637854D01*
X131852532Y-91630359D01*
X131937988Y-91619943D01*
X132015701Y-91605980D01*
X132090411Y-91588808D01*
X132216112Y-91555038D01*
X132347055Y-91515710D01*
X132457812Y-91478524D01*
X132471792Y-91473350D01*
X132606689Y-91417423D01*
X132769625Y-91342055D01*
X132945597Y-91254884D01*
X133119605Y-91163547D01*
X133276645Y-91075683D01*
X133395022Y-91003320D01*
X133504286Y-90922703D01*
X133635215Y-90811497D01*
X133778260Y-90679258D01*
X133923873Y-90535541D01*
X134062503Y-90389901D01*
X134184604Y-90251893D01*
X134280625Y-90131073D01*
X134312608Y-90085122D01*
X134467389Y-89827479D01*
X134610334Y-89548765D01*
X134735302Y-89263043D01*
X134836149Y-88984375D01*
X134906734Y-88726824D01*
X134907578Y-88722976D01*
X134917446Y-88674504D01*
X134926445Y-88621892D01*
X134934615Y-88562726D01*
X134941996Y-88494592D01*
X134948627Y-88415079D01*
X134954549Y-88321771D01*
X134959800Y-88212257D01*
X134964422Y-88084122D01*
X134968453Y-87934953D01*
X134971934Y-87762337D01*
X134974904Y-87563861D01*
X134977402Y-87337111D01*
X134979470Y-87079674D01*
X134981146Y-86789136D01*
X134982471Y-86463085D01*
X134983484Y-86099106D01*
X134984224Y-85694787D01*
X134984733Y-85247714D01*
X134985049Y-84755474D01*
X134985212Y-84215653D01*
X134985241Y-84012071D01*
X134985681Y-79911376D01*
X137833329Y-79911376D01*
X137833329Y-91305347D01*
X137897137Y-91431266D01*
X137956446Y-91525445D01*
X138031223Y-91590925D01*
X138081471Y-91619927D01*
X138118750Y-91638691D01*
X138154286Y-91653295D01*
X138194778Y-91664273D01*
X138246920Y-91672160D01*
X138317408Y-91677489D01*
X138412938Y-91680795D01*
X138540207Y-91682611D01*
X138705909Y-91683473D01*
X138882973Y-91683854D01*
X139086682Y-91684108D01*
X139246271Y-91683728D01*
X139368469Y-91682192D01*
X139460008Y-91678977D01*
X139527617Y-91673563D01*
X139578027Y-91665426D01*
X139617968Y-91654044D01*
X139654171Y-91638895D01*
X139689828Y-91621250D01*
X139792131Y-91554675D01*
X139861856Y-91469923D01*
X139873317Y-91449628D01*
X139930927Y-91341795D01*
X139943639Y-88616110D01*
X139956352Y-85890426D01*
X140563682Y-87248482D01*
X140675322Y-87497661D01*
X140781902Y-87734653D01*
X140881425Y-87955083D01*
X140971897Y-88154573D01*
X141051322Y-88328744D01*
X141117705Y-88473219D01*
X141169052Y-88583621D01*
X141203366Y-88655572D01*
X141217470Y-88682934D01*
X141267138Y-88738364D01*
X141342882Y-88795871D01*
X141391127Y-88823785D01*
X141430335Y-88843116D01*
X141466955Y-88858136D01*
X141507763Y-88869387D01*
X141559536Y-88877414D01*
X141629051Y-88882762D01*
X141723083Y-88885975D01*
X141848411Y-88887596D01*
X142011809Y-88888170D01*
X142193789Y-88888241D01*
X142396572Y-88888140D01*
X142555280Y-88887474D01*
X142676690Y-88885699D01*
X142767580Y-88882270D01*
X142834725Y-88876643D01*
X142884903Y-88868275D01*
X142924890Y-88856621D01*
X142961463Y-88841137D01*
X142996452Y-88823785D01*
X143077707Y-88773025D01*
X143145258Y-88714307D01*
X143170109Y-88682934D01*
X143188800Y-88646158D01*
X143226176Y-88567304D01*
X143280242Y-88450750D01*
X143349002Y-88300873D01*
X143430463Y-88122050D01*
X143522628Y-87918660D01*
X143623503Y-87695080D01*
X143731092Y-87455687D01*
X143823897Y-87248482D01*
X144431227Y-85890426D01*
X144443940Y-88616110D01*
X144456652Y-91341795D01*
X144514262Y-91449628D01*
X144579726Y-91539970D01*
X144674174Y-91608772D01*
X144697751Y-91621250D01*
X144736646Y-91640386D01*
X144773184Y-91655252D01*
X144814136Y-91666388D01*
X144866272Y-91674331D01*
X144936363Y-91679622D01*
X145031179Y-91682800D01*
X145157491Y-91684402D01*
X145322068Y-91684969D01*
X145499095Y-91685038D01*
X145701933Y-91684932D01*
X145860691Y-91684253D01*
X145982140Y-91682462D01*
X146073052Y-91679020D01*
X146140196Y-91673388D01*
X146190345Y-91665026D01*
X146230269Y-91653394D01*
X146266740Y-91637953D01*
X146300557Y-91621190D01*
X146391243Y-91564982D01*
X146453871Y-91495223D01*
X146490402Y-91431345D01*
X146554250Y-91305347D01*
X146554250Y-88310758D01*
X153699438Y-88310758D01*
X153699504Y-88654339D01*
X153699685Y-89045413D01*
X153699695Y-89071313D01*
X153699841Y-89463311D01*
X153700053Y-89807648D01*
X153700505Y-90107510D01*
X153701373Y-90366089D01*
X153702833Y-90586571D01*
X153705058Y-90772146D01*
X153708225Y-90926002D01*
X153712508Y-91051328D01*
X153718083Y-91151313D01*
X153725125Y-91229145D01*
X153733808Y-91288014D01*
X153744309Y-91331107D01*
X153756801Y-91361613D01*
X153771460Y-91382722D01*
X153788462Y-91397621D01*
X153807981Y-91409500D01*
X153828720Y-91420728D01*
X153878025Y-91433493D01*
X153969046Y-91443620D01*
X154092716Y-91451130D01*
X154239972Y-91456046D01*
X154401746Y-91458390D01*
X154568973Y-91458184D01*
X154732589Y-91455451D01*
X154883527Y-91450213D01*
X155012722Y-91442492D01*
X155111108Y-91432311D01*
X155169619Y-91419691D01*
X155174732Y-91417418D01*
X155226766Y-91382255D01*
X155251503Y-91349411D01*
X155251753Y-91347498D01*
X155257485Y-91330910D01*
X155266763Y-91348686D01*
X155285714Y-91380821D01*
X155317472Y-91406000D01*
X155367705Y-91425029D01*
X155442081Y-91438715D01*
X155546267Y-91447864D01*
X155685931Y-91453281D01*
X155866742Y-91455773D01*
X156022762Y-91456209D01*
X156250394Y-91454977D01*
X156429113Y-91451222D01*
X156560800Y-91444860D01*
X156647336Y-91435804D01*
X156686992Y-91425834D01*
X156710845Y-91415290D01*
X156731806Y-91404659D01*
X156750062Y-91390775D01*
X156765800Y-91370474D01*
X156779205Y-91340590D01*
X156790466Y-91297959D01*
X156799768Y-91239416D01*
X156807298Y-91161795D01*
X156813243Y-91061931D01*
X156817789Y-90936660D01*
X156821122Y-90782817D01*
X156823431Y-90597237D01*
X156824900Y-90376754D01*
X156825717Y-90118203D01*
X156826069Y-89818421D01*
X156826142Y-89474241D01*
X156826122Y-89082498D01*
X156826122Y-89066219D01*
X156826141Y-88672558D01*
X156826076Y-88326583D01*
X156825739Y-88025129D01*
X156824943Y-87765031D01*
X156823503Y-87543123D01*
X156821230Y-87356241D01*
X156817940Y-87201220D01*
X156813445Y-87074894D01*
X156807558Y-86974100D01*
X156800093Y-86895671D01*
X156790864Y-86836443D01*
X156779683Y-86793251D01*
X156766365Y-86762930D01*
X156750722Y-86742314D01*
X156732567Y-86728240D01*
X156711715Y-86717541D01*
X156687979Y-86707053D01*
X156686992Y-86706605D01*
X156637655Y-86695171D01*
X156544777Y-86686505D01*
X156406478Y-86680521D01*
X156220878Y-86677133D01*
X156022762Y-86676229D01*
X155823547Y-86676802D01*
X155668776Y-86678767D01*
X155552050Y-86682493D01*
X155466972Y-86688348D01*
X155407145Y-86696703D01*
X155366172Y-86707925D01*
X155350184Y-86715020D01*
X155298151Y-86750184D01*
X155273414Y-86783028D01*
X155273164Y-86784940D01*
X155267431Y-86801528D01*
X155258154Y-86783752D01*
X155239203Y-86751618D01*
X155207445Y-86726439D01*
X155157211Y-86707409D01*
X155082836Y-86693723D01*
X154978649Y-86684575D01*
X154838985Y-86679157D01*
X154658174Y-86676665D01*
X154502154Y-86676229D01*
X154274523Y-86677462D01*
X154095803Y-86681216D01*
X153964116Y-86687578D01*
X153877580Y-86696635D01*
X153837924Y-86706605D01*
X153814088Y-86717134D01*
X153793139Y-86727739D01*
X153774893Y-86741579D01*
X153759163Y-86761816D01*
X153745766Y-86791612D01*
X153734518Y-86834128D01*
X153725232Y-86892524D01*
X153717724Y-86969963D01*
X153711810Y-87069605D01*
X153707304Y-87194611D01*
X153704022Y-87348144D01*
X153701780Y-87533364D01*
X153700391Y-87753432D01*
X153699672Y-88011510D01*
X153699438Y-88310758D01*
X146554250Y-88310758D01*
X146554250Y-81237629D01*
X150193962Y-81237629D01*
X150199711Y-81405259D01*
X150236655Y-81535683D01*
X150308394Y-81632993D01*
X150418525Y-81701283D01*
X150570645Y-81744645D01*
X150650193Y-81756687D01*
X150735425Y-81770075D01*
X150802700Y-81786012D01*
X150828171Y-81796060D01*
X150836124Y-81808078D01*
X150843050Y-81836076D01*
X150849081Y-81883742D01*
X150854347Y-81954768D01*
X150858979Y-82052843D01*
X150863108Y-82181659D01*
X150866866Y-82344904D01*
X150870382Y-82546269D01*
X150873788Y-82789444D01*
X150877215Y-83078120D01*
X150878798Y-83223799D01*
X150882207Y-83540033D01*
X150885455Y-83809375D01*
X150888947Y-84035779D01*
X150893085Y-84223199D01*
X150898272Y-84375591D01*
X150904913Y-84496909D01*
X150913411Y-84591108D01*
X150924168Y-84662143D01*
X150937589Y-84713969D01*
X150954076Y-84750541D01*
X150974034Y-84775813D01*
X150997865Y-84793740D01*
X151025973Y-84808277D01*
X151041127Y-84815223D01*
X151090622Y-84826687D01*
X151183791Y-84835368D01*
X151322488Y-84841352D01*
X151508565Y-84844723D01*
X151702899Y-84845599D01*
X151930219Y-84844356D01*
X152108602Y-84840573D01*
X152239900Y-84834164D01*
X152325966Y-84825044D01*
X152364670Y-84815223D01*
X152426770Y-84772800D01*
X152468744Y-84706872D01*
X152493389Y-84609535D01*
X152503498Y-84472889D01*
X152504118Y-84420985D01*
X152504436Y-84197250D01*
X152586750Y-84341232D01*
X152702961Y-84495849D01*
X152862373Y-84632860D01*
X153059228Y-84748389D01*
X153287766Y-84838561D01*
X153355551Y-84858439D01*
X153443962Y-84874101D01*
X153570049Y-84885398D01*
X153720810Y-84892162D01*
X153883246Y-84894225D01*
X154044353Y-84891418D01*
X154191132Y-84883573D01*
X154309005Y-84870766D01*
X154495444Y-84838115D01*
X154642884Y-84800908D01*
X154763171Y-84753875D01*
X154868152Y-84691746D01*
X154969673Y-84609248D01*
X155032960Y-84548673D01*
X155120422Y-84450228D01*
X155198107Y-84342449D01*
X155258488Y-84237732D01*
X155294042Y-84148472D01*
X155300325Y-84108261D01*
X155306130Y-84095743D01*
X155327356Y-84086486D01*
X155369968Y-84080160D01*
X155439934Y-84076439D01*
X155543222Y-84074991D01*
X155685796Y-84075490D01*
X155859933Y-84077425D01*
X156419315Y-84084727D01*
X156419315Y-84364724D01*
X156422939Y-84522688D01*
X156435477Y-84638302D01*
X156459428Y-84719661D01*
X156497294Y-84774858D01*
X156551574Y-84811989D01*
X156558444Y-84815223D01*
X156609687Y-84827018D01*
X156706091Y-84835864D01*
X156849188Y-84841835D01*
X157040515Y-84845005D01*
X157194790Y-84845599D01*
X157418956Y-84844247D01*
X157593875Y-84840142D01*
X157721081Y-84833210D01*
X157802110Y-84823380D01*
X157831137Y-84815223D01*
X157887711Y-84779018D01*
X157927453Y-84725001D01*
X157952911Y-84645075D01*
X157966634Y-84531142D01*
X157971168Y-84375105D01*
X157971187Y-84370134D01*
X157972109Y-84095549D01*
X158078819Y-84044698D01*
X158154693Y-84001970D01*
X158210118Y-83951294D01*
X158248111Y-83884405D01*
X158271687Y-83793039D01*
X158283863Y-83668931D01*
X158287656Y-83503818D01*
X158287685Y-83472463D01*
X158284592Y-83299852D01*
X158273760Y-83169616D01*
X158252173Y-83073502D01*
X158216817Y-83003254D01*
X158164678Y-82950618D01*
X158092740Y-82907339D01*
X158078819Y-82900554D01*
X157972109Y-82849703D01*
X157971187Y-82270380D01*
X157971106Y-82084466D01*
X157971834Y-81943563D01*
X157973831Y-81841832D01*
X157977554Y-81773435D01*
X157983459Y-81732532D01*
X157992004Y-81713285D01*
X158003647Y-81709856D01*
X158014760Y-81714190D01*
X158064417Y-81730210D01*
X158143518Y-81746225D01*
X158199314Y-81754285D01*
X158284216Y-81767727D01*
X158351357Y-81783969D01*
X158376085Y-81793937D01*
X158391363Y-81815962D01*
X158404598Y-81863686D01*
X158415910Y-81939885D01*
X158425420Y-82047330D01*
X158433248Y-82188794D01*
X158439515Y-82367051D01*
X158444340Y-82584874D01*
X158447845Y-82845036D01*
X158450150Y-83150310D01*
X158451375Y-83503469D01*
X158451421Y-83528636D01*
X158452392Y-83824795D01*
X158454245Y-84072944D01*
X158457055Y-84275919D01*
X158460902Y-84436555D01*
X158465863Y-84557689D01*
X158472016Y-84642155D01*
X158479438Y-84692788D01*
X158483724Y-84706469D01*
X158505519Y-84747309D01*
X158533340Y-84779312D01*
X158573192Y-84803544D01*
X158631083Y-84821073D01*
X158713016Y-84832965D01*
X158824997Y-84840287D01*
X158973033Y-84844105D01*
X159163128Y-84845487D01*
X159266963Y-84845599D01*
X159478546Y-84844983D01*
X159645292Y-84842424D01*
X159773206Y-84836855D01*
X159868293Y-84827210D01*
X159936559Y-84812422D01*
X159984009Y-84791423D01*
X160016649Y-84763147D01*
X160040485Y-84726528D01*
X160050201Y-84706469D01*
X160055823Y-84668886D01*
X160060917Y-84585016D01*
X160065484Y-84459419D01*
X160069522Y-84296657D01*
X160073033Y-84101289D01*
X160076015Y-83877877D01*
X160078470Y-83630982D01*
X160080396Y-83365163D01*
X160081795Y-83084983D01*
X160082665Y-82795001D01*
X160083008Y-82499779D01*
X160082823Y-82203877D01*
X160082109Y-81911856D01*
X160080868Y-81628277D01*
X160079099Y-81357700D01*
X160076802Y-81104687D01*
X160073977Y-80873798D01*
X160070624Y-80669593D01*
X160066743Y-80496634D01*
X160062334Y-80359481D01*
X160057397Y-80262696D01*
X160051932Y-80210838D01*
X160050201Y-80204748D01*
X160018079Y-80152035D01*
X159971919Y-80114078D01*
X159903889Y-80088678D01*
X159806160Y-80073640D01*
X159670901Y-80066768D01*
X159554261Y-80065639D01*
X159417503Y-80066333D01*
X159319074Y-80069693D01*
X159246457Y-80077665D01*
X159187135Y-80092192D01*
X159128591Y-80115221D01*
X159076272Y-80139919D01*
X158989342Y-80187552D01*
X158879095Y-80255529D01*
X158762478Y-80333133D01*
X158694891Y-80381032D01*
X158577232Y-80460908D01*
X158449309Y-80538293D01*
X158330628Y-80601753D01*
X158275371Y-80626987D01*
X158177437Y-80669144D01*
X158091608Y-80708804D01*
X158033922Y-80738499D01*
X158027473Y-80742395D01*
X157970266Y-80778703D01*
X157970266Y-80522600D01*
X157965860Y-80368079D01*
X157950874Y-80255648D01*
X157922652Y-80177170D01*
X157878542Y-80124506D01*
X157831137Y-80095994D01*
X157789422Y-80086126D01*
X157710411Y-80078316D01*
X157591327Y-80072464D01*
X157429391Y-80068467D01*
X157221826Y-80066223D01*
X157001641Y-80065619D01*
X156767013Y-80066035D01*
X156577828Y-80067769D01*
X156428678Y-80071542D01*
X156314158Y-80078080D01*
X156228863Y-80088106D01*
X156167387Y-80102345D01*
X156124325Y-80121520D01*
X156094269Y-80146355D01*
X156071816Y-80177575D01*
X156064198Y-80191178D01*
X156052360Y-80222499D01*
X156026901Y-80296091D01*
X155989830Y-80405836D01*
X155943155Y-80545617D01*
X155888882Y-80709313D01*
X155829019Y-80890807D01*
X155765575Y-81083980D01*
X155700555Y-81282713D01*
X155635969Y-81480889D01*
X155573823Y-81672389D01*
X155516126Y-81851094D01*
X155464883Y-82010886D01*
X155422105Y-82145646D01*
X155404632Y-82201354D01*
X155393029Y-82226729D01*
X155381951Y-82217672D01*
X155368881Y-82168613D01*
X155353958Y-82089207D01*
X155305726Y-81890442D01*
X155235760Y-81706496D01*
X155150255Y-81552696D01*
X155121023Y-81512854D01*
X155035928Y-81430656D01*
X154919056Y-81351065D01*
X154788705Y-81285544D01*
X154715811Y-81259015D01*
X154694849Y-81248175D01*
X154718776Y-81241287D01*
X154790248Y-81237756D01*
X154812419Y-81237374D01*
X154958809Y-81223299D01*
X155063565Y-81184618D01*
X155130394Y-81119744D01*
X155143094Y-81096059D01*
X155157054Y-81037910D01*
X155166967Y-80941583D01*
X155172911Y-80818855D01*
X155174962Y-80681499D01*
X155173196Y-80541291D01*
X155167690Y-80410007D01*
X155158521Y-80299421D01*
X155145765Y-80221308D01*
X155137238Y-80196433D01*
X155120974Y-80166927D01*
X155102413Y-80142229D01*
X155077182Y-80121910D01*
X155040903Y-80105544D01*
X154989201Y-80092703D01*
X154917700Y-80082960D01*
X154822025Y-80075887D01*
X154697801Y-80071058D01*
X154540650Y-80068043D01*
X154346199Y-80066417D01*
X154110070Y-80065751D01*
X153827889Y-80065619D01*
X153798037Y-80065619D01*
X153517536Y-80065818D01*
X153283452Y-80066509D01*
X153091353Y-80067828D01*
X152936807Y-80069916D01*
X152815381Y-80072908D01*
X152722643Y-80076944D01*
X152654162Y-80082162D01*
X152605503Y-80088700D01*
X152572236Y-80096696D01*
X152553388Y-80104410D01*
X152501354Y-80139573D01*
X152476617Y-80172417D01*
X152476367Y-80174330D01*
X152470634Y-80190918D01*
X152461357Y-80173142D01*
X152428637Y-80130134D01*
X152366586Y-80099133D01*
X152269707Y-80078894D01*
X152132504Y-80068176D01*
X151985949Y-80065619D01*
X151832361Y-80067794D01*
X151710497Y-80077258D01*
X151607520Y-80098420D01*
X151510593Y-80135688D01*
X151406879Y-80193469D01*
X151283542Y-80276173D01*
X151200801Y-80335244D01*
X151079846Y-80416035D01*
X150932139Y-80505003D01*
X150777750Y-80590485D01*
X150656620Y-80651517D01*
X150529912Y-80712498D01*
X150440335Y-80759099D01*
X150378668Y-80797846D01*
X150335686Y-80835261D01*
X150302166Y-80877870D01*
X150275273Y-80921255D01*
X150233645Y-81002969D01*
X150209286Y-81084949D01*
X150196753Y-81188375D01*
X150193962Y-81237629D01*
X146554250Y-81237629D01*
X146554250Y-79911376D01*
X146490402Y-79785378D01*
X146434193Y-79694692D01*
X146364435Y-79632064D01*
X146300557Y-79595533D01*
X146259873Y-79575593D01*
X146221720Y-79560315D01*
X146178898Y-79549085D01*
X146124205Y-79541290D01*
X146050442Y-79536317D01*
X145950406Y-79533555D01*
X145816898Y-79532390D01*
X145642716Y-79532210D01*
X145557147Y-79532279D01*
X144939735Y-79532873D01*
X144812608Y-79602199D01*
X144730863Y-79654643D01*
X144670123Y-79717227D01*
X144613583Y-79807904D01*
X144604932Y-79824077D01*
X144587510Y-79860435D01*
X144550893Y-79939518D01*
X144496731Y-80057669D01*
X144426673Y-80211232D01*
X144342372Y-80396549D01*
X144245477Y-80609963D01*
X144137638Y-80847819D01*
X144020507Y-81106458D01*
X143895733Y-81382225D01*
X143764966Y-81671462D01*
X143629858Y-81970513D01*
X143492058Y-82275721D01*
X143353217Y-82583429D01*
X143214985Y-82889980D01*
X143079013Y-83191717D01*
X142946951Y-83484985D01*
X142820450Y-83766125D01*
X142701159Y-84031481D01*
X142590730Y-84277396D01*
X142490812Y-84500214D01*
X142403056Y-84696277D01*
X142329113Y-84861930D01*
X142270633Y-84993514D01*
X142229266Y-85087373D01*
X142222628Y-85102591D01*
X142216966Y-85110180D01*
X142208644Y-85109664D01*
X142196523Y-85098628D01*
X142179463Y-85074654D01*
X142156322Y-85035326D01*
X142125960Y-84978228D01*
X142087237Y-84900942D01*
X142039012Y-84801052D01*
X141980145Y-84676142D01*
X141909496Y-84523795D01*
X141825923Y-84341594D01*
X141728287Y-84127123D01*
X141615447Y-83877966D01*
X141486262Y-83591705D01*
X141339592Y-83265925D01*
X141174297Y-82898208D01*
X141016712Y-82547335D01*
X140860558Y-82199783D01*
X140709265Y-81863496D01*
X140564244Y-81541589D01*
X140426907Y-81237177D01*
X140298667Y-80953373D01*
X140180933Y-80693293D01*
X140075120Y-80460050D01*
X139982637Y-80256759D01*
X139904897Y-80086535D01*
X139843312Y-79952492D01*
X139799292Y-79857744D01*
X139774251Y-79805406D01*
X139770801Y-79798717D01*
X139701775Y-79697563D01*
X139612315Y-79624081D01*
X139574905Y-79602264D01*
X139447844Y-79532873D01*
X138830432Y-79532279D01*
X138637335Y-79532231D01*
X138487887Y-79532915D01*
X138374889Y-79534943D01*
X138291139Y-79538927D01*
X138229437Y-79545481D01*
X138182581Y-79555217D01*
X138143372Y-79568748D01*
X138104607Y-79586686D01*
X138087022Y-79595533D01*
X137996336Y-79651741D01*
X137933708Y-79721499D01*
X137897177Y-79785378D01*
X137833329Y-79911376D01*
X134985681Y-79911376D01*
X134921834Y-79785378D01*
X134865625Y-79694692D01*
X134795867Y-79632064D01*
X134731988Y-79595533D01*
X134691092Y-79575510D01*
X134652688Y-79560182D01*
X134609530Y-79548922D01*
X134554368Y-79541103D01*
X134479956Y-79536098D01*
X134379046Y-79533280D01*
X134244389Y-79532021D01*
X134068737Y-79531695D01*
X133994090Y-79531685D01*
X133801904Y-79531830D01*
X133653322Y-79532682D01*
X133541096Y-79534868D01*
X133457979Y-79539015D01*
X133396724Y-79545750D01*
X133350085Y-79555698D01*
X133310813Y-79569486D01*
X133271661Y-79587742D01*
X133256309Y-79595473D01*
X133154007Y-79662048D01*
X133084281Y-79746800D01*
X133072820Y-79767094D01*
X133015211Y-79874928D01*
X133002371Y-84057410D01*
X132989531Y-88239893D01*
X132932399Y-88443296D01*
X132824954Y-88735436D01*
X132674262Y-89000832D01*
X132480374Y-89239408D01*
X132289922Y-89414379D01*
X132046255Y-89580944D01*
X131786162Y-89701982D01*
X131514989Y-89777520D01*
X131238082Y-89807587D01*
X130960786Y-89792209D01*
X130688446Y-89731414D01*
X130426407Y-89625230D01*
X130180015Y-89473684D01*
X130090173Y-89403011D01*
X129863826Y-89186342D01*
X129683433Y-88953539D01*
X129545205Y-88699023D01*
X129464041Y-88481254D01*
X129405266Y-88290744D01*
X129392321Y-84082836D01*
X129379375Y-79874928D01*
X129321766Y-79767094D01*
X129256301Y-79676753D01*
X129161854Y-79607950D01*
X129138277Y-79595473D01*
X129097409Y-79575468D01*
X129059013Y-79560154D01*
X129015840Y-79548905D01*
X128960643Y-79541094D01*
X128886176Y-79536093D01*
X128785191Y-79533278D01*
X128650441Y-79532020D01*
X128474678Y-79531695D01*
X128400496Y-79531685D01*
X128208317Y-79531829D01*
X128059740Y-79532680D01*
X127947518Y-79534865D01*
X127864404Y-79539010D01*
X127803149Y-79545744D01*
X127756505Y-79555693D01*
X127717225Y-79569485D01*
X127678061Y-79587746D01*
X127662598Y-79595533D01*
X127571912Y-79651741D01*
X127509284Y-79721499D01*
X127472752Y-79785378D01*
X127408905Y-79911376D01*
X126013404Y-79911376D01*
X126000031Y-79849866D01*
X125972084Y-79785378D01*
X125915875Y-79694692D01*
X125846117Y-79632064D01*
X125782238Y-79595533D01*
X125656241Y-79531685D01*
X124866362Y-79531685D01*
X124645192Y-79531766D01*
X124468787Y-79532282D01*
X124331065Y-79533645D01*
X124225939Y-79536264D01*
X124147326Y-79540550D01*
X124089140Y-79546913D01*
X124045297Y-79555764D01*
X124009713Y-79567512D01*
X123976303Y-79582569D01*
X123955209Y-79593139D01*
X123933945Y-79604701D01*
X123912465Y-79619074D01*
X123888944Y-79638879D01*
X123861559Y-79666735D01*
X123828484Y-79705260D01*
X123787896Y-79757074D01*
X123737969Y-79824796D01*
X123676881Y-79911045D01*
X123602805Y-80018441D01*
X123513919Y-80149602D01*
X123408397Y-80307148D01*
X123284415Y-80493698D01*
X123140150Y-80711872D01*
X122973776Y-80964287D01*
X122783469Y-81253564D01*
X122567405Y-81582322D01*
X122529584Y-81639886D01*
X122341272Y-81926400D01*
X122160965Y-82200523D01*
X121990609Y-82459307D01*
X121832149Y-82699810D01*
X121687530Y-82919087D01*
X121558696Y-83114191D01*
X121447593Y-83282179D01*
X121356165Y-83420107D01*
X121286357Y-83525028D01*
X121240114Y-83593998D01*
X121219381Y-83624072D01*
X121218427Y-83625178D01*
X121203801Y-83604412D01*
X121163222Y-83544076D01*
X121098635Y-83447116D01*
X121011985Y-83316478D01*
X120905216Y-83155105D01*
X120780275Y-82965945D01*
X120639105Y-82751942D01*
X120483653Y-82516041D01*
X120315862Y-82261188D01*
X120137679Y-81990327D01*
X119951048Y-81706405D01*
X119907687Y-81640409D01*
X119687333Y-81305068D01*
X119493035Y-81009631D01*
X119322966Y-80751479D01*
X119175300Y-80527991D01*
X119048212Y-80336547D01*
X118939875Y-80174525D01*
X118848463Y-80039305D01*
X118772151Y-79928267D01*
X118709111Y-79838790D01*
X118657519Y-79768253D01*
X118615547Y-79714037D01*
X118581370Y-79673520D01*
X118553162Y-79644082D01*
X118529096Y-79623102D01*
X118507347Y-79607960D01*
X118486088Y-79596036D01*
X118481450Y-79593662D01*
X118446254Y-79576324D01*
X118412645Y-79562564D01*
X118374534Y-79551969D01*
X118325833Y-79544126D01*
X118260454Y-79538621D01*
X118172308Y-79535040D01*
X118055306Y-79532969D01*
X117903361Y-79531995D01*
X117710383Y-79531704D01*
X117569265Y-79531685D01*
X116779386Y-79531685D01*
X116653389Y-79595533D01*
X116562703Y-79651741D01*
X116500074Y-79721499D01*
X116463543Y-79785378D01*
X116411787Y-79935923D01*
X116398369Y-80096814D01*
X116423583Y-80251236D01*
X116453987Y-80327242D01*
X116474700Y-80361806D01*
X116521664Y-80436095D01*
X116593109Y-80547400D01*
X116687267Y-80693013D01*
X116802369Y-80870223D01*
X116936647Y-81076321D01*
X117088330Y-81308599D01*
X117255651Y-81564346D01*
X117436841Y-81840854D01*
X117630130Y-82135413D01*
X117833750Y-82445314D01*
X118045931Y-82767848D01*
X118220867Y-83033475D01*
X118437488Y-83362320D01*
X118646286Y-83679449D01*
X118845560Y-83982267D01*
X119033606Y-84268179D01*
X119208721Y-84534592D01*
X119369203Y-84778910D01*
X119513348Y-84998540D01*
X119639454Y-85190886D01*
X119745818Y-85353356D01*
X119830737Y-85483353D01*
X119892509Y-85578284D01*
X119929429Y-85635555D01*
X119939998Y-85652678D01*
X119926894Y-85675902D01*
X119887039Y-85738653D01*
X119822167Y-85838330D01*
X119734008Y-85972335D01*
X119624297Y-86138068D01*
X119494765Y-86332931D01*
X119347145Y-86554323D01*
X119183169Y-86799647D01*
X119004570Y-87066302D01*
X118813080Y-87351690D01*
X118610432Y-87653211D01*
X118398358Y-87968266D01*
X118239145Y-88204480D01*
X118019668Y-88530196D01*
X117807297Y-88845885D01*
X117603867Y-89148796D01*
X117411209Y-89436177D01*
X117231156Y-89705279D01*
X117065541Y-89953349D01*
X116916197Y-90177636D01*
X116784956Y-90375390D01*
X116673651Y-90543859D01*
X116584116Y-90680292D01*
X116518182Y-90781939D01*
X116477682Y-90846047D01*
X116465722Y-90866564D01*
X116411337Y-91019559D01*
X116396848Y-91175697D01*
X111490564Y-91175697D01*
X111555742Y-91170416D01*
X111622795Y-91147554D01*
X111693798Y-91101163D01*
X111781103Y-91024461D01*
X111812960Y-90993906D01*
X111942641Y-90867959D01*
X111976199Y-90948975D01*
X112022304Y-91019531D01*
X112086789Y-91076957D01*
X112088060Y-91077740D01*
X112108455Y-91088723D01*
X112133449Y-91097885D01*
X112167537Y-91105391D01*
X112215213Y-91111405D01*
X112280970Y-91116093D01*
X112369303Y-91119618D01*
X112484705Y-91122146D01*
X112631670Y-91123840D01*
X112814693Y-91124866D01*
X113038268Y-91125388D01*
X113306888Y-91125571D01*
X113394401Y-91125584D01*
X113689013Y-91125551D01*
X113937055Y-91125098D01*
X114142812Y-91123766D01*
X114310566Y-91121096D01*
X114444600Y-91116629D01*
X114549195Y-91109908D01*
X114628634Y-91100472D01*
X114687201Y-91087865D01*
X114729177Y-91071626D01*
X114758845Y-91051298D01*
X114780488Y-91026421D01*
X114798388Y-90996538D01*
X114810176Y-90973958D01*
X114824532Y-90935418D01*
X114835036Y-90878646D01*
X114842185Y-90796491D01*
X114846477Y-90681802D01*
X114848411Y-90527428D01*
X114848649Y-90421386D01*
X114848080Y-90249931D01*
X114846009Y-90121456D01*
X114841777Y-90028097D01*
X114834724Y-89961992D01*
X114824188Y-89915275D01*
X114809511Y-89880085D01*
X114802117Y-89867120D01*
X114772728Y-89812789D01*
X114771098Y-89773721D01*
X114797220Y-89722581D01*
X114802078Y-89714568D01*
X114818640Y-89681810D01*
X114830793Y-89640721D01*
X114839196Y-89583439D01*
X114844510Y-89502101D01*
X114847395Y-89388844D01*
X114848511Y-89235807D01*
X114848611Y-89160302D01*
X114848098Y-88957214D01*
X114843135Y-88799294D01*
X114828778Y-88680863D01*
X114800082Y-88596239D01*
X114752100Y-88539743D01*
X114679889Y-88505695D01*
X114578503Y-88488414D01*
X114442997Y-88482220D01*
X114268427Y-88481434D01*
X113872258Y-88481434D01*
X113963401Y-88386089D01*
X114042630Y-88295050D01*
X114088367Y-88217233D01*
X114108430Y-88136207D01*
X114111407Y-88075037D01*
X114090789Y-87945130D01*
X114032738Y-87842619D01*
X113942959Y-87773718D01*
X113827157Y-87744640D01*
X113807565Y-87744097D01*
X113730026Y-87744097D01*
X113730026Y-85734226D01*
X113730056Y-85357023D01*
X113729995Y-85027351D01*
X113729613Y-84741888D01*
X113728680Y-84497314D01*
X113726968Y-84290309D01*
X113724247Y-84117552D01*
X113720288Y-83975722D01*
X113714862Y-83861499D01*
X113707739Y-83771562D01*
X113698691Y-83702591D01*
X113687487Y-83651265D01*
X113673899Y-83614264D01*
X113657698Y-83588268D01*
X113638654Y-83569954D01*
X113616538Y-83556004D01*
X113591121Y-83543096D01*
X113578305Y-83536620D01*
X113556101Y-83528101D01*
X113522437Y-83520904D01*
X113473284Y-83514922D01*
X113404612Y-83510048D01*
X113312391Y-83506178D01*
X113192590Y-83503203D01*
X113041181Y-83501019D01*
X112854133Y-83499518D01*
X112627415Y-83498595D01*
X112356998Y-83498144D01*
X112115002Y-83498051D01*
X110726283Y-83498051D01*
X110741023Y-81470373D01*
X110744551Y-81006841D01*
X110748102Y-80591182D01*
X110751777Y-80220419D01*
X110755679Y-79891577D01*
X110759911Y-79601676D01*
X110764573Y-79347741D01*
X110769770Y-79126794D01*
X110775603Y-78935858D01*
X110782175Y-78771957D01*
X110789587Y-78632112D01*
X110797942Y-78513347D01*
X110807343Y-78412684D01*
X110817892Y-78327148D01*
X110829691Y-78253760D01*
X110842842Y-78189543D01*
X110855527Y-78138579D01*
X110886279Y-78066690D01*
X110940145Y-77978277D01*
X111007726Y-77885292D01*
X111079623Y-77799687D01*
X111146434Y-77733414D01*
X111198760Y-77698424D01*
X111202715Y-77697139D01*
X111291334Y-77679317D01*
X111427397Y-77662373D01*
X111611497Y-77646265D01*
X111844226Y-77630954D01*
X112126178Y-77616399D01*
X112457946Y-77602560D01*
X112735015Y-77592785D01*
X112799819Y-77590989D01*
X112883768Y-77589263D01*
X112987669Y-77587605D01*
X113112327Y-77586016D01*
X113258549Y-77584495D01*
X113427141Y-77583040D01*
X113618909Y-77581651D01*
X113834659Y-77580327D01*
X114075197Y-77579068D01*
X114341328Y-77577872D01*
X114633860Y-77576738D01*
X114953598Y-77575667D01*
X115301348Y-77574657D01*
X115677916Y-77573708D01*
X116084108Y-77572818D01*
X116520731Y-77571988D01*
X116988590Y-77571215D01*
X117488491Y-77570500D01*
X118021241Y-77569841D01*
X118587645Y-77569238D01*
X119188510Y-77568690D01*
X119824641Y-77568197D01*
X120496845Y-77567757D01*
X121205928Y-77567370D01*
X121952695Y-77567035D01*
X122737953Y-77566750D01*
X123562508Y-77566517D01*
X124427166Y-77566333D01*
X125332733Y-77566198D01*
X126280014Y-77566110D01*
X127269817Y-77566071D01*
X128302947Y-77566077D01*
G37*
X128302947Y-77566077D02*
X129380209Y-77566130D01*
X130502411Y-77566228D01*
X131670359Y-77566369D01*
X132884857Y-77566555D01*
X134146713Y-77566782D01*
X135456732Y-77567052D01*
X136815721Y-77567363D01*
X138224485Y-77567714D01*
X138706439Y-77567841D01*
X163720991Y-77574467D01*
X163832019Y-77639533D01*
X163934489Y-77714174D01*
X164045736Y-77818495D01*
X164152288Y-77937640D01*
X164240674Y-78056754D01*
X164290842Y-78145515D01*
X164322910Y-78235768D01*
X164352593Y-78352300D01*
X164373720Y-78470681D01*
X164374482Y-78476530D01*
X164384117Y-78552780D01*
X164393054Y-78626000D01*
X164401320Y-78698237D01*
X164408941Y-78771541D01*
X164415944Y-78847961D01*
X164422353Y-78929545D01*
X164428196Y-79018341D01*
X164433498Y-79116400D01*
X164438286Y-79225770D01*
X164442585Y-79348500D01*
X164446423Y-79486638D01*
X164449824Y-79642234D01*
X164452816Y-79817336D01*
X164455424Y-80013993D01*
X164457675Y-80234254D01*
X164459594Y-80480169D01*
X164461208Y-80753785D01*
X164462543Y-81057152D01*
X164463625Y-81392318D01*
X164464481Y-81761333D01*
X164465135Y-82166245D01*
X164465616Y-82609103D01*
X164465948Y-83091956D01*
X164466158Y-83616853D01*
X164466272Y-84185843D01*
X164466316Y-84800974D01*
X164466316Y-85464296D01*
X164466312Y-85671925D01*
X164466325Y-86376011D01*
X164466357Y-87031078D01*
X164466346Y-87638962D01*
X164466230Y-88201493D01*
X164465946Y-88720506D01*
X164465433Y-89197833D01*
X164464627Y-89635308D01*
X164463467Y-90034763D01*
X164461890Y-90398032D01*
X164459834Y-90726948D01*
X164457236Y-91023343D01*
X164454035Y-91289051D01*
X164450167Y-91525904D01*
X164445572Y-91735737D01*
X164440185Y-91920381D01*
X164433946Y-92081670D01*
X164426792Y-92221437D01*
X164418660Y-92341515D01*
X164409488Y-92443737D01*
X164399214Y-92529936D01*
X164387775Y-92601945D01*
X164375110Y-92661597D01*
X164361156Y-92710725D01*
X164345850Y-92751163D01*
X164329130Y-92784743D01*
X164310935Y-92813298D01*
X164291201Y-92838661D01*
X164269867Y-92862666D01*
X164246870Y-92887146D01*
X164222148Y-92913932D01*
X164220083Y-92916242D01*
X164086332Y-93050613D01*
X163937664Y-93174046D01*
X163791701Y-93272335D01*
X163749379Y-93295673D01*
X163742713Y-93297940D01*
X163731029Y-93300127D01*
X163713407Y-93302235D01*
X163688927Y-93304266D01*
X163656669Y-93306223D01*
X163615712Y-93308107D01*
X163565137Y-93309921D01*
X163504023Y-93311665D01*
X163431449Y-93313342D01*
X163346496Y-93314954D01*
X163248244Y-93316502D01*
X163135771Y-93317989D01*
X163008158Y-93319417D01*
X162864485Y-93320786D01*
X162703832Y-93322100D01*
X162525277Y-93323360D01*
X162327901Y-93324567D01*
X162110784Y-93325724D01*
X161873006Y-93326833D01*
X161613646Y-93327896D01*
X161331783Y-93328913D01*
X161026499Y-93329888D01*
X160696872Y-93330822D01*
X160341982Y-93331717D01*
X159960910Y-93332575D01*
X159552734Y-93333398D01*
X159116534Y-93334187D01*
X158651392Y-93334945D01*
X158156385Y-93335673D01*
X157630594Y-93336373D01*
X157073099Y-93337048D01*
X156482979Y-93337698D01*
X155859314Y-93338326D01*
X155201184Y-93338934D01*
X154507670Y-93339524D01*
X153777849Y-93340097D01*
X153010803Y-93340655D01*
X152205611Y-93341200D01*
X151361352Y-93341735D01*
X150477107Y-93342261D01*
X149551956Y-93342779D01*
X148584977Y-93343292D01*
X147575252Y-93343802D01*
X146521859Y-93344310D01*
X145423878Y-93344819D01*
X144280390Y-93345330D01*
X143090473Y-93345845D01*
X141853208Y-93346366D01*
X140567675Y-93346894D01*
X139232953Y-93347433D01*
X138120550Y-93347875D01*
X136978460Y-93348308D01*
X135847688Y-93348698D01*
X134729341Y-93349047D01*
X133624525Y-93349354D01*
X132534345Y-93349620D01*
X131459909Y-93349846D01*
X130402322Y-93350031D01*
X129362690Y-93350176D01*
X128342120Y-93350282D01*
X127341717Y-93350349D01*
X126362588Y-93350377D01*
X125405840Y-93350366D01*
X124472577Y-93350318D01*
X123563907Y-93350231D01*
X122680935Y-93350108D01*
X121824768Y-93349948D01*
X120996512Y-93349751D01*
X120197272Y-93349518D01*
X119428156Y-93349249D01*
X118690269Y-93348945D01*
X117984717Y-93348606D01*
X117312607Y-93348233D01*
X116675044Y-93347825D01*
X116073136Y-93347383D01*
X115507987Y-93346908D01*
X114980704Y-93346399D01*
X114492394Y-93345858D01*
X114044162Y-93345285D01*
X113637115Y-93344679D01*
X113272359Y-93344043D01*
X112950999Y-93343374D01*
X112674143Y-93342675D01*
X112442895Y-93341946D01*
X112258363Y-93341186D01*
X112121653Y-93340397D01*
X112033870Y-93339578D01*
X112001097Y-93338955D01*
X111779746Y-93330511D01*
X111602441Y-93320492D01*
X111462376Y-93307361D01*
X111352747Y-93289581D01*
X111266747Y-93265614D01*
X111197572Y-93233925D01*
X111138416Y-93192976D01*
X111082474Y-93141230D01*
X111070413Y-93128760D01*
X110999471Y-93053258D01*
X110940828Y-92985463D01*
X110893249Y-92919674D01*
X110855500Y-92850190D01*
X110826346Y-92771310D01*
X110804552Y-92677332D01*
X110788884Y-92562556D01*
X110778106Y-92421279D01*
X110770984Y-92247801D01*
X110766284Y-92036421D01*
X110762769Y-91781437D01*
X110761860Y-91704107D01*
X110751313Y-90795148D01*
X111136632Y-90795148D01*
X111136727Y-90865068D01*
X111160472Y-90972243D01*
X111224459Y-91065568D01*
X111318273Y-91135600D01*
X111431496Y-91172894D01*
X111480284Y-91176530D01*
X111490564Y-91175697D01*
X116396848Y-91175697D01*
X116419933Y-91325366D01*
X116478268Y-91458954D01*
X116569529Y-91566850D01*
X116647838Y-91619927D01*
X116682607Y-91637550D01*
X116715727Y-91651528D01*
X116753305Y-91662293D01*
X116801451Y-91670278D01*
X116866273Y-91675915D01*
X116953879Y-91679637D01*
X117070378Y-91681875D01*
X117221878Y-91683063D01*
X117414487Y-91683632D01*
X117551041Y-91683854D01*
X118333718Y-91685038D01*
X118458423Y-91621845D01*
X118543386Y-91568988D01*
X118618534Y-91505994D01*
X118645541Y-91475649D01*
X118668533Y-91442406D01*
X118717296Y-91369815D01*
X118789729Y-91261061D01*
X118883730Y-91119327D01*
X118997196Y-90947795D01*
X119128025Y-90749650D01*
X119274116Y-90528075D01*
X119433366Y-90286253D01*
X119603674Y-90027369D01*
X119782937Y-89754604D01*
X119959474Y-89485739D01*
X120143781Y-89204927D01*
X120319989Y-88936481D01*
X120486116Y-88683414D01*
X120640185Y-88448741D01*
X120780215Y-88235477D01*
X120904227Y-88046635D01*
X121010241Y-87885230D01*
X121096278Y-87754276D01*
X121160358Y-87656788D01*
X121200502Y-87595781D01*
X121214731Y-87574268D01*
X121214732Y-87574266D01*
X121228907Y-87594340D01*
X121268987Y-87653932D01*
X121332988Y-87750037D01*
X121418927Y-87879653D01*
X121524822Y-88039774D01*
X121648689Y-88227398D01*
X121788544Y-88439520D01*
X121942406Y-88673136D01*
X122108290Y-88925243D01*
X122284213Y-89192837D01*
X122463987Y-89466509D01*
X122649613Y-89749096D01*
X122828417Y-90021098D01*
X122998275Y-90279292D01*
X123157061Y-90520457D01*
X123302649Y-90741372D01*
X123432914Y-90938815D01*
X123545730Y-91109564D01*
X123638973Y-91250396D01*
X123710516Y-91358092D01*
X123758235Y-91429428D01*
X123779187Y-91460065D01*
X123845546Y-91530346D01*
X123933539Y-91596840D01*
X123975389Y-91620925D01*
X124101909Y-91685038D01*
X125656241Y-91685038D01*
X125782238Y-91621190D01*
X125896811Y-91536329D01*
X125979283Y-91419514D01*
X126027373Y-91279985D01*
X126038800Y-91126978D01*
X126011282Y-90969731D01*
X125969034Y-90864844D01*
X125946384Y-90827054D01*
X125897078Y-90749895D01*
X125822947Y-90636119D01*
X125725826Y-90488476D01*
X125607546Y-90309719D01*
X125469941Y-90102599D01*
X125314843Y-89869868D01*
X125144085Y-89614277D01*
X124959500Y-89338578D01*
X124762921Y-89045522D01*
X124556181Y-88737861D01*
X124341113Y-88418346D01*
X124192601Y-88198017D01*
X122483067Y-85663206D01*
X124198362Y-83061460D01*
X124416510Y-82730354D01*
X124627608Y-82409522D01*
X124829877Y-82101688D01*
X125021539Y-81809576D01*
X125200816Y-81535911D01*
X125365930Y-81283416D01*
X125515103Y-81054816D01*
X125646557Y-80852834D01*
X125758513Y-80680196D01*
X125849194Y-80539626D01*
X125916821Y-80433847D01*
X125959617Y-80365584D01*
X125974794Y-80339787D01*
X126027508Y-80182780D01*
X126035898Y-80014848D01*
X126013404Y-79911376D01*
X127408905Y-79911376D01*
X127409345Y-84012071D01*
X127409464Y-84569367D01*
X127409721Y-85078225D01*
X127410156Y-85541060D01*
X127410810Y-85960284D01*
X127411722Y-86338310D01*
X127412931Y-86677553D01*
X127414478Y-86980424D01*
X127416402Y-87249338D01*
X127418743Y-87486709D01*
X127421541Y-87694948D01*
X127424836Y-87876470D01*
X127428667Y-88033688D01*
X127433074Y-88169015D01*
X127438098Y-88284865D01*
X127443777Y-88383651D01*
X127450152Y-88467786D01*
X127457262Y-88539684D01*
X127465147Y-88601758D01*
X127473847Y-88656421D01*
X127483402Y-88706087D01*
X127487008Y-88722976D01*
X127557009Y-88979915D01*
X127657270Y-89258030D01*
X127781563Y-89543081D01*
X127923660Y-89820824D01*
X128077333Y-90077018D01*
X128082649Y-90085122D01*
X128164304Y-90195429D01*
X128275882Y-90326896D01*
X128407933Y-90470059D01*
X128551007Y-90615453D01*
X128695653Y-90753613D01*
X128832424Y-90875072D01*
X128951867Y-90970366D01*
X128999675Y-91003647D01*
X129132264Y-91084369D01*
X129292653Y-91173374D01*
X129467527Y-91264038D01*
X129643570Y-91349737D01*
X129807466Y-91423846D01*
X129945899Y-91479742D01*
X129983131Y-91492863D01*
X130160212Y-91546099D01*
X130362572Y-91597079D01*
X130564802Y-91639463D01*
X130587083Y-91643532D01*
X130629823Y-91646508D01*
X130715464Y-91648703D01*
X130836060Y-91650051D01*
X130983666Y-91650486D01*
X131150337Y-91649943D01*
X131260857Y-91649076D01*
X131463496Y-91646586D01*
X131623908Y-91643054D01*
X131750713Y-91637854D01*
X131852532Y-91630359D01*
X131937988Y-91619943D01*
X132015701Y-91605980D01*
X132090411Y-91588808D01*
X132216112Y-91555038D01*
X132347055Y-91515710D01*
X132457812Y-91478524D01*
X132471792Y-91473350D01*
X132606689Y-91417423D01*
X132769625Y-91342055D01*
X132945597Y-91254884D01*
X133119605Y-91163547D01*
X133276645Y-91075683D01*
X133395022Y-91003320D01*
X133504286Y-90922703D01*
X133635215Y-90811497D01*
X133778260Y-90679258D01*
X133923873Y-90535541D01*
X134062503Y-90389901D01*
X134184604Y-90251893D01*
X134280625Y-90131073D01*
X134312608Y-90085122D01*
X134467389Y-89827479D01*
X134610334Y-89548765D01*
X134735302Y-89263043D01*
X134836149Y-88984375D01*
X134906734Y-88726824D01*
X134907578Y-88722976D01*
X134917446Y-88674504D01*
X134926445Y-88621892D01*
X134934615Y-88562726D01*
X134941996Y-88494592D01*
X134948627Y-88415079D01*
X134954549Y-88321771D01*
X134959800Y-88212257D01*
X134964422Y-88084122D01*
X134968453Y-87934953D01*
X134971934Y-87762337D01*
X134974904Y-87563861D01*
X134977402Y-87337111D01*
X134979470Y-87079674D01*
X134981146Y-86789136D01*
X134982471Y-86463085D01*
X134983484Y-86099106D01*
X134984224Y-85694787D01*
X134984733Y-85247714D01*
X134985049Y-84755474D01*
X134985212Y-84215653D01*
X134985241Y-84012071D01*
X134985681Y-79911376D01*
X137833329Y-79911376D01*
X137833329Y-91305347D01*
X137897137Y-91431266D01*
X137956446Y-91525445D01*
X138031223Y-91590925D01*
X138081471Y-91619927D01*
X138118750Y-91638691D01*
X138154286Y-91653295D01*
X138194778Y-91664273D01*
X138246920Y-91672160D01*
X138317408Y-91677489D01*
X138412938Y-91680795D01*
X138540207Y-91682611D01*
X138705909Y-91683473D01*
X138882973Y-91683854D01*
X139086682Y-91684108D01*
X139246271Y-91683728D01*
X139368469Y-91682192D01*
X139460008Y-91678977D01*
X139527617Y-91673563D01*
X139578027Y-91665426D01*
X139617968Y-91654044D01*
X139654171Y-91638895D01*
X139689828Y-91621250D01*
X139792131Y-91554675D01*
X139861856Y-91469923D01*
X139873317Y-91449628D01*
X139930927Y-91341795D01*
X139943639Y-88616110D01*
X139956352Y-85890426D01*
X140563682Y-87248482D01*
X140675322Y-87497661D01*
X140781902Y-87734653D01*
X140881425Y-87955083D01*
X140971897Y-88154573D01*
X141051322Y-88328744D01*
X141117705Y-88473219D01*
X141169052Y-88583621D01*
X141203366Y-88655572D01*
X141217470Y-88682934D01*
X141267138Y-88738364D01*
X141342882Y-88795871D01*
X141391127Y-88823785D01*
X141430335Y-88843116D01*
X141466955Y-88858136D01*
X141507763Y-88869387D01*
X141559536Y-88877414D01*
X141629051Y-88882762D01*
X141723083Y-88885975D01*
X141848411Y-88887596D01*
X142011809Y-88888170D01*
X142193789Y-88888241D01*
X142396572Y-88888140D01*
X142555280Y-88887474D01*
X142676690Y-88885699D01*
X142767580Y-88882270D01*
X142834725Y-88876643D01*
X142884903Y-88868275D01*
X142924890Y-88856621D01*
X142961463Y-88841137D01*
X142996452Y-88823785D01*
X143077707Y-88773025D01*
X143145258Y-88714307D01*
X143170109Y-88682934D01*
X143188800Y-88646158D01*
X143226176Y-88567304D01*
X143280242Y-88450750D01*
X143349002Y-88300873D01*
X143430463Y-88122050D01*
X143522628Y-87918660D01*
X143623503Y-87695080D01*
X143731092Y-87455687D01*
X143823897Y-87248482D01*
X144431227Y-85890426D01*
X144443940Y-88616110D01*
X144456652Y-91341795D01*
X144514262Y-91449628D01*
X144579726Y-91539970D01*
X144674174Y-91608772D01*
X144697751Y-91621250D01*
X144736646Y-91640386D01*
X144773184Y-91655252D01*
X144814136Y-91666388D01*
X144866272Y-91674331D01*
X144936363Y-91679622D01*
X145031179Y-91682800D01*
X145157491Y-91684402D01*
X145322068Y-91684969D01*
X145499095Y-91685038D01*
X145701933Y-91684932D01*
X145860691Y-91684253D01*
X145982140Y-91682462D01*
X146073052Y-91679020D01*
X146140196Y-91673388D01*
X146190345Y-91665026D01*
X146230269Y-91653394D01*
X146266740Y-91637953D01*
X146300557Y-91621190D01*
X146391243Y-91564982D01*
X146453871Y-91495223D01*
X146490402Y-91431345D01*
X146554250Y-91305347D01*
X146554250Y-88310758D01*
X153699438Y-88310758D01*
X153699504Y-88654339D01*
X153699685Y-89045413D01*
X153699695Y-89071313D01*
X153699841Y-89463311D01*
X153700053Y-89807648D01*
X153700505Y-90107510D01*
X153701373Y-90366089D01*
X153702833Y-90586571D01*
X153705058Y-90772146D01*
X153708225Y-90926002D01*
X153712508Y-91051328D01*
X153718083Y-91151313D01*
X153725125Y-91229145D01*
X153733808Y-91288014D01*
X153744309Y-91331107D01*
X153756801Y-91361613D01*
X153771460Y-91382722D01*
X153788462Y-91397621D01*
X153807981Y-91409500D01*
X153828720Y-91420728D01*
X153878025Y-91433493D01*
X153969046Y-91443620D01*
X154092716Y-91451130D01*
X154239972Y-91456046D01*
X154401746Y-91458390D01*
X154568973Y-91458184D01*
X154732589Y-91455451D01*
X154883527Y-91450213D01*
X155012722Y-91442492D01*
X155111108Y-91432311D01*
X155169619Y-91419691D01*
X155174732Y-91417418D01*
X155226766Y-91382255D01*
X155251503Y-91349411D01*
X155251753Y-91347498D01*
X155257485Y-91330910D01*
X155266763Y-91348686D01*
X155285714Y-91380821D01*
X155317472Y-91406000D01*
X155367705Y-91425029D01*
X155442081Y-91438715D01*
X155546267Y-91447864D01*
X155685931Y-91453281D01*
X155866742Y-91455773D01*
X156022762Y-91456209D01*
X156250394Y-91454977D01*
X156429113Y-91451222D01*
X156560800Y-91444860D01*
X156647336Y-91435804D01*
X156686992Y-91425834D01*
X156710845Y-91415290D01*
X156731806Y-91404659D01*
X156750062Y-91390775D01*
X156765800Y-91370474D01*
X156779205Y-91340590D01*
X156790466Y-91297959D01*
X156799768Y-91239416D01*
X156807298Y-91161795D01*
X156813243Y-91061931D01*
X156817789Y-90936660D01*
X156821122Y-90782817D01*
X156823431Y-90597237D01*
X156824900Y-90376754D01*
X156825717Y-90118203D01*
X156826069Y-89818421D01*
X156826142Y-89474241D01*
X156826122Y-89082498D01*
X156826122Y-89066219D01*
X156826141Y-88672558D01*
X156826076Y-88326583D01*
X156825739Y-88025129D01*
X156824943Y-87765031D01*
X156823503Y-87543123D01*
X156821230Y-87356241D01*
X156817940Y-87201220D01*
X156813445Y-87074894D01*
X156807558Y-86974100D01*
X156800093Y-86895671D01*
X156790864Y-86836443D01*
X156779683Y-86793251D01*
X156766365Y-86762930D01*
X156750722Y-86742314D01*
X156732567Y-86728240D01*
X156711715Y-86717541D01*
X156687979Y-86707053D01*
X156686992Y-86706605D01*
X156637655Y-86695171D01*
X156544777Y-86686505D01*
X156406478Y-86680521D01*
X156220878Y-86677133D01*
X156022762Y-86676229D01*
X155823547Y-86676802D01*
X155668776Y-86678767D01*
X155552050Y-86682493D01*
X155466972Y-86688348D01*
X155407145Y-86696703D01*
X155366172Y-86707925D01*
X155350184Y-86715020D01*
X155298151Y-86750184D01*
X155273414Y-86783028D01*
X155273164Y-86784940D01*
X155267431Y-86801528D01*
X155258154Y-86783752D01*
X155239203Y-86751618D01*
X155207445Y-86726439D01*
X155157211Y-86707409D01*
X155082836Y-86693723D01*
X154978649Y-86684575D01*
X154838985Y-86679157D01*
X154658174Y-86676665D01*
X154502154Y-86676229D01*
X154274523Y-86677462D01*
X154095803Y-86681216D01*
X153964116Y-86687578D01*
X153877580Y-86696635D01*
X153837924Y-86706605D01*
X153814088Y-86717134D01*
X153793139Y-86727739D01*
X153774893Y-86741579D01*
X153759163Y-86761816D01*
X153745766Y-86791612D01*
X153734518Y-86834128D01*
X153725232Y-86892524D01*
X153717724Y-86969963D01*
X153711810Y-87069605D01*
X153707304Y-87194611D01*
X153704022Y-87348144D01*
X153701780Y-87533364D01*
X153700391Y-87753432D01*
X153699672Y-88011510D01*
X153699438Y-88310758D01*
X146554250Y-88310758D01*
X146554250Y-81237629D01*
X150193962Y-81237629D01*
X150199711Y-81405259D01*
X150236655Y-81535683D01*
X150308394Y-81632993D01*
X150418525Y-81701283D01*
X150570645Y-81744645D01*
X150650193Y-81756687D01*
X150735425Y-81770075D01*
X150802700Y-81786012D01*
X150828171Y-81796060D01*
X150836124Y-81808078D01*
X150843050Y-81836076D01*
X150849081Y-81883742D01*
X150854347Y-81954768D01*
X150858979Y-82052843D01*
X150863108Y-82181659D01*
X150866866Y-82344904D01*
X150870382Y-82546269D01*
X150873788Y-82789444D01*
X150877215Y-83078120D01*
X150878798Y-83223799D01*
X150882207Y-83540033D01*
X150885455Y-83809375D01*
X150888947Y-84035779D01*
X150893085Y-84223199D01*
X150898272Y-84375591D01*
X150904913Y-84496909D01*
X150913411Y-84591108D01*
X150924168Y-84662143D01*
X150937589Y-84713969D01*
X150954076Y-84750541D01*
X150974034Y-84775813D01*
X150997865Y-84793740D01*
X151025973Y-84808277D01*
X151041127Y-84815223D01*
X151090622Y-84826687D01*
X151183791Y-84835368D01*
X151322488Y-84841352D01*
X151508565Y-84844723D01*
X151702899Y-84845599D01*
X151930219Y-84844356D01*
X152108602Y-84840573D01*
X152239900Y-84834164D01*
X152325966Y-84825044D01*
X152364670Y-84815223D01*
X152426770Y-84772800D01*
X152468744Y-84706872D01*
X152493389Y-84609535D01*
X152503498Y-84472889D01*
X152504118Y-84420985D01*
X152504436Y-84197250D01*
X152586750Y-84341232D01*
X152702961Y-84495849D01*
X152862373Y-84632860D01*
X153059228Y-84748389D01*
X153287766Y-84838561D01*
X153355551Y-84858439D01*
X153443962Y-84874101D01*
X153570049Y-84885398D01*
X153720810Y-84892162D01*
X153883246Y-84894225D01*
X154044353Y-84891418D01*
X154191132Y-84883573D01*
X154309005Y-84870766D01*
X154495444Y-84838115D01*
X154642884Y-84800908D01*
X154763171Y-84753875D01*
X154868152Y-84691746D01*
X154969673Y-84609248D01*
X155032960Y-84548673D01*
X155120422Y-84450228D01*
X155198107Y-84342449D01*
X155258488Y-84237732D01*
X155294042Y-84148472D01*
X155300325Y-84108261D01*
X155306130Y-84095743D01*
X155327356Y-84086486D01*
X155369968Y-84080160D01*
X155439934Y-84076439D01*
X155543222Y-84074991D01*
X155685796Y-84075490D01*
X155859933Y-84077425D01*
X156419315Y-84084727D01*
X156419315Y-84364724D01*
X156422939Y-84522688D01*
X156435477Y-84638302D01*
X156459428Y-84719661D01*
X156497294Y-84774858D01*
X156551574Y-84811989D01*
X156558444Y-84815223D01*
X156609687Y-84827018D01*
X156706091Y-84835864D01*
X156849188Y-84841835D01*
X157040515Y-84845005D01*
X157194790Y-84845599D01*
X157418956Y-84844247D01*
X157593875Y-84840142D01*
X157721081Y-84833210D01*
X157802110Y-84823380D01*
X157831137Y-84815223D01*
X157887711Y-84779018D01*
X157927453Y-84725001D01*
X157952911Y-84645075D01*
X157966634Y-84531142D01*
X157971168Y-84375105D01*
X157971187Y-84370134D01*
X157972109Y-84095549D01*
X158078819Y-84044698D01*
X158154693Y-84001970D01*
X158210118Y-83951294D01*
X158248111Y-83884405D01*
X158271687Y-83793039D01*
X158283863Y-83668931D01*
X158287656Y-83503818D01*
X158287685Y-83472463D01*
X158284592Y-83299852D01*
X158273760Y-83169616D01*
X158252173Y-83073502D01*
X158216817Y-83003254D01*
X158164678Y-82950618D01*
X158092740Y-82907339D01*
X158078819Y-82900554D01*
X157972109Y-82849703D01*
X157971187Y-82270380D01*
X157971106Y-82084466D01*
X157971834Y-81943563D01*
X157973831Y-81841832D01*
X157977554Y-81773435D01*
X157983459Y-81732532D01*
X157992004Y-81713285D01*
X158003647Y-81709856D01*
X158014760Y-81714190D01*
X158064417Y-81730210D01*
X158143518Y-81746225D01*
X158199314Y-81754285D01*
X158284216Y-81767727D01*
X158351357Y-81783969D01*
X158376085Y-81793937D01*
X158391363Y-81815962D01*
X158404598Y-81863686D01*
X158415910Y-81939885D01*
X158425420Y-82047330D01*
X158433248Y-82188794D01*
X158439515Y-82367051D01*
X158444340Y-82584874D01*
X158447845Y-82845036D01*
X158450150Y-83150310D01*
X158451375Y-83503469D01*
X158451421Y-83528636D01*
X158452392Y-83824795D01*
X158454245Y-84072944D01*
X158457055Y-84275919D01*
X158460902Y-84436555D01*
X158465863Y-84557689D01*
X158472016Y-84642155D01*
X158479438Y-84692788D01*
X158483724Y-84706469D01*
X158505519Y-84747309D01*
X158533340Y-84779312D01*
X158573192Y-84803544D01*
X158631083Y-84821073D01*
X158713016Y-84832965D01*
X158824997Y-84840287D01*
X158973033Y-84844105D01*
X159163128Y-84845487D01*
X159266963Y-84845599D01*
X159478546Y-84844983D01*
X159645292Y-84842424D01*
X159773206Y-84836855D01*
X159868293Y-84827210D01*
X159936559Y-84812422D01*
X159984009Y-84791423D01*
X160016649Y-84763147D01*
X160040485Y-84726528D01*
X160050201Y-84706469D01*
X160055823Y-84668886D01*
X160060917Y-84585016D01*
X160065484Y-84459419D01*
X160069522Y-84296657D01*
X160073033Y-84101289D01*
X160076015Y-83877877D01*
X160078470Y-83630982D01*
X160080396Y-83365163D01*
X160081795Y-83084983D01*
X160082665Y-82795001D01*
X160083008Y-82499779D01*
X160082823Y-82203877D01*
X160082109Y-81911856D01*
X160080868Y-81628277D01*
X160079099Y-81357700D01*
X160076802Y-81104687D01*
X160073977Y-80873798D01*
X160070624Y-80669593D01*
X160066743Y-80496634D01*
X160062334Y-80359481D01*
X160057397Y-80262696D01*
X160051932Y-80210838D01*
X160050201Y-80204748D01*
X160018079Y-80152035D01*
X159971919Y-80114078D01*
X159903889Y-80088678D01*
X159806160Y-80073640D01*
X159670901Y-80066768D01*
X159554261Y-80065639D01*
X159417503Y-80066333D01*
X159319074Y-80069693D01*
X159246457Y-80077665D01*
X159187135Y-80092192D01*
X159128591Y-80115221D01*
X159076272Y-80139919D01*
X158989342Y-80187552D01*
X158879095Y-80255529D01*
X158762478Y-80333133D01*
X158694891Y-80381032D01*
X158577232Y-80460908D01*
X158449309Y-80538293D01*
X158330628Y-80601753D01*
X158275371Y-80626987D01*
X158177437Y-80669144D01*
X158091608Y-80708804D01*
X158033922Y-80738499D01*
X158027473Y-80742395D01*
X157970266Y-80778703D01*
X157970266Y-80522600D01*
X157965860Y-80368079D01*
X157950874Y-80255648D01*
X157922652Y-80177170D01*
X157878542Y-80124506D01*
X157831137Y-80095994D01*
X157789422Y-80086126D01*
X157710411Y-80078316D01*
X157591327Y-80072464D01*
X157429391Y-80068467D01*
X157221826Y-80066223D01*
X157001641Y-80065619D01*
X156767013Y-80066035D01*
X156577828Y-80067769D01*
X156428678Y-80071542D01*
X156314158Y-80078080D01*
X156228863Y-80088106D01*
X156167387Y-80102345D01*
X156124325Y-80121520D01*
X156094269Y-80146355D01*
X156071816Y-80177575D01*
X156064198Y-80191178D01*
X156052360Y-80222499D01*
X156026901Y-80296091D01*
X155989830Y-80405836D01*
X155943155Y-80545617D01*
X155888882Y-80709313D01*
X155829019Y-80890807D01*
X155765575Y-81083980D01*
X155700555Y-81282713D01*
X155635969Y-81480889D01*
X155573823Y-81672389D01*
X155516126Y-81851094D01*
X155464883Y-82010886D01*
X155422105Y-82145646D01*
X155404632Y-82201354D01*
X155393029Y-82226729D01*
X155381951Y-82217672D01*
X155368881Y-82168613D01*
X155353958Y-82089207D01*
X155305726Y-81890442D01*
X155235760Y-81706496D01*
X155150255Y-81552696D01*
X155121023Y-81512854D01*
X155035928Y-81430656D01*
X154919056Y-81351065D01*
X154788705Y-81285544D01*
X154715811Y-81259015D01*
X154694849Y-81248175D01*
X154718776Y-81241287D01*
X154790248Y-81237756D01*
X154812419Y-81237374D01*
X154958809Y-81223299D01*
X155063565Y-81184618D01*
X155130394Y-81119744D01*
X155143094Y-81096059D01*
X155157054Y-81037910D01*
X155166967Y-80941583D01*
X155172911Y-80818855D01*
X155174962Y-80681499D01*
X155173196Y-80541291D01*
X155167690Y-80410007D01*
X155158521Y-80299421D01*
X155145765Y-80221308D01*
X155137238Y-80196433D01*
X155120974Y-80166927D01*
X155102413Y-80142229D01*
X155077182Y-80121910D01*
X155040903Y-80105544D01*
X154989201Y-80092703D01*
X154917700Y-80082960D01*
X154822025Y-80075887D01*
X154697801Y-80071058D01*
X154540650Y-80068043D01*
X154346199Y-80066417D01*
X154110070Y-80065751D01*
X153827889Y-80065619D01*
X153798037Y-80065619D01*
X153517536Y-80065818D01*
X153283452Y-80066509D01*
X153091353Y-80067828D01*
X152936807Y-80069916D01*
X152815381Y-80072908D01*
X152722643Y-80076944D01*
X152654162Y-80082162D01*
X152605503Y-80088700D01*
X152572236Y-80096696D01*
X152553388Y-80104410D01*
X152501354Y-80139573D01*
X152476617Y-80172417D01*
X152476367Y-80174330D01*
X152470634Y-80190918D01*
X152461357Y-80173142D01*
X152428637Y-80130134D01*
X152366586Y-80099133D01*
X152269707Y-80078894D01*
X152132504Y-80068176D01*
X151985949Y-80065619D01*
X151832361Y-80067794D01*
X151710497Y-80077258D01*
X151607520Y-80098420D01*
X151510593Y-80135688D01*
X151406879Y-80193469D01*
X151283542Y-80276173D01*
X151200801Y-80335244D01*
X151079846Y-80416035D01*
X150932139Y-80505003D01*
X150777750Y-80590485D01*
X150656620Y-80651517D01*
X150529912Y-80712498D01*
X150440335Y-80759099D01*
X150378668Y-80797846D01*
X150335686Y-80835261D01*
X150302166Y-80877870D01*
X150275273Y-80921255D01*
X150233645Y-81002969D01*
X150209286Y-81084949D01*
X150196753Y-81188375D01*
X150193962Y-81237629D01*
X146554250Y-81237629D01*
X146554250Y-79911376D01*
X146490402Y-79785378D01*
X146434193Y-79694692D01*
X146364435Y-79632064D01*
X146300557Y-79595533D01*
X146259873Y-79575593D01*
X146221720Y-79560315D01*
X146178898Y-79549085D01*
X146124205Y-79541290D01*
X146050442Y-79536317D01*
X145950406Y-79533555D01*
X145816898Y-79532390D01*
X145642716Y-79532210D01*
X145557147Y-79532279D01*
X144939735Y-79532873D01*
X144812608Y-79602199D01*
X144730863Y-79654643D01*
X144670123Y-79717227D01*
X144613583Y-79807904D01*
X144604932Y-79824077D01*
X144587510Y-79860435D01*
X144550893Y-79939518D01*
X144496731Y-80057669D01*
X144426673Y-80211232D01*
X144342372Y-80396549D01*
X144245477Y-80609963D01*
X144137638Y-80847819D01*
X144020507Y-81106458D01*
X143895733Y-81382225D01*
X143764966Y-81671462D01*
X143629858Y-81970513D01*
X143492058Y-82275721D01*
X143353217Y-82583429D01*
X143214985Y-82889980D01*
X143079013Y-83191717D01*
X142946951Y-83484985D01*
X142820450Y-83766125D01*
X142701159Y-84031481D01*
X142590730Y-84277396D01*
X142490812Y-84500214D01*
X142403056Y-84696277D01*
X142329113Y-84861930D01*
X142270633Y-84993514D01*
X142229266Y-85087373D01*
X142222628Y-85102591D01*
X142216966Y-85110180D01*
X142208644Y-85109664D01*
X142196523Y-85098628D01*
X142179463Y-85074654D01*
X142156322Y-85035326D01*
X142125960Y-84978228D01*
X142087237Y-84900942D01*
X142039012Y-84801052D01*
X141980145Y-84676142D01*
X141909496Y-84523795D01*
X141825923Y-84341594D01*
X141728287Y-84127123D01*
X141615447Y-83877966D01*
X141486262Y-83591705D01*
X141339592Y-83265925D01*
X141174297Y-82898208D01*
X141016712Y-82547335D01*
X140860558Y-82199783D01*
X140709265Y-81863496D01*
X140564244Y-81541589D01*
X140426907Y-81237177D01*
X140298667Y-80953373D01*
X140180933Y-80693293D01*
X140075120Y-80460050D01*
X139982637Y-80256759D01*
X139904897Y-80086535D01*
X139843312Y-79952492D01*
X139799292Y-79857744D01*
X139774251Y-79805406D01*
X139770801Y-79798717D01*
X139701775Y-79697563D01*
X139612315Y-79624081D01*
X139574905Y-79602264D01*
X139447844Y-79532873D01*
X138830432Y-79532279D01*
X138637335Y-79532231D01*
X138487887Y-79532915D01*
X138374889Y-79534943D01*
X138291139Y-79538927D01*
X138229437Y-79545481D01*
X138182581Y-79555217D01*
X138143372Y-79568748D01*
X138104607Y-79586686D01*
X138087022Y-79595533D01*
X137996336Y-79651741D01*
X137933708Y-79721499D01*
X137897177Y-79785378D01*
X137833329Y-79911376D01*
X134985681Y-79911376D01*
X134921834Y-79785378D01*
X134865625Y-79694692D01*
X134795867Y-79632064D01*
X134731988Y-79595533D01*
X134691092Y-79575510D01*
X134652688Y-79560182D01*
X134609530Y-79548922D01*
X134554368Y-79541103D01*
X134479956Y-79536098D01*
X134379046Y-79533280D01*
X134244389Y-79532021D01*
X134068737Y-79531695D01*
X133994090Y-79531685D01*
X133801904Y-79531830D01*
X133653322Y-79532682D01*
X133541096Y-79534868D01*
X133457979Y-79539015D01*
X133396724Y-79545750D01*
X133350085Y-79555698D01*
X133310813Y-79569486D01*
X133271661Y-79587742D01*
X133256309Y-79595473D01*
X133154007Y-79662048D01*
X133084281Y-79746800D01*
X133072820Y-79767094D01*
X133015211Y-79874928D01*
X133002371Y-84057410D01*
X132989531Y-88239893D01*
X132932399Y-88443296D01*
X132824954Y-88735436D01*
X132674262Y-89000832D01*
X132480374Y-89239408D01*
X132289922Y-89414379D01*
X132046255Y-89580944D01*
X131786162Y-89701982D01*
X131514989Y-89777520D01*
X131238082Y-89807587D01*
X130960786Y-89792209D01*
X130688446Y-89731414D01*
X130426407Y-89625230D01*
X130180015Y-89473684D01*
X130090173Y-89403011D01*
X129863826Y-89186342D01*
X129683433Y-88953539D01*
X129545205Y-88699023D01*
X129464041Y-88481254D01*
X129405266Y-88290744D01*
X129392321Y-84082836D01*
X129379375Y-79874928D01*
X129321766Y-79767094D01*
X129256301Y-79676753D01*
X129161854Y-79607950D01*
X129138277Y-79595473D01*
X129097409Y-79575468D01*
X129059013Y-79560154D01*
X129015840Y-79548905D01*
X128960643Y-79541094D01*
X128886176Y-79536093D01*
X128785191Y-79533278D01*
X128650441Y-79532020D01*
X128474678Y-79531695D01*
X128400496Y-79531685D01*
X128208317Y-79531829D01*
X128059740Y-79532680D01*
X127947518Y-79534865D01*
X127864404Y-79539010D01*
X127803149Y-79545744D01*
X127756505Y-79555693D01*
X127717225Y-79569485D01*
X127678061Y-79587746D01*
X127662598Y-79595533D01*
X127571912Y-79651741D01*
X127509284Y-79721499D01*
X127472752Y-79785378D01*
X127408905Y-79911376D01*
X126013404Y-79911376D01*
X126000031Y-79849866D01*
X125972084Y-79785378D01*
X125915875Y-79694692D01*
X125846117Y-79632064D01*
X125782238Y-79595533D01*
X125656241Y-79531685D01*
X124866362Y-79531685D01*
X124645192Y-79531766D01*
X124468787Y-79532282D01*
X124331065Y-79533645D01*
X124225939Y-79536264D01*
X124147326Y-79540550D01*
X124089140Y-79546913D01*
X124045297Y-79555764D01*
X124009713Y-79567512D01*
X123976303Y-79582569D01*
X123955209Y-79593139D01*
X123933945Y-79604701D01*
X123912465Y-79619074D01*
X123888944Y-79638879D01*
X123861559Y-79666735D01*
X123828484Y-79705260D01*
X123787896Y-79757074D01*
X123737969Y-79824796D01*
X123676881Y-79911045D01*
X123602805Y-80018441D01*
X123513919Y-80149602D01*
X123408397Y-80307148D01*
X123284415Y-80493698D01*
X123140150Y-80711872D01*
X122973776Y-80964287D01*
X122783469Y-81253564D01*
X122567405Y-81582322D01*
X122529584Y-81639886D01*
X122341272Y-81926400D01*
X122160965Y-82200523D01*
X121990609Y-82459307D01*
X121832149Y-82699810D01*
X121687530Y-82919087D01*
X121558696Y-83114191D01*
X121447593Y-83282179D01*
X121356165Y-83420107D01*
X121286357Y-83525028D01*
X121240114Y-83593998D01*
X121219381Y-83624072D01*
X121218427Y-83625178D01*
X121203801Y-83604412D01*
X121163222Y-83544076D01*
X121098635Y-83447116D01*
X121011985Y-83316478D01*
X120905216Y-83155105D01*
X120780275Y-82965945D01*
X120639105Y-82751942D01*
X120483653Y-82516041D01*
X120315862Y-82261188D01*
X120137679Y-81990327D01*
X119951048Y-81706405D01*
X119907687Y-81640409D01*
X119687333Y-81305068D01*
X119493035Y-81009631D01*
X119322966Y-80751479D01*
X119175300Y-80527991D01*
X119048212Y-80336547D01*
X118939875Y-80174525D01*
X118848463Y-80039305D01*
X118772151Y-79928267D01*
X118709111Y-79838790D01*
X118657519Y-79768253D01*
X118615547Y-79714037D01*
X118581370Y-79673520D01*
X118553162Y-79644082D01*
X118529096Y-79623102D01*
X118507347Y-79607960D01*
X118486088Y-79596036D01*
X118481450Y-79593662D01*
X118446254Y-79576324D01*
X118412645Y-79562564D01*
X118374534Y-79551969D01*
X118325833Y-79544126D01*
X118260454Y-79538621D01*
X118172308Y-79535040D01*
X118055306Y-79532969D01*
X117903361Y-79531995D01*
X117710383Y-79531704D01*
X117569265Y-79531685D01*
X116779386Y-79531685D01*
X116653389Y-79595533D01*
X116562703Y-79651741D01*
X116500074Y-79721499D01*
X116463543Y-79785378D01*
X116411787Y-79935923D01*
X116398369Y-80096814D01*
X116423583Y-80251236D01*
X116453987Y-80327242D01*
X116474700Y-80361806D01*
X116521664Y-80436095D01*
X116593109Y-80547400D01*
X116687267Y-80693013D01*
X116802369Y-80870223D01*
X116936647Y-81076321D01*
X117088330Y-81308599D01*
X117255651Y-81564346D01*
X117436841Y-81840854D01*
X117630130Y-82135413D01*
X117833750Y-82445314D01*
X118045931Y-82767848D01*
X118220867Y-83033475D01*
X118437488Y-83362320D01*
X118646286Y-83679449D01*
X118845560Y-83982267D01*
X119033606Y-84268179D01*
X119208721Y-84534592D01*
X119369203Y-84778910D01*
X119513348Y-84998540D01*
X119639454Y-85190886D01*
X119745818Y-85353356D01*
X119830737Y-85483353D01*
X119892509Y-85578284D01*
X119929429Y-85635555D01*
X119939998Y-85652678D01*
X119926894Y-85675902D01*
X119887039Y-85738653D01*
X119822167Y-85838330D01*
X119734008Y-85972335D01*
X119624297Y-86138068D01*
X119494765Y-86332931D01*
X119347145Y-86554323D01*
X119183169Y-86799647D01*
X119004570Y-87066302D01*
X118813080Y-87351690D01*
X118610432Y-87653211D01*
X118398358Y-87968266D01*
X118239145Y-88204480D01*
X118019668Y-88530196D01*
X117807297Y-88845885D01*
X117603867Y-89148796D01*
X117411209Y-89436177D01*
X117231156Y-89705279D01*
X117065541Y-89953349D01*
X116916197Y-90177636D01*
X116784956Y-90375390D01*
X116673651Y-90543859D01*
X116584116Y-90680292D01*
X116518182Y-90781939D01*
X116477682Y-90846047D01*
X116465722Y-90866564D01*
X116411337Y-91019559D01*
X116396848Y-91175697D01*
X111490564Y-91175697D01*
X111555742Y-91170416D01*
X111622795Y-91147554D01*
X111693798Y-91101163D01*
X111781103Y-91024461D01*
X111812960Y-90993906D01*
X111942641Y-90867959D01*
X111976199Y-90948975D01*
X112022304Y-91019531D01*
X112086789Y-91076957D01*
X112088060Y-91077740D01*
X112108455Y-91088723D01*
X112133449Y-91097885D01*
X112167537Y-91105391D01*
X112215213Y-91111405D01*
X112280970Y-91116093D01*
X112369303Y-91119618D01*
X112484705Y-91122146D01*
X112631670Y-91123840D01*
X112814693Y-91124866D01*
X113038268Y-91125388D01*
X113306888Y-91125571D01*
X113394401Y-91125584D01*
X113689013Y-91125551D01*
X113937055Y-91125098D01*
X114142812Y-91123766D01*
X114310566Y-91121096D01*
X114444600Y-91116629D01*
X114549195Y-91109908D01*
X114628634Y-91100472D01*
X114687201Y-91087865D01*
X114729177Y-91071626D01*
X114758845Y-91051298D01*
X114780488Y-91026421D01*
X114798388Y-90996538D01*
X114810176Y-90973958D01*
X114824532Y-90935418D01*
X114835036Y-90878646D01*
X114842185Y-90796491D01*
X114846477Y-90681802D01*
X114848411Y-90527428D01*
X114848649Y-90421386D01*
X114848080Y-90249931D01*
X114846009Y-90121456D01*
X114841777Y-90028097D01*
X114834724Y-89961992D01*
X114824188Y-89915275D01*
X114809511Y-89880085D01*
X114802117Y-89867120D01*
X114772728Y-89812789D01*
X114771098Y-89773721D01*
X114797220Y-89722581D01*
X114802078Y-89714568D01*
X114818640Y-89681810D01*
X114830793Y-89640721D01*
X114839196Y-89583439D01*
X114844510Y-89502101D01*
X114847395Y-89388844D01*
X114848511Y-89235807D01*
X114848611Y-89160302D01*
X114848098Y-88957214D01*
X114843135Y-88799294D01*
X114828778Y-88680863D01*
X114800082Y-88596239D01*
X114752100Y-88539743D01*
X114679889Y-88505695D01*
X114578503Y-88488414D01*
X114442997Y-88482220D01*
X114268427Y-88481434D01*
X113872258Y-88481434D01*
X113963401Y-88386089D01*
X114042630Y-88295050D01*
X114088367Y-88217233D01*
X114108430Y-88136207D01*
X114111407Y-88075037D01*
X114090789Y-87945130D01*
X114032738Y-87842619D01*
X113942959Y-87773718D01*
X113827157Y-87744640D01*
X113807565Y-87744097D01*
X113730026Y-87744097D01*
X113730026Y-85734226D01*
X113730056Y-85357023D01*
X113729995Y-85027351D01*
X113729613Y-84741888D01*
X113728680Y-84497314D01*
X113726968Y-84290309D01*
X113724247Y-84117552D01*
X113720288Y-83975722D01*
X113714862Y-83861499D01*
X113707739Y-83771562D01*
X113698691Y-83702591D01*
X113687487Y-83651265D01*
X113673899Y-83614264D01*
X113657698Y-83588268D01*
X113638654Y-83569954D01*
X113616538Y-83556004D01*
X113591121Y-83543096D01*
X113578305Y-83536620D01*
X113556101Y-83528101D01*
X113522437Y-83520904D01*
X113473284Y-83514922D01*
X113404612Y-83510048D01*
X113312391Y-83506178D01*
X113192590Y-83503203D01*
X113041181Y-83501019D01*
X112854133Y-83499518D01*
X112627415Y-83498595D01*
X112356998Y-83498144D01*
X112115002Y-83498051D01*
X110726283Y-83498051D01*
X110741023Y-81470373D01*
X110744551Y-81006841D01*
X110748102Y-80591182D01*
X110751777Y-80220419D01*
X110755679Y-79891577D01*
X110759911Y-79601676D01*
X110764573Y-79347741D01*
X110769770Y-79126794D01*
X110775603Y-78935858D01*
X110782175Y-78771957D01*
X110789587Y-78632112D01*
X110797942Y-78513347D01*
X110807343Y-78412684D01*
X110817892Y-78327148D01*
X110829691Y-78253760D01*
X110842842Y-78189543D01*
X110855527Y-78138579D01*
X110886279Y-78066690D01*
X110940145Y-77978277D01*
X111007726Y-77885292D01*
X111079623Y-77799687D01*
X111146434Y-77733414D01*
X111198760Y-77698424D01*
X111202715Y-77697139D01*
X111291334Y-77679317D01*
X111427397Y-77662373D01*
X111611497Y-77646265D01*
X111844226Y-77630954D01*
X112126178Y-77616399D01*
X112457946Y-77602560D01*
X112735015Y-77592785D01*
X112799819Y-77590989D01*
X112883768Y-77589263D01*
X112987669Y-77587605D01*
X113112327Y-77586016D01*
X113258549Y-77584495D01*
X113427141Y-77583040D01*
X113618909Y-77581651D01*
X113834659Y-77580327D01*
X114075197Y-77579068D01*
X114341328Y-77577872D01*
X114633860Y-77576738D01*
X114953598Y-77575667D01*
X115301348Y-77574657D01*
X115677916Y-77573708D01*
X116084108Y-77572818D01*
X116520731Y-77571988D01*
X116988590Y-77571215D01*
X117488491Y-77570500D01*
X118021241Y-77569841D01*
X118587645Y-77569238D01*
X119188510Y-77568690D01*
X119824641Y-77568197D01*
X120496845Y-77567757D01*
X121205928Y-77567370D01*
X121952695Y-77567035D01*
X122737953Y-77566750D01*
X123562508Y-77566517D01*
X124427166Y-77566333D01*
X125332733Y-77566198D01*
X126280014Y-77566110D01*
X127269817Y-77566071D01*
X128302947Y-77566077D01*
G36*
X164453749Y-93096149D02*
G01*
X164441037Y-93108862D01*
X164428324Y-93096149D01*
X164441037Y-93083436D01*
X164453749Y-93096149D01*
G37*
X164453749Y-93096149D02*
X164441037Y-93108862D01*
X164428324Y-93096149D01*
X164441037Y-93083436D01*
X164453749Y-93096149D01*
G36*
X114588749Y-90432836D02*
G01*
X114581777Y-90858712D01*
X113410340Y-90865319D01*
X113171009Y-90866305D01*
X112947378Y-90866523D01*
X112744561Y-90866019D01*
X112567672Y-90864839D01*
X112421823Y-90863028D01*
X112312128Y-90860632D01*
X112243700Y-90857697D01*
X112221701Y-90854725D01*
X112215924Y-90824711D01*
X112210974Y-90752742D01*
X112207203Y-90647711D01*
X112204965Y-90518511D01*
X112204500Y-90422242D01*
X112204500Y-90006960D01*
X114595720Y-90006960D01*
X114588749Y-90432836D01*
G37*
X114588749Y-90432836D02*
X114581777Y-90858712D01*
X113410340Y-90865319D01*
X113171009Y-90866305D01*
X112947378Y-90866523D01*
X112744561Y-90866019D01*
X112567672Y-90864839D01*
X112421823Y-90863028D01*
X112312128Y-90860632D01*
X112243700Y-90857697D01*
X112221701Y-90854725D01*
X112215924Y-90824711D01*
X112210974Y-90752742D01*
X112207203Y-90647711D01*
X112204965Y-90518511D01*
X112204500Y-90422242D01*
X112204500Y-90006960D01*
X114595720Y-90006960D01*
X114588749Y-90432836D01*
G36*
X113068965Y-87744097D02*
G01*
X112991426Y-87744097D01*
X112872156Y-87766554D01*
X112778038Y-87829782D01*
X112714779Y-87927568D01*
X112688082Y-88053697D01*
X112687583Y-88075037D01*
X112695311Y-88166748D01*
X112723706Y-88244728D01*
X112780586Y-88325408D01*
X112835589Y-88386089D01*
X112926732Y-88481434D01*
X112538928Y-88481434D01*
X112363623Y-88483206D01*
X112231716Y-88489743D01*
X112135836Y-88502883D01*
X112068616Y-88524463D01*
X112022685Y-88556318D01*
X111990675Y-88600284D01*
X111980621Y-88620564D01*
X111967560Y-88678448D01*
X111958140Y-88786374D01*
X111952402Y-88943658D01*
X111950382Y-89149619D01*
X111950380Y-89162761D01*
X111950970Y-89333792D01*
X111953075Y-89461868D01*
X111957360Y-89554877D01*
X111964489Y-89620708D01*
X111975129Y-89667249D01*
X111989944Y-89702389D01*
X111996912Y-89714568D01*
X112026274Y-89768899D01*
X112027884Y-89807966D01*
X112001735Y-89859106D01*
X111996874Y-89867120D01*
X111964444Y-89938235D01*
X111950358Y-90004468D01*
X111950341Y-90006091D01*
X111947534Y-90035461D01*
X111934246Y-90041347D01*
X111902994Y-90019994D01*
X111846296Y-89967649D01*
X111816762Y-89939085D01*
X111722368Y-89851646D01*
X111648222Y-89796156D01*
X111581622Y-89765833D01*
X111509863Y-89753897D01*
X111467572Y-89752706D01*
X111337665Y-89773324D01*
X111235154Y-89831375D01*
X111166253Y-89921154D01*
X111137175Y-90036956D01*
X111136632Y-90056548D01*
X111136632Y-90134087D01*
X110729826Y-90134087D01*
X110729910Y-87547050D01*
X110730087Y-87178869D01*
X110730579Y-86818347D01*
X110731363Y-86469589D01*
X110732416Y-86136704D01*
X110733714Y-85823797D01*
X110735236Y-85534977D01*
X110736957Y-85274350D01*
X110738856Y-85046023D01*
X110740908Y-84854103D01*
X110743092Y-84702697D01*
X110745384Y-84595912D01*
X110746604Y-84559563D01*
X110763212Y-84159112D01*
X113068965Y-84159112D01*
X113068965Y-87744097D01*
G37*
X113068965Y-87744097D02*
X112991426Y-87744097D01*
X112872156Y-87766554D01*
X112778038Y-87829782D01*
X112714779Y-87927568D01*
X112688082Y-88053697D01*
X112687583Y-88075037D01*
X112695311Y-88166748D01*
X112723706Y-88244728D01*
X112780586Y-88325408D01*
X112835589Y-88386089D01*
X112926732Y-88481434D01*
X112538928Y-88481434D01*
X112363623Y-88483206D01*
X112231716Y-88489743D01*
X112135836Y-88502883D01*
X112068616Y-88524463D01*
X112022685Y-88556318D01*
X111990675Y-88600284D01*
X111980621Y-88620564D01*
X111967560Y-88678448D01*
X111958140Y-88786374D01*
X111952402Y-88943658D01*
X111950382Y-89149619D01*
X111950380Y-89162761D01*
X111950970Y-89333792D01*
X111953075Y-89461868D01*
X111957360Y-89554877D01*
X111964489Y-89620708D01*
X111975129Y-89667249D01*
X111989944Y-89702389D01*
X111996912Y-89714568D01*
X112026274Y-89768899D01*
X112027884Y-89807966D01*
X112001735Y-89859106D01*
X111996874Y-89867120D01*
X111964444Y-89938235D01*
X111950358Y-90004468D01*
X111950341Y-90006091D01*
X111947534Y-90035461D01*
X111934246Y-90041347D01*
X111902994Y-90019994D01*
X111846296Y-89967649D01*
X111816762Y-89939085D01*
X111722368Y-89851646D01*
X111648222Y-89796156D01*
X111581622Y-89765833D01*
X111509863Y-89753897D01*
X111467572Y-89752706D01*
X111337665Y-89773324D01*
X111235154Y-89831375D01*
X111166253Y-89921154D01*
X111137175Y-90036956D01*
X111136632Y-90056548D01*
X111136632Y-90134087D01*
X110729826Y-90134087D01*
X110729910Y-87547050D01*
X110730087Y-87178869D01*
X110730579Y-86818347D01*
X110731363Y-86469589D01*
X110732416Y-86136704D01*
X110733714Y-85823797D01*
X110735236Y-85534977D01*
X110736957Y-85274350D01*
X110738856Y-85046023D01*
X110740908Y-84854103D01*
X110743092Y-84702697D01*
X110745384Y-84595912D01*
X110746604Y-84559563D01*
X110763212Y-84159112D01*
X113068965Y-84159112D01*
X113068965Y-87744097D01*
G36*
X114588749Y-89161565D02*
G01*
X114581777Y-89587440D01*
X113410340Y-89594048D01*
X113171009Y-89595033D01*
X112947378Y-89595252D01*
X112744561Y-89594748D01*
X112567672Y-89593568D01*
X112421823Y-89591757D01*
X112312128Y-89589361D01*
X112243700Y-89586425D01*
X112221701Y-89583454D01*
X112215924Y-89553440D01*
X112210974Y-89481470D01*
X112207203Y-89376439D01*
X112204965Y-89247240D01*
X112204500Y-89150971D01*
X112204500Y-88735689D01*
X114595720Y-88735689D01*
X114588749Y-89161565D01*
G37*
X114588749Y-89161565D02*
X114581777Y-89587440D01*
X113410340Y-89594048D01*
X113171009Y-89595033D01*
X112947378Y-89595252D01*
X112744561Y-89594748D01*
X112567672Y-89593568D01*
X112421823Y-89591757D01*
X112312128Y-89589361D01*
X112243700Y-89586425D01*
X112221701Y-89583454D01*
X112215924Y-89553440D01*
X112210974Y-89481470D01*
X112207203Y-89376439D01*
X112204965Y-89247240D01*
X112204500Y-89150971D01*
X112204500Y-88735689D01*
X114595720Y-88735689D01*
X114588749Y-89161565D01*
G36*
X164479175Y-77891745D02*
G01*
X164466462Y-77904457D01*
X164453749Y-77891745D01*
X164466462Y-77879032D01*
X164479175Y-77891745D01*
G37*
X164479175Y-77891745D02*
X164466462Y-77904457D01*
X164453749Y-77891745D01*
X164466462Y-77879032D01*
X164479175Y-77891745D01*
G36*
X164398970Y-77787615D02*
G01*
X164426051Y-77811250D01*
X164428324Y-77816969D01*
X164416258Y-77827419D01*
X164391136Y-77804003D01*
X164387758Y-77798827D01*
X164384761Y-77781429D01*
X164398970Y-77787615D01*
G37*
X164398970Y-77787615D02*
X164426051Y-77811250D01*
X164428324Y-77816969D01*
X164416258Y-77827419D01*
X164391136Y-77804003D01*
X164387758Y-77798827D01*
X164384761Y-77781429D01*
X164398970Y-77787615D01*
G36*
X110823548Y-77688988D02*
G01*
X110809345Y-77707410D01*
X110772234Y-77746939D01*
X110755668Y-77746767D01*
X110755251Y-77742305D01*
X110772626Y-77721082D01*
X110799745Y-77697811D01*
X110829862Y-77675822D01*
X110823548Y-77688988D01*
G37*
X110823548Y-77688988D02*
X110809345Y-77707410D01*
X110772234Y-77746939D01*
X110755668Y-77746767D01*
X110755251Y-77742305D01*
X110772626Y-77721082D01*
X110799745Y-77697811D01*
X110829862Y-77675822D01*
X110823548Y-77688988D01*
G36*
X164256702Y-77623409D02*
G01*
X164318816Y-77682017D01*
X164347670Y-77714046D01*
X164348707Y-77725900D01*
X164344323Y-77726479D01*
X164324297Y-77709466D01*
X164281490Y-77665930D01*
X164248977Y-77631134D01*
X164161357Y-77535790D01*
X164256702Y-77623409D01*
G37*
X164256702Y-77623409D02*
X164318816Y-77682017D01*
X164347670Y-77714046D01*
X164348707Y-77725900D01*
X164344323Y-77726479D01*
X164324297Y-77709466D01*
X164281490Y-77665930D01*
X164248977Y-77631134D01*
X164161357Y-77535790D01*
X164256702Y-77623409D01*
G36*
X110907803Y-77586640D02*
G01*
X110895091Y-77599352D01*
X110882378Y-77586640D01*
X110895091Y-77573927D01*
X110907803Y-77586640D01*
G37*
X110907803Y-77586640D02*
X110895091Y-77599352D01*
X110882378Y-77586640D01*
X110895091Y-77573927D01*
X110907803Y-77586640D01*
G36*
X125029740Y-79785068D02*
G01*
X125200125Y-79788400D01*
X125354907Y-79793513D01*
X125485833Y-79800368D01*
X125584652Y-79808927D01*
X125643111Y-79819151D01*
X125650863Y-79822170D01*
X125727867Y-79889396D01*
X125772311Y-79990398D01*
X125781677Y-80075648D01*
X125782050Y-80089207D01*
X125782254Y-80101637D01*
X125780919Y-80115085D01*
X125776674Y-80131701D01*
X125768150Y-80153634D01*
X125753975Y-80183033D01*
X125732780Y-80222046D01*
X125703193Y-80272823D01*
X125663845Y-80337513D01*
X125613364Y-80418264D01*
X125550381Y-80517226D01*
X125473525Y-80636547D01*
X125381426Y-80778376D01*
X125272713Y-80944863D01*
X125146015Y-81138156D01*
X124999963Y-81360404D01*
X124833185Y-81613756D01*
X124644312Y-81900361D01*
X124431973Y-82222368D01*
X124194798Y-82581925D01*
X123931415Y-82981183D01*
X123850647Y-83103623D01*
X123637225Y-83427265D01*
X123431592Y-83739286D01*
X123235487Y-84037039D01*
X123050649Y-84317877D01*
X122878815Y-84579151D01*
X122721724Y-84818214D01*
X122581115Y-85032419D01*
X122458724Y-85219119D01*
X122356291Y-85375665D01*
X122275554Y-85499411D01*
X122218251Y-85587709D01*
X122186120Y-85637910D01*
X122179571Y-85648819D01*
X122192137Y-85673105D01*
X122231500Y-85736893D01*
X122295939Y-85837587D01*
X122383731Y-85972588D01*
X122493153Y-86139300D01*
X122622484Y-86335125D01*
X122770001Y-86557466D01*
X122933981Y-86803725D01*
X123112701Y-87071306D01*
X123304440Y-87357611D01*
X123507475Y-87660043D01*
X123720083Y-87976005D01*
X123891225Y-88229834D01*
X124112002Y-88557111D01*
X124325940Y-88874471D01*
X124531191Y-89179164D01*
X124725910Y-89468438D01*
X124908248Y-89739543D01*
X125076360Y-89989727D01*
X125228399Y-90216241D01*
X125362517Y-90416334D01*
X125476870Y-90587253D01*
X125569609Y-90726250D01*
X125638888Y-90830572D01*
X125682860Y-90897470D01*
X125697730Y-90920780D01*
X125761333Y-91052974D01*
X125780399Y-91170428D01*
X125756037Y-91280812D01*
X125751302Y-91291654D01*
X125731213Y-91330215D01*
X125706198Y-91360926D01*
X125670655Y-91384676D01*
X125618983Y-91402351D01*
X125545582Y-91414840D01*
X125444848Y-91423030D01*
X125311183Y-91427808D01*
X125138983Y-91430064D01*
X124922649Y-91430683D01*
X124873981Y-91430689D01*
X124663513Y-91430405D01*
X124497721Y-91429372D01*
X124370429Y-91427221D01*
X124275465Y-91423581D01*
X124206654Y-91418084D01*
X124157821Y-91410361D01*
X124122794Y-91400042D01*
X124095397Y-91386759D01*
X124090499Y-91383842D01*
X124065625Y-91358832D01*
X124020259Y-91301238D01*
X123953696Y-91210020D01*
X123865230Y-91084138D01*
X123754156Y-90922551D01*
X123619768Y-90724221D01*
X123461362Y-90488107D01*
X123278233Y-90213169D01*
X123069674Y-89898368D01*
X122834981Y-89542664D01*
X122617097Y-89211457D01*
X121220358Y-87085825D01*
X120988626Y-87434030D01*
X120938310Y-87509921D01*
X120862713Y-87624346D01*
X120764453Y-87773325D01*
X120646149Y-87952878D01*
X120510419Y-88159028D01*
X120359883Y-88387793D01*
X120197160Y-88635196D01*
X120024868Y-88897256D01*
X119845627Y-89169995D01*
X119662056Y-89449432D01*
X119589875Y-89559338D01*
X119355439Y-89915677D01*
X119147530Y-90230288D01*
X118965353Y-90504332D01*
X118808117Y-90738972D01*
X118675029Y-90935370D01*
X118565297Y-91094686D01*
X118478128Y-91218084D01*
X118412730Y-91306724D01*
X118368311Y-91361769D01*
X118345660Y-91383518D01*
X118319125Y-91397447D01*
X118286487Y-91408328D01*
X118241589Y-91416523D01*
X118178274Y-91422394D01*
X118090384Y-91426300D01*
X117971763Y-91428602D01*
X117816253Y-91429663D01*
X117617697Y-91429843D01*
X117556552Y-91429788D01*
X117330915Y-91428928D01*
X117151311Y-91426773D01*
X117012932Y-91423108D01*
X116910972Y-91417719D01*
X116840623Y-91410391D01*
X116797080Y-91400909D01*
X116783875Y-91395302D01*
X116707073Y-91325839D01*
X116664154Y-91228694D01*
X116657835Y-91116366D01*
X116690832Y-91001352D01*
X116696010Y-90990933D01*
X116715329Y-90959899D01*
X116761351Y-90889368D01*
X116832309Y-90781977D01*
X116926436Y-90640363D01*
X117041967Y-90467163D01*
X117177135Y-90265015D01*
X117330173Y-90036556D01*
X117499315Y-89784423D01*
X117682794Y-89511253D01*
X117878844Y-89219684D01*
X118085699Y-88912353D01*
X118301592Y-88591897D01*
X118502643Y-88293732D01*
X118724189Y-87964932D01*
X118937519Y-87647591D01*
X119140931Y-87344276D01*
X119332726Y-87057555D01*
X119511202Y-86789995D01*
X119674658Y-86544163D01*
X119821393Y-86322628D01*
X119949707Y-86127956D01*
X120057899Y-85962716D01*
X120144267Y-85829475D01*
X120207111Y-85730800D01*
X120244731Y-85669259D01*
X120255581Y-85647581D01*
X120240303Y-85622733D01*
X120198805Y-85558188D01*
X120132881Y-85456682D01*
X120044328Y-85320955D01*
X119934943Y-85153745D01*
X119806521Y-84957790D01*
X119660858Y-84735828D01*
X119499751Y-84490598D01*
X119324996Y-84224839D01*
X119138388Y-83941287D01*
X118941725Y-83642681D01*
X118736802Y-83331761D01*
X118685926Y-83254603D01*
X118407485Y-82832375D01*
X118155677Y-82450523D01*
X117929168Y-82106955D01*
X117726619Y-81799580D01*
X117546693Y-81526309D01*
X117388054Y-81285049D01*
X117249365Y-81073710D01*
X117129289Y-80890200D01*
X117026489Y-80732429D01*
X116939628Y-80598306D01*
X116867369Y-80485739D01*
X116808375Y-80392638D01*
X116761309Y-80316912D01*
X116724835Y-80256469D01*
X116697615Y-80209220D01*
X116678312Y-80173071D01*
X116665590Y-80145934D01*
X116658112Y-80125716D01*
X116654541Y-80110327D01*
X116653539Y-80097676D01*
X116653770Y-80085671D01*
X116653950Y-80076511D01*
X116673165Y-79956615D01*
X116727982Y-79864912D01*
X116784764Y-79822170D01*
X116832351Y-79810893D01*
X116922268Y-79801561D01*
X117046303Y-79794183D01*
X117196244Y-79788764D01*
X117363882Y-79785312D01*
X117541005Y-79783833D01*
X117719402Y-79784335D01*
X117890863Y-79786824D01*
X118047175Y-79791307D01*
X118180129Y-79797791D01*
X118281512Y-79806283D01*
X118343115Y-79816790D01*
X118353611Y-79820862D01*
X118376308Y-79846801D01*
X118425048Y-79912834D01*
X118498132Y-80016441D01*
X118593857Y-80155102D01*
X118710525Y-80326297D01*
X118846433Y-80527503D01*
X118999882Y-80756202D01*
X119169170Y-81009873D01*
X119352598Y-81285995D01*
X119548463Y-81582047D01*
X119755066Y-81895510D01*
X119816105Y-81988335D01*
X121218877Y-84122687D01*
X122624368Y-81983242D01*
X122886476Y-81584845D01*
X123121632Y-81228656D01*
X123330271Y-80914034D01*
X123512825Y-80640341D01*
X123669729Y-80406937D01*
X123801414Y-80213181D01*
X123908316Y-80058434D01*
X123990867Y-79942056D01*
X124049500Y-79863408D01*
X124084649Y-79821850D01*
X124093351Y-79814868D01*
X124141893Y-79804648D01*
X124232598Y-79796480D01*
X124357214Y-79790326D01*
X124507489Y-79786147D01*
X124675169Y-79783903D01*
X124852004Y-79783556D01*
X125029740Y-79785068D01*
G37*
X125029740Y-79785068D02*
X125200125Y-79788400D01*
X125354907Y-79793513D01*
X125485833Y-79800368D01*
X125584652Y-79808927D01*
X125643111Y-79819151D01*
X125650863Y-79822170D01*
X125727867Y-79889396D01*
X125772311Y-79990398D01*
X125781677Y-80075648D01*
X125782050Y-80089207D01*
X125782254Y-80101637D01*
X125780919Y-80115085D01*
X125776674Y-80131701D01*
X125768150Y-80153634D01*
X125753975Y-80183033D01*
X125732780Y-80222046D01*
X125703193Y-80272823D01*
X125663845Y-80337513D01*
X125613364Y-80418264D01*
X125550381Y-80517226D01*
X125473525Y-80636547D01*
X125381426Y-80778376D01*
X125272713Y-80944863D01*
X125146015Y-81138156D01*
X124999963Y-81360404D01*
X124833185Y-81613756D01*
X124644312Y-81900361D01*
X124431973Y-82222368D01*
X124194798Y-82581925D01*
X123931415Y-82981183D01*
X123850647Y-83103623D01*
X123637225Y-83427265D01*
X123431592Y-83739286D01*
X123235487Y-84037039D01*
X123050649Y-84317877D01*
X122878815Y-84579151D01*
X122721724Y-84818214D01*
X122581115Y-85032419D01*
X122458724Y-85219119D01*
X122356291Y-85375665D01*
X122275554Y-85499411D01*
X122218251Y-85587709D01*
X122186120Y-85637910D01*
X122179571Y-85648819D01*
X122192137Y-85673105D01*
X122231500Y-85736893D01*
X122295939Y-85837587D01*
X122383731Y-85972588D01*
X122493153Y-86139300D01*
X122622484Y-86335125D01*
X122770001Y-86557466D01*
X122933981Y-86803725D01*
X123112701Y-87071306D01*
X123304440Y-87357611D01*
X123507475Y-87660043D01*
X123720083Y-87976005D01*
X123891225Y-88229834D01*
X124112002Y-88557111D01*
X124325940Y-88874471D01*
X124531191Y-89179164D01*
X124725910Y-89468438D01*
X124908248Y-89739543D01*
X125076360Y-89989727D01*
X125228399Y-90216241D01*
X125362517Y-90416334D01*
X125476870Y-90587253D01*
X125569609Y-90726250D01*
X125638888Y-90830572D01*
X125682860Y-90897470D01*
X125697730Y-90920780D01*
X125761333Y-91052974D01*
X125780399Y-91170428D01*
X125756037Y-91280812D01*
X125751302Y-91291654D01*
X125731213Y-91330215D01*
X125706198Y-91360926D01*
X125670655Y-91384676D01*
X125618983Y-91402351D01*
X125545582Y-91414840D01*
X125444848Y-91423030D01*
X125311183Y-91427808D01*
X125138983Y-91430064D01*
X124922649Y-91430683D01*
X124873981Y-91430689D01*
X124663513Y-91430405D01*
X124497721Y-91429372D01*
X124370429Y-91427221D01*
X124275465Y-91423581D01*
X124206654Y-91418084D01*
X124157821Y-91410361D01*
X124122794Y-91400042D01*
X124095397Y-91386759D01*
X124090499Y-91383842D01*
X124065625Y-91358832D01*
X124020259Y-91301238D01*
X123953696Y-91210020D01*
X123865230Y-91084138D01*
X123754156Y-90922551D01*
X123619768Y-90724221D01*
X123461362Y-90488107D01*
X123278233Y-90213169D01*
X123069674Y-89898368D01*
X122834981Y-89542664D01*
X122617097Y-89211457D01*
X121220358Y-87085825D01*
X120988626Y-87434030D01*
X120938310Y-87509921D01*
X120862713Y-87624346D01*
X120764453Y-87773325D01*
X120646149Y-87952878D01*
X120510419Y-88159028D01*
X120359883Y-88387793D01*
X120197160Y-88635196D01*
X120024868Y-88897256D01*
X119845627Y-89169995D01*
X119662056Y-89449432D01*
X119589875Y-89559338D01*
X119355439Y-89915677D01*
X119147530Y-90230288D01*
X118965353Y-90504332D01*
X118808117Y-90738972D01*
X118675029Y-90935370D01*
X118565297Y-91094686D01*
X118478128Y-91218084D01*
X118412730Y-91306724D01*
X118368311Y-91361769D01*
X118345660Y-91383518D01*
X118319125Y-91397447D01*
X118286487Y-91408328D01*
X118241589Y-91416523D01*
X118178274Y-91422394D01*
X118090384Y-91426300D01*
X117971763Y-91428602D01*
X117816253Y-91429663D01*
X117617697Y-91429843D01*
X117556552Y-91429788D01*
X117330915Y-91428928D01*
X117151311Y-91426773D01*
X117012932Y-91423108D01*
X116910972Y-91417719D01*
X116840623Y-91410391D01*
X116797080Y-91400909D01*
X116783875Y-91395302D01*
X116707073Y-91325839D01*
X116664154Y-91228694D01*
X116657835Y-91116366D01*
X116690832Y-91001352D01*
X116696010Y-90990933D01*
X116715329Y-90959899D01*
X116761351Y-90889368D01*
X116832309Y-90781977D01*
X116926436Y-90640363D01*
X117041967Y-90467163D01*
X117177135Y-90265015D01*
X117330173Y-90036556D01*
X117499315Y-89784423D01*
X117682794Y-89511253D01*
X117878844Y-89219684D01*
X118085699Y-88912353D01*
X118301592Y-88591897D01*
X118502643Y-88293732D01*
X118724189Y-87964932D01*
X118937519Y-87647591D01*
X119140931Y-87344276D01*
X119332726Y-87057555D01*
X119511202Y-86789995D01*
X119674658Y-86544163D01*
X119821393Y-86322628D01*
X119949707Y-86127956D01*
X120057899Y-85962716D01*
X120144267Y-85829475D01*
X120207111Y-85730800D01*
X120244731Y-85669259D01*
X120255581Y-85647581D01*
X120240303Y-85622733D01*
X120198805Y-85558188D01*
X120132881Y-85456682D01*
X120044328Y-85320955D01*
X119934943Y-85153745D01*
X119806521Y-84957790D01*
X119660858Y-84735828D01*
X119499751Y-84490598D01*
X119324996Y-84224839D01*
X119138388Y-83941287D01*
X118941725Y-83642681D01*
X118736802Y-83331761D01*
X118685926Y-83254603D01*
X118407485Y-82832375D01*
X118155677Y-82450523D01*
X117929168Y-82106955D01*
X117726619Y-81799580D01*
X117546693Y-81526309D01*
X117388054Y-81285049D01*
X117249365Y-81073710D01*
X117129289Y-80890200D01*
X117026489Y-80732429D01*
X116939628Y-80598306D01*
X116867369Y-80485739D01*
X116808375Y-80392638D01*
X116761309Y-80316912D01*
X116724835Y-80256469D01*
X116697615Y-80209220D01*
X116678312Y-80173071D01*
X116665590Y-80145934D01*
X116658112Y-80125716D01*
X116654541Y-80110327D01*
X116653539Y-80097676D01*
X116653770Y-80085671D01*
X116653950Y-80076511D01*
X116673165Y-79956615D01*
X116727982Y-79864912D01*
X116784764Y-79822170D01*
X116832351Y-79810893D01*
X116922268Y-79801561D01*
X117046303Y-79794183D01*
X117196244Y-79788764D01*
X117363882Y-79785312D01*
X117541005Y-79783833D01*
X117719402Y-79784335D01*
X117890863Y-79786824D01*
X118047175Y-79791307D01*
X118180129Y-79797791D01*
X118281512Y-79806283D01*
X118343115Y-79816790D01*
X118353611Y-79820862D01*
X118376308Y-79846801D01*
X118425048Y-79912834D01*
X118498132Y-80016441D01*
X118593857Y-80155102D01*
X118710525Y-80326297D01*
X118846433Y-80527503D01*
X118999882Y-80756202D01*
X119169170Y-81009873D01*
X119352598Y-81285995D01*
X119548463Y-81582047D01*
X119755066Y-81895510D01*
X119816105Y-81988335D01*
X121218877Y-84122687D01*
X122624368Y-81983242D01*
X122886476Y-81584845D01*
X123121632Y-81228656D01*
X123330271Y-80914034D01*
X123512825Y-80640341D01*
X123669729Y-80406937D01*
X123801414Y-80213181D01*
X123908316Y-80058434D01*
X123990867Y-79942056D01*
X124049500Y-79863408D01*
X124084649Y-79821850D01*
X124093351Y-79814868D01*
X124141893Y-79804648D01*
X124232598Y-79796480D01*
X124357214Y-79790326D01*
X124507489Y-79786147D01*
X124675169Y-79783903D01*
X124852004Y-79783556D01*
X125029740Y-79785068D01*
G36*
X145762279Y-79786785D02*
G01*
X145917463Y-79790164D01*
X146034607Y-79797334D01*
X146120109Y-79809554D01*
X146180367Y-79828083D01*
X146221778Y-79854180D01*
X146250740Y-79889105D01*
X146269620Y-79925068D01*
X146273177Y-79958054D01*
X146276532Y-80039077D01*
X146279685Y-80165324D01*
X146282635Y-80333982D01*
X146285382Y-80542237D01*
X146287928Y-80787277D01*
X146290270Y-81066289D01*
X146292411Y-81376458D01*
X146294349Y-81714973D01*
X146296085Y-82079019D01*
X146297618Y-82465784D01*
X146298949Y-82872454D01*
X146300077Y-83296216D01*
X146301003Y-83734257D01*
X146301727Y-84183764D01*
X146302248Y-84641924D01*
X146302567Y-85105923D01*
X146302684Y-85572949D01*
X146302598Y-86040187D01*
X146302310Y-86504825D01*
X146301819Y-86964050D01*
X146301126Y-87415049D01*
X146300230Y-87855007D01*
X146299133Y-88281113D01*
X146297832Y-88690553D01*
X146296330Y-89080513D01*
X146294625Y-89448181D01*
X146292717Y-89790744D01*
X146290608Y-90105387D01*
X146288295Y-90389299D01*
X146285781Y-90639665D01*
X146283064Y-90853673D01*
X146280145Y-91028509D01*
X146277023Y-91161361D01*
X146273699Y-91249414D01*
X146270172Y-91289857D01*
X146269620Y-91291654D01*
X146247561Y-91332839D01*
X146219300Y-91365032D01*
X146178769Y-91389330D01*
X146119902Y-91406826D01*
X146036633Y-91418618D01*
X145922895Y-91425800D01*
X145772622Y-91429467D01*
X145579747Y-91430716D01*
X145499095Y-91430784D01*
X145288118Y-91430022D01*
X145122015Y-91427116D01*
X144994821Y-91421132D01*
X144900572Y-91411137D01*
X144833306Y-91396198D01*
X144787058Y-91375384D01*
X144755865Y-91347760D01*
X144733764Y-91312393D01*
X144733057Y-91310953D01*
X144730234Y-91280358D01*
X144727322Y-91201958D01*
X144724353Y-91078799D01*
X144721359Y-90913928D01*
X144718372Y-90710389D01*
X144715423Y-90471229D01*
X144712544Y-90199494D01*
X144709767Y-89898230D01*
X144707124Y-89570483D01*
X144704646Y-89219298D01*
X144702366Y-88847722D01*
X144700315Y-88458800D01*
X144698525Y-88055579D01*
X144698194Y-87971713D01*
X144685481Y-84677907D01*
X143821679Y-86608932D01*
X143665541Y-86957697D01*
X143528590Y-87262883D01*
X143409436Y-87527412D01*
X143306689Y-87754206D01*
X143218960Y-87946187D01*
X143144858Y-88106279D01*
X143082994Y-88237403D01*
X143031978Y-88342482D01*
X142990420Y-88424438D01*
X142956929Y-88486193D01*
X142930117Y-88530669D01*
X142908593Y-88560790D01*
X142890967Y-88579476D01*
X142880939Y-88586877D01*
X142852192Y-88601797D01*
X142816641Y-88613205D01*
X142767527Y-88621563D01*
X142698092Y-88627332D01*
X142601577Y-88630973D01*
X142471224Y-88632948D01*
X142300274Y-88633719D01*
X142193789Y-88633797D01*
X141999209Y-88633468D01*
X141848719Y-88632173D01*
X141735559Y-88629450D01*
X141652973Y-88624838D01*
X141594201Y-88617876D01*
X141552484Y-88608102D01*
X141521065Y-88595055D01*
X141506640Y-88586877D01*
X141490803Y-88574057D01*
X141471972Y-88551704D01*
X141448756Y-88516894D01*
X141419765Y-88466706D01*
X141383611Y-88398217D01*
X141338902Y-88308505D01*
X141284250Y-88194648D01*
X141218263Y-88053724D01*
X141139553Y-87882810D01*
X141046728Y-87678983D01*
X140938401Y-87439322D01*
X140813179Y-87160904D01*
X140669675Y-86840807D01*
X140565900Y-86608932D01*
X139702098Y-84677907D01*
X139689385Y-87971713D01*
X139687652Y-88377481D01*
X139685652Y-88769571D01*
X139683416Y-89144939D01*
X139680976Y-89500538D01*
X139678364Y-89833321D01*
X139675612Y-90140244D01*
X139672751Y-90418259D01*
X139669814Y-90664322D01*
X139666832Y-90875386D01*
X139663836Y-91048406D01*
X139660860Y-91180334D01*
X139657934Y-91268127D01*
X139655090Y-91308736D01*
X139654522Y-91310953D01*
X139632756Y-91346531D01*
X139602261Y-91374359D01*
X139557093Y-91395354D01*
X139491310Y-91410431D01*
X139398967Y-91420509D01*
X139274121Y-91426503D01*
X139110829Y-91429331D01*
X138903146Y-91429908D01*
X138883390Y-91429883D01*
X138674027Y-91428781D01*
X138510460Y-91425998D01*
X138387658Y-91421272D01*
X138300586Y-91414342D01*
X138244210Y-91404946D01*
X138217509Y-91395302D01*
X138203245Y-91388421D01*
X138190077Y-91382899D01*
X138177963Y-91376763D01*
X138166857Y-91368040D01*
X138156716Y-91354757D01*
X138147495Y-91334940D01*
X138139151Y-91306617D01*
X138131640Y-91267815D01*
X138124917Y-91216560D01*
X138118939Y-91150880D01*
X138113661Y-91068801D01*
X138109039Y-90968351D01*
X138105030Y-90847556D01*
X138101589Y-90704443D01*
X138098672Y-90537039D01*
X138096236Y-90343372D01*
X138094235Y-90121468D01*
X138092627Y-89869353D01*
X138091367Y-89585056D01*
X138090410Y-89266602D01*
X138089714Y-88912020D01*
X138089233Y-88519335D01*
X138088924Y-88086574D01*
X138088743Y-87611766D01*
X138088646Y-87092936D01*
X138088588Y-86528111D01*
X138088526Y-85915319D01*
X138088484Y-85615914D01*
X138088440Y-84951413D01*
X138088533Y-84336218D01*
X138088772Y-83768781D01*
X138089165Y-83247558D01*
X138089719Y-82771002D01*
X138090443Y-82337568D01*
X138091345Y-81945710D01*
X138092432Y-81593882D01*
X138093714Y-81280539D01*
X138095196Y-81004134D01*
X138096889Y-80763123D01*
X138098799Y-80555958D01*
X138100935Y-80381094D01*
X138103305Y-80236986D01*
X138105916Y-80122088D01*
X138108778Y-80034853D01*
X138111897Y-79973737D01*
X138115281Y-79937193D01*
X138117959Y-79925068D01*
X138141498Y-79881997D01*
X138172260Y-79848782D01*
X138216642Y-79824163D01*
X138281042Y-79806883D01*
X138371856Y-79795681D01*
X138495484Y-79789299D01*
X138658321Y-79786478D01*
X138824921Y-79785939D01*
X139012446Y-79786579D01*
X139156121Y-79788802D01*
X139262931Y-79793067D01*
X139339865Y-79799831D01*
X139393909Y-79809551D01*
X139432050Y-79822685D01*
X139439132Y-79826146D01*
X139451583Y-79832050D01*
X139462841Y-79837421D01*
X139473978Y-79844544D01*
X139486071Y-79855706D01*
X139500191Y-79873192D01*
X139517413Y-79899287D01*
X139538811Y-79936278D01*
X139565459Y-79986451D01*
X139598430Y-80052090D01*
X139638799Y-80135482D01*
X139687639Y-80238913D01*
X139746024Y-80364668D01*
X139815028Y-80515032D01*
X139895724Y-80692293D01*
X139989188Y-80898735D01*
X140096492Y-81136643D01*
X140218710Y-81408305D01*
X140356917Y-81716006D01*
X140512186Y-82062030D01*
X140685590Y-82448665D01*
X140878205Y-82878196D01*
X140987337Y-83121547D01*
X141143845Y-83470408D01*
X141294502Y-83805997D01*
X141438008Y-84125434D01*
X141573065Y-84425839D01*
X141698376Y-84704332D01*
X141812643Y-84958034D01*
X141914566Y-85184065D01*
X142002849Y-85379546D01*
X142076193Y-85541596D01*
X142133299Y-85667336D01*
X142172871Y-85753887D01*
X142193609Y-85798368D01*
X142196513Y-85803929D01*
X142207220Y-85780573D01*
X142237472Y-85713628D01*
X142286007Y-85605903D01*
X142351562Y-85460209D01*
X142432876Y-85279355D01*
X142528687Y-85066152D01*
X142637731Y-84823410D01*
X142758747Y-84553937D01*
X142890472Y-84260544D01*
X143031645Y-83946041D01*
X143181002Y-83613237D01*
X143337283Y-83264943D01*
X143477944Y-82951404D01*
X143640407Y-82589360D01*
X143797860Y-82238712D01*
X143948966Y-81902425D01*
X144092390Y-81583463D01*
X144226794Y-81284790D01*
X144350844Y-81009370D01*
X144463202Y-80760166D01*
X144562532Y-80540143D01*
X144647499Y-80352265D01*
X144716766Y-80199496D01*
X144768996Y-80084799D01*
X144802854Y-80011139D01*
X144815904Y-79983571D01*
X144848567Y-79922947D01*
X144882425Y-79876168D01*
X144924241Y-79841443D01*
X144980779Y-79816983D01*
X145058801Y-79800998D01*
X145165070Y-79791698D01*
X145306351Y-79787292D01*
X145489406Y-79785992D01*
X145562658Y-79785939D01*
X145762279Y-79786785D01*
G37*
X145762279Y-79786785D02*
X145917463Y-79790164D01*
X146034607Y-79797334D01*
X146120109Y-79809554D01*
X146180367Y-79828083D01*
X146221778Y-79854180D01*
X146250740Y-79889105D01*
X146269620Y-79925068D01*
X146273177Y-79958054D01*
X146276532Y-80039077D01*
X146279685Y-80165324D01*
X146282635Y-80333982D01*
X146285382Y-80542237D01*
X146287928Y-80787277D01*
X146290270Y-81066289D01*
X146292411Y-81376458D01*
X146294349Y-81714973D01*
X146296085Y-82079019D01*
X146297618Y-82465784D01*
X146298949Y-82872454D01*
X146300077Y-83296216D01*
X146301003Y-83734257D01*
X146301727Y-84183764D01*
X146302248Y-84641924D01*
X146302567Y-85105923D01*
X146302684Y-85572949D01*
X146302598Y-86040187D01*
X146302310Y-86504825D01*
X146301819Y-86964050D01*
X146301126Y-87415049D01*
X146300230Y-87855007D01*
X146299133Y-88281113D01*
X146297832Y-88690553D01*
X146296330Y-89080513D01*
X146294625Y-89448181D01*
X146292717Y-89790744D01*
X146290608Y-90105387D01*
X146288295Y-90389299D01*
X146285781Y-90639665D01*
X146283064Y-90853673D01*
X146280145Y-91028509D01*
X146277023Y-91161361D01*
X146273699Y-91249414D01*
X146270172Y-91289857D01*
X146269620Y-91291654D01*
X146247561Y-91332839D01*
X146219300Y-91365032D01*
X146178769Y-91389330D01*
X146119902Y-91406826D01*
X146036633Y-91418618D01*
X145922895Y-91425800D01*
X145772622Y-91429467D01*
X145579747Y-91430716D01*
X145499095Y-91430784D01*
X145288118Y-91430022D01*
X145122015Y-91427116D01*
X144994821Y-91421132D01*
X144900572Y-91411137D01*
X144833306Y-91396198D01*
X144787058Y-91375384D01*
X144755865Y-91347760D01*
X144733764Y-91312393D01*
X144733057Y-91310953D01*
X144730234Y-91280358D01*
X144727322Y-91201958D01*
X144724353Y-91078799D01*
X144721359Y-90913928D01*
X144718372Y-90710389D01*
X144715423Y-90471229D01*
X144712544Y-90199494D01*
X144709767Y-89898230D01*
X144707124Y-89570483D01*
X144704646Y-89219298D01*
X144702366Y-88847722D01*
X144700315Y-88458800D01*
X144698525Y-88055579D01*
X144698194Y-87971713D01*
X144685481Y-84677907D01*
X143821679Y-86608932D01*
X143665541Y-86957697D01*
X143528590Y-87262883D01*
X143409436Y-87527412D01*
X143306689Y-87754206D01*
X143218960Y-87946187D01*
X143144858Y-88106279D01*
X143082994Y-88237403D01*
X143031978Y-88342482D01*
X142990420Y-88424438D01*
X142956929Y-88486193D01*
X142930117Y-88530669D01*
X142908593Y-88560790D01*
X142890967Y-88579476D01*
X142880939Y-88586877D01*
X142852192Y-88601797D01*
X142816641Y-88613205D01*
X142767527Y-88621563D01*
X142698092Y-88627332D01*
X142601577Y-88630973D01*
X142471224Y-88632948D01*
X142300274Y-88633719D01*
X142193789Y-88633797D01*
X141999209Y-88633468D01*
X141848719Y-88632173D01*
X141735559Y-88629450D01*
X141652973Y-88624838D01*
X141594201Y-88617876D01*
X141552484Y-88608102D01*
X141521065Y-88595055D01*
X141506640Y-88586877D01*
X141490803Y-88574057D01*
X141471972Y-88551704D01*
X141448756Y-88516894D01*
X141419765Y-88466706D01*
X141383611Y-88398217D01*
X141338902Y-88308505D01*
X141284250Y-88194648D01*
X141218263Y-88053724D01*
X141139553Y-87882810D01*
X141046728Y-87678983D01*
X140938401Y-87439322D01*
X140813179Y-87160904D01*
X140669675Y-86840807D01*
X140565900Y-86608932D01*
X139702098Y-84677907D01*
X139689385Y-87971713D01*
X139687652Y-88377481D01*
X139685652Y-88769571D01*
X139683416Y-89144939D01*
X139680976Y-89500538D01*
X139678364Y-89833321D01*
X139675612Y-90140244D01*
X139672751Y-90418259D01*
X139669814Y-90664322D01*
X139666832Y-90875386D01*
X139663836Y-91048406D01*
X139660860Y-91180334D01*
X139657934Y-91268127D01*
X139655090Y-91308736D01*
X139654522Y-91310953D01*
X139632756Y-91346531D01*
X139602261Y-91374359D01*
X139557093Y-91395354D01*
X139491310Y-91410431D01*
X139398967Y-91420509D01*
X139274121Y-91426503D01*
X139110829Y-91429331D01*
X138903146Y-91429908D01*
X138883390Y-91429883D01*
X138674027Y-91428781D01*
X138510460Y-91425998D01*
X138387658Y-91421272D01*
X138300586Y-91414342D01*
X138244210Y-91404946D01*
X138217509Y-91395302D01*
X138203245Y-91388421D01*
X138190077Y-91382899D01*
X138177963Y-91376763D01*
X138166857Y-91368040D01*
X138156716Y-91354757D01*
X138147495Y-91334940D01*
X138139151Y-91306617D01*
X138131640Y-91267815D01*
X138124917Y-91216560D01*
X138118939Y-91150880D01*
X138113661Y-91068801D01*
X138109039Y-90968351D01*
X138105030Y-90847556D01*
X138101589Y-90704443D01*
X138098672Y-90537039D01*
X138096236Y-90343372D01*
X138094235Y-90121468D01*
X138092627Y-89869353D01*
X138091367Y-89585056D01*
X138090410Y-89266602D01*
X138089714Y-88912020D01*
X138089233Y-88519335D01*
X138088924Y-88086574D01*
X138088743Y-87611766D01*
X138088646Y-87092936D01*
X138088588Y-86528111D01*
X138088526Y-85915319D01*
X138088484Y-85615914D01*
X138088440Y-84951413D01*
X138088533Y-84336218D01*
X138088772Y-83768781D01*
X138089165Y-83247558D01*
X138089719Y-82771002D01*
X138090443Y-82337568D01*
X138091345Y-81945710D01*
X138092432Y-81593882D01*
X138093714Y-81280539D01*
X138095196Y-81004134D01*
X138096889Y-80763123D01*
X138098799Y-80555958D01*
X138100935Y-80381094D01*
X138103305Y-80236986D01*
X138105916Y-80122088D01*
X138108778Y-80034853D01*
X138111897Y-79973737D01*
X138115281Y-79937193D01*
X138117959Y-79925068D01*
X138141498Y-79881997D01*
X138172260Y-79848782D01*
X138216642Y-79824163D01*
X138281042Y-79806883D01*
X138371856Y-79795681D01*
X138495484Y-79789299D01*
X138658321Y-79786478D01*
X138824921Y-79785939D01*
X139012446Y-79786579D01*
X139156121Y-79788802D01*
X139262931Y-79793067D01*
X139339865Y-79799831D01*
X139393909Y-79809551D01*
X139432050Y-79822685D01*
X139439132Y-79826146D01*
X139451583Y-79832050D01*
X139462841Y-79837421D01*
X139473978Y-79844544D01*
X139486071Y-79855706D01*
X139500191Y-79873192D01*
X139517413Y-79899287D01*
X139538811Y-79936278D01*
X139565459Y-79986451D01*
X139598430Y-80052090D01*
X139638799Y-80135482D01*
X139687639Y-80238913D01*
X139746024Y-80364668D01*
X139815028Y-80515032D01*
X139895724Y-80692293D01*
X139989188Y-80898735D01*
X140096492Y-81136643D01*
X140218710Y-81408305D01*
X140356917Y-81716006D01*
X140512186Y-82062030D01*
X140685590Y-82448665D01*
X140878205Y-82878196D01*
X140987337Y-83121547D01*
X141143845Y-83470408D01*
X141294502Y-83805997D01*
X141438008Y-84125434D01*
X141573065Y-84425839D01*
X141698376Y-84704332D01*
X141812643Y-84958034D01*
X141914566Y-85184065D01*
X142002849Y-85379546D01*
X142076193Y-85541596D01*
X142133299Y-85667336D01*
X142172871Y-85753887D01*
X142193609Y-85798368D01*
X142196513Y-85803929D01*
X142207220Y-85780573D01*
X142237472Y-85713628D01*
X142286007Y-85605903D01*
X142351562Y-85460209D01*
X142432876Y-85279355D01*
X142528687Y-85066152D01*
X142637731Y-84823410D01*
X142758747Y-84553937D01*
X142890472Y-84260544D01*
X143031645Y-83946041D01*
X143181002Y-83613237D01*
X143337283Y-83264943D01*
X143477944Y-82951404D01*
X143640407Y-82589360D01*
X143797860Y-82238712D01*
X143948966Y-81902425D01*
X144092390Y-81583463D01*
X144226794Y-81284790D01*
X144350844Y-81009370D01*
X144463202Y-80760166D01*
X144562532Y-80540143D01*
X144647499Y-80352265D01*
X144716766Y-80199496D01*
X144768996Y-80084799D01*
X144802854Y-80011139D01*
X144815904Y-79983571D01*
X144848567Y-79922947D01*
X144882425Y-79876168D01*
X144924241Y-79841443D01*
X144980779Y-79816983D01*
X145058801Y-79800998D01*
X145165070Y-79791698D01*
X145306351Y-79787292D01*
X145489406Y-79785992D01*
X145562658Y-79785939D01*
X145762279Y-79786785D01*
G36*
X134193711Y-79786785D02*
G01*
X134348894Y-79790164D01*
X134466038Y-79797334D01*
X134551540Y-79809554D01*
X134611798Y-79828083D01*
X134653209Y-79854180D01*
X134682171Y-79889105D01*
X134701052Y-79925068D01*
X134704763Y-79958336D01*
X134708250Y-80039167D01*
X134711511Y-80164270D01*
X134714544Y-80330359D01*
X134717347Y-80534146D01*
X134719917Y-80772341D01*
X134722254Y-81041656D01*
X134724355Y-81338803D01*
X134726219Y-81660494D01*
X134727843Y-82003440D01*
X134729226Y-82364353D01*
X134730365Y-82739945D01*
X134731260Y-83126927D01*
X134731907Y-83522011D01*
X134732306Y-83921909D01*
X134732454Y-84323332D01*
X134732349Y-84722992D01*
X134731990Y-85117600D01*
X134731375Y-85503869D01*
X134730501Y-85878510D01*
X134729367Y-86238234D01*
X134727971Y-86579754D01*
X134726311Y-86899781D01*
X134724386Y-87195026D01*
X134722192Y-87462201D01*
X134719730Y-87698019D01*
X134716995Y-87899190D01*
X134713988Y-88062426D01*
X134710705Y-88184439D01*
X134707146Y-88261941D01*
X134705825Y-88278031D01*
X134641780Y-88679485D01*
X134532608Y-89061977D01*
X134375662Y-89434497D01*
X134350386Y-89485070D01*
X134231351Y-89706306D01*
X134113606Y-89895330D01*
X133985649Y-90067921D01*
X133835978Y-90239852D01*
X133691085Y-90389310D01*
X133512549Y-90560004D01*
X133347987Y-90699764D01*
X133182418Y-90819460D01*
X133000861Y-90929959D01*
X132797819Y-91037374D01*
X132575947Y-91144282D01*
X132377994Y-91227900D01*
X132192038Y-91290998D01*
X132006157Y-91336348D01*
X131808428Y-91366721D01*
X131586931Y-91384889D01*
X131329742Y-91393621D01*
X131260857Y-91394628D01*
X131097311Y-91395975D01*
X130947805Y-91396136D01*
X130820991Y-91395188D01*
X130725520Y-91393207D01*
X130670044Y-91390268D01*
X130663359Y-91389378D01*
X130230105Y-91287666D01*
X129821036Y-91142841D01*
X129429613Y-90952309D01*
X129177409Y-90800029D01*
X129067042Y-90718644D01*
X128935502Y-90606735D01*
X128792593Y-90474110D01*
X128648116Y-90330573D01*
X128511873Y-90185931D01*
X128393666Y-90049990D01*
X128303298Y-89932555D01*
X128288553Y-89910825D01*
X128117171Y-89622944D01*
X127966448Y-89314988D01*
X127843035Y-89002326D01*
X127753588Y-88700325D01*
X127741262Y-88646700D01*
X127731305Y-88597764D01*
X127722232Y-88544637D01*
X127714004Y-88484878D01*
X127706578Y-88416051D01*
X127699915Y-88335716D01*
X127693972Y-88241436D01*
X127688710Y-88130771D01*
X127684087Y-88001284D01*
X127680063Y-87850536D01*
X127676597Y-87676089D01*
X127673647Y-87475505D01*
X127671173Y-87246345D01*
X127669134Y-86986171D01*
X127667489Y-86692544D01*
X127666198Y-86363026D01*
X127665219Y-85995179D01*
X127664511Y-85586565D01*
X127664034Y-85134745D01*
X127663747Y-84637280D01*
X127663609Y-84091733D01*
X127663599Y-84014112D01*
X127663628Y-83453970D01*
X127663851Y-82942868D01*
X127664283Y-82478997D01*
X127664935Y-82060546D01*
X127665821Y-81685707D01*
X127666955Y-81352670D01*
X127668350Y-81059623D01*
X127670018Y-80804759D01*
X127671974Y-80586266D01*
X127674231Y-80402335D01*
X127676801Y-80251156D01*
X127679699Y-80130919D01*
X127682936Y-80039815D01*
X127686528Y-79976033D01*
X127690486Y-79937763D01*
X127693534Y-79925068D01*
X127717074Y-79881997D01*
X127747836Y-79848782D01*
X127792218Y-79824163D01*
X127856617Y-79806883D01*
X127947432Y-79795681D01*
X128071059Y-79789299D01*
X128233897Y-79786478D01*
X128400496Y-79785939D01*
X128600117Y-79786785D01*
X128755301Y-79790164D01*
X128872445Y-79797334D01*
X128957947Y-79809554D01*
X129018205Y-79828083D01*
X129059616Y-79854180D01*
X129088578Y-79889105D01*
X129107458Y-79925068D01*
X129111645Y-79946173D01*
X129115465Y-79991483D01*
X129118933Y-80062789D01*
X129122061Y-80161881D01*
X129124862Y-80290551D01*
X129127349Y-80450590D01*
X129129536Y-80643788D01*
X129131435Y-80871937D01*
X129133059Y-81136827D01*
X129134421Y-81440249D01*
X129135535Y-81783994D01*
X129136414Y-82169854D01*
X129137069Y-82599619D01*
X129137516Y-83075079D01*
X129137766Y-83598027D01*
X129137834Y-84097817D01*
X129137811Y-84643759D01*
X129137793Y-85141293D01*
X129137854Y-85592861D01*
X129138069Y-86000904D01*
X129138512Y-86367865D01*
X129139258Y-86696185D01*
X129140381Y-86988308D01*
X129141957Y-87246675D01*
X129144059Y-87473728D01*
X129146762Y-87671909D01*
X129150141Y-87843661D01*
X129154270Y-87991426D01*
X129159224Y-88117645D01*
X129165078Y-88224761D01*
X129171905Y-88315217D01*
X129179781Y-88391454D01*
X129188781Y-88455913D01*
X129198978Y-88511039D01*
X129210447Y-88559272D01*
X129223263Y-88603055D01*
X129237501Y-88644829D01*
X129253234Y-88687038D01*
X129270539Y-88732123D01*
X129280118Y-88757342D01*
X129377864Y-88963909D01*
X129514051Y-89175429D01*
X129679114Y-89380089D01*
X129863486Y-89566073D01*
X130057602Y-89721567D01*
X130064962Y-89726661D01*
X130315109Y-89870320D01*
X130589856Y-89977343D01*
X130878430Y-90045318D01*
X131170061Y-90071832D01*
X131453976Y-90054471D01*
X131497517Y-90047539D01*
X131819672Y-89967008D01*
X132117761Y-89842933D01*
X132388731Y-89678076D01*
X132629526Y-89475202D01*
X132837093Y-89237072D01*
X133008376Y-88966451D01*
X133140321Y-88666100D01*
X133186724Y-88519573D01*
X133243785Y-88316169D01*
X133256625Y-84133687D01*
X133258163Y-83675870D01*
X133259913Y-83231519D01*
X133261853Y-82803328D01*
X133263963Y-82393988D01*
X133266218Y-82006192D01*
X133268597Y-81642632D01*
X133271077Y-81306002D01*
X133273636Y-80998994D01*
X133276253Y-80724301D01*
X133278904Y-80484614D01*
X133281567Y-80282627D01*
X133284221Y-80121033D01*
X133286842Y-80002523D01*
X133289409Y-79929790D01*
X133291615Y-79905769D01*
X133315117Y-79868411D01*
X133348862Y-79839588D01*
X133399104Y-79818233D01*
X133472102Y-79803279D01*
X133574110Y-79793659D01*
X133711387Y-79788305D01*
X133890188Y-79786150D01*
X133994090Y-79785939D01*
X134193711Y-79786785D01*
G37*
X134193711Y-79786785D02*
X134348894Y-79790164D01*
X134466038Y-79797334D01*
X134551540Y-79809554D01*
X134611798Y-79828083D01*
X134653209Y-79854180D01*
X134682171Y-79889105D01*
X134701052Y-79925068D01*
X134704763Y-79958336D01*
X134708250Y-80039167D01*
X134711511Y-80164270D01*
X134714544Y-80330359D01*
X134717347Y-80534146D01*
X134719917Y-80772341D01*
X134722254Y-81041656D01*
X134724355Y-81338803D01*
X134726219Y-81660494D01*
X134727843Y-82003440D01*
X134729226Y-82364353D01*
X134730365Y-82739945D01*
X134731260Y-83126927D01*
X134731907Y-83522011D01*
X134732306Y-83921909D01*
X134732454Y-84323332D01*
X134732349Y-84722992D01*
X134731990Y-85117600D01*
X134731375Y-85503869D01*
X134730501Y-85878510D01*
X134729367Y-86238234D01*
X134727971Y-86579754D01*
X134726311Y-86899781D01*
X134724386Y-87195026D01*
X134722192Y-87462201D01*
X134719730Y-87698019D01*
X134716995Y-87899190D01*
X134713988Y-88062426D01*
X134710705Y-88184439D01*
X134707146Y-88261941D01*
X134705825Y-88278031D01*
X134641780Y-88679485D01*
X134532608Y-89061977D01*
X134375662Y-89434497D01*
X134350386Y-89485070D01*
X134231351Y-89706306D01*
X134113606Y-89895330D01*
X133985649Y-90067921D01*
X133835978Y-90239852D01*
X133691085Y-90389310D01*
X133512549Y-90560004D01*
X133347987Y-90699764D01*
X133182418Y-90819460D01*
X133000861Y-90929959D01*
X132797819Y-91037374D01*
X132575947Y-91144282D01*
X132377994Y-91227900D01*
X132192038Y-91290998D01*
X132006157Y-91336348D01*
X131808428Y-91366721D01*
X131586931Y-91384889D01*
X131329742Y-91393621D01*
X131260857Y-91394628D01*
X131097311Y-91395975D01*
X130947805Y-91396136D01*
X130820991Y-91395188D01*
X130725520Y-91393207D01*
X130670044Y-91390268D01*
X130663359Y-91389378D01*
X130230105Y-91287666D01*
X129821036Y-91142841D01*
X129429613Y-90952309D01*
X129177409Y-90800029D01*
X129067042Y-90718644D01*
X128935502Y-90606735D01*
X128792593Y-90474110D01*
X128648116Y-90330573D01*
X128511873Y-90185931D01*
X128393666Y-90049990D01*
X128303298Y-89932555D01*
X128288553Y-89910825D01*
X128117171Y-89622944D01*
X127966448Y-89314988D01*
X127843035Y-89002326D01*
X127753588Y-88700325D01*
X127741262Y-88646700D01*
X127731305Y-88597764D01*
X127722232Y-88544637D01*
X127714004Y-88484878D01*
X127706578Y-88416051D01*
X127699915Y-88335716D01*
X127693972Y-88241436D01*
X127688710Y-88130771D01*
X127684087Y-88001284D01*
X127680063Y-87850536D01*
X127676597Y-87676089D01*
X127673647Y-87475505D01*
X127671173Y-87246345D01*
X127669134Y-86986171D01*
X127667489Y-86692544D01*
X127666198Y-86363026D01*
X127665219Y-85995179D01*
X127664511Y-85586565D01*
X127664034Y-85134745D01*
X127663747Y-84637280D01*
X127663609Y-84091733D01*
X127663599Y-84014112D01*
X127663628Y-83453970D01*
X127663851Y-82942868D01*
X127664283Y-82478997D01*
X127664935Y-82060546D01*
X127665821Y-81685707D01*
X127666955Y-81352670D01*
X127668350Y-81059623D01*
X127670018Y-80804759D01*
X127671974Y-80586266D01*
X127674231Y-80402335D01*
X127676801Y-80251156D01*
X127679699Y-80130919D01*
X127682936Y-80039815D01*
X127686528Y-79976033D01*
X127690486Y-79937763D01*
X127693534Y-79925068D01*
X127717074Y-79881997D01*
X127747836Y-79848782D01*
X127792218Y-79824163D01*
X127856617Y-79806883D01*
X127947432Y-79795681D01*
X128071059Y-79789299D01*
X128233897Y-79786478D01*
X128400496Y-79785939D01*
X128600117Y-79786785D01*
X128755301Y-79790164D01*
X128872445Y-79797334D01*
X128957947Y-79809554D01*
X129018205Y-79828083D01*
X129059616Y-79854180D01*
X129088578Y-79889105D01*
X129107458Y-79925068D01*
X129111645Y-79946173D01*
X129115465Y-79991483D01*
X129118933Y-80062789D01*
X129122061Y-80161881D01*
X129124862Y-80290551D01*
X129127349Y-80450590D01*
X129129536Y-80643788D01*
X129131435Y-80871937D01*
X129133059Y-81136827D01*
X129134421Y-81440249D01*
X129135535Y-81783994D01*
X129136414Y-82169854D01*
X129137069Y-82599619D01*
X129137516Y-83075079D01*
X129137766Y-83598027D01*
X129137834Y-84097817D01*
X129137811Y-84643759D01*
X129137793Y-85141293D01*
X129137854Y-85592861D01*
X129138069Y-86000904D01*
X129138512Y-86367865D01*
X129139258Y-86696185D01*
X129140381Y-86988308D01*
X129141957Y-87246675D01*
X129144059Y-87473728D01*
X129146762Y-87671909D01*
X129150141Y-87843661D01*
X129154270Y-87991426D01*
X129159224Y-88117645D01*
X129165078Y-88224761D01*
X129171905Y-88315217D01*
X129179781Y-88391454D01*
X129188781Y-88455913D01*
X129198978Y-88511039D01*
X129210447Y-88559272D01*
X129223263Y-88603055D01*
X129237501Y-88644829D01*
X129253234Y-88687038D01*
X129270539Y-88732123D01*
X129280118Y-88757342D01*
X129377864Y-88963909D01*
X129514051Y-89175429D01*
X129679114Y-89380089D01*
X129863486Y-89566073D01*
X130057602Y-89721567D01*
X130064962Y-89726661D01*
X130315109Y-89870320D01*
X130589856Y-89977343D01*
X130878430Y-90045318D01*
X131170061Y-90071832D01*
X131453976Y-90054471D01*
X131497517Y-90047539D01*
X131819672Y-89967008D01*
X132117761Y-89842933D01*
X132388731Y-89678076D01*
X132629526Y-89475202D01*
X132837093Y-89237072D01*
X133008376Y-88966451D01*
X133140321Y-88666100D01*
X133186724Y-88519573D01*
X133243785Y-88316169D01*
X133256625Y-84133687D01*
X133258163Y-83675870D01*
X133259913Y-83231519D01*
X133261853Y-82803328D01*
X133263963Y-82393988D01*
X133266218Y-82006192D01*
X133268597Y-81642632D01*
X133271077Y-81306002D01*
X133273636Y-80998994D01*
X133276253Y-80724301D01*
X133278904Y-80484614D01*
X133281567Y-80282627D01*
X133284221Y-80121033D01*
X133286842Y-80002523D01*
X133289409Y-79929790D01*
X133291615Y-79905769D01*
X133315117Y-79868411D01*
X133348862Y-79839588D01*
X133399104Y-79818233D01*
X133472102Y-79803279D01*
X133574110Y-79793659D01*
X133711387Y-79788305D01*
X133890188Y-79786150D01*
X133994090Y-79785939D01*
X134193711Y-79786785D01*
G36*
X155046342Y-91201955D02*
G01*
X153953049Y-91201955D01*
X153953049Y-86930483D01*
X155046342Y-86930483D01*
X155046342Y-91201955D01*
G37*
X155046342Y-91201955D02*
X153953049Y-91201955D01*
X153953049Y-86930483D01*
X155046342Y-86930483D01*
X155046342Y-91201955D01*
G36*
X156571868Y-91201955D02*
G01*
X155478574Y-91201955D01*
X155478574Y-86930483D01*
X156571868Y-86930483D01*
X156571868Y-91201955D01*
G37*
X156571868Y-91201955D02*
X155478574Y-91201955D01*
X155478574Y-86930483D01*
X156571868Y-86930483D01*
X156571868Y-91201955D01*
G36*
X154919215Y-80980934D02*
G01*
X153647944Y-80980934D01*
X153647944Y-81335389D01*
X153649945Y-81501170D01*
X153656024Y-81617726D01*
X153666299Y-81686527D01*
X153677297Y-81707986D01*
X153694894Y-81710984D01*
X153690030Y-81699234D01*
X153701106Y-81672733D01*
X153746679Y-81628943D01*
X153817584Y-81576642D01*
X153818948Y-81575735D01*
X153894437Y-81528092D01*
X153956843Y-81498448D01*
X154023857Y-81481646D01*
X154113167Y-81472526D01*
X154186694Y-81468507D01*
X154292866Y-81465736D01*
X154383272Y-81467559D01*
X154443098Y-81473526D01*
X154454298Y-81476603D01*
X154512213Y-81492735D01*
X154580666Y-81503731D01*
X154698706Y-81535009D01*
X154815136Y-81597354D01*
X154907899Y-81678266D01*
X154923430Y-81697996D01*
X154988556Y-81806358D01*
X155041261Y-81935485D01*
X155082385Y-82090380D01*
X155112768Y-82276048D01*
X155133250Y-82497493D01*
X155144669Y-82759717D01*
X155147894Y-83035538D01*
X155147090Y-83194461D01*
X155144758Y-83333897D01*
X155141153Y-83446678D01*
X155136530Y-83525639D01*
X155131145Y-83563613D01*
X155128975Y-83565819D01*
X155118202Y-83582286D01*
X155109933Y-83636767D01*
X155106609Y-83697802D01*
X155096973Y-83799388D01*
X155075185Y-83920363D01*
X155050130Y-84019569D01*
X155017454Y-84116572D01*
X154979813Y-84192175D01*
X154926114Y-84264079D01*
X154845265Y-84349985D01*
X154839382Y-84355897D01*
X154754654Y-84435447D01*
X154675262Y-84494155D01*
X154589101Y-84537255D01*
X154484066Y-84569976D01*
X154348054Y-84597552D01*
X154240571Y-84614703D01*
X154115393Y-84628204D01*
X153966757Y-84636166D01*
X153810942Y-84638507D01*
X153664225Y-84635142D01*
X153542884Y-84625987D01*
X153493348Y-84618549D01*
X153442192Y-84604057D01*
X153597093Y-84604057D01*
X153609805Y-84616770D01*
X153622518Y-84604057D01*
X154080176Y-84604057D01*
X154092889Y-84616770D01*
X154105601Y-84604057D01*
X154092889Y-84591344D01*
X154080176Y-84604057D01*
X153622518Y-84604057D01*
X153609805Y-84591344D01*
X153597093Y-84604057D01*
X153442192Y-84604057D01*
X153348928Y-84577637D01*
X153193552Y-84513264D01*
X153051100Y-84436152D01*
X152983736Y-84389757D01*
X152930238Y-84340674D01*
X152872417Y-84275754D01*
X152817457Y-84205081D01*
X152772541Y-84138738D01*
X152744850Y-84086806D01*
X152741567Y-84059370D01*
X152746988Y-84057410D01*
X152748100Y-84041764D01*
X152733553Y-84020386D01*
X152715276Y-83977172D01*
X152719227Y-83956822D01*
X152719846Y-83932527D01*
X152711582Y-83930283D01*
X152696872Y-83906519D01*
X152678979Y-83841460D01*
X152659282Y-83744458D01*
X152639159Y-83624864D01*
X152619986Y-83492029D01*
X152603142Y-83355306D01*
X152590005Y-83224045D01*
X152581952Y-83107598D01*
X152580076Y-83037699D01*
X152582563Y-83021670D01*
X152594278Y-83009651D01*
X152621598Y-83001068D01*
X152670899Y-82995346D01*
X152748559Y-82991909D01*
X152860955Y-82990183D01*
X153014466Y-82989592D01*
X153114010Y-82989543D01*
X153647944Y-82989543D01*
X153649060Y-83199302D01*
X153654234Y-83371563D01*
X153666978Y-83535911D01*
X153685875Y-83680457D01*
X153709509Y-83793313D01*
X153725554Y-83841294D01*
X153746620Y-83900072D01*
X153753280Y-83937664D01*
X153753121Y-83938530D01*
X153764447Y-83948058D01*
X153774441Y-83943385D01*
X153798320Y-83944811D01*
X153800496Y-83954208D01*
X153821303Y-83974700D01*
X153870149Y-83980499D01*
X153926676Y-83972509D01*
X153970523Y-83951637D01*
X153975627Y-83946426D01*
X153999856Y-83890489D01*
X154019567Y-83786215D01*
X154034800Y-83633126D01*
X154045588Y-83430744D01*
X154051970Y-83178591D01*
X154053965Y-82918806D01*
X154053563Y-82696389D01*
X154050989Y-82519635D01*
X154045137Y-82383364D01*
X154034899Y-82282400D01*
X154019169Y-82211564D01*
X153996840Y-82165680D01*
X153966803Y-82139568D01*
X153927953Y-82128051D01*
X153884426Y-82125887D01*
X153791196Y-82138332D01*
X153727635Y-82180175D01*
X153681054Y-82260997D01*
X153671096Y-82286968D01*
X153629402Y-82364225D01*
X153577092Y-82407526D01*
X153576539Y-82407739D01*
X153532932Y-82414898D01*
X153447746Y-82421113D01*
X153330250Y-82425993D01*
X153189712Y-82429145D01*
X153045294Y-82430183D01*
X152573083Y-82430183D01*
X152589556Y-82220423D01*
X152599120Y-82086940D01*
X153825922Y-82086940D01*
X153838634Y-82099653D01*
X153851347Y-82086940D01*
X153838634Y-82074227D01*
X153825922Y-82086940D01*
X152599120Y-82086940D01*
X152599746Y-82078208D01*
X152611323Y-81895582D01*
X152623720Y-81682946D01*
X152636371Y-81450702D01*
X152648710Y-81209252D01*
X152660171Y-80968997D01*
X152670188Y-80740341D01*
X152670491Y-80733036D01*
X152687570Y-80319873D01*
X154919215Y-80319873D01*
X154919215Y-80980934D01*
G37*
X154919215Y-80980934D02*
X153647944Y-80980934D01*
X153647944Y-81335389D01*
X153649945Y-81501170D01*
X153656024Y-81617726D01*
X153666299Y-81686527D01*
X153677297Y-81707986D01*
X153694894Y-81710984D01*
X153690030Y-81699234D01*
X153701106Y-81672733D01*
X153746679Y-81628943D01*
X153817584Y-81576642D01*
X153818948Y-81575735D01*
X153894437Y-81528092D01*
X153956843Y-81498448D01*
X154023857Y-81481646D01*
X154113167Y-81472526D01*
X154186694Y-81468507D01*
X154292866Y-81465736D01*
X154383272Y-81467559D01*
X154443098Y-81473526D01*
X154454298Y-81476603D01*
X154512213Y-81492735D01*
X154580666Y-81503731D01*
X154698706Y-81535009D01*
X154815136Y-81597354D01*
X154907899Y-81678266D01*
X154923430Y-81697996D01*
X154988556Y-81806358D01*
X155041261Y-81935485D01*
X155082385Y-82090380D01*
X155112768Y-82276048D01*
X155133250Y-82497493D01*
X155144669Y-82759717D01*
X155147894Y-83035538D01*
X155147090Y-83194461D01*
X155144758Y-83333897D01*
X155141153Y-83446678D01*
X155136530Y-83525639D01*
X155131145Y-83563613D01*
X155128975Y-83565819D01*
X155118202Y-83582286D01*
X155109933Y-83636767D01*
X155106609Y-83697802D01*
X155096973Y-83799388D01*
X155075185Y-83920363D01*
X155050130Y-84019569D01*
X155017454Y-84116572D01*
X154979813Y-84192175D01*
X154926114Y-84264079D01*
X154845265Y-84349985D01*
X154839382Y-84355897D01*
X154754654Y-84435447D01*
X154675262Y-84494155D01*
X154589101Y-84537255D01*
X154484066Y-84569976D01*
X154348054Y-84597552D01*
X154240571Y-84614703D01*
X154115393Y-84628204D01*
X153966757Y-84636166D01*
X153810942Y-84638507D01*
X153664225Y-84635142D01*
X153542884Y-84625987D01*
X153493348Y-84618549D01*
X153442192Y-84604057D01*
X153597093Y-84604057D01*
X153609805Y-84616770D01*
X153622518Y-84604057D01*
X154080176Y-84604057D01*
X154092889Y-84616770D01*
X154105601Y-84604057D01*
X154092889Y-84591344D01*
X154080176Y-84604057D01*
X153622518Y-84604057D01*
X153609805Y-84591344D01*
X153597093Y-84604057D01*
X153442192Y-84604057D01*
X153348928Y-84577637D01*
X153193552Y-84513264D01*
X153051100Y-84436152D01*
X152983736Y-84389757D01*
X152930238Y-84340674D01*
X152872417Y-84275754D01*
X152817457Y-84205081D01*
X152772541Y-84138738D01*
X152744850Y-84086806D01*
X152741567Y-84059370D01*
X152746988Y-84057410D01*
X152748100Y-84041764D01*
X152733553Y-84020386D01*
X152715276Y-83977172D01*
X152719227Y-83956822D01*
X152719846Y-83932527D01*
X152711582Y-83930283D01*
X152696872Y-83906519D01*
X152678979Y-83841460D01*
X152659282Y-83744458D01*
X152639159Y-83624864D01*
X152619986Y-83492029D01*
X152603142Y-83355306D01*
X152590005Y-83224045D01*
X152581952Y-83107598D01*
X152580076Y-83037699D01*
X152582563Y-83021670D01*
X152594278Y-83009651D01*
X152621598Y-83001068D01*
X152670899Y-82995346D01*
X152748559Y-82991909D01*
X152860955Y-82990183D01*
X153014466Y-82989592D01*
X153114010Y-82989543D01*
X153647944Y-82989543D01*
X153649060Y-83199302D01*
X153654234Y-83371563D01*
X153666978Y-83535911D01*
X153685875Y-83680457D01*
X153709509Y-83793313D01*
X153725554Y-83841294D01*
X153746620Y-83900072D01*
X153753280Y-83937664D01*
X153753121Y-83938530D01*
X153764447Y-83948058D01*
X153774441Y-83943385D01*
X153798320Y-83944811D01*
X153800496Y-83954208D01*
X153821303Y-83974700D01*
X153870149Y-83980499D01*
X153926676Y-83972509D01*
X153970523Y-83951637D01*
X153975627Y-83946426D01*
X153999856Y-83890489D01*
X154019567Y-83786215D01*
X154034800Y-83633126D01*
X154045588Y-83430744D01*
X154051970Y-83178591D01*
X154053965Y-82918806D01*
X154053563Y-82696389D01*
X154050989Y-82519635D01*
X154045137Y-82383364D01*
X154034899Y-82282400D01*
X154019169Y-82211564D01*
X153996840Y-82165680D01*
X153966803Y-82139568D01*
X153927953Y-82128051D01*
X153884426Y-82125887D01*
X153791196Y-82138332D01*
X153727635Y-82180175D01*
X153681054Y-82260997D01*
X153671096Y-82286968D01*
X153629402Y-82364225D01*
X153577092Y-82407526D01*
X153576539Y-82407739D01*
X153532932Y-82414898D01*
X153447746Y-82421113D01*
X153330250Y-82425993D01*
X153189712Y-82429145D01*
X153045294Y-82430183D01*
X152573083Y-82430183D01*
X152589556Y-82220423D01*
X152599120Y-82086940D01*
X153825922Y-82086940D01*
X153838634Y-82099653D01*
X153851347Y-82086940D01*
X153838634Y-82074227D01*
X153825922Y-82086940D01*
X152599120Y-82086940D01*
X152599746Y-82078208D01*
X152611323Y-81895582D01*
X152623720Y-81682946D01*
X152636371Y-81450702D01*
X152648710Y-81209252D01*
X152660171Y-80968997D01*
X152670188Y-80740341D01*
X152670491Y-80733036D01*
X152687570Y-80319873D01*
X154919215Y-80319873D01*
X154919215Y-80980934D01*
G36*
X152249545Y-84591344D02*
G01*
X151164135Y-84591344D01*
X151147481Y-84244081D01*
X151143475Y-84133856D01*
X151139816Y-83981783D01*
X151136622Y-83796864D01*
X151134014Y-83588101D01*
X151132110Y-83364497D01*
X151131030Y-83135053D01*
X151130827Y-82989428D01*
X151130357Y-82767751D01*
X151129023Y-82552101D01*
X151126938Y-82350284D01*
X151124215Y-82170108D01*
X151120965Y-82019381D01*
X151117303Y-81905908D01*
X151114387Y-81850433D01*
X151097947Y-81618826D01*
X151012701Y-81578374D01*
X150946572Y-81554589D01*
X150849172Y-81528464D01*
X150739546Y-81505001D01*
X150719307Y-81501327D01*
X150619975Y-81481432D01*
X150539434Y-81460812D01*
X150491385Y-81443117D01*
X150485390Y-81438961D01*
X150463946Y-81389633D01*
X150454977Y-81309302D01*
X150458290Y-81216215D01*
X150473692Y-81128616D01*
X150489122Y-81085287D01*
X150526159Y-81028659D01*
X150585015Y-80980829D01*
X150678673Y-80931563D01*
X150691701Y-80925597D01*
X150776102Y-80891373D01*
X150843978Y-80871221D01*
X150881079Y-80869338D01*
X150881665Y-80869667D01*
X150898148Y-80871482D01*
X150893906Y-80861284D01*
X150904672Y-80836340D01*
X150950555Y-80803955D01*
X150976353Y-80791110D01*
X151050431Y-80752967D01*
X151143864Y-80698519D01*
X151221818Y-80649073D01*
X151298364Y-80602482D01*
X151359732Y-80572867D01*
X151393070Y-80566394D01*
X151393626Y-80566696D01*
X151406904Y-80565819D01*
X151402528Y-80556362D01*
X151412849Y-80529248D01*
X151456531Y-80486386D01*
X151522291Y-80436384D01*
X151598852Y-80387849D01*
X151672313Y-80350505D01*
X151729226Y-80336966D01*
X151822113Y-80326555D01*
X151936123Y-80320675D01*
X151996487Y-80319873D01*
X152249545Y-80319873D01*
X152249545Y-84591344D01*
G37*
X152249545Y-84591344D02*
X151164135Y-84591344D01*
X151147481Y-84244081D01*
X151143475Y-84133856D01*
X151139816Y-83981783D01*
X151136622Y-83796864D01*
X151134014Y-83588101D01*
X151132110Y-83364497D01*
X151131030Y-83135053D01*
X151130827Y-82989428D01*
X151130357Y-82767751D01*
X151129023Y-82552101D01*
X151126938Y-82350284D01*
X151124215Y-82170108D01*
X151120965Y-82019381D01*
X151117303Y-81905908D01*
X151114387Y-81850433D01*
X151097947Y-81618826D01*
X151012701Y-81578374D01*
X150946572Y-81554589D01*
X150849172Y-81528464D01*
X150739546Y-81505001D01*
X150719307Y-81501327D01*
X150619975Y-81481432D01*
X150539434Y-81460812D01*
X150491385Y-81443117D01*
X150485390Y-81438961D01*
X150463946Y-81389633D01*
X150454977Y-81309302D01*
X150458290Y-81216215D01*
X150473692Y-81128616D01*
X150489122Y-81085287D01*
X150526159Y-81028659D01*
X150585015Y-80980829D01*
X150678673Y-80931563D01*
X150691701Y-80925597D01*
X150776102Y-80891373D01*
X150843978Y-80871221D01*
X150881079Y-80869338D01*
X150881665Y-80869667D01*
X150898148Y-80871482D01*
X150893906Y-80861284D01*
X150904672Y-80836340D01*
X150950555Y-80803955D01*
X150976353Y-80791110D01*
X151050431Y-80752967D01*
X151143864Y-80698519D01*
X151221818Y-80649073D01*
X151298364Y-80602482D01*
X151359732Y-80572867D01*
X151393070Y-80566394D01*
X151393626Y-80566696D01*
X151406904Y-80565819D01*
X151402528Y-80556362D01*
X151412849Y-80529248D01*
X151456531Y-80486386D01*
X151522291Y-80436384D01*
X151598852Y-80387849D01*
X151672313Y-80350505D01*
X151729226Y-80336966D01*
X151822113Y-80326555D01*
X151936123Y-80320675D01*
X151996487Y-80319873D01*
X152249545Y-80319873D01*
X152249545Y-84591344D01*
G36*
X157716012Y-83116670D02*
G01*
X157840026Y-83116670D01*
X157938116Y-83125504D01*
X157994837Y-83157374D01*
X158017415Y-83220328D01*
X158014424Y-83310994D01*
X158009689Y-83380576D01*
X158016810Y-83401854D01*
X158025823Y-83393422D01*
X158037379Y-83395887D01*
X158040518Y-83447801D01*
X158035203Y-83548458D01*
X158034227Y-83560903D01*
X158023664Y-83660005D01*
X158010267Y-83740577D01*
X157996566Y-83788160D01*
X157993640Y-83792916D01*
X157954552Y-83815284D01*
X157887238Y-83834822D01*
X157865518Y-83838832D01*
X157787603Y-83860792D01*
X157751301Y-83897351D01*
X157748693Y-83905283D01*
X157731653Y-83941239D01*
X157719477Y-83945076D01*
X157714020Y-83965010D01*
X157710551Y-84026682D01*
X157709310Y-84121008D01*
X157710538Y-84238905D01*
X157711069Y-84263180D01*
X157718839Y-84591344D01*
X156673569Y-84591344D01*
X156673569Y-83828582D01*
X155402298Y-83828582D01*
X155402298Y-83521033D01*
X155406002Y-83357664D01*
X155416410Y-83215345D01*
X155421609Y-83180233D01*
X157970266Y-83180233D01*
X157982979Y-83192946D01*
X157995691Y-83180233D01*
X157982979Y-83167521D01*
X157970266Y-83180233D01*
X155421609Y-83180233D01*
X155432466Y-83106918D01*
X155438357Y-83082445D01*
X155446639Y-83049837D01*
X156208526Y-83049837D01*
X156226341Y-83073045D01*
X156273119Y-83086577D01*
X156323869Y-83097878D01*
X156342985Y-83112002D01*
X156366095Y-83119649D01*
X156426627Y-83122785D01*
X156508251Y-83120857D01*
X156673569Y-83112331D01*
X156673569Y-82520909D01*
X156672230Y-82231706D01*
X156668242Y-81988576D01*
X156661655Y-81792325D01*
X156652514Y-81643758D01*
X156640869Y-81543683D01*
X156626766Y-81492907D01*
X156612765Y-81489226D01*
X156586557Y-81532971D01*
X156583611Y-81547626D01*
X156575825Y-81607310D01*
X156560666Y-81675945D01*
X156542969Y-81735396D01*
X156527568Y-81767530D01*
X156524543Y-81769173D01*
X156511270Y-81791233D01*
X156503401Y-81839971D01*
X156489635Y-81917086D01*
X156467655Y-81986117D01*
X156445013Y-82046602D01*
X156433645Y-82086760D01*
X156433622Y-82086940D01*
X156420200Y-82170964D01*
X156403004Y-82249184D01*
X156385807Y-82306669D01*
X156372586Y-82328499D01*
X156358658Y-82350354D01*
X156352079Y-82392158D01*
X156341569Y-82460769D01*
X156329480Y-82500198D01*
X156310214Y-82559039D01*
X156305451Y-82582736D01*
X156293019Y-82653234D01*
X156275141Y-82731323D01*
X156256974Y-82796061D01*
X156246207Y-82823344D01*
X156233789Y-82863818D01*
X156223325Y-82929046D01*
X156222743Y-82934490D01*
X156215159Y-83002004D01*
X156208832Y-83048132D01*
X156208526Y-83049837D01*
X155446639Y-83049837D01*
X155463070Y-82985151D01*
X155484055Y-82889962D01*
X155490492Y-82855352D01*
X155506026Y-82798055D01*
X155525017Y-82773098D01*
X155530419Y-82774040D01*
X155543741Y-82768854D01*
X155539646Y-82750676D01*
X155541636Y-82715308D01*
X155556632Y-82643683D01*
X155581835Y-82544933D01*
X155614446Y-82428192D01*
X155651666Y-82302593D01*
X155690695Y-82177269D01*
X155728735Y-82061353D01*
X155762985Y-81963978D01*
X155790646Y-81894278D01*
X155808920Y-81861385D01*
X155812563Y-81860248D01*
X155824768Y-81854549D01*
X155821379Y-81840363D01*
X155825820Y-81808711D01*
X155844420Y-81734987D01*
X155875357Y-81625392D01*
X155916811Y-81486128D01*
X155966958Y-81323396D01*
X156023979Y-81143400D01*
X156047666Y-81069923D01*
X156286523Y-80332586D01*
X157001267Y-80325833D01*
X157716012Y-80319081D01*
X157716012Y-83116670D01*
G37*
X157716012Y-83116670D02*
X157840026Y-83116670D01*
X157938116Y-83125504D01*
X157994837Y-83157374D01*
X158017415Y-83220328D01*
X158014424Y-83310994D01*
X158009689Y-83380576D01*
X158016810Y-83401854D01*
X158025823Y-83393422D01*
X158037379Y-83395887D01*
X158040518Y-83447801D01*
X158035203Y-83548458D01*
X158034227Y-83560903D01*
X158023664Y-83660005D01*
X158010267Y-83740577D01*
X157996566Y-83788160D01*
X157993640Y-83792916D01*
X157954552Y-83815284D01*
X157887238Y-83834822D01*
X157865518Y-83838832D01*
X157787603Y-83860792D01*
X157751301Y-83897351D01*
X157748693Y-83905283D01*
X157731653Y-83941239D01*
X157719477Y-83945076D01*
X157714020Y-83965010D01*
X157710551Y-84026682D01*
X157709310Y-84121008D01*
X157710538Y-84238905D01*
X157711069Y-84263180D01*
X157718839Y-84591344D01*
X156673569Y-84591344D01*
X156673569Y-83828582D01*
X155402298Y-83828582D01*
X155402298Y-83521033D01*
X155406002Y-83357664D01*
X155416410Y-83215345D01*
X155421609Y-83180233D01*
X157970266Y-83180233D01*
X157982979Y-83192946D01*
X157995691Y-83180233D01*
X157982979Y-83167521D01*
X157970266Y-83180233D01*
X155421609Y-83180233D01*
X155432466Y-83106918D01*
X155438357Y-83082445D01*
X155446639Y-83049837D01*
X156208526Y-83049837D01*
X156226341Y-83073045D01*
X156273119Y-83086577D01*
X156323869Y-83097878D01*
X156342985Y-83112002D01*
X156366095Y-83119649D01*
X156426627Y-83122785D01*
X156508251Y-83120857D01*
X156673569Y-83112331D01*
X156673569Y-82520909D01*
X156672230Y-82231706D01*
X156668242Y-81988576D01*
X156661655Y-81792325D01*
X156652514Y-81643758D01*
X156640869Y-81543683D01*
X156626766Y-81492907D01*
X156612765Y-81489226D01*
X156586557Y-81532971D01*
X156583611Y-81547626D01*
X156575825Y-81607310D01*
X156560666Y-81675945D01*
X156542969Y-81735396D01*
X156527568Y-81767530D01*
X156524543Y-81769173D01*
X156511270Y-81791233D01*
X156503401Y-81839971D01*
X156489635Y-81917086D01*
X156467655Y-81986117D01*
X156445013Y-82046602D01*
X156433645Y-82086760D01*
X156433622Y-82086940D01*
X156420200Y-82170964D01*
X156403004Y-82249184D01*
X156385807Y-82306669D01*
X156372586Y-82328499D01*
X156358658Y-82350354D01*
X156352079Y-82392158D01*
X156341569Y-82460769D01*
X156329480Y-82500198D01*
X156310214Y-82559039D01*
X156305451Y-82582736D01*
X156293019Y-82653234D01*
X156275141Y-82731323D01*
X156256974Y-82796061D01*
X156246207Y-82823344D01*
X156233789Y-82863818D01*
X156223325Y-82929046D01*
X156222743Y-82934490D01*
X156215159Y-83002004D01*
X156208832Y-83048132D01*
X156208526Y-83049837D01*
X155446639Y-83049837D01*
X155463070Y-82985151D01*
X155484055Y-82889962D01*
X155490492Y-82855352D01*
X155506026Y-82798055D01*
X155525017Y-82773098D01*
X155530419Y-82774040D01*
X155543741Y-82768854D01*
X155539646Y-82750676D01*
X155541636Y-82715308D01*
X155556632Y-82643683D01*
X155581835Y-82544933D01*
X155614446Y-82428192D01*
X155651666Y-82302593D01*
X155690695Y-82177269D01*
X155728735Y-82061353D01*
X155762985Y-81963978D01*
X155790646Y-81894278D01*
X155808920Y-81861385D01*
X155812563Y-81860248D01*
X155824768Y-81854549D01*
X155821379Y-81840363D01*
X155825820Y-81808711D01*
X155844420Y-81734987D01*
X155875357Y-81625392D01*
X155916811Y-81486128D01*
X155966958Y-81323396D01*
X156023979Y-81143400D01*
X156047666Y-81069923D01*
X156286523Y-80332586D01*
X157001267Y-80325833D01*
X157716012Y-80319081D01*
X157716012Y-83116670D01*
G36*
X159826322Y-84591344D02*
G01*
X158713686Y-84591344D01*
X158698246Y-83212015D01*
X158695029Y-82948279D01*
X158691456Y-82697081D01*
X158687636Y-82463541D01*
X158683674Y-82252779D01*
X158679679Y-82069915D01*
X158675758Y-81920068D01*
X158672018Y-81808359D01*
X158668566Y-81739907D01*
X158667035Y-81723862D01*
X158650382Y-81656747D01*
X158617381Y-81606895D01*
X158559813Y-81569288D01*
X158469459Y-81538910D01*
X158338098Y-81510743D01*
X158309262Y-81505485D01*
X158184223Y-81482741D01*
X158100965Y-81462989D01*
X158051444Y-81439069D01*
X158027613Y-81403820D01*
X158021429Y-81350079D01*
X158024845Y-81270687D01*
X158025853Y-81253221D01*
X158033245Y-81156862D01*
X158045891Y-81095463D01*
X158069689Y-81053139D01*
X158110538Y-81014002D01*
X158116503Y-81009063D01*
X158180870Y-80966351D01*
X158273574Y-80916959D01*
X158375052Y-80871270D01*
X158379497Y-80869473D01*
X158482193Y-80821685D01*
X158605837Y-80754540D01*
X158730632Y-80679102D01*
X158788865Y-80640644D01*
X158935032Y-80540287D01*
X159047015Y-80464376D01*
X159133112Y-80409404D01*
X159201619Y-80371867D01*
X159260834Y-80348258D01*
X159319053Y-80335072D01*
X159384572Y-80328804D01*
X159465689Y-80325947D01*
X159538162Y-80324041D01*
X159826322Y-80315497D01*
X159826322Y-84591344D01*
G37*
X159826322Y-84591344D02*
X158713686Y-84591344D01*
X158698246Y-83212015D01*
X158695029Y-82948279D01*
X158691456Y-82697081D01*
X158687636Y-82463541D01*
X158683674Y-82252779D01*
X158679679Y-82069915D01*
X158675758Y-81920068D01*
X158672018Y-81808359D01*
X158668566Y-81739907D01*
X158667035Y-81723862D01*
X158650382Y-81656747D01*
X158617381Y-81606895D01*
X158559813Y-81569288D01*
X158469459Y-81538910D01*
X158338098Y-81510743D01*
X158309262Y-81505485D01*
X158184223Y-81482741D01*
X158100965Y-81462989D01*
X158051444Y-81439069D01*
X158027613Y-81403820D01*
X158021429Y-81350079D01*
X158024845Y-81270687D01*
X158025853Y-81253221D01*
X158033245Y-81156862D01*
X158045891Y-81095463D01*
X158069689Y-81053139D01*
X158110538Y-81014002D01*
X158116503Y-81009063D01*
X158180870Y-80966351D01*
X158273574Y-80916959D01*
X158375052Y-80871270D01*
X158379497Y-80869473D01*
X158482193Y-80821685D01*
X158605837Y-80754540D01*
X158730632Y-80679102D01*
X158788865Y-80640644D01*
X158935032Y-80540287D01*
X159047015Y-80464376D01*
X159133112Y-80409404D01*
X159201619Y-80371867D01*
X159260834Y-80348258D01*
X159319053Y-80335072D01*
X159384572Y-80328804D01*
X159465689Y-80325947D01*
X159538162Y-80324041D01*
X159826322Y-80315497D01*
X159826322Y-84591344D01*
D12*
G36*
X114554000Y-90805000D02*
G01*
X112268000Y-90805000D01*
X112268000Y-90043000D01*
X114554000Y-90043000D01*
X114554000Y-90805000D01*
G37*
X114554000Y-90805000D02*
X112268000Y-90805000D01*
X112268000Y-90043000D01*
X114554000Y-90043000D01*
X114554000Y-90805000D01*
G36*
X114554000Y-89535000D02*
G01*
X112268000Y-89535000D01*
X112268000Y-88773000D01*
X114554000Y-88773000D01*
X114554000Y-89535000D01*
G37*
X114554000Y-89535000D02*
X112268000Y-89535000D01*
X112268000Y-88773000D01*
X114554000Y-88773000D01*
X114554000Y-89535000D01*
D11*
G36*
X164124104Y-77082858D02*
G01*
X164499941Y-77315656D01*
X164778706Y-77607629D01*
X164948234Y-77945479D01*
X164963829Y-78000623D01*
X164990905Y-78160207D01*
X165018583Y-78415088D01*
X165044053Y-78733607D01*
X165064501Y-79084107D01*
X165068979Y-79184500D01*
X165081408Y-79467421D01*
X165099508Y-79855181D01*
X165122196Y-80325799D01*
X165148393Y-80857294D01*
X165177016Y-81427683D01*
X165206985Y-82014986D01*
X165231424Y-82486500D01*
X165263013Y-83101258D01*
X165287915Y-83622074D01*
X165306261Y-84073086D01*
X165318181Y-84478433D01*
X165323806Y-84862254D01*
X165323267Y-85248688D01*
X165316695Y-85661872D01*
X165304219Y-86125947D01*
X165285972Y-86665051D01*
X165262084Y-87303322D01*
X165258074Y-87407750D01*
X165234050Y-88033852D01*
X165209347Y-88680408D01*
X165184912Y-89322434D01*
X165161694Y-89934948D01*
X165140638Y-90492964D01*
X165122693Y-90971500D01*
X165110006Y-91313000D01*
X165089641Y-91811682D01*
X165066501Y-92203398D01*
X165035669Y-92508163D01*
X164992227Y-92745993D01*
X164931257Y-92936903D01*
X164847840Y-93100909D01*
X164737059Y-93258026D01*
X164593996Y-93428270D01*
X164588819Y-93434170D01*
X164426917Y-93601107D01*
X164260811Y-93725248D01*
X164068514Y-93812642D01*
X163828035Y-93869339D01*
X163517386Y-93901387D01*
X163114576Y-93914837D01*
X162835543Y-93916500D01*
X162438069Y-93916668D01*
X162146188Y-93923113D01*
X161938520Y-93944744D01*
X161793687Y-93990470D01*
X161690309Y-94069199D01*
X161607006Y-94189842D01*
X161522399Y-94361307D01*
X161464099Y-94488000D01*
X161390846Y-94648555D01*
X161274375Y-94906493D01*
X161123041Y-95243138D01*
X160945197Y-95639817D01*
X160749200Y-96077854D01*
X160543402Y-96538574D01*
X160336158Y-97003303D01*
X160135824Y-97453366D01*
X159950752Y-97870089D01*
X159915879Y-97948750D01*
X159805243Y-98197244D01*
X159707387Y-98415003D01*
X159638816Y-98565363D01*
X159625396Y-98594006D01*
X159571401Y-98669297D01*
X159480805Y-98725326D01*
X159338658Y-98763669D01*
X159130008Y-98785900D01*
X158839904Y-98793596D01*
X158453397Y-98788331D01*
X157955534Y-98771682D01*
X157943665Y-98771217D01*
X157496878Y-98755122D01*
X157161104Y-98749485D01*
X156920511Y-98758519D01*
X156759264Y-98786440D01*
X156661532Y-98837462D01*
X156611480Y-98915800D01*
X156593277Y-99025667D01*
X156591000Y-99131275D01*
X156591000Y-99377500D01*
X153422958Y-99377500D01*
X153384250Y-98774250D01*
X137826750Y-98759135D01*
X136428303Y-98757907D01*
X135062465Y-98756964D01*
X133734735Y-98756299D01*
X132450610Y-98755908D01*
X131215588Y-98755783D01*
X130035168Y-98755919D01*
X128914848Y-98756311D01*
X127860125Y-98756951D01*
X126876498Y-98757834D01*
X125969465Y-98758954D01*
X125144523Y-98760306D01*
X124407172Y-98761882D01*
X123762908Y-98763678D01*
X123217231Y-98765686D01*
X122775637Y-98767902D01*
X122443626Y-98770318D01*
X122226694Y-98772930D01*
X122130341Y-98775731D01*
X122126375Y-98776220D01*
X122036326Y-98815351D01*
X121994332Y-98903722D01*
X121983525Y-99078731D01*
X121983500Y-99092959D01*
X121983500Y-99377500D01*
X118681500Y-99377500D01*
X118681500Y-99125734D01*
X118658165Y-98928741D01*
X118580564Y-98821137D01*
X118562238Y-98810141D01*
X118452748Y-98788712D01*
X118224842Y-98775374D01*
X117886856Y-98770282D01*
X117447125Y-98773590D01*
X117043519Y-98781982D01*
X115644061Y-98817650D01*
X115547176Y-98668950D01*
X115495768Y-98574219D01*
X115398671Y-98380491D01*
X115263708Y-98103947D01*
X115098701Y-97760765D01*
X114911474Y-97367125D01*
X114709849Y-96939207D01*
X114677061Y-96869250D01*
X114461476Y-96409012D01*
X114248508Y-95954506D01*
X114048453Y-95527692D01*
X113871603Y-95150526D01*
X113728254Y-94844970D01*
X113630433Y-94636667D01*
X113482968Y-94345445D01*
X113355083Y-94137031D01*
X113297099Y-94072280D01*
X113625602Y-94072280D01*
X113639699Y-94158529D01*
X113701460Y-94335141D01*
X113801724Y-94578901D01*
X113931331Y-94866594D01*
X113977800Y-94964758D01*
X114116417Y-95255378D01*
X114232934Y-95502042D01*
X114317494Y-95683697D01*
X114360240Y-95779293D01*
X114363500Y-95788508D01*
X114390298Y-95854592D01*
X114464357Y-96014907D01*
X114576175Y-96250074D01*
X114716249Y-96540717D01*
X114875075Y-96867458D01*
X115043152Y-97210918D01*
X115210977Y-97551721D01*
X115369046Y-97870489D01*
X115507857Y-98147844D01*
X115617908Y-98364408D01*
X115689695Y-98500804D01*
X115711739Y-98537793D01*
X115738457Y-98545364D01*
X115808007Y-98552463D01*
X115923874Y-98559104D01*
X116089545Y-98565298D01*
X116308508Y-98571057D01*
X116584247Y-98576394D01*
X116920250Y-98581319D01*
X117320003Y-98585847D01*
X117786992Y-98589987D01*
X118324704Y-98593754D01*
X118936626Y-98597158D01*
X119626244Y-98600212D01*
X120397043Y-98602928D01*
X121252512Y-98605317D01*
X122196136Y-98607393D01*
X123231401Y-98609167D01*
X124361795Y-98610651D01*
X125590803Y-98611857D01*
X126921912Y-98612798D01*
X128358609Y-98613486D01*
X129904380Y-98613931D01*
X131562710Y-98614148D01*
X133337088Y-98614147D01*
X135230999Y-98613941D01*
X137247930Y-98613542D01*
X137543663Y-98613471D01*
X139522187Y-98612957D01*
X141377657Y-98612407D01*
X143114022Y-98611802D01*
X144735226Y-98611120D01*
X146245219Y-98610342D01*
X147647945Y-98609447D01*
X148947353Y-98608415D01*
X150147388Y-98607225D01*
X151251999Y-98605857D01*
X152265131Y-98604290D01*
X153190732Y-98602505D01*
X154032748Y-98600481D01*
X154795127Y-98598197D01*
X155481815Y-98595634D01*
X156096759Y-98592770D01*
X156643906Y-98589585D01*
X157127202Y-98586059D01*
X157550595Y-98582172D01*
X157918032Y-98577903D01*
X158233459Y-98573232D01*
X158500823Y-98568139D01*
X158724071Y-98562603D01*
X158907150Y-98556603D01*
X159054007Y-98550120D01*
X159168589Y-98543133D01*
X159254842Y-98535621D01*
X159316713Y-98527565D01*
X159358150Y-98518943D01*
X159383099Y-98509736D01*
X159394926Y-98500677D01*
X159479792Y-98371368D01*
X159574129Y-98195774D01*
X159586008Y-98171000D01*
X159736924Y-97847981D01*
X159917339Y-97457847D01*
X160112770Y-97032296D01*
X160308737Y-96603028D01*
X160490756Y-96201741D01*
X160644346Y-95860136D01*
X160731914Y-95662750D01*
X160865681Y-95360405D01*
X161004571Y-95049948D01*
X161124922Y-94784169D01*
X161159106Y-94709694D01*
X161290218Y-94416159D01*
X161367136Y-94217011D01*
X161395239Y-94094477D01*
X161379905Y-94030780D01*
X161367652Y-94020496D01*
X161297268Y-94016095D01*
X161102264Y-94011892D01*
X160785020Y-94007892D01*
X160347916Y-94004096D01*
X159793331Y-94000508D01*
X159123647Y-93997131D01*
X158341241Y-93993968D01*
X157448495Y-93991022D01*
X156447788Y-93988296D01*
X155341501Y-93985793D01*
X154132012Y-93983516D01*
X152821703Y-93981468D01*
X151412952Y-93979653D01*
X149908140Y-93978072D01*
X148309646Y-93976729D01*
X146619851Y-93975628D01*
X144841134Y-93974770D01*
X142975876Y-93974160D01*
X141026456Y-93973800D01*
X138995253Y-93973694D01*
X136884649Y-93973843D01*
X134697022Y-93974252D01*
X132434753Y-93974923D01*
X130100222Y-93975860D01*
X127695808Y-93977065D01*
X127330427Y-93977268D01*
X125750484Y-93978256D01*
X124292868Y-93979389D01*
X122952907Y-93980700D01*
X121725929Y-93982220D01*
X120607261Y-93983983D01*
X119592230Y-93986021D01*
X118676164Y-93988366D01*
X117854390Y-93991050D01*
X117122236Y-93994106D01*
X116475029Y-93997566D01*
X115908097Y-94001463D01*
X115416768Y-94005829D01*
X114996368Y-94010697D01*
X114642225Y-94016098D01*
X114349667Y-94022066D01*
X114114021Y-94028632D01*
X113930615Y-94035829D01*
X113794777Y-94043690D01*
X113701832Y-94052247D01*
X113647110Y-94061531D01*
X113625938Y-94071577D01*
X113625602Y-94072280D01*
X113297099Y-94072280D01*
X113257008Y-94027512D01*
X113236118Y-94016707D01*
X113128826Y-94003043D01*
X112923088Y-93993418D01*
X112647415Y-93988641D01*
X112330320Y-93989521D01*
X112294725Y-93989990D01*
X111844734Y-93988493D01*
X111495200Y-93965382D01*
X111220511Y-93914417D01*
X110995059Y-93829359D01*
X110793233Y-93703969D01*
X110653841Y-93590215D01*
X110483005Y-93424040D01*
X110350306Y-93250045D01*
X110249693Y-93048218D01*
X110175113Y-92798546D01*
X110120514Y-92481017D01*
X110079845Y-92075619D01*
X110048462Y-91588359D01*
X109991510Y-90538219D01*
X109941694Y-89604175D01*
X109898806Y-88775538D01*
X109862638Y-88041616D01*
X109832984Y-87391719D01*
X109809634Y-86815156D01*
X109804755Y-86669800D01*
X110473602Y-86669800D01*
X110474117Y-87248431D01*
X110475395Y-87858052D01*
X110477382Y-88485004D01*
X110480024Y-89115625D01*
X110483266Y-89736257D01*
X110487055Y-90333241D01*
X110491336Y-90892915D01*
X110496055Y-91401621D01*
X110501158Y-91845698D01*
X110506590Y-92211487D01*
X110512298Y-92485328D01*
X110518226Y-92653562D01*
X110521660Y-92696804D01*
X110612209Y-92963204D01*
X110785835Y-93226671D01*
X111007382Y-93437903D01*
X111086083Y-93488341D01*
X111224841Y-93537026D01*
X111433179Y-93579607D01*
X111569500Y-93597040D01*
X111656878Y-93599351D01*
X111866971Y-93601535D01*
X112195494Y-93603590D01*
X112638162Y-93605512D01*
X113190689Y-93607300D01*
X113848790Y-93608951D01*
X114608180Y-93610462D01*
X115464574Y-93611830D01*
X116413688Y-93613053D01*
X117451234Y-93614128D01*
X118572930Y-93615053D01*
X119774489Y-93615826D01*
X121051626Y-93616442D01*
X122400056Y-93616901D01*
X123815495Y-93617199D01*
X125293656Y-93617334D01*
X126830255Y-93617302D01*
X128421007Y-93617103D01*
X130061626Y-93616732D01*
X131747828Y-93616187D01*
X133475326Y-93615467D01*
X135239837Y-93614567D01*
X137037075Y-93613486D01*
X137822967Y-93612962D01*
X163727184Y-93595174D01*
X163979291Y-93454212D01*
X164181128Y-93311568D01*
X164377325Y-93127511D01*
X164426213Y-93070911D01*
X164526335Y-92932091D01*
X164590170Y-92793370D01*
X164629866Y-92614894D01*
X164657570Y-92356812D01*
X164662445Y-92295938D01*
X164670418Y-92127169D01*
X164677673Y-91842609D01*
X164684209Y-91453466D01*
X164690024Y-90970947D01*
X164695115Y-90406259D01*
X164699480Y-89770610D01*
X164703117Y-89075207D01*
X164706025Y-88331258D01*
X164708201Y-87549970D01*
X164709643Y-86742549D01*
X164710348Y-85920205D01*
X164710316Y-85094143D01*
X164709544Y-84275571D01*
X164708029Y-83475697D01*
X164705770Y-82705728D01*
X164702765Y-81976871D01*
X164699011Y-81300334D01*
X164694506Y-80687324D01*
X164689249Y-80149049D01*
X164683238Y-79696715D01*
X164676469Y-79341530D01*
X164668942Y-79094701D01*
X164664903Y-79015573D01*
X164639244Y-78659635D01*
X164612258Y-78402151D01*
X164578319Y-78214647D01*
X164531795Y-78068649D01*
X164467059Y-77935683D01*
X164443185Y-77893974D01*
X164293233Y-77690990D01*
X164110623Y-77512784D01*
X164036936Y-77459651D01*
X163798250Y-77311250D01*
X137668000Y-77294017D01*
X135479943Y-77292518D01*
X133415281Y-77291022D01*
X131470410Y-77289576D01*
X129641726Y-77288227D01*
X127925623Y-77287024D01*
X126318498Y-77286012D01*
X124816745Y-77285239D01*
X123416760Y-77284752D01*
X122114938Y-77284600D01*
X120907675Y-77284828D01*
X119791367Y-77285485D01*
X118762408Y-77286618D01*
X117817195Y-77288273D01*
X116952122Y-77290499D01*
X116163585Y-77293342D01*
X115447979Y-77296850D01*
X114801700Y-77301070D01*
X114221144Y-77306049D01*
X113702705Y-77311834D01*
X113242779Y-77318474D01*
X112837762Y-77326015D01*
X112484049Y-77334504D01*
X112178036Y-77343989D01*
X111916117Y-77354517D01*
X111694688Y-77366135D01*
X111510146Y-77378891D01*
X111358884Y-77392832D01*
X111237299Y-77408005D01*
X111141786Y-77424457D01*
X111068740Y-77442236D01*
X111014558Y-77461389D01*
X110975633Y-77481963D01*
X110948362Y-77504006D01*
X110929141Y-77527565D01*
X110914364Y-77552687D01*
X110900427Y-77579419D01*
X110883725Y-77607808D01*
X110860654Y-77637903D01*
X110853418Y-77645752D01*
X110769654Y-77736148D01*
X110700397Y-77824651D01*
X110644219Y-77923800D01*
X110599687Y-78046134D01*
X110565373Y-78204194D01*
X110539845Y-78410519D01*
X110521673Y-78677649D01*
X110509427Y-79018124D01*
X110501676Y-79444483D01*
X110496990Y-79969266D01*
X110493938Y-80605013D01*
X110493185Y-80803750D01*
X110491228Y-81366906D01*
X110489642Y-81896230D01*
X110488452Y-82376902D01*
X110487685Y-82794103D01*
X110487366Y-83133016D01*
X110487520Y-83378820D01*
X110488173Y-83516697D01*
X110488456Y-83534250D01*
X110497785Y-83994477D01*
X110499986Y-84331050D01*
X110495061Y-84547118D01*
X110489576Y-84613750D01*
X110484373Y-84719586D01*
X110480259Y-84938371D01*
X110477178Y-85256444D01*
X110475078Y-85660147D01*
X110473904Y-86135819D01*
X110473602Y-86669800D01*
X109804755Y-86669800D01*
X109792381Y-86301237D01*
X109781018Y-85839270D01*
X109775337Y-85418565D01*
X109775130Y-85028432D01*
X109780190Y-84658179D01*
X109790309Y-84297117D01*
X109805279Y-83934554D01*
X109824893Y-83559799D01*
X109848942Y-83162162D01*
X109876579Y-82740500D01*
X109913525Y-82177844D01*
X109953158Y-81553481D01*
X109992828Y-80910559D01*
X110029888Y-80292229D01*
X110061687Y-79741639D01*
X110071493Y-79565500D01*
X110101766Y-79043638D01*
X110131749Y-78630423D01*
X110166171Y-78307601D01*
X110209762Y-78056920D01*
X110267251Y-77860124D01*
X110343369Y-77698961D01*
X110442844Y-77555177D01*
X110570408Y-77410518D01*
X110651603Y-77326663D01*
X110681451Y-77292173D01*
X110703574Y-77259623D01*
X110721574Y-77228957D01*
X110739052Y-77200119D01*
X110759612Y-77173051D01*
X110786853Y-77147699D01*
X110824380Y-77124005D01*
X110875793Y-77101914D01*
X110944694Y-77081370D01*
X111034687Y-77062315D01*
X111149372Y-77044695D01*
X111292352Y-77028452D01*
X111467228Y-77013530D01*
X111677603Y-76999874D01*
X111927079Y-76987427D01*
X112219258Y-76976133D01*
X112557741Y-76965935D01*
X112946131Y-76956778D01*
X113388030Y-76948604D01*
X113887040Y-76941359D01*
X114446762Y-76934986D01*
X115070800Y-76929428D01*
X115762754Y-76924629D01*
X116526226Y-76920533D01*
X117364820Y-76917084D01*
X118282136Y-76914226D01*
X119281777Y-76911902D01*
X120367345Y-76910057D01*
X121542442Y-76908633D01*
X122810670Y-76907575D01*
X124175631Y-76906827D01*
X125640926Y-76906332D01*
X127210158Y-76906034D01*
X128886929Y-76905877D01*
X130674841Y-76905804D01*
X132577496Y-76905760D01*
X134598496Y-76905688D01*
X136741443Y-76905532D01*
X137639948Y-76905433D01*
X163742146Y-76902220D01*
X164124104Y-77082858D01*
G37*
X164124104Y-77082858D02*
X164499941Y-77315656D01*
X164778706Y-77607629D01*
X164948234Y-77945479D01*
X164963829Y-78000623D01*
X164990905Y-78160207D01*
X165018583Y-78415088D01*
X165044053Y-78733607D01*
X165064501Y-79084107D01*
X165068979Y-79184500D01*
X165081408Y-79467421D01*
X165099508Y-79855181D01*
X165122196Y-80325799D01*
X165148393Y-80857294D01*
X165177016Y-81427683D01*
X165206985Y-82014986D01*
X165231424Y-82486500D01*
X165263013Y-83101258D01*
X165287915Y-83622074D01*
X165306261Y-84073086D01*
X165318181Y-84478433D01*
X165323806Y-84862254D01*
X165323267Y-85248688D01*
X165316695Y-85661872D01*
X165304219Y-86125947D01*
X165285972Y-86665051D01*
X165262084Y-87303322D01*
X165258074Y-87407750D01*
X165234050Y-88033852D01*
X165209347Y-88680408D01*
X165184912Y-89322434D01*
X165161694Y-89934948D01*
X165140638Y-90492964D01*
X165122693Y-90971500D01*
X165110006Y-91313000D01*
X165089641Y-91811682D01*
X165066501Y-92203398D01*
X165035669Y-92508163D01*
X164992227Y-92745993D01*
X164931257Y-92936903D01*
X164847840Y-93100909D01*
X164737059Y-93258026D01*
X164593996Y-93428270D01*
X164588819Y-93434170D01*
X164426917Y-93601107D01*
X164260811Y-93725248D01*
X164068514Y-93812642D01*
X163828035Y-93869339D01*
X163517386Y-93901387D01*
X163114576Y-93914837D01*
X162835543Y-93916500D01*
X162438069Y-93916668D01*
X162146188Y-93923113D01*
X161938520Y-93944744D01*
X161793687Y-93990470D01*
X161690309Y-94069199D01*
X161607006Y-94189842D01*
X161522399Y-94361307D01*
X161464099Y-94488000D01*
X161390846Y-94648555D01*
X161274375Y-94906493D01*
X161123041Y-95243138D01*
X160945197Y-95639817D01*
X160749200Y-96077854D01*
X160543402Y-96538574D01*
X160336158Y-97003303D01*
X160135824Y-97453366D01*
X159950752Y-97870089D01*
X159915879Y-97948750D01*
X159805243Y-98197244D01*
X159707387Y-98415003D01*
X159638816Y-98565363D01*
X159625396Y-98594006D01*
X159571401Y-98669297D01*
X159480805Y-98725326D01*
X159338658Y-98763669D01*
X159130008Y-98785900D01*
X158839904Y-98793596D01*
X158453397Y-98788331D01*
X157955534Y-98771682D01*
X157943665Y-98771217D01*
X157496878Y-98755122D01*
X157161104Y-98749485D01*
X156920511Y-98758519D01*
X156759264Y-98786440D01*
X156661532Y-98837462D01*
X156611480Y-98915800D01*
X156593277Y-99025667D01*
X156591000Y-99131275D01*
X156591000Y-99377500D01*
X153422958Y-99377500D01*
X153384250Y-98774250D01*
X137826750Y-98759135D01*
X136428303Y-98757907D01*
X135062465Y-98756964D01*
X133734735Y-98756299D01*
X132450610Y-98755908D01*
X131215588Y-98755783D01*
X130035168Y-98755919D01*
X128914848Y-98756311D01*
X127860125Y-98756951D01*
X126876498Y-98757834D01*
X125969465Y-98758954D01*
X125144523Y-98760306D01*
X124407172Y-98761882D01*
X123762908Y-98763678D01*
X123217231Y-98765686D01*
X122775637Y-98767902D01*
X122443626Y-98770318D01*
X122226694Y-98772930D01*
X122130341Y-98775731D01*
X122126375Y-98776220D01*
X122036326Y-98815351D01*
X121994332Y-98903722D01*
X121983525Y-99078731D01*
X121983500Y-99092959D01*
X121983500Y-99377500D01*
X118681500Y-99377500D01*
X118681500Y-99125734D01*
X118658165Y-98928741D01*
X118580564Y-98821137D01*
X118562238Y-98810141D01*
X118452748Y-98788712D01*
X118224842Y-98775374D01*
X117886856Y-98770282D01*
X117447125Y-98773590D01*
X117043519Y-98781982D01*
X115644061Y-98817650D01*
X115547176Y-98668950D01*
X115495768Y-98574219D01*
X115398671Y-98380491D01*
X115263708Y-98103947D01*
X115098701Y-97760765D01*
X114911474Y-97367125D01*
X114709849Y-96939207D01*
X114677061Y-96869250D01*
X114461476Y-96409012D01*
X114248508Y-95954506D01*
X114048453Y-95527692D01*
X113871603Y-95150526D01*
X113728254Y-94844970D01*
X113630433Y-94636667D01*
X113482968Y-94345445D01*
X113355083Y-94137031D01*
X113297099Y-94072280D01*
X113625602Y-94072280D01*
X113639699Y-94158529D01*
X113701460Y-94335141D01*
X113801724Y-94578901D01*
X113931331Y-94866594D01*
X113977800Y-94964758D01*
X114116417Y-95255378D01*
X114232934Y-95502042D01*
X114317494Y-95683697D01*
X114360240Y-95779293D01*
X114363500Y-95788508D01*
X114390298Y-95854592D01*
X114464357Y-96014907D01*
X114576175Y-96250074D01*
X114716249Y-96540717D01*
X114875075Y-96867458D01*
X115043152Y-97210918D01*
X115210977Y-97551721D01*
X115369046Y-97870489D01*
X115507857Y-98147844D01*
X115617908Y-98364408D01*
X115689695Y-98500804D01*
X115711739Y-98537793D01*
X115738457Y-98545364D01*
X115808007Y-98552463D01*
X115923874Y-98559104D01*
X116089545Y-98565298D01*
X116308508Y-98571057D01*
X116584247Y-98576394D01*
X116920250Y-98581319D01*
X117320003Y-98585847D01*
X117786992Y-98589987D01*
X118324704Y-98593754D01*
X118936626Y-98597158D01*
X119626244Y-98600212D01*
X120397043Y-98602928D01*
X121252512Y-98605317D01*
X122196136Y-98607393D01*
X123231401Y-98609167D01*
X124361795Y-98610651D01*
X125590803Y-98611857D01*
X126921912Y-98612798D01*
X128358609Y-98613486D01*
X129904380Y-98613931D01*
X131562710Y-98614148D01*
X133337088Y-98614147D01*
X135230999Y-98613941D01*
X137247930Y-98613542D01*
X137543663Y-98613471D01*
X139522187Y-98612957D01*
X141377657Y-98612407D01*
X143114022Y-98611802D01*
X144735226Y-98611120D01*
X146245219Y-98610342D01*
X147647945Y-98609447D01*
X148947353Y-98608415D01*
X150147388Y-98607225D01*
X151251999Y-98605857D01*
X152265131Y-98604290D01*
X153190732Y-98602505D01*
X154032748Y-98600481D01*
X154795127Y-98598197D01*
X155481815Y-98595634D01*
X156096759Y-98592770D01*
X156643906Y-98589585D01*
X157127202Y-98586059D01*
X157550595Y-98582172D01*
X157918032Y-98577903D01*
X158233459Y-98573232D01*
X158500823Y-98568139D01*
X158724071Y-98562603D01*
X158907150Y-98556603D01*
X159054007Y-98550120D01*
X159168589Y-98543133D01*
X159254842Y-98535621D01*
X159316713Y-98527565D01*
X159358150Y-98518943D01*
X159383099Y-98509736D01*
X159394926Y-98500677D01*
X159479792Y-98371368D01*
X159574129Y-98195774D01*
X159586008Y-98171000D01*
X159736924Y-97847981D01*
X159917339Y-97457847D01*
X160112770Y-97032296D01*
X160308737Y-96603028D01*
X160490756Y-96201741D01*
X160644346Y-95860136D01*
X160731914Y-95662750D01*
X160865681Y-95360405D01*
X161004571Y-95049948D01*
X161124922Y-94784169D01*
X161159106Y-94709694D01*
X161290218Y-94416159D01*
X161367136Y-94217011D01*
X161395239Y-94094477D01*
X161379905Y-94030780D01*
X161367652Y-94020496D01*
X161297268Y-94016095D01*
X161102264Y-94011892D01*
X160785020Y-94007892D01*
X160347916Y-94004096D01*
X159793331Y-94000508D01*
X159123647Y-93997131D01*
X158341241Y-93993968D01*
X157448495Y-93991022D01*
X156447788Y-93988296D01*
X155341501Y-93985793D01*
X154132012Y-93983516D01*
X152821703Y-93981468D01*
X151412952Y-93979653D01*
X149908140Y-93978072D01*
X148309646Y-93976729D01*
X146619851Y-93975628D01*
X144841134Y-93974770D01*
X142975876Y-93974160D01*
X141026456Y-93973800D01*
X138995253Y-93973694D01*
X136884649Y-93973843D01*
X134697022Y-93974252D01*
X132434753Y-93974923D01*
X130100222Y-93975860D01*
X127695808Y-93977065D01*
X127330427Y-93977268D01*
X125750484Y-93978256D01*
X124292868Y-93979389D01*
X122952907Y-93980700D01*
X121725929Y-93982220D01*
X120607261Y-93983983D01*
X119592230Y-93986021D01*
X118676164Y-93988366D01*
X117854390Y-93991050D01*
X117122236Y-93994106D01*
X116475029Y-93997566D01*
X115908097Y-94001463D01*
X115416768Y-94005829D01*
X114996368Y-94010697D01*
X114642225Y-94016098D01*
X114349667Y-94022066D01*
X114114021Y-94028632D01*
X113930615Y-94035829D01*
X113794777Y-94043690D01*
X113701832Y-94052247D01*
X113647110Y-94061531D01*
X113625938Y-94071577D01*
X113625602Y-94072280D01*
X113297099Y-94072280D01*
X113257008Y-94027512D01*
X113236118Y-94016707D01*
X113128826Y-94003043D01*
X112923088Y-93993418D01*
X112647415Y-93988641D01*
X112330320Y-93989521D01*
X112294725Y-93989990D01*
X111844734Y-93988493D01*
X111495200Y-93965382D01*
X111220511Y-93914417D01*
X110995059Y-93829359D01*
X110793233Y-93703969D01*
X110653841Y-93590215D01*
X110483005Y-93424040D01*
X110350306Y-93250045D01*
X110249693Y-93048218D01*
X110175113Y-92798546D01*
X110120514Y-92481017D01*
X110079845Y-92075619D01*
X110048462Y-91588359D01*
X109991510Y-90538219D01*
X109941694Y-89604175D01*
X109898806Y-88775538D01*
X109862638Y-88041616D01*
X109832984Y-87391719D01*
X109809634Y-86815156D01*
X109804755Y-86669800D01*
X110473602Y-86669800D01*
X110474117Y-87248431D01*
X110475395Y-87858052D01*
X110477382Y-88485004D01*
X110480024Y-89115625D01*
X110483266Y-89736257D01*
X110487055Y-90333241D01*
X110491336Y-90892915D01*
X110496055Y-91401621D01*
X110501158Y-91845698D01*
X110506590Y-92211487D01*
X110512298Y-92485328D01*
X110518226Y-92653562D01*
X110521660Y-92696804D01*
X110612209Y-92963204D01*
X110785835Y-93226671D01*
X111007382Y-93437903D01*
X111086083Y-93488341D01*
X111224841Y-93537026D01*
X111433179Y-93579607D01*
X111569500Y-93597040D01*
X111656878Y-93599351D01*
X111866971Y-93601535D01*
X112195494Y-93603590D01*
X112638162Y-93605512D01*
X113190689Y-93607300D01*
X113848790Y-93608951D01*
X114608180Y-93610462D01*
X115464574Y-93611830D01*
X116413688Y-93613053D01*
X117451234Y-93614128D01*
X118572930Y-93615053D01*
X119774489Y-93615826D01*
X121051626Y-93616442D01*
X122400056Y-93616901D01*
X123815495Y-93617199D01*
X125293656Y-93617334D01*
X126830255Y-93617302D01*
X128421007Y-93617103D01*
X130061626Y-93616732D01*
X131747828Y-93616187D01*
X133475326Y-93615467D01*
X135239837Y-93614567D01*
X137037075Y-93613486D01*
X137822967Y-93612962D01*
X163727184Y-93595174D01*
X163979291Y-93454212D01*
X164181128Y-93311568D01*
X164377325Y-93127511D01*
X164426213Y-93070911D01*
X164526335Y-92932091D01*
X164590170Y-92793370D01*
X164629866Y-92614894D01*
X164657570Y-92356812D01*
X164662445Y-92295938D01*
X164670418Y-92127169D01*
X164677673Y-91842609D01*
X164684209Y-91453466D01*
X164690024Y-90970947D01*
X164695115Y-90406259D01*
X164699480Y-89770610D01*
X164703117Y-89075207D01*
X164706025Y-88331258D01*
X164708201Y-87549970D01*
X164709643Y-86742549D01*
X164710348Y-85920205D01*
X164710316Y-85094143D01*
X164709544Y-84275571D01*
X164708029Y-83475697D01*
X164705770Y-82705728D01*
X164702765Y-81976871D01*
X164699011Y-81300334D01*
X164694506Y-80687324D01*
X164689249Y-80149049D01*
X164683238Y-79696715D01*
X164676469Y-79341530D01*
X164668942Y-79094701D01*
X164664903Y-79015573D01*
X164639244Y-78659635D01*
X164612258Y-78402151D01*
X164578319Y-78214647D01*
X164531795Y-78068649D01*
X164467059Y-77935683D01*
X164443185Y-77893974D01*
X164293233Y-77690990D01*
X164110623Y-77512784D01*
X164036936Y-77459651D01*
X163798250Y-77311250D01*
X137668000Y-77294017D01*
X135479943Y-77292518D01*
X133415281Y-77291022D01*
X131470410Y-77289576D01*
X129641726Y-77288227D01*
X127925623Y-77287024D01*
X126318498Y-77286012D01*
X124816745Y-77285239D01*
X123416760Y-77284752D01*
X122114938Y-77284600D01*
X120907675Y-77284828D01*
X119791367Y-77285485D01*
X118762408Y-77286618D01*
X117817195Y-77288273D01*
X116952122Y-77290499D01*
X116163585Y-77293342D01*
X115447979Y-77296850D01*
X114801700Y-77301070D01*
X114221144Y-77306049D01*
X113702705Y-77311834D01*
X113242779Y-77318474D01*
X112837762Y-77326015D01*
X112484049Y-77334504D01*
X112178036Y-77343989D01*
X111916117Y-77354517D01*
X111694688Y-77366135D01*
X111510146Y-77378891D01*
X111358884Y-77392832D01*
X111237299Y-77408005D01*
X111141786Y-77424457D01*
X111068740Y-77442236D01*
X111014558Y-77461389D01*
X110975633Y-77481963D01*
X110948362Y-77504006D01*
X110929141Y-77527565D01*
X110914364Y-77552687D01*
X110900427Y-77579419D01*
X110883725Y-77607808D01*
X110860654Y-77637903D01*
X110853418Y-77645752D01*
X110769654Y-77736148D01*
X110700397Y-77824651D01*
X110644219Y-77923800D01*
X110599687Y-78046134D01*
X110565373Y-78204194D01*
X110539845Y-78410519D01*
X110521673Y-78677649D01*
X110509427Y-79018124D01*
X110501676Y-79444483D01*
X110496990Y-79969266D01*
X110493938Y-80605013D01*
X110493185Y-80803750D01*
X110491228Y-81366906D01*
X110489642Y-81896230D01*
X110488452Y-82376902D01*
X110487685Y-82794103D01*
X110487366Y-83133016D01*
X110487520Y-83378820D01*
X110488173Y-83516697D01*
X110488456Y-83534250D01*
X110497785Y-83994477D01*
X110499986Y-84331050D01*
X110495061Y-84547118D01*
X110489576Y-84613750D01*
X110484373Y-84719586D01*
X110480259Y-84938371D01*
X110477178Y-85256444D01*
X110475078Y-85660147D01*
X110473904Y-86135819D01*
X110473602Y-86669800D01*
X109804755Y-86669800D01*
X109792381Y-86301237D01*
X109781018Y-85839270D01*
X109775337Y-85418565D01*
X109775130Y-85028432D01*
X109780190Y-84658179D01*
X109790309Y-84297117D01*
X109805279Y-83934554D01*
X109824893Y-83559799D01*
X109848942Y-83162162D01*
X109876579Y-82740500D01*
X109913525Y-82177844D01*
X109953158Y-81553481D01*
X109992828Y-80910559D01*
X110029888Y-80292229D01*
X110061687Y-79741639D01*
X110071493Y-79565500D01*
X110101766Y-79043638D01*
X110131749Y-78630423D01*
X110166171Y-78307601D01*
X110209762Y-78056920D01*
X110267251Y-77860124D01*
X110343369Y-77698961D01*
X110442844Y-77555177D01*
X110570408Y-77410518D01*
X110651603Y-77326663D01*
X110681451Y-77292173D01*
X110703574Y-77259623D01*
X110721574Y-77228957D01*
X110739052Y-77200119D01*
X110759612Y-77173051D01*
X110786853Y-77147699D01*
X110824380Y-77124005D01*
X110875793Y-77101914D01*
X110944694Y-77081370D01*
X111034687Y-77062315D01*
X111149372Y-77044695D01*
X111292352Y-77028452D01*
X111467228Y-77013530D01*
X111677603Y-76999874D01*
X111927079Y-76987427D01*
X112219258Y-76976133D01*
X112557741Y-76965935D01*
X112946131Y-76956778D01*
X113388030Y-76948604D01*
X113887040Y-76941359D01*
X114446762Y-76934986D01*
X115070800Y-76929428D01*
X115762754Y-76924629D01*
X116526226Y-76920533D01*
X117364820Y-76917084D01*
X118282136Y-76914226D01*
X119281777Y-76911902D01*
X120367345Y-76910057D01*
X121542442Y-76908633D01*
X122810670Y-76907575D01*
X124175631Y-76906827D01*
X125640926Y-76906332D01*
X127210158Y-76906034D01*
X128886929Y-76905877D01*
X130674841Y-76905804D01*
X132577496Y-76905760D01*
X134598496Y-76905688D01*
X136741443Y-76905532D01*
X137639948Y-76905433D01*
X163742146Y-76902220D01*
X164124104Y-77082858D01*
G36*
X155003500Y-91186000D02*
G01*
X153924000Y-91186000D01*
X153924000Y-86931500D01*
X155003500Y-86931500D01*
X155003500Y-91186000D01*
G37*
X155003500Y-91186000D02*
X153924000Y-91186000D01*
X153924000Y-86931500D01*
X155003500Y-86931500D01*
X155003500Y-91186000D01*
G36*
X156527500Y-91186000D02*
G01*
X155448000Y-91186000D01*
X155448000Y-86931500D01*
X156527500Y-86931500D01*
X156527500Y-91186000D01*
G37*
X156527500Y-91186000D02*
X155448000Y-91186000D01*
X155448000Y-86931500D01*
X156527500Y-86931500D01*
X156527500Y-91186000D01*
G36*
X154876500Y-80962500D02*
G01*
X153606500Y-80962500D01*
X153606500Y-81728302D01*
X153792039Y-81591126D01*
X153929108Y-81509775D01*
X154080545Y-81476337D01*
X154297739Y-81480660D01*
X154335912Y-81483666D01*
X154610576Y-81527607D01*
X154806260Y-81619555D01*
X154939648Y-81779237D01*
X155027425Y-82026378D01*
X155084879Y-82369196D01*
X155115787Y-82762376D01*
X155117520Y-83164608D01*
X155092549Y-83545320D01*
X155043344Y-83873940D01*
X154972373Y-84119898D01*
X154937824Y-84189311D01*
X154794685Y-84357266D01*
X154614502Y-84490854D01*
X154609939Y-84493245D01*
X154395825Y-84564101D01*
X154107278Y-84608900D01*
X153794817Y-84624291D01*
X153508962Y-84606927D01*
X153360095Y-84576105D01*
X153066815Y-84455782D01*
X152857972Y-84288666D01*
X152719529Y-84053999D01*
X152637447Y-83731021D01*
X152607628Y-83463352D01*
X152572169Y-82994500D01*
X153606500Y-82994500D01*
X153606500Y-83339616D01*
X153626954Y-83674079D01*
X153689018Y-83890762D01*
X153793743Y-83992232D01*
X153876477Y-83999028D01*
X153932682Y-83986245D01*
X153972291Y-83953286D01*
X153998764Y-83880262D01*
X154015560Y-83747281D01*
X154026140Y-83534453D01*
X154033962Y-83221888D01*
X154036849Y-83077031D01*
X154042654Y-82720316D01*
X154042272Y-82469668D01*
X154033400Y-82304210D01*
X154013738Y-82203070D01*
X153980986Y-82145373D01*
X153932843Y-82110244D01*
X153930134Y-82108782D01*
X153791208Y-82094760D01*
X153668423Y-82172676D01*
X153607494Y-82310961D01*
X153606500Y-82332285D01*
X153579060Y-82378957D01*
X153482669Y-82407121D01*
X153296219Y-82420476D01*
X153088850Y-82423000D01*
X152571200Y-82423000D01*
X152612600Y-81746371D01*
X152630494Y-81417228D01*
X152644497Y-81089844D01*
X152652679Y-80813052D01*
X152654000Y-80698621D01*
X152654000Y-80327500D01*
X154876500Y-80327500D01*
X154876500Y-80962500D01*
G37*
X154876500Y-80962500D02*
X153606500Y-80962500D01*
X153606500Y-81728302D01*
X153792039Y-81591126D01*
X153929108Y-81509775D01*
X154080545Y-81476337D01*
X154297739Y-81480660D01*
X154335912Y-81483666D01*
X154610576Y-81527607D01*
X154806260Y-81619555D01*
X154939648Y-81779237D01*
X155027425Y-82026378D01*
X155084879Y-82369196D01*
X155115787Y-82762376D01*
X155117520Y-83164608D01*
X155092549Y-83545320D01*
X155043344Y-83873940D01*
X154972373Y-84119898D01*
X154937824Y-84189311D01*
X154794685Y-84357266D01*
X154614502Y-84490854D01*
X154609939Y-84493245D01*
X154395825Y-84564101D01*
X154107278Y-84608900D01*
X153794817Y-84624291D01*
X153508962Y-84606927D01*
X153360095Y-84576105D01*
X153066815Y-84455782D01*
X152857972Y-84288666D01*
X152719529Y-84053999D01*
X152637447Y-83731021D01*
X152607628Y-83463352D01*
X152572169Y-82994500D01*
X153606500Y-82994500D01*
X153606500Y-83339616D01*
X153626954Y-83674079D01*
X153689018Y-83890762D01*
X153793743Y-83992232D01*
X153876477Y-83999028D01*
X153932682Y-83986245D01*
X153972291Y-83953286D01*
X153998764Y-83880262D01*
X154015560Y-83747281D01*
X154026140Y-83534453D01*
X154033962Y-83221888D01*
X154036849Y-83077031D01*
X154042654Y-82720316D01*
X154042272Y-82469668D01*
X154033400Y-82304210D01*
X154013738Y-82203070D01*
X153980986Y-82145373D01*
X153932843Y-82110244D01*
X153930134Y-82108782D01*
X153791208Y-82094760D01*
X153668423Y-82172676D01*
X153607494Y-82310961D01*
X153606500Y-82332285D01*
X153579060Y-82378957D01*
X153482669Y-82407121D01*
X153296219Y-82420476D01*
X153088850Y-82423000D01*
X152571200Y-82423000D01*
X152612600Y-81746371D01*
X152630494Y-81417228D01*
X152644497Y-81089844D01*
X152652679Y-80813052D01*
X152654000Y-80698621D01*
X152654000Y-80327500D01*
X154876500Y-80327500D01*
X154876500Y-80962500D01*
G36*
X152209500Y-80327500D02*
G01*
X152209500Y-84582000D01*
X151130000Y-84582000D01*
X151129027Y-83137375D01*
X151126427Y-82718054D01*
X151119675Y-82338917D01*
X151109472Y-82019234D01*
X151096519Y-81778273D01*
X151081515Y-81635306D01*
X151073381Y-81606460D01*
X150981565Y-81548257D01*
X150812381Y-81500539D01*
X150721785Y-81486702D01*
X150542582Y-81461977D01*
X150458228Y-81422050D01*
X150437302Y-81338121D01*
X150444056Y-81232132D01*
X150466623Y-81098849D01*
X150526633Y-81012724D01*
X150656187Y-80941713D01*
X150785555Y-80891206D01*
X151034951Y-80772511D01*
X151284446Y-80614330D01*
X151367149Y-80549441D01*
X151552624Y-80409709D01*
X151717523Y-80343806D01*
X151917969Y-80327499D01*
X152209500Y-80327500D01*
G37*
X152209500Y-80327500D02*
X152209500Y-84582000D01*
X151130000Y-84582000D01*
X151129027Y-83137375D01*
X151126427Y-82718054D01*
X151119675Y-82338917D01*
X151109472Y-82019234D01*
X151096519Y-81778273D01*
X151081515Y-81635306D01*
X151073381Y-81606460D01*
X150981565Y-81548257D01*
X150812381Y-81500539D01*
X150721785Y-81486702D01*
X150542582Y-81461977D01*
X150458228Y-81422050D01*
X150437302Y-81338121D01*
X150444056Y-81232132D01*
X150466623Y-81098849D01*
X150526633Y-81012724D01*
X150656187Y-80941713D01*
X150785555Y-80891206D01*
X151034951Y-80772511D01*
X151284446Y-80614330D01*
X151367149Y-80549441D01*
X151552624Y-80409709D01*
X151717523Y-80343806D01*
X151917969Y-80327499D01*
X152209500Y-80327500D01*
G36*
X157670500Y-83121500D02*
G01*
X157829250Y-83121500D01*
X157920169Y-83130565D01*
X157967510Y-83178482D01*
X157985399Y-83296327D01*
X157988000Y-83470750D01*
X157983879Y-83670772D01*
X157962098Y-83774922D01*
X157908532Y-83814278D01*
X157829250Y-83820000D01*
X157741268Y-83828067D01*
X157693767Y-83872149D01*
X157674321Y-83982068D01*
X157670503Y-84187645D01*
X157670500Y-84201000D01*
X157670500Y-84582000D01*
X156654500Y-84582000D01*
X156654500Y-83820000D01*
X155384500Y-83820000D01*
X155384500Y-83438503D01*
X155393195Y-83278659D01*
X155422373Y-83089529D01*
X155423175Y-83086035D01*
X156146500Y-83086035D01*
X156202890Y-83108253D01*
X156343742Y-83120601D01*
X156400500Y-83121500D01*
X156654500Y-83121500D01*
X156652569Y-82216625D01*
X156648135Y-81852549D01*
X156636980Y-81590600D01*
X156619685Y-81438684D01*
X156596829Y-81404706D01*
X156593370Y-81409549D01*
X156561641Y-81496626D01*
X156507284Y-81677377D01*
X156438188Y-81922198D01*
X156362246Y-82201486D01*
X156287348Y-82485635D01*
X156221386Y-82745041D01*
X156172251Y-82950102D01*
X156147833Y-83071211D01*
X156146500Y-83086035D01*
X155423175Y-83086035D01*
X155476672Y-82853016D01*
X155560729Y-82551024D01*
X155679184Y-82165458D01*
X155832070Y-81692253D01*
X156279641Y-80327500D01*
X157670500Y-80327500D01*
X157670500Y-83121500D01*
G37*
X157670500Y-83121500D02*
X157829250Y-83121500D01*
X157920169Y-83130565D01*
X157967510Y-83178482D01*
X157985399Y-83296327D01*
X157988000Y-83470750D01*
X157983879Y-83670772D01*
X157962098Y-83774922D01*
X157908532Y-83814278D01*
X157829250Y-83820000D01*
X157741268Y-83828067D01*
X157693767Y-83872149D01*
X157674321Y-83982068D01*
X157670503Y-84187645D01*
X157670500Y-84201000D01*
X157670500Y-84582000D01*
X156654500Y-84582000D01*
X156654500Y-83820000D01*
X155384500Y-83820000D01*
X155384500Y-83438503D01*
X155393195Y-83278659D01*
X155422373Y-83089529D01*
X155423175Y-83086035D01*
X156146500Y-83086035D01*
X156202890Y-83108253D01*
X156343742Y-83120601D01*
X156400500Y-83121500D01*
X156654500Y-83121500D01*
X156652569Y-82216625D01*
X156648135Y-81852549D01*
X156636980Y-81590600D01*
X156619685Y-81438684D01*
X156596829Y-81404706D01*
X156593370Y-81409549D01*
X156561641Y-81496626D01*
X156507284Y-81677377D01*
X156438188Y-81922198D01*
X156362246Y-82201486D01*
X156287348Y-82485635D01*
X156221386Y-82745041D01*
X156172251Y-82950102D01*
X156147833Y-83071211D01*
X156146500Y-83086035D01*
X155423175Y-83086035D01*
X155476672Y-82853016D01*
X155560729Y-82551024D01*
X155679184Y-82165458D01*
X155832070Y-81692253D01*
X156279641Y-80327500D01*
X157670500Y-80327500D01*
X157670500Y-83121500D01*
G36*
X159766000Y-80327500D02*
G01*
X159766000Y-84582000D01*
X158686500Y-84582000D01*
X158685527Y-83137375D01*
X158682927Y-82718054D01*
X158676175Y-82338917D01*
X158665972Y-82019234D01*
X158653019Y-81778273D01*
X158638015Y-81635306D01*
X158629881Y-81606460D01*
X158538065Y-81548257D01*
X158368881Y-81500539D01*
X158278285Y-81486702D01*
X158099082Y-81461977D01*
X158014728Y-81422050D01*
X157993802Y-81338121D01*
X158000556Y-81232132D01*
X158023123Y-81098849D01*
X158083133Y-81012724D01*
X158212687Y-80941713D01*
X158342055Y-80891206D01*
X158591451Y-80772511D01*
X158840946Y-80614330D01*
X158923649Y-80549441D01*
X159109124Y-80409709D01*
X159274023Y-80343806D01*
X159474469Y-80327499D01*
X159766000Y-80327500D01*
G37*
X159766000Y-80327500D02*
X159766000Y-84582000D01*
X158686500Y-84582000D01*
X158685527Y-83137375D01*
X158682927Y-82718054D01*
X158676175Y-82338917D01*
X158665972Y-82019234D01*
X158653019Y-81778273D01*
X158638015Y-81635306D01*
X158629881Y-81606460D01*
X158538065Y-81548257D01*
X158368881Y-81500539D01*
X158278285Y-81486702D01*
X158099082Y-81461977D01*
X158014728Y-81422050D01*
X157993802Y-81338121D01*
X158000556Y-81232132D01*
X158023123Y-81098849D01*
X158083133Y-81012724D01*
X158212687Y-80941713D01*
X158342055Y-80891206D01*
X158591451Y-80772511D01*
X158840946Y-80614330D01*
X158923649Y-80549441D01*
X159109124Y-80409709D01*
X159274023Y-80343806D01*
X159474469Y-80327499D01*
X159766000Y-80327500D01*
M02*
