G04 #@! TF.GenerationSoftware,KiCad,Pcbnew,(5.1.8)-1*
G04 #@! TF.CreationDate,2022-01-25T01:20:23+01:00*
G04 #@! TF.ProjectId,C64 XUM1541-II FA2,43363420-5855-44d3-9135-34312d494920,rev?*
G04 #@! TF.SameCoordinates,Original*
G04 #@! TF.FileFunction,Profile,NP*
%FSLAX46Y46*%
G04 Gerber Fmt 4.6, Leading zero omitted, Abs format (unit mm)*
G04 Created by KiCad (PCBNEW (5.1.8)-1) date 2022-01-25 01:20:23*
%MOMM*%
%LPD*%
G01*
G04 APERTURE LIST*
G04 #@! TA.AperFunction,Profile*
%ADD10C,0.050000*%
G04 #@! TD*
G04 #@! TA.AperFunction,Profile*
%ADD11C,0.150000*%
G04 #@! TD*
G04 APERTURE END LIST*
D10*
X133473478Y-88011000D02*
G75*
G02*
X131191000Y-90297000I-2286003J0D01*
G01*
X131191000Y-90297000D02*
G75*
G02*
X128905000Y-88134475I0J2289525D01*
G01*
X133477000Y-80010000D02*
X133604000Y-80010000D01*
X133477000Y-88011000D02*
X133477000Y-80010000D01*
X128905000Y-80010000D02*
X128905000Y-88134475D01*
X127889000Y-87884000D02*
X127889000Y-80010000D01*
X134493000Y-87884000D02*
X134493000Y-80010000D01*
X134493000Y-87884000D02*
G75*
G02*
X131191000Y-91186000I-3302000J0D01*
G01*
X131191000Y-91186000D02*
G75*
G02*
X127889000Y-87884000I0J3302000D01*
G01*
X139446000Y-83566000D02*
X141605000Y-88392000D01*
X139446000Y-91186000D02*
X139446000Y-83566000D01*
X139319000Y-91186000D02*
X139446000Y-91186000D01*
X144907000Y-91186000D02*
X145034000Y-91186000D01*
X144907000Y-83566000D02*
X144907000Y-91186000D01*
X142748000Y-88392000D02*
X144907000Y-83566000D01*
X138303000Y-91186000D02*
X138303000Y-80010000D01*
X146050000Y-91186000D02*
X146050000Y-80010000D01*
X142113000Y-86233000D02*
X139319000Y-80010000D01*
X142240000Y-86233000D02*
X145034000Y-80010000D01*
X142113000Y-86233000D02*
X142240000Y-86233000D01*
X121158000Y-84455000D02*
X118237000Y-80010000D01*
X121285000Y-84455000D02*
X124206000Y-80010000D01*
X121158000Y-84455000D02*
X121285000Y-84455000D01*
X120523000Y-85598000D02*
X116840000Y-80010000D01*
X120523000Y-85725000D02*
X120523000Y-85598000D01*
X120523000Y-85725000D02*
X116840000Y-91186000D01*
X121920000Y-85598000D02*
X125603000Y-80010000D01*
X125603000Y-91186000D02*
X121920000Y-85725000D01*
X121285000Y-86741000D02*
X124206000Y-91186000D01*
X121158000Y-86741000D02*
X121285000Y-86741000D01*
X118237000Y-91186000D02*
X121158000Y-86741000D01*
X121920000Y-85598000D02*
X121920000Y-85725000D01*
X142748000Y-88392000D02*
X141605000Y-88392000D01*
X146050000Y-91186000D02*
X145034000Y-91186000D01*
X138303000Y-91186000D02*
X139319000Y-91186000D01*
X146050000Y-80010000D02*
X145034000Y-80010000D01*
X138303000Y-80010000D02*
X139319000Y-80010000D01*
X133604000Y-80010000D02*
X134493000Y-80010000D01*
X128905000Y-80010000D02*
X127889000Y-80010000D01*
X125603000Y-80010000D02*
X124206000Y-80010000D01*
X118237000Y-80010000D02*
X116840000Y-80010000D01*
X125603000Y-91186000D02*
X124206000Y-91186000D01*
X118237000Y-91186000D02*
X116840000Y-91186000D01*
D11*
X149179000Y-68580000D02*
G75*
G02*
X149433000Y-68834000I0J-254000D01*
G01*
X156637000Y-68834000D02*
G75*
G02*
X156891000Y-68580000I254000J0D01*
G01*
X156637000Y-71074000D02*
G75*
G02*
X156383000Y-71328000I-254000J0D01*
G01*
X149687000Y-71328000D02*
G75*
G02*
X149433000Y-71074000I0J254000D01*
G01*
X151592000Y-71328000D02*
X149687000Y-71328000D01*
X151592000Y-72725000D02*
X151592000Y-71328000D01*
X154478000Y-71328000D02*
X156383000Y-71328000D01*
X154478000Y-72725000D02*
X154478000Y-71328000D01*
X153035000Y-72725000D02*
X154478000Y-72725000D01*
X153035000Y-72725000D02*
X151592000Y-72725000D01*
X149179000Y-68580000D02*
X145415000Y-68580000D01*
X149433000Y-68834000D02*
X149433000Y-71074000D01*
X156637000Y-68834000D02*
X156637000Y-71074000D01*
X161036000Y-67945000D02*
G75*
G02*
X160401000Y-68580000I-635000J0D01*
G01*
X145415000Y-68580000D02*
G75*
G02*
X144780000Y-67945000I0J635000D01*
G01*
X163830000Y-54610000D02*
X167005000Y-54610000D01*
X163830000Y-57150000D02*
X163830000Y-54610000D01*
X161036000Y-57150000D02*
X163830000Y-57150000D01*
X161036000Y-67945000D02*
X161036000Y-57150000D01*
X156891000Y-68580000D02*
X160401000Y-68580000D01*
X144780000Y-57150000D02*
X144780000Y-67945000D01*
X142240000Y-57150000D02*
X144780000Y-57150000D01*
X142240000Y-54610000D02*
X142240000Y-57150000D01*
X141605000Y-54610000D02*
X142240000Y-54610000D01*
X140970000Y-55245000D02*
G75*
G02*
X141605000Y-54610000I635000J0D01*
G01*
X140970000Y-66675000D02*
G75*
G02*
X140335000Y-67310000I-635000J0D01*
G01*
X107315000Y-67310000D02*
G75*
G02*
X106680000Y-66675000I0J635000D01*
G01*
X106045000Y-54610000D02*
G75*
G02*
X106680000Y-55245000I0J-635000D01*
G01*
X140970000Y-66675000D02*
X140970000Y-55245000D01*
X107315000Y-67310000D02*
X140335000Y-67310000D01*
X106680000Y-55245000D02*
X106680000Y-66675000D01*
D10*
X106675000Y-73660000D02*
G75*
G03*
X106675000Y-73660000I-1900000J0D01*
G01*
X106675000Y-83820000D02*
G75*
G03*
X106675000Y-83820000I-1900000J0D01*
G01*
X106675000Y-92710000D02*
G75*
G03*
X106675000Y-92710000I-1900000J0D01*
G01*
D11*
X99695000Y-100330000D02*
X99695000Y-57785000D01*
X167005000Y-103505000D02*
X102870000Y-103505000D01*
X170180000Y-100330000D02*
G75*
G02*
X167005000Y-103505000I-3175000J0D01*
G01*
X102870000Y-103505000D02*
G75*
G02*
X99695000Y-100330000I0J3175000D01*
G01*
X99695000Y-57785000D02*
G75*
G02*
X102870000Y-54610000I3175000J0D01*
G01*
X167005000Y-54610000D02*
G75*
G02*
X170180000Y-57785000I0J-3175000D01*
G01*
X170180000Y-72390000D02*
X170180000Y-57785000D01*
X106045000Y-54610000D02*
X102870000Y-54610000D01*
X170180000Y-100330000D02*
X170180000Y-72390000D01*
M02*
