G04 #@! TF.GenerationSoftware,KiCad,Pcbnew,(5.1.8)-1*
G04 #@! TF.CreationDate,2021-05-19T23:09:36+02:00*
G04 #@! TF.ProjectId,C64 XUM1541-II FA1,43363420-5855-44d3-9135-34312d494920,rev?*
G04 #@! TF.SameCoordinates,Original*
G04 #@! TF.FileFunction,Legend,Top*
G04 #@! TF.FilePolarity,Positive*
%FSLAX46Y46*%
G04 Gerber Fmt 4.6, Leading zero omitted, Abs format (unit mm)*
G04 Created by KiCad (PCBNEW (5.1.8)-1) date 2021-05-19 23:09:36*
%MOMM*%
%LPD*%
G01*
G04 APERTURE LIST*
%ADD10C,0.150000*%
%ADD11C,0.010000*%
%ADD12C,0.100000*%
G04 APERTURE END LIST*
D10*
X122563095Y-101687380D02*
X122563095Y-102496904D01*
X122610714Y-102592142D01*
X122658333Y-102639761D01*
X122753571Y-102687380D01*
X122944047Y-102687380D01*
X123039285Y-102639761D01*
X123086904Y-102592142D01*
X123134523Y-102496904D01*
X123134523Y-101687380D01*
X123563095Y-102639761D02*
X123705952Y-102687380D01*
X123944047Y-102687380D01*
X124039285Y-102639761D01*
X124086904Y-102592142D01*
X124134523Y-102496904D01*
X124134523Y-102401666D01*
X124086904Y-102306428D01*
X124039285Y-102258809D01*
X123944047Y-102211190D01*
X123753571Y-102163571D01*
X123658333Y-102115952D01*
X123610714Y-102068333D01*
X123563095Y-101973095D01*
X123563095Y-101877857D01*
X123610714Y-101782619D01*
X123658333Y-101735000D01*
X123753571Y-101687380D01*
X123991666Y-101687380D01*
X124134523Y-101735000D01*
X124896428Y-102163571D02*
X125039285Y-102211190D01*
X125086904Y-102258809D01*
X125134523Y-102354047D01*
X125134523Y-102496904D01*
X125086904Y-102592142D01*
X125039285Y-102639761D01*
X124944047Y-102687380D01*
X124563095Y-102687380D01*
X124563095Y-101687380D01*
X124896428Y-101687380D01*
X124991666Y-101735000D01*
X125039285Y-101782619D01*
X125086904Y-101877857D01*
X125086904Y-101973095D01*
X125039285Y-102068333D01*
X124991666Y-102115952D01*
X124896428Y-102163571D01*
X124563095Y-102163571D01*
X157797619Y-70302380D02*
X157797619Y-69302380D01*
X158273809Y-69778571D02*
X158607142Y-69778571D01*
X158750000Y-70302380D02*
X158273809Y-70302380D01*
X158273809Y-69302380D01*
X158750000Y-69302380D01*
X159750000Y-70207142D02*
X159702380Y-70254761D01*
X159559523Y-70302380D01*
X159464285Y-70302380D01*
X159321428Y-70254761D01*
X159226190Y-70159523D01*
X159178571Y-70064285D01*
X159130952Y-69873809D01*
X159130952Y-69730952D01*
X159178571Y-69540476D01*
X159226190Y-69445238D01*
X159321428Y-69350000D01*
X159464285Y-69302380D01*
X159559523Y-69302380D01*
X159702380Y-69350000D01*
X159750000Y-69397619D01*
X120539285Y-69032380D02*
X120539285Y-68032380D01*
X120920238Y-68032380D01*
X121015476Y-68080000D01*
X121063095Y-68127619D01*
X121110714Y-68222857D01*
X121110714Y-68365714D01*
X121063095Y-68460952D01*
X121015476Y-68508571D01*
X120920238Y-68556190D01*
X120539285Y-68556190D01*
X121491666Y-68746666D02*
X121967857Y-68746666D01*
X121396428Y-69032380D02*
X121729761Y-68032380D01*
X122063095Y-69032380D01*
X122967857Y-69032380D02*
X122634523Y-68556190D01*
X122396428Y-69032380D02*
X122396428Y-68032380D01*
X122777380Y-68032380D01*
X122872619Y-68080000D01*
X122920238Y-68127619D01*
X122967857Y-68222857D01*
X122967857Y-68365714D01*
X122920238Y-68460952D01*
X122872619Y-68508571D01*
X122777380Y-68556190D01*
X122396428Y-68556190D01*
X123348809Y-68746666D02*
X123825000Y-68746666D01*
X123253571Y-69032380D02*
X123586904Y-68032380D01*
X123920238Y-69032380D01*
X124729761Y-69032380D02*
X124253571Y-69032380D01*
X124253571Y-68032380D01*
X125539285Y-69032380D02*
X125063095Y-69032380D01*
X125063095Y-68032380D01*
X125872619Y-68508571D02*
X126205952Y-68508571D01*
X126348809Y-69032380D02*
X125872619Y-69032380D01*
X125872619Y-68032380D01*
X126348809Y-68032380D01*
X127253571Y-69032380D02*
X126777380Y-69032380D01*
X126777380Y-68032380D01*
X104775000Y-90447000D02*
X104775000Y-90650000D01*
X104775000Y-90447000D02*
X111800000Y-90447000D01*
X111868000Y-90447000D02*
X111487000Y-90828000D01*
X111868000Y-90447000D02*
X111487000Y-90066000D01*
X113411000Y-88446000D02*
X113792000Y-88065000D01*
X113411000Y-88446000D02*
X113030000Y-88065000D01*
X113411000Y-83820000D02*
X113411000Y-88400000D01*
X106934000Y-83820000D02*
X113411000Y-83820000D01*
X102894047Y-96337380D02*
X102894047Y-95337380D01*
X103132142Y-95337380D01*
X103275000Y-95385000D01*
X103370238Y-95480238D01*
X103417857Y-95575476D01*
X103465476Y-95765952D01*
X103465476Y-95908809D01*
X103417857Y-96099285D01*
X103370238Y-96194523D01*
X103275000Y-96289761D01*
X103132142Y-96337380D01*
X102894047Y-96337380D01*
X104465476Y-96337380D02*
X104132142Y-95861190D01*
X103894047Y-96337380D02*
X103894047Y-95337380D01*
X104275000Y-95337380D01*
X104370238Y-95385000D01*
X104417857Y-95432619D01*
X104465476Y-95527857D01*
X104465476Y-95670714D01*
X104417857Y-95765952D01*
X104370238Y-95813571D01*
X104275000Y-95861190D01*
X103894047Y-95861190D01*
X104894047Y-96337380D02*
X104894047Y-95337380D01*
X105227380Y-95337380D02*
X105560714Y-96337380D01*
X105894047Y-95337380D01*
X106227380Y-95813571D02*
X106560714Y-95813571D01*
X106703571Y-96337380D02*
X106227380Y-96337380D01*
X106227380Y-95337380D01*
X106703571Y-95337380D01*
X102465476Y-87447380D02*
X102465476Y-86447380D01*
X102846428Y-86447380D01*
X102941666Y-86495000D01*
X102989285Y-86542619D01*
X103036904Y-86637857D01*
X103036904Y-86780714D01*
X102989285Y-86875952D01*
X102941666Y-86923571D01*
X102846428Y-86971190D01*
X102465476Y-86971190D01*
X103655952Y-86447380D02*
X103846428Y-86447380D01*
X103941666Y-86495000D01*
X104036904Y-86590238D01*
X104084523Y-86780714D01*
X104084523Y-87114047D01*
X104036904Y-87304523D01*
X103941666Y-87399761D01*
X103846428Y-87447380D01*
X103655952Y-87447380D01*
X103560714Y-87399761D01*
X103465476Y-87304523D01*
X103417857Y-87114047D01*
X103417857Y-86780714D01*
X103465476Y-86590238D01*
X103560714Y-86495000D01*
X103655952Y-86447380D01*
X104417857Y-86447380D02*
X104655952Y-87447380D01*
X104846428Y-86733095D01*
X105036904Y-87447380D01*
X105275000Y-86447380D01*
X105655952Y-86923571D02*
X105989285Y-86923571D01*
X106132142Y-87447380D02*
X105655952Y-87447380D01*
X105655952Y-86447380D01*
X106132142Y-86447380D01*
X107132142Y-87447380D02*
X106798809Y-86971190D01*
X106560714Y-87447380D02*
X106560714Y-86447380D01*
X106941666Y-86447380D01*
X107036904Y-86495000D01*
X107084523Y-86542619D01*
X107132142Y-86637857D01*
X107132142Y-86780714D01*
X107084523Y-86875952D01*
X107036904Y-86923571D01*
X106941666Y-86971190D01*
X106560714Y-86971190D01*
X103322619Y-77287380D02*
X102989285Y-76811190D01*
X102751190Y-77287380D02*
X102751190Y-76287380D01*
X103132142Y-76287380D01*
X103227380Y-76335000D01*
X103275000Y-76382619D01*
X103322619Y-76477857D01*
X103322619Y-76620714D01*
X103275000Y-76715952D01*
X103227380Y-76763571D01*
X103132142Y-76811190D01*
X102751190Y-76811190D01*
X103751190Y-76763571D02*
X104084523Y-76763571D01*
X104227380Y-77287380D02*
X103751190Y-77287380D01*
X103751190Y-76287380D01*
X104227380Y-76287380D01*
X104608333Y-77239761D02*
X104751190Y-77287380D01*
X104989285Y-77287380D01*
X105084523Y-77239761D01*
X105132142Y-77192142D01*
X105179761Y-77096904D01*
X105179761Y-77001666D01*
X105132142Y-76906428D01*
X105084523Y-76858809D01*
X104989285Y-76811190D01*
X104798809Y-76763571D01*
X104703571Y-76715952D01*
X104655952Y-76668333D01*
X104608333Y-76573095D01*
X104608333Y-76477857D01*
X104655952Y-76382619D01*
X104703571Y-76335000D01*
X104798809Y-76287380D01*
X105036904Y-76287380D01*
X105179761Y-76335000D01*
X105608333Y-76763571D02*
X105941666Y-76763571D01*
X106084523Y-77287380D02*
X105608333Y-77287380D01*
X105608333Y-76287380D01*
X106084523Y-76287380D01*
X106370238Y-76287380D02*
X106941666Y-76287380D01*
X106655952Y-77287380D02*
X106655952Y-76287380D01*
D11*
G36*
X159766000Y-80327500D02*
G01*
X159766000Y-84582000D01*
X158686500Y-84582000D01*
X158685527Y-83137375D01*
X158682927Y-82718054D01*
X158676175Y-82338917D01*
X158665972Y-82019234D01*
X158653019Y-81778273D01*
X158638015Y-81635306D01*
X158629881Y-81606460D01*
X158538065Y-81548257D01*
X158368881Y-81500539D01*
X158278285Y-81486702D01*
X158099082Y-81461977D01*
X158014728Y-81422050D01*
X157993802Y-81338121D01*
X158000556Y-81232132D01*
X158023123Y-81098849D01*
X158083133Y-81012724D01*
X158212687Y-80941713D01*
X158342055Y-80891206D01*
X158591451Y-80772511D01*
X158840946Y-80614330D01*
X158923649Y-80549441D01*
X159109124Y-80409709D01*
X159274023Y-80343806D01*
X159474469Y-80327499D01*
X159766000Y-80327500D01*
G37*
X159766000Y-80327500D02*
X159766000Y-84582000D01*
X158686500Y-84582000D01*
X158685527Y-83137375D01*
X158682927Y-82718054D01*
X158676175Y-82338917D01*
X158665972Y-82019234D01*
X158653019Y-81778273D01*
X158638015Y-81635306D01*
X158629881Y-81606460D01*
X158538065Y-81548257D01*
X158368881Y-81500539D01*
X158278285Y-81486702D01*
X158099082Y-81461977D01*
X158014728Y-81422050D01*
X157993802Y-81338121D01*
X158000556Y-81232132D01*
X158023123Y-81098849D01*
X158083133Y-81012724D01*
X158212687Y-80941713D01*
X158342055Y-80891206D01*
X158591451Y-80772511D01*
X158840946Y-80614330D01*
X158923649Y-80549441D01*
X159109124Y-80409709D01*
X159274023Y-80343806D01*
X159474469Y-80327499D01*
X159766000Y-80327500D01*
G36*
X157670500Y-83121500D02*
G01*
X157829250Y-83121500D01*
X157920169Y-83130565D01*
X157967510Y-83178482D01*
X157985399Y-83296327D01*
X157988000Y-83470750D01*
X157983879Y-83670772D01*
X157962098Y-83774922D01*
X157908532Y-83814278D01*
X157829250Y-83820000D01*
X157741268Y-83828067D01*
X157693767Y-83872149D01*
X157674321Y-83982068D01*
X157670503Y-84187645D01*
X157670500Y-84201000D01*
X157670500Y-84582000D01*
X156654500Y-84582000D01*
X156654500Y-83820000D01*
X155384500Y-83820000D01*
X155384500Y-83438503D01*
X155393195Y-83278659D01*
X155422373Y-83089529D01*
X155423175Y-83086035D01*
X156146500Y-83086035D01*
X156202890Y-83108253D01*
X156343742Y-83120601D01*
X156400500Y-83121500D01*
X156654500Y-83121500D01*
X156652569Y-82216625D01*
X156648135Y-81852549D01*
X156636980Y-81590600D01*
X156619685Y-81438684D01*
X156596829Y-81404706D01*
X156593370Y-81409549D01*
X156561641Y-81496626D01*
X156507284Y-81677377D01*
X156438188Y-81922198D01*
X156362246Y-82201486D01*
X156287348Y-82485635D01*
X156221386Y-82745041D01*
X156172251Y-82950102D01*
X156147833Y-83071211D01*
X156146500Y-83086035D01*
X155423175Y-83086035D01*
X155476672Y-82853016D01*
X155560729Y-82551024D01*
X155679184Y-82165458D01*
X155832070Y-81692253D01*
X156279641Y-80327500D01*
X157670500Y-80327500D01*
X157670500Y-83121500D01*
G37*
X157670500Y-83121500D02*
X157829250Y-83121500D01*
X157920169Y-83130565D01*
X157967510Y-83178482D01*
X157985399Y-83296327D01*
X157988000Y-83470750D01*
X157983879Y-83670772D01*
X157962098Y-83774922D01*
X157908532Y-83814278D01*
X157829250Y-83820000D01*
X157741268Y-83828067D01*
X157693767Y-83872149D01*
X157674321Y-83982068D01*
X157670503Y-84187645D01*
X157670500Y-84201000D01*
X157670500Y-84582000D01*
X156654500Y-84582000D01*
X156654500Y-83820000D01*
X155384500Y-83820000D01*
X155384500Y-83438503D01*
X155393195Y-83278659D01*
X155422373Y-83089529D01*
X155423175Y-83086035D01*
X156146500Y-83086035D01*
X156202890Y-83108253D01*
X156343742Y-83120601D01*
X156400500Y-83121500D01*
X156654500Y-83121500D01*
X156652569Y-82216625D01*
X156648135Y-81852549D01*
X156636980Y-81590600D01*
X156619685Y-81438684D01*
X156596829Y-81404706D01*
X156593370Y-81409549D01*
X156561641Y-81496626D01*
X156507284Y-81677377D01*
X156438188Y-81922198D01*
X156362246Y-82201486D01*
X156287348Y-82485635D01*
X156221386Y-82745041D01*
X156172251Y-82950102D01*
X156147833Y-83071211D01*
X156146500Y-83086035D01*
X155423175Y-83086035D01*
X155476672Y-82853016D01*
X155560729Y-82551024D01*
X155679184Y-82165458D01*
X155832070Y-81692253D01*
X156279641Y-80327500D01*
X157670500Y-80327500D01*
X157670500Y-83121500D01*
G36*
X152209500Y-80327500D02*
G01*
X152209500Y-84582000D01*
X151130000Y-84582000D01*
X151129027Y-83137375D01*
X151126427Y-82718054D01*
X151119675Y-82338917D01*
X151109472Y-82019234D01*
X151096519Y-81778273D01*
X151081515Y-81635306D01*
X151073381Y-81606460D01*
X150981565Y-81548257D01*
X150812381Y-81500539D01*
X150721785Y-81486702D01*
X150542582Y-81461977D01*
X150458228Y-81422050D01*
X150437302Y-81338121D01*
X150444056Y-81232132D01*
X150466623Y-81098849D01*
X150526633Y-81012724D01*
X150656187Y-80941713D01*
X150785555Y-80891206D01*
X151034951Y-80772511D01*
X151284446Y-80614330D01*
X151367149Y-80549441D01*
X151552624Y-80409709D01*
X151717523Y-80343806D01*
X151917969Y-80327499D01*
X152209500Y-80327500D01*
G37*
X152209500Y-80327500D02*
X152209500Y-84582000D01*
X151130000Y-84582000D01*
X151129027Y-83137375D01*
X151126427Y-82718054D01*
X151119675Y-82338917D01*
X151109472Y-82019234D01*
X151096519Y-81778273D01*
X151081515Y-81635306D01*
X151073381Y-81606460D01*
X150981565Y-81548257D01*
X150812381Y-81500539D01*
X150721785Y-81486702D01*
X150542582Y-81461977D01*
X150458228Y-81422050D01*
X150437302Y-81338121D01*
X150444056Y-81232132D01*
X150466623Y-81098849D01*
X150526633Y-81012724D01*
X150656187Y-80941713D01*
X150785555Y-80891206D01*
X151034951Y-80772511D01*
X151284446Y-80614330D01*
X151367149Y-80549441D01*
X151552624Y-80409709D01*
X151717523Y-80343806D01*
X151917969Y-80327499D01*
X152209500Y-80327500D01*
G36*
X154876500Y-80962500D02*
G01*
X153606500Y-80962500D01*
X153606500Y-81728302D01*
X153792039Y-81591126D01*
X153929108Y-81509775D01*
X154080545Y-81476337D01*
X154297739Y-81480660D01*
X154335912Y-81483666D01*
X154610576Y-81527607D01*
X154806260Y-81619555D01*
X154939648Y-81779237D01*
X155027425Y-82026378D01*
X155084879Y-82369196D01*
X155115787Y-82762376D01*
X155117520Y-83164608D01*
X155092549Y-83545320D01*
X155043344Y-83873940D01*
X154972373Y-84119898D01*
X154937824Y-84189311D01*
X154794685Y-84357266D01*
X154614502Y-84490854D01*
X154609939Y-84493245D01*
X154395825Y-84564101D01*
X154107278Y-84608900D01*
X153794817Y-84624291D01*
X153508962Y-84606927D01*
X153360095Y-84576105D01*
X153066815Y-84455782D01*
X152857972Y-84288666D01*
X152719529Y-84053999D01*
X152637447Y-83731021D01*
X152607628Y-83463352D01*
X152572169Y-82994500D01*
X153606500Y-82994500D01*
X153606500Y-83339616D01*
X153626954Y-83674079D01*
X153689018Y-83890762D01*
X153793743Y-83992232D01*
X153876477Y-83999028D01*
X153932682Y-83986245D01*
X153972291Y-83953286D01*
X153998764Y-83880262D01*
X154015560Y-83747281D01*
X154026140Y-83534453D01*
X154033962Y-83221888D01*
X154036849Y-83077031D01*
X154042654Y-82720316D01*
X154042272Y-82469668D01*
X154033400Y-82304210D01*
X154013738Y-82203070D01*
X153980986Y-82145373D01*
X153932843Y-82110244D01*
X153930134Y-82108782D01*
X153791208Y-82094760D01*
X153668423Y-82172676D01*
X153607494Y-82310961D01*
X153606500Y-82332285D01*
X153579060Y-82378957D01*
X153482669Y-82407121D01*
X153296219Y-82420476D01*
X153088850Y-82423000D01*
X152571200Y-82423000D01*
X152612600Y-81746371D01*
X152630494Y-81417228D01*
X152644497Y-81089844D01*
X152652679Y-80813052D01*
X152654000Y-80698621D01*
X152654000Y-80327500D01*
X154876500Y-80327500D01*
X154876500Y-80962500D01*
G37*
X154876500Y-80962500D02*
X153606500Y-80962500D01*
X153606500Y-81728302D01*
X153792039Y-81591126D01*
X153929108Y-81509775D01*
X154080545Y-81476337D01*
X154297739Y-81480660D01*
X154335912Y-81483666D01*
X154610576Y-81527607D01*
X154806260Y-81619555D01*
X154939648Y-81779237D01*
X155027425Y-82026378D01*
X155084879Y-82369196D01*
X155115787Y-82762376D01*
X155117520Y-83164608D01*
X155092549Y-83545320D01*
X155043344Y-83873940D01*
X154972373Y-84119898D01*
X154937824Y-84189311D01*
X154794685Y-84357266D01*
X154614502Y-84490854D01*
X154609939Y-84493245D01*
X154395825Y-84564101D01*
X154107278Y-84608900D01*
X153794817Y-84624291D01*
X153508962Y-84606927D01*
X153360095Y-84576105D01*
X153066815Y-84455782D01*
X152857972Y-84288666D01*
X152719529Y-84053999D01*
X152637447Y-83731021D01*
X152607628Y-83463352D01*
X152572169Y-82994500D01*
X153606500Y-82994500D01*
X153606500Y-83339616D01*
X153626954Y-83674079D01*
X153689018Y-83890762D01*
X153793743Y-83992232D01*
X153876477Y-83999028D01*
X153932682Y-83986245D01*
X153972291Y-83953286D01*
X153998764Y-83880262D01*
X154015560Y-83747281D01*
X154026140Y-83534453D01*
X154033962Y-83221888D01*
X154036849Y-83077031D01*
X154042654Y-82720316D01*
X154042272Y-82469668D01*
X154033400Y-82304210D01*
X154013738Y-82203070D01*
X153980986Y-82145373D01*
X153932843Y-82110244D01*
X153930134Y-82108782D01*
X153791208Y-82094760D01*
X153668423Y-82172676D01*
X153607494Y-82310961D01*
X153606500Y-82332285D01*
X153579060Y-82378957D01*
X153482669Y-82407121D01*
X153296219Y-82420476D01*
X153088850Y-82423000D01*
X152571200Y-82423000D01*
X152612600Y-81746371D01*
X152630494Y-81417228D01*
X152644497Y-81089844D01*
X152652679Y-80813052D01*
X152654000Y-80698621D01*
X152654000Y-80327500D01*
X154876500Y-80327500D01*
X154876500Y-80962500D01*
G36*
X156527500Y-91186000D02*
G01*
X155448000Y-91186000D01*
X155448000Y-86931500D01*
X156527500Y-86931500D01*
X156527500Y-91186000D01*
G37*
X156527500Y-91186000D02*
X155448000Y-91186000D01*
X155448000Y-86931500D01*
X156527500Y-86931500D01*
X156527500Y-91186000D01*
G36*
X155003500Y-91186000D02*
G01*
X153924000Y-91186000D01*
X153924000Y-86931500D01*
X155003500Y-86931500D01*
X155003500Y-91186000D01*
G37*
X155003500Y-91186000D02*
X153924000Y-91186000D01*
X153924000Y-86931500D01*
X155003500Y-86931500D01*
X155003500Y-91186000D01*
G36*
X164124104Y-77082858D02*
G01*
X164499941Y-77315656D01*
X164778706Y-77607629D01*
X164948234Y-77945479D01*
X164963829Y-78000623D01*
X164990905Y-78160207D01*
X165018583Y-78415088D01*
X165044053Y-78733607D01*
X165064501Y-79084107D01*
X165068979Y-79184500D01*
X165081408Y-79467421D01*
X165099508Y-79855181D01*
X165122196Y-80325799D01*
X165148393Y-80857294D01*
X165177016Y-81427683D01*
X165206985Y-82014986D01*
X165231424Y-82486500D01*
X165263013Y-83101258D01*
X165287915Y-83622074D01*
X165306261Y-84073086D01*
X165318181Y-84478433D01*
X165323806Y-84862254D01*
X165323267Y-85248688D01*
X165316695Y-85661872D01*
X165304219Y-86125947D01*
X165285972Y-86665051D01*
X165262084Y-87303322D01*
X165258074Y-87407750D01*
X165234050Y-88033852D01*
X165209347Y-88680408D01*
X165184912Y-89322434D01*
X165161694Y-89934948D01*
X165140638Y-90492964D01*
X165122693Y-90971500D01*
X165110006Y-91313000D01*
X165089641Y-91811682D01*
X165066501Y-92203398D01*
X165035669Y-92508163D01*
X164992227Y-92745993D01*
X164931257Y-92936903D01*
X164847840Y-93100909D01*
X164737059Y-93258026D01*
X164593996Y-93428270D01*
X164588819Y-93434170D01*
X164426917Y-93601107D01*
X164260811Y-93725248D01*
X164068514Y-93812642D01*
X163828035Y-93869339D01*
X163517386Y-93901387D01*
X163114576Y-93914837D01*
X162835543Y-93916500D01*
X162438069Y-93916668D01*
X162146188Y-93923113D01*
X161938520Y-93944744D01*
X161793687Y-93990470D01*
X161690309Y-94069199D01*
X161607006Y-94189842D01*
X161522399Y-94361307D01*
X161464099Y-94488000D01*
X161390846Y-94648555D01*
X161274375Y-94906493D01*
X161123041Y-95243138D01*
X160945197Y-95639817D01*
X160749200Y-96077854D01*
X160543402Y-96538574D01*
X160336158Y-97003303D01*
X160135824Y-97453366D01*
X159950752Y-97870089D01*
X159915879Y-97948750D01*
X159805243Y-98197244D01*
X159707387Y-98415003D01*
X159638816Y-98565363D01*
X159625396Y-98594006D01*
X159571401Y-98669297D01*
X159480805Y-98725326D01*
X159338658Y-98763669D01*
X159130008Y-98785900D01*
X158839904Y-98793596D01*
X158453397Y-98788331D01*
X157955534Y-98771682D01*
X157943665Y-98771217D01*
X157496878Y-98755122D01*
X157161104Y-98749485D01*
X156920511Y-98758519D01*
X156759264Y-98786440D01*
X156661532Y-98837462D01*
X156611480Y-98915800D01*
X156593277Y-99025667D01*
X156591000Y-99131275D01*
X156591000Y-99377500D01*
X153422958Y-99377500D01*
X153384250Y-98774250D01*
X137826750Y-98759135D01*
X136428303Y-98757907D01*
X135062465Y-98756964D01*
X133734735Y-98756299D01*
X132450610Y-98755908D01*
X131215588Y-98755783D01*
X130035168Y-98755919D01*
X128914848Y-98756311D01*
X127860125Y-98756951D01*
X126876498Y-98757834D01*
X125969465Y-98758954D01*
X125144523Y-98760306D01*
X124407172Y-98761882D01*
X123762908Y-98763678D01*
X123217231Y-98765686D01*
X122775637Y-98767902D01*
X122443626Y-98770318D01*
X122226694Y-98772930D01*
X122130341Y-98775731D01*
X122126375Y-98776220D01*
X122036326Y-98815351D01*
X121994332Y-98903722D01*
X121983525Y-99078731D01*
X121983500Y-99092959D01*
X121983500Y-99377500D01*
X118681500Y-99377500D01*
X118681500Y-99125734D01*
X118658165Y-98928741D01*
X118580564Y-98821137D01*
X118562238Y-98810141D01*
X118452748Y-98788712D01*
X118224842Y-98775374D01*
X117886856Y-98770282D01*
X117447125Y-98773590D01*
X117043519Y-98781982D01*
X115644061Y-98817650D01*
X115547176Y-98668950D01*
X115495768Y-98574219D01*
X115398671Y-98380491D01*
X115263708Y-98103947D01*
X115098701Y-97760765D01*
X114911474Y-97367125D01*
X114709849Y-96939207D01*
X114677061Y-96869250D01*
X114461476Y-96409012D01*
X114248508Y-95954506D01*
X114048453Y-95527692D01*
X113871603Y-95150526D01*
X113728254Y-94844970D01*
X113630433Y-94636667D01*
X113482968Y-94345445D01*
X113355083Y-94137031D01*
X113297099Y-94072280D01*
X113625602Y-94072280D01*
X113639699Y-94158529D01*
X113701460Y-94335141D01*
X113801724Y-94578901D01*
X113931331Y-94866594D01*
X113977800Y-94964758D01*
X114116417Y-95255378D01*
X114232934Y-95502042D01*
X114317494Y-95683697D01*
X114360240Y-95779293D01*
X114363500Y-95788508D01*
X114390298Y-95854592D01*
X114464357Y-96014907D01*
X114576175Y-96250074D01*
X114716249Y-96540717D01*
X114875075Y-96867458D01*
X115043152Y-97210918D01*
X115210977Y-97551721D01*
X115369046Y-97870489D01*
X115507857Y-98147844D01*
X115617908Y-98364408D01*
X115689695Y-98500804D01*
X115711739Y-98537793D01*
X115738457Y-98545364D01*
X115808007Y-98552463D01*
X115923874Y-98559104D01*
X116089545Y-98565298D01*
X116308508Y-98571057D01*
X116584247Y-98576394D01*
X116920250Y-98581319D01*
X117320003Y-98585847D01*
X117786992Y-98589987D01*
X118324704Y-98593754D01*
X118936626Y-98597158D01*
X119626244Y-98600212D01*
X120397043Y-98602928D01*
X121252512Y-98605317D01*
X122196136Y-98607393D01*
X123231401Y-98609167D01*
X124361795Y-98610651D01*
X125590803Y-98611857D01*
X126921912Y-98612798D01*
X128358609Y-98613486D01*
X129904380Y-98613931D01*
X131562710Y-98614148D01*
X133337088Y-98614147D01*
X135230999Y-98613941D01*
X137247930Y-98613542D01*
X137543663Y-98613471D01*
X139522187Y-98612957D01*
X141377657Y-98612407D01*
X143114022Y-98611802D01*
X144735226Y-98611120D01*
X146245219Y-98610342D01*
X147647945Y-98609447D01*
X148947353Y-98608415D01*
X150147388Y-98607225D01*
X151251999Y-98605857D01*
X152265131Y-98604290D01*
X153190732Y-98602505D01*
X154032748Y-98600481D01*
X154795127Y-98598197D01*
X155481815Y-98595634D01*
X156096759Y-98592770D01*
X156643906Y-98589585D01*
X157127202Y-98586059D01*
X157550595Y-98582172D01*
X157918032Y-98577903D01*
X158233459Y-98573232D01*
X158500823Y-98568139D01*
X158724071Y-98562603D01*
X158907150Y-98556603D01*
X159054007Y-98550120D01*
X159168589Y-98543133D01*
X159254842Y-98535621D01*
X159316713Y-98527565D01*
X159358150Y-98518943D01*
X159383099Y-98509736D01*
X159394926Y-98500677D01*
X159479792Y-98371368D01*
X159574129Y-98195774D01*
X159586008Y-98171000D01*
X159736924Y-97847981D01*
X159917339Y-97457847D01*
X160112770Y-97032296D01*
X160308737Y-96603028D01*
X160490756Y-96201741D01*
X160644346Y-95860136D01*
X160731914Y-95662750D01*
X160865681Y-95360405D01*
X161004571Y-95049948D01*
X161124922Y-94784169D01*
X161159106Y-94709694D01*
X161290218Y-94416159D01*
X161367136Y-94217011D01*
X161395239Y-94094477D01*
X161379905Y-94030780D01*
X161367652Y-94020496D01*
X161297268Y-94016095D01*
X161102264Y-94011892D01*
X160785020Y-94007892D01*
X160347916Y-94004096D01*
X159793331Y-94000508D01*
X159123647Y-93997131D01*
X158341241Y-93993968D01*
X157448495Y-93991022D01*
X156447788Y-93988296D01*
X155341501Y-93985793D01*
X154132012Y-93983516D01*
X152821703Y-93981468D01*
X151412952Y-93979653D01*
X149908140Y-93978072D01*
X148309646Y-93976729D01*
X146619851Y-93975628D01*
X144841134Y-93974770D01*
X142975876Y-93974160D01*
X141026456Y-93973800D01*
X138995253Y-93973694D01*
X136884649Y-93973843D01*
X134697022Y-93974252D01*
X132434753Y-93974923D01*
X130100222Y-93975860D01*
X127695808Y-93977065D01*
X127330427Y-93977268D01*
X125750484Y-93978256D01*
X124292868Y-93979389D01*
X122952907Y-93980700D01*
X121725929Y-93982220D01*
X120607261Y-93983983D01*
X119592230Y-93986021D01*
X118676164Y-93988366D01*
X117854390Y-93991050D01*
X117122236Y-93994106D01*
X116475029Y-93997566D01*
X115908097Y-94001463D01*
X115416768Y-94005829D01*
X114996368Y-94010697D01*
X114642225Y-94016098D01*
X114349667Y-94022066D01*
X114114021Y-94028632D01*
X113930615Y-94035829D01*
X113794777Y-94043690D01*
X113701832Y-94052247D01*
X113647110Y-94061531D01*
X113625938Y-94071577D01*
X113625602Y-94072280D01*
X113297099Y-94072280D01*
X113257008Y-94027512D01*
X113236118Y-94016707D01*
X113128826Y-94003043D01*
X112923088Y-93993418D01*
X112647415Y-93988641D01*
X112330320Y-93989521D01*
X112294725Y-93989990D01*
X111844734Y-93988493D01*
X111495200Y-93965382D01*
X111220511Y-93914417D01*
X110995059Y-93829359D01*
X110793233Y-93703969D01*
X110653841Y-93590215D01*
X110483005Y-93424040D01*
X110350306Y-93250045D01*
X110249693Y-93048218D01*
X110175113Y-92798546D01*
X110120514Y-92481017D01*
X110079845Y-92075619D01*
X110048462Y-91588359D01*
X109991510Y-90538219D01*
X109941694Y-89604175D01*
X109898806Y-88775538D01*
X109862638Y-88041616D01*
X109832984Y-87391719D01*
X109809634Y-86815156D01*
X109804755Y-86669800D01*
X110473602Y-86669800D01*
X110474117Y-87248431D01*
X110475395Y-87858052D01*
X110477382Y-88485004D01*
X110480024Y-89115625D01*
X110483266Y-89736257D01*
X110487055Y-90333241D01*
X110491336Y-90892915D01*
X110496055Y-91401621D01*
X110501158Y-91845698D01*
X110506590Y-92211487D01*
X110512298Y-92485328D01*
X110518226Y-92653562D01*
X110521660Y-92696804D01*
X110612209Y-92963204D01*
X110785835Y-93226671D01*
X111007382Y-93437903D01*
X111086083Y-93488341D01*
X111224841Y-93537026D01*
X111433179Y-93579607D01*
X111569500Y-93597040D01*
X111656878Y-93599351D01*
X111866971Y-93601535D01*
X112195494Y-93603590D01*
X112638162Y-93605512D01*
X113190689Y-93607300D01*
X113848790Y-93608951D01*
X114608180Y-93610462D01*
X115464574Y-93611830D01*
X116413688Y-93613053D01*
X117451234Y-93614128D01*
X118572930Y-93615053D01*
X119774489Y-93615826D01*
X121051626Y-93616442D01*
X122400056Y-93616901D01*
X123815495Y-93617199D01*
X125293656Y-93617334D01*
X126830255Y-93617302D01*
X128421007Y-93617103D01*
X130061626Y-93616732D01*
X131747828Y-93616187D01*
X133475326Y-93615467D01*
X135239837Y-93614567D01*
X137037075Y-93613486D01*
X137822967Y-93612962D01*
X163727184Y-93595174D01*
X163979291Y-93454212D01*
X164181128Y-93311568D01*
X164377325Y-93127511D01*
X164426213Y-93070911D01*
X164526335Y-92932091D01*
X164590170Y-92793370D01*
X164629866Y-92614894D01*
X164657570Y-92356812D01*
X164662445Y-92295938D01*
X164670418Y-92127169D01*
X164677673Y-91842609D01*
X164684209Y-91453466D01*
X164690024Y-90970947D01*
X164695115Y-90406259D01*
X164699480Y-89770610D01*
X164703117Y-89075207D01*
X164706025Y-88331258D01*
X164708201Y-87549970D01*
X164709643Y-86742549D01*
X164710348Y-85920205D01*
X164710316Y-85094143D01*
X164709544Y-84275571D01*
X164708029Y-83475697D01*
X164705770Y-82705728D01*
X164702765Y-81976871D01*
X164699011Y-81300334D01*
X164694506Y-80687324D01*
X164689249Y-80149049D01*
X164683238Y-79696715D01*
X164676469Y-79341530D01*
X164668942Y-79094701D01*
X164664903Y-79015573D01*
X164639244Y-78659635D01*
X164612258Y-78402151D01*
X164578319Y-78214647D01*
X164531795Y-78068649D01*
X164467059Y-77935683D01*
X164443185Y-77893974D01*
X164293233Y-77690990D01*
X164110623Y-77512784D01*
X164036936Y-77459651D01*
X163798250Y-77311250D01*
X137668000Y-77294017D01*
X135479943Y-77292518D01*
X133415281Y-77291022D01*
X131470410Y-77289576D01*
X129641726Y-77288227D01*
X127925623Y-77287024D01*
X126318498Y-77286012D01*
X124816745Y-77285239D01*
X123416760Y-77284752D01*
X122114938Y-77284600D01*
X120907675Y-77284828D01*
X119791367Y-77285485D01*
X118762408Y-77286618D01*
X117817195Y-77288273D01*
X116952122Y-77290499D01*
X116163585Y-77293342D01*
X115447979Y-77296850D01*
X114801700Y-77301070D01*
X114221144Y-77306049D01*
X113702705Y-77311834D01*
X113242779Y-77318474D01*
X112837762Y-77326015D01*
X112484049Y-77334504D01*
X112178036Y-77343989D01*
X111916117Y-77354517D01*
X111694688Y-77366135D01*
X111510146Y-77378891D01*
X111358884Y-77392832D01*
X111237299Y-77408005D01*
X111141786Y-77424457D01*
X111068740Y-77442236D01*
X111014558Y-77461389D01*
X110975633Y-77481963D01*
X110948362Y-77504006D01*
X110929141Y-77527565D01*
X110914364Y-77552687D01*
X110900427Y-77579419D01*
X110883725Y-77607808D01*
X110860654Y-77637903D01*
X110853418Y-77645752D01*
X110769654Y-77736148D01*
X110700397Y-77824651D01*
X110644219Y-77923800D01*
X110599687Y-78046134D01*
X110565373Y-78204194D01*
X110539845Y-78410519D01*
X110521673Y-78677649D01*
X110509427Y-79018124D01*
X110501676Y-79444483D01*
X110496990Y-79969266D01*
X110493938Y-80605013D01*
X110493185Y-80803750D01*
X110491228Y-81366906D01*
X110489642Y-81896230D01*
X110488452Y-82376902D01*
X110487685Y-82794103D01*
X110487366Y-83133016D01*
X110487520Y-83378820D01*
X110488173Y-83516697D01*
X110488456Y-83534250D01*
X110497785Y-83994477D01*
X110499986Y-84331050D01*
X110495061Y-84547118D01*
X110489576Y-84613750D01*
X110484373Y-84719586D01*
X110480259Y-84938371D01*
X110477178Y-85256444D01*
X110475078Y-85660147D01*
X110473904Y-86135819D01*
X110473602Y-86669800D01*
X109804755Y-86669800D01*
X109792381Y-86301237D01*
X109781018Y-85839270D01*
X109775337Y-85418565D01*
X109775130Y-85028432D01*
X109780190Y-84658179D01*
X109790309Y-84297117D01*
X109805279Y-83934554D01*
X109824893Y-83559799D01*
X109848942Y-83162162D01*
X109876579Y-82740500D01*
X109913525Y-82177844D01*
X109953158Y-81553481D01*
X109992828Y-80910559D01*
X110029888Y-80292229D01*
X110061687Y-79741639D01*
X110071493Y-79565500D01*
X110101766Y-79043638D01*
X110131749Y-78630423D01*
X110166171Y-78307601D01*
X110209762Y-78056920D01*
X110267251Y-77860124D01*
X110343369Y-77698961D01*
X110442844Y-77555177D01*
X110570408Y-77410518D01*
X110651603Y-77326663D01*
X110681451Y-77292173D01*
X110703574Y-77259623D01*
X110721574Y-77228957D01*
X110739052Y-77200119D01*
X110759612Y-77173051D01*
X110786853Y-77147699D01*
X110824380Y-77124005D01*
X110875793Y-77101914D01*
X110944694Y-77081370D01*
X111034687Y-77062315D01*
X111149372Y-77044695D01*
X111292352Y-77028452D01*
X111467228Y-77013530D01*
X111677603Y-76999874D01*
X111927079Y-76987427D01*
X112219258Y-76976133D01*
X112557741Y-76965935D01*
X112946131Y-76956778D01*
X113388030Y-76948604D01*
X113887040Y-76941359D01*
X114446762Y-76934986D01*
X115070800Y-76929428D01*
X115762754Y-76924629D01*
X116526226Y-76920533D01*
X117364820Y-76917084D01*
X118282136Y-76914226D01*
X119281777Y-76911902D01*
X120367345Y-76910057D01*
X121542442Y-76908633D01*
X122810670Y-76907575D01*
X124175631Y-76906827D01*
X125640926Y-76906332D01*
X127210158Y-76906034D01*
X128886929Y-76905877D01*
X130674841Y-76905804D01*
X132577496Y-76905760D01*
X134598496Y-76905688D01*
X136741443Y-76905532D01*
X137639948Y-76905433D01*
X163742146Y-76902220D01*
X164124104Y-77082858D01*
G37*
X164124104Y-77082858D02*
X164499941Y-77315656D01*
X164778706Y-77607629D01*
X164948234Y-77945479D01*
X164963829Y-78000623D01*
X164990905Y-78160207D01*
X165018583Y-78415088D01*
X165044053Y-78733607D01*
X165064501Y-79084107D01*
X165068979Y-79184500D01*
X165081408Y-79467421D01*
X165099508Y-79855181D01*
X165122196Y-80325799D01*
X165148393Y-80857294D01*
X165177016Y-81427683D01*
X165206985Y-82014986D01*
X165231424Y-82486500D01*
X165263013Y-83101258D01*
X165287915Y-83622074D01*
X165306261Y-84073086D01*
X165318181Y-84478433D01*
X165323806Y-84862254D01*
X165323267Y-85248688D01*
X165316695Y-85661872D01*
X165304219Y-86125947D01*
X165285972Y-86665051D01*
X165262084Y-87303322D01*
X165258074Y-87407750D01*
X165234050Y-88033852D01*
X165209347Y-88680408D01*
X165184912Y-89322434D01*
X165161694Y-89934948D01*
X165140638Y-90492964D01*
X165122693Y-90971500D01*
X165110006Y-91313000D01*
X165089641Y-91811682D01*
X165066501Y-92203398D01*
X165035669Y-92508163D01*
X164992227Y-92745993D01*
X164931257Y-92936903D01*
X164847840Y-93100909D01*
X164737059Y-93258026D01*
X164593996Y-93428270D01*
X164588819Y-93434170D01*
X164426917Y-93601107D01*
X164260811Y-93725248D01*
X164068514Y-93812642D01*
X163828035Y-93869339D01*
X163517386Y-93901387D01*
X163114576Y-93914837D01*
X162835543Y-93916500D01*
X162438069Y-93916668D01*
X162146188Y-93923113D01*
X161938520Y-93944744D01*
X161793687Y-93990470D01*
X161690309Y-94069199D01*
X161607006Y-94189842D01*
X161522399Y-94361307D01*
X161464099Y-94488000D01*
X161390846Y-94648555D01*
X161274375Y-94906493D01*
X161123041Y-95243138D01*
X160945197Y-95639817D01*
X160749200Y-96077854D01*
X160543402Y-96538574D01*
X160336158Y-97003303D01*
X160135824Y-97453366D01*
X159950752Y-97870089D01*
X159915879Y-97948750D01*
X159805243Y-98197244D01*
X159707387Y-98415003D01*
X159638816Y-98565363D01*
X159625396Y-98594006D01*
X159571401Y-98669297D01*
X159480805Y-98725326D01*
X159338658Y-98763669D01*
X159130008Y-98785900D01*
X158839904Y-98793596D01*
X158453397Y-98788331D01*
X157955534Y-98771682D01*
X157943665Y-98771217D01*
X157496878Y-98755122D01*
X157161104Y-98749485D01*
X156920511Y-98758519D01*
X156759264Y-98786440D01*
X156661532Y-98837462D01*
X156611480Y-98915800D01*
X156593277Y-99025667D01*
X156591000Y-99131275D01*
X156591000Y-99377500D01*
X153422958Y-99377500D01*
X153384250Y-98774250D01*
X137826750Y-98759135D01*
X136428303Y-98757907D01*
X135062465Y-98756964D01*
X133734735Y-98756299D01*
X132450610Y-98755908D01*
X131215588Y-98755783D01*
X130035168Y-98755919D01*
X128914848Y-98756311D01*
X127860125Y-98756951D01*
X126876498Y-98757834D01*
X125969465Y-98758954D01*
X125144523Y-98760306D01*
X124407172Y-98761882D01*
X123762908Y-98763678D01*
X123217231Y-98765686D01*
X122775637Y-98767902D01*
X122443626Y-98770318D01*
X122226694Y-98772930D01*
X122130341Y-98775731D01*
X122126375Y-98776220D01*
X122036326Y-98815351D01*
X121994332Y-98903722D01*
X121983525Y-99078731D01*
X121983500Y-99092959D01*
X121983500Y-99377500D01*
X118681500Y-99377500D01*
X118681500Y-99125734D01*
X118658165Y-98928741D01*
X118580564Y-98821137D01*
X118562238Y-98810141D01*
X118452748Y-98788712D01*
X118224842Y-98775374D01*
X117886856Y-98770282D01*
X117447125Y-98773590D01*
X117043519Y-98781982D01*
X115644061Y-98817650D01*
X115547176Y-98668950D01*
X115495768Y-98574219D01*
X115398671Y-98380491D01*
X115263708Y-98103947D01*
X115098701Y-97760765D01*
X114911474Y-97367125D01*
X114709849Y-96939207D01*
X114677061Y-96869250D01*
X114461476Y-96409012D01*
X114248508Y-95954506D01*
X114048453Y-95527692D01*
X113871603Y-95150526D01*
X113728254Y-94844970D01*
X113630433Y-94636667D01*
X113482968Y-94345445D01*
X113355083Y-94137031D01*
X113297099Y-94072280D01*
X113625602Y-94072280D01*
X113639699Y-94158529D01*
X113701460Y-94335141D01*
X113801724Y-94578901D01*
X113931331Y-94866594D01*
X113977800Y-94964758D01*
X114116417Y-95255378D01*
X114232934Y-95502042D01*
X114317494Y-95683697D01*
X114360240Y-95779293D01*
X114363500Y-95788508D01*
X114390298Y-95854592D01*
X114464357Y-96014907D01*
X114576175Y-96250074D01*
X114716249Y-96540717D01*
X114875075Y-96867458D01*
X115043152Y-97210918D01*
X115210977Y-97551721D01*
X115369046Y-97870489D01*
X115507857Y-98147844D01*
X115617908Y-98364408D01*
X115689695Y-98500804D01*
X115711739Y-98537793D01*
X115738457Y-98545364D01*
X115808007Y-98552463D01*
X115923874Y-98559104D01*
X116089545Y-98565298D01*
X116308508Y-98571057D01*
X116584247Y-98576394D01*
X116920250Y-98581319D01*
X117320003Y-98585847D01*
X117786992Y-98589987D01*
X118324704Y-98593754D01*
X118936626Y-98597158D01*
X119626244Y-98600212D01*
X120397043Y-98602928D01*
X121252512Y-98605317D01*
X122196136Y-98607393D01*
X123231401Y-98609167D01*
X124361795Y-98610651D01*
X125590803Y-98611857D01*
X126921912Y-98612798D01*
X128358609Y-98613486D01*
X129904380Y-98613931D01*
X131562710Y-98614148D01*
X133337088Y-98614147D01*
X135230999Y-98613941D01*
X137247930Y-98613542D01*
X137543663Y-98613471D01*
X139522187Y-98612957D01*
X141377657Y-98612407D01*
X143114022Y-98611802D01*
X144735226Y-98611120D01*
X146245219Y-98610342D01*
X147647945Y-98609447D01*
X148947353Y-98608415D01*
X150147388Y-98607225D01*
X151251999Y-98605857D01*
X152265131Y-98604290D01*
X153190732Y-98602505D01*
X154032748Y-98600481D01*
X154795127Y-98598197D01*
X155481815Y-98595634D01*
X156096759Y-98592770D01*
X156643906Y-98589585D01*
X157127202Y-98586059D01*
X157550595Y-98582172D01*
X157918032Y-98577903D01*
X158233459Y-98573232D01*
X158500823Y-98568139D01*
X158724071Y-98562603D01*
X158907150Y-98556603D01*
X159054007Y-98550120D01*
X159168589Y-98543133D01*
X159254842Y-98535621D01*
X159316713Y-98527565D01*
X159358150Y-98518943D01*
X159383099Y-98509736D01*
X159394926Y-98500677D01*
X159479792Y-98371368D01*
X159574129Y-98195774D01*
X159586008Y-98171000D01*
X159736924Y-97847981D01*
X159917339Y-97457847D01*
X160112770Y-97032296D01*
X160308737Y-96603028D01*
X160490756Y-96201741D01*
X160644346Y-95860136D01*
X160731914Y-95662750D01*
X160865681Y-95360405D01*
X161004571Y-95049948D01*
X161124922Y-94784169D01*
X161159106Y-94709694D01*
X161290218Y-94416159D01*
X161367136Y-94217011D01*
X161395239Y-94094477D01*
X161379905Y-94030780D01*
X161367652Y-94020496D01*
X161297268Y-94016095D01*
X161102264Y-94011892D01*
X160785020Y-94007892D01*
X160347916Y-94004096D01*
X159793331Y-94000508D01*
X159123647Y-93997131D01*
X158341241Y-93993968D01*
X157448495Y-93991022D01*
X156447788Y-93988296D01*
X155341501Y-93985793D01*
X154132012Y-93983516D01*
X152821703Y-93981468D01*
X151412952Y-93979653D01*
X149908140Y-93978072D01*
X148309646Y-93976729D01*
X146619851Y-93975628D01*
X144841134Y-93974770D01*
X142975876Y-93974160D01*
X141026456Y-93973800D01*
X138995253Y-93973694D01*
X136884649Y-93973843D01*
X134697022Y-93974252D01*
X132434753Y-93974923D01*
X130100222Y-93975860D01*
X127695808Y-93977065D01*
X127330427Y-93977268D01*
X125750484Y-93978256D01*
X124292868Y-93979389D01*
X122952907Y-93980700D01*
X121725929Y-93982220D01*
X120607261Y-93983983D01*
X119592230Y-93986021D01*
X118676164Y-93988366D01*
X117854390Y-93991050D01*
X117122236Y-93994106D01*
X116475029Y-93997566D01*
X115908097Y-94001463D01*
X115416768Y-94005829D01*
X114996368Y-94010697D01*
X114642225Y-94016098D01*
X114349667Y-94022066D01*
X114114021Y-94028632D01*
X113930615Y-94035829D01*
X113794777Y-94043690D01*
X113701832Y-94052247D01*
X113647110Y-94061531D01*
X113625938Y-94071577D01*
X113625602Y-94072280D01*
X113297099Y-94072280D01*
X113257008Y-94027512D01*
X113236118Y-94016707D01*
X113128826Y-94003043D01*
X112923088Y-93993418D01*
X112647415Y-93988641D01*
X112330320Y-93989521D01*
X112294725Y-93989990D01*
X111844734Y-93988493D01*
X111495200Y-93965382D01*
X111220511Y-93914417D01*
X110995059Y-93829359D01*
X110793233Y-93703969D01*
X110653841Y-93590215D01*
X110483005Y-93424040D01*
X110350306Y-93250045D01*
X110249693Y-93048218D01*
X110175113Y-92798546D01*
X110120514Y-92481017D01*
X110079845Y-92075619D01*
X110048462Y-91588359D01*
X109991510Y-90538219D01*
X109941694Y-89604175D01*
X109898806Y-88775538D01*
X109862638Y-88041616D01*
X109832984Y-87391719D01*
X109809634Y-86815156D01*
X109804755Y-86669800D01*
X110473602Y-86669800D01*
X110474117Y-87248431D01*
X110475395Y-87858052D01*
X110477382Y-88485004D01*
X110480024Y-89115625D01*
X110483266Y-89736257D01*
X110487055Y-90333241D01*
X110491336Y-90892915D01*
X110496055Y-91401621D01*
X110501158Y-91845698D01*
X110506590Y-92211487D01*
X110512298Y-92485328D01*
X110518226Y-92653562D01*
X110521660Y-92696804D01*
X110612209Y-92963204D01*
X110785835Y-93226671D01*
X111007382Y-93437903D01*
X111086083Y-93488341D01*
X111224841Y-93537026D01*
X111433179Y-93579607D01*
X111569500Y-93597040D01*
X111656878Y-93599351D01*
X111866971Y-93601535D01*
X112195494Y-93603590D01*
X112638162Y-93605512D01*
X113190689Y-93607300D01*
X113848790Y-93608951D01*
X114608180Y-93610462D01*
X115464574Y-93611830D01*
X116413688Y-93613053D01*
X117451234Y-93614128D01*
X118572930Y-93615053D01*
X119774489Y-93615826D01*
X121051626Y-93616442D01*
X122400056Y-93616901D01*
X123815495Y-93617199D01*
X125293656Y-93617334D01*
X126830255Y-93617302D01*
X128421007Y-93617103D01*
X130061626Y-93616732D01*
X131747828Y-93616187D01*
X133475326Y-93615467D01*
X135239837Y-93614567D01*
X137037075Y-93613486D01*
X137822967Y-93612962D01*
X163727184Y-93595174D01*
X163979291Y-93454212D01*
X164181128Y-93311568D01*
X164377325Y-93127511D01*
X164426213Y-93070911D01*
X164526335Y-92932091D01*
X164590170Y-92793370D01*
X164629866Y-92614894D01*
X164657570Y-92356812D01*
X164662445Y-92295938D01*
X164670418Y-92127169D01*
X164677673Y-91842609D01*
X164684209Y-91453466D01*
X164690024Y-90970947D01*
X164695115Y-90406259D01*
X164699480Y-89770610D01*
X164703117Y-89075207D01*
X164706025Y-88331258D01*
X164708201Y-87549970D01*
X164709643Y-86742549D01*
X164710348Y-85920205D01*
X164710316Y-85094143D01*
X164709544Y-84275571D01*
X164708029Y-83475697D01*
X164705770Y-82705728D01*
X164702765Y-81976871D01*
X164699011Y-81300334D01*
X164694506Y-80687324D01*
X164689249Y-80149049D01*
X164683238Y-79696715D01*
X164676469Y-79341530D01*
X164668942Y-79094701D01*
X164664903Y-79015573D01*
X164639244Y-78659635D01*
X164612258Y-78402151D01*
X164578319Y-78214647D01*
X164531795Y-78068649D01*
X164467059Y-77935683D01*
X164443185Y-77893974D01*
X164293233Y-77690990D01*
X164110623Y-77512784D01*
X164036936Y-77459651D01*
X163798250Y-77311250D01*
X137668000Y-77294017D01*
X135479943Y-77292518D01*
X133415281Y-77291022D01*
X131470410Y-77289576D01*
X129641726Y-77288227D01*
X127925623Y-77287024D01*
X126318498Y-77286012D01*
X124816745Y-77285239D01*
X123416760Y-77284752D01*
X122114938Y-77284600D01*
X120907675Y-77284828D01*
X119791367Y-77285485D01*
X118762408Y-77286618D01*
X117817195Y-77288273D01*
X116952122Y-77290499D01*
X116163585Y-77293342D01*
X115447979Y-77296850D01*
X114801700Y-77301070D01*
X114221144Y-77306049D01*
X113702705Y-77311834D01*
X113242779Y-77318474D01*
X112837762Y-77326015D01*
X112484049Y-77334504D01*
X112178036Y-77343989D01*
X111916117Y-77354517D01*
X111694688Y-77366135D01*
X111510146Y-77378891D01*
X111358884Y-77392832D01*
X111237299Y-77408005D01*
X111141786Y-77424457D01*
X111068740Y-77442236D01*
X111014558Y-77461389D01*
X110975633Y-77481963D01*
X110948362Y-77504006D01*
X110929141Y-77527565D01*
X110914364Y-77552687D01*
X110900427Y-77579419D01*
X110883725Y-77607808D01*
X110860654Y-77637903D01*
X110853418Y-77645752D01*
X110769654Y-77736148D01*
X110700397Y-77824651D01*
X110644219Y-77923800D01*
X110599687Y-78046134D01*
X110565373Y-78204194D01*
X110539845Y-78410519D01*
X110521673Y-78677649D01*
X110509427Y-79018124D01*
X110501676Y-79444483D01*
X110496990Y-79969266D01*
X110493938Y-80605013D01*
X110493185Y-80803750D01*
X110491228Y-81366906D01*
X110489642Y-81896230D01*
X110488452Y-82376902D01*
X110487685Y-82794103D01*
X110487366Y-83133016D01*
X110487520Y-83378820D01*
X110488173Y-83516697D01*
X110488456Y-83534250D01*
X110497785Y-83994477D01*
X110499986Y-84331050D01*
X110495061Y-84547118D01*
X110489576Y-84613750D01*
X110484373Y-84719586D01*
X110480259Y-84938371D01*
X110477178Y-85256444D01*
X110475078Y-85660147D01*
X110473904Y-86135819D01*
X110473602Y-86669800D01*
X109804755Y-86669800D01*
X109792381Y-86301237D01*
X109781018Y-85839270D01*
X109775337Y-85418565D01*
X109775130Y-85028432D01*
X109780190Y-84658179D01*
X109790309Y-84297117D01*
X109805279Y-83934554D01*
X109824893Y-83559799D01*
X109848942Y-83162162D01*
X109876579Y-82740500D01*
X109913525Y-82177844D01*
X109953158Y-81553481D01*
X109992828Y-80910559D01*
X110029888Y-80292229D01*
X110061687Y-79741639D01*
X110071493Y-79565500D01*
X110101766Y-79043638D01*
X110131749Y-78630423D01*
X110166171Y-78307601D01*
X110209762Y-78056920D01*
X110267251Y-77860124D01*
X110343369Y-77698961D01*
X110442844Y-77555177D01*
X110570408Y-77410518D01*
X110651603Y-77326663D01*
X110681451Y-77292173D01*
X110703574Y-77259623D01*
X110721574Y-77228957D01*
X110739052Y-77200119D01*
X110759612Y-77173051D01*
X110786853Y-77147699D01*
X110824380Y-77124005D01*
X110875793Y-77101914D01*
X110944694Y-77081370D01*
X111034687Y-77062315D01*
X111149372Y-77044695D01*
X111292352Y-77028452D01*
X111467228Y-77013530D01*
X111677603Y-76999874D01*
X111927079Y-76987427D01*
X112219258Y-76976133D01*
X112557741Y-76965935D01*
X112946131Y-76956778D01*
X113388030Y-76948604D01*
X113887040Y-76941359D01*
X114446762Y-76934986D01*
X115070800Y-76929428D01*
X115762754Y-76924629D01*
X116526226Y-76920533D01*
X117364820Y-76917084D01*
X118282136Y-76914226D01*
X119281777Y-76911902D01*
X120367345Y-76910057D01*
X121542442Y-76908633D01*
X122810670Y-76907575D01*
X124175631Y-76906827D01*
X125640926Y-76906332D01*
X127210158Y-76906034D01*
X128886929Y-76905877D01*
X130674841Y-76905804D01*
X132577496Y-76905760D01*
X134598496Y-76905688D01*
X136741443Y-76905532D01*
X137639948Y-76905433D01*
X163742146Y-76902220D01*
X164124104Y-77082858D01*
D12*
G36*
X114554000Y-89535000D02*
G01*
X112268000Y-89535000D01*
X112268000Y-88773000D01*
X114554000Y-88773000D01*
X114554000Y-89535000D01*
G37*
X114554000Y-89535000D02*
X112268000Y-89535000D01*
X112268000Y-88773000D01*
X114554000Y-88773000D01*
X114554000Y-89535000D01*
G36*
X114554000Y-90805000D02*
G01*
X112268000Y-90805000D01*
X112268000Y-90043000D01*
X114554000Y-90043000D01*
X114554000Y-90805000D01*
G37*
X114554000Y-90805000D02*
X112268000Y-90805000D01*
X112268000Y-90043000D01*
X114554000Y-90043000D01*
X114554000Y-90805000D01*
M02*
