G04 #@! TF.GenerationSoftware,KiCad,Pcbnew,(5.1.8)-1*
G04 #@! TF.CreationDate,2021-04-08T16:30:14+02:00*
G04 #@! TF.ProjectId,C64 XUM1541-II,43363420-5855-44d3-9135-34312d49492e,rev?*
G04 #@! TF.SameCoordinates,Original*
G04 #@! TF.FileFunction,Legend,Top*
G04 #@! TF.FilePolarity,Positive*
%FSLAX46Y46*%
G04 Gerber Fmt 4.6, Leading zero omitted, Abs format (unit mm)*
G04 Created by KiCad (PCBNEW (5.1.8)-1) date 2021-04-08 16:30:14*
%MOMM*%
%LPD*%
G01*
G04 APERTURE LIST*
%ADD10C,0.150000*%
%ADD11C,0.100000*%
%ADD12C,0.120000*%
G04 APERTURE END LIST*
D10*
X166632380Y-74850000D02*
X166632380Y-75326190D01*
X165632380Y-75326190D01*
X166632380Y-74516666D02*
X165965714Y-74516666D01*
X165632380Y-74516666D02*
X165680000Y-74564285D01*
X165727619Y-74516666D01*
X165680000Y-74469047D01*
X165632380Y-74516666D01*
X165727619Y-74516666D01*
X166584761Y-73611904D02*
X166632380Y-73707142D01*
X166632380Y-73897619D01*
X166584761Y-73992857D01*
X166537142Y-74040476D01*
X166441904Y-74088095D01*
X166156190Y-74088095D01*
X166060952Y-74040476D01*
X166013333Y-73992857D01*
X165965714Y-73897619D01*
X165965714Y-73707142D01*
X166013333Y-73611904D01*
X166584761Y-72802380D02*
X166632380Y-72897619D01*
X166632380Y-73088095D01*
X166584761Y-73183333D01*
X166489523Y-73230952D01*
X166108571Y-73230952D01*
X166013333Y-73183333D01*
X165965714Y-73088095D01*
X165965714Y-72897619D01*
X166013333Y-72802380D01*
X166108571Y-72754761D01*
X166203809Y-72754761D01*
X166299047Y-73230952D01*
X165965714Y-72326190D02*
X166632380Y-72326190D01*
X166060952Y-72326190D02*
X166013333Y-72278571D01*
X165965714Y-72183333D01*
X165965714Y-72040476D01*
X166013333Y-71945238D01*
X166108571Y-71897619D01*
X166632380Y-71897619D01*
X166584761Y-71469047D02*
X166632380Y-71373809D01*
X166632380Y-71183333D01*
X166584761Y-71088095D01*
X166489523Y-71040476D01*
X166441904Y-71040476D01*
X166346666Y-71088095D01*
X166299047Y-71183333D01*
X166299047Y-71326190D01*
X166251428Y-71421428D01*
X166156190Y-71469047D01*
X166108571Y-71469047D01*
X166013333Y-71421428D01*
X165965714Y-71326190D01*
X165965714Y-71183333D01*
X166013333Y-71088095D01*
X166584761Y-70230952D02*
X166632380Y-70326190D01*
X166632380Y-70516666D01*
X166584761Y-70611904D01*
X166489523Y-70659523D01*
X166108571Y-70659523D01*
X166013333Y-70611904D01*
X165965714Y-70516666D01*
X165965714Y-70326190D01*
X166013333Y-70230952D01*
X166108571Y-70183333D01*
X166203809Y-70183333D01*
X166299047Y-70659523D01*
X166632380Y-69326190D02*
X165632380Y-69326190D01*
X166584761Y-69326190D02*
X166632380Y-69421428D01*
X166632380Y-69611904D01*
X166584761Y-69707142D01*
X166537142Y-69754761D01*
X166441904Y-69802380D01*
X166156190Y-69802380D01*
X166060952Y-69754761D01*
X166013333Y-69707142D01*
X165965714Y-69611904D01*
X165965714Y-69421428D01*
X166013333Y-69326190D01*
X165965714Y-67659523D02*
X166632380Y-67659523D01*
X165965714Y-68088095D02*
X166489523Y-68088095D01*
X166584761Y-68040476D01*
X166632380Y-67945238D01*
X166632380Y-67802380D01*
X166584761Y-67707142D01*
X166537142Y-67659523D01*
X165965714Y-67183333D02*
X166632380Y-67183333D01*
X166060952Y-67183333D02*
X166013333Y-67135714D01*
X165965714Y-67040476D01*
X165965714Y-66897619D01*
X166013333Y-66802380D01*
X166108571Y-66754761D01*
X166632380Y-66754761D01*
X166632380Y-65850000D02*
X165632380Y-65850000D01*
X166584761Y-65850000D02*
X166632380Y-65945238D01*
X166632380Y-66135714D01*
X166584761Y-66230952D01*
X166537142Y-66278571D01*
X166441904Y-66326190D01*
X166156190Y-66326190D01*
X166060952Y-66278571D01*
X166013333Y-66230952D01*
X165965714Y-66135714D01*
X165965714Y-65945238D01*
X166013333Y-65850000D01*
X166584761Y-64992857D02*
X166632380Y-65088095D01*
X166632380Y-65278571D01*
X166584761Y-65373809D01*
X166489523Y-65421428D01*
X166108571Y-65421428D01*
X166013333Y-65373809D01*
X165965714Y-65278571D01*
X165965714Y-65088095D01*
X166013333Y-64992857D01*
X166108571Y-64945238D01*
X166203809Y-64945238D01*
X166299047Y-65421428D01*
X166632380Y-64516666D02*
X165965714Y-64516666D01*
X166156190Y-64516666D02*
X166060952Y-64469047D01*
X166013333Y-64421428D01*
X165965714Y-64326190D01*
X165965714Y-64230952D01*
X168187142Y-75040476D02*
X168234761Y-75088095D01*
X168282380Y-75230952D01*
X168282380Y-75326190D01*
X168234761Y-75469047D01*
X168139523Y-75564285D01*
X168044285Y-75611904D01*
X167853809Y-75659523D01*
X167710952Y-75659523D01*
X167520476Y-75611904D01*
X167425238Y-75564285D01*
X167330000Y-75469047D01*
X167282380Y-75326190D01*
X167282380Y-75230952D01*
X167330000Y-75088095D01*
X167377619Y-75040476D01*
X167758571Y-74611904D02*
X167758571Y-74278571D01*
X168282380Y-74135714D02*
X168282380Y-74611904D01*
X167282380Y-74611904D01*
X167282380Y-74135714D01*
X168282380Y-73135714D02*
X167806190Y-73469047D01*
X168282380Y-73707142D02*
X167282380Y-73707142D01*
X167282380Y-73326190D01*
X167330000Y-73230952D01*
X167377619Y-73183333D01*
X167472857Y-73135714D01*
X167615714Y-73135714D01*
X167710952Y-73183333D01*
X167758571Y-73230952D01*
X167806190Y-73326190D01*
X167806190Y-73707142D01*
X168282380Y-72707142D02*
X167282380Y-72707142D01*
X168282380Y-72135714D01*
X167282380Y-72135714D01*
X167282380Y-70707142D02*
X167282380Y-70516666D01*
X167330000Y-70421428D01*
X167425238Y-70326190D01*
X167615714Y-70278571D01*
X167949047Y-70278571D01*
X168139523Y-70326190D01*
X168234761Y-70421428D01*
X168282380Y-70516666D01*
X168282380Y-70707142D01*
X168234761Y-70802380D01*
X168139523Y-70897619D01*
X167949047Y-70945238D01*
X167615714Y-70945238D01*
X167425238Y-70897619D01*
X167330000Y-70802380D01*
X167282380Y-70707142D01*
X168282380Y-69850000D02*
X167282380Y-69850000D01*
X167758571Y-69850000D02*
X167758571Y-69278571D01*
X168282380Y-69278571D02*
X167282380Y-69278571D01*
X168282380Y-68326190D02*
X168282380Y-68802380D01*
X167282380Y-68802380D01*
X167615714Y-67326190D02*
X168282380Y-67088095D01*
X167615714Y-66850000D01*
X168187142Y-66469047D02*
X168234761Y-66421428D01*
X168282380Y-66469047D01*
X168234761Y-66516666D01*
X168187142Y-66469047D01*
X168282380Y-66469047D01*
X168282380Y-65469047D02*
X168282380Y-66040476D01*
X168282380Y-65754761D02*
X167282380Y-65754761D01*
X167425238Y-65850000D01*
X167520476Y-65945238D01*
X167568095Y-66040476D01*
X168187142Y-65040476D02*
X168234761Y-64992857D01*
X168282380Y-65040476D01*
X168234761Y-65088095D01*
X168187142Y-65040476D01*
X168282380Y-65040476D01*
X167377619Y-64611904D02*
X167330000Y-64564285D01*
X167282380Y-64469047D01*
X167282380Y-64230952D01*
X167330000Y-64135714D01*
X167377619Y-64088095D01*
X167472857Y-64040476D01*
X167568095Y-64040476D01*
X167710952Y-64088095D01*
X168282380Y-64659523D01*
X168282380Y-64040476D01*
D11*
G36*
X123190000Y-73660000D02*
G01*
X121920000Y-73660000D01*
X121920000Y-72390000D01*
X123190000Y-72390000D01*
X123190000Y-73660000D01*
G37*
X123190000Y-73660000D02*
X121920000Y-73660000D01*
X121920000Y-72390000D01*
X123190000Y-72390000D01*
X123190000Y-73660000D01*
D10*
X121920000Y-72390000D02*
X123190000Y-72390000D01*
X166537142Y-93225238D02*
X166584761Y-93272857D01*
X166632380Y-93415714D01*
X166632380Y-93510952D01*
X166584761Y-93653809D01*
X166489523Y-93749047D01*
X166394285Y-93796666D01*
X166203809Y-93844285D01*
X166060952Y-93844285D01*
X165870476Y-93796666D01*
X165775238Y-93749047D01*
X165680000Y-93653809D01*
X165632380Y-93510952D01*
X165632380Y-93415714D01*
X165680000Y-93272857D01*
X165727619Y-93225238D01*
X165632380Y-92368095D02*
X165632380Y-92558571D01*
X165680000Y-92653809D01*
X165727619Y-92701428D01*
X165870476Y-92796666D01*
X166060952Y-92844285D01*
X166441904Y-92844285D01*
X166537142Y-92796666D01*
X166584761Y-92749047D01*
X166632380Y-92653809D01*
X166632380Y-92463333D01*
X166584761Y-92368095D01*
X166537142Y-92320476D01*
X166441904Y-92272857D01*
X166203809Y-92272857D01*
X166108571Y-92320476D01*
X166060952Y-92368095D01*
X166013333Y-92463333D01*
X166013333Y-92653809D01*
X166060952Y-92749047D01*
X166108571Y-92796666D01*
X166203809Y-92844285D01*
X165965714Y-91415714D02*
X166632380Y-91415714D01*
X165584761Y-91653809D02*
X166299047Y-91891904D01*
X166299047Y-91272857D01*
X165632380Y-90225238D02*
X166632380Y-89558571D01*
X165632380Y-89558571D02*
X166632380Y-90225238D01*
X165632380Y-89177619D02*
X166441904Y-89177619D01*
X166537142Y-89130000D01*
X166584761Y-89082380D01*
X166632380Y-88987142D01*
X166632380Y-88796666D01*
X166584761Y-88701428D01*
X166537142Y-88653809D01*
X166441904Y-88606190D01*
X165632380Y-88606190D01*
X166632380Y-88130000D02*
X165632380Y-88130000D01*
X166346666Y-87796666D01*
X165632380Y-87463333D01*
X166632380Y-87463333D01*
X166632380Y-86463333D02*
X166632380Y-87034761D01*
X166632380Y-86749047D02*
X165632380Y-86749047D01*
X165775238Y-86844285D01*
X165870476Y-86939523D01*
X165918095Y-87034761D01*
X165632380Y-85558571D02*
X165632380Y-86034761D01*
X166108571Y-86082380D01*
X166060952Y-86034761D01*
X166013333Y-85939523D01*
X166013333Y-85701428D01*
X166060952Y-85606190D01*
X166108571Y-85558571D01*
X166203809Y-85510952D01*
X166441904Y-85510952D01*
X166537142Y-85558571D01*
X166584761Y-85606190D01*
X166632380Y-85701428D01*
X166632380Y-85939523D01*
X166584761Y-86034761D01*
X166537142Y-86082380D01*
X165965714Y-84653809D02*
X166632380Y-84653809D01*
X165584761Y-84891904D02*
X166299047Y-85130000D01*
X166299047Y-84510952D01*
X166632380Y-83606190D02*
X166632380Y-84177619D01*
X166632380Y-83891904D02*
X165632380Y-83891904D01*
X165775238Y-83987142D01*
X165870476Y-84082380D01*
X165918095Y-84177619D01*
X166251428Y-83177619D02*
X166251428Y-82415714D01*
X166632380Y-81939523D02*
X165632380Y-81939523D01*
X166632380Y-81463333D02*
X165632380Y-81463333D01*
X167615714Y-93034761D02*
X168425238Y-93034761D01*
X168520476Y-93082380D01*
X168568095Y-93130000D01*
X168615714Y-93225238D01*
X168615714Y-93368095D01*
X168568095Y-93463333D01*
X168234761Y-93034761D02*
X168282380Y-93130000D01*
X168282380Y-93320476D01*
X168234761Y-93415714D01*
X168187142Y-93463333D01*
X168091904Y-93510952D01*
X167806190Y-93510952D01*
X167710952Y-93463333D01*
X167663333Y-93415714D01*
X167615714Y-93320476D01*
X167615714Y-93130000D01*
X167663333Y-93034761D01*
X168282380Y-92558571D02*
X167615714Y-92558571D01*
X167282380Y-92558571D02*
X167330000Y-92606190D01*
X167377619Y-92558571D01*
X167330000Y-92510952D01*
X167282380Y-92558571D01*
X167377619Y-92558571D01*
X167615714Y-92225238D02*
X167615714Y-91844285D01*
X167282380Y-92082380D02*
X168139523Y-92082380D01*
X168234761Y-92034761D01*
X168282380Y-91939523D01*
X168282380Y-91844285D01*
X168282380Y-91510952D02*
X167282380Y-91510952D01*
X168282380Y-91082380D02*
X167758571Y-91082380D01*
X167663333Y-91130000D01*
X167615714Y-91225238D01*
X167615714Y-91368095D01*
X167663333Y-91463333D01*
X167710952Y-91510952D01*
X167615714Y-90177619D02*
X168282380Y-90177619D01*
X167615714Y-90606190D02*
X168139523Y-90606190D01*
X168234761Y-90558571D01*
X168282380Y-90463333D01*
X168282380Y-90320476D01*
X168234761Y-90225238D01*
X168187142Y-90177619D01*
X168282380Y-89701428D02*
X167282380Y-89701428D01*
X167663333Y-89701428D02*
X167615714Y-89606190D01*
X167615714Y-89415714D01*
X167663333Y-89320476D01*
X167710952Y-89272857D01*
X167806190Y-89225238D01*
X168091904Y-89225238D01*
X168187142Y-89272857D01*
X168234761Y-89320476D01*
X168282380Y-89415714D01*
X168282380Y-89606190D01*
X168234761Y-89701428D01*
X168187142Y-88796666D02*
X168234761Y-88749047D01*
X168282380Y-88796666D01*
X168234761Y-88844285D01*
X168187142Y-88796666D01*
X168282380Y-88796666D01*
X168234761Y-87891904D02*
X168282380Y-87987142D01*
X168282380Y-88177619D01*
X168234761Y-88272857D01*
X168187142Y-88320476D01*
X168091904Y-88368095D01*
X167806190Y-88368095D01*
X167710952Y-88320476D01*
X167663333Y-88272857D01*
X167615714Y-88177619D01*
X167615714Y-87987142D01*
X167663333Y-87891904D01*
X168282380Y-87320476D02*
X168234761Y-87415714D01*
X168187142Y-87463333D01*
X168091904Y-87510952D01*
X167806190Y-87510952D01*
X167710952Y-87463333D01*
X167663333Y-87415714D01*
X167615714Y-87320476D01*
X167615714Y-87177619D01*
X167663333Y-87082380D01*
X167710952Y-87034761D01*
X167806190Y-86987142D01*
X168091904Y-86987142D01*
X168187142Y-87034761D01*
X168234761Y-87082380D01*
X168282380Y-87177619D01*
X168282380Y-87320476D01*
X168282380Y-86558571D02*
X167615714Y-86558571D01*
X167710952Y-86558571D02*
X167663333Y-86510952D01*
X167615714Y-86415714D01*
X167615714Y-86272857D01*
X167663333Y-86177619D01*
X167758571Y-86130000D01*
X168282380Y-86130000D01*
X167758571Y-86130000D02*
X167663333Y-86082380D01*
X167615714Y-85987142D01*
X167615714Y-85844285D01*
X167663333Y-85749047D01*
X167758571Y-85701428D01*
X168282380Y-85701428D01*
X167234761Y-84510952D02*
X168520476Y-85368095D01*
X167615714Y-84320476D02*
X167615714Y-83939523D01*
X167282380Y-84177619D02*
X168139523Y-84177619D01*
X168234761Y-84130000D01*
X168282380Y-84034761D01*
X168282380Y-83939523D01*
X168234761Y-83225238D02*
X168282380Y-83320476D01*
X168282380Y-83510952D01*
X168234761Y-83606190D01*
X168139523Y-83653809D01*
X167758571Y-83653809D01*
X167663333Y-83606190D01*
X167615714Y-83510952D01*
X167615714Y-83320476D01*
X167663333Y-83225238D01*
X167758571Y-83177619D01*
X167853809Y-83177619D01*
X167949047Y-83653809D01*
X168282380Y-82749047D02*
X167282380Y-82749047D01*
X167663333Y-82749047D02*
X167615714Y-82653809D01*
X167615714Y-82463333D01*
X167663333Y-82368095D01*
X167710952Y-82320476D01*
X167806190Y-82272857D01*
X168091904Y-82272857D01*
X168187142Y-82320476D01*
X168234761Y-82368095D01*
X168282380Y-82463333D01*
X168282380Y-82653809D01*
X168234761Y-82749047D01*
X168282380Y-81701428D02*
X168234761Y-81796666D01*
X168139523Y-81844285D01*
X167282380Y-81844285D01*
D12*
X111125000Y-93575000D02*
X111125000Y-92805000D01*
X111125000Y-85495000D02*
X111125000Y-86265000D01*
X112495000Y-92805000D02*
X112495000Y-86265000D01*
X109755000Y-92805000D02*
X112495000Y-92805000D01*
X109755000Y-86265000D02*
X109755000Y-92805000D01*
X112495000Y-86265000D02*
X109755000Y-86265000D01*
X107185000Y-66790000D02*
X107185000Y-57670000D01*
X107185000Y-57670000D02*
X140465000Y-57670000D01*
X140465000Y-57670000D02*
X140465000Y-66790000D01*
X140465000Y-66790000D02*
X107185000Y-66790000D01*
X121775000Y-66790000D02*
X121775000Y-65480000D01*
X121775000Y-65480000D02*
X108485000Y-65480000D01*
X108485000Y-65480000D02*
X108485000Y-58980000D01*
X108485000Y-58980000D02*
X139165000Y-58980000D01*
X139165000Y-58980000D02*
X139165000Y-65480000D01*
X139165000Y-65480000D02*
X125875000Y-65480000D01*
X125875000Y-65480000D02*
X125875000Y-65480000D01*
X125875000Y-65480000D02*
X125875000Y-66790000D01*
X112395000Y-67180000D02*
X111895000Y-68180000D01*
X111895000Y-68180000D02*
X112895000Y-68180000D01*
X112895000Y-68180000D02*
X112395000Y-67180000D01*
X113665000Y-64770000D02*
X113665000Y-59690000D01*
X113665000Y-59690000D02*
X133985000Y-59690000D01*
X133985000Y-59690000D02*
X133985000Y-64770000D01*
X133985000Y-64770000D02*
X125095000Y-64770000D01*
X125095000Y-64770000D02*
X125095000Y-65405000D01*
X125095000Y-65405000D02*
X122555000Y-65405000D01*
X122555000Y-65405000D02*
X122555000Y-64770000D01*
X122555000Y-64770000D02*
X113665000Y-64770000D01*
D10*
X153035000Y-54810000D02*
X163535000Y-54810000D01*
X153035000Y-54810000D02*
X142535000Y-54810000D01*
X142535000Y-56810000D02*
X142535000Y-54810000D01*
X163535000Y-56810000D02*
X142535000Y-56810000D01*
X163535000Y-54810000D02*
X163535000Y-56810000D01*
X145035000Y-67310000D02*
X145035000Y-56810000D01*
X160785000Y-56810000D02*
X160785000Y-67310000D01*
X147785000Y-70810000D02*
X145035000Y-67310000D01*
X153035000Y-72310000D02*
X147785000Y-70810000D01*
X158035000Y-70810000D02*
X153035000Y-72310000D01*
X160785000Y-67310000D02*
X158035000Y-70810000D01*
X133985000Y-69215000D02*
X113665000Y-69215000D01*
X133985000Y-103505000D02*
X133985000Y-69215000D01*
X113665000Y-69215000D02*
X113665000Y-103505000D01*
X127635000Y-104775000D02*
X120015000Y-104775000D01*
X127635000Y-103505000D02*
X127635000Y-104775000D01*
X133985000Y-103505000D02*
X127635000Y-103505000D01*
X120015000Y-103505000D02*
X113665000Y-103505000D01*
X120015000Y-104775000D02*
X120015000Y-103505000D01*
X121920000Y-70485000D02*
X121920000Y-71755000D01*
X123190000Y-70485000D02*
X121920000Y-70485000D01*
X123190000Y-71755000D02*
X123190000Y-70485000D01*
X121920000Y-71755000D02*
X123190000Y-71755000D01*
X123190000Y-73660000D02*
X123190000Y-72390000D01*
X121920000Y-73660000D02*
X123190000Y-73660000D01*
X121920000Y-72390000D02*
X121920000Y-73660000D01*
X123190000Y-72390000D02*
X121920000Y-72390000D01*
X131445000Y-103505000D02*
X131445000Y-102235000D01*
X131445000Y-100965000D02*
X131445000Y-99695000D01*
X131445000Y-98425000D02*
X131445000Y-97155000D01*
X131445000Y-95885000D02*
X131445000Y-94615000D01*
X131445000Y-93345000D02*
X131445000Y-92075000D01*
X131445000Y-90805000D02*
X131445000Y-89535000D01*
X131445000Y-88265000D02*
X131445000Y-86995000D01*
X131445000Y-85725000D02*
X131445000Y-84455000D01*
X131445000Y-83185000D02*
X131445000Y-81915000D01*
X131445000Y-80645000D02*
X131445000Y-79375000D01*
X131445000Y-78105000D02*
X131445000Y-76835000D01*
X131445000Y-75565000D02*
X131445000Y-74295000D01*
X131445000Y-73025000D02*
X131445000Y-71755000D01*
X131445000Y-70485000D02*
X131445000Y-69215000D01*
D12*
X140550000Y-86250000D02*
X140235000Y-86250000D01*
X142975000Y-86250000D02*
X142660000Y-86250000D01*
X140550000Y-81310000D02*
X140235000Y-81310000D01*
X142975000Y-81310000D02*
X142660000Y-81310000D01*
X140235000Y-81310000D02*
X140235000Y-86250000D01*
X142975000Y-81310000D02*
X142975000Y-86250000D01*
X111125000Y-72160000D02*
X111125000Y-72930000D01*
X111125000Y-80240000D02*
X111125000Y-79470000D01*
X109755000Y-72930000D02*
X109755000Y-79470000D01*
X112495000Y-72930000D02*
X109755000Y-72930000D01*
X112495000Y-79470000D02*
X112495000Y-72930000D01*
X109755000Y-79470000D02*
X112495000Y-79470000D01*
X158215000Y-93250000D02*
X155475000Y-93250000D01*
X155475000Y-93250000D02*
X155475000Y-99790000D01*
X155475000Y-99790000D02*
X158215000Y-99790000D01*
X158215000Y-99790000D02*
X158215000Y-93250000D01*
X156845000Y-92480000D02*
X156845000Y-93250000D01*
X156845000Y-100560000D02*
X156845000Y-99790000D01*
X145415000Y-100560000D02*
X145415000Y-99790000D01*
X145415000Y-92480000D02*
X145415000Y-93250000D01*
X146785000Y-99790000D02*
X146785000Y-93250000D01*
X144045000Y-99790000D02*
X146785000Y-99790000D01*
X144045000Y-93250000D02*
X144045000Y-99790000D01*
X146785000Y-93250000D02*
X144045000Y-93250000D01*
X160655000Y-100560000D02*
X160655000Y-99790000D01*
X160655000Y-92480000D02*
X160655000Y-93250000D01*
X162025000Y-99790000D02*
X162025000Y-93250000D01*
X159285000Y-99790000D02*
X162025000Y-99790000D01*
X159285000Y-93250000D02*
X159285000Y-99790000D01*
X162025000Y-93250000D02*
X159285000Y-93250000D01*
X153035000Y-100560000D02*
X153035000Y-99790000D01*
X153035000Y-92480000D02*
X153035000Y-93250000D01*
X154405000Y-99790000D02*
X154405000Y-93250000D01*
X151665000Y-99790000D02*
X154405000Y-99790000D01*
X151665000Y-93250000D02*
X151665000Y-99790000D01*
X154405000Y-93250000D02*
X151665000Y-93250000D01*
X150595000Y-93250000D02*
X147855000Y-93250000D01*
X147855000Y-93250000D02*
X147855000Y-99790000D01*
X147855000Y-99790000D02*
X150595000Y-99790000D01*
X150595000Y-99790000D02*
X150595000Y-93250000D01*
X149225000Y-92480000D02*
X149225000Y-93250000D01*
X149225000Y-100560000D02*
X149225000Y-99790000D01*
X105525000Y-70160000D02*
X104025000Y-70160000D01*
X101525000Y-71410000D02*
X101525000Y-75910000D01*
X104025000Y-77160000D02*
X105525000Y-77160000D01*
X108025000Y-75910000D02*
X108025000Y-71410000D01*
X144025000Y-78570000D02*
X144025000Y-89070000D01*
X162045000Y-78570000D02*
X144025000Y-78570000D01*
X162045000Y-89070000D02*
X162045000Y-78570000D01*
X144025000Y-89070000D02*
X162045000Y-89070000D01*
X144085000Y-81570000D02*
X144085000Y-82820000D01*
X161985000Y-81570000D02*
X144085000Y-81570000D01*
X161985000Y-86070000D02*
X161985000Y-81570000D01*
X144085000Y-86070000D02*
X161985000Y-86070000D01*
X144085000Y-84820000D02*
X144085000Y-86070000D01*
X144085000Y-82820000D02*
G75*
G02*
X144085000Y-84820000I0J-1000000D01*
G01*
X103230000Y-86380000D02*
X106320000Y-86380000D01*
X107275000Y-83820000D02*
G75*
G03*
X107275000Y-83820000I-2500000J0D01*
G01*
X104775462Y-80830000D02*
G75*
G03*
X103230170Y-86380000I-462J-2990000D01*
G01*
X104774538Y-80830000D02*
G75*
G02*
X106319830Y-86380000I462J-2990000D01*
G01*
X103230000Y-95270000D02*
X106320000Y-95270000D01*
X107275000Y-92710000D02*
G75*
G03*
X107275000Y-92710000I-2500000J0D01*
G01*
X104775462Y-89720000D02*
G75*
G03*
X103230170Y-95270000I-462J-2990000D01*
G01*
X104774538Y-89720000D02*
G75*
G02*
X106319830Y-95270000I462J-2990000D01*
G01*
D10*
X110958333Y-88082380D02*
X110625000Y-87606190D01*
X110386904Y-88082380D02*
X110386904Y-87082380D01*
X110767857Y-87082380D01*
X110863095Y-87130000D01*
X110910714Y-87177619D01*
X110958333Y-87272857D01*
X110958333Y-87415714D01*
X110910714Y-87510952D01*
X110863095Y-87558571D01*
X110767857Y-87606190D01*
X110386904Y-87606190D01*
X111815476Y-87415714D02*
X111815476Y-88082380D01*
X111577380Y-87034761D02*
X111339285Y-87749047D01*
X111958333Y-87749047D01*
X110910714Y-91566904D02*
X111577380Y-91566904D01*
X110529761Y-91805000D02*
X111244047Y-92043095D01*
X111244047Y-91424047D01*
X110577380Y-91138333D02*
X110577380Y-90471666D01*
X111577380Y-90900238D01*
X110577380Y-89900238D02*
X110577380Y-89805000D01*
X110625000Y-89709761D01*
X110672619Y-89662142D01*
X110767857Y-89614523D01*
X110958333Y-89566904D01*
X111196428Y-89566904D01*
X111386904Y-89614523D01*
X111482142Y-89662142D01*
X111529761Y-89709761D01*
X111577380Y-89805000D01*
X111577380Y-89900238D01*
X111529761Y-89995476D01*
X111482142Y-90043095D01*
X111386904Y-90090714D01*
X111196428Y-90138333D01*
X110958333Y-90138333D01*
X110767857Y-90090714D01*
X110672619Y-90043095D01*
X110625000Y-89995476D01*
X110577380Y-89900238D01*
X137461666Y-63587380D02*
X137461666Y-64301666D01*
X137414047Y-64444523D01*
X137318809Y-64539761D01*
X137175952Y-64587380D01*
X137080714Y-64587380D01*
X137890238Y-63682619D02*
X137937857Y-63635000D01*
X138033095Y-63587380D01*
X138271190Y-63587380D01*
X138366428Y-63635000D01*
X138414047Y-63682619D01*
X138461666Y-63777857D01*
X138461666Y-63873095D01*
X138414047Y-64015952D01*
X137842619Y-64587380D01*
X138461666Y-64587380D01*
X120539285Y-56967380D02*
X120539285Y-55967380D01*
X120920238Y-55967380D01*
X121015476Y-56015000D01*
X121063095Y-56062619D01*
X121110714Y-56157857D01*
X121110714Y-56300714D01*
X121063095Y-56395952D01*
X121015476Y-56443571D01*
X120920238Y-56491190D01*
X120539285Y-56491190D01*
X121491666Y-56681666D02*
X121967857Y-56681666D01*
X121396428Y-56967380D02*
X121729761Y-55967380D01*
X122063095Y-56967380D01*
X122967857Y-56967380D02*
X122634523Y-56491190D01*
X122396428Y-56967380D02*
X122396428Y-55967380D01*
X122777380Y-55967380D01*
X122872619Y-56015000D01*
X122920238Y-56062619D01*
X122967857Y-56157857D01*
X122967857Y-56300714D01*
X122920238Y-56395952D01*
X122872619Y-56443571D01*
X122777380Y-56491190D01*
X122396428Y-56491190D01*
X123348809Y-56681666D02*
X123825000Y-56681666D01*
X123253571Y-56967380D02*
X123586904Y-55967380D01*
X123920238Y-56967380D01*
X124729761Y-56967380D02*
X124253571Y-56967380D01*
X124253571Y-55967380D01*
X125539285Y-56967380D02*
X125063095Y-56967380D01*
X125063095Y-55967380D01*
X125872619Y-56443571D02*
X126205952Y-56443571D01*
X126348809Y-56967380D02*
X125872619Y-56967380D01*
X125872619Y-55967380D01*
X126348809Y-55967380D01*
X127253571Y-56967380D02*
X126777380Y-56967380D01*
X126777380Y-55967380D01*
X152451666Y-55262380D02*
X152451666Y-55976666D01*
X152404047Y-56119523D01*
X152308809Y-56214761D01*
X152165952Y-56262380D01*
X152070714Y-56262380D01*
X153451666Y-56262380D02*
X152880238Y-56262380D01*
X153165952Y-56262380D02*
X153165952Y-55262380D01*
X153070714Y-55405238D01*
X152975476Y-55500476D01*
X152880238Y-55548095D01*
X152082619Y-63512380D02*
X152082619Y-62512380D01*
X152558809Y-62988571D02*
X152892142Y-62988571D01*
X153035000Y-63512380D02*
X152558809Y-63512380D01*
X152558809Y-62512380D01*
X153035000Y-62512380D01*
X154035000Y-63417142D02*
X153987380Y-63464761D01*
X153844523Y-63512380D01*
X153749285Y-63512380D01*
X153606428Y-63464761D01*
X153511190Y-63369523D01*
X153463571Y-63274285D01*
X153415952Y-63083809D01*
X153415952Y-62940952D01*
X153463571Y-62750476D01*
X153511190Y-62655238D01*
X153606428Y-62560000D01*
X153749285Y-62512380D01*
X153844523Y-62512380D01*
X153987380Y-62560000D01*
X154035000Y-62607619D01*
X122721666Y-86439285D02*
X122721666Y-85963095D01*
X123007380Y-86534523D02*
X122007380Y-86201190D01*
X123007380Y-85867857D01*
X123007380Y-85010714D02*
X123007380Y-85582142D01*
X123007380Y-85296428D02*
X122007380Y-85296428D01*
X122150238Y-85391666D01*
X122245476Y-85486904D01*
X122293095Y-85582142D01*
X125261666Y-92344047D02*
X125261666Y-91867857D01*
X125547380Y-92439285D02*
X124547380Y-92105952D01*
X125547380Y-91772619D01*
X125547380Y-91439285D02*
X124880714Y-91439285D01*
X125071190Y-91439285D02*
X124975952Y-91391666D01*
X124928333Y-91344047D01*
X124880714Y-91248809D01*
X124880714Y-91153571D01*
X125547380Y-90391666D02*
X124547380Y-90391666D01*
X125499761Y-90391666D02*
X125547380Y-90486904D01*
X125547380Y-90677380D01*
X125499761Y-90772619D01*
X125452142Y-90820238D01*
X125356904Y-90867857D01*
X125071190Y-90867857D01*
X124975952Y-90820238D01*
X124928333Y-90772619D01*
X124880714Y-90677380D01*
X124880714Y-90486904D01*
X124928333Y-90391666D01*
X124880714Y-89486904D02*
X125547380Y-89486904D01*
X124880714Y-89915476D02*
X125404523Y-89915476D01*
X125499761Y-89867857D01*
X125547380Y-89772619D01*
X125547380Y-89629761D01*
X125499761Y-89534523D01*
X125452142Y-89486904D01*
X125547380Y-89010714D02*
X124880714Y-89010714D01*
X124547380Y-89010714D02*
X124595000Y-89058333D01*
X124642619Y-89010714D01*
X124595000Y-88963095D01*
X124547380Y-89010714D01*
X124642619Y-89010714D01*
X124880714Y-88534523D02*
X125547380Y-88534523D01*
X124975952Y-88534523D02*
X124928333Y-88486904D01*
X124880714Y-88391666D01*
X124880714Y-88248809D01*
X124928333Y-88153571D01*
X125023571Y-88105952D01*
X125547380Y-88105952D01*
X125547380Y-87486904D02*
X125499761Y-87582142D01*
X125452142Y-87629761D01*
X125356904Y-87677380D01*
X125071190Y-87677380D01*
X124975952Y-87629761D01*
X124928333Y-87582142D01*
X124880714Y-87486904D01*
X124880714Y-87344047D01*
X124928333Y-87248809D01*
X124975952Y-87201190D01*
X125071190Y-87153571D01*
X125356904Y-87153571D01*
X125452142Y-87201190D01*
X125499761Y-87248809D01*
X125547380Y-87344047D01*
X125547380Y-87486904D01*
X125642619Y-86963095D02*
X125642619Y-86201190D01*
X125547380Y-85963095D02*
X124547380Y-85963095D01*
X124547380Y-85582142D01*
X124595000Y-85486904D01*
X124642619Y-85439285D01*
X124737857Y-85391666D01*
X124880714Y-85391666D01*
X124975952Y-85439285D01*
X125023571Y-85486904D01*
X125071190Y-85582142D01*
X125071190Y-85963095D01*
X125547380Y-84963095D02*
X124880714Y-84963095D01*
X125071190Y-84963095D02*
X124975952Y-84915476D01*
X124928333Y-84867857D01*
X124880714Y-84772619D01*
X124880714Y-84677380D01*
X125547380Y-84201190D02*
X125499761Y-84296428D01*
X125452142Y-84344047D01*
X125356904Y-84391666D01*
X125071190Y-84391666D01*
X124975952Y-84344047D01*
X124928333Y-84296428D01*
X124880714Y-84201190D01*
X124880714Y-84058333D01*
X124928333Y-83963095D01*
X124975952Y-83915476D01*
X125071190Y-83867857D01*
X125356904Y-83867857D01*
X125452142Y-83915476D01*
X125499761Y-83963095D01*
X125547380Y-84058333D01*
X125547380Y-84201190D01*
X125642619Y-83677380D02*
X125642619Y-82915476D01*
X125547380Y-82677380D02*
X124547380Y-82677380D01*
X125261666Y-82344047D01*
X124547380Y-82010714D01*
X125547380Y-82010714D01*
X125547380Y-81534523D02*
X124880714Y-81534523D01*
X124547380Y-81534523D02*
X124595000Y-81582142D01*
X124642619Y-81534523D01*
X124595000Y-81486904D01*
X124547380Y-81534523D01*
X124642619Y-81534523D01*
X125499761Y-80629761D02*
X125547380Y-80725000D01*
X125547380Y-80915476D01*
X125499761Y-81010714D01*
X125452142Y-81058333D01*
X125356904Y-81105952D01*
X125071190Y-81105952D01*
X124975952Y-81058333D01*
X124928333Y-81010714D01*
X124880714Y-80915476D01*
X124880714Y-80725000D01*
X124928333Y-80629761D01*
X125547380Y-80201190D02*
X124880714Y-80201190D01*
X125071190Y-80201190D02*
X124975952Y-80153571D01*
X124928333Y-80105952D01*
X124880714Y-80010714D01*
X124880714Y-79915476D01*
X125547380Y-79439285D02*
X125499761Y-79534523D01*
X125452142Y-79582142D01*
X125356904Y-79629761D01*
X125071190Y-79629761D01*
X124975952Y-79582142D01*
X124928333Y-79534523D01*
X124880714Y-79439285D01*
X124880714Y-79296428D01*
X124928333Y-79201190D01*
X124975952Y-79153571D01*
X125071190Y-79105952D01*
X125356904Y-79105952D01*
X125452142Y-79153571D01*
X125499761Y-79201190D01*
X125547380Y-79296428D01*
X125547380Y-79439285D01*
X124301428Y-70572380D02*
X124920476Y-70572380D01*
X124587142Y-70953333D01*
X124730000Y-70953333D01*
X124825238Y-71000952D01*
X124872857Y-71048571D01*
X124920476Y-71143809D01*
X124920476Y-71381904D01*
X124872857Y-71477142D01*
X124825238Y-71524761D01*
X124730000Y-71572380D01*
X124444285Y-71572380D01*
X124349047Y-71524761D01*
X124301428Y-71477142D01*
X125349047Y-71477142D02*
X125396666Y-71524761D01*
X125349047Y-71572380D01*
X125301428Y-71524761D01*
X125349047Y-71477142D01*
X125349047Y-71572380D01*
X125730000Y-70572380D02*
X126349047Y-70572380D01*
X126015714Y-70953333D01*
X126158571Y-70953333D01*
X126253809Y-71000952D01*
X126301428Y-71048571D01*
X126349047Y-71143809D01*
X126349047Y-71381904D01*
X126301428Y-71477142D01*
X126253809Y-71524761D01*
X126158571Y-71572380D01*
X125872857Y-71572380D01*
X125777619Y-71524761D01*
X125730000Y-71477142D01*
X126682380Y-70905714D02*
X126920476Y-71572380D01*
X127158571Y-70905714D01*
X124952142Y-72477380D02*
X124475952Y-72477380D01*
X124428333Y-72953571D01*
X124475952Y-72905952D01*
X124571190Y-72858333D01*
X124809285Y-72858333D01*
X124904523Y-72905952D01*
X124952142Y-72953571D01*
X124999761Y-73048809D01*
X124999761Y-73286904D01*
X124952142Y-73382142D01*
X124904523Y-73429761D01*
X124809285Y-73477380D01*
X124571190Y-73477380D01*
X124475952Y-73429761D01*
X124428333Y-73382142D01*
X125333095Y-72810714D02*
X125571190Y-73477380D01*
X125809285Y-72810714D01*
X141438333Y-84137142D02*
X141390714Y-84184761D01*
X141247857Y-84232380D01*
X141152619Y-84232380D01*
X141009761Y-84184761D01*
X140914523Y-84089523D01*
X140866904Y-83994285D01*
X140819285Y-83803809D01*
X140819285Y-83660952D01*
X140866904Y-83470476D01*
X140914523Y-83375238D01*
X141009761Y-83280000D01*
X141152619Y-83232380D01*
X141247857Y-83232380D01*
X141390714Y-83280000D01*
X141438333Y-83327619D01*
X142390714Y-84232380D02*
X141819285Y-84232380D01*
X142105000Y-84232380D02*
X142105000Y-83232380D01*
X142009761Y-83375238D01*
X141914523Y-83470476D01*
X141819285Y-83518095D01*
X110958333Y-74747380D02*
X110625000Y-74271190D01*
X110386904Y-74747380D02*
X110386904Y-73747380D01*
X110767857Y-73747380D01*
X110863095Y-73795000D01*
X110910714Y-73842619D01*
X110958333Y-73937857D01*
X110958333Y-74080714D01*
X110910714Y-74175952D01*
X110863095Y-74223571D01*
X110767857Y-74271190D01*
X110386904Y-74271190D01*
X111910714Y-74747380D02*
X111339285Y-74747380D01*
X111625000Y-74747380D02*
X111625000Y-73747380D01*
X111529761Y-73890238D01*
X111434523Y-73985476D01*
X111339285Y-74033095D01*
X110910714Y-78231904D02*
X111577380Y-78231904D01*
X110529761Y-78470000D02*
X111244047Y-78708095D01*
X111244047Y-78089047D01*
X110577380Y-77803333D02*
X110577380Y-77136666D01*
X111577380Y-77565238D01*
X110577380Y-76565238D02*
X110577380Y-76470000D01*
X110625000Y-76374761D01*
X110672619Y-76327142D01*
X110767857Y-76279523D01*
X110958333Y-76231904D01*
X111196428Y-76231904D01*
X111386904Y-76279523D01*
X111482142Y-76327142D01*
X111529761Y-76374761D01*
X111577380Y-76470000D01*
X111577380Y-76565238D01*
X111529761Y-76660476D01*
X111482142Y-76708095D01*
X111386904Y-76755714D01*
X111196428Y-76803333D01*
X110958333Y-76803333D01*
X110767857Y-76755714D01*
X110672619Y-76708095D01*
X110625000Y-76660476D01*
X110577380Y-76565238D01*
X156678333Y-95067380D02*
X156345000Y-94591190D01*
X156106904Y-95067380D02*
X156106904Y-94067380D01*
X156487857Y-94067380D01*
X156583095Y-94115000D01*
X156630714Y-94162619D01*
X156678333Y-94257857D01*
X156678333Y-94400714D01*
X156630714Y-94495952D01*
X156583095Y-94543571D01*
X156487857Y-94591190D01*
X156106904Y-94591190D01*
X157059285Y-94162619D02*
X157106904Y-94115000D01*
X157202142Y-94067380D01*
X157440238Y-94067380D01*
X157535476Y-94115000D01*
X157583095Y-94162619D01*
X157630714Y-94257857D01*
X157630714Y-94353095D01*
X157583095Y-94495952D01*
X157011666Y-95067380D01*
X157630714Y-95067380D01*
X157297380Y-98861428D02*
X157297380Y-99432857D01*
X157297380Y-99147142D02*
X156297380Y-99147142D01*
X156440238Y-99242380D01*
X156535476Y-99337619D01*
X156583095Y-99432857D01*
X156297380Y-98242380D02*
X156297380Y-98147142D01*
X156345000Y-98051904D01*
X156392619Y-98004285D01*
X156487857Y-97956666D01*
X156678333Y-97909047D01*
X156916428Y-97909047D01*
X157106904Y-97956666D01*
X157202142Y-98004285D01*
X157249761Y-98051904D01*
X157297380Y-98147142D01*
X157297380Y-98242380D01*
X157249761Y-98337619D01*
X157202142Y-98385238D01*
X157106904Y-98432857D01*
X156916428Y-98480476D01*
X156678333Y-98480476D01*
X156487857Y-98432857D01*
X156392619Y-98385238D01*
X156345000Y-98337619D01*
X156297380Y-98242380D01*
X156297380Y-97290000D02*
X156297380Y-97194761D01*
X156345000Y-97099523D01*
X156392619Y-97051904D01*
X156487857Y-97004285D01*
X156678333Y-96956666D01*
X156916428Y-96956666D01*
X157106904Y-97004285D01*
X157202142Y-97051904D01*
X157249761Y-97099523D01*
X157297380Y-97194761D01*
X157297380Y-97290000D01*
X157249761Y-97385238D01*
X157202142Y-97432857D01*
X157106904Y-97480476D01*
X156916428Y-97528095D01*
X156678333Y-97528095D01*
X156487857Y-97480476D01*
X156392619Y-97432857D01*
X156345000Y-97385238D01*
X156297380Y-97290000D01*
X157297380Y-96528095D02*
X156297380Y-96528095D01*
X156916428Y-96432857D02*
X157297380Y-96147142D01*
X156630714Y-96147142D02*
X157011666Y-96528095D01*
X145248333Y-95067380D02*
X144915000Y-94591190D01*
X144676904Y-95067380D02*
X144676904Y-94067380D01*
X145057857Y-94067380D01*
X145153095Y-94115000D01*
X145200714Y-94162619D01*
X145248333Y-94257857D01*
X145248333Y-94400714D01*
X145200714Y-94495952D01*
X145153095Y-94543571D01*
X145057857Y-94591190D01*
X144676904Y-94591190D01*
X145581666Y-94067380D02*
X146200714Y-94067380D01*
X145867380Y-94448333D01*
X146010238Y-94448333D01*
X146105476Y-94495952D01*
X146153095Y-94543571D01*
X146200714Y-94638809D01*
X146200714Y-94876904D01*
X146153095Y-94972142D01*
X146105476Y-95019761D01*
X146010238Y-95067380D01*
X145724523Y-95067380D01*
X145629285Y-95019761D01*
X145581666Y-94972142D01*
X145867380Y-98861428D02*
X145867380Y-99432857D01*
X145867380Y-99147142D02*
X144867380Y-99147142D01*
X145010238Y-99242380D01*
X145105476Y-99337619D01*
X145153095Y-99432857D01*
X144867380Y-98242380D02*
X144867380Y-98147142D01*
X144915000Y-98051904D01*
X144962619Y-98004285D01*
X145057857Y-97956666D01*
X145248333Y-97909047D01*
X145486428Y-97909047D01*
X145676904Y-97956666D01*
X145772142Y-98004285D01*
X145819761Y-98051904D01*
X145867380Y-98147142D01*
X145867380Y-98242380D01*
X145819761Y-98337619D01*
X145772142Y-98385238D01*
X145676904Y-98432857D01*
X145486428Y-98480476D01*
X145248333Y-98480476D01*
X145057857Y-98432857D01*
X144962619Y-98385238D01*
X144915000Y-98337619D01*
X144867380Y-98242380D01*
X144867380Y-97290000D02*
X144867380Y-97194761D01*
X144915000Y-97099523D01*
X144962619Y-97051904D01*
X145057857Y-97004285D01*
X145248333Y-96956666D01*
X145486428Y-96956666D01*
X145676904Y-97004285D01*
X145772142Y-97051904D01*
X145819761Y-97099523D01*
X145867380Y-97194761D01*
X145867380Y-97290000D01*
X145819761Y-97385238D01*
X145772142Y-97432857D01*
X145676904Y-97480476D01*
X145486428Y-97528095D01*
X145248333Y-97528095D01*
X145057857Y-97480476D01*
X144962619Y-97432857D01*
X144915000Y-97385238D01*
X144867380Y-97290000D01*
X145867380Y-96528095D02*
X144867380Y-96528095D01*
X145486428Y-96432857D02*
X145867380Y-96147142D01*
X145200714Y-96147142D02*
X145581666Y-96528095D01*
X160488333Y-95067380D02*
X160155000Y-94591190D01*
X159916904Y-95067380D02*
X159916904Y-94067380D01*
X160297857Y-94067380D01*
X160393095Y-94115000D01*
X160440714Y-94162619D01*
X160488333Y-94257857D01*
X160488333Y-94400714D01*
X160440714Y-94495952D01*
X160393095Y-94543571D01*
X160297857Y-94591190D01*
X159916904Y-94591190D01*
X161393095Y-94067380D02*
X160916904Y-94067380D01*
X160869285Y-94543571D01*
X160916904Y-94495952D01*
X161012142Y-94448333D01*
X161250238Y-94448333D01*
X161345476Y-94495952D01*
X161393095Y-94543571D01*
X161440714Y-94638809D01*
X161440714Y-94876904D01*
X161393095Y-94972142D01*
X161345476Y-95019761D01*
X161250238Y-95067380D01*
X161012142Y-95067380D01*
X160916904Y-95019761D01*
X160869285Y-94972142D01*
X161107380Y-98861428D02*
X161107380Y-99432857D01*
X161107380Y-99147142D02*
X160107380Y-99147142D01*
X160250238Y-99242380D01*
X160345476Y-99337619D01*
X160393095Y-99432857D01*
X160107380Y-98242380D02*
X160107380Y-98147142D01*
X160155000Y-98051904D01*
X160202619Y-98004285D01*
X160297857Y-97956666D01*
X160488333Y-97909047D01*
X160726428Y-97909047D01*
X160916904Y-97956666D01*
X161012142Y-98004285D01*
X161059761Y-98051904D01*
X161107380Y-98147142D01*
X161107380Y-98242380D01*
X161059761Y-98337619D01*
X161012142Y-98385238D01*
X160916904Y-98432857D01*
X160726428Y-98480476D01*
X160488333Y-98480476D01*
X160297857Y-98432857D01*
X160202619Y-98385238D01*
X160155000Y-98337619D01*
X160107380Y-98242380D01*
X160107380Y-97290000D02*
X160107380Y-97194761D01*
X160155000Y-97099523D01*
X160202619Y-97051904D01*
X160297857Y-97004285D01*
X160488333Y-96956666D01*
X160726428Y-96956666D01*
X160916904Y-97004285D01*
X161012142Y-97051904D01*
X161059761Y-97099523D01*
X161107380Y-97194761D01*
X161107380Y-97290000D01*
X161059761Y-97385238D01*
X161012142Y-97432857D01*
X160916904Y-97480476D01*
X160726428Y-97528095D01*
X160488333Y-97528095D01*
X160297857Y-97480476D01*
X160202619Y-97432857D01*
X160155000Y-97385238D01*
X160107380Y-97290000D01*
X161107380Y-96528095D02*
X160107380Y-96528095D01*
X160726428Y-96432857D02*
X161107380Y-96147142D01*
X160440714Y-96147142D02*
X160821666Y-96528095D01*
X152868333Y-95067380D02*
X152535000Y-94591190D01*
X152296904Y-95067380D02*
X152296904Y-94067380D01*
X152677857Y-94067380D01*
X152773095Y-94115000D01*
X152820714Y-94162619D01*
X152868333Y-94257857D01*
X152868333Y-94400714D01*
X152820714Y-94495952D01*
X152773095Y-94543571D01*
X152677857Y-94591190D01*
X152296904Y-94591190D01*
X153725476Y-94067380D02*
X153535000Y-94067380D01*
X153439761Y-94115000D01*
X153392142Y-94162619D01*
X153296904Y-94305476D01*
X153249285Y-94495952D01*
X153249285Y-94876904D01*
X153296904Y-94972142D01*
X153344523Y-95019761D01*
X153439761Y-95067380D01*
X153630238Y-95067380D01*
X153725476Y-95019761D01*
X153773095Y-94972142D01*
X153820714Y-94876904D01*
X153820714Y-94638809D01*
X153773095Y-94543571D01*
X153725476Y-94495952D01*
X153630238Y-94448333D01*
X153439761Y-94448333D01*
X153344523Y-94495952D01*
X153296904Y-94543571D01*
X153249285Y-94638809D01*
X153487380Y-98861428D02*
X153487380Y-99432857D01*
X153487380Y-99147142D02*
X152487380Y-99147142D01*
X152630238Y-99242380D01*
X152725476Y-99337619D01*
X152773095Y-99432857D01*
X152487380Y-98242380D02*
X152487380Y-98147142D01*
X152535000Y-98051904D01*
X152582619Y-98004285D01*
X152677857Y-97956666D01*
X152868333Y-97909047D01*
X153106428Y-97909047D01*
X153296904Y-97956666D01*
X153392142Y-98004285D01*
X153439761Y-98051904D01*
X153487380Y-98147142D01*
X153487380Y-98242380D01*
X153439761Y-98337619D01*
X153392142Y-98385238D01*
X153296904Y-98432857D01*
X153106428Y-98480476D01*
X152868333Y-98480476D01*
X152677857Y-98432857D01*
X152582619Y-98385238D01*
X152535000Y-98337619D01*
X152487380Y-98242380D01*
X152487380Y-97290000D02*
X152487380Y-97194761D01*
X152535000Y-97099523D01*
X152582619Y-97051904D01*
X152677857Y-97004285D01*
X152868333Y-96956666D01*
X153106428Y-96956666D01*
X153296904Y-97004285D01*
X153392142Y-97051904D01*
X153439761Y-97099523D01*
X153487380Y-97194761D01*
X153487380Y-97290000D01*
X153439761Y-97385238D01*
X153392142Y-97432857D01*
X153296904Y-97480476D01*
X153106428Y-97528095D01*
X152868333Y-97528095D01*
X152677857Y-97480476D01*
X152582619Y-97432857D01*
X152535000Y-97385238D01*
X152487380Y-97290000D01*
X153487380Y-96528095D02*
X152487380Y-96528095D01*
X153106428Y-96432857D02*
X153487380Y-96147142D01*
X152820714Y-96147142D02*
X153201666Y-96528095D01*
X149058333Y-95067380D02*
X148725000Y-94591190D01*
X148486904Y-95067380D02*
X148486904Y-94067380D01*
X148867857Y-94067380D01*
X148963095Y-94115000D01*
X149010714Y-94162619D01*
X149058333Y-94257857D01*
X149058333Y-94400714D01*
X149010714Y-94495952D01*
X148963095Y-94543571D01*
X148867857Y-94591190D01*
X148486904Y-94591190D01*
X149391666Y-94067380D02*
X150058333Y-94067380D01*
X149629761Y-95067380D01*
X149677380Y-98861428D02*
X149677380Y-99432857D01*
X149677380Y-99147142D02*
X148677380Y-99147142D01*
X148820238Y-99242380D01*
X148915476Y-99337619D01*
X148963095Y-99432857D01*
X148677380Y-98242380D02*
X148677380Y-98147142D01*
X148725000Y-98051904D01*
X148772619Y-98004285D01*
X148867857Y-97956666D01*
X149058333Y-97909047D01*
X149296428Y-97909047D01*
X149486904Y-97956666D01*
X149582142Y-98004285D01*
X149629761Y-98051904D01*
X149677380Y-98147142D01*
X149677380Y-98242380D01*
X149629761Y-98337619D01*
X149582142Y-98385238D01*
X149486904Y-98432857D01*
X149296428Y-98480476D01*
X149058333Y-98480476D01*
X148867857Y-98432857D01*
X148772619Y-98385238D01*
X148725000Y-98337619D01*
X148677380Y-98242380D01*
X148677380Y-97290000D02*
X148677380Y-97194761D01*
X148725000Y-97099523D01*
X148772619Y-97051904D01*
X148867857Y-97004285D01*
X149058333Y-96956666D01*
X149296428Y-96956666D01*
X149486904Y-97004285D01*
X149582142Y-97051904D01*
X149629761Y-97099523D01*
X149677380Y-97194761D01*
X149677380Y-97290000D01*
X149629761Y-97385238D01*
X149582142Y-97432857D01*
X149486904Y-97480476D01*
X149296428Y-97528095D01*
X149058333Y-97528095D01*
X148867857Y-97480476D01*
X148772619Y-97432857D01*
X148725000Y-97385238D01*
X148677380Y-97290000D01*
X149677380Y-96528095D02*
X148677380Y-96528095D01*
X149296428Y-96432857D02*
X149677380Y-96147142D01*
X149010714Y-96147142D02*
X149391666Y-96528095D01*
X103322619Y-79827380D02*
X102989285Y-79351190D01*
X102751190Y-79827380D02*
X102751190Y-78827380D01*
X103132142Y-78827380D01*
X103227380Y-78875000D01*
X103275000Y-78922619D01*
X103322619Y-79017857D01*
X103322619Y-79160714D01*
X103275000Y-79255952D01*
X103227380Y-79303571D01*
X103132142Y-79351190D01*
X102751190Y-79351190D01*
X103751190Y-79303571D02*
X104084523Y-79303571D01*
X104227380Y-79827380D02*
X103751190Y-79827380D01*
X103751190Y-78827380D01*
X104227380Y-78827380D01*
X104608333Y-79779761D02*
X104751190Y-79827380D01*
X104989285Y-79827380D01*
X105084523Y-79779761D01*
X105132142Y-79732142D01*
X105179761Y-79636904D01*
X105179761Y-79541666D01*
X105132142Y-79446428D01*
X105084523Y-79398809D01*
X104989285Y-79351190D01*
X104798809Y-79303571D01*
X104703571Y-79255952D01*
X104655952Y-79208333D01*
X104608333Y-79113095D01*
X104608333Y-79017857D01*
X104655952Y-78922619D01*
X104703571Y-78875000D01*
X104798809Y-78827380D01*
X105036904Y-78827380D01*
X105179761Y-78875000D01*
X105608333Y-79303571D02*
X105941666Y-79303571D01*
X106084523Y-79827380D02*
X105608333Y-79827380D01*
X105608333Y-78827380D01*
X106084523Y-78827380D01*
X106370238Y-78827380D02*
X106941666Y-78827380D01*
X106655952Y-79827380D02*
X106655952Y-78827380D01*
D11*
X103708333Y-73983809D02*
X103822619Y-74021904D01*
X104013095Y-74021904D01*
X104089285Y-73983809D01*
X104127380Y-73945714D01*
X104165476Y-73869523D01*
X104165476Y-73793333D01*
X104127380Y-73717142D01*
X104089285Y-73679047D01*
X104013095Y-73640952D01*
X103860714Y-73602857D01*
X103784523Y-73564761D01*
X103746428Y-73526666D01*
X103708333Y-73450476D01*
X103708333Y-73374285D01*
X103746428Y-73298095D01*
X103784523Y-73260000D01*
X103860714Y-73221904D01*
X104051190Y-73221904D01*
X104165476Y-73260000D01*
X104432142Y-73221904D02*
X104622619Y-74021904D01*
X104775000Y-73450476D01*
X104927380Y-74021904D01*
X105117857Y-73221904D01*
X105841666Y-74021904D02*
X105384523Y-74021904D01*
X105613095Y-74021904D02*
X105613095Y-73221904D01*
X105536904Y-73336190D01*
X105460714Y-73412380D01*
X105384523Y-73450476D01*
D10*
X147193095Y-83272380D02*
X147193095Y-84081904D01*
X147240714Y-84177142D01*
X147288333Y-84224761D01*
X147383571Y-84272380D01*
X147574047Y-84272380D01*
X147669285Y-84224761D01*
X147716904Y-84177142D01*
X147764523Y-84081904D01*
X147764523Y-83272380D01*
X148764523Y-84272380D02*
X148193095Y-84272380D01*
X148478809Y-84272380D02*
X148478809Y-83272380D01*
X148383571Y-83415238D01*
X148288333Y-83510476D01*
X148193095Y-83558095D01*
X151273095Y-83272380D02*
X151939761Y-83272380D01*
X151511190Y-84272380D01*
X152749285Y-83605714D02*
X152749285Y-84272380D01*
X152511190Y-83224761D02*
X152273095Y-83939047D01*
X152892142Y-83939047D01*
X153463571Y-83272380D02*
X153558809Y-83272380D01*
X153654047Y-83320000D01*
X153701666Y-83367619D01*
X153749285Y-83462857D01*
X153796904Y-83653333D01*
X153796904Y-83891428D01*
X153749285Y-84081904D01*
X153701666Y-84177142D01*
X153654047Y-84224761D01*
X153558809Y-84272380D01*
X153463571Y-84272380D01*
X153368333Y-84224761D01*
X153320714Y-84177142D01*
X153273095Y-84081904D01*
X153225476Y-83891428D01*
X153225476Y-83653333D01*
X153273095Y-83462857D01*
X153320714Y-83367619D01*
X153368333Y-83320000D01*
X153463571Y-83272380D01*
X154654047Y-83272380D02*
X154463571Y-83272380D01*
X154368333Y-83320000D01*
X154320714Y-83367619D01*
X154225476Y-83510476D01*
X154177857Y-83700952D01*
X154177857Y-84081904D01*
X154225476Y-84177142D01*
X154273095Y-84224761D01*
X154368333Y-84272380D01*
X154558809Y-84272380D01*
X154654047Y-84224761D01*
X154701666Y-84177142D01*
X154749285Y-84081904D01*
X154749285Y-83843809D01*
X154701666Y-83748571D01*
X154654047Y-83700952D01*
X154558809Y-83653333D01*
X154368333Y-83653333D01*
X154273095Y-83700952D01*
X154225476Y-83748571D01*
X154177857Y-83843809D01*
X98877380Y-84558095D02*
X97877380Y-84558095D01*
X97877380Y-84320000D01*
X97925000Y-84177142D01*
X98020238Y-84081904D01*
X98115476Y-84034285D01*
X98305952Y-83986666D01*
X98448809Y-83986666D01*
X98639285Y-84034285D01*
X98734523Y-84081904D01*
X98829761Y-84177142D01*
X98877380Y-84320000D01*
X98877380Y-84558095D01*
X98877380Y-83034285D02*
X98877380Y-83605714D01*
X98877380Y-83320000D02*
X97877380Y-83320000D01*
X98020238Y-83415238D01*
X98115476Y-83510476D01*
X98163095Y-83605714D01*
X102465476Y-88717380D02*
X102465476Y-87717380D01*
X102846428Y-87717380D01*
X102941666Y-87765000D01*
X102989285Y-87812619D01*
X103036904Y-87907857D01*
X103036904Y-88050714D01*
X102989285Y-88145952D01*
X102941666Y-88193571D01*
X102846428Y-88241190D01*
X102465476Y-88241190D01*
X103655952Y-87717380D02*
X103846428Y-87717380D01*
X103941666Y-87765000D01*
X104036904Y-87860238D01*
X104084523Y-88050714D01*
X104084523Y-88384047D01*
X104036904Y-88574523D01*
X103941666Y-88669761D01*
X103846428Y-88717380D01*
X103655952Y-88717380D01*
X103560714Y-88669761D01*
X103465476Y-88574523D01*
X103417857Y-88384047D01*
X103417857Y-88050714D01*
X103465476Y-87860238D01*
X103560714Y-87765000D01*
X103655952Y-87717380D01*
X104417857Y-87717380D02*
X104655952Y-88717380D01*
X104846428Y-88003095D01*
X105036904Y-88717380D01*
X105275000Y-87717380D01*
X105655952Y-88193571D02*
X105989285Y-88193571D01*
X106132142Y-88717380D02*
X105655952Y-88717380D01*
X105655952Y-87717380D01*
X106132142Y-87717380D01*
X107132142Y-88717380D02*
X106798809Y-88241190D01*
X106560714Y-88717380D02*
X106560714Y-87717380D01*
X106941666Y-87717380D01*
X107036904Y-87765000D01*
X107084523Y-87812619D01*
X107132142Y-87907857D01*
X107132142Y-88050714D01*
X107084523Y-88145952D01*
X107036904Y-88193571D01*
X106941666Y-88241190D01*
X106560714Y-88241190D01*
X98877380Y-93448095D02*
X97877380Y-93448095D01*
X97877380Y-93210000D01*
X97925000Y-93067142D01*
X98020238Y-92971904D01*
X98115476Y-92924285D01*
X98305952Y-92876666D01*
X98448809Y-92876666D01*
X98639285Y-92924285D01*
X98734523Y-92971904D01*
X98829761Y-93067142D01*
X98877380Y-93210000D01*
X98877380Y-93448095D01*
X97972619Y-92495714D02*
X97925000Y-92448095D01*
X97877380Y-92352857D01*
X97877380Y-92114761D01*
X97925000Y-92019523D01*
X97972619Y-91971904D01*
X98067857Y-91924285D01*
X98163095Y-91924285D01*
X98305952Y-91971904D01*
X98877380Y-92543333D01*
X98877380Y-91924285D01*
X102894047Y-97607380D02*
X102894047Y-96607380D01*
X103132142Y-96607380D01*
X103275000Y-96655000D01*
X103370238Y-96750238D01*
X103417857Y-96845476D01*
X103465476Y-97035952D01*
X103465476Y-97178809D01*
X103417857Y-97369285D01*
X103370238Y-97464523D01*
X103275000Y-97559761D01*
X103132142Y-97607380D01*
X102894047Y-97607380D01*
X104465476Y-97607380D02*
X104132142Y-97131190D01*
X103894047Y-97607380D02*
X103894047Y-96607380D01*
X104275000Y-96607380D01*
X104370238Y-96655000D01*
X104417857Y-96702619D01*
X104465476Y-96797857D01*
X104465476Y-96940714D01*
X104417857Y-97035952D01*
X104370238Y-97083571D01*
X104275000Y-97131190D01*
X103894047Y-97131190D01*
X104894047Y-97607380D02*
X104894047Y-96607380D01*
X105227380Y-96607380D02*
X105560714Y-97607380D01*
X105894047Y-96607380D01*
X106227380Y-97083571D02*
X106560714Y-97083571D01*
X106703571Y-97607380D02*
X106227380Y-97607380D01*
X106227380Y-96607380D01*
X106703571Y-96607380D01*
M02*
