M48
INCH,TZ
T1C0.0157
T2C0.0300
T3C0.0315
T4C0.0354
T5C0.0394
T6C0.0433
T7C0.1200
%
G90
G05
T1
X46000Y-34000
X46250Y-33000
X46500Y-32000
X46750Y-29500
X47000Y-26500
X47000Y-28500
X47250Y-31500
X47500Y-26500
X47500Y-30500
X48000Y-26500
X48500Y-26500
X49750Y-34250
X50000Y-34000
X50250Y-34750
X50500Y-35500
X56000Y-37000
X56250Y-36750
X56250Y-37311
X56750Y-33000
X57478Y-33250
X57750Y-30750
X58000Y-30500
X61750Y-33750
X62500Y-33500
T3
X57250Y-36000
X57250Y-40000
X63250Y-36000
X63250Y-40000
X58750Y-36000
X58750Y-40000
X57250Y-31500
X57250Y-34500
X58250Y-31500
X58250Y-34500
X59250Y-31500
X59250Y-34500
X60250Y-31500
X60250Y-34500
X61250Y-31500
X61250Y-34500
X62250Y-31500
X62250Y-34500
X63250Y-31500
X63250Y-34500
X55750Y-32000
X55750Y-33969
X43750Y-28000
X43750Y-32000
X60250Y-36000
X60250Y-40000
X61750Y-36000
X61750Y-40000
X43750Y-33250
X43750Y-37250
T4
X41250Y-36000
X41250Y-37000
X41250Y-32500
X41250Y-33500
T5
X45250Y-28250
X45250Y-29250
X45250Y-30250
X45250Y-31250
X45250Y-32250
X45250Y-33250
X45250Y-34250
X45250Y-35250
X45250Y-36250
X45250Y-37250
X45250Y-38250
X45250Y-39250
X51250Y-28250
X51250Y-29250
X51250Y-30250
X51250Y-31250
X51250Y-32250
X51250Y-33250
X51250Y-34250
X51250Y-35250
X51250Y-36250
X51250Y-37250
X51250Y-38250
X51250Y-39250
X52250Y-28250
X52250Y-29250
X52250Y-30250
X52250Y-31250
X52250Y-32250
X52250Y-33250
X52250Y-34250
X52250Y-35250
X52250Y-36250
X52250Y-37250
X52250Y-38250
X52250Y-39250
X44250Y-24000
X44250Y-25000
X45250Y-24000
X45250Y-25000
X46250Y-24000
X46250Y-25000
X47250Y-24000
X47250Y-25000
X48250Y-24000
X48250Y-25000
X49250Y-24000
X49250Y-25000
X50250Y-24000
X50250Y-25000
X51250Y-24000
X51250Y-25000
X52250Y-24000
X52250Y-25000
X53250Y-24000
X53250Y-25000
T6
X40364Y-27720
X40364Y-30280
X42136Y-27720
X42136Y-30280
T7
X65750Y-22750
X40500Y-39500
X40500Y-22750
X65750Y-39500
T2
G00X57297Y-26606
M15
G01X57297Y-26394
M16
G05
G00X58368Y-22563
M15
G01X58195Y-22563
M16
G05
G00X58281Y-27590
M15
G01X58281Y-27378
M16
G05
G00X60250Y-26606
M15
G01X60250Y-26394
M16
G05
G00X60336Y-28469
M15
G01X60164Y-28469
M16
G05
G00X62305Y-22563
M15
G01X62132Y-22563
M16
G05
G00X62219Y-27590
M15
G01X62219Y-27378
M16
G05
G00X63203Y-26606
M15
G01X63203Y-26394
M16
G05
T0
M30
