G04 #@! TF.GenerationSoftware,KiCad,Pcbnew,(5.1.8)-1*
G04 #@! TF.CreationDate,2021-04-08T16:30:14+02:00*
G04 #@! TF.ProjectId,C64 XUM1541-II,43363420-5855-44d3-9135-34312d49492e,rev?*
G04 #@! TF.SameCoordinates,Original*
G04 #@! TF.FileFunction,Soldermask,Top*
G04 #@! TF.FilePolarity,Negative*
%FSLAX46Y46*%
G04 Gerber Fmt 4.6, Leading zero omitted, Abs format (unit mm)*
G04 Created by KiCad (PCBNEW (5.1.8)-1) date 2021-04-08 16:30:14*
%MOMM*%
%LPD*%
G01*
G04 APERTURE LIST*
%ADD10C,1.600000*%
%ADD11O,1.600000X1.600000*%
%ADD12C,1.700000*%
%ADD13O,2.000000X1.524000*%
%ADD14O,1.524000X2.000000*%
%ADD15C,5.100000*%
%ADD16C,2.000000*%
%ADD17R,1.600000X2.400000*%
%ADD18O,1.600000X2.400000*%
%ADD19R,1.800000X1.800000*%
%ADD20C,1.800000*%
G04 APERTURE END LIST*
D10*
X111125000Y-84455000D03*
D11*
X111125000Y-94615000D03*
D12*
X112395000Y-60960000D03*
X114935000Y-60960000D03*
X117475000Y-60960000D03*
X120015000Y-60960000D03*
X122555000Y-60960000D03*
X125095000Y-60960000D03*
X127635000Y-60960000D03*
X130175000Y-60960000D03*
X132715000Y-60960000D03*
X135255000Y-63500000D03*
X130175000Y-63500000D03*
X125095000Y-63500000D03*
X120015000Y-63500000D03*
X114935000Y-63500000D03*
X135255000Y-60960000D03*
X132715000Y-63500000D03*
X127635000Y-63500000D03*
X122555000Y-63500000D03*
X117475000Y-63500000D03*
G36*
G01*
X112995000Y-64350000D02*
X111795000Y-64350000D01*
G75*
G02*
X111545000Y-64100000I0J250000D01*
G01*
X111545000Y-62900000D01*
G75*
G02*
X111795000Y-62650000I250000J0D01*
G01*
X112995000Y-62650000D01*
G75*
G02*
X113245000Y-62900000I0J-250000D01*
G01*
X113245000Y-64100000D01*
G75*
G02*
X112995000Y-64350000I-250000J0D01*
G01*
G37*
D13*
X153035000Y-72310000D03*
D14*
X153035000Y-67310000D03*
D13*
X148035000Y-57310000D03*
X158035000Y-57310000D03*
D14*
X145535000Y-67310000D03*
X160535000Y-67310000D03*
X148035000Y-69810000D03*
X158035000Y-69810000D03*
D12*
X130175000Y-71755000D03*
X130175000Y-74295000D03*
X130175000Y-76835000D03*
X130175000Y-79375000D03*
X130175000Y-81915000D03*
X130175000Y-84455000D03*
X130175000Y-86995000D03*
X130175000Y-89535000D03*
X130175000Y-92075000D03*
X130175000Y-94615000D03*
X130175000Y-97155000D03*
X130175000Y-99695000D03*
X132715000Y-97155000D03*
X132715000Y-94615000D03*
X132715000Y-92075000D03*
X132715000Y-89535000D03*
X132715000Y-86995000D03*
X132715000Y-84455000D03*
X132715000Y-81915000D03*
X132715000Y-79375000D03*
X132715000Y-76835000D03*
X132715000Y-74295000D03*
X132715000Y-71755000D03*
X114935000Y-71755000D03*
X114935000Y-74295000D03*
X114935000Y-76835000D03*
X114935000Y-79375000D03*
X114935000Y-81915000D03*
X114935000Y-84455000D03*
X114935000Y-86995000D03*
X114935000Y-89535000D03*
X114935000Y-92075000D03*
X114935000Y-94615000D03*
X114935000Y-97155000D03*
X114935000Y-99695000D03*
X132715000Y-99695000D03*
D10*
X141605000Y-81280000D03*
X141605000Y-86280000D03*
D15*
X102870000Y-100330000D03*
X167005000Y-100330000D03*
X167005000Y-57785000D03*
X102870000Y-57785000D03*
D10*
X111125000Y-81280000D03*
D11*
X111125000Y-71120000D03*
X156845000Y-101600000D03*
D10*
X156845000Y-91440000D03*
X145415000Y-91440000D03*
D11*
X145415000Y-101600000D03*
D10*
X160655000Y-91440000D03*
D11*
X160655000Y-101600000D03*
D10*
X153035000Y-91440000D03*
D11*
X153035000Y-101600000D03*
X149225000Y-101600000D03*
D10*
X149225000Y-91440000D03*
D16*
X107025000Y-76910000D03*
X102525000Y-76910000D03*
X107025000Y-70410000D03*
X102525000Y-70410000D03*
D17*
X145415000Y-87630000D03*
D18*
X160655000Y-80010000D03*
X147955000Y-87630000D03*
X158115000Y-80010000D03*
X150495000Y-87630000D03*
X155575000Y-80010000D03*
X153035000Y-87630000D03*
X153035000Y-80010000D03*
X155575000Y-87630000D03*
X150495000Y-80010000D03*
X158115000Y-87630000D03*
X147955000Y-80010000D03*
X160655000Y-87630000D03*
X145415000Y-80010000D03*
D19*
X104775000Y-85090000D03*
D20*
X104775000Y-82550000D03*
D19*
X104775000Y-93980000D03*
D20*
X104775000Y-91440000D03*
M02*
