%TF.GenerationSoftware,KiCad,Pcbnew,(5.1.8)-1*%
%TF.CreationDate,2021-04-08T23:39:19+02:00*%
%TF.ProjectId,C64 1541-II ROM Adapter,43363420-3135-4343-912d-494920524f4d,rev?*%
%TF.SameCoordinates,Original*%
%TF.FileFunction,Copper,L2,Bot*%
%TF.FilePolarity,Positive*%
%FSLAX46Y46*%
G04 Gerber Fmt 4.6, Leading zero omitted, Abs format (unit mm)*
G04 Created by KiCad (PCBNEW (5.1.8)-1) date 2021-04-08 23:39:19*
%MOMM*%
%LPD*%
G01*
G04 APERTURE LIST*
%TA.AperFunction,ComponentPad*%
%ADD10R,1.600000X1.600000*%
%TD*%
%TA.AperFunction,ComponentPad*%
%ADD11O,1.600000X1.600000*%
%TD*%
%TA.AperFunction,ComponentPad*%
%ADD12C,1.600000*%
%TD*%
%TA.AperFunction,ViaPad*%
%ADD13C,0.800000*%
%TD*%
%TA.AperFunction,Conductor*%
%ADD14C,0.381000*%
%TD*%
%TA.AperFunction,Conductor*%
%ADD15C,0.250000*%
%TD*%
%TA.AperFunction,Conductor*%
%ADD16C,0.254000*%
%TD*%
%TA.AperFunction,Conductor*%
%ADD17C,0.100000*%
%TD*%
G04 APERTURE END LIST*
D10*
%TO.P,A1,1*%
%TO.N,N/C*%
X102235000Y-62230000D03*
D11*
%TO.P,A1,15*%
%TO.N,/D3*%
X117475000Y-95250000D03*
%TO.P,A1,2*%
%TO.N,/A12*%
X102235000Y-64770000D03*
%TO.P,A1,16*%
%TO.N,/D4*%
X117475000Y-92710000D03*
%TO.P,A1,3*%
%TO.N,/A7*%
X102235000Y-67310000D03*
%TO.P,A1,17*%
%TO.N,/D5*%
X117475000Y-90170000D03*
%TO.P,A1,4*%
%TO.N,/A6*%
X102235000Y-69850000D03*
%TO.P,A1,18*%
%TO.N,/D6*%
X117475000Y-87630000D03*
%TO.P,A1,5*%
%TO.N,/A5*%
X102235000Y-72390000D03*
%TO.P,A1,19*%
%TO.N,/D7*%
X117475000Y-85090000D03*
%TO.P,A1,6*%
%TO.N,/A4*%
X102235000Y-74930000D03*
%TO.P,A1,20*%
%TO.N,/~CE*%
X117475000Y-82550000D03*
%TO.P,A1,7*%
%TO.N,/A3*%
X102235000Y-77470000D03*
%TO.P,A1,21*%
%TO.N,/A10*%
X117475000Y-80010000D03*
%TO.P,A1,8*%
%TO.N,/A2*%
X102235000Y-80010000D03*
%TO.P,A1,22*%
%TO.N,/~OE*%
X117475000Y-77470000D03*
%TO.P,A1,9*%
%TO.N,/A1*%
X102235000Y-82550000D03*
%TO.P,A1,23*%
%TO.N,/A11*%
X117475000Y-74930000D03*
%TO.P,A1,10*%
%TO.N,/A0*%
X102235000Y-85090000D03*
%TO.P,A1,24*%
%TO.N,/A9*%
X117475000Y-72390000D03*
%TO.P,A1,11*%
%TO.N,/D0*%
X102235000Y-87630000D03*
%TO.P,A1,25*%
%TO.N,/A8*%
X117475000Y-69850000D03*
%TO.P,A1,12*%
%TO.N,/D1*%
X102235000Y-90170000D03*
%TO.P,A1,26*%
%TO.N,/A13*%
X117475000Y-67310000D03*
%TO.P,A1,13*%
%TO.N,/D2*%
X102235000Y-92710000D03*
%TO.P,A1,27*%
%TO.N,N/C*%
X117475000Y-64770000D03*
%TO.P,A1,14*%
%TO.N,GND*%
X102235000Y-95250000D03*
%TO.P,A1,28*%
%TO.N,VCC*%
X117475000Y-62230000D03*
%TD*%
%TO.P,R1,2*%
%TO.N,/A14*%
X110744000Y-98552000D03*
D12*
%TO.P,R1,1*%
%TO.N,VCC*%
X120904000Y-98552000D03*
%TD*%
%TO.P,R2,1*%
%TO.N,VCC*%
X120904000Y-101854000D03*
D11*
%TO.P,R2,2*%
%TO.N,/A15*%
X110744000Y-101854000D03*
%TD*%
D10*
%TO.P,U1,1*%
%TO.N,/A15*%
X105410000Y-62230000D03*
D11*
%TO.P,U1,15*%
%TO.N,/D3*%
X120650000Y-95250000D03*
%TO.P,U1,2*%
%TO.N,/A12*%
X105410000Y-64770000D03*
%TO.P,U1,16*%
%TO.N,/D4*%
X120650000Y-92710000D03*
%TO.P,U1,3*%
%TO.N,/A7*%
X105410000Y-67310000D03*
%TO.P,U1,17*%
%TO.N,/D5*%
X120650000Y-90170000D03*
%TO.P,U1,4*%
%TO.N,/A6*%
X105410000Y-69850000D03*
%TO.P,U1,18*%
%TO.N,/D6*%
X120650000Y-87630000D03*
%TO.P,U1,5*%
%TO.N,/A5*%
X105410000Y-72390000D03*
%TO.P,U1,19*%
%TO.N,/D7*%
X120650000Y-85090000D03*
%TO.P,U1,6*%
%TO.N,/A4*%
X105410000Y-74930000D03*
%TO.P,U1,20*%
%TO.N,/~CE*%
X120650000Y-82550000D03*
%TO.P,U1,7*%
%TO.N,/A3*%
X105410000Y-77470000D03*
%TO.P,U1,21*%
%TO.N,/A10*%
X120650000Y-80010000D03*
%TO.P,U1,8*%
%TO.N,/A2*%
X105410000Y-80010000D03*
%TO.P,U1,22*%
%TO.N,/~OE*%
X120650000Y-77470000D03*
%TO.P,U1,9*%
%TO.N,/A1*%
X105410000Y-82550000D03*
%TO.P,U1,23*%
%TO.N,/A11*%
X120650000Y-74930000D03*
%TO.P,U1,10*%
%TO.N,/A0*%
X105410000Y-85090000D03*
%TO.P,U1,24*%
%TO.N,/A9*%
X120650000Y-72390000D03*
%TO.P,U1,11*%
%TO.N,/D0*%
X105410000Y-87630000D03*
%TO.P,U1,25*%
%TO.N,/A8*%
X120650000Y-69850000D03*
%TO.P,U1,12*%
%TO.N,/D1*%
X105410000Y-90170000D03*
%TO.P,U1,26*%
%TO.N,/A13*%
X120650000Y-67310000D03*
%TO.P,U1,13*%
%TO.N,/D2*%
X105410000Y-92710000D03*
%TO.P,U1,27*%
%TO.N,/A14*%
X120650000Y-64770000D03*
%TO.P,U1,14*%
%TO.N,GND*%
X105410000Y-95250000D03*
%TO.P,U1,28*%
%TO.N,VCC*%
X120650000Y-62230000D03*
%TD*%
D13*
%TO.N,/A14*%
X105410000Y-97282000D03*
%TD*%
D14*
%TO.N,VCC*%
X117475000Y-62230000D02*
X119126000Y-62230000D01*
X120650000Y-62230000D02*
X119126000Y-62230000D01*
X119126000Y-62230000D02*
X119126000Y-97536000D01*
X119126000Y-97536000D02*
X119126000Y-97790000D01*
X119888000Y-98552000D02*
X119126000Y-97790000D01*
X120904000Y-98552000D02*
X119888000Y-98552000D01*
X119126000Y-98044000D02*
X119126000Y-97790000D01*
X119126000Y-101092000D02*
X119126000Y-98044000D01*
X119888000Y-101854000D02*
X119126000Y-101092000D01*
X120904000Y-101854000D02*
X119888000Y-101854000D01*
D15*
%TO.N,/A14*%
X110744000Y-98552000D02*
X109474000Y-97282000D01*
X105410000Y-97282000D02*
X109474000Y-97282000D01*
%TD*%
D16*
%TO.N,GND*%
X104079463Y-61075506D02*
X104020498Y-61185820D01*
X103984188Y-61305518D01*
X103971928Y-61430000D01*
X103971928Y-63030000D01*
X103984188Y-63154482D01*
X104020498Y-63274180D01*
X104079463Y-63384494D01*
X104158815Y-63481185D01*
X104255506Y-63560537D01*
X104365820Y-63619502D01*
X104485518Y-63655812D01*
X104493961Y-63656643D01*
X104295363Y-63855241D01*
X104138320Y-64090273D01*
X104030147Y-64351426D01*
X103975000Y-64628665D01*
X103975000Y-64911335D01*
X104030147Y-65188574D01*
X104138320Y-65449727D01*
X104295363Y-65684759D01*
X104495241Y-65884637D01*
X104727759Y-66040000D01*
X104495241Y-66195363D01*
X104295363Y-66395241D01*
X104138320Y-66630273D01*
X104030147Y-66891426D01*
X103975000Y-67168665D01*
X103975000Y-67451335D01*
X104030147Y-67728574D01*
X104138320Y-67989727D01*
X104295363Y-68224759D01*
X104495241Y-68424637D01*
X104727759Y-68580000D01*
X104495241Y-68735363D01*
X104295363Y-68935241D01*
X104138320Y-69170273D01*
X104030147Y-69431426D01*
X103975000Y-69708665D01*
X103975000Y-69991335D01*
X104030147Y-70268574D01*
X104138320Y-70529727D01*
X104295363Y-70764759D01*
X104495241Y-70964637D01*
X104727759Y-71120000D01*
X104495241Y-71275363D01*
X104295363Y-71475241D01*
X104138320Y-71710273D01*
X104030147Y-71971426D01*
X103975000Y-72248665D01*
X103975000Y-72531335D01*
X104030147Y-72808574D01*
X104138320Y-73069727D01*
X104295363Y-73304759D01*
X104495241Y-73504637D01*
X104727759Y-73660000D01*
X104495241Y-73815363D01*
X104295363Y-74015241D01*
X104138320Y-74250273D01*
X104030147Y-74511426D01*
X103975000Y-74788665D01*
X103975000Y-75071335D01*
X104030147Y-75348574D01*
X104138320Y-75609727D01*
X104295363Y-75844759D01*
X104495241Y-76044637D01*
X104727759Y-76200000D01*
X104495241Y-76355363D01*
X104295363Y-76555241D01*
X104138320Y-76790273D01*
X104030147Y-77051426D01*
X103975000Y-77328665D01*
X103975000Y-77611335D01*
X104030147Y-77888574D01*
X104138320Y-78149727D01*
X104295363Y-78384759D01*
X104495241Y-78584637D01*
X104727759Y-78740000D01*
X104495241Y-78895363D01*
X104295363Y-79095241D01*
X104138320Y-79330273D01*
X104030147Y-79591426D01*
X103975000Y-79868665D01*
X103975000Y-80151335D01*
X104030147Y-80428574D01*
X104138320Y-80689727D01*
X104295363Y-80924759D01*
X104495241Y-81124637D01*
X104727759Y-81280000D01*
X104495241Y-81435363D01*
X104295363Y-81635241D01*
X104138320Y-81870273D01*
X104030147Y-82131426D01*
X103975000Y-82408665D01*
X103975000Y-82691335D01*
X104030147Y-82968574D01*
X104138320Y-83229727D01*
X104295363Y-83464759D01*
X104495241Y-83664637D01*
X104727759Y-83820000D01*
X104495241Y-83975363D01*
X104295363Y-84175241D01*
X104138320Y-84410273D01*
X104030147Y-84671426D01*
X103975000Y-84948665D01*
X103975000Y-85231335D01*
X104030147Y-85508574D01*
X104138320Y-85769727D01*
X104295363Y-86004759D01*
X104495241Y-86204637D01*
X104727759Y-86360000D01*
X104495241Y-86515363D01*
X104295363Y-86715241D01*
X104138320Y-86950273D01*
X104030147Y-87211426D01*
X103975000Y-87488665D01*
X103975000Y-87771335D01*
X104030147Y-88048574D01*
X104138320Y-88309727D01*
X104295363Y-88544759D01*
X104495241Y-88744637D01*
X104727759Y-88900000D01*
X104495241Y-89055363D01*
X104295363Y-89255241D01*
X104138320Y-89490273D01*
X104030147Y-89751426D01*
X103975000Y-90028665D01*
X103975000Y-90311335D01*
X104030147Y-90588574D01*
X104138320Y-90849727D01*
X104295363Y-91084759D01*
X104495241Y-91284637D01*
X104727759Y-91440000D01*
X104495241Y-91595363D01*
X104295363Y-91795241D01*
X104138320Y-92030273D01*
X104030147Y-92291426D01*
X103975000Y-92568665D01*
X103975000Y-92851335D01*
X104030147Y-93128574D01*
X104138320Y-93389727D01*
X104295363Y-93624759D01*
X104495241Y-93824637D01*
X104730273Y-93981680D01*
X104740865Y-93986067D01*
X104554869Y-94097615D01*
X104346481Y-94286586D01*
X104178963Y-94512580D01*
X104058754Y-94766913D01*
X104018096Y-94900961D01*
X104140085Y-95123000D01*
X105283000Y-95123000D01*
X105283000Y-95103000D01*
X105537000Y-95103000D01*
X105537000Y-95123000D01*
X106679915Y-95123000D01*
X106801904Y-94900961D01*
X106761246Y-94766913D01*
X106641037Y-94512580D01*
X106473519Y-94286586D01*
X106265131Y-94097615D01*
X106079135Y-93986067D01*
X106089727Y-93981680D01*
X106324759Y-93824637D01*
X106524637Y-93624759D01*
X106681680Y-93389727D01*
X106789853Y-93128574D01*
X106845000Y-92851335D01*
X106845000Y-92568665D01*
X106789853Y-92291426D01*
X106681680Y-92030273D01*
X106524637Y-91795241D01*
X106324759Y-91595363D01*
X106092241Y-91440000D01*
X106324759Y-91284637D01*
X106524637Y-91084759D01*
X106681680Y-90849727D01*
X106789853Y-90588574D01*
X106845000Y-90311335D01*
X106845000Y-90028665D01*
X106789853Y-89751426D01*
X106681680Y-89490273D01*
X106524637Y-89255241D01*
X106324759Y-89055363D01*
X106092241Y-88900000D01*
X106324759Y-88744637D01*
X106524637Y-88544759D01*
X106681680Y-88309727D01*
X106789853Y-88048574D01*
X106845000Y-87771335D01*
X106845000Y-87488665D01*
X106789853Y-87211426D01*
X106681680Y-86950273D01*
X106524637Y-86715241D01*
X106324759Y-86515363D01*
X106092241Y-86360000D01*
X106324759Y-86204637D01*
X106524637Y-86004759D01*
X106681680Y-85769727D01*
X106789853Y-85508574D01*
X106845000Y-85231335D01*
X106845000Y-84948665D01*
X106789853Y-84671426D01*
X106681680Y-84410273D01*
X106524637Y-84175241D01*
X106324759Y-83975363D01*
X106092241Y-83820000D01*
X106324759Y-83664637D01*
X106524637Y-83464759D01*
X106681680Y-83229727D01*
X106789853Y-82968574D01*
X106845000Y-82691335D01*
X106845000Y-82408665D01*
X106789853Y-82131426D01*
X106681680Y-81870273D01*
X106524637Y-81635241D01*
X106324759Y-81435363D01*
X106092241Y-81280000D01*
X106324759Y-81124637D01*
X106524637Y-80924759D01*
X106681680Y-80689727D01*
X106789853Y-80428574D01*
X106845000Y-80151335D01*
X106845000Y-79868665D01*
X106789853Y-79591426D01*
X106681680Y-79330273D01*
X106524637Y-79095241D01*
X106324759Y-78895363D01*
X106092241Y-78740000D01*
X106324759Y-78584637D01*
X106524637Y-78384759D01*
X106681680Y-78149727D01*
X106789853Y-77888574D01*
X106845000Y-77611335D01*
X106845000Y-77328665D01*
X106789853Y-77051426D01*
X106681680Y-76790273D01*
X106524637Y-76555241D01*
X106324759Y-76355363D01*
X106092241Y-76200000D01*
X106324759Y-76044637D01*
X106524637Y-75844759D01*
X106681680Y-75609727D01*
X106789853Y-75348574D01*
X106845000Y-75071335D01*
X106845000Y-74788665D01*
X106789853Y-74511426D01*
X106681680Y-74250273D01*
X106524637Y-74015241D01*
X106324759Y-73815363D01*
X106092241Y-73660000D01*
X106324759Y-73504637D01*
X106524637Y-73304759D01*
X106681680Y-73069727D01*
X106789853Y-72808574D01*
X106845000Y-72531335D01*
X106845000Y-72248665D01*
X106789853Y-71971426D01*
X106681680Y-71710273D01*
X106524637Y-71475241D01*
X106324759Y-71275363D01*
X106092241Y-71120000D01*
X106324759Y-70964637D01*
X106524637Y-70764759D01*
X106681680Y-70529727D01*
X106789853Y-70268574D01*
X106845000Y-69991335D01*
X106845000Y-69708665D01*
X106789853Y-69431426D01*
X106681680Y-69170273D01*
X106524637Y-68935241D01*
X106324759Y-68735363D01*
X106092241Y-68580000D01*
X106324759Y-68424637D01*
X106524637Y-68224759D01*
X106681680Y-67989727D01*
X106789853Y-67728574D01*
X106845000Y-67451335D01*
X106845000Y-67168665D01*
X106789853Y-66891426D01*
X106681680Y-66630273D01*
X106524637Y-66395241D01*
X106324759Y-66195363D01*
X106092241Y-66040000D01*
X106324759Y-65884637D01*
X106524637Y-65684759D01*
X106681680Y-65449727D01*
X106789853Y-65188574D01*
X106845000Y-64911335D01*
X106845000Y-64628665D01*
X106789853Y-64351426D01*
X106681680Y-64090273D01*
X106524637Y-63855241D01*
X106326039Y-63656643D01*
X106334482Y-63655812D01*
X106454180Y-63619502D01*
X106564494Y-63560537D01*
X106661185Y-63481185D01*
X106740537Y-63384494D01*
X106799502Y-63274180D01*
X106835812Y-63154482D01*
X106848072Y-63030000D01*
X106848072Y-61430000D01*
X106835812Y-61305518D01*
X106799502Y-61185820D01*
X106740537Y-61075506D01*
X106666261Y-60985000D01*
X116755343Y-60985000D01*
X116560241Y-61115363D01*
X116360363Y-61315241D01*
X116203320Y-61550273D01*
X116095147Y-61811426D01*
X116040000Y-62088665D01*
X116040000Y-62371335D01*
X116095147Y-62648574D01*
X116203320Y-62909727D01*
X116360363Y-63144759D01*
X116560241Y-63344637D01*
X116792759Y-63500000D01*
X116560241Y-63655363D01*
X116360363Y-63855241D01*
X116203320Y-64090273D01*
X116095147Y-64351426D01*
X116040000Y-64628665D01*
X116040000Y-64911335D01*
X116095147Y-65188574D01*
X116203320Y-65449727D01*
X116360363Y-65684759D01*
X116560241Y-65884637D01*
X116792759Y-66040000D01*
X116560241Y-66195363D01*
X116360363Y-66395241D01*
X116203320Y-66630273D01*
X116095147Y-66891426D01*
X116040000Y-67168665D01*
X116040000Y-67451335D01*
X116095147Y-67728574D01*
X116203320Y-67989727D01*
X116360363Y-68224759D01*
X116560241Y-68424637D01*
X116792759Y-68580000D01*
X116560241Y-68735363D01*
X116360363Y-68935241D01*
X116203320Y-69170273D01*
X116095147Y-69431426D01*
X116040000Y-69708665D01*
X116040000Y-69991335D01*
X116095147Y-70268574D01*
X116203320Y-70529727D01*
X116360363Y-70764759D01*
X116560241Y-70964637D01*
X116792759Y-71120000D01*
X116560241Y-71275363D01*
X116360363Y-71475241D01*
X116203320Y-71710273D01*
X116095147Y-71971426D01*
X116040000Y-72248665D01*
X116040000Y-72531335D01*
X116095147Y-72808574D01*
X116203320Y-73069727D01*
X116360363Y-73304759D01*
X116560241Y-73504637D01*
X116792759Y-73660000D01*
X116560241Y-73815363D01*
X116360363Y-74015241D01*
X116203320Y-74250273D01*
X116095147Y-74511426D01*
X116040000Y-74788665D01*
X116040000Y-75071335D01*
X116095147Y-75348574D01*
X116203320Y-75609727D01*
X116360363Y-75844759D01*
X116560241Y-76044637D01*
X116792759Y-76200000D01*
X116560241Y-76355363D01*
X116360363Y-76555241D01*
X116203320Y-76790273D01*
X116095147Y-77051426D01*
X116040000Y-77328665D01*
X116040000Y-77611335D01*
X116095147Y-77888574D01*
X116203320Y-78149727D01*
X116360363Y-78384759D01*
X116560241Y-78584637D01*
X116792759Y-78740000D01*
X116560241Y-78895363D01*
X116360363Y-79095241D01*
X116203320Y-79330273D01*
X116095147Y-79591426D01*
X116040000Y-79868665D01*
X116040000Y-80151335D01*
X116095147Y-80428574D01*
X116203320Y-80689727D01*
X116360363Y-80924759D01*
X116560241Y-81124637D01*
X116792759Y-81280000D01*
X116560241Y-81435363D01*
X116360363Y-81635241D01*
X116203320Y-81870273D01*
X116095147Y-82131426D01*
X116040000Y-82408665D01*
X116040000Y-82691335D01*
X116095147Y-82968574D01*
X116203320Y-83229727D01*
X116360363Y-83464759D01*
X116560241Y-83664637D01*
X116792759Y-83820000D01*
X116560241Y-83975363D01*
X116360363Y-84175241D01*
X116203320Y-84410273D01*
X116095147Y-84671426D01*
X116040000Y-84948665D01*
X116040000Y-85231335D01*
X116095147Y-85508574D01*
X116203320Y-85769727D01*
X116360363Y-86004759D01*
X116560241Y-86204637D01*
X116792759Y-86360000D01*
X116560241Y-86515363D01*
X116360363Y-86715241D01*
X116203320Y-86950273D01*
X116095147Y-87211426D01*
X116040000Y-87488665D01*
X116040000Y-87771335D01*
X116095147Y-88048574D01*
X116203320Y-88309727D01*
X116360363Y-88544759D01*
X116560241Y-88744637D01*
X116792759Y-88900000D01*
X116560241Y-89055363D01*
X116360363Y-89255241D01*
X116203320Y-89490273D01*
X116095147Y-89751426D01*
X116040000Y-90028665D01*
X116040000Y-90311335D01*
X116095147Y-90588574D01*
X116203320Y-90849727D01*
X116360363Y-91084759D01*
X116560241Y-91284637D01*
X116792759Y-91440000D01*
X116560241Y-91595363D01*
X116360363Y-91795241D01*
X116203320Y-92030273D01*
X116095147Y-92291426D01*
X116040000Y-92568665D01*
X116040000Y-92851335D01*
X116095147Y-93128574D01*
X116203320Y-93389727D01*
X116360363Y-93624759D01*
X116560241Y-93824637D01*
X116792759Y-93980000D01*
X116560241Y-94135363D01*
X116360363Y-94335241D01*
X116203320Y-94570273D01*
X116095147Y-94831426D01*
X116040000Y-95108665D01*
X116040000Y-95391335D01*
X116095147Y-95668574D01*
X116203320Y-95929727D01*
X116360363Y-96164759D01*
X116560241Y-96364637D01*
X116795273Y-96521680D01*
X117056426Y-96629853D01*
X117333665Y-96685000D01*
X117616335Y-96685000D01*
X117893574Y-96629853D01*
X118154727Y-96521680D01*
X118300501Y-96424277D01*
X118300501Y-97495438D01*
X118300500Y-97495448D01*
X118300500Y-97749447D01*
X118296506Y-97790000D01*
X118300500Y-97830550D01*
X118300500Y-98084552D01*
X118300501Y-98084562D01*
X118300500Y-101051449D01*
X118296506Y-101092000D01*
X118300500Y-101132550D01*
X118300500Y-101132552D01*
X118312444Y-101253825D01*
X118316580Y-101267459D01*
X118359647Y-101409433D01*
X118436301Y-101552842D01*
X118470214Y-101594165D01*
X118539459Y-101678541D01*
X118570965Y-101704397D01*
X119275611Y-102409044D01*
X119301459Y-102440541D01*
X119332955Y-102466389D01*
X119332958Y-102466392D01*
X119427157Y-102543699D01*
X119570566Y-102620353D01*
X119720615Y-102665870D01*
X119789363Y-102768759D01*
X119865604Y-102845000D01*
X111782396Y-102845000D01*
X111858637Y-102768759D01*
X112015680Y-102533727D01*
X112123853Y-102272574D01*
X112179000Y-101995335D01*
X112179000Y-101712665D01*
X112123853Y-101435426D01*
X112015680Y-101174273D01*
X111858637Y-100939241D01*
X111658759Y-100739363D01*
X111423727Y-100582320D01*
X111162574Y-100474147D01*
X110885335Y-100419000D01*
X110602665Y-100419000D01*
X110325426Y-100474147D01*
X110064273Y-100582320D01*
X109829241Y-100739363D01*
X109629363Y-100939241D01*
X109472320Y-101174273D01*
X109364147Y-101435426D01*
X109309000Y-101712665D01*
X109309000Y-101995335D01*
X109364147Y-102272574D01*
X109472320Y-102533727D01*
X109629363Y-102768759D01*
X109705604Y-102845000D01*
X100997275Y-102845000D01*
X100990487Y-102844335D01*
X100990000Y-102839699D01*
X100990000Y-95957878D01*
X101003963Y-95987420D01*
X101171481Y-96213414D01*
X101379869Y-96402385D01*
X101621119Y-96547070D01*
X101885960Y-96641909D01*
X102108000Y-96520624D01*
X102108000Y-95377000D01*
X102362000Y-95377000D01*
X102362000Y-96520624D01*
X102584040Y-96641909D01*
X102848881Y-96547070D01*
X103090131Y-96402385D01*
X103298519Y-96213414D01*
X103466037Y-95987420D01*
X103586246Y-95733087D01*
X103626904Y-95599039D01*
X104018096Y-95599039D01*
X104058754Y-95733087D01*
X104178963Y-95987420D01*
X104346481Y-96213414D01*
X104554869Y-96402385D01*
X104724294Y-96503995D01*
X104606063Y-96622226D01*
X104492795Y-96791744D01*
X104414774Y-96980102D01*
X104375000Y-97180061D01*
X104375000Y-97383939D01*
X104414774Y-97583898D01*
X104492795Y-97772256D01*
X104606063Y-97941774D01*
X104750226Y-98085937D01*
X104919744Y-98199205D01*
X105108102Y-98277226D01*
X105308061Y-98317000D01*
X105511939Y-98317000D01*
X105711898Y-98277226D01*
X105900256Y-98199205D01*
X106069774Y-98085937D01*
X106113711Y-98042000D01*
X109159199Y-98042000D01*
X109345312Y-98228114D01*
X109309000Y-98410665D01*
X109309000Y-98693335D01*
X109364147Y-98970574D01*
X109472320Y-99231727D01*
X109629363Y-99466759D01*
X109829241Y-99666637D01*
X110064273Y-99823680D01*
X110325426Y-99931853D01*
X110602665Y-99987000D01*
X110885335Y-99987000D01*
X111162574Y-99931853D01*
X111423727Y-99823680D01*
X111658759Y-99666637D01*
X111858637Y-99466759D01*
X112015680Y-99231727D01*
X112123853Y-98970574D01*
X112179000Y-98693335D01*
X112179000Y-98410665D01*
X112123853Y-98133426D01*
X112015680Y-97872273D01*
X111858637Y-97637241D01*
X111658759Y-97437363D01*
X111423727Y-97280320D01*
X111162574Y-97172147D01*
X110885335Y-97117000D01*
X110602665Y-97117000D01*
X110420114Y-97153312D01*
X110037804Y-96771003D01*
X110014001Y-96741999D01*
X109898276Y-96647026D01*
X109766247Y-96576454D01*
X109622986Y-96532997D01*
X109511333Y-96522000D01*
X109511322Y-96522000D01*
X109474000Y-96518324D01*
X109436678Y-96522000D01*
X106113711Y-96522000D01*
X106095706Y-96503995D01*
X106265131Y-96402385D01*
X106473519Y-96213414D01*
X106641037Y-95987420D01*
X106761246Y-95733087D01*
X106801904Y-95599039D01*
X106679915Y-95377000D01*
X105537000Y-95377000D01*
X105537000Y-95397000D01*
X105283000Y-95397000D01*
X105283000Y-95377000D01*
X104140085Y-95377000D01*
X104018096Y-95599039D01*
X103626904Y-95599039D01*
X103504915Y-95377000D01*
X102362000Y-95377000D01*
X102108000Y-95377000D01*
X102088000Y-95377000D01*
X102088000Y-95123000D01*
X102108000Y-95123000D01*
X102108000Y-95103000D01*
X102362000Y-95103000D01*
X102362000Y-95123000D01*
X103504915Y-95123000D01*
X103626904Y-94900961D01*
X103586246Y-94766913D01*
X103466037Y-94512580D01*
X103298519Y-94286586D01*
X103090131Y-94097615D01*
X102904135Y-93986067D01*
X102914727Y-93981680D01*
X103149759Y-93824637D01*
X103349637Y-93624759D01*
X103506680Y-93389727D01*
X103614853Y-93128574D01*
X103670000Y-92851335D01*
X103670000Y-92568665D01*
X103614853Y-92291426D01*
X103506680Y-92030273D01*
X103349637Y-91795241D01*
X103149759Y-91595363D01*
X102917241Y-91440000D01*
X103149759Y-91284637D01*
X103349637Y-91084759D01*
X103506680Y-90849727D01*
X103614853Y-90588574D01*
X103670000Y-90311335D01*
X103670000Y-90028665D01*
X103614853Y-89751426D01*
X103506680Y-89490273D01*
X103349637Y-89255241D01*
X103149759Y-89055363D01*
X102917241Y-88900000D01*
X103149759Y-88744637D01*
X103349637Y-88544759D01*
X103506680Y-88309727D01*
X103614853Y-88048574D01*
X103670000Y-87771335D01*
X103670000Y-87488665D01*
X103614853Y-87211426D01*
X103506680Y-86950273D01*
X103349637Y-86715241D01*
X103149759Y-86515363D01*
X102917241Y-86360000D01*
X103149759Y-86204637D01*
X103349637Y-86004759D01*
X103506680Y-85769727D01*
X103614853Y-85508574D01*
X103670000Y-85231335D01*
X103670000Y-84948665D01*
X103614853Y-84671426D01*
X103506680Y-84410273D01*
X103349637Y-84175241D01*
X103149759Y-83975363D01*
X102917241Y-83820000D01*
X103149759Y-83664637D01*
X103349637Y-83464759D01*
X103506680Y-83229727D01*
X103614853Y-82968574D01*
X103670000Y-82691335D01*
X103670000Y-82408665D01*
X103614853Y-82131426D01*
X103506680Y-81870273D01*
X103349637Y-81635241D01*
X103149759Y-81435363D01*
X102917241Y-81280000D01*
X103149759Y-81124637D01*
X103349637Y-80924759D01*
X103506680Y-80689727D01*
X103614853Y-80428574D01*
X103670000Y-80151335D01*
X103670000Y-79868665D01*
X103614853Y-79591426D01*
X103506680Y-79330273D01*
X103349637Y-79095241D01*
X103149759Y-78895363D01*
X102917241Y-78740000D01*
X103149759Y-78584637D01*
X103349637Y-78384759D01*
X103506680Y-78149727D01*
X103614853Y-77888574D01*
X103670000Y-77611335D01*
X103670000Y-77328665D01*
X103614853Y-77051426D01*
X103506680Y-76790273D01*
X103349637Y-76555241D01*
X103149759Y-76355363D01*
X102917241Y-76200000D01*
X103149759Y-76044637D01*
X103349637Y-75844759D01*
X103506680Y-75609727D01*
X103614853Y-75348574D01*
X103670000Y-75071335D01*
X103670000Y-74788665D01*
X103614853Y-74511426D01*
X103506680Y-74250273D01*
X103349637Y-74015241D01*
X103149759Y-73815363D01*
X102917241Y-73660000D01*
X103149759Y-73504637D01*
X103349637Y-73304759D01*
X103506680Y-73069727D01*
X103614853Y-72808574D01*
X103670000Y-72531335D01*
X103670000Y-72248665D01*
X103614853Y-71971426D01*
X103506680Y-71710273D01*
X103349637Y-71475241D01*
X103149759Y-71275363D01*
X102917241Y-71120000D01*
X103149759Y-70964637D01*
X103349637Y-70764759D01*
X103506680Y-70529727D01*
X103614853Y-70268574D01*
X103670000Y-69991335D01*
X103670000Y-69708665D01*
X103614853Y-69431426D01*
X103506680Y-69170273D01*
X103349637Y-68935241D01*
X103149759Y-68735363D01*
X102917241Y-68580000D01*
X103149759Y-68424637D01*
X103349637Y-68224759D01*
X103506680Y-67989727D01*
X103614853Y-67728574D01*
X103670000Y-67451335D01*
X103670000Y-67168665D01*
X103614853Y-66891426D01*
X103506680Y-66630273D01*
X103349637Y-66395241D01*
X103149759Y-66195363D01*
X102917241Y-66040000D01*
X103149759Y-65884637D01*
X103349637Y-65684759D01*
X103506680Y-65449727D01*
X103614853Y-65188574D01*
X103670000Y-64911335D01*
X103670000Y-64628665D01*
X103614853Y-64351426D01*
X103506680Y-64090273D01*
X103349637Y-63855241D01*
X103151039Y-63656643D01*
X103159482Y-63655812D01*
X103279180Y-63619502D01*
X103389494Y-63560537D01*
X103486185Y-63481185D01*
X103565537Y-63384494D01*
X103624502Y-63274180D01*
X103660812Y-63154482D01*
X103673072Y-63030000D01*
X103673072Y-61430000D01*
X103660812Y-61305518D01*
X103624502Y-61185820D01*
X103565537Y-61075506D01*
X103491261Y-60985000D01*
X104153739Y-60985000D01*
X104079463Y-61075506D01*
%TA.AperFunction,Conductor*%
D17*
G36*
X104079463Y-61075506D02*
G01*
X104020498Y-61185820D01*
X103984188Y-61305518D01*
X103971928Y-61430000D01*
X103971928Y-63030000D01*
X103984188Y-63154482D01*
X104020498Y-63274180D01*
X104079463Y-63384494D01*
X104158815Y-63481185D01*
X104255506Y-63560537D01*
X104365820Y-63619502D01*
X104485518Y-63655812D01*
X104493961Y-63656643D01*
X104295363Y-63855241D01*
X104138320Y-64090273D01*
X104030147Y-64351426D01*
X103975000Y-64628665D01*
X103975000Y-64911335D01*
X104030147Y-65188574D01*
X104138320Y-65449727D01*
X104295363Y-65684759D01*
X104495241Y-65884637D01*
X104727759Y-66040000D01*
X104495241Y-66195363D01*
X104295363Y-66395241D01*
X104138320Y-66630273D01*
X104030147Y-66891426D01*
X103975000Y-67168665D01*
X103975000Y-67451335D01*
X104030147Y-67728574D01*
X104138320Y-67989727D01*
X104295363Y-68224759D01*
X104495241Y-68424637D01*
X104727759Y-68580000D01*
X104495241Y-68735363D01*
X104295363Y-68935241D01*
X104138320Y-69170273D01*
X104030147Y-69431426D01*
X103975000Y-69708665D01*
X103975000Y-69991335D01*
X104030147Y-70268574D01*
X104138320Y-70529727D01*
X104295363Y-70764759D01*
X104495241Y-70964637D01*
X104727759Y-71120000D01*
X104495241Y-71275363D01*
X104295363Y-71475241D01*
X104138320Y-71710273D01*
X104030147Y-71971426D01*
X103975000Y-72248665D01*
X103975000Y-72531335D01*
X104030147Y-72808574D01*
X104138320Y-73069727D01*
X104295363Y-73304759D01*
X104495241Y-73504637D01*
X104727759Y-73660000D01*
X104495241Y-73815363D01*
X104295363Y-74015241D01*
X104138320Y-74250273D01*
X104030147Y-74511426D01*
X103975000Y-74788665D01*
X103975000Y-75071335D01*
X104030147Y-75348574D01*
X104138320Y-75609727D01*
X104295363Y-75844759D01*
X104495241Y-76044637D01*
X104727759Y-76200000D01*
X104495241Y-76355363D01*
X104295363Y-76555241D01*
X104138320Y-76790273D01*
X104030147Y-77051426D01*
X103975000Y-77328665D01*
X103975000Y-77611335D01*
X104030147Y-77888574D01*
X104138320Y-78149727D01*
X104295363Y-78384759D01*
X104495241Y-78584637D01*
X104727759Y-78740000D01*
X104495241Y-78895363D01*
X104295363Y-79095241D01*
X104138320Y-79330273D01*
X104030147Y-79591426D01*
X103975000Y-79868665D01*
X103975000Y-80151335D01*
X104030147Y-80428574D01*
X104138320Y-80689727D01*
X104295363Y-80924759D01*
X104495241Y-81124637D01*
X104727759Y-81280000D01*
X104495241Y-81435363D01*
X104295363Y-81635241D01*
X104138320Y-81870273D01*
X104030147Y-82131426D01*
X103975000Y-82408665D01*
X103975000Y-82691335D01*
X104030147Y-82968574D01*
X104138320Y-83229727D01*
X104295363Y-83464759D01*
X104495241Y-83664637D01*
X104727759Y-83820000D01*
X104495241Y-83975363D01*
X104295363Y-84175241D01*
X104138320Y-84410273D01*
X104030147Y-84671426D01*
X103975000Y-84948665D01*
X103975000Y-85231335D01*
X104030147Y-85508574D01*
X104138320Y-85769727D01*
X104295363Y-86004759D01*
X104495241Y-86204637D01*
X104727759Y-86360000D01*
X104495241Y-86515363D01*
X104295363Y-86715241D01*
X104138320Y-86950273D01*
X104030147Y-87211426D01*
X103975000Y-87488665D01*
X103975000Y-87771335D01*
X104030147Y-88048574D01*
X104138320Y-88309727D01*
X104295363Y-88544759D01*
X104495241Y-88744637D01*
X104727759Y-88900000D01*
X104495241Y-89055363D01*
X104295363Y-89255241D01*
X104138320Y-89490273D01*
X104030147Y-89751426D01*
X103975000Y-90028665D01*
X103975000Y-90311335D01*
X104030147Y-90588574D01*
X104138320Y-90849727D01*
X104295363Y-91084759D01*
X104495241Y-91284637D01*
X104727759Y-91440000D01*
X104495241Y-91595363D01*
X104295363Y-91795241D01*
X104138320Y-92030273D01*
X104030147Y-92291426D01*
X103975000Y-92568665D01*
X103975000Y-92851335D01*
X104030147Y-93128574D01*
X104138320Y-93389727D01*
X104295363Y-93624759D01*
X104495241Y-93824637D01*
X104730273Y-93981680D01*
X104740865Y-93986067D01*
X104554869Y-94097615D01*
X104346481Y-94286586D01*
X104178963Y-94512580D01*
X104058754Y-94766913D01*
X104018096Y-94900961D01*
X104140085Y-95123000D01*
X105283000Y-95123000D01*
X105283000Y-95103000D01*
X105537000Y-95103000D01*
X105537000Y-95123000D01*
X106679915Y-95123000D01*
X106801904Y-94900961D01*
X106761246Y-94766913D01*
X106641037Y-94512580D01*
X106473519Y-94286586D01*
X106265131Y-94097615D01*
X106079135Y-93986067D01*
X106089727Y-93981680D01*
X106324759Y-93824637D01*
X106524637Y-93624759D01*
X106681680Y-93389727D01*
X106789853Y-93128574D01*
X106845000Y-92851335D01*
X106845000Y-92568665D01*
X106789853Y-92291426D01*
X106681680Y-92030273D01*
X106524637Y-91795241D01*
X106324759Y-91595363D01*
X106092241Y-91440000D01*
X106324759Y-91284637D01*
X106524637Y-91084759D01*
X106681680Y-90849727D01*
X106789853Y-90588574D01*
X106845000Y-90311335D01*
X106845000Y-90028665D01*
X106789853Y-89751426D01*
X106681680Y-89490273D01*
X106524637Y-89255241D01*
X106324759Y-89055363D01*
X106092241Y-88900000D01*
X106324759Y-88744637D01*
X106524637Y-88544759D01*
X106681680Y-88309727D01*
X106789853Y-88048574D01*
X106845000Y-87771335D01*
X106845000Y-87488665D01*
X106789853Y-87211426D01*
X106681680Y-86950273D01*
X106524637Y-86715241D01*
X106324759Y-86515363D01*
X106092241Y-86360000D01*
X106324759Y-86204637D01*
X106524637Y-86004759D01*
X106681680Y-85769727D01*
X106789853Y-85508574D01*
X106845000Y-85231335D01*
X106845000Y-84948665D01*
X106789853Y-84671426D01*
X106681680Y-84410273D01*
X106524637Y-84175241D01*
X106324759Y-83975363D01*
X106092241Y-83820000D01*
X106324759Y-83664637D01*
X106524637Y-83464759D01*
X106681680Y-83229727D01*
X106789853Y-82968574D01*
X106845000Y-82691335D01*
X106845000Y-82408665D01*
X106789853Y-82131426D01*
X106681680Y-81870273D01*
X106524637Y-81635241D01*
X106324759Y-81435363D01*
X106092241Y-81280000D01*
X106324759Y-81124637D01*
X106524637Y-80924759D01*
X106681680Y-80689727D01*
X106789853Y-80428574D01*
X106845000Y-80151335D01*
X106845000Y-79868665D01*
X106789853Y-79591426D01*
X106681680Y-79330273D01*
X106524637Y-79095241D01*
X106324759Y-78895363D01*
X106092241Y-78740000D01*
X106324759Y-78584637D01*
X106524637Y-78384759D01*
X106681680Y-78149727D01*
X106789853Y-77888574D01*
X106845000Y-77611335D01*
X106845000Y-77328665D01*
X106789853Y-77051426D01*
X106681680Y-76790273D01*
X106524637Y-76555241D01*
X106324759Y-76355363D01*
X106092241Y-76200000D01*
X106324759Y-76044637D01*
X106524637Y-75844759D01*
X106681680Y-75609727D01*
X106789853Y-75348574D01*
X106845000Y-75071335D01*
X106845000Y-74788665D01*
X106789853Y-74511426D01*
X106681680Y-74250273D01*
X106524637Y-74015241D01*
X106324759Y-73815363D01*
X106092241Y-73660000D01*
X106324759Y-73504637D01*
X106524637Y-73304759D01*
X106681680Y-73069727D01*
X106789853Y-72808574D01*
X106845000Y-72531335D01*
X106845000Y-72248665D01*
X106789853Y-71971426D01*
X106681680Y-71710273D01*
X106524637Y-71475241D01*
X106324759Y-71275363D01*
X106092241Y-71120000D01*
X106324759Y-70964637D01*
X106524637Y-70764759D01*
X106681680Y-70529727D01*
X106789853Y-70268574D01*
X106845000Y-69991335D01*
X106845000Y-69708665D01*
X106789853Y-69431426D01*
X106681680Y-69170273D01*
X106524637Y-68935241D01*
X106324759Y-68735363D01*
X106092241Y-68580000D01*
X106324759Y-68424637D01*
X106524637Y-68224759D01*
X106681680Y-67989727D01*
X106789853Y-67728574D01*
X106845000Y-67451335D01*
X106845000Y-67168665D01*
X106789853Y-66891426D01*
X106681680Y-66630273D01*
X106524637Y-66395241D01*
X106324759Y-66195363D01*
X106092241Y-66040000D01*
X106324759Y-65884637D01*
X106524637Y-65684759D01*
X106681680Y-65449727D01*
X106789853Y-65188574D01*
X106845000Y-64911335D01*
X106845000Y-64628665D01*
X106789853Y-64351426D01*
X106681680Y-64090273D01*
X106524637Y-63855241D01*
X106326039Y-63656643D01*
X106334482Y-63655812D01*
X106454180Y-63619502D01*
X106564494Y-63560537D01*
X106661185Y-63481185D01*
X106740537Y-63384494D01*
X106799502Y-63274180D01*
X106835812Y-63154482D01*
X106848072Y-63030000D01*
X106848072Y-61430000D01*
X106835812Y-61305518D01*
X106799502Y-61185820D01*
X106740537Y-61075506D01*
X106666261Y-60985000D01*
X116755343Y-60985000D01*
X116560241Y-61115363D01*
X116360363Y-61315241D01*
X116203320Y-61550273D01*
X116095147Y-61811426D01*
X116040000Y-62088665D01*
X116040000Y-62371335D01*
X116095147Y-62648574D01*
X116203320Y-62909727D01*
X116360363Y-63144759D01*
X116560241Y-63344637D01*
X116792759Y-63500000D01*
X116560241Y-63655363D01*
X116360363Y-63855241D01*
X116203320Y-64090273D01*
X116095147Y-64351426D01*
X116040000Y-64628665D01*
X116040000Y-64911335D01*
X116095147Y-65188574D01*
X116203320Y-65449727D01*
X116360363Y-65684759D01*
X116560241Y-65884637D01*
X116792759Y-66040000D01*
X116560241Y-66195363D01*
X116360363Y-66395241D01*
X116203320Y-66630273D01*
X116095147Y-66891426D01*
X116040000Y-67168665D01*
X116040000Y-67451335D01*
X116095147Y-67728574D01*
X116203320Y-67989727D01*
X116360363Y-68224759D01*
X116560241Y-68424637D01*
X116792759Y-68580000D01*
X116560241Y-68735363D01*
X116360363Y-68935241D01*
X116203320Y-69170273D01*
X116095147Y-69431426D01*
X116040000Y-69708665D01*
X116040000Y-69991335D01*
X116095147Y-70268574D01*
X116203320Y-70529727D01*
X116360363Y-70764759D01*
X116560241Y-70964637D01*
X116792759Y-71120000D01*
X116560241Y-71275363D01*
X116360363Y-71475241D01*
X116203320Y-71710273D01*
X116095147Y-71971426D01*
X116040000Y-72248665D01*
X116040000Y-72531335D01*
X116095147Y-72808574D01*
X116203320Y-73069727D01*
X116360363Y-73304759D01*
X116560241Y-73504637D01*
X116792759Y-73660000D01*
X116560241Y-73815363D01*
X116360363Y-74015241D01*
X116203320Y-74250273D01*
X116095147Y-74511426D01*
X116040000Y-74788665D01*
X116040000Y-75071335D01*
X116095147Y-75348574D01*
X116203320Y-75609727D01*
X116360363Y-75844759D01*
X116560241Y-76044637D01*
X116792759Y-76200000D01*
X116560241Y-76355363D01*
X116360363Y-76555241D01*
X116203320Y-76790273D01*
X116095147Y-77051426D01*
X116040000Y-77328665D01*
X116040000Y-77611335D01*
X116095147Y-77888574D01*
X116203320Y-78149727D01*
X116360363Y-78384759D01*
X116560241Y-78584637D01*
X116792759Y-78740000D01*
X116560241Y-78895363D01*
X116360363Y-79095241D01*
X116203320Y-79330273D01*
X116095147Y-79591426D01*
X116040000Y-79868665D01*
X116040000Y-80151335D01*
X116095147Y-80428574D01*
X116203320Y-80689727D01*
X116360363Y-80924759D01*
X116560241Y-81124637D01*
X116792759Y-81280000D01*
X116560241Y-81435363D01*
X116360363Y-81635241D01*
X116203320Y-81870273D01*
X116095147Y-82131426D01*
X116040000Y-82408665D01*
X116040000Y-82691335D01*
X116095147Y-82968574D01*
X116203320Y-83229727D01*
X116360363Y-83464759D01*
X116560241Y-83664637D01*
X116792759Y-83820000D01*
X116560241Y-83975363D01*
X116360363Y-84175241D01*
X116203320Y-84410273D01*
X116095147Y-84671426D01*
X116040000Y-84948665D01*
X116040000Y-85231335D01*
X116095147Y-85508574D01*
X116203320Y-85769727D01*
X116360363Y-86004759D01*
X116560241Y-86204637D01*
X116792759Y-86360000D01*
X116560241Y-86515363D01*
X116360363Y-86715241D01*
X116203320Y-86950273D01*
X116095147Y-87211426D01*
X116040000Y-87488665D01*
X116040000Y-87771335D01*
X116095147Y-88048574D01*
X116203320Y-88309727D01*
X116360363Y-88544759D01*
X116560241Y-88744637D01*
X116792759Y-88900000D01*
X116560241Y-89055363D01*
X116360363Y-89255241D01*
X116203320Y-89490273D01*
X116095147Y-89751426D01*
X116040000Y-90028665D01*
X116040000Y-90311335D01*
X116095147Y-90588574D01*
X116203320Y-90849727D01*
X116360363Y-91084759D01*
X116560241Y-91284637D01*
X116792759Y-91440000D01*
X116560241Y-91595363D01*
X116360363Y-91795241D01*
X116203320Y-92030273D01*
X116095147Y-92291426D01*
X116040000Y-92568665D01*
X116040000Y-92851335D01*
X116095147Y-93128574D01*
X116203320Y-93389727D01*
X116360363Y-93624759D01*
X116560241Y-93824637D01*
X116792759Y-93980000D01*
X116560241Y-94135363D01*
X116360363Y-94335241D01*
X116203320Y-94570273D01*
X116095147Y-94831426D01*
X116040000Y-95108665D01*
X116040000Y-95391335D01*
X116095147Y-95668574D01*
X116203320Y-95929727D01*
X116360363Y-96164759D01*
X116560241Y-96364637D01*
X116795273Y-96521680D01*
X117056426Y-96629853D01*
X117333665Y-96685000D01*
X117616335Y-96685000D01*
X117893574Y-96629853D01*
X118154727Y-96521680D01*
X118300501Y-96424277D01*
X118300501Y-97495438D01*
X118300500Y-97495448D01*
X118300500Y-97749447D01*
X118296506Y-97790000D01*
X118300500Y-97830550D01*
X118300500Y-98084552D01*
X118300501Y-98084562D01*
X118300500Y-101051449D01*
X118296506Y-101092000D01*
X118300500Y-101132550D01*
X118300500Y-101132552D01*
X118312444Y-101253825D01*
X118316580Y-101267459D01*
X118359647Y-101409433D01*
X118436301Y-101552842D01*
X118470214Y-101594165D01*
X118539459Y-101678541D01*
X118570965Y-101704397D01*
X119275611Y-102409044D01*
X119301459Y-102440541D01*
X119332955Y-102466389D01*
X119332958Y-102466392D01*
X119427157Y-102543699D01*
X119570566Y-102620353D01*
X119720615Y-102665870D01*
X119789363Y-102768759D01*
X119865604Y-102845000D01*
X111782396Y-102845000D01*
X111858637Y-102768759D01*
X112015680Y-102533727D01*
X112123853Y-102272574D01*
X112179000Y-101995335D01*
X112179000Y-101712665D01*
X112123853Y-101435426D01*
X112015680Y-101174273D01*
X111858637Y-100939241D01*
X111658759Y-100739363D01*
X111423727Y-100582320D01*
X111162574Y-100474147D01*
X110885335Y-100419000D01*
X110602665Y-100419000D01*
X110325426Y-100474147D01*
X110064273Y-100582320D01*
X109829241Y-100739363D01*
X109629363Y-100939241D01*
X109472320Y-101174273D01*
X109364147Y-101435426D01*
X109309000Y-101712665D01*
X109309000Y-101995335D01*
X109364147Y-102272574D01*
X109472320Y-102533727D01*
X109629363Y-102768759D01*
X109705604Y-102845000D01*
X100997275Y-102845000D01*
X100990487Y-102844335D01*
X100990000Y-102839699D01*
X100990000Y-95957878D01*
X101003963Y-95987420D01*
X101171481Y-96213414D01*
X101379869Y-96402385D01*
X101621119Y-96547070D01*
X101885960Y-96641909D01*
X102108000Y-96520624D01*
X102108000Y-95377000D01*
X102362000Y-95377000D01*
X102362000Y-96520624D01*
X102584040Y-96641909D01*
X102848881Y-96547070D01*
X103090131Y-96402385D01*
X103298519Y-96213414D01*
X103466037Y-95987420D01*
X103586246Y-95733087D01*
X103626904Y-95599039D01*
X104018096Y-95599039D01*
X104058754Y-95733087D01*
X104178963Y-95987420D01*
X104346481Y-96213414D01*
X104554869Y-96402385D01*
X104724294Y-96503995D01*
X104606063Y-96622226D01*
X104492795Y-96791744D01*
X104414774Y-96980102D01*
X104375000Y-97180061D01*
X104375000Y-97383939D01*
X104414774Y-97583898D01*
X104492795Y-97772256D01*
X104606063Y-97941774D01*
X104750226Y-98085937D01*
X104919744Y-98199205D01*
X105108102Y-98277226D01*
X105308061Y-98317000D01*
X105511939Y-98317000D01*
X105711898Y-98277226D01*
X105900256Y-98199205D01*
X106069774Y-98085937D01*
X106113711Y-98042000D01*
X109159199Y-98042000D01*
X109345312Y-98228114D01*
X109309000Y-98410665D01*
X109309000Y-98693335D01*
X109364147Y-98970574D01*
X109472320Y-99231727D01*
X109629363Y-99466759D01*
X109829241Y-99666637D01*
X110064273Y-99823680D01*
X110325426Y-99931853D01*
X110602665Y-99987000D01*
X110885335Y-99987000D01*
X111162574Y-99931853D01*
X111423727Y-99823680D01*
X111658759Y-99666637D01*
X111858637Y-99466759D01*
X112015680Y-99231727D01*
X112123853Y-98970574D01*
X112179000Y-98693335D01*
X112179000Y-98410665D01*
X112123853Y-98133426D01*
X112015680Y-97872273D01*
X111858637Y-97637241D01*
X111658759Y-97437363D01*
X111423727Y-97280320D01*
X111162574Y-97172147D01*
X110885335Y-97117000D01*
X110602665Y-97117000D01*
X110420114Y-97153312D01*
X110037804Y-96771003D01*
X110014001Y-96741999D01*
X109898276Y-96647026D01*
X109766247Y-96576454D01*
X109622986Y-96532997D01*
X109511333Y-96522000D01*
X109511322Y-96522000D01*
X109474000Y-96518324D01*
X109436678Y-96522000D01*
X106113711Y-96522000D01*
X106095706Y-96503995D01*
X106265131Y-96402385D01*
X106473519Y-96213414D01*
X106641037Y-95987420D01*
X106761246Y-95733087D01*
X106801904Y-95599039D01*
X106679915Y-95377000D01*
X105537000Y-95377000D01*
X105537000Y-95397000D01*
X105283000Y-95397000D01*
X105283000Y-95377000D01*
X104140085Y-95377000D01*
X104018096Y-95599039D01*
X103626904Y-95599039D01*
X103504915Y-95377000D01*
X102362000Y-95377000D01*
X102108000Y-95377000D01*
X102088000Y-95377000D01*
X102088000Y-95123000D01*
X102108000Y-95123000D01*
X102108000Y-95103000D01*
X102362000Y-95103000D01*
X102362000Y-95123000D01*
X103504915Y-95123000D01*
X103626904Y-94900961D01*
X103586246Y-94766913D01*
X103466037Y-94512580D01*
X103298519Y-94286586D01*
X103090131Y-94097615D01*
X102904135Y-93986067D01*
X102914727Y-93981680D01*
X103149759Y-93824637D01*
X103349637Y-93624759D01*
X103506680Y-93389727D01*
X103614853Y-93128574D01*
X103670000Y-92851335D01*
X103670000Y-92568665D01*
X103614853Y-92291426D01*
X103506680Y-92030273D01*
X103349637Y-91795241D01*
X103149759Y-91595363D01*
X102917241Y-91440000D01*
X103149759Y-91284637D01*
X103349637Y-91084759D01*
X103506680Y-90849727D01*
X103614853Y-90588574D01*
X103670000Y-90311335D01*
X103670000Y-90028665D01*
X103614853Y-89751426D01*
X103506680Y-89490273D01*
X103349637Y-89255241D01*
X103149759Y-89055363D01*
X102917241Y-88900000D01*
X103149759Y-88744637D01*
X103349637Y-88544759D01*
X103506680Y-88309727D01*
X103614853Y-88048574D01*
X103670000Y-87771335D01*
X103670000Y-87488665D01*
X103614853Y-87211426D01*
X103506680Y-86950273D01*
X103349637Y-86715241D01*
X103149759Y-86515363D01*
X102917241Y-86360000D01*
X103149759Y-86204637D01*
X103349637Y-86004759D01*
X103506680Y-85769727D01*
X103614853Y-85508574D01*
X103670000Y-85231335D01*
X103670000Y-84948665D01*
X103614853Y-84671426D01*
X103506680Y-84410273D01*
X103349637Y-84175241D01*
X103149759Y-83975363D01*
X102917241Y-83820000D01*
X103149759Y-83664637D01*
X103349637Y-83464759D01*
X103506680Y-83229727D01*
X103614853Y-82968574D01*
X103670000Y-82691335D01*
X103670000Y-82408665D01*
X103614853Y-82131426D01*
X103506680Y-81870273D01*
X103349637Y-81635241D01*
X103149759Y-81435363D01*
X102917241Y-81280000D01*
X103149759Y-81124637D01*
X103349637Y-80924759D01*
X103506680Y-80689727D01*
X103614853Y-80428574D01*
X103670000Y-80151335D01*
X103670000Y-79868665D01*
X103614853Y-79591426D01*
X103506680Y-79330273D01*
X103349637Y-79095241D01*
X103149759Y-78895363D01*
X102917241Y-78740000D01*
X103149759Y-78584637D01*
X103349637Y-78384759D01*
X103506680Y-78149727D01*
X103614853Y-77888574D01*
X103670000Y-77611335D01*
X103670000Y-77328665D01*
X103614853Y-77051426D01*
X103506680Y-76790273D01*
X103349637Y-76555241D01*
X103149759Y-76355363D01*
X102917241Y-76200000D01*
X103149759Y-76044637D01*
X103349637Y-75844759D01*
X103506680Y-75609727D01*
X103614853Y-75348574D01*
X103670000Y-75071335D01*
X103670000Y-74788665D01*
X103614853Y-74511426D01*
X103506680Y-74250273D01*
X103349637Y-74015241D01*
X103149759Y-73815363D01*
X102917241Y-73660000D01*
X103149759Y-73504637D01*
X103349637Y-73304759D01*
X103506680Y-73069727D01*
X103614853Y-72808574D01*
X103670000Y-72531335D01*
X103670000Y-72248665D01*
X103614853Y-71971426D01*
X103506680Y-71710273D01*
X103349637Y-71475241D01*
X103149759Y-71275363D01*
X102917241Y-71120000D01*
X103149759Y-70964637D01*
X103349637Y-70764759D01*
X103506680Y-70529727D01*
X103614853Y-70268574D01*
X103670000Y-69991335D01*
X103670000Y-69708665D01*
X103614853Y-69431426D01*
X103506680Y-69170273D01*
X103349637Y-68935241D01*
X103149759Y-68735363D01*
X102917241Y-68580000D01*
X103149759Y-68424637D01*
X103349637Y-68224759D01*
X103506680Y-67989727D01*
X103614853Y-67728574D01*
X103670000Y-67451335D01*
X103670000Y-67168665D01*
X103614853Y-66891426D01*
X103506680Y-66630273D01*
X103349637Y-66395241D01*
X103149759Y-66195363D01*
X102917241Y-66040000D01*
X103149759Y-65884637D01*
X103349637Y-65684759D01*
X103506680Y-65449727D01*
X103614853Y-65188574D01*
X103670000Y-64911335D01*
X103670000Y-64628665D01*
X103614853Y-64351426D01*
X103506680Y-64090273D01*
X103349637Y-63855241D01*
X103151039Y-63656643D01*
X103159482Y-63655812D01*
X103279180Y-63619502D01*
X103389494Y-63560537D01*
X103486185Y-63481185D01*
X103565537Y-63384494D01*
X103624502Y-63274180D01*
X103660812Y-63154482D01*
X103673072Y-63030000D01*
X103673072Y-61430000D01*
X103660812Y-61305518D01*
X103624502Y-61185820D01*
X103565537Y-61075506D01*
X103491261Y-60985000D01*
X104153739Y-60985000D01*
X104079463Y-61075506D01*
G37*
%TD.AperFunction*%
%TD*%
M02*
