M48
INCH,TZ
T1C0.0157
T2C0.0315
%
G90
G05
T1
X41500Y-38300
T2
X41500Y-24500
X41500Y-25500
X41500Y-26500
X41500Y-27500
X41500Y-28500
X41500Y-29500
X41500Y-30500
X41500Y-31500
X41500Y-32500
X41500Y-33500
X41500Y-34500
X41500Y-35500
X41500Y-36500
X41500Y-37500
X47500Y-24500
X47500Y-25500
X47500Y-26500
X47500Y-27500
X47500Y-28500
X47500Y-29500
X47500Y-30500
X47500Y-31500
X47500Y-32500
X47500Y-33500
X47500Y-34500
X47500Y-35500
X47500Y-36500
X47500Y-37500
X43600Y-40100
X47600Y-40100
X40250Y-24500
X40250Y-25500
X40250Y-26500
X40250Y-27500
X40250Y-28500
X40250Y-29500
X40250Y-30500
X40250Y-31500
X40250Y-32500
X40250Y-33500
X40250Y-34500
X40250Y-35500
X40250Y-36500
X40250Y-37500
X46250Y-24500
X46250Y-25500
X46250Y-26500
X46250Y-27500
X46250Y-28500
X46250Y-29500
X46250Y-30500
X46250Y-31500
X46250Y-32500
X46250Y-33500
X46250Y-34500
X46250Y-35500
X46250Y-36500
X46250Y-37500
X43600Y-38800
X47600Y-38800
T0
M30
