%TF.GenerationSoftware,KiCad,Pcbnew,(5.1.8)-1*%
%TF.CreationDate,2021-04-08T15:32:03+02:00*%
%TF.ProjectId,C64 1541-II ROM Adapter,43363420-3135-4343-912d-494920524f4d,rev?*%
%TF.SameCoordinates,Original*%
%TF.FileFunction,Legend,Top*%
%TF.FilePolarity,Positive*%
%FSLAX46Y46*%
G04 Gerber Fmt 4.6, Leading zero omitted, Abs format (unit mm)*
G04 Created by KiCad (PCBNEW (5.1.8)-1) date 2021-04-08 15:32:03*
%MOMM*%
%LPD*%
G01*
G04 APERTURE LIST*
%ADD10C,0.150000*%
%ADD11C,0.120000*%
%ADD12C,0.100000*%
G04 APERTURE END LIST*
D10*
X111546142Y-89200476D02*
X111593761Y-89248095D01*
X111641380Y-89390952D01*
X111641380Y-89486190D01*
X111593761Y-89629047D01*
X111498523Y-89724285D01*
X111403285Y-89771904D01*
X111212809Y-89819523D01*
X111069952Y-89819523D01*
X110879476Y-89771904D01*
X110784238Y-89724285D01*
X110689000Y-89629047D01*
X110641380Y-89486190D01*
X110641380Y-89390952D01*
X110689000Y-89248095D01*
X110736619Y-89200476D01*
X110641380Y-88343333D02*
X110641380Y-88533809D01*
X110689000Y-88629047D01*
X110736619Y-88676666D01*
X110879476Y-88771904D01*
X111069952Y-88819523D01*
X111450904Y-88819523D01*
X111546142Y-88771904D01*
X111593761Y-88724285D01*
X111641380Y-88629047D01*
X111641380Y-88438571D01*
X111593761Y-88343333D01*
X111546142Y-88295714D01*
X111450904Y-88248095D01*
X111212809Y-88248095D01*
X111117571Y-88295714D01*
X111069952Y-88343333D01*
X111022333Y-88438571D01*
X111022333Y-88629047D01*
X111069952Y-88724285D01*
X111117571Y-88771904D01*
X111212809Y-88819523D01*
X110974714Y-87390952D02*
X111641380Y-87390952D01*
X110593761Y-87629047D02*
X111308047Y-87867142D01*
X111308047Y-87248095D01*
X111641380Y-85581428D02*
X111641380Y-86152857D01*
X111641380Y-85867142D02*
X110641380Y-85867142D01*
X110784238Y-85962380D01*
X110879476Y-86057619D01*
X110927095Y-86152857D01*
X110641380Y-84676666D02*
X110641380Y-85152857D01*
X111117571Y-85200476D01*
X111069952Y-85152857D01*
X111022333Y-85057619D01*
X111022333Y-84819523D01*
X111069952Y-84724285D01*
X111117571Y-84676666D01*
X111212809Y-84629047D01*
X111450904Y-84629047D01*
X111546142Y-84676666D01*
X111593761Y-84724285D01*
X111641380Y-84819523D01*
X111641380Y-85057619D01*
X111593761Y-85152857D01*
X111546142Y-85200476D01*
X110974714Y-83771904D02*
X111641380Y-83771904D01*
X110593761Y-84010000D02*
X111308047Y-84248095D01*
X111308047Y-83629047D01*
X111641380Y-82724285D02*
X111641380Y-83295714D01*
X111641380Y-83010000D02*
X110641380Y-83010000D01*
X110784238Y-83105238D01*
X110879476Y-83200476D01*
X110927095Y-83295714D01*
X111260428Y-82295714D02*
X111260428Y-81533809D01*
X111641380Y-81057619D02*
X110641380Y-81057619D01*
X111641380Y-80581428D02*
X110641380Y-80581428D01*
X111641380Y-78771904D02*
X111165190Y-79105238D01*
X111641380Y-79343333D02*
X110641380Y-79343333D01*
X110641380Y-78962380D01*
X110689000Y-78867142D01*
X110736619Y-78819523D01*
X110831857Y-78771904D01*
X110974714Y-78771904D01*
X111069952Y-78819523D01*
X111117571Y-78867142D01*
X111165190Y-78962380D01*
X111165190Y-79343333D01*
X110641380Y-78152857D02*
X110641380Y-77962380D01*
X110689000Y-77867142D01*
X110784238Y-77771904D01*
X110974714Y-77724285D01*
X111308047Y-77724285D01*
X111498523Y-77771904D01*
X111593761Y-77867142D01*
X111641380Y-77962380D01*
X111641380Y-78152857D01*
X111593761Y-78248095D01*
X111498523Y-78343333D01*
X111308047Y-78390952D01*
X110974714Y-78390952D01*
X110784238Y-78343333D01*
X110689000Y-78248095D01*
X110641380Y-78152857D01*
X111641380Y-77295714D02*
X110641380Y-77295714D01*
X111355666Y-76962380D01*
X110641380Y-76629047D01*
X111641380Y-76629047D01*
X111355666Y-75438571D02*
X111355666Y-74962380D01*
X111641380Y-75533809D02*
X110641380Y-75200476D01*
X111641380Y-74867142D01*
X111641380Y-74105238D02*
X110641380Y-74105238D01*
X111593761Y-74105238D02*
X111641380Y-74200476D01*
X111641380Y-74390952D01*
X111593761Y-74486190D01*
X111546142Y-74533809D01*
X111450904Y-74581428D01*
X111165190Y-74581428D01*
X111069952Y-74533809D01*
X111022333Y-74486190D01*
X110974714Y-74390952D01*
X110974714Y-74200476D01*
X111022333Y-74105238D01*
X111641380Y-73200476D02*
X111117571Y-73200476D01*
X111022333Y-73248095D01*
X110974714Y-73343333D01*
X110974714Y-73533809D01*
X111022333Y-73629047D01*
X111593761Y-73200476D02*
X111641380Y-73295714D01*
X111641380Y-73533809D01*
X111593761Y-73629047D01*
X111498523Y-73676666D01*
X111403285Y-73676666D01*
X111308047Y-73629047D01*
X111260428Y-73533809D01*
X111260428Y-73295714D01*
X111212809Y-73200476D01*
X110974714Y-72724285D02*
X111974714Y-72724285D01*
X111022333Y-72724285D02*
X110974714Y-72629047D01*
X110974714Y-72438571D01*
X111022333Y-72343333D01*
X111069952Y-72295714D01*
X111165190Y-72248095D01*
X111450904Y-72248095D01*
X111546142Y-72295714D01*
X111593761Y-72343333D01*
X111641380Y-72438571D01*
X111641380Y-72629047D01*
X111593761Y-72724285D01*
X110974714Y-71962380D02*
X110974714Y-71581428D01*
X110641380Y-71819523D02*
X111498523Y-71819523D01*
X111593761Y-71771904D01*
X111641380Y-71676666D01*
X111641380Y-71581428D01*
X111593761Y-70867142D02*
X111641380Y-70962380D01*
X111641380Y-71152857D01*
X111593761Y-71248095D01*
X111498523Y-71295714D01*
X111117571Y-71295714D01*
X111022333Y-71248095D01*
X110974714Y-71152857D01*
X110974714Y-70962380D01*
X111022333Y-70867142D01*
X111117571Y-70819523D01*
X111212809Y-70819523D01*
X111308047Y-71295714D01*
X111641380Y-70390952D02*
X110974714Y-70390952D01*
X111165190Y-70390952D02*
X111069952Y-70343333D01*
X111022333Y-70295714D01*
X110974714Y-70200476D01*
X110974714Y-70105238D01*
X112624714Y-85414761D02*
X113434238Y-85414761D01*
X113529476Y-85462380D01*
X113577095Y-85510000D01*
X113624714Y-85605238D01*
X113624714Y-85748095D01*
X113577095Y-85843333D01*
X113243761Y-85414761D02*
X113291380Y-85510000D01*
X113291380Y-85700476D01*
X113243761Y-85795714D01*
X113196142Y-85843333D01*
X113100904Y-85890952D01*
X112815190Y-85890952D01*
X112719952Y-85843333D01*
X112672333Y-85795714D01*
X112624714Y-85700476D01*
X112624714Y-85510000D01*
X112672333Y-85414761D01*
X113291380Y-84938571D02*
X112624714Y-84938571D01*
X112291380Y-84938571D02*
X112339000Y-84986190D01*
X112386619Y-84938571D01*
X112339000Y-84890952D01*
X112291380Y-84938571D01*
X112386619Y-84938571D01*
X112624714Y-84605238D02*
X112624714Y-84224285D01*
X112291380Y-84462380D02*
X113148523Y-84462380D01*
X113243761Y-84414761D01*
X113291380Y-84319523D01*
X113291380Y-84224285D01*
X113291380Y-83890952D02*
X112291380Y-83890952D01*
X113291380Y-83462380D02*
X112767571Y-83462380D01*
X112672333Y-83510000D01*
X112624714Y-83605238D01*
X112624714Y-83748095D01*
X112672333Y-83843333D01*
X112719952Y-83890952D01*
X112624714Y-82557619D02*
X113291380Y-82557619D01*
X112624714Y-82986190D02*
X113148523Y-82986190D01*
X113243761Y-82938571D01*
X113291380Y-82843333D01*
X113291380Y-82700476D01*
X113243761Y-82605238D01*
X113196142Y-82557619D01*
X113291380Y-82081428D02*
X112291380Y-82081428D01*
X112672333Y-82081428D02*
X112624714Y-81986190D01*
X112624714Y-81795714D01*
X112672333Y-81700476D01*
X112719952Y-81652857D01*
X112815190Y-81605238D01*
X113100904Y-81605238D01*
X113196142Y-81652857D01*
X113243761Y-81700476D01*
X113291380Y-81795714D01*
X113291380Y-81986190D01*
X113243761Y-82081428D01*
X113196142Y-81176666D02*
X113243761Y-81129047D01*
X113291380Y-81176666D01*
X113243761Y-81224285D01*
X113196142Y-81176666D01*
X113291380Y-81176666D01*
X113243761Y-80271904D02*
X113291380Y-80367142D01*
X113291380Y-80557619D01*
X113243761Y-80652857D01*
X113196142Y-80700476D01*
X113100904Y-80748095D01*
X112815190Y-80748095D01*
X112719952Y-80700476D01*
X112672333Y-80652857D01*
X112624714Y-80557619D01*
X112624714Y-80367142D01*
X112672333Y-80271904D01*
X113291380Y-79700476D02*
X113243761Y-79795714D01*
X113196142Y-79843333D01*
X113100904Y-79890952D01*
X112815190Y-79890952D01*
X112719952Y-79843333D01*
X112672333Y-79795714D01*
X112624714Y-79700476D01*
X112624714Y-79557619D01*
X112672333Y-79462380D01*
X112719952Y-79414761D01*
X112815190Y-79367142D01*
X113100904Y-79367142D01*
X113196142Y-79414761D01*
X113243761Y-79462380D01*
X113291380Y-79557619D01*
X113291380Y-79700476D01*
X113291380Y-78938571D02*
X112624714Y-78938571D01*
X112719952Y-78938571D02*
X112672333Y-78890952D01*
X112624714Y-78795714D01*
X112624714Y-78652857D01*
X112672333Y-78557619D01*
X112767571Y-78510000D01*
X113291380Y-78510000D01*
X112767571Y-78510000D02*
X112672333Y-78462380D01*
X112624714Y-78367142D01*
X112624714Y-78224285D01*
X112672333Y-78129047D01*
X112767571Y-78081428D01*
X113291380Y-78081428D01*
X112243761Y-76890952D02*
X113529476Y-77748095D01*
X112624714Y-76700476D02*
X112624714Y-76319523D01*
X112291380Y-76557619D02*
X113148523Y-76557619D01*
X113243761Y-76510000D01*
X113291380Y-76414761D01*
X113291380Y-76319523D01*
X113243761Y-75605238D02*
X113291380Y-75700476D01*
X113291380Y-75890952D01*
X113243761Y-75986190D01*
X113148523Y-76033809D01*
X112767571Y-76033809D01*
X112672333Y-75986190D01*
X112624714Y-75890952D01*
X112624714Y-75700476D01*
X112672333Y-75605238D01*
X112767571Y-75557619D01*
X112862809Y-75557619D01*
X112958047Y-76033809D01*
X113291380Y-75129047D02*
X112291380Y-75129047D01*
X112672333Y-75129047D02*
X112624714Y-75033809D01*
X112624714Y-74843333D01*
X112672333Y-74748095D01*
X112719952Y-74700476D01*
X112815190Y-74652857D01*
X113100904Y-74652857D01*
X113196142Y-74700476D01*
X113243761Y-74748095D01*
X113291380Y-74843333D01*
X113291380Y-75033809D01*
X113243761Y-75129047D01*
X113291380Y-74081428D02*
X113243761Y-74176666D01*
X113148523Y-74224285D01*
X112291380Y-74224285D01*
D11*
%TO.C,A1*%
X101219000Y-61214000D02*
X102235000Y-61214000D01*
X101219000Y-63246000D02*
X101219000Y-61214000D01*
X103251000Y-63246000D02*
X101219000Y-63246000D01*
X103251000Y-61214000D02*
X103251000Y-63246000D01*
X102235000Y-61214000D02*
X103251000Y-61214000D01*
X118390810Y-92710000D02*
G75*
G03*
X118390810Y-92710000I-915810J0D01*
G01*
X118390810Y-90170000D02*
G75*
G03*
X118390810Y-90170000I-915810J0D01*
G01*
X118390810Y-87630000D02*
G75*
G03*
X118390810Y-87630000I-915810J0D01*
G01*
X118390810Y-85090000D02*
G75*
G03*
X118390810Y-85090000I-915810J0D01*
G01*
X118390810Y-82550000D02*
G75*
G03*
X118390810Y-82550000I-915810J0D01*
G01*
X118390810Y-80010000D02*
G75*
G03*
X118390810Y-80010000I-915810J0D01*
G01*
X118390810Y-77470000D02*
G75*
G03*
X118390810Y-77470000I-915810J0D01*
G01*
X118390810Y-74930000D02*
G75*
G03*
X118390810Y-74930000I-915810J0D01*
G01*
X118390810Y-72390000D02*
G75*
G03*
X118390810Y-72390000I-915810J0D01*
G01*
X118390810Y-69850000D02*
G75*
G03*
X118390810Y-69850000I-915810J0D01*
G01*
X118390810Y-67310000D02*
G75*
G03*
X118390810Y-67310000I-915810J0D01*
G01*
X118390810Y-64770000D02*
G75*
G03*
X118390810Y-64770000I-915810J0D01*
G01*
X118390810Y-62230000D02*
G75*
G03*
X118390810Y-62230000I-915810J0D01*
G01*
X118390810Y-95250000D02*
G75*
G03*
X118390810Y-95250000I-915810J0D01*
G01*
X103150810Y-64770000D02*
G75*
G03*
X103150810Y-64770000I-915810J0D01*
G01*
X103150810Y-67310000D02*
G75*
G03*
X103150810Y-67310000I-915810J0D01*
G01*
X103150810Y-69850000D02*
G75*
G03*
X103150810Y-69850000I-915810J0D01*
G01*
X103150810Y-72390000D02*
G75*
G03*
X103150810Y-72390000I-915810J0D01*
G01*
X103150810Y-74930000D02*
G75*
G03*
X103150810Y-74930000I-915810J0D01*
G01*
X103150810Y-77470000D02*
G75*
G03*
X103150810Y-77470000I-915810J0D01*
G01*
X103150810Y-80010000D02*
G75*
G03*
X103150810Y-80010000I-915810J0D01*
G01*
X103150810Y-82550000D02*
G75*
G03*
X103150810Y-82550000I-915810J0D01*
G01*
X103150810Y-85090000D02*
G75*
G03*
X103150810Y-85090000I-915810J0D01*
G01*
X103150810Y-87630000D02*
G75*
G03*
X103150810Y-87630000I-915810J0D01*
G01*
X103150810Y-90170000D02*
G75*
G03*
X103150810Y-90170000I-915810J0D01*
G01*
X103150810Y-92710000D02*
G75*
G03*
X103150810Y-92710000I-915810J0D01*
G01*
X103150810Y-95250000D02*
G75*
G03*
X103150810Y-95250000I-915810J0D01*
G01*
%TO.C,J1*%
X106045000Y-104267000D02*
X106045000Y-97917000D01*
X106045000Y-97917000D02*
X103759000Y-97917000D01*
X103759000Y-97917000D02*
X103759000Y-104267000D01*
%TO.C,J2*%
X106807000Y-97917000D02*
X106807000Y-104267000D01*
X109093000Y-97917000D02*
X106807000Y-97917000D01*
X109093000Y-104267000D02*
X109093000Y-97917000D01*
%TO.C,J3*%
X100711000Y-97917000D02*
X100711000Y-104267000D01*
X102997000Y-97917000D02*
X100711000Y-97917000D01*
X102997000Y-104267000D02*
X102997000Y-97917000D01*
%TO.C,R1*%
X119094000Y-100430000D02*
X119094000Y-97690000D01*
X119094000Y-97690000D02*
X112554000Y-97690000D01*
X112554000Y-97690000D02*
X112554000Y-100430000D01*
X112554000Y-100430000D02*
X119094000Y-100430000D01*
X119864000Y-99060000D02*
X119094000Y-99060000D01*
X111784000Y-99060000D02*
X112554000Y-99060000D01*
%TO.C,R2*%
X111784000Y-102616000D02*
X112554000Y-102616000D01*
X119864000Y-102616000D02*
X119094000Y-102616000D01*
X112554000Y-103986000D02*
X119094000Y-103986000D01*
X112554000Y-101246000D02*
X112554000Y-103986000D01*
X119094000Y-101246000D02*
X112554000Y-101246000D01*
X119094000Y-103986000D02*
X119094000Y-101246000D01*
%TO.C,U1*%
X119490000Y-60900000D02*
X114030000Y-60900000D01*
X119490000Y-96580000D02*
X119490000Y-60900000D01*
X106570000Y-96580000D02*
X119490000Y-96580000D01*
X106570000Y-60900000D02*
X106570000Y-96580000D01*
X112030000Y-60900000D02*
X106570000Y-60900000D01*
X114030000Y-60900000D02*
G75*
G02*
X112030000Y-60900000I-1000000J0D01*
G01*
%TO.C,A1*%
D12*
X101663571Y-59823333D02*
X102044523Y-59823333D01*
X101587380Y-60051904D02*
X101854047Y-59251904D01*
X102120714Y-60051904D01*
X102806428Y-60051904D02*
X102349285Y-60051904D01*
X102577857Y-60051904D02*
X102577857Y-59251904D01*
X102501666Y-59366190D01*
X102425476Y-59442380D01*
X102349285Y-59480476D01*
%TO.C,J1*%
X104635333Y-105225904D02*
X104635333Y-105797333D01*
X104597238Y-105911619D01*
X104521047Y-105987809D01*
X104406761Y-106025904D01*
X104330571Y-106025904D01*
X105435333Y-106025904D02*
X104978190Y-106025904D01*
X105206761Y-106025904D02*
X105206761Y-105225904D01*
X105130571Y-105340190D01*
X105054380Y-105416380D01*
X104978190Y-105454476D01*
X103949619Y-97496332D02*
X104330571Y-97496332D01*
X103873428Y-97724903D02*
X104140095Y-96924903D01*
X104406761Y-97724903D01*
X105092476Y-97724903D02*
X104635333Y-97724903D01*
X104863904Y-97724903D02*
X104863904Y-96924903D01*
X104787714Y-97039189D01*
X104711523Y-97115379D01*
X104635333Y-97153475D01*
X105778190Y-97191570D02*
X105778190Y-97724903D01*
X105587714Y-96886808D02*
X105397238Y-97458237D01*
X105892476Y-97458237D01*
%TO.C,J2*%
X107683333Y-105225904D02*
X107683333Y-105797333D01*
X107645238Y-105911619D01*
X107569047Y-105987809D01*
X107454761Y-106025904D01*
X107378571Y-106025904D01*
X108026190Y-105302095D02*
X108064285Y-105264000D01*
X108140476Y-105225904D01*
X108330952Y-105225904D01*
X108407142Y-105264000D01*
X108445238Y-105302095D01*
X108483333Y-105378285D01*
X108483333Y-105454476D01*
X108445238Y-105568761D01*
X107988095Y-106025904D01*
X108483333Y-106025904D01*
X106997619Y-97496332D02*
X107378571Y-97496332D01*
X106921428Y-97724903D02*
X107188095Y-96924903D01*
X107454761Y-97724903D01*
X108140476Y-97724903D02*
X107683333Y-97724903D01*
X107911904Y-97724903D02*
X107911904Y-96924903D01*
X107835714Y-97039189D01*
X107759523Y-97115379D01*
X107683333Y-97153475D01*
X108864285Y-96924903D02*
X108483333Y-96924903D01*
X108445238Y-97305856D01*
X108483333Y-97267760D01*
X108559523Y-97229665D01*
X108750000Y-97229665D01*
X108826190Y-97267760D01*
X108864285Y-97305856D01*
X108902380Y-97382046D01*
X108902380Y-97572522D01*
X108864285Y-97648713D01*
X108826190Y-97686808D01*
X108750000Y-97724903D01*
X108559523Y-97724903D01*
X108483333Y-97686808D01*
X108445238Y-97648713D01*
%TO.C,J3*%
X101587333Y-105225904D02*
X101587333Y-105797333D01*
X101549238Y-105911619D01*
X101473047Y-105987809D01*
X101358761Y-106025904D01*
X101282571Y-106025904D01*
X101892095Y-105225904D02*
X102387333Y-105225904D01*
X102120666Y-105530666D01*
X102234952Y-105530666D01*
X102311142Y-105568761D01*
X102349238Y-105606857D01*
X102387333Y-105683047D01*
X102387333Y-105873523D01*
X102349238Y-105949714D01*
X102311142Y-105987809D01*
X102234952Y-106025904D01*
X102006380Y-106025904D01*
X101930190Y-105987809D01*
X101892095Y-105949714D01*
X101244476Y-96962999D02*
X101168285Y-96924903D01*
X101054000Y-96924903D01*
X100939714Y-96962999D01*
X100863523Y-97039189D01*
X100825428Y-97115379D01*
X100787333Y-97267760D01*
X100787333Y-97382046D01*
X100825428Y-97534427D01*
X100863523Y-97610618D01*
X100939714Y-97686808D01*
X101054000Y-97724903D01*
X101130190Y-97724903D01*
X101244476Y-97686808D01*
X101282571Y-97648713D01*
X101282571Y-97382046D01*
X101130190Y-97382046D01*
X101625428Y-97724903D02*
X101625428Y-96924903D01*
X102082571Y-97724903D01*
X102082571Y-96924903D01*
X102463523Y-97724903D02*
X102463523Y-96924903D01*
X102654000Y-96924903D01*
X102768285Y-96962999D01*
X102844476Y-97039189D01*
X102882571Y-97115379D01*
X102920666Y-97267760D01*
X102920666Y-97382046D01*
X102882571Y-97534427D01*
X102844476Y-97610618D01*
X102768285Y-97686808D01*
X102654000Y-97724903D01*
X102463523Y-97724903D01*
%TO.C,R1*%
D10*
X118308380Y-99226666D02*
X117832190Y-99560000D01*
X118308380Y-99798095D02*
X117308380Y-99798095D01*
X117308380Y-99417142D01*
X117356000Y-99321904D01*
X117403619Y-99274285D01*
X117498857Y-99226666D01*
X117641714Y-99226666D01*
X117736952Y-99274285D01*
X117784571Y-99321904D01*
X117832190Y-99417142D01*
X117832190Y-99798095D01*
X118308380Y-98274285D02*
X118308380Y-98845714D01*
X118308380Y-98560000D02*
X117308380Y-98560000D01*
X117451238Y-98655238D01*
X117546476Y-98750476D01*
X117594095Y-98845714D01*
X114117523Y-98845714D02*
X114117523Y-99512380D01*
X113879428Y-98464761D02*
X113641333Y-99179047D01*
X114260380Y-99179047D01*
X114641333Y-99512380D02*
X114641333Y-98512380D01*
X114736571Y-99131428D02*
X115022285Y-99512380D01*
X115022285Y-98845714D02*
X114641333Y-99226666D01*
X115355619Y-98512380D02*
X116022285Y-98512380D01*
X115593714Y-99512380D01*
%TO.C,R2*%
X118308380Y-102782666D02*
X117832190Y-103116000D01*
X118308380Y-103354095D02*
X117308380Y-103354095D01*
X117308380Y-102973142D01*
X117356000Y-102877904D01*
X117403619Y-102830285D01*
X117498857Y-102782666D01*
X117641714Y-102782666D01*
X117736952Y-102830285D01*
X117784571Y-102877904D01*
X117832190Y-102973142D01*
X117832190Y-103354095D01*
X117403619Y-102401714D02*
X117356000Y-102354095D01*
X117308380Y-102258857D01*
X117308380Y-102020761D01*
X117356000Y-101925523D01*
X117403619Y-101877904D01*
X117498857Y-101830285D01*
X117594095Y-101830285D01*
X117736952Y-101877904D01*
X118308380Y-102449333D01*
X118308380Y-101830285D01*
X114117523Y-102401714D02*
X114117523Y-103068380D01*
X113879428Y-102020761D02*
X113641333Y-102735047D01*
X114260380Y-102735047D01*
X114641333Y-103068380D02*
X114641333Y-102068380D01*
X114736571Y-102687428D02*
X115022285Y-103068380D01*
X115022285Y-102401714D02*
X114641333Y-102782666D01*
X115355619Y-102068380D02*
X116022285Y-102068380D01*
X115593714Y-103068380D01*
%TO.C,U1*%
X112268095Y-59142380D02*
X112268095Y-59951904D01*
X112315714Y-60047142D01*
X112363333Y-60094761D01*
X112458571Y-60142380D01*
X112649047Y-60142380D01*
X112744285Y-60094761D01*
X112791904Y-60047142D01*
X112839523Y-59951904D01*
X112839523Y-59142380D01*
X113839523Y-60142380D02*
X113268095Y-60142380D01*
X113553809Y-60142380D02*
X113553809Y-59142380D01*
X113458571Y-59285238D01*
X113363333Y-59380476D01*
X113268095Y-59428095D01*
%TD*%
M02*
