%TF.GenerationSoftware,KiCad,Pcbnew,(5.1.8)-1*%
%TF.CreationDate,2021-04-08T23:39:19+02:00*%
%TF.ProjectId,C64 1541-II ROM Adapter,43363420-3135-4343-912d-494920524f4d,rev?*%
%TF.SameCoordinates,Original*%
%TF.FileFunction,Copper,L1,Top*%
%TF.FilePolarity,Positive*%
%FSLAX46Y46*%
G04 Gerber Fmt 4.6, Leading zero omitted, Abs format (unit mm)*
G04 Created by KiCad (PCBNEW (5.1.8)-1) date 2021-04-08 23:39:19*
%MOMM*%
%LPD*%
G01*
G04 APERTURE LIST*
%TA.AperFunction,SMDPad,CuDef*%
%ADD10R,1.700000X4.400000*%
%TD*%
%TA.AperFunction,ComponentPad*%
%ADD11R,1.600000X1.600000*%
%TD*%
%TA.AperFunction,ComponentPad*%
%ADD12O,1.600000X1.600000*%
%TD*%
%TA.AperFunction,ComponentPad*%
%ADD13C,1.600000*%
%TD*%
%TA.AperFunction,ViaPad*%
%ADD14C,0.800000*%
%TD*%
%TA.AperFunction,Conductor*%
%ADD15C,0.381000*%
%TD*%
%TA.AperFunction,Conductor*%
%ADD16C,0.250000*%
%TD*%
G04 APERTURE END LIST*
D10*
%TO.P,J1,1*%
%TO.N,/A14*%
X104886500Y-100838000D03*
%TD*%
%TO.P,J2,1*%
%TO.N,/A15*%
X107934500Y-100838000D03*
%TD*%
%TO.P,J3,1*%
%TO.N,GND*%
X101838500Y-100838000D03*
%TD*%
D11*
%TO.P,A1,1*%
%TO.N,N/C*%
X102235000Y-62230000D03*
D12*
%TO.P,A1,15*%
%TO.N,/D3*%
X117475000Y-95250000D03*
%TO.P,A1,2*%
%TO.N,/A12*%
X102235000Y-64770000D03*
%TO.P,A1,16*%
%TO.N,/D4*%
X117475000Y-92710000D03*
%TO.P,A1,3*%
%TO.N,/A7*%
X102235000Y-67310000D03*
%TO.P,A1,17*%
%TO.N,/D5*%
X117475000Y-90170000D03*
%TO.P,A1,4*%
%TO.N,/A6*%
X102235000Y-69850000D03*
%TO.P,A1,18*%
%TO.N,/D6*%
X117475000Y-87630000D03*
%TO.P,A1,5*%
%TO.N,/A5*%
X102235000Y-72390000D03*
%TO.P,A1,19*%
%TO.N,/D7*%
X117475000Y-85090000D03*
%TO.P,A1,6*%
%TO.N,/A4*%
X102235000Y-74930000D03*
%TO.P,A1,20*%
%TO.N,/~CE*%
X117475000Y-82550000D03*
%TO.P,A1,7*%
%TO.N,/A3*%
X102235000Y-77470000D03*
%TO.P,A1,21*%
%TO.N,/A10*%
X117475000Y-80010000D03*
%TO.P,A1,8*%
%TO.N,/A2*%
X102235000Y-80010000D03*
%TO.P,A1,22*%
%TO.N,/~OE*%
X117475000Y-77470000D03*
%TO.P,A1,9*%
%TO.N,/A1*%
X102235000Y-82550000D03*
%TO.P,A1,23*%
%TO.N,/A11*%
X117475000Y-74930000D03*
%TO.P,A1,10*%
%TO.N,/A0*%
X102235000Y-85090000D03*
%TO.P,A1,24*%
%TO.N,/A9*%
X117475000Y-72390000D03*
%TO.P,A1,11*%
%TO.N,/D0*%
X102235000Y-87630000D03*
%TO.P,A1,25*%
%TO.N,/A8*%
X117475000Y-69850000D03*
%TO.P,A1,12*%
%TO.N,/D1*%
X102235000Y-90170000D03*
%TO.P,A1,26*%
%TO.N,/A13*%
X117475000Y-67310000D03*
%TO.P,A1,13*%
%TO.N,/D2*%
X102235000Y-92710000D03*
%TO.P,A1,27*%
%TO.N,N/C*%
X117475000Y-64770000D03*
%TO.P,A1,14*%
%TO.N,GND*%
X102235000Y-95250000D03*
%TO.P,A1,28*%
%TO.N,VCC*%
X117475000Y-62230000D03*
%TD*%
%TO.P,R1,2*%
%TO.N,/A14*%
X110744000Y-98552000D03*
D13*
%TO.P,R1,1*%
%TO.N,VCC*%
X120904000Y-98552000D03*
%TD*%
%TO.P,R2,1*%
%TO.N,VCC*%
X120904000Y-101854000D03*
D12*
%TO.P,R2,2*%
%TO.N,/A15*%
X110744000Y-101854000D03*
%TD*%
D11*
%TO.P,U1,1*%
%TO.N,/A15*%
X105410000Y-62230000D03*
D12*
%TO.P,U1,15*%
%TO.N,/D3*%
X120650000Y-95250000D03*
%TO.P,U1,2*%
%TO.N,/A12*%
X105410000Y-64770000D03*
%TO.P,U1,16*%
%TO.N,/D4*%
X120650000Y-92710000D03*
%TO.P,U1,3*%
%TO.N,/A7*%
X105410000Y-67310000D03*
%TO.P,U1,17*%
%TO.N,/D5*%
X120650000Y-90170000D03*
%TO.P,U1,4*%
%TO.N,/A6*%
X105410000Y-69850000D03*
%TO.P,U1,18*%
%TO.N,/D6*%
X120650000Y-87630000D03*
%TO.P,U1,5*%
%TO.N,/A5*%
X105410000Y-72390000D03*
%TO.P,U1,19*%
%TO.N,/D7*%
X120650000Y-85090000D03*
%TO.P,U1,6*%
%TO.N,/A4*%
X105410000Y-74930000D03*
%TO.P,U1,20*%
%TO.N,/~CE*%
X120650000Y-82550000D03*
%TO.P,U1,7*%
%TO.N,/A3*%
X105410000Y-77470000D03*
%TO.P,U1,21*%
%TO.N,/A10*%
X120650000Y-80010000D03*
%TO.P,U1,8*%
%TO.N,/A2*%
X105410000Y-80010000D03*
%TO.P,U1,22*%
%TO.N,/~OE*%
X120650000Y-77470000D03*
%TO.P,U1,9*%
%TO.N,/A1*%
X105410000Y-82550000D03*
%TO.P,U1,23*%
%TO.N,/A11*%
X120650000Y-74930000D03*
%TO.P,U1,10*%
%TO.N,/A0*%
X105410000Y-85090000D03*
%TO.P,U1,24*%
%TO.N,/A9*%
X120650000Y-72390000D03*
%TO.P,U1,11*%
%TO.N,/D0*%
X105410000Y-87630000D03*
%TO.P,U1,25*%
%TO.N,/A8*%
X120650000Y-69850000D03*
%TO.P,U1,12*%
%TO.N,/D1*%
X105410000Y-90170000D03*
%TO.P,U1,26*%
%TO.N,/A13*%
X120650000Y-67310000D03*
%TO.P,U1,13*%
%TO.N,/D2*%
X105410000Y-92710000D03*
%TO.P,U1,27*%
%TO.N,/A14*%
X120650000Y-64770000D03*
%TO.P,U1,14*%
%TO.N,GND*%
X105410000Y-95250000D03*
%TO.P,U1,28*%
%TO.N,VCC*%
X120650000Y-62230000D03*
%TD*%
D14*
%TO.N,/A14*%
X105410000Y-97282000D03*
%TD*%
D15*
%TO.N,GND*%
X102235000Y-96997000D02*
X101838500Y-97393500D01*
X102235000Y-95250000D02*
X102235000Y-96997000D01*
X101838500Y-100520500D02*
X101838500Y-97393500D01*
D16*
%TO.N,/D7*%
X120650000Y-85090000D02*
X117475000Y-85090000D01*
%TO.N,/D6*%
X117475000Y-87630000D02*
X120650000Y-87630000D01*
%TO.N,/D5*%
X120650000Y-90170000D02*
X117475000Y-90170000D01*
%TO.N,/D4*%
X117475000Y-92710000D02*
X120650000Y-92710000D01*
%TO.N,/D3*%
X120650000Y-95250000D02*
X117475000Y-95250000D01*
%TO.N,/D2*%
X105410000Y-92710000D02*
X102235000Y-92710000D01*
%TO.N,/D1*%
X102235000Y-90170000D02*
X105410000Y-90170000D01*
%TO.N,/D0*%
X105410000Y-87630000D02*
X102235000Y-87630000D01*
%TO.N,/A12*%
X105410000Y-64770000D02*
X102235000Y-64770000D01*
%TO.N,/A7*%
X102235000Y-67310000D02*
X105410000Y-67310000D01*
%TO.N,/A6*%
X105410000Y-69850000D02*
X102235000Y-69850000D01*
%TO.N,/A5*%
X102235000Y-72390000D02*
X105410000Y-72390000D01*
%TO.N,/A4*%
X105410000Y-74930000D02*
X102235000Y-74930000D01*
%TO.N,/~CE*%
X117475000Y-82550000D02*
X120650000Y-82550000D01*
%TO.N,/A3*%
X102235000Y-77470000D02*
X105410000Y-77470000D01*
%TO.N,/A10*%
X120650000Y-80010000D02*
X117475000Y-80010000D01*
%TO.N,/A2*%
X105410000Y-80010000D02*
X102235000Y-80010000D01*
%TO.N,/~OE*%
X117475000Y-77470000D02*
X120650000Y-77470000D01*
%TO.N,/A1*%
X102235000Y-82550000D02*
X105410000Y-82550000D01*
%TO.N,/A11*%
X120650000Y-74930000D02*
X117475000Y-74930000D01*
%TO.N,/A0*%
X102235000Y-85090000D02*
X105410000Y-85090000D01*
%TO.N,/A9*%
X117475000Y-72390000D02*
X120650000Y-72390000D01*
%TO.N,/A8*%
X120650000Y-69850000D02*
X117475000Y-69850000D01*
%TO.N,/A13*%
X117475000Y-67310000D02*
X120650000Y-67310000D01*
%TO.N,/A14*%
X119380000Y-66040000D02*
X120650000Y-64770000D01*
X111506000Y-66040000D02*
X119380000Y-66040000D01*
X110744000Y-66802000D02*
X111506000Y-66040000D01*
X110744000Y-99060000D02*
X110744000Y-66802000D01*
X104886500Y-97805500D02*
X105410000Y-97282000D01*
X104886500Y-100520500D02*
X104886500Y-97805500D01*
X110744000Y-98552000D02*
X110744000Y-97790000D01*
%TO.N,/A15*%
X107188000Y-62230000D02*
X105410000Y-62230000D01*
X107934500Y-62976500D02*
X107188000Y-62230000D01*
X107934500Y-100520500D02*
X107934500Y-62976500D01*
X109410500Y-100520500D02*
X110744000Y-101854000D01*
X107934500Y-100520500D02*
X109410500Y-100520500D01*
%TD*%
M02*
