%TF.GenerationSoftware,KiCad,Pcbnew,(5.1.8)-1*%
%TF.CreationDate,2021-04-08T23:39:19+02:00*%
%TF.ProjectId,C64 1541-II ROM Adapter,43363420-3135-4343-912d-494920524f4d,rev?*%
%TF.SameCoordinates,Original*%
%TF.FileFunction,Soldermask,Top*%
%TF.FilePolarity,Negative*%
%FSLAX46Y46*%
G04 Gerber Fmt 4.6, Leading zero omitted, Abs format (unit mm)*
G04 Created by KiCad (PCBNEW (5.1.8)-1) date 2021-04-08 23:39:19*
%MOMM*%
%LPD*%
G01*
G04 APERTURE LIST*
%ADD10R,1.700000X4.400000*%
%ADD11R,1.600000X1.600000*%
%ADD12O,1.600000X1.600000*%
%ADD13C,1.600000*%
G04 APERTURE END LIST*
D10*
%TO.C,J1*%
X104886500Y-100838000D03*
%TD*%
%TO.C,J2*%
X107934500Y-100838000D03*
%TD*%
%TO.C,J3*%
X101838500Y-100838000D03*
%TD*%
D11*
%TO.C,A1*%
X102235000Y-62230000D03*
D12*
X117475000Y-95250000D03*
X102235000Y-64770000D03*
X117475000Y-92710000D03*
X102235000Y-67310000D03*
X117475000Y-90170000D03*
X102235000Y-69850000D03*
X117475000Y-87630000D03*
X102235000Y-72390000D03*
X117475000Y-85090000D03*
X102235000Y-74930000D03*
X117475000Y-82550000D03*
X102235000Y-77470000D03*
X117475000Y-80010000D03*
X102235000Y-80010000D03*
X117475000Y-77470000D03*
X102235000Y-82550000D03*
X117475000Y-74930000D03*
X102235000Y-85090000D03*
X117475000Y-72390000D03*
X102235000Y-87630000D03*
X117475000Y-69850000D03*
X102235000Y-90170000D03*
X117475000Y-67310000D03*
X102235000Y-92710000D03*
X117475000Y-64770000D03*
X102235000Y-95250000D03*
X117475000Y-62230000D03*
%TD*%
%TO.C,R1*%
X110744000Y-98552000D03*
D13*
X120904000Y-98552000D03*
%TD*%
%TO.C,R2*%
X120904000Y-101854000D03*
D12*
X110744000Y-101854000D03*
%TD*%
D11*
%TO.C,U1*%
X105410000Y-62230000D03*
D12*
X120650000Y-95250000D03*
X105410000Y-64770000D03*
X120650000Y-92710000D03*
X105410000Y-67310000D03*
X120650000Y-90170000D03*
X105410000Y-69850000D03*
X120650000Y-87630000D03*
X105410000Y-72390000D03*
X120650000Y-85090000D03*
X105410000Y-74930000D03*
X120650000Y-82550000D03*
X105410000Y-77470000D03*
X120650000Y-80010000D03*
X105410000Y-80010000D03*
X120650000Y-77470000D03*
X105410000Y-82550000D03*
X120650000Y-74930000D03*
X105410000Y-85090000D03*
X120650000Y-72390000D03*
X105410000Y-87630000D03*
X120650000Y-69850000D03*
X105410000Y-90170000D03*
X120650000Y-67310000D03*
X105410000Y-92710000D03*
X120650000Y-64770000D03*
X105410000Y-95250000D03*
X120650000Y-62230000D03*
%TD*%
M02*
